<?xml version="1.0" encoding="utf-8"?>
<svg xmlns="http://www.w3.org/2000/svg" xmlns:xlink="http://www.w3.org/1999/xlink" width="600" height="400" viewBox="0 0 2400 1600">
<defs>
  <clipPath id="clip530">
    <rect x="0" y="0" width="2400" height="1600"/>
  </clipPath>
</defs>
<path clip-path="url(#clip530)" d="M0 1600 L2400 1600 L2400 0 L0 0  Z" fill="#ffffff" fill-rule="evenodd" fill-opacity="1"/>
<defs>
  <clipPath id="clip531">
    <rect x="480" y="0" width="1681" height="1600"/>
  </clipPath>
</defs>
<path clip-path="url(#clip530)" d="M203.964 1423.18 L2352.76 1423.18 L2352.76 123.472 L203.964 123.472  Z" fill="#ffffff" fill-rule="evenodd" fill-opacity="1"/>
<defs>
  <clipPath id="clip532">
    <rect x="203" y="123" width="2150" height="1301"/>
  </clipPath>
</defs>
<polyline clip-path="url(#clip532)" style="stroke:#000000; stroke-linecap:round; stroke-linejoin:round; stroke-width:2; stroke-opacity:0.1; fill:none" points="264.778,1423.18 264.778,123.472 "/>
<polyline clip-path="url(#clip532)" style="stroke:#000000; stroke-linecap:round; stroke-linejoin:round; stroke-width:2; stroke-opacity:0.1; fill:none" points="715.259,1423.18 715.259,123.472 "/>
<polyline clip-path="url(#clip532)" style="stroke:#000000; stroke-linecap:round; stroke-linejoin:round; stroke-width:2; stroke-opacity:0.1; fill:none" points="1165.74,1423.18 1165.74,123.472 "/>
<polyline clip-path="url(#clip532)" style="stroke:#000000; stroke-linecap:round; stroke-linejoin:round; stroke-width:2; stroke-opacity:0.1; fill:none" points="1616.22,1423.18 1616.22,123.472 "/>
<polyline clip-path="url(#clip532)" style="stroke:#000000; stroke-linecap:round; stroke-linejoin:round; stroke-width:2; stroke-opacity:0.1; fill:none" points="2066.7,1423.18 2066.7,123.472 "/>
<polyline clip-path="url(#clip532)" style="stroke:#000000; stroke-linecap:round; stroke-linejoin:round; stroke-width:2; stroke-opacity:0.1; fill:none" points="203.964,1357.64 2352.76,1357.64 "/>
<polyline clip-path="url(#clip532)" style="stroke:#000000; stroke-linecap:round; stroke-linejoin:round; stroke-width:2; stroke-opacity:0.1; fill:none" points="203.964,1128.25 2352.76,1128.25 "/>
<polyline clip-path="url(#clip532)" style="stroke:#000000; stroke-linecap:round; stroke-linejoin:round; stroke-width:2; stroke-opacity:0.1; fill:none" points="203.964,898.869 2352.76,898.869 "/>
<polyline clip-path="url(#clip532)" style="stroke:#000000; stroke-linecap:round; stroke-linejoin:round; stroke-width:2; stroke-opacity:0.1; fill:none" points="203.964,669.486 2352.76,669.486 "/>
<polyline clip-path="url(#clip532)" style="stroke:#000000; stroke-linecap:round; stroke-linejoin:round; stroke-width:2; stroke-opacity:0.1; fill:none" points="203.964,440.103 2352.76,440.103 "/>
<polyline clip-path="url(#clip532)" style="stroke:#000000; stroke-linecap:round; stroke-linejoin:round; stroke-width:2; stroke-opacity:0.1; fill:none" points="203.964,210.721 2352.76,210.721 "/>
<polyline clip-path="url(#clip530)" style="stroke:#000000; stroke-linecap:round; stroke-linejoin:round; stroke-width:4; stroke-opacity:1; fill:none" points="203.964,1423.18 2352.76,1423.18 "/>
<polyline clip-path="url(#clip530)" style="stroke:#000000; stroke-linecap:round; stroke-linejoin:round; stroke-width:4; stroke-opacity:1; fill:none" points="264.778,1423.18 264.778,1404.28 "/>
<polyline clip-path="url(#clip530)" style="stroke:#000000; stroke-linecap:round; stroke-linejoin:round; stroke-width:4; stroke-opacity:1; fill:none" points="715.259,1423.18 715.259,1404.28 "/>
<polyline clip-path="url(#clip530)" style="stroke:#000000; stroke-linecap:round; stroke-linejoin:round; stroke-width:4; stroke-opacity:1; fill:none" points="1165.74,1423.18 1165.74,1404.28 "/>
<polyline clip-path="url(#clip530)" style="stroke:#000000; stroke-linecap:round; stroke-linejoin:round; stroke-width:4; stroke-opacity:1; fill:none" points="1616.22,1423.18 1616.22,1404.28 "/>
<polyline clip-path="url(#clip530)" style="stroke:#000000; stroke-linecap:round; stroke-linejoin:round; stroke-width:4; stroke-opacity:1; fill:none" points="2066.7,1423.18 2066.7,1404.28 "/>
<path clip-path="url(#clip530)" d="M264.778 1454.1 Q261.167 1454.1 259.339 1457.66 Q257.533 1461.2 257.533 1468.33 Q257.533 1475.44 259.339 1479.01 Q261.167 1482.55 264.778 1482.55 Q268.413 1482.55 270.218 1479.01 Q272.047 1475.44 272.047 1468.33 Q272.047 1461.2 270.218 1457.66 Q268.413 1454.1 264.778 1454.1 M264.778 1450.39 Q270.589 1450.39 273.644 1455 Q276.723 1459.58 276.723 1468.33 Q276.723 1477.06 273.644 1481.67 Q270.589 1486.25 264.778 1486.25 Q258.968 1486.25 255.89 1481.67 Q252.834 1477.06 252.834 1468.33 Q252.834 1459.58 255.89 1455 Q258.968 1450.39 264.778 1450.39 Z" fill="#000000" fill-rule="nonzero" fill-opacity="1" /><path clip-path="url(#clip530)" d="M689.947 1481.64 L697.586 1481.64 L697.586 1455.28 L689.275 1456.95 L689.275 1452.69 L697.539 1451.02 L702.215 1451.02 L702.215 1481.64 L709.854 1481.64 L709.854 1485.58 L689.947 1485.58 L689.947 1481.64 Z" fill="#000000" fill-rule="nonzero" fill-opacity="1" /><path clip-path="url(#clip530)" d="M729.298 1454.1 Q725.687 1454.1 723.859 1457.66 Q722.053 1461.2 722.053 1468.33 Q722.053 1475.44 723.859 1479.01 Q725.687 1482.55 729.298 1482.55 Q732.933 1482.55 734.738 1479.01 Q736.567 1475.44 736.567 1468.33 Q736.567 1461.2 734.738 1457.66 Q732.933 1454.1 729.298 1454.1 M729.298 1450.39 Q735.108 1450.39 738.164 1455 Q741.243 1459.58 741.243 1468.33 Q741.243 1477.06 738.164 1481.67 Q735.108 1486.25 729.298 1486.25 Q723.488 1486.25 720.409 1481.67 Q717.354 1477.06 717.354 1468.33 Q717.354 1459.58 720.409 1455 Q723.488 1450.39 729.298 1450.39 Z" fill="#000000" fill-rule="nonzero" fill-opacity="1" /><path clip-path="url(#clip530)" d="M1144.51 1481.64 L1160.83 1481.64 L1160.83 1485.58 L1138.89 1485.58 L1138.89 1481.64 Q1141.55 1478.89 1146.13 1474.26 Q1150.74 1469.61 1151.92 1468.27 Q1154.17 1465.74 1155.05 1464.01 Q1155.95 1462.25 1155.95 1460.56 Q1155.95 1457.8 1154 1456.07 Q1152.08 1454.33 1148.98 1454.33 Q1146.78 1454.33 1144.33 1455.09 Q1141.9 1455.86 1139.12 1457.41 L1139.12 1452.69 Q1141.94 1451.55 1144.4 1450.97 Q1146.85 1450.39 1148.89 1450.39 Q1154.26 1450.39 1157.45 1453.08 Q1160.65 1455.77 1160.65 1460.26 Q1160.65 1462.39 1159.84 1464.31 Q1159.05 1466.2 1156.94 1468.8 Q1156.36 1469.47 1153.26 1472.69 Q1150.16 1475.88 1144.51 1481.64 Z" fill="#000000" fill-rule="nonzero" fill-opacity="1" /><path clip-path="url(#clip530)" d="M1180.65 1454.1 Q1177.04 1454.1 1175.21 1457.66 Q1173.4 1461.2 1173.4 1468.33 Q1173.4 1475.44 1175.21 1479.01 Q1177.04 1482.55 1180.65 1482.55 Q1184.28 1482.55 1186.09 1479.01 Q1187.92 1475.44 1187.92 1468.33 Q1187.92 1461.2 1186.09 1457.66 Q1184.28 1454.1 1180.65 1454.1 M1180.65 1450.39 Q1186.46 1450.39 1189.51 1455 Q1192.59 1459.58 1192.59 1468.33 Q1192.59 1477.06 1189.51 1481.67 Q1186.46 1486.25 1180.65 1486.25 Q1174.84 1486.25 1171.76 1481.67 Q1168.7 1477.06 1168.7 1468.33 Q1168.7 1459.58 1171.76 1455 Q1174.84 1450.39 1180.65 1450.39 Z" fill="#000000" fill-rule="nonzero" fill-opacity="1" /><path clip-path="url(#clip530)" d="M1605.06 1466.95 Q1608.42 1467.66 1610.29 1469.93 Q1612.19 1472.2 1612.19 1475.53 Q1612.19 1480.65 1608.67 1483.45 Q1605.16 1486.25 1598.67 1486.25 Q1596.5 1486.25 1594.18 1485.81 Q1591.89 1485.39 1589.44 1484.54 L1589.44 1480.02 Q1591.38 1481.16 1593.7 1481.74 Q1596.01 1482.32 1598.54 1482.32 Q1602.93 1482.32 1605.22 1480.58 Q1607.54 1478.84 1607.54 1475.53 Q1607.54 1472.48 1605.39 1470.77 Q1603.26 1469.03 1599.44 1469.03 L1595.41 1469.03 L1595.41 1465.19 L1599.62 1465.19 Q1603.07 1465.19 1604.9 1463.82 Q1606.73 1462.43 1606.73 1459.84 Q1606.73 1457.18 1604.83 1455.77 Q1602.96 1454.33 1599.44 1454.33 Q1597.52 1454.33 1595.32 1454.75 Q1593.12 1455.16 1590.48 1456.04 L1590.48 1451.88 Q1593.14 1451.14 1595.46 1450.77 Q1597.79 1450.39 1599.85 1450.39 Q1605.18 1450.39 1608.28 1452.83 Q1611.38 1455.23 1611.38 1459.35 Q1611.38 1462.22 1609.74 1464.21 Q1608.1 1466.18 1605.06 1466.95 Z" fill="#000000" fill-rule="nonzero" fill-opacity="1" /><path clip-path="url(#clip530)" d="M1631.06 1454.1 Q1627.45 1454.1 1625.62 1457.66 Q1623.81 1461.2 1623.81 1468.33 Q1623.81 1475.44 1625.62 1479.01 Q1627.45 1482.55 1631.06 1482.55 Q1634.69 1482.55 1636.5 1479.01 Q1638.33 1475.44 1638.33 1468.33 Q1638.33 1461.2 1636.5 1457.66 Q1634.69 1454.1 1631.06 1454.1 M1631.06 1450.39 Q1636.87 1450.39 1639.92 1455 Q1643 1459.58 1643 1468.33 Q1643 1477.06 1639.92 1481.67 Q1636.87 1486.25 1631.06 1486.25 Q1625.25 1486.25 1622.17 1481.67 Q1619.11 1477.06 1619.11 1468.33 Q1619.11 1459.58 1622.17 1455 Q1625.25 1450.39 1631.06 1450.39 Z" fill="#000000" fill-rule="nonzero" fill-opacity="1" /><path clip-path="url(#clip530)" d="M2054.87 1455.09 L2043.07 1473.54 L2054.87 1473.54 L2054.87 1455.09 M2053.65 1451.02 L2059.52 1451.02 L2059.52 1473.54 L2064.46 1473.54 L2064.46 1477.43 L2059.52 1477.43 L2059.52 1485.58 L2054.87 1485.58 L2054.87 1477.43 L2039.27 1477.43 L2039.27 1472.92 L2053.65 1451.02 Z" fill="#000000" fill-rule="nonzero" fill-opacity="1" /><path clip-path="url(#clip530)" d="M2082.19 1454.1 Q2078.58 1454.1 2076.75 1457.66 Q2074.94 1461.2 2074.94 1468.33 Q2074.94 1475.44 2076.75 1479.01 Q2078.58 1482.55 2082.19 1482.55 Q2085.82 1482.55 2087.63 1479.01 Q2089.46 1475.44 2089.46 1468.33 Q2089.46 1461.2 2087.63 1457.66 Q2085.82 1454.1 2082.19 1454.1 M2082.19 1450.39 Q2088 1450.39 2091.05 1455 Q2094.13 1459.58 2094.13 1468.33 Q2094.13 1477.06 2091.05 1481.67 Q2088 1486.25 2082.19 1486.25 Q2076.38 1486.25 2073.3 1481.67 Q2070.24 1477.06 2070.24 1468.33 Q2070.24 1459.58 2073.3 1455 Q2076.38 1450.39 2082.19 1450.39 Z" fill="#000000" fill-rule="nonzero" fill-opacity="1" /><path clip-path="url(#clip530)" d="M919.62 1520.52 L959.82 1520.52 L959.82 1525.93 L942.951 1525.93 L942.951 1568.04 L936.489 1568.04 L936.489 1525.93 L919.62 1525.93 L919.62 1520.52 Z" fill="#000000" fill-rule="nonzero" fill-opacity="1" /><path clip-path="url(#clip530)" d="M963.767 1532.4 L969.623 1532.4 L969.623 1568.04 L963.767 1568.04 L963.767 1532.4 M963.767 1518.52 L969.623 1518.52 L969.623 1525.93 L963.767 1525.93 L963.767 1518.52 Z" fill="#000000" fill-rule="nonzero" fill-opacity="1" /><path clip-path="url(#clip530)" d="M987.542 1562.7 L987.542 1581.6 L981.654 1581.6 L981.654 1532.4 L987.542 1532.4 L987.542 1537.81 Q989.388 1534.62 992.189 1533.1 Q995.022 1531.54 998.937 1531.54 Q1005.43 1531.54 1009.47 1536.69 Q1013.55 1541.85 1013.55 1550.25 Q1013.55 1558.65 1009.47 1563.81 Q1005.43 1568.97 998.937 1568.97 Q995.022 1568.97 992.189 1567.44 Q989.388 1565.88 987.542 1562.7 M1007.47 1550.25 Q1007.47 1543.79 1004.79 1540.13 Q1002.15 1536.44 997.505 1536.44 Q992.858 1536.44 990.184 1540.13 Q987.542 1543.79 987.542 1550.25 Q987.542 1556.71 990.184 1560.4 Q992.858 1564.07 997.505 1564.07 Q1002.15 1564.07 1004.79 1560.4 Q1007.47 1556.71 1007.47 1550.25 Z" fill="#000000" fill-rule="nonzero" fill-opacity="1" /><path clip-path="url(#clip530)" d="M1066.7 1533.45 L1066.7 1538.98 Q1064.22 1537.71 1061.54 1537.07 Q1058.87 1536.44 1056.01 1536.44 Q1051.65 1536.44 1049.45 1537.77 Q1047.28 1539.11 1047.28 1541.79 Q1047.28 1543.82 1048.84 1545 Q1050.4 1546.15 1055.11 1547.2 L1057.12 1547.64 Q1063.36 1548.98 1065.97 1551.43 Q1068.61 1553.85 1068.61 1558.21 Q1068.61 1563.17 1064.66 1566.07 Q1060.75 1568.97 1053.87 1568.97 Q1051.01 1568.97 1047.89 1568.39 Q1044.8 1567.85 1041.36 1566.74 L1041.36 1560.69 Q1044.61 1562.38 1047.76 1563.24 Q1050.91 1564.07 1054 1564.07 Q1058.14 1564.07 1060.37 1562.66 Q1062.59 1561.23 1062.59 1558.65 Q1062.59 1556.27 1060.97 1554.99 Q1059.38 1553.72 1053.94 1552.54 L1051.9 1552.07 Q1046.46 1550.92 1044.04 1548.56 Q1041.62 1546.18 1041.62 1542.04 Q1041.62 1537.01 1045.18 1534.27 Q1048.75 1531.54 1055.31 1531.54 Q1058.55 1531.54 1061.42 1532.01 Q1064.28 1532.49 1066.7 1533.45 Z" fill="#000000" fill-rule="nonzero" fill-opacity="1" /><path clip-path="url(#clip530)" d="M1074.53 1532.4 L1080.39 1532.4 L1087.71 1560.21 L1095 1532.4 L1101.9 1532.4 L1109.22 1560.21 L1116.51 1532.4 L1122.37 1532.4 L1113.04 1568.04 L1106.14 1568.04 L1098.46 1538.83 L1090.76 1568.04 L1083.86 1568.04 L1074.53 1532.4 Z" fill="#000000" fill-rule="nonzero" fill-opacity="1" /><path clip-path="url(#clip530)" d="M1161.74 1548.76 L1161.74 1551.62 L1134.81 1551.62 Q1135.19 1557.67 1138.44 1560.85 Q1141.72 1564 1147.54 1564 Q1150.92 1564 1154.07 1563.17 Q1157.25 1562.35 1160.37 1560.69 L1160.37 1566.23 Q1157.22 1567.57 1153.91 1568.27 Q1150.6 1568.97 1147.19 1568.97 Q1138.66 1568.97 1133.67 1564 Q1128.7 1559.04 1128.7 1550.57 Q1128.7 1541.82 1133.41 1536.69 Q1138.16 1531.54 1146.18 1531.54 Q1153.37 1531.54 1157.54 1536.18 Q1161.74 1540.8 1161.74 1548.76 M1155.88 1547.04 Q1155.82 1542.23 1153.18 1539.37 Q1150.57 1536.5 1146.24 1536.5 Q1141.34 1536.5 1138.38 1539.27 Q1135.45 1542.04 1135 1547.07 L1155.88 1547.04 Z" fill="#000000" fill-rule="nonzero" fill-opacity="1" /><path clip-path="url(#clip530)" d="M1201.84 1548.76 L1201.84 1551.62 L1174.92 1551.62 Q1175.3 1557.67 1178.55 1560.85 Q1181.82 1564 1187.65 1564 Q1191.02 1564 1194.17 1563.17 Q1197.36 1562.35 1200.48 1560.69 L1200.48 1566.23 Q1197.32 1567.57 1194.01 1568.27 Q1190.7 1568.97 1187.3 1568.97 Q1178.77 1568.97 1173.77 1564 Q1168.81 1559.04 1168.81 1550.57 Q1168.81 1541.82 1173.52 1536.69 Q1178.26 1531.54 1186.28 1531.54 Q1193.47 1531.54 1197.64 1536.18 Q1201.84 1540.8 1201.84 1548.76 M1195.99 1547.04 Q1195.92 1542.23 1193.28 1539.37 Q1190.67 1536.5 1186.34 1536.5 Q1181.44 1536.5 1178.48 1539.27 Q1175.55 1542.04 1175.11 1547.07 L1195.99 1547.04 Z" fill="#000000" fill-rule="nonzero" fill-opacity="1" /><path clip-path="url(#clip530)" d="M1217.12 1562.7 L1217.12 1581.6 L1211.23 1581.6 L1211.23 1532.4 L1217.12 1532.4 L1217.12 1537.81 Q1218.97 1534.62 1221.77 1533.1 Q1224.6 1531.54 1228.52 1531.54 Q1235.01 1531.54 1239.05 1536.69 Q1243.13 1541.85 1243.13 1550.25 Q1243.13 1558.65 1239.05 1563.81 Q1235.01 1568.97 1228.52 1568.97 Q1224.6 1568.97 1221.77 1567.44 Q1218.97 1565.88 1217.12 1562.7 M1237.05 1550.25 Q1237.05 1543.79 1234.37 1540.13 Q1231.73 1536.44 1227.08 1536.44 Q1222.44 1536.44 1219.76 1540.13 Q1217.12 1543.79 1217.12 1550.25 Q1217.12 1556.71 1219.76 1560.4 Q1222.44 1564.07 1227.08 1564.07 Q1231.73 1564.07 1234.37 1560.4 Q1237.05 1556.71 1237.05 1550.25 Z" fill="#000000" fill-rule="nonzero" fill-opacity="1" /><path clip-path="url(#clip530)" d="M1289.75 1550.12 Q1282.66 1550.12 1279.92 1551.75 Q1277.18 1553.37 1277.18 1557.29 Q1277.18 1560.4 1279.22 1562.25 Q1281.29 1564.07 1284.82 1564.07 Q1289.69 1564.07 1292.62 1560.63 Q1295.58 1557.16 1295.58 1551.43 L1295.58 1550.12 L1289.75 1550.12 M1301.44 1547.71 L1301.44 1568.04 L1295.58 1568.04 L1295.58 1562.63 Q1293.57 1565.88 1290.58 1567.44 Q1287.59 1568.97 1283.26 1568.97 Q1277.79 1568.97 1274.54 1565.91 Q1271.33 1562.82 1271.33 1557.67 Q1271.33 1551.65 1275.34 1548.6 Q1279.38 1545.54 1287.37 1545.54 L1295.58 1545.54 L1295.58 1544.97 Q1295.58 1540.93 1292.91 1538.73 Q1290.26 1536.5 1285.46 1536.5 Q1282.4 1536.5 1279.51 1537.23 Q1276.61 1537.97 1273.94 1539.43 L1273.94 1534.02 Q1277.15 1532.78 1280.17 1532.17 Q1283.2 1531.54 1286.06 1531.54 Q1293.8 1531.54 1297.62 1535.55 Q1301.44 1539.56 1301.44 1547.71 Z" fill="#000000" fill-rule="nonzero" fill-opacity="1" /><path clip-path="url(#clip530)" d="M1343.13 1546.53 L1343.13 1568.04 L1337.27 1568.04 L1337.27 1546.72 Q1337.27 1541.66 1335.3 1539.14 Q1333.33 1536.63 1329.38 1536.63 Q1324.64 1536.63 1321.9 1539.65 Q1319.16 1542.68 1319.16 1547.9 L1319.16 1568.04 L1313.28 1568.04 L1313.28 1532.4 L1319.16 1532.4 L1319.16 1537.93 Q1321.26 1534.72 1324.1 1533.13 Q1326.96 1531.54 1330.69 1531.54 Q1336.83 1531.54 1339.98 1535.36 Q1343.13 1539.14 1343.13 1546.53 Z" fill="#000000" fill-rule="nonzero" fill-opacity="1" /><path clip-path="url(#clip530)" d="M1378.27 1549.81 Q1378.27 1543.44 1375.63 1539.94 Q1373.02 1536.44 1368.28 1536.44 Q1363.56 1536.44 1360.92 1539.94 Q1358.31 1543.44 1358.31 1549.81 Q1358.31 1556.14 1360.92 1559.64 Q1363.56 1563.14 1368.28 1563.14 Q1373.02 1563.14 1375.63 1559.64 Q1378.27 1556.14 1378.27 1549.81 M1384.13 1563.62 Q1384.13 1572.72 1380.08 1577.15 Q1376.04 1581.6 1367.7 1581.6 Q1364.62 1581.6 1361.88 1581.13 Q1359.14 1580.68 1356.56 1579.72 L1356.56 1574.03 Q1359.14 1575.43 1361.66 1576.1 Q1364.17 1576.76 1366.78 1576.76 Q1372.54 1576.76 1375.4 1573.74 Q1378.27 1570.75 1378.27 1564.67 L1378.27 1561.77 Q1376.46 1564.92 1373.62 1566.48 Q1370.79 1568.04 1366.84 1568.04 Q1360.29 1568.04 1356.28 1563.05 Q1352.27 1558.05 1352.27 1549.81 Q1352.27 1541.53 1356.28 1536.53 Q1360.29 1531.54 1366.84 1531.54 Q1370.79 1531.54 1373.62 1533.1 Q1376.46 1534.66 1378.27 1537.81 L1378.27 1532.4 L1384.13 1532.4 L1384.13 1563.62 Z" fill="#000000" fill-rule="nonzero" fill-opacity="1" /><path clip-path="url(#clip530)" d="M1396.19 1518.52 L1402.05 1518.52 L1402.05 1568.04 L1396.19 1568.04 L1396.19 1518.52 Z" fill="#000000" fill-rule="nonzero" fill-opacity="1" /><path clip-path="url(#clip530)" d="M1444.79 1548.76 L1444.79 1551.62 L1417.86 1551.62 Q1418.25 1557.67 1421.49 1560.85 Q1424.77 1564 1430.6 1564 Q1433.97 1564 1437.12 1563.17 Q1440.3 1562.35 1443.42 1560.69 L1443.42 1566.23 Q1440.27 1567.57 1436.96 1568.27 Q1433.65 1568.97 1430.25 1568.97 Q1421.72 1568.97 1416.72 1564 Q1411.75 1559.04 1411.75 1550.57 Q1411.75 1541.82 1416.46 1536.69 Q1421.21 1531.54 1429.23 1531.54 Q1436.42 1531.54 1440.59 1536.18 Q1444.79 1540.8 1444.79 1548.76 M1438.93 1547.04 Q1438.87 1542.23 1436.23 1539.37 Q1433.62 1536.5 1429.29 1536.5 Q1424.39 1536.5 1421.43 1539.27 Q1418.5 1542.04 1418.06 1547.07 L1438.93 1547.04 Z" fill="#000000" fill-rule="nonzero" fill-opacity="1" /><path clip-path="url(#clip530)" d="M1474.58 1518.52 L1488.08 1518.52 L1488.08 1523.07 L1480.44 1523.07 L1480.44 1572.09 L1488.08 1572.09 L1488.08 1576.64 L1474.58 1576.64 L1474.58 1518.52 Z" fill="#000000" fill-rule="nonzero" fill-opacity="1" /><path clip-path="url(#clip530)" d="M1524.01 1537.81 L1524.01 1518.52 L1529.87 1518.52 L1529.87 1568.04 L1524.01 1568.04 L1524.01 1562.7 Q1522.17 1565.88 1519.33 1567.44 Q1516.53 1568.97 1512.59 1568.97 Q1506.12 1568.97 1502.05 1563.81 Q1498.01 1558.65 1498.01 1550.25 Q1498.01 1541.85 1502.05 1536.69 Q1506.12 1531.54 1512.59 1531.54 Q1516.53 1531.54 1519.33 1533.1 Q1522.17 1534.62 1524.01 1537.81 M1504.06 1550.25 Q1504.06 1556.71 1506.7 1560.4 Q1509.37 1564.07 1514.02 1564.07 Q1518.67 1564.07 1521.34 1560.4 Q1524.01 1556.71 1524.01 1550.25 Q1524.01 1543.79 1521.34 1540.13 Q1518.67 1536.44 1514.02 1536.44 Q1509.37 1536.44 1506.7 1540.13 Q1504.06 1543.79 1504.06 1550.25 Z" fill="#000000" fill-rule="nonzero" fill-opacity="1" /><path clip-path="url(#clip530)" d="M1572.42 1548.76 L1572.42 1551.62 L1545.5 1551.62 Q1545.88 1557.67 1549.13 1560.85 Q1552.4 1564 1558.23 1564 Q1561.6 1564 1564.75 1563.17 Q1567.94 1562.35 1571.05 1560.69 L1571.05 1566.23 Q1567.9 1567.57 1564.59 1568.27 Q1561.28 1568.97 1557.88 1568.97 Q1549.35 1568.97 1544.35 1564 Q1539.39 1559.04 1539.39 1550.57 Q1539.39 1541.82 1544.1 1536.69 Q1548.84 1531.54 1556.86 1531.54 Q1564.05 1531.54 1568.22 1536.18 Q1572.42 1540.8 1572.42 1548.76 M1566.57 1547.04 Q1566.5 1542.23 1563.86 1539.37 Q1561.25 1536.5 1556.92 1536.5 Q1552.02 1536.5 1549.06 1539.27 Q1546.13 1542.04 1545.69 1547.07 L1566.57 1547.04 Z" fill="#000000" fill-rule="nonzero" fill-opacity="1" /><path clip-path="url(#clip530)" d="M1605.49 1549.81 Q1605.49 1543.44 1602.85 1539.94 Q1600.24 1536.44 1595.5 1536.44 Q1590.79 1536.44 1588.15 1539.94 Q1585.54 1543.44 1585.54 1549.81 Q1585.54 1556.14 1588.15 1559.64 Q1590.79 1563.14 1595.5 1563.14 Q1600.24 1563.14 1602.85 1559.64 Q1605.49 1556.14 1605.49 1549.81 M1611.35 1563.62 Q1611.35 1572.72 1607.31 1577.15 Q1603.27 1581.6 1594.93 1581.6 Q1591.84 1581.6 1589.1 1581.13 Q1586.36 1580.68 1583.79 1579.72 L1583.79 1574.03 Q1586.36 1575.43 1588.88 1576.1 Q1591.39 1576.76 1594 1576.76 Q1599.76 1576.76 1602.63 1573.74 Q1605.49 1570.75 1605.49 1564.67 L1605.49 1561.77 Q1603.68 1564.92 1600.85 1566.48 Q1598.01 1568.04 1594.07 1568.04 Q1587.51 1568.04 1583.5 1563.05 Q1579.49 1558.05 1579.49 1549.81 Q1579.49 1541.53 1583.5 1536.53 Q1587.51 1531.54 1594.07 1531.54 Q1598.01 1531.54 1600.85 1533.1 Q1603.68 1534.66 1605.49 1537.81 L1605.49 1532.4 L1611.35 1532.4 L1611.35 1563.62 Z" fill="#000000" fill-rule="nonzero" fill-opacity="1" /><path clip-path="url(#clip530)" d="M1637.1 1518.52 L1637.1 1576.64 L1623.6 1576.64 L1623.6 1572.09 L1631.21 1572.09 L1631.21 1523.07 L1623.6 1523.07 L1623.6 1518.52 L1637.1 1518.52 Z" fill="#000000" fill-rule="nonzero" fill-opacity="1" /><polyline clip-path="url(#clip530)" style="stroke:#000000; stroke-linecap:round; stroke-linejoin:round; stroke-width:4; stroke-opacity:1; fill:none" points="203.964,1423.18 203.964,123.472 "/>
<polyline clip-path="url(#clip530)" style="stroke:#000000; stroke-linecap:round; stroke-linejoin:round; stroke-width:4; stroke-opacity:1; fill:none" points="203.964,1357.64 222.861,1357.64 "/>
<polyline clip-path="url(#clip530)" style="stroke:#000000; stroke-linecap:round; stroke-linejoin:round; stroke-width:4; stroke-opacity:1; fill:none" points="203.964,1128.25 222.861,1128.25 "/>
<polyline clip-path="url(#clip530)" style="stroke:#000000; stroke-linecap:round; stroke-linejoin:round; stroke-width:4; stroke-opacity:1; fill:none" points="203.964,898.869 222.861,898.869 "/>
<polyline clip-path="url(#clip530)" style="stroke:#000000; stroke-linecap:round; stroke-linejoin:round; stroke-width:4; stroke-opacity:1; fill:none" points="203.964,669.486 222.861,669.486 "/>
<polyline clip-path="url(#clip530)" style="stroke:#000000; stroke-linecap:round; stroke-linejoin:round; stroke-width:4; stroke-opacity:1; fill:none" points="203.964,440.103 222.861,440.103 "/>
<polyline clip-path="url(#clip530)" style="stroke:#000000; stroke-linecap:round; stroke-linejoin:round; stroke-width:4; stroke-opacity:1; fill:none" points="203.964,210.721 222.861,210.721 "/>
<path clip-path="url(#clip530)" d="M116.668 1370.98 L124.306 1370.98 L124.306 1344.61 L115.996 1346.28 L115.996 1342.02 L124.26 1340.36 L128.936 1340.36 L128.936 1370.98 L136.575 1370.98 L136.575 1374.92 L116.668 1374.92 L116.668 1370.98 Z" fill="#000000" fill-rule="nonzero" fill-opacity="1" /><path clip-path="url(#clip530)" d="M156.019 1343.43 Q152.408 1343.43 150.579 1347 Q148.774 1350.54 148.774 1357.67 Q148.774 1364.78 150.579 1368.34 Q152.408 1371.88 156.019 1371.88 Q159.653 1371.88 161.459 1368.34 Q163.288 1364.78 163.288 1357.67 Q163.288 1350.54 161.459 1347 Q159.653 1343.43 156.019 1343.43 M156.019 1339.73 Q161.829 1339.73 164.885 1344.34 Q167.964 1348.92 167.964 1357.67 Q167.964 1366.4 164.885 1371 Q161.829 1375.59 156.019 1375.59 Q150.209 1375.59 147.13 1371 Q144.075 1366.4 144.075 1357.67 Q144.075 1348.92 147.13 1344.34 Q150.209 1339.73 156.019 1339.73 Z" fill="#000000" fill-rule="nonzero" fill-opacity="1" /><path clip-path="url(#clip530)" d="M117.663 1141.6 L125.302 1141.6 L125.302 1115.23 L116.992 1116.9 L116.992 1112.64 L125.255 1110.97 L129.931 1110.97 L129.931 1141.6 L137.57 1141.6 L137.57 1145.53 L117.663 1145.53 L117.663 1141.6 Z" fill="#000000" fill-rule="nonzero" fill-opacity="1" /><path clip-path="url(#clip530)" d="M147.061 1110.97 L165.417 1110.97 L165.417 1114.91 L151.343 1114.91 L151.343 1123.38 Q152.362 1123.03 153.38 1122.87 Q154.399 1122.69 155.417 1122.69 Q161.204 1122.69 164.584 1125.86 Q167.964 1129.03 167.964 1134.44 Q167.964 1140.02 164.491 1143.12 Q161.019 1146.2 154.7 1146.2 Q152.524 1146.2 150.255 1145.83 Q148.01 1145.46 145.603 1144.72 L145.603 1140.02 Q147.686 1141.16 149.908 1141.71 Q152.13 1142.27 154.607 1142.27 Q158.612 1142.27 160.95 1140.16 Q163.288 1138.06 163.288 1134.44 Q163.288 1130.83 160.95 1128.73 Q158.612 1126.62 154.607 1126.62 Q152.732 1126.62 150.857 1127.04 Q149.005 1127.45 147.061 1128.33 L147.061 1110.97 Z" fill="#000000" fill-rule="nonzero" fill-opacity="1" /><path clip-path="url(#clip530)" d="M119.885 912.214 L136.204 912.214 L136.204 916.149 L114.26 916.149 L114.26 912.214 Q116.922 909.459 121.505 904.83 Q126.112 900.177 127.292 898.835 Q129.538 896.311 130.417 894.575 Q131.32 892.816 131.32 891.126 Q131.32 888.372 129.376 886.636 Q127.455 884.899 124.353 884.899 Q122.154 884.899 119.7 885.663 Q117.269 886.427 114.492 887.978 L114.492 883.256 Q117.316 882.122 119.769 881.543 Q122.223 880.964 124.26 880.964 Q129.63 880.964 132.825 883.649 Q136.019 886.335 136.019 890.825 Q136.019 892.955 135.209 894.876 Q134.422 896.774 132.316 899.367 Q131.737 900.038 128.635 903.256 Q125.533 906.45 119.885 912.214 Z" fill="#000000" fill-rule="nonzero" fill-opacity="1" /><path clip-path="url(#clip530)" d="M156.019 884.668 Q152.408 884.668 150.579 888.233 Q148.774 891.774 148.774 898.904 Q148.774 906.01 150.579 909.575 Q152.408 913.117 156.019 913.117 Q159.653 913.117 161.459 909.575 Q163.288 906.01 163.288 898.904 Q163.288 891.774 161.459 888.233 Q159.653 884.668 156.019 884.668 M156.019 880.964 Q161.829 880.964 164.885 885.571 Q167.964 890.154 167.964 898.904 Q167.964 907.631 164.885 912.237 Q161.829 916.821 156.019 916.821 Q150.209 916.821 147.13 912.237 Q144.075 907.631 144.075 898.904 Q144.075 890.154 147.13 885.571 Q150.209 880.964 156.019 880.964 Z" fill="#000000" fill-rule="nonzero" fill-opacity="1" /><path clip-path="url(#clip530)" d="M120.88 682.831 L137.2 682.831 L137.2 686.766 L115.256 686.766 L115.256 682.831 Q117.918 680.077 122.501 675.447 Q127.107 670.794 128.288 669.452 Q130.533 666.928 131.413 665.192 Q132.316 663.433 132.316 661.743 Q132.316 658.989 130.371 657.253 Q128.45 655.517 125.348 655.517 Q123.149 655.517 120.695 656.28 Q118.265 657.044 115.487 658.595 L115.487 653.873 Q118.311 652.739 120.765 652.16 Q123.218 651.581 125.255 651.581 Q130.626 651.581 133.82 654.267 Q137.015 656.952 137.015 661.442 Q137.015 663.572 136.204 665.493 Q135.417 667.391 133.311 669.984 Q132.732 670.655 129.63 673.873 Q126.529 677.067 120.88 682.831 Z" fill="#000000" fill-rule="nonzero" fill-opacity="1" /><path clip-path="url(#clip530)" d="M147.061 652.206 L165.417 652.206 L165.417 656.142 L151.343 656.142 L151.343 664.614 Q152.362 664.266 153.38 664.104 Q154.399 663.919 155.417 663.919 Q161.204 663.919 164.584 667.091 Q167.964 670.262 167.964 675.678 Q167.964 681.257 164.491 684.359 Q161.019 687.438 154.7 687.438 Q152.524 687.438 150.255 687.067 Q148.01 686.697 145.603 685.956 L145.603 681.257 Q147.686 682.391 149.908 682.947 Q152.13 683.502 154.607 683.502 Q158.612 683.502 160.95 681.396 Q163.288 679.29 163.288 675.678 Q163.288 672.067 160.95 669.961 Q158.612 667.854 154.607 667.854 Q152.732 667.854 150.857 668.271 Q149.005 668.688 147.061 669.567 L147.061 652.206 Z" fill="#000000" fill-rule="nonzero" fill-opacity="1" /><path clip-path="url(#clip530)" d="M130.024 438.749 Q133.38 439.467 135.255 441.735 Q137.154 444.004 137.154 447.337 Q137.154 452.453 133.635 455.254 Q130.117 458.055 123.635 458.055 Q121.459 458.055 119.144 457.615 Q116.853 457.198 114.399 456.342 L114.399 451.828 Q116.343 452.962 118.658 453.541 Q120.973 454.12 123.496 454.12 Q127.894 454.12 130.186 452.383 Q132.501 450.647 132.501 447.337 Q132.501 444.282 130.348 442.569 Q128.218 440.833 124.399 440.833 L120.371 440.833 L120.371 436.99 L124.584 436.99 Q128.033 436.99 129.862 435.624 Q131.691 434.235 131.691 431.643 Q131.691 428.981 129.792 427.569 Q127.917 426.134 124.399 426.134 Q122.478 426.134 120.279 426.55 Q118.08 426.967 115.441 427.847 L115.441 423.68 Q118.103 422.939 120.418 422.569 Q122.755 422.198 124.816 422.198 Q130.14 422.198 133.242 424.629 Q136.343 427.036 136.343 431.157 Q136.343 434.027 134.7 436.018 Q133.056 437.985 130.024 438.749 Z" fill="#000000" fill-rule="nonzero" fill-opacity="1" /><path clip-path="url(#clip530)" d="M156.019 425.902 Q152.408 425.902 150.579 429.467 Q148.774 433.009 148.774 440.138 Q148.774 447.245 150.579 450.809 Q152.408 454.351 156.019 454.351 Q159.653 454.351 161.459 450.809 Q163.288 447.245 163.288 440.138 Q163.288 433.009 161.459 429.467 Q159.653 425.902 156.019 425.902 M156.019 422.198 Q161.829 422.198 164.885 426.805 Q167.964 431.388 167.964 440.138 Q167.964 448.865 164.885 453.471 Q161.829 458.055 156.019 458.055 Q150.209 458.055 147.13 453.471 Q144.075 448.865 144.075 440.138 Q144.075 431.388 147.13 426.805 Q150.209 422.198 156.019 422.198 Z" fill="#000000" fill-rule="nonzero" fill-opacity="1" /><path clip-path="url(#clip530)" d="M131.019 209.366 Q134.376 210.084 136.251 212.352 Q138.149 214.621 138.149 217.954 Q138.149 223.07 134.63 225.871 Q131.112 228.672 124.63 228.672 Q122.455 228.672 120.14 228.232 Q117.848 227.815 115.394 226.959 L115.394 222.445 Q117.339 223.579 119.654 224.158 Q121.968 224.737 124.492 224.737 Q128.89 224.737 131.181 223.001 Q133.496 221.264 133.496 217.954 Q133.496 214.899 131.343 213.186 Q129.214 211.45 125.394 211.45 L121.367 211.45 L121.367 207.607 L125.58 207.607 Q129.029 207.607 130.857 206.241 Q132.686 204.853 132.686 202.26 Q132.686 199.598 130.788 198.186 Q128.913 196.751 125.394 196.751 Q123.473 196.751 121.274 197.167 Q119.075 197.584 116.436 198.464 L116.436 194.297 Q119.098 193.556 121.413 193.186 Q123.751 192.816 125.811 192.816 Q131.135 192.816 134.237 195.246 Q137.339 197.653 137.339 201.774 Q137.339 204.644 135.695 206.635 Q134.052 208.603 131.019 209.366 Z" fill="#000000" fill-rule="nonzero" fill-opacity="1" /><path clip-path="url(#clip530)" d="M147.061 193.441 L165.417 193.441 L165.417 197.376 L151.343 197.376 L151.343 205.848 Q152.362 205.501 153.38 205.339 Q154.399 205.153 155.417 205.153 Q161.204 205.153 164.584 208.325 Q167.964 211.496 167.964 216.913 Q167.964 222.491 164.491 225.593 Q161.019 228.672 154.7 228.672 Q152.524 228.672 150.255 228.301 Q148.01 227.931 145.603 227.19 L145.603 222.491 Q147.686 223.626 149.908 224.181 Q152.13 224.737 154.607 224.737 Q158.612 224.737 160.95 222.63 Q163.288 220.524 163.288 216.913 Q163.288 213.302 160.95 211.195 Q158.612 209.089 154.607 209.089 Q152.732 209.089 150.857 209.505 Q149.005 209.922 147.061 210.802 L147.061 193.441 Z" fill="#000000" fill-rule="nonzero" fill-opacity="1" /><path clip-path="url(#clip530)" d="M16.4842 1013.11 L16.4842 985.797 L21.895 985.797 L21.895 1006.68 L35.8996 1006.68 L35.8996 987.834 L41.3104 987.834 L41.3104 1006.68 L64.0042 1006.68 L64.0042 1013.11 L16.4842 1013.11 Z" fill="#000000" fill-rule="nonzero" fill-opacity="1" /><path clip-path="url(#clip530)" d="M33.8307 959.953 Q33.2578 960.939 33.0032 962.117 Q32.7167 963.263 32.7167 964.663 Q32.7167 969.628 35.9632 972.302 Q39.1779 974.944 45.2253 974.944 L64.0042 974.944 L64.0042 980.832 L28.3562 980.832 L28.3562 974.944 L33.8944 974.944 Q30.6479 973.098 29.0883 970.138 Q27.4968 967.178 27.4968 962.944 Q27.4968 962.34 27.5923 961.608 Q27.656 960.876 27.8151 959.984 L33.8307 959.953 Z" fill="#000000" fill-rule="nonzero" fill-opacity="1" /><path clip-path="url(#clip530)" d="M44.7161 924.75 L47.5806 924.75 L47.5806 951.677 Q53.6281 951.295 56.8109 948.049 Q59.9619 944.77 59.9619 938.946 Q59.9619 935.572 59.1344 932.421 Q58.3069 929.238 56.6518 926.119 L62.1899 926.119 Q63.5267 929.27 64.227 932.58 Q64.9272 935.89 64.9272 939.296 Q64.9272 947.826 59.9619 952.823 Q54.9967 957.788 46.5303 957.788 Q37.7774 957.788 32.6531 953.078 Q27.4968 948.335 27.4968 940.314 Q27.4968 933.121 32.1438 928.952 Q36.7589 924.75 44.7161 924.75 M42.9973 930.607 Q38.1912 930.67 35.3266 933.312 Q32.4621 935.922 32.4621 940.251 Q32.4621 945.152 35.2312 948.112 Q38.0002 951.041 43.0292 951.486 L42.9973 930.607 Z" fill="#000000" fill-rule="nonzero" fill-opacity="1" /><path clip-path="url(#clip530)" d="M46.212 911.637 Q52.6732 911.637 56.3653 908.995 Q60.0256 906.322 60.0256 901.675 Q60.0256 897.028 56.3653 894.354 Q52.6732 891.68 46.212 891.68 Q39.7508 891.68 36.0905 894.354 Q32.3984 897.028 32.3984 901.675 Q32.3984 906.322 36.0905 908.995 Q39.7508 911.637 46.212 911.637 M58.657 891.68 Q61.8398 893.526 63.3994 896.359 Q64.9272 899.16 64.9272 903.107 Q64.9272 909.568 59.771 913.642 Q54.6147 917.684 46.212 917.684 Q37.8093 917.684 32.6531 913.642 Q27.4968 909.568 27.4968 903.107 Q27.4968 899.16 29.0564 896.359 Q30.5842 893.526 33.7671 891.68 L28.3562 891.68 L28.3562 885.824 L77.5631 885.824 L77.5631 891.68 L58.657 891.68 Z" fill="#000000" fill-rule="nonzero" fill-opacity="1" /><path clip-path="url(#clip530)" d="M49.9359 874.366 L28.3562 874.366 L28.3562 868.509 L49.7131 868.509 Q54.7739 868.509 57.3202 866.536 Q59.8346 864.562 59.8346 860.616 Q59.8346 855.873 56.8109 853.136 Q53.7872 850.367 48.5673 850.367 L28.3562 850.367 L28.3562 844.51 L64.0042 844.51 L64.0042 850.367 L58.5296 850.367 Q61.7762 852.499 63.3676 855.332 Q64.9272 858.133 64.9272 861.857 Q64.9272 868 61.1078 871.183 Q57.2883 874.366 49.9359 874.366 M27.4968 859.629 L27.4968 859.629 Z" fill="#000000" fill-rule="nonzero" fill-opacity="1" /><path clip-path="url(#clip530)" d="M44.7161 801.956 L47.5806 801.956 L47.5806 828.883 Q53.6281 828.501 56.8109 825.254 Q59.9619 821.976 59.9619 816.151 Q59.9619 812.777 59.1344 809.626 Q58.3069 806.444 56.6518 803.324 L62.1899 803.324 Q63.5267 806.475 64.227 809.786 Q64.9272 813.096 64.9272 816.501 Q64.9272 825.031 59.9619 830.029 Q54.9967 834.994 46.5303 834.994 Q37.7774 834.994 32.6531 830.283 Q27.4968 825.541 27.4968 817.52 Q27.4968 810.327 32.1438 806.157 Q36.7589 801.956 44.7161 801.956 M42.9973 807.812 Q38.1912 807.876 35.3266 810.518 Q32.4621 813.128 32.4621 817.456 Q32.4621 822.358 35.2312 825.318 Q38.0002 828.246 43.0292 828.692 L42.9973 807.812 Z" fill="#000000" fill-rule="nonzero" fill-opacity="1" /><path clip-path="url(#clip530)" d="M42.4881 762.711 L64.0042 762.711 L64.0042 768.568 L42.679 768.568 Q37.6183 768.568 35.1038 770.541 Q32.5894 772.514 32.5894 776.461 Q32.5894 781.204 35.6131 783.941 Q38.6368 786.678 43.8567 786.678 L64.0042 786.678 L64.0042 792.566 L28.3562 792.566 L28.3562 786.678 L33.8944 786.678 Q30.6797 784.577 29.0883 781.745 Q27.4968 778.88 27.4968 775.156 Q27.4968 769.013 31.3163 765.862 Q35.1038 762.711 42.4881 762.711 Z" fill="#000000" fill-rule="nonzero" fill-opacity="1" /><path clip-path="url(#clip530)" d="M29.7248 725.376 L35.1993 725.376 Q33.8307 727.859 33.1623 730.373 Q32.4621 732.856 32.4621 735.402 Q32.4621 741.1 36.0905 744.251 Q39.6872 747.402 46.212 747.402 Q52.7369 747.402 56.3653 744.251 Q59.9619 741.1 59.9619 735.402 Q59.9619 732.856 59.2935 730.373 Q58.5933 727.859 57.2247 725.376 L62.6355 725.376 Q63.7814 727.827 64.3543 730.469 Q64.9272 733.079 64.9272 736.039 Q64.9272 744.091 59.8664 748.834 Q54.8057 753.576 46.212 753.576 Q37.491 753.576 32.4939 748.802 Q27.4968 743.996 27.4968 735.657 Q27.4968 732.951 28.0697 730.373 Q28.6108 727.795 29.7248 725.376 Z" fill="#000000" fill-rule="nonzero" fill-opacity="1" /><path clip-path="url(#clip530)" d="M67.3143 700.359 Q73.68 702.842 75.6216 705.197 Q77.5631 707.552 77.5631 711.499 L77.5631 716.178 L72.6615 716.178 L72.6615 712.74 Q72.6615 710.321 71.5157 708.985 Q70.3699 707.648 66.1048 706.025 L63.4312 704.974 L28.3562 719.393 L28.3562 713.186 L56.238 702.046 L28.3562 690.906 L28.3562 684.699 L67.3143 700.359 Z" fill="#000000" fill-rule="nonzero" fill-opacity="1" /><path clip-path="url(#clip530)" d="M14.479 656.436 L14.479 642.94 L19.0304 642.94 L19.0304 650.579 L68.0464 650.579 L68.0464 642.94 L72.5979 642.94 L72.5979 656.436 L14.479 656.436 Z" fill="#000000" fill-rule="nonzero" fill-opacity="1" /><path clip-path="url(#clip530)" d="M16.4842 630.209 L16.4842 623.78 L35.9632 623.78 L35.9632 600.417 L16.4842 600.417 L16.4842 593.988 L64.0042 593.988 L64.0042 600.417 L41.3741 600.417 L41.3741 623.78 L64.0042 623.78 L64.0042 630.209 L16.4842 630.209 Z" fill="#000000" fill-rule="nonzero" fill-opacity="1" /><path clip-path="url(#clip530)" d="M28.3562 583.994 L28.3562 556.176 L33.7034 556.176 L59.3254 578.201 L59.3254 556.176 L64.0042 556.176 L64.0042 584.79 L58.657 584.79 L33.035 562.764 L33.035 583.994 L28.3562 583.994 Z" fill="#000000" fill-rule="nonzero" fill-opacity="1" /><path clip-path="url(#clip530)" d="M14.479 533.546 L72.5979 533.546 L72.5979 547.041 L68.0464 547.041 L68.0464 539.434 L19.0304 539.434 L19.0304 547.041 L14.479 547.041 L14.479 533.546 Z" fill="#000000" fill-rule="nonzero" fill-opacity="1" /><path clip-path="url(#clip530)" d="M1034.19 65.6895 L1062.75 65.6895 L1062.75 72.576 L1024.35 72.576 L1024.35 65.6895 Q1029.01 60.8689 1037.03 52.7671 Q1045.09 44.6248 1047.15 42.2752 Q1051.08 37.8598 1052.62 34.8216 Q1054.2 31.7429 1054.2 28.7857 Q1054.2 23.9651 1050.8 20.927 Q1047.44 17.8888 1042.01 17.8888 Q1038.16 17.8888 1033.87 19.2256 Q1029.61 20.5624 1024.75 23.2765 L1024.75 15.0127 Q1029.69 13.0277 1033.99 12.015 Q1038.28 11.0023 1041.85 11.0023 Q1051.25 11.0023 1056.84 15.7013 Q1062.43 20.4004 1062.43 28.2591 Q1062.43 31.9859 1061.01 35.3482 Q1059.63 38.6699 1055.94 43.2069 Q1054.93 44.3817 1049.5 50.0125 Q1044.08 55.6027 1034.19 65.6895 Z" fill="#000000" fill-rule="nonzero" fill-opacity="1" /><path clip-path="url(#clip530)" d="M1116.59 45.1919 L1116.59 72.576 L1109.13 72.576 L1109.13 45.4349 Q1109.13 38.994 1106.62 35.7938 Q1104.11 32.5936 1099.09 32.5936 Q1093.05 32.5936 1089.57 36.4419 Q1086.08 40.2903 1086.08 46.9338 L1086.08 72.576 L1078.59 72.576 L1078.59 27.2059 L1086.08 27.2059 L1086.08 34.2544 Q1088.76 30.163 1092.36 28.1376 Q1096.01 26.1121 1100.75 26.1121 Q1108.57 26.1121 1112.58 30.9732 Q1116.59 35.7938 1116.59 45.1919 Z" fill="#000000" fill-rule="nonzero" fill-opacity="1" /><path clip-path="url(#clip530)" d="M1161.31 34.0924 L1161.31 9.54393 L1168.76 9.54393 L1168.76 72.576 L1161.31 72.576 L1161.31 65.7705 Q1158.96 69.8214 1155.35 71.8063 Q1151.79 73.7508 1146.77 73.7508 Q1138.54 73.7508 1133.36 67.1883 Q1128.21 60.6258 1128.21 49.9314 Q1128.21 39.2371 1133.36 32.6746 Q1138.54 26.1121 1146.77 26.1121 Q1151.79 26.1121 1155.35 28.0971 Q1158.96 30.0415 1161.31 34.0924 M1135.91 49.9314 Q1135.91 58.1548 1139.27 62.8538 Q1142.67 67.5124 1148.59 67.5124 Q1154.5 67.5124 1157.91 62.8538 Q1161.31 58.1548 1161.31 49.9314 Q1161.31 41.7081 1157.91 37.0496 Q1154.5 32.3505 1148.59 32.3505 Q1142.67 32.3505 1139.27 37.0496 Q1135.91 41.7081 1135.91 49.9314 Z" fill="#000000" fill-rule="nonzero" fill-opacity="1" /><path clip-path="url(#clip530)" d="M1243.06 49.9314 Q1243.06 41.7081 1239.65 37.0496 Q1236.29 32.3505 1230.38 32.3505 Q1224.46 32.3505 1221.06 37.0496 Q1217.7 41.7081 1217.7 49.9314 Q1217.7 58.1548 1221.06 62.8538 Q1224.46 67.5124 1230.38 67.5124 Q1236.29 67.5124 1239.65 62.8538 Q1243.06 58.1548 1243.06 49.9314 M1217.7 34.0924 Q1220.05 30.0415 1223.61 28.0971 Q1227.22 26.1121 1232.2 26.1121 Q1240.46 26.1121 1245.61 32.6746 Q1250.79 39.2371 1250.79 49.9314 Q1250.79 60.6258 1245.61 67.1883 Q1240.46 73.7508 1232.2 73.7508 Q1227.22 73.7508 1223.61 71.8063 Q1220.05 69.8214 1217.7 65.7705 L1217.7 72.576 L1210.2 72.576 L1210.2 9.54393 L1217.7 9.54393 L1217.7 34.0924 Z" fill="#000000" fill-rule="nonzero" fill-opacity="1" /><path clip-path="url(#clip530)" d="M1301.96 48.0275 L1301.96 51.6733 L1267.69 51.6733 Q1268.17 59.3701 1272.3 63.421 Q1276.48 67.4314 1283.89 67.4314 Q1288.18 67.4314 1292.19 66.3781 Q1296.24 65.3249 1300.21 63.2184 L1300.21 70.267 Q1296.2 71.9684 1291.99 72.8596 Q1287.78 73.7508 1283.44 73.7508 Q1272.59 73.7508 1266.23 67.4314 Q1259.91 61.1119 1259.91 50.3365 Q1259.91 39.1965 1265.9 32.6746 Q1271.94 26.1121 1282.15 26.1121 Q1291.3 26.1121 1296.61 32.0264 Q1301.96 37.9003 1301.96 48.0275 M1294.5 45.84 Q1294.42 39.7232 1291.06 36.0774 Q1287.74 32.4315 1282.23 32.4315 Q1275.99 32.4315 1272.22 35.9558 Q1268.5 39.4801 1267.93 45.8805 L1294.5 45.84 Z" fill="#000000" fill-rule="nonzero" fill-opacity="1" /><path clip-path="url(#clip530)" d="M1351.9 45.1919 L1351.9 72.576 L1344.45 72.576 L1344.45 45.4349 Q1344.45 38.994 1341.94 35.7938 Q1339.43 32.5936 1334.4 32.5936 Q1328.37 32.5936 1324.88 36.4419 Q1321.4 40.2903 1321.4 46.9338 L1321.4 72.576 L1313.91 72.576 L1313.91 27.2059 L1321.4 27.2059 L1321.4 34.2544 Q1324.07 30.163 1327.68 28.1376 Q1331.33 26.1121 1336.06 26.1121 Q1343.88 26.1121 1347.89 30.9732 Q1351.9 35.7938 1351.9 45.1919 Z" fill="#000000" fill-rule="nonzero" fill-opacity="1" /><path clip-path="url(#clip530)" d="M1396.63 34.0924 L1396.63 9.54393 L1404.08 9.54393 L1404.08 72.576 L1396.63 72.576 L1396.63 65.7705 Q1394.28 69.8214 1390.67 71.8063 Q1387.11 73.7508 1382.08 73.7508 Q1373.86 73.7508 1368.67 67.1883 Q1363.53 60.6258 1363.53 49.9314 Q1363.53 39.2371 1368.67 32.6746 Q1373.86 26.1121 1382.08 26.1121 Q1387.11 26.1121 1390.67 28.0971 Q1394.28 30.0415 1396.63 34.0924 M1371.23 49.9314 Q1371.23 58.1548 1374.59 62.8538 Q1377.99 67.5124 1383.91 67.5124 Q1389.82 67.5124 1393.22 62.8538 Q1396.63 58.1548 1396.63 49.9314 Q1396.63 41.7081 1393.22 37.0496 Q1389.82 32.3505 1383.91 32.3505 Q1377.99 32.3505 1374.59 37.0496 Q1371.23 41.7081 1371.23 49.9314 Z" fill="#000000" fill-rule="nonzero" fill-opacity="1" /><path clip-path="url(#clip530)" d="M1419.43 27.2059 L1426.89 27.2059 L1426.89 72.576 L1419.43 72.576 L1419.43 27.2059 M1419.43 9.54393 L1426.89 9.54393 L1426.89 18.9825 L1419.43 18.9825 L1419.43 9.54393 Z" fill="#000000" fill-rule="nonzero" fill-opacity="1" /><path clip-path="url(#clip530)" d="M1480.2 45.1919 L1480.2 72.576 L1472.74 72.576 L1472.74 45.4349 Q1472.74 38.994 1470.23 35.7938 Q1467.72 32.5936 1462.7 32.5936 Q1456.66 32.5936 1453.18 36.4419 Q1449.69 40.2903 1449.69 46.9338 L1449.69 72.576 L1442.2 72.576 L1442.2 27.2059 L1449.69 27.2059 L1449.69 34.2544 Q1452.37 30.163 1455.97 28.1376 Q1459.62 26.1121 1464.36 26.1121 Q1472.18 26.1121 1476.19 30.9732 Q1480.2 35.7938 1480.2 45.1919 Z" fill="#000000" fill-rule="nonzero" fill-opacity="1" /><path clip-path="url(#clip530)" d="M1524.92 49.3643 Q1524.92 41.2625 1521.56 36.8065 Q1518.23 32.3505 1512.2 32.3505 Q1506.2 32.3505 1502.84 36.8065 Q1499.52 41.2625 1499.52 49.3643 Q1499.52 57.4256 1502.84 61.8816 Q1506.2 66.3376 1512.2 66.3376 Q1518.23 66.3376 1521.56 61.8816 Q1524.92 57.4256 1524.92 49.3643 M1532.37 66.9452 Q1532.37 78.5308 1527.23 84.1616 Q1522.08 89.8329 1511.47 89.8329 Q1507.54 89.8329 1504.06 89.2252 Q1500.57 88.6581 1497.29 87.4428 L1497.29 80.1917 Q1500.57 81.9741 1503.77 82.8248 Q1506.97 83.6755 1510.29 83.6755 Q1517.63 83.6755 1521.27 79.8271 Q1524.92 76.0193 1524.92 68.282 L1524.92 64.5957 Q1522.61 68.6061 1519 70.5911 Q1515.4 72.576 1510.38 72.576 Q1502.03 72.576 1496.93 66.2161 Q1491.82 59.8562 1491.82 49.3643 Q1491.82 38.832 1496.93 32.472 Q1502.03 26.1121 1510.38 26.1121 Q1515.4 26.1121 1519 28.0971 Q1522.61 30.082 1524.92 34.0924 L1524.92 27.2059 L1532.37 27.2059 L1532.37 66.9452 Z" fill="#000000" fill-rule="nonzero" fill-opacity="1" /><polyline clip-path="url(#clip532)" style="stroke:#3c5692; stroke-linecap:round; stroke-linejoin:round; stroke-width:8; stroke-opacity:1; fill:none" points="264.778,1386.4 377.399,1386.37 490.019,1386.28 602.639,1386.14 715.259,1385.94 827.879,1385.68 940.499,1385.37 1053.12,1384.99 1165.74,1384.55 1278.36,1384.04 1390.98,1383.47 1503.6,1382.84 1616.22,1382.13 1728.84,1381.34 1841.46,1380.48 1954.08,1379.55 2066.7,1378.52 2179.32,1377.42 2291.94,1376.22 "/>
<circle clip-path="url(#clip532)" cx="264.778" cy="1343.87" r="14.4" fill="#3c5692" fill-rule="evenodd" fill-opacity="1" stroke="none"/>
<circle clip-path="url(#clip532)" cx="940.499" cy="1348.46" r="14.4" fill="#3c5692" fill-rule="evenodd" fill-opacity="1" stroke="none"/>
<circle clip-path="url(#clip532)" cx="1616.22" cy="1339.28" r="14.4" fill="#3c5692" fill-rule="evenodd" fill-opacity="1" stroke="none"/>
<circle clip-path="url(#clip532)" cx="2291.94" cy="1339.28" r="14.4" fill="#3c5692" fill-rule="evenodd" fill-opacity="1" stroke="none"/>
<polyline clip-path="url(#clip532)" style="stroke:#9fab43; stroke-linecap:round; stroke-linejoin:round; stroke-width:8; stroke-opacity:1; fill:none" points="264.778,719.859 377.399,720.288 490.019,721.576 602.639,723.721 715.259,726.722 827.879,730.575 940.499,735.273 1053.12,740.801 1165.74,747.14 1278.36,754.26 1390.98,762.12 1503.6,770.666 1616.22,779.829 1728.84,789.529 1841.46,799.671 1954.08,810.153 2066.7,820.862 2179.32,831.684 2291.94,842.506 "/>
<circle clip-path="url(#clip532)" cx="264.778" cy="660.311" r="14.4" fill="#9fab43" fill-rule="evenodd" fill-opacity="1" stroke="none"/>
<circle clip-path="url(#clip532)" cx="940.499" cy="660.311" r="14.4" fill="#9fab43" fill-rule="evenodd" fill-opacity="1" stroke="none"/>
<circle clip-path="url(#clip532)" cx="1616.22" cy="729.126" r="14.4" fill="#9fab43" fill-rule="evenodd" fill-opacity="1" stroke="none"/>
<circle clip-path="url(#clip532)" cx="2291.94" cy="825.467" r="14.4" fill="#9fab43" fill-rule="evenodd" fill-opacity="1" stroke="none"/>
<polyline clip-path="url(#clip532)" style="stroke:#ba3d3a; stroke-linecap:round; stroke-linejoin:round; stroke-width:8; stroke-opacity:1; fill:none" points="264.778,252.487 377.399,253.939 490.019,258.306 602.639,265.616 715.259,275.9 827.879,289.177 940.499,305.424 1053.12,324.549 1165.74,346.363 1278.36,370.562 1390.98,396.735 1503.6,424.382 1616.22,452.962 1728.84,481.935 1841.46,510.806 1954.08,539.152 2066.7,566.637 2179.32,593.007 2291.94,618.09 "/>
<circle clip-path="url(#clip532)" cx="264.778" cy="160.256" r="14.4" fill="#ba3d3a" fill-rule="evenodd" fill-opacity="1" stroke="none"/>
<circle clip-path="url(#clip532)" cx="940.499" cy="219.896" r="14.4" fill="#ba3d3a" fill-rule="evenodd" fill-opacity="1" stroke="none"/>
<circle clip-path="url(#clip532)" cx="1616.22" cy="407.99" r="14.4" fill="#ba3d3a" fill-rule="evenodd" fill-opacity="1" stroke="none"/>
<circle clip-path="url(#clip532)" cx="2291.94" cy="619.022" r="14.4" fill="#ba3d3a" fill-rule="evenodd" fill-opacity="1" stroke="none"/>
<path clip-path="url(#clip530)" d="M335.279 1162.5 L1096.96 1162.5 L1096.96 851.457 L335.279 851.457  Z" fill="#ffffff" fill-rule="evenodd" fill-opacity="1"/>
<polyline clip-path="url(#clip530)" style="stroke:#000000; stroke-linecap:round; stroke-linejoin:round; stroke-width:4; stroke-opacity:1; fill:none" points="335.279,1162.5 1096.96,1162.5 1096.96,851.457 335.279,851.457 335.279,1162.5 "/>
<polyline clip-path="url(#clip530)" style="stroke:#000000; stroke-linecap:round; stroke-linejoin:round; stroke-width:8; stroke-opacity:1; fill:none" points="359.154,903.297 502.407,903.297 "/>
<path clip-path="url(#clip530)" d="M542.116 890.623 L535.773 907.822 L548.481 907.822 L542.116 890.623 M539.477 886.017 L544.778 886.017 L557.949 920.577 L553.088 920.577 L549.94 911.711 L534.361 911.711 L531.213 920.577 L526.282 920.577 L539.477 886.017 Z" fill="#000000" fill-rule="nonzero" fill-opacity="1" /><path clip-path="url(#clip530)" d="M584.152 906.549 L584.152 908.632 L564.569 908.632 Q564.847 913.031 567.208 915.345 Q569.592 917.637 573.828 917.637 Q576.282 917.637 578.574 917.035 Q580.889 916.433 583.157 915.23 L583.157 919.257 Q580.865 920.23 578.458 920.739 Q576.051 921.248 573.574 921.248 Q567.37 921.248 563.736 917.637 Q560.125 914.026 560.125 907.868 Q560.125 901.503 563.551 897.776 Q567 894.026 572.833 894.026 Q578.065 894.026 581.097 897.406 Q584.152 900.762 584.152 906.549 M579.893 905.299 Q579.847 901.804 577.926 899.72 Q576.028 897.637 572.879 897.637 Q569.315 897.637 567.162 899.651 Q565.032 901.665 564.708 905.322 L579.893 905.299 Z" fill="#000000" fill-rule="nonzero" fill-opacity="1" /><path clip-path="url(#clip530)" d="M606.166 898.632 Q605.449 898.216 604.592 898.031 Q603.759 897.822 602.74 897.822 Q599.129 897.822 597.185 900.183 Q595.264 902.521 595.264 906.919 L595.264 920.577 L590.981 920.577 L590.981 894.651 L595.264 894.651 L595.264 898.679 Q596.606 896.318 598.759 895.183 Q600.912 894.026 603.99 894.026 Q604.43 894.026 604.963 894.095 Q605.495 894.142 606.143 894.257 L606.166 898.632 Z" fill="#000000" fill-rule="nonzero" fill-opacity="1" /><path clip-path="url(#clip530)" d="M619.638 897.637 Q616.212 897.637 614.222 900.322 Q612.231 902.984 612.231 907.637 Q612.231 912.29 614.199 914.975 Q616.189 917.637 619.638 917.637 Q623.041 917.637 625.032 914.952 Q627.023 912.267 627.023 907.637 Q627.023 903.031 625.032 900.345 Q623.041 897.637 619.638 897.637 M619.638 894.026 Q625.194 894.026 628.365 897.637 Q631.536 901.248 631.536 907.637 Q631.536 914.003 628.365 917.637 Q625.194 921.248 619.638 921.248 Q614.06 921.248 610.888 917.637 Q607.74 914.003 607.74 907.637 Q607.74 901.248 610.888 897.637 Q614.06 894.026 619.638 894.026 Z" fill="#000000" fill-rule="nonzero" fill-opacity="1" /><path clip-path="url(#clip530)" d="M643.458 904.072 L643.458 916.734 L650.958 916.734 Q654.731 916.734 656.536 915.183 Q658.365 913.609 658.365 910.392 Q658.365 907.151 656.536 905.623 Q654.731 904.072 650.958 904.072 L643.458 904.072 M643.458 889.859 L643.458 900.276 L650.379 900.276 Q653.805 900.276 655.472 899.003 Q657.161 897.707 657.161 895.068 Q657.161 892.452 655.472 891.156 Q653.805 889.859 650.379 889.859 L643.458 889.859 M638.782 886.017 L650.726 886.017 Q656.073 886.017 658.967 888.239 Q661.86 890.461 661.86 894.558 Q661.86 897.73 660.379 899.605 Q658.897 901.48 656.027 901.943 Q659.476 902.683 661.374 905.044 Q663.296 907.382 663.296 910.901 Q663.296 915.53 660.147 918.054 Q656.999 920.577 651.189 920.577 L638.782 920.577 L638.782 886.017 Z" fill="#000000" fill-rule="nonzero" fill-opacity="1" /><path clip-path="url(#clip530)" d="M693.295 906.549 L693.295 908.632 L673.712 908.632 Q673.99 913.031 676.351 915.345 Q678.735 917.637 682.971 917.637 Q685.425 917.637 687.717 917.035 Q690.032 916.433 692.3 915.23 L692.3 919.257 Q690.008 920.23 687.601 920.739 Q685.194 921.248 682.717 921.248 Q676.513 921.248 672.879 917.637 Q669.268 914.026 669.268 907.868 Q669.268 901.503 672.694 897.776 Q676.143 894.026 681.976 894.026 Q687.207 894.026 690.24 897.406 Q693.295 900.762 693.295 906.549 M689.036 905.299 Q688.99 901.804 687.069 899.72 Q685.17 897.637 682.022 897.637 Q678.458 897.637 676.305 899.651 Q674.175 901.665 673.851 905.322 L689.036 905.299 Z" fill="#000000" fill-rule="nonzero" fill-opacity="1" /><path clip-path="url(#clip530)" d="M712.068 907.544 Q706.906 907.544 704.916 908.725 Q702.925 909.906 702.925 912.753 Q702.925 915.021 704.406 916.364 Q705.911 917.683 708.481 917.683 Q712.022 917.683 714.152 915.183 Q716.305 912.66 716.305 908.493 L716.305 907.544 L712.068 907.544 M720.564 905.785 L720.564 920.577 L716.305 920.577 L716.305 916.642 Q714.846 919.003 712.67 920.137 Q710.494 921.248 707.346 921.248 Q703.365 921.248 701.004 919.026 Q698.666 916.78 698.666 913.031 Q698.666 908.656 701.582 906.433 Q704.522 904.211 710.332 904.211 L716.305 904.211 L716.305 903.794 Q716.305 900.855 714.36 899.257 Q712.439 897.637 708.943 897.637 Q706.721 897.637 704.615 898.169 Q702.508 898.702 700.564 899.767 L700.564 895.832 Q702.902 894.929 705.101 894.489 Q707.3 894.026 709.383 894.026 Q715.008 894.026 717.786 896.943 Q720.564 899.859 720.564 905.785 Z" fill="#000000" fill-rule="nonzero" fill-opacity="1" /><path clip-path="url(#clip530)" d="M749.522 899.628 Q751.119 896.757 753.341 895.392 Q755.564 894.026 758.573 894.026 Q762.624 894.026 764.823 896.873 Q767.022 899.697 767.022 904.929 L767.022 920.577 L762.739 920.577 L762.739 905.068 Q762.739 901.341 761.42 899.535 Q760.101 897.73 757.392 897.73 Q754.082 897.73 752.161 899.929 Q750.24 902.128 750.24 905.924 L750.24 920.577 L745.957 920.577 L745.957 905.068 Q745.957 901.318 744.638 899.535 Q743.318 897.73 740.564 897.73 Q737.3 897.73 735.379 899.952 Q733.457 902.151 733.457 905.924 L733.457 920.577 L729.175 920.577 L729.175 894.651 L733.457 894.651 L733.457 898.679 Q734.916 896.294 736.953 895.16 Q738.99 894.026 741.791 894.026 Q744.615 894.026 746.582 895.461 Q748.573 896.896 749.522 899.628 Z" fill="#000000" fill-rule="nonzero" fill-opacity="1" /><path clip-path="url(#clip530)" d="M792.045 895.415 L792.045 899.443 Q790.239 898.517 788.295 898.054 Q786.35 897.591 784.267 897.591 Q781.096 897.591 779.499 898.563 Q777.925 899.535 777.925 901.48 Q777.925 902.961 779.059 903.818 Q780.193 904.651 783.619 905.415 L785.077 905.739 Q789.614 906.711 791.512 908.493 Q793.434 910.253 793.434 913.424 Q793.434 917.035 790.563 919.142 Q787.716 921.248 782.716 921.248 Q780.633 921.248 778.364 920.831 Q776.119 920.438 773.619 919.628 L773.619 915.23 Q775.98 916.456 778.272 917.081 Q780.563 917.683 782.809 917.683 Q785.818 917.683 787.438 916.665 Q789.059 915.623 789.059 913.748 Q789.059 912.012 787.878 911.086 Q786.721 910.16 782.763 909.304 L781.281 908.956 Q777.323 908.123 775.563 906.41 Q773.804 904.674 773.804 901.665 Q773.804 898.007 776.397 896.017 Q778.989 894.026 783.758 894.026 Q786.119 894.026 788.202 894.373 Q790.286 894.72 792.045 895.415 Z" fill="#000000" fill-rule="nonzero" fill-opacity="1" /><circle clip-path="url(#clip530)" cx="430.781" cy="955.137" r="23.04" fill="#000000" fill-rule="evenodd" fill-opacity="1" stroke="none"/>
<path clip-path="url(#clip530)" d="M526.282 937.857 L548.134 937.857 L548.134 941.792 L530.958 941.792 L530.958 952.023 L547.417 952.023 L547.417 955.959 L530.958 955.959 L530.958 968.482 L548.551 968.482 L548.551 972.417 L526.282 972.417 L526.282 937.857 Z" fill="#000000" fill-rule="nonzero" fill-opacity="1" /><path clip-path="url(#clip530)" d="M560.171 968.528 L560.171 982.278 L555.889 982.278 L555.889 946.491 L560.171 946.491 L560.171 950.426 Q561.514 948.111 563.551 947 Q565.611 945.866 568.458 945.866 Q573.18 945.866 576.12 949.616 Q579.083 953.366 579.083 959.477 Q579.083 965.588 576.12 969.338 Q573.18 973.088 568.458 973.088 Q565.611 973.088 563.551 971.977 Q561.514 970.843 560.171 968.528 M574.662 959.477 Q574.662 954.778 572.717 952.116 Q570.796 949.431 567.416 949.431 Q564.037 949.431 562.092 952.116 Q560.171 954.778 560.171 959.477 Q560.171 964.176 562.092 966.861 Q564.037 969.523 567.416 969.523 Q570.796 969.523 572.717 966.861 Q574.662 964.176 574.662 959.477 Z" fill="#000000" fill-rule="nonzero" fill-opacity="1" /><path clip-path="url(#clip530)" d="M590.264 968.528 L590.264 982.278 L585.981 982.278 L585.981 946.491 L590.264 946.491 L590.264 950.426 Q591.606 948.111 593.643 947 Q595.703 945.866 598.551 945.866 Q603.273 945.866 606.213 949.616 Q609.175 953.366 609.175 959.477 Q609.175 965.588 606.213 969.338 Q603.273 973.088 598.551 973.088 Q595.703 973.088 593.643 971.977 Q591.606 970.843 590.264 968.528 M604.754 959.477 Q604.754 954.778 602.81 952.116 Q600.889 949.431 597.509 949.431 Q594.129 949.431 592.185 952.116 Q590.264 954.778 590.264 959.477 Q590.264 964.176 592.185 966.861 Q594.129 969.523 597.509 969.523 Q600.889 969.523 602.81 966.861 Q604.754 964.176 604.754 959.477 Z" fill="#000000" fill-rule="nonzero" fill-opacity="1" /><path clip-path="url(#clip530)" d="M632.763 947.255 L632.763 951.283 Q630.958 950.357 629.013 949.894 Q627.069 949.431 624.986 949.431 Q621.814 949.431 620.217 950.403 Q618.643 951.375 618.643 953.32 Q618.643 954.801 619.777 955.658 Q620.912 956.491 624.337 957.255 L625.796 957.579 Q630.333 958.551 632.231 960.333 Q634.152 962.093 634.152 965.264 Q634.152 968.875 631.282 970.982 Q628.435 973.088 623.435 973.088 Q621.351 973.088 619.083 972.671 Q616.837 972.278 614.338 971.468 L614.338 967.07 Q616.699 968.296 618.99 968.921 Q621.282 969.523 623.527 969.523 Q626.537 969.523 628.157 968.505 Q629.777 967.463 629.777 965.588 Q629.777 963.852 628.597 962.926 Q627.439 962 623.481 961.144 L622 960.796 Q618.041 959.963 616.282 958.25 Q614.523 956.514 614.523 953.505 Q614.523 949.847 617.115 947.857 Q619.708 945.866 624.476 945.866 Q626.837 945.866 628.921 946.213 Q631.004 946.56 632.763 947.255 Z" fill="#000000" fill-rule="nonzero" fill-opacity="1" /><path clip-path="url(#clip530)" d="M663.064 953.829 Q660.958 955.704 659.962 957.579 Q658.99 959.431 658.99 961.468 Q658.99 964.847 661.444 967.093 Q663.897 969.338 667.601 969.338 Q669.8 969.338 671.721 968.62 Q673.643 967.88 675.333 966.398 L663.064 953.829 M666.328 951.236 L678.087 963.273 Q679.453 961.213 680.217 958.875 Q680.981 956.514 681.12 953.875 L685.425 953.875 Q685.147 956.931 683.944 959.917 Q682.74 962.903 680.587 965.82 L687.045 972.417 L681.212 972.417 L677.902 969.014 Q675.495 971.074 672.856 972.093 Q670.217 973.088 667.184 973.088 Q661.606 973.088 658.064 969.917 Q654.522 966.722 654.522 961.746 Q654.522 958.783 656.073 956.19 Q657.624 953.574 660.726 951.283 Q659.615 949.824 659.036 948.389 Q658.458 946.931 658.458 945.542 Q658.458 941.792 661.027 939.523 Q663.597 937.232 667.856 937.232 Q669.777 937.232 671.675 937.648 Q673.596 938.065 675.564 938.898 L675.564 943.111 Q673.55 942.023 671.721 941.468 Q669.893 940.889 668.319 940.889 Q665.888 940.889 664.36 942.185 Q662.856 943.459 662.856 945.496 Q662.856 946.676 663.527 947.88 Q664.221 949.06 666.328 951.236 Z" fill="#000000" fill-rule="nonzero" fill-opacity="1" /><path clip-path="url(#clip530)" d="M734.105 940.519 L734.105 945.449 Q731.744 943.25 729.059 942.162 Q726.397 941.074 723.388 941.074 Q717.462 941.074 714.314 944.709 Q711.166 948.32 711.166 955.171 Q711.166 962 714.314 965.634 Q717.462 969.245 723.388 969.245 Q726.397 969.245 729.059 968.158 Q731.744 967.07 734.105 964.871 L734.105 969.755 Q731.652 971.421 728.897 972.255 Q726.166 973.088 723.11 973.088 Q715.263 973.088 710.749 968.296 Q706.235 963.482 706.235 955.171 Q706.235 946.838 710.749 942.047 Q715.263 937.232 723.11 937.232 Q726.212 937.232 728.943 938.065 Q731.698 938.875 734.105 940.519 Z" fill="#000000" fill-rule="nonzero" fill-opacity="1" /><path clip-path="url(#clip530)" d="M762.693 956.769 L762.693 972.417 L758.434 972.417 L758.434 956.908 Q758.434 953.227 756.999 951.398 Q755.564 949.57 752.693 949.57 Q749.244 949.57 747.253 951.769 Q745.263 953.968 745.263 957.764 L745.263 972.417 L740.98 972.417 L740.98 936.398 L745.263 936.398 L745.263 950.519 Q746.791 948.181 748.851 947.023 Q750.934 945.866 753.642 945.866 Q758.11 945.866 760.402 948.644 Q762.693 951.398 762.693 956.769 Z" fill="#000000" fill-rule="nonzero" fill-opacity="1" /><path clip-path="url(#clip530)" d="M782.971 959.384 Q777.809 959.384 775.818 960.565 Q773.827 961.746 773.827 964.593 Q773.827 966.861 775.309 968.204 Q776.813 969.523 779.383 969.523 Q782.925 969.523 785.054 967.023 Q787.207 964.5 787.207 960.333 L787.207 959.384 L782.971 959.384 M791.466 957.625 L791.466 972.417 L787.207 972.417 L787.207 968.482 Q785.749 970.843 783.573 971.977 Q781.397 973.088 778.249 973.088 Q774.267 973.088 771.906 970.866 Q769.568 968.62 769.568 964.871 Q769.568 960.496 772.485 958.273 Q775.425 956.051 781.235 956.051 L787.207 956.051 L787.207 955.634 Q787.207 952.695 785.263 951.097 Q783.341 949.477 779.846 949.477 Q777.624 949.477 775.517 950.009 Q773.411 950.542 771.466 951.607 L771.466 947.672 Q773.804 946.769 776.003 946.329 Q778.202 945.866 780.286 945.866 Q785.911 945.866 788.688 948.783 Q791.466 951.699 791.466 957.625 Z" fill="#000000" fill-rule="nonzero" fill-opacity="1" /><path clip-path="url(#clip530)" d="M821.79 956.769 L821.79 972.417 L817.531 972.417 L817.531 956.908 Q817.531 953.227 816.096 951.398 Q814.661 949.57 811.79 949.57 Q808.341 949.57 806.35 951.769 Q804.36 953.968 804.36 957.764 L804.36 972.417 L800.077 972.417 L800.077 946.491 L804.36 946.491 L804.36 950.519 Q805.887 948.181 807.948 947.023 Q810.031 945.866 812.739 945.866 Q817.207 945.866 819.498 948.644 Q821.79 951.398 821.79 956.769 Z" fill="#000000" fill-rule="nonzero" fill-opacity="1" /><path clip-path="url(#clip530)" d="M847.346 950.426 L847.346 936.398 L851.605 936.398 L851.605 972.417 L847.346 972.417 L847.346 968.528 Q846.003 970.843 843.943 971.977 Q841.906 973.088 839.035 973.088 Q834.336 973.088 831.373 969.338 Q828.434 965.588 828.434 959.477 Q828.434 953.366 831.373 949.616 Q834.336 945.866 839.035 945.866 Q841.906 945.866 843.943 947 Q846.003 948.111 847.346 950.426 M832.832 959.477 Q832.832 964.176 834.753 966.861 Q836.697 969.523 840.077 969.523 Q843.457 969.523 845.401 966.861 Q847.346 964.176 847.346 959.477 Q847.346 954.778 845.401 952.116 Q843.457 949.431 840.077 949.431 Q836.697 949.431 834.753 952.116 Q832.832 954.778 832.832 959.477 Z" fill="#000000" fill-rule="nonzero" fill-opacity="1" /><path clip-path="url(#clip530)" d="M875.401 950.472 Q874.683 950.056 873.827 949.871 Q872.994 949.662 871.975 949.662 Q868.364 949.662 866.419 952.023 Q864.498 954.361 864.498 958.759 L864.498 972.417 L860.216 972.417 L860.216 946.491 L864.498 946.491 L864.498 950.519 Q865.841 948.158 867.994 947.023 Q870.146 945.866 873.225 945.866 Q873.665 945.866 874.197 945.935 Q874.73 945.982 875.378 946.097 L875.401 950.472 Z" fill="#000000" fill-rule="nonzero" fill-opacity="1" /><path clip-path="url(#clip530)" d="M891.651 959.384 Q886.489 959.384 884.498 960.565 Q882.507 961.746 882.507 964.593 Q882.507 966.861 883.989 968.204 Q885.493 969.523 888.063 969.523 Q891.605 969.523 893.734 967.023 Q895.887 964.5 895.887 960.333 L895.887 959.384 L891.651 959.384 M900.146 957.625 L900.146 972.417 L895.887 972.417 L895.887 968.482 Q894.429 970.843 892.253 971.977 Q890.077 973.088 886.929 973.088 Q882.947 973.088 880.586 970.866 Q878.248 968.62 878.248 964.871 Q878.248 960.496 881.165 958.273 Q884.105 956.051 889.915 956.051 L895.887 956.051 L895.887 955.634 Q895.887 952.695 893.942 951.097 Q892.021 949.477 888.526 949.477 Q886.304 949.477 884.197 950.009 Q882.091 950.542 880.146 951.607 L880.146 947.672 Q882.484 946.769 884.683 946.329 Q886.882 945.866 888.966 945.866 Q894.591 945.866 897.368 948.783 Q900.146 951.699 900.146 957.625 Z" fill="#000000" fill-rule="nonzero" fill-opacity="1" /><path clip-path="url(#clip530)" d="M934.22 936.445 Q931.118 941.769 929.614 946.977 Q928.109 952.185 928.109 957.533 Q928.109 962.88 929.614 968.134 Q931.141 973.366 934.22 978.667 L930.516 978.667 Q927.044 973.227 925.308 967.972 Q923.595 962.718 923.595 957.533 Q923.595 952.371 925.308 947.139 Q927.021 941.908 930.516 936.445 L934.22 936.445 Z" fill="#000000" fill-rule="nonzero" fill-opacity="1" /><path clip-path="url(#clip530)" d="M943.896 968.482 L951.535 968.482 L951.535 942.116 L943.225 943.783 L943.225 939.523 L951.488 937.857 L956.164 937.857 L956.164 968.482 L963.803 968.482 L963.803 972.417 L943.896 972.417 L943.896 968.482 Z" fill="#000000" fill-rule="nonzero" fill-opacity="1" /><path clip-path="url(#clip530)" d="M973.387 971.699 L973.387 967.44 Q975.146 968.273 976.951 968.713 Q978.757 969.153 980.493 969.153 Q985.123 969.153 987.553 966.051 Q990.007 962.926 990.354 956.584 Q989.011 958.574 986.951 959.639 Q984.891 960.704 982.391 960.704 Q977.206 960.704 974.174 957.579 Q971.164 954.431 971.164 948.991 Q971.164 943.667 974.312 940.449 Q977.461 937.232 982.692 937.232 Q988.687 937.232 991.835 941.838 Q995.007 946.422 995.007 955.171 Q995.007 963.343 991.118 968.227 Q987.252 973.088 980.701 973.088 Q978.942 973.088 977.136 972.741 Q975.331 972.394 973.387 971.699 M982.692 957.046 Q985.84 957.046 987.669 954.894 Q989.521 952.741 989.521 948.991 Q989.521 945.264 987.669 943.111 Q985.84 940.935 982.692 940.935 Q979.544 940.935 977.692 943.111 Q975.863 945.264 975.863 948.991 Q975.863 952.741 977.692 954.894 Q979.544 957.046 982.692 957.046 Z" fill="#000000" fill-rule="nonzero" fill-opacity="1" /><path clip-path="url(#clip530)" d="M1003.55 971.699 L1003.55 967.44 Q1005.31 968.273 1007.11 968.713 Q1008.92 969.153 1010.65 969.153 Q1015.28 969.153 1017.71 966.051 Q1020.17 962.926 1020.52 956.584 Q1019.17 958.574 1017.11 959.639 Q1015.05 960.704 1012.55 960.704 Q1007.37 960.704 1004.34 957.579 Q1001.33 954.431 1001.33 948.991 Q1001.33 943.667 1004.47 940.449 Q1007.62 937.232 1012.85 937.232 Q1018.85 937.232 1022 941.838 Q1025.17 946.422 1025.17 955.171 Q1025.17 963.343 1021.28 968.227 Q1017.41 973.088 1010.86 973.088 Q1009.1 973.088 1007.3 972.741 Q1005.49 972.394 1003.55 971.699 M1012.85 957.046 Q1016 957.046 1017.83 954.894 Q1019.68 952.741 1019.68 948.991 Q1019.68 945.264 1017.83 943.111 Q1016 940.935 1012.85 940.935 Q1009.71 940.935 1007.85 943.111 Q1006.03 945.264 1006.03 948.991 Q1006.03 952.741 1007.85 954.894 Q1009.71 957.046 1012.85 957.046 Z" fill="#000000" fill-rule="nonzero" fill-opacity="1" /><path clip-path="url(#clip530)" d="M1044.15 953.273 Q1041 953.273 1039.15 955.426 Q1037.32 957.579 1037.32 961.329 Q1037.32 965.056 1039.15 967.232 Q1041 969.384 1044.15 969.384 Q1047.3 969.384 1049.13 967.232 Q1050.98 965.056 1050.98 961.329 Q1050.98 957.579 1049.13 955.426 Q1047.3 953.273 1044.15 953.273 M1053.43 938.621 L1053.43 942.88 Q1051.67 942.047 1049.87 941.607 Q1048.09 941.167 1046.33 941.167 Q1041.7 941.167 1039.24 944.292 Q1036.81 947.417 1036.46 953.736 Q1037.83 951.722 1039.89 950.658 Q1041.95 949.57 1044.43 949.57 Q1049.64 949.57 1052.65 952.741 Q1055.68 955.889 1055.68 961.329 Q1055.68 966.653 1052.53 969.87 Q1049.38 973.088 1044.15 973.088 Q1038.15 973.088 1034.98 968.505 Q1031.81 963.898 1031.81 955.171 Q1031.81 946.977 1035.7 942.116 Q1039.59 937.232 1046.14 937.232 Q1047.9 937.232 1049.68 937.579 Q1051.49 937.926 1053.43 938.621 Z" fill="#000000" fill-rule="nonzero" fill-opacity="1" /><path clip-path="url(#clip530)" d="M1062.46 936.445 L1066.16 936.445 Q1069.64 941.908 1071.35 947.139 Q1073.09 952.371 1073.09 957.533 Q1073.09 962.718 1071.35 967.972 Q1069.64 973.227 1066.16 978.667 L1062.46 978.667 Q1065.54 973.366 1067.04 968.134 Q1068.57 962.88 1068.57 957.533 Q1068.57 952.185 1067.04 946.977 Q1065.54 941.769 1062.46 936.445 Z" fill="#000000" fill-rule="nonzero" fill-opacity="1" /><polyline clip-path="url(#clip530)" style="stroke:#3c5692; stroke-linecap:round; stroke-linejoin:round; stroke-width:8; stroke-opacity:1; fill:none" points="359.154,1006.98 502.407,1006.98 "/>
<circle clip-path="url(#clip530)" cx="430.781" cy="1006.98" r="19.8962" fill="#3c5692" fill-rule="evenodd" fill-opacity="1" stroke="none"/>
<path clip-path="url(#clip530)" d="M554.624 999.355 Q554.624 1001.53 553.523 1005.75 Q553.078 1007.58 552.469 1009.24 Q551.883 1010.88 551.017 1012.47 Q550.15 1014.06 549.143 1015.21 Q548.136 1016.34 546.824 1017.04 Q545.512 1017.74 544.06 1017.74 Q541.765 1017.74 540.406 1016.38 Q539.071 1015 538.649 1012.64 Q535.511 1017.74 531.318 1017.74 Q528.718 1017.74 527.5 1015.89 Q526.282 1014.02 526.282 1010.88 Q526.282 1008.23 526.985 1005.49 Q528.32 1000.29 530.92 996.662 Q531.271 996.24 531.787 996.24 Q532.091 996.24 532.232 996.334 Q532.653 996.592 532.653 997.013 Q532.653 997.318 532.419 997.622 Q530.78 999.894 529.702 1001.84 Q528.625 1003.78 528.133 1005.75 Q527.758 1007.44 527.758 1008.86 Q527.758 1011.28 528.789 1012.78 Q529.843 1014.28 531.927 1014.28 Q533.848 1014.28 535.534 1013.08 Q537.221 1011.86 538.462 1009.83 Q538.532 1007.6 539.071 1005.49 Q539.563 1003.24 540.711 1003.24 Q541.624 1003.24 541.624 1004.48 Q541.624 1004.91 541.437 1005.75 Q540.921 1007.97 539.985 1009.97 Q540.312 1011.91 541.53 1013.1 Q542.748 1014.28 544.692 1014.28 Q546.496 1014.28 548.089 1012.96 Q549.705 1011.65 550.735 1009.73 Q551.789 1007.79 552.375 1005.49 Q552.562 1004.72 552.562 1003.74 Q552.562 1001.11 550.735 999.496 Q550.22 998.981 550.22 998.301 Q550.22 997.505 550.876 996.779 Q551.649 996.006 552.562 996.006 Q553.242 996.006 553.663 996.428 Q554.624 997.271 554.624 999.355 Z" fill="#000000" fill-rule="nonzero" fill-opacity="1" /><path clip-path="url(#clip530)" d="M575.9 995.676 L605.576 995.676 L605.576 999.565 L575.9 999.565 L575.9 995.676 M575.9 1005.12 L605.576 1005.12 L605.576 1009.06 L575.9 1009.06 L575.9 1005.12 Z" fill="#000000" fill-rule="nonzero" fill-opacity="1" /><path clip-path="url(#clip530)" d="M640.738 985.722 Q637.127 985.722 635.298 989.287 Q633.492 992.828 633.492 999.958 Q633.492 1007.06 635.298 1010.63 Q637.127 1014.17 640.738 1014.17 Q644.372 1014.17 646.177 1010.63 Q648.006 1007.06 648.006 999.958 Q648.006 992.828 646.177 989.287 Q644.372 985.722 640.738 985.722 M640.738 982.018 Q646.548 982.018 649.603 986.625 Q652.682 991.208 652.682 999.958 Q652.682 1008.68 649.603 1013.29 Q646.548 1017.87 640.738 1017.87 Q634.928 1017.87 631.849 1013.29 Q628.793 1008.68 628.793 999.958 Q628.793 991.208 631.849 986.625 Q634.928 982.018 640.738 982.018 Z" fill="#000000" fill-rule="nonzero" fill-opacity="1" /><path clip-path="url(#clip530)" d="M690.39 995.259 Q689.673 994.842 688.816 994.657 Q687.983 994.449 686.964 994.449 Q683.353 994.449 681.409 996.81 Q679.487 999.148 679.487 1003.55 L679.487 1017.2 L675.205 1017.2 L675.205 991.278 L679.487 991.278 L679.487 995.305 Q680.83 992.944 682.983 991.81 Q685.136 990.653 688.214 990.653 Q688.654 990.653 689.186 990.722 Q689.719 990.768 690.367 990.884 L690.39 995.259 Z" fill="#000000" fill-rule="nonzero" fill-opacity="1" /><path clip-path="url(#clip530)" d="M698.978 1013.31 L698.978 1027.06 L694.696 1027.06 L694.696 991.278 L698.978 991.278 L698.978 995.213 Q700.321 992.898 702.358 991.787 Q704.418 990.653 707.265 990.653 Q711.987 990.653 714.927 994.403 Q717.89 998.152 717.89 1004.26 Q717.89 1010.37 714.927 1014.12 Q711.987 1017.87 707.265 1017.87 Q704.418 1017.87 702.358 1016.76 Q700.321 1015.63 698.978 1013.31 M713.469 1004.26 Q713.469 999.565 711.524 996.903 Q709.603 994.217 706.223 994.217 Q702.844 994.217 700.899 996.903 Q698.978 999.565 698.978 1004.26 Q698.978 1008.96 700.899 1011.65 Q702.844 1014.31 706.223 1014.31 Q709.603 1014.31 711.524 1011.65 Q713.469 1008.96 713.469 1004.26 Z" fill="#000000" fill-rule="nonzero" fill-opacity="1" /><path clip-path="url(#clip530)" d="M745.135 996.254 Q746.732 993.384 748.955 992.018 Q751.177 990.653 754.186 990.653 Q758.237 990.653 760.436 993.5 Q762.635 996.324 762.635 1001.56 L762.635 1017.2 L758.353 1017.2 L758.353 1001.69 Q758.353 997.967 757.033 996.162 Q755.714 994.356 753.006 994.356 Q749.695 994.356 747.774 996.555 Q745.853 998.754 745.853 1002.55 L745.853 1017.2 L741.57 1017.2 L741.57 1001.69 Q741.57 997.944 740.251 996.162 Q738.932 994.356 736.177 994.356 Q732.913 994.356 730.992 996.578 Q729.071 998.777 729.071 1002.55 L729.071 1017.2 L724.788 1017.2 L724.788 991.278 L729.071 991.278 L729.071 995.305 Q730.529 992.921 732.566 991.787 Q734.603 990.653 737.404 990.653 Q740.228 990.653 742.195 992.088 Q744.186 993.523 745.135 996.254 Z" fill="#000000" fill-rule="nonzero" fill-opacity="1" /><polyline clip-path="url(#clip530)" style="stroke:#9fab43; stroke-linecap:round; stroke-linejoin:round; stroke-width:8; stroke-opacity:1; fill:none" points="359.154,1058.82 502.407,1058.82 "/>
<circle clip-path="url(#clip530)" cx="430.781" cy="1058.82" r="19.8962" fill="#9fab43" fill-rule="evenodd" fill-opacity="1" stroke="none"/>
<path clip-path="url(#clip530)" d="M554.624 1051.2 Q554.624 1053.37 553.523 1057.59 Q553.078 1059.42 552.469 1061.08 Q551.883 1062.72 551.017 1064.31 Q550.15 1065.9 549.143 1067.05 Q548.136 1068.18 546.824 1068.88 Q545.512 1069.58 544.06 1069.58 Q541.765 1069.58 540.406 1068.22 Q539.071 1066.84 538.649 1064.48 Q535.511 1069.58 531.318 1069.58 Q528.718 1069.58 527.5 1067.73 Q526.282 1065.86 526.282 1062.72 Q526.282 1060.07 526.985 1057.33 Q528.32 1052.13 530.92 1048.5 Q531.271 1048.08 531.787 1048.08 Q532.091 1048.08 532.232 1048.17 Q532.653 1048.43 532.653 1048.85 Q532.653 1049.16 532.419 1049.46 Q530.78 1051.73 529.702 1053.68 Q528.625 1055.62 528.133 1057.59 Q527.758 1059.28 527.758 1060.7 Q527.758 1063.12 528.789 1064.62 Q529.843 1066.12 531.927 1066.12 Q533.848 1066.12 535.534 1064.92 Q537.221 1063.7 538.462 1061.67 Q538.532 1059.44 539.071 1057.33 Q539.563 1055.08 540.711 1055.08 Q541.624 1055.08 541.624 1056.32 Q541.624 1056.75 541.437 1057.59 Q540.921 1059.81 539.985 1061.81 Q540.312 1063.75 541.53 1064.94 Q542.748 1066.12 544.692 1066.12 Q546.496 1066.12 548.089 1064.8 Q549.705 1063.49 550.735 1061.57 Q551.789 1059.63 552.375 1057.33 Q552.562 1056.56 552.562 1055.58 Q552.562 1052.95 550.735 1051.34 Q550.22 1050.82 550.22 1050.14 Q550.22 1049.35 550.876 1048.62 Q551.649 1047.85 552.562 1047.85 Q553.242 1047.85 553.663 1048.27 Q554.624 1049.11 554.624 1051.2 Z" fill="#000000" fill-rule="nonzero" fill-opacity="1" /><path clip-path="url(#clip530)" d="M575.9 1047.52 L605.576 1047.52 L605.576 1051.4 L575.9 1051.4 L575.9 1047.52 M575.9 1056.96 L605.576 1056.96 L605.576 1060.9 L575.9 1060.9 L575.9 1056.96 Z" fill="#000000" fill-rule="nonzero" fill-opacity="1" /><path clip-path="url(#clip530)" d="M630.784 1034.48 L649.14 1034.48 L649.14 1038.42 L635.066 1038.42 L635.066 1046.89 Q636.085 1046.54 637.103 1046.38 Q638.122 1046.2 639.14 1046.2 Q644.927 1046.2 648.307 1049.37 Q651.687 1052.54 651.687 1057.96 Q651.687 1063.53 648.214 1066.64 Q644.742 1069.71 638.423 1069.71 Q636.247 1069.71 633.978 1069.34 Q631.733 1068.97 629.326 1068.23 L629.326 1063.53 Q631.409 1064.67 633.631 1065.22 Q635.853 1065.78 638.33 1065.78 Q642.335 1065.78 644.673 1063.67 Q647.011 1061.57 647.011 1057.96 Q647.011 1054.34 644.673 1052.24 Q642.335 1050.13 638.33 1050.13 Q636.455 1050.13 634.58 1050.55 Q632.728 1050.96 630.784 1051.84 L630.784 1034.48 Z" fill="#000000" fill-rule="nonzero" fill-opacity="1" /><path clip-path="url(#clip530)" d="M670.9 1037.56 Q667.288 1037.56 665.46 1041.13 Q663.654 1044.67 663.654 1051.8 Q663.654 1058.9 665.46 1062.47 Q667.288 1066.01 670.9 1066.01 Q674.534 1066.01 676.339 1062.47 Q678.168 1058.9 678.168 1051.8 Q678.168 1044.67 676.339 1041.13 Q674.534 1037.56 670.9 1037.56 M670.9 1033.86 Q676.71 1033.86 679.765 1038.46 Q682.844 1043.05 682.844 1051.8 Q682.844 1060.52 679.765 1065.13 Q676.71 1069.71 670.9 1069.71 Q665.089 1069.71 662.011 1065.13 Q658.955 1060.52 658.955 1051.8 Q658.955 1043.05 662.011 1038.46 Q665.089 1033.86 670.9 1033.86 Z" fill="#000000" fill-rule="nonzero" fill-opacity="1" /><path clip-path="url(#clip530)" d="M701.061 1037.56 Q697.45 1037.56 695.622 1041.13 Q693.816 1044.67 693.816 1051.8 Q693.816 1058.9 695.622 1062.47 Q697.45 1066.01 701.061 1066.01 Q704.696 1066.01 706.501 1062.47 Q708.33 1058.9 708.33 1051.8 Q708.33 1044.67 706.501 1041.13 Q704.696 1037.56 701.061 1037.56 M701.061 1033.86 Q706.872 1033.86 709.927 1038.46 Q713.006 1043.05 713.006 1051.8 Q713.006 1060.52 709.927 1065.13 Q706.872 1069.71 701.061 1069.71 Q695.251 1069.71 692.173 1065.13 Q689.117 1060.52 689.117 1051.8 Q689.117 1043.05 692.173 1038.46 Q695.251 1033.86 701.061 1033.86 Z" fill="#000000" fill-rule="nonzero" fill-opacity="1" /><path clip-path="url(#clip530)" d="M750.714 1047.1 Q749.996 1046.68 749.14 1046.5 Q748.307 1046.29 747.288 1046.29 Q743.677 1046.29 741.732 1048.65 Q739.811 1050.99 739.811 1055.39 L739.811 1069.04 L735.529 1069.04 L735.529 1043.12 L739.811 1043.12 L739.811 1047.15 Q741.154 1044.78 743.307 1043.65 Q745.459 1042.49 748.538 1042.49 Q748.978 1042.49 749.51 1042.56 Q750.043 1042.61 750.691 1042.72 L750.714 1047.1 Z" fill="#000000" fill-rule="nonzero" fill-opacity="1" /><path clip-path="url(#clip530)" d="M759.302 1065.15 L759.302 1078.9 L755.019 1078.9 L755.019 1043.12 L759.302 1043.12 L759.302 1047.05 Q760.644 1044.74 762.681 1043.63 Q764.742 1042.49 767.589 1042.49 Q772.311 1042.49 775.251 1046.24 Q778.214 1049.99 778.214 1056.1 Q778.214 1062.21 775.251 1065.96 Q772.311 1069.71 767.589 1069.71 Q764.742 1069.71 762.681 1068.6 Q760.644 1067.47 759.302 1065.15 M773.793 1056.1 Q773.793 1051.4 771.848 1048.74 Q769.927 1046.06 766.547 1046.06 Q763.168 1046.06 761.223 1048.74 Q759.302 1051.4 759.302 1056.1 Q759.302 1060.8 761.223 1063.49 Q763.168 1066.15 766.547 1066.15 Q769.927 1066.15 771.848 1063.49 Q773.793 1060.8 773.793 1056.1 Z" fill="#000000" fill-rule="nonzero" fill-opacity="1" /><path clip-path="url(#clip530)" d="M805.459 1048.09 Q807.056 1045.22 809.278 1043.86 Q811.501 1042.49 814.51 1042.49 Q818.561 1042.49 820.76 1045.34 Q822.959 1048.16 822.959 1053.4 L822.959 1069.04 L818.677 1069.04 L818.677 1053.53 Q818.677 1049.81 817.357 1048 Q816.038 1046.2 813.329 1046.2 Q810.019 1046.2 808.098 1048.4 Q806.177 1050.59 806.177 1054.39 L806.177 1069.04 L801.894 1069.04 L801.894 1053.53 Q801.894 1049.78 800.575 1048 Q799.255 1046.2 796.501 1046.2 Q793.237 1046.2 791.316 1048.42 Q789.394 1050.62 789.394 1054.39 L789.394 1069.04 L785.112 1069.04 L785.112 1043.12 L789.394 1043.12 L789.394 1047.15 Q790.853 1044.76 792.89 1043.63 Q794.927 1042.49 797.728 1042.49 Q800.552 1042.49 802.519 1043.93 Q804.51 1045.36 805.459 1048.09 Z" fill="#000000" fill-rule="nonzero" fill-opacity="1" /><polyline clip-path="url(#clip530)" style="stroke:#ba3d3a; stroke-linecap:round; stroke-linejoin:round; stroke-width:8; stroke-opacity:1; fill:none" points="359.154,1110.66 502.407,1110.66 "/>
<circle clip-path="url(#clip530)" cx="430.781" cy="1110.66" r="19.8962" fill="#ba3d3a" fill-rule="evenodd" fill-opacity="1" stroke="none"/>
<path clip-path="url(#clip530)" d="M554.624 1103.04 Q554.624 1105.21 553.523 1109.43 Q553.078 1111.26 552.469 1112.92 Q551.883 1114.56 551.017 1116.15 Q550.15 1117.74 549.143 1118.89 Q548.136 1120.02 546.824 1120.72 Q545.512 1121.42 544.06 1121.42 Q541.765 1121.42 540.406 1120.06 Q539.071 1118.68 538.649 1116.32 Q535.511 1121.42 531.318 1121.42 Q528.718 1121.42 527.5 1119.57 Q526.282 1117.7 526.282 1114.56 Q526.282 1111.91 526.985 1109.17 Q528.32 1103.97 530.92 1100.34 Q531.271 1099.92 531.787 1099.92 Q532.091 1099.92 532.232 1100.01 Q532.653 1100.27 532.653 1100.69 Q532.653 1101 532.419 1101.3 Q530.78 1103.57 529.702 1105.52 Q528.625 1107.46 528.133 1109.43 Q527.758 1111.12 527.758 1112.54 Q527.758 1114.96 528.789 1116.46 Q529.843 1117.96 531.927 1117.96 Q533.848 1117.96 535.534 1116.76 Q537.221 1115.54 538.462 1113.51 Q538.532 1111.28 539.071 1109.17 Q539.563 1106.92 540.711 1106.92 Q541.624 1106.92 541.624 1108.16 Q541.624 1108.59 541.437 1109.43 Q540.921 1111.65 539.985 1113.65 Q540.312 1115.59 541.53 1116.78 Q542.748 1117.96 544.692 1117.96 Q546.496 1117.96 548.089 1116.64 Q549.705 1115.33 550.735 1113.41 Q551.789 1111.47 552.375 1109.17 Q552.562 1108.4 552.562 1107.42 Q552.562 1104.79 550.735 1103.18 Q550.22 1102.66 550.22 1101.98 Q550.22 1101.19 550.876 1100.46 Q551.649 1099.69 552.562 1099.69 Q553.242 1099.69 553.663 1100.11 Q554.624 1100.95 554.624 1103.04 Z" fill="#000000" fill-rule="nonzero" fill-opacity="1" /><path clip-path="url(#clip530)" d="M575.9 1099.36 L605.576 1099.36 L605.576 1103.24 L575.9 1103.24 L575.9 1099.36 M575.9 1108.8 L605.576 1108.8 L605.576 1112.74 L575.9 1112.74 L575.9 1108.8 Z" fill="#000000" fill-rule="nonzero" fill-opacity="1" /><path clip-path="url(#clip530)" d="M629.557 1086.32 L651.779 1086.32 L651.779 1088.31 L639.233 1120.88 L634.349 1120.88 L646.154 1090.26 L629.557 1090.26 L629.557 1086.32 Z" fill="#000000" fill-rule="nonzero" fill-opacity="1" /><path clip-path="url(#clip530)" d="M660.946 1086.32 L679.302 1086.32 L679.302 1090.26 L665.228 1090.26 L665.228 1098.73 Q666.247 1098.38 667.265 1098.22 Q668.284 1098.04 669.302 1098.04 Q675.089 1098.04 678.469 1101.21 Q681.849 1104.38 681.849 1109.8 Q681.849 1115.37 678.376 1118.48 Q674.904 1121.55 668.585 1121.55 Q666.409 1121.55 664.14 1121.18 Q661.895 1120.81 659.488 1120.07 L659.488 1115.37 Q661.571 1116.51 663.793 1117.06 Q666.015 1117.62 668.492 1117.62 Q672.497 1117.62 674.835 1115.51 Q677.173 1113.41 677.173 1109.8 Q677.173 1106.18 674.835 1104.08 Q672.497 1101.97 668.492 1101.97 Q666.617 1101.97 664.742 1102.39 Q662.89 1102.8 660.946 1103.68 L660.946 1086.32 Z" fill="#000000" fill-rule="nonzero" fill-opacity="1" /><path clip-path="url(#clip530)" d="M701.061 1089.4 Q697.45 1089.4 695.622 1092.97 Q693.816 1096.51 693.816 1103.64 Q693.816 1110.74 695.622 1114.31 Q697.45 1117.85 701.061 1117.85 Q704.696 1117.85 706.501 1114.31 Q708.33 1110.74 708.33 1103.64 Q708.33 1096.51 706.501 1092.97 Q704.696 1089.4 701.061 1089.4 M701.061 1085.7 Q706.872 1085.7 709.927 1090.3 Q713.006 1094.89 713.006 1103.64 Q713.006 1112.36 709.927 1116.97 Q706.872 1121.55 701.061 1121.55 Q695.251 1121.55 692.173 1116.97 Q689.117 1112.36 689.117 1103.64 Q689.117 1094.89 692.173 1090.3 Q695.251 1085.7 701.061 1085.7 Z" fill="#000000" fill-rule="nonzero" fill-opacity="1" /><path clip-path="url(#clip530)" d="M750.714 1098.94 Q749.996 1098.52 749.14 1098.34 Q748.307 1098.13 747.288 1098.13 Q743.677 1098.13 741.732 1100.49 Q739.811 1102.83 739.811 1107.23 L739.811 1120.88 L735.529 1120.88 L735.529 1094.96 L739.811 1094.96 L739.811 1098.99 Q741.154 1096.62 743.307 1095.49 Q745.459 1094.33 748.538 1094.33 Q748.978 1094.33 749.51 1094.4 Q750.043 1094.45 750.691 1094.56 L750.714 1098.94 Z" fill="#000000" fill-rule="nonzero" fill-opacity="1" /><path clip-path="url(#clip530)" d="M759.302 1116.99 L759.302 1130.74 L755.019 1130.74 L755.019 1094.96 L759.302 1094.96 L759.302 1098.89 Q760.644 1096.58 762.681 1095.47 Q764.742 1094.33 767.589 1094.33 Q772.311 1094.33 775.251 1098.08 Q778.214 1101.83 778.214 1107.94 Q778.214 1114.05 775.251 1117.8 Q772.311 1121.55 767.589 1121.55 Q764.742 1121.55 762.681 1120.44 Q760.644 1119.31 759.302 1116.99 M773.793 1107.94 Q773.793 1103.24 771.848 1100.58 Q769.927 1097.9 766.547 1097.9 Q763.168 1097.9 761.223 1100.58 Q759.302 1103.24 759.302 1107.94 Q759.302 1112.64 761.223 1115.33 Q763.168 1117.99 766.547 1117.99 Q769.927 1117.99 771.848 1115.33 Q773.793 1112.64 773.793 1107.94 Z" fill="#000000" fill-rule="nonzero" fill-opacity="1" /><path clip-path="url(#clip530)" d="M805.459 1099.93 Q807.056 1097.06 809.278 1095.7 Q811.501 1094.33 814.51 1094.33 Q818.561 1094.33 820.76 1097.18 Q822.959 1100 822.959 1105.24 L822.959 1120.88 L818.677 1120.88 L818.677 1105.37 Q818.677 1101.65 817.357 1099.84 Q816.038 1098.04 813.329 1098.04 Q810.019 1098.04 808.098 1100.24 Q806.177 1102.43 806.177 1106.23 L806.177 1120.88 L801.894 1120.88 L801.894 1105.37 Q801.894 1101.62 800.575 1099.84 Q799.255 1098.04 796.501 1098.04 Q793.237 1098.04 791.316 1100.26 Q789.394 1102.46 789.394 1106.23 L789.394 1120.88 L785.112 1120.88 L785.112 1094.96 L789.394 1094.96 L789.394 1098.99 Q790.853 1096.6 792.89 1095.47 Q794.927 1094.33 797.728 1094.33 Q800.552 1094.33 802.519 1095.77 Q804.51 1097.2 805.459 1099.93 Z" fill="#000000" fill-rule="nonzero" fill-opacity="1" /></svg>
