<?xml version="1.0" encoding="utf-8"?>
<svg xmlns="http://www.w3.org/2000/svg" xmlns:xlink="http://www.w3.org/1999/xlink" width="600" height="400" viewBox="0 0 2400 1600">
<defs>
  <clipPath id="clip700">
    <rect x="0" y="0" width="2400" height="1600"/>
  </clipPath>
</defs>
<path clip-path="url(#clip700)" d="M0 1600 L2400 1600 L2400 0 L0 0  Z" fill="#ffffff" fill-rule="evenodd" fill-opacity="1"/>
<defs>
  <clipPath id="clip701">
    <rect x="480" y="0" width="1681" height="1600"/>
  </clipPath>
</defs>
<path clip-path="url(#clip700)" d="M175.445 1423.18 L2352.76 1423.18 L2352.76 47.2441 L175.445 47.2441  Z" fill="#ffffff" fill-rule="evenodd" fill-opacity="1"/>
<defs>
  <clipPath id="clip702">
    <rect x="175" y="47" width="2178" height="1377"/>
  </clipPath>
</defs>
<polyline clip-path="url(#clip702)" style="stroke:#000000; stroke-linecap:round; stroke-linejoin:round; stroke-width:2; stroke-opacity:0.1; fill:none" points="237.067,1423.18 237.067,47.2441 "/>
<polyline clip-path="url(#clip702)" style="stroke:#000000; stroke-linecap:round; stroke-linejoin:round; stroke-width:2; stroke-opacity:0.1; fill:none" points="750.584,1423.18 750.584,47.2441 "/>
<polyline clip-path="url(#clip702)" style="stroke:#000000; stroke-linecap:round; stroke-linejoin:round; stroke-width:2; stroke-opacity:0.1; fill:none" points="1264.1,1423.18 1264.1,47.2441 "/>
<polyline clip-path="url(#clip702)" style="stroke:#000000; stroke-linecap:round; stroke-linejoin:round; stroke-width:2; stroke-opacity:0.1; fill:none" points="1777.62,1423.18 1777.62,47.2441 "/>
<polyline clip-path="url(#clip702)" style="stroke:#000000; stroke-linecap:round; stroke-linejoin:round; stroke-width:2; stroke-opacity:0.1; fill:none" points="2291.13,1423.18 2291.13,47.2441 "/>
<polyline clip-path="url(#clip702)" style="stroke:#000000; stroke-linecap:round; stroke-linejoin:round; stroke-width:2; stroke-opacity:0.1; fill:none" points="175.445,1384.24 2352.76,1384.24 "/>
<polyline clip-path="url(#clip702)" style="stroke:#000000; stroke-linecap:round; stroke-linejoin:round; stroke-width:2; stroke-opacity:0.1; fill:none" points="175.445,1181.91 2352.76,1181.91 "/>
<polyline clip-path="url(#clip702)" style="stroke:#000000; stroke-linecap:round; stroke-linejoin:round; stroke-width:2; stroke-opacity:0.1; fill:none" points="175.445,979.589 2352.76,979.589 "/>
<polyline clip-path="url(#clip702)" style="stroke:#000000; stroke-linecap:round; stroke-linejoin:round; stroke-width:2; stroke-opacity:0.1; fill:none" points="175.445,777.265 2352.76,777.265 "/>
<polyline clip-path="url(#clip702)" style="stroke:#000000; stroke-linecap:round; stroke-linejoin:round; stroke-width:2; stroke-opacity:0.1; fill:none" points="175.445,574.94 2352.76,574.94 "/>
<polyline clip-path="url(#clip702)" style="stroke:#000000; stroke-linecap:round; stroke-linejoin:round; stroke-width:2; stroke-opacity:0.1; fill:none" points="175.445,372.616 2352.76,372.616 "/>
<polyline clip-path="url(#clip702)" style="stroke:#000000; stroke-linecap:round; stroke-linejoin:round; stroke-width:2; stroke-opacity:0.1; fill:none" points="175.445,170.291 2352.76,170.291 "/>
<polyline clip-path="url(#clip700)" style="stroke:#000000; stroke-linecap:round; stroke-linejoin:round; stroke-width:4; stroke-opacity:1; fill:none" points="175.445,1423.18 2352.76,1423.18 "/>
<polyline clip-path="url(#clip700)" style="stroke:#000000; stroke-linecap:round; stroke-linejoin:round; stroke-width:4; stroke-opacity:1; fill:none" points="237.067,1423.18 237.067,1404.28 "/>
<polyline clip-path="url(#clip700)" style="stroke:#000000; stroke-linecap:round; stroke-linejoin:round; stroke-width:4; stroke-opacity:1; fill:none" points="750.584,1423.18 750.584,1404.28 "/>
<polyline clip-path="url(#clip700)" style="stroke:#000000; stroke-linecap:round; stroke-linejoin:round; stroke-width:4; stroke-opacity:1; fill:none" points="1264.1,1423.18 1264.1,1404.28 "/>
<polyline clip-path="url(#clip700)" style="stroke:#000000; stroke-linecap:round; stroke-linejoin:round; stroke-width:4; stroke-opacity:1; fill:none" points="1777.62,1423.18 1777.62,1404.28 "/>
<polyline clip-path="url(#clip700)" style="stroke:#000000; stroke-linecap:round; stroke-linejoin:round; stroke-width:4; stroke-opacity:1; fill:none" points="2291.13,1423.18 2291.13,1404.28 "/>
<path clip-path="url(#clip700)" d="M214.452 1454.1 Q210.84 1454.1 209.012 1457.66 Q207.206 1461.2 207.206 1468.33 Q207.206 1475.44 209.012 1479.01 Q210.84 1482.55 214.452 1482.55 Q218.086 1482.55 219.891 1479.01 Q221.72 1475.44 221.72 1468.33 Q221.72 1461.2 219.891 1457.66 Q218.086 1454.1 214.452 1454.1 M214.452 1450.39 Q220.262 1450.39 223.317 1455 Q226.396 1459.58 226.396 1468.33 Q226.396 1477.06 223.317 1481.67 Q220.262 1486.25 214.452 1486.25 Q208.641 1486.25 205.563 1481.67 Q202.507 1477.06 202.507 1468.33 Q202.507 1459.58 205.563 1455 Q208.641 1450.39 214.452 1450.39 Z" fill="#000000" fill-rule="nonzero" fill-opacity="1" /><path clip-path="url(#clip700)" d="M234.614 1479.7 L239.498 1479.7 L239.498 1485.58 L234.614 1485.58 L234.614 1479.7 Z" fill="#000000" fill-rule="nonzero" fill-opacity="1" /><path clip-path="url(#clip700)" d="M259.683 1454.1 Q256.072 1454.1 254.243 1457.66 Q252.437 1461.2 252.437 1468.33 Q252.437 1475.44 254.243 1479.01 Q256.072 1482.55 259.683 1482.55 Q263.317 1482.55 265.123 1479.01 Q266.951 1475.44 266.951 1468.33 Q266.951 1461.2 265.123 1457.66 Q263.317 1454.1 259.683 1454.1 M259.683 1450.39 Q265.493 1450.39 268.549 1455 Q271.627 1459.58 271.627 1468.33 Q271.627 1477.06 268.549 1481.67 Q265.493 1486.25 259.683 1486.25 Q253.873 1486.25 250.794 1481.67 Q247.738 1477.06 247.738 1468.33 Q247.738 1459.58 250.794 1455 Q253.873 1450.39 259.683 1450.39 Z" fill="#000000" fill-rule="nonzero" fill-opacity="1" /><path clip-path="url(#clip700)" d="M722.32 1481.64 L738.64 1481.64 L738.64 1485.58 L716.695 1485.58 L716.695 1481.64 Q719.357 1478.89 723.941 1474.26 Q728.547 1469.61 729.728 1468.27 Q731.973 1465.74 732.852 1464.01 Q733.755 1462.25 733.755 1460.56 Q733.755 1457.8 731.811 1456.07 Q729.89 1454.33 726.788 1454.33 Q724.589 1454.33 722.135 1455.09 Q719.704 1455.86 716.927 1457.41 L716.927 1452.69 Q719.751 1451.55 722.204 1450.97 Q724.658 1450.39 726.695 1450.39 Q732.065 1450.39 735.26 1453.08 Q738.454 1455.77 738.454 1460.26 Q738.454 1462.39 737.644 1464.31 Q736.857 1466.2 734.751 1468.8 Q734.172 1469.47 731.07 1472.69 Q727.968 1475.88 722.32 1481.64 Z" fill="#000000" fill-rule="nonzero" fill-opacity="1" /><path clip-path="url(#clip700)" d="M748.454 1479.7 L753.338 1479.7 L753.338 1485.58 L748.454 1485.58 L748.454 1479.7 Z" fill="#000000" fill-rule="nonzero" fill-opacity="1" /><path clip-path="url(#clip700)" d="M763.57 1451.02 L781.926 1451.02 L781.926 1454.96 L767.852 1454.96 L767.852 1463.43 Q768.871 1463.08 769.889 1462.92 Q770.908 1462.73 771.926 1462.73 Q777.713 1462.73 781.093 1465.9 Q784.473 1469.08 784.473 1474.49 Q784.473 1480.07 781 1483.17 Q777.528 1486.25 771.209 1486.25 Q769.033 1486.25 766.764 1485.88 Q764.519 1485.51 762.112 1484.77 L762.112 1480.07 Q764.195 1481.2 766.417 1481.76 Q768.639 1482.32 771.116 1482.32 Q775.121 1482.32 777.459 1480.21 Q779.797 1478.1 779.797 1474.49 Q779.797 1470.88 777.459 1468.77 Q775.121 1466.67 771.116 1466.67 Q769.241 1466.67 767.366 1467.08 Q765.514 1467.5 763.57 1468.38 L763.57 1451.02 Z" fill="#000000" fill-rule="nonzero" fill-opacity="1" /><path clip-path="url(#clip700)" d="M1231.27 1451.02 L1249.62 1451.02 L1249.62 1454.96 L1235.55 1454.96 L1235.55 1463.43 Q1236.57 1463.08 1237.58 1462.92 Q1238.6 1462.73 1239.62 1462.73 Q1245.41 1462.73 1248.79 1465.9 Q1252.17 1469.08 1252.17 1474.49 Q1252.17 1480.07 1248.7 1483.17 Q1245.22 1486.25 1238.9 1486.25 Q1236.73 1486.25 1234.46 1485.88 Q1232.21 1485.51 1229.81 1484.77 L1229.81 1480.07 Q1231.89 1481.2 1234.11 1481.76 Q1236.33 1482.32 1238.81 1482.32 Q1242.82 1482.32 1245.15 1480.21 Q1247.49 1478.1 1247.49 1474.49 Q1247.49 1470.88 1245.15 1468.77 Q1242.82 1466.67 1238.81 1466.67 Q1236.94 1466.67 1235.06 1467.08 Q1233.21 1467.5 1231.27 1468.38 L1231.27 1451.02 Z" fill="#000000" fill-rule="nonzero" fill-opacity="1" /><path clip-path="url(#clip700)" d="M1261.38 1479.7 L1266.26 1479.7 L1266.26 1485.58 L1261.38 1485.58 L1261.38 1479.7 Z" fill="#000000" fill-rule="nonzero" fill-opacity="1" /><path clip-path="url(#clip700)" d="M1286.45 1454.1 Q1282.84 1454.1 1281.01 1457.66 Q1279.2 1461.2 1279.2 1468.33 Q1279.2 1475.44 1281.01 1479.01 Q1282.84 1482.55 1286.45 1482.55 Q1290.08 1482.55 1291.89 1479.01 Q1293.72 1475.44 1293.72 1468.33 Q1293.72 1461.2 1291.89 1457.66 Q1290.08 1454.1 1286.45 1454.1 M1286.45 1450.39 Q1292.26 1450.39 1295.32 1455 Q1298.39 1459.58 1298.39 1468.33 Q1298.39 1477.06 1295.32 1481.67 Q1292.26 1486.25 1286.45 1486.25 Q1280.64 1486.25 1277.56 1481.67 Q1274.51 1477.06 1274.51 1468.33 Q1274.51 1459.58 1277.56 1455 Q1280.64 1450.39 1286.45 1450.39 Z" fill="#000000" fill-rule="nonzero" fill-opacity="1" /><path clip-path="url(#clip700)" d="M1743.94 1451.02 L1766.16 1451.02 L1766.16 1453.01 L1753.61 1485.58 L1748.73 1485.58 L1760.53 1454.96 L1743.94 1454.96 L1743.94 1451.02 Z" fill="#000000" fill-rule="nonzero" fill-opacity="1" /><path clip-path="url(#clip700)" d="M1775.28 1479.7 L1780.16 1479.7 L1780.16 1485.58 L1775.28 1485.58 L1775.28 1479.7 Z" fill="#000000" fill-rule="nonzero" fill-opacity="1" /><path clip-path="url(#clip700)" d="M1790.39 1451.02 L1808.75 1451.02 L1808.75 1454.96 L1794.68 1454.96 L1794.68 1463.43 Q1795.7 1463.08 1796.71 1462.92 Q1797.73 1462.73 1798.75 1462.73 Q1804.54 1462.73 1807.92 1465.9 Q1811.3 1469.08 1811.3 1474.49 Q1811.3 1480.07 1807.83 1483.17 Q1804.35 1486.25 1798.03 1486.25 Q1795.86 1486.25 1793.59 1485.88 Q1791.34 1485.51 1788.94 1484.77 L1788.94 1480.07 Q1791.02 1481.2 1793.24 1481.76 Q1795.46 1482.32 1797.94 1482.32 Q1801.95 1482.32 1804.28 1480.21 Q1806.62 1478.1 1806.62 1474.49 Q1806.62 1470.88 1804.28 1468.77 Q1801.95 1466.67 1797.94 1466.67 Q1796.07 1466.67 1794.19 1467.08 Q1792.34 1467.5 1790.39 1468.38 L1790.39 1451.02 Z" fill="#000000" fill-rule="nonzero" fill-opacity="1" /><path clip-path="url(#clip700)" d="M2243.21 1481.64 L2250.84 1481.64 L2250.84 1455.28 L2242.53 1456.95 L2242.53 1452.69 L2250.8 1451.02 L2255.47 1451.02 L2255.47 1481.64 L2263.11 1481.64 L2263.11 1485.58 L2243.21 1485.58 L2243.21 1481.64 Z" fill="#000000" fill-rule="nonzero" fill-opacity="1" /><path clip-path="url(#clip700)" d="M2282.56 1454.1 Q2278.95 1454.1 2277.12 1457.66 Q2275.31 1461.2 2275.31 1468.33 Q2275.31 1475.44 2277.12 1479.01 Q2278.95 1482.55 2282.56 1482.55 Q2286.19 1482.55 2288 1479.01 Q2289.83 1475.44 2289.83 1468.33 Q2289.83 1461.2 2288 1457.66 Q2286.19 1454.1 2282.56 1454.1 M2282.56 1450.39 Q2288.37 1450.39 2291.42 1455 Q2294.5 1459.58 2294.5 1468.33 Q2294.5 1477.06 2291.42 1481.67 Q2288.37 1486.25 2282.56 1486.25 Q2276.75 1486.25 2273.67 1481.67 Q2270.61 1477.06 2270.61 1468.33 Q2270.61 1459.58 2273.67 1455 Q2276.75 1450.39 2282.56 1450.39 Z" fill="#000000" fill-rule="nonzero" fill-opacity="1" /><path clip-path="url(#clip700)" d="M2302.72 1479.7 L2307.6 1479.7 L2307.6 1485.58 L2302.72 1485.58 L2302.72 1479.7 Z" fill="#000000" fill-rule="nonzero" fill-opacity="1" /><path clip-path="url(#clip700)" d="M2327.79 1454.1 Q2324.18 1454.1 2322.35 1457.66 Q2320.54 1461.2 2320.54 1468.33 Q2320.54 1475.44 2322.35 1479.01 Q2324.18 1482.55 2327.79 1482.55 Q2331.42 1482.55 2333.23 1479.01 Q2335.06 1475.44 2335.06 1468.33 Q2335.06 1461.2 2333.23 1457.66 Q2331.42 1454.1 2327.79 1454.1 M2327.79 1450.39 Q2333.6 1450.39 2336.65 1455 Q2339.73 1459.58 2339.73 1468.33 Q2339.73 1477.06 2336.65 1481.67 Q2333.6 1486.25 2327.79 1486.25 Q2321.98 1486.25 2318.9 1481.67 Q2315.84 1477.06 2315.84 1468.33 Q2315.84 1459.58 2318.9 1455 Q2321.98 1450.39 2327.79 1450.39 Z" fill="#000000" fill-rule="nonzero" fill-opacity="1" /><path clip-path="url(#clip700)" d="M1134.27 1520.52 L1174.47 1520.52 L1174.47 1525.93 L1157.6 1525.93 L1157.6 1568.04 L1151.14 1568.04 L1151.14 1525.93 L1134.27 1525.93 L1134.27 1520.52 Z" fill="#000000" fill-rule="nonzero" fill-opacity="1" /><path clip-path="url(#clip700)" d="M1178.42 1532.4 L1184.27 1532.4 L1184.27 1568.04 L1178.42 1568.04 L1178.42 1532.4 M1178.42 1518.52 L1184.27 1518.52 L1184.27 1525.93 L1178.42 1525.93 L1178.42 1518.52 Z" fill="#000000" fill-rule="nonzero" fill-opacity="1" /><path clip-path="url(#clip700)" d="M1224.28 1539.24 Q1226.48 1535.29 1229.53 1533.41 Q1232.59 1531.54 1236.73 1531.54 Q1242.3 1531.54 1245.32 1535.45 Q1248.35 1539.33 1248.35 1546.53 L1248.35 1568.04 L1242.46 1568.04 L1242.46 1546.72 Q1242.46 1541.59 1240.64 1539.11 Q1238.83 1536.63 1235.1 1536.63 Q1230.55 1536.63 1227.91 1539.65 Q1225.27 1542.68 1225.27 1547.9 L1225.27 1568.04 L1219.38 1568.04 L1219.38 1546.72 Q1219.38 1541.56 1217.57 1539.11 Q1215.75 1536.63 1211.97 1536.63 Q1207.48 1536.63 1204.84 1539.68 Q1202.19 1542.71 1202.19 1547.9 L1202.19 1568.04 L1196.31 1568.04 L1196.31 1532.4 L1202.19 1532.4 L1202.19 1537.93 Q1204.2 1534.66 1207 1533.1 Q1209.8 1531.54 1213.65 1531.54 Q1217.54 1531.54 1220.24 1533.51 Q1222.98 1535.48 1224.28 1539.24 Z" fill="#000000" fill-rule="nonzero" fill-opacity="1" /><path clip-path="url(#clip700)" d="M1290.52 1548.76 L1290.52 1551.62 L1263.59 1551.62 Q1263.97 1557.67 1267.22 1560.85 Q1270.5 1564 1276.32 1564 Q1279.7 1564 1282.85 1563.17 Q1286.03 1562.35 1289.15 1560.69 L1289.15 1566.23 Q1286 1567.57 1282.69 1568.27 Q1279.38 1568.97 1275.97 1568.97 Q1267.44 1568.97 1262.45 1564 Q1257.48 1559.04 1257.48 1550.57 Q1257.48 1541.82 1262.19 1536.69 Q1266.93 1531.54 1274.95 1531.54 Q1282.15 1531.54 1286.32 1536.18 Q1290.52 1540.8 1290.52 1548.76 M1284.66 1547.04 Q1284.6 1542.23 1281.96 1539.37 Q1279.35 1536.5 1275.02 1536.5 Q1270.12 1536.5 1267.16 1539.27 Q1264.23 1542.04 1263.78 1547.07 L1284.66 1547.04 Z" fill="#000000" fill-rule="nonzero" fill-opacity="1" /><path clip-path="url(#clip700)" d="M1320.31 1518.52 L1333.81 1518.52 L1333.81 1523.07 L1326.17 1523.07 L1326.17 1572.09 L1333.81 1572.09 L1333.81 1576.64 L1320.31 1576.64 L1320.31 1518.52 Z" fill="#000000" fill-rule="nonzero" fill-opacity="1" /><path clip-path="url(#clip700)" d="M1369.01 1533.45 L1369.01 1538.98 Q1366.52 1537.71 1363.85 1537.07 Q1361.18 1536.44 1358.31 1536.44 Q1353.95 1536.44 1351.76 1537.77 Q1349.59 1539.11 1349.59 1541.79 Q1349.59 1543.82 1351.15 1545 Q1352.71 1546.15 1357.42 1547.2 L1359.43 1547.64 Q1365.67 1548.98 1368.28 1551.43 Q1370.92 1553.85 1370.92 1558.21 Q1370.92 1563.17 1366.97 1566.07 Q1363.06 1568.97 1356.18 1568.97 Q1353.32 1568.97 1350.2 1568.39 Q1347.11 1567.85 1343.67 1566.74 L1343.67 1560.69 Q1346.92 1562.38 1350.07 1563.24 Q1353.22 1564.07 1356.31 1564.07 Q1360.45 1564.07 1362.67 1562.66 Q1364.9 1561.23 1364.9 1558.65 Q1364.9 1556.27 1363.28 1554.99 Q1361.69 1553.72 1356.24 1552.54 L1354.21 1552.07 Q1348.76 1550.92 1346.35 1548.56 Q1343.93 1546.18 1343.93 1542.04 Q1343.93 1537.01 1347.49 1534.27 Q1351.06 1531.54 1357.61 1531.54 Q1360.86 1531.54 1363.72 1532.01 Q1366.59 1532.49 1369.01 1533.45 Z" fill="#000000" fill-rule="nonzero" fill-opacity="1" /><path clip-path="url(#clip700)" d="M1393.93 1518.52 L1393.93 1576.64 L1380.43 1576.64 L1380.43 1572.09 L1388.04 1572.09 L1388.04 1523.07 L1380.43 1523.07 L1380.43 1518.52 L1393.93 1518.52 Z" fill="#000000" fill-rule="nonzero" fill-opacity="1" /><polyline clip-path="url(#clip700)" style="stroke:#000000; stroke-linecap:round; stroke-linejoin:round; stroke-width:4; stroke-opacity:1; fill:none" points="175.445,1423.18 175.445,47.2441 "/>
<polyline clip-path="url(#clip700)" style="stroke:#000000; stroke-linecap:round; stroke-linejoin:round; stroke-width:4; stroke-opacity:1; fill:none" points="175.445,1384.24 194.343,1384.24 "/>
<polyline clip-path="url(#clip700)" style="stroke:#000000; stroke-linecap:round; stroke-linejoin:round; stroke-width:4; stroke-opacity:1; fill:none" points="175.445,1181.91 194.343,1181.91 "/>
<polyline clip-path="url(#clip700)" style="stroke:#000000; stroke-linecap:round; stroke-linejoin:round; stroke-width:4; stroke-opacity:1; fill:none" points="175.445,979.589 194.343,979.589 "/>
<polyline clip-path="url(#clip700)" style="stroke:#000000; stroke-linecap:round; stroke-linejoin:round; stroke-width:4; stroke-opacity:1; fill:none" points="175.445,777.265 194.343,777.265 "/>
<polyline clip-path="url(#clip700)" style="stroke:#000000; stroke-linecap:round; stroke-linejoin:round; stroke-width:4; stroke-opacity:1; fill:none" points="175.445,574.94 194.343,574.94 "/>
<polyline clip-path="url(#clip700)" style="stroke:#000000; stroke-linecap:round; stroke-linejoin:round; stroke-width:4; stroke-opacity:1; fill:none" points="175.445,372.616 194.343,372.616 "/>
<polyline clip-path="url(#clip700)" style="stroke:#000000; stroke-linecap:round; stroke-linejoin:round; stroke-width:4; stroke-opacity:1; fill:none" points="175.445,170.291 194.343,170.291 "/>
<path clip-path="url(#clip700)" d="M127.501 1370.04 Q123.89 1370.04 122.061 1373.6 Q120.255 1377.14 120.255 1384.27 Q120.255 1391.38 122.061 1394.94 Q123.89 1398.49 127.501 1398.49 Q131.135 1398.49 132.941 1394.94 Q134.769 1391.38 134.769 1384.27 Q134.769 1377.14 132.941 1373.6 Q131.135 1370.04 127.501 1370.04 M127.501 1366.33 Q133.311 1366.33 136.367 1370.94 Q139.445 1375.52 139.445 1384.27 Q139.445 1393 136.367 1397.61 Q133.311 1402.19 127.501 1402.19 Q121.691 1402.19 118.612 1397.61 Q115.556 1393 115.556 1384.27 Q115.556 1375.52 118.612 1370.94 Q121.691 1366.33 127.501 1366.33 Z" fill="#000000" fill-rule="nonzero" fill-opacity="1" /><path clip-path="url(#clip700)" d="M119.538 1195.26 L127.177 1195.26 L127.177 1168.89 L118.867 1170.56 L118.867 1166.3 L127.13 1164.63 L131.806 1164.63 L131.806 1195.26 L139.445 1195.26 L139.445 1199.19 L119.538 1199.19 L119.538 1195.26 Z" fill="#000000" fill-rule="nonzero" fill-opacity="1" /><path clip-path="url(#clip700)" d="M123.126 992.934 L139.445 992.934 L139.445 996.869 L117.501 996.869 L117.501 992.934 Q120.163 990.179 124.746 985.55 Q129.353 980.897 130.533 979.555 Q132.779 977.031 133.658 975.295 Q134.561 973.536 134.561 971.846 Q134.561 969.092 132.617 967.356 Q130.695 965.619 127.593 965.619 Q125.394 965.619 122.941 966.383 Q120.51 967.147 117.732 968.698 L117.732 963.976 Q120.556 962.842 123.01 962.263 Q125.464 961.684 127.501 961.684 Q132.871 961.684 136.066 964.369 Q139.26 967.055 139.26 971.545 Q139.26 973.675 138.45 975.596 Q137.663 977.494 135.556 980.087 Q134.978 980.758 131.876 983.976 Q128.774 987.17 123.126 992.934 Z" fill="#000000" fill-rule="nonzero" fill-opacity="1" /><path clip-path="url(#clip700)" d="M132.316 775.911 Q135.672 776.628 137.547 778.897 Q139.445 781.165 139.445 784.499 Q139.445 789.614 135.927 792.415 Q132.408 795.216 125.927 795.216 Q123.751 795.216 121.436 794.776 Q119.144 794.36 116.691 793.503 L116.691 788.989 Q118.635 790.123 120.95 790.702 Q123.265 791.281 125.788 791.281 Q130.186 791.281 132.478 789.545 Q134.792 787.809 134.792 784.499 Q134.792 781.443 132.64 779.73 Q130.51 777.994 126.691 777.994 L122.663 777.994 L122.663 774.151 L126.876 774.151 Q130.325 774.151 132.154 772.786 Q133.982 771.397 133.982 768.804 Q133.982 766.142 132.084 764.73 Q130.209 763.295 126.691 763.295 Q124.769 763.295 122.57 763.712 Q120.371 764.128 117.732 765.008 L117.732 760.841 Q120.394 760.101 122.709 759.73 Q125.047 759.36 127.107 759.36 Q132.431 759.36 135.533 761.79 Q138.635 764.198 138.635 768.318 Q138.635 771.188 136.992 773.179 Q135.348 775.147 132.316 775.911 Z" fill="#000000" fill-rule="nonzero" fill-opacity="1" /><path clip-path="url(#clip700)" d="M129.862 561.734 L118.056 580.183 L129.862 580.183 L129.862 561.734 M128.635 557.66 L134.515 557.66 L134.515 580.183 L139.445 580.183 L139.445 584.072 L134.515 584.072 L134.515 592.22 L129.862 592.22 L129.862 584.072 L114.26 584.072 L114.26 579.558 L128.635 557.66 Z" fill="#000000" fill-rule="nonzero" fill-opacity="1" /><path clip-path="url(#clip700)" d="M118.543 355.336 L136.899 355.336 L136.899 359.271 L122.825 359.271 L122.825 367.743 Q123.843 367.396 124.862 367.234 Q125.88 367.049 126.899 367.049 Q132.686 367.049 136.066 370.22 Q139.445 373.391 139.445 378.808 Q139.445 384.387 135.973 387.488 Q132.501 390.567 126.181 390.567 Q124.005 390.567 121.737 390.197 Q119.492 389.826 117.084 389.086 L117.084 384.387 Q119.168 385.521 121.39 386.076 Q123.612 386.632 126.089 386.632 Q130.093 386.632 132.431 384.525 Q134.769 382.419 134.769 378.808 Q134.769 375.197 132.431 373.09 Q130.093 370.984 126.089 370.984 Q124.214 370.984 122.339 371.401 Q120.487 371.817 118.543 372.697 L118.543 355.336 Z" fill="#000000" fill-rule="nonzero" fill-opacity="1" /><path clip-path="url(#clip700)" d="M127.917 168.428 Q124.769 168.428 122.918 170.581 Q121.089 172.733 121.089 176.483 Q121.089 180.21 122.918 182.386 Q124.769 184.539 127.917 184.539 Q131.066 184.539 132.894 182.386 Q134.746 180.21 134.746 176.483 Q134.746 172.733 132.894 170.581 Q131.066 168.428 127.917 168.428 M137.2 153.775 L137.2 158.034 Q135.441 157.201 133.635 156.761 Q131.853 156.321 130.093 156.321 Q125.464 156.321 123.01 159.446 Q120.58 162.571 120.232 168.891 Q121.598 166.877 123.658 165.812 Q125.718 164.724 128.195 164.724 Q133.404 164.724 136.413 167.895 Q139.445 171.044 139.445 176.483 Q139.445 181.807 136.297 185.025 Q133.149 188.243 127.917 188.243 Q121.922 188.243 118.751 183.659 Q115.58 179.053 115.58 170.326 Q115.58 162.132 119.468 157.271 Q123.357 152.386 129.908 152.386 Q131.667 152.386 133.45 152.734 Q135.255 153.081 137.2 153.775 Z" fill="#000000" fill-rule="nonzero" fill-opacity="1" /><path clip-path="url(#clip700)" d="M22.818 905.288 L46.4666 914.009 L46.4666 896.535 L22.818 905.288 M16.4842 908.916 L16.4842 901.627 L64.0042 883.517 L64.0042 890.201 L51.8138 894.53 L51.8138 915.95 L64.0042 920.279 L64.0042 927.058 L16.4842 908.916 Z" fill="#000000" fill-rule="nonzero" fill-opacity="1" /><path clip-path="url(#clip700)" d="M14.479 876.833 L14.479 870.977 L64.0042 870.977 L64.0042 876.833 L14.479 876.833 Z" fill="#000000" fill-rule="nonzero" fill-opacity="1" /><path clip-path="url(#clip700)" d="M18.2347 852.93 L28.3562 852.93 L28.3562 840.867 L32.9077 840.867 L32.9077 852.93 L52.2594 852.93 Q56.6199 852.93 57.8613 851.752 Q59.1026 850.543 59.1026 846.882 L59.1026 840.867 L64.0042 840.867 L64.0042 846.882 Q64.0042 853.662 61.4897 856.24 Q58.9434 858.818 52.2594 858.818 L32.9077 858.818 L32.9077 863.115 L28.3562 863.115 L28.3562 858.818 L18.2347 858.818 L18.2347 852.93 Z" fill="#000000" fill-rule="nonzero" fill-opacity="1" /><path clip-path="url(#clip700)" d="M28.3562 833.164 L28.3562 827.308 L64.0042 827.308 L64.0042 833.164 L28.3562 833.164 M14.479 833.164 L14.479 827.308 L21.895 827.308 L21.895 833.164 L14.479 833.164 Z" fill="#000000" fill-rule="nonzero" fill-opacity="1" /><path clip-path="url(#clip700)" d="M18.2347 809.261 L28.3562 809.261 L28.3562 797.198 L32.9077 797.198 L32.9077 809.261 L52.2594 809.261 Q56.6199 809.261 57.8613 808.083 Q59.1026 806.874 59.1026 803.214 L59.1026 797.198 L64.0042 797.198 L64.0042 803.214 Q64.0042 809.993 61.4897 812.571 Q58.9434 815.149 52.2594 815.149 L32.9077 815.149 L32.9077 819.446 L28.3562 819.446 L28.3562 815.149 L18.2347 815.149 L18.2347 809.261 Z" fill="#000000" fill-rule="nonzero" fill-opacity="1" /><path clip-path="url(#clip700)" d="M49.9359 790.1 L28.3562 790.1 L28.3562 784.244 L49.7131 784.244 Q54.7739 784.244 57.3202 782.27 Q59.8346 780.297 59.8346 776.35 Q59.8346 771.608 56.8109 768.871 Q53.7872 766.102 48.5673 766.102 L28.3562 766.102 L28.3562 760.245 L64.0042 760.245 L64.0042 766.102 L58.5296 766.102 Q61.7762 768.234 63.3676 771.067 Q64.9272 773.868 64.9272 777.592 Q64.9272 783.735 61.1078 786.917 Q57.2883 790.1 49.9359 790.1 M27.4968 775.364 L27.4968 775.364 Z" fill="#000000" fill-rule="nonzero" fill-opacity="1" /><path clip-path="url(#clip700)" d="M33.7671 724.724 L14.479 724.724 L14.479 718.868 L64.0042 718.868 L64.0042 724.724 L58.657 724.724 Q61.8398 726.571 63.3994 729.403 Q64.9272 732.204 64.9272 736.151 Q64.9272 742.612 59.771 746.686 Q54.6147 750.728 46.212 750.728 Q37.8093 750.728 32.6531 746.686 Q27.4968 742.612 27.4968 736.151 Q27.4968 732.204 29.0564 729.403 Q30.5842 726.571 33.7671 724.724 M46.212 744.681 Q52.6732 744.681 56.3653 742.039 Q60.0256 739.366 60.0256 734.719 Q60.0256 730.072 56.3653 727.398 Q52.6732 724.724 46.212 724.724 Q39.7508 724.724 36.0905 727.398 Q32.3984 730.072 32.3984 734.719 Q32.3984 739.366 36.0905 742.039 Q39.7508 744.681 46.212 744.681 Z" fill="#000000" fill-rule="nonzero" fill-opacity="1" /><path clip-path="url(#clip700)" d="M44.7161 676.313 L47.5806 676.313 L47.5806 703.24 Q53.6281 702.858 56.8109 699.612 Q59.9619 696.333 59.9619 690.509 Q59.9619 687.135 59.1344 683.984 Q58.3069 680.801 56.6518 677.682 L62.1899 677.682 Q63.5267 680.833 64.227 684.143 Q64.9272 687.453 64.9272 690.859 Q64.9272 699.389 59.9619 704.386 Q54.9967 709.351 46.5303 709.351 Q37.7774 709.351 32.6531 704.641 Q27.4968 699.898 27.4968 691.877 Q27.4968 684.684 32.1438 680.515 Q36.7589 676.313 44.7161 676.313 M42.9973 682.17 Q38.1912 682.233 35.3266 684.875 Q32.4621 687.485 32.4621 691.814 Q32.4621 696.715 35.2312 699.675 Q38.0002 702.604 43.0292 703.049 L42.9973 682.17 Z" fill="#000000" fill-rule="nonzero" fill-opacity="1" /><path clip-path="url(#clip700)" d="M14.479 646.522 L14.479 633.026 L19.0304 633.026 L19.0304 640.665 L68.0464 640.665 L68.0464 633.026 L72.5979 633.026 L72.5979 646.522 L14.479 646.522 Z" fill="#000000" fill-rule="nonzero" fill-opacity="1" /><path clip-path="url(#clip700)" d="M35.1993 592.795 Q31.2526 590.599 29.3747 587.543 Q27.4968 584.488 27.4968 580.35 Q27.4968 574.78 31.4117 571.757 Q35.2948 568.733 42.4881 568.733 L64.0042 568.733 L64.0042 574.621 L42.679 574.621 Q37.5546 574.621 35.072 576.435 Q32.5894 578.25 32.5894 581.973 Q32.5894 586.525 35.6131 589.167 Q38.6368 591.809 43.8567 591.809 L64.0042 591.809 L64.0042 597.697 L42.679 597.697 Q37.5228 597.697 35.072 599.511 Q32.5894 601.325 32.5894 605.113 Q32.5894 609.601 35.6449 612.242 Q38.6686 614.884 43.8567 614.884 L64.0042 614.884 L64.0042 620.772 L28.3562 620.772 L28.3562 614.884 L33.8944 614.884 Q30.616 612.879 29.0564 610.078 Q27.4968 607.277 27.4968 603.426 Q27.4968 599.543 29.4702 596.837 Q31.4436 594.1 35.1993 592.795 Z" fill="#000000" fill-rule="nonzero" fill-opacity="1" /><path clip-path="url(#clip700)" d="M14.479 543.365 L72.5979 543.365 L72.5979 556.861 L68.0464 556.861 L68.0464 549.254 L19.0304 549.254 L19.0304 556.861 L14.479 556.861 L14.479 543.365 Z" fill="#000000" fill-rule="nonzero" fill-opacity="1" /><polyline clip-path="url(#clip702)" style="stroke:#000000; stroke-linecap:round; stroke-linejoin:round; stroke-width:8; stroke-opacity:1; fill:none" points="237.067,1384.24 239.121,1384.24 241.175,1384.24 243.229,1384.24 245.283,1384.23 247.338,1384.23 249.392,1384.23 251.446,1384.22 253.5,1384.22 255.554,1384.22 257.608,1384.21 259.662,1384.2 261.716,1384.2 263.77,1384.19 265.824,1384.18 267.878,1384.17 269.932,1384.17 271.986,1384.16 274.04,1384.15 276.094,1384.14 278.149,1384.13 280.203,1384.12 282.257,1384.1 284.311,1384.09 286.365,1384.08 288.419,1384.07 290.473,1384.05 292.527,1384.04 294.581,1384.03 296.635,1384.01 298.689,1384 300.743,1383.98 302.797,1383.97 304.851,1383.95 306.905,1383.93 308.96,1383.92 311.014,1383.9 313.068,1383.88 315.122,1383.86 317.176,1383.85 319.23,1383.83 321.284,1383.81 323.338,1383.79 325.392,1383.77 327.446,1383.75 329.5,1383.73 331.554,1383.7 333.608,1383.68 335.662,1383.66 337.716,1383.64 339.771,1383.62 341.825,1383.59 343.879,1383.57 345.933,1383.54 347.987,1383.52 350.041,1383.5 352.095,1383.47 354.149,1383.44 356.203,1383.42 358.257,1383.39 360.311,1383.37 362.365,1383.34 364.419,1383.31 366.473,1383.28 368.527,1383.26 370.582,1383.23 372.636,1383.2 374.69,1383.17 376.744,1383.14 378.798,1383.11 380.852,1383.08 382.906,1383.05 384.96,1383.02 387.014,1382.99 389.068,1382.96 391.122,1382.93 393.176,1382.89 395.23,1382.86 397.284,1382.83 399.338,1382.8 401.393,1382.76 403.447,1382.73 405.501,1382.69 407.555,1382.66 409.609,1382.63 411.663,1382.59 413.717,1382.56 415.771,1382.52 417.825,1382.48 419.879,1382.45 421.933,1382.41 423.987,1382.37 426.041,1382.34 428.095,1382.3 430.149,1382.26 432.204,1382.22 434.258,1382.18 436.312,1382.14 438.366,1382.1 440.42,1382.06 442.474,1382.02 444.528,1381.98 446.582,1381.94 448.636,1381.9 450.69,1381.86 452.744,1381.81 454.798,1381.77 456.852,1381.73 458.906,1381.69 460.96,1381.64 463.015,1381.6 465.069,1381.56 467.123,1381.51 469.177,1381.47 471.231,1381.42 473.285,1381.38 475.339,1381.33 477.393,1381.29 479.447,1381.24 481.501,1381.2 483.555,1381.15 485.609,1381.11 487.663,1381.06 489.717,1381.02 491.771,1380.97 493.826,1380.93 495.88,1380.88 497.934,1380.84 499.988,1380.79 502.042,1380.74 504.096,1380.7 506.15,1380.65 508.204,1380.61 510.258,1380.56 512.312,1380.51 514.366,1380.47 516.42,1380.42 518.474,1380.37 520.528,1380.33 522.582,1380.28 524.637,1380.23 526.691,1380.18 528.745,1380.14 530.799,1380.09 532.853,1380.04 534.907,1379.99 536.961,1379.94 539.015,1379.89 541.069,1379.84 543.123,1379.79 545.177,1379.74 547.231,1379.69 549.285,1379.63 551.339,1379.58 553.393,1379.53 555.448,1379.47 557.502,1379.41 559.556,1379.36 561.61,1379.3 563.664,1379.24 565.718,1379.17 567.772,1379.11 569.826,1379.04 571.88,1378.98 573.934,1378.91 575.988,1378.83 578.042,1378.76 580.096,1378.69 582.15,1378.61 584.204,1378.53 586.259,1378.44 588.313,1378.36 590.367,1378.27 592.421,1378.18 594.475,1378.08 596.529,1377.98 598.583,1377.88 600.637,1377.78 602.691,1377.67 604.745,1377.56 606.799,1377.44 608.853,1377.32 610.907,1377.19 612.961,1377.07 615.015,1376.93 617.07,1376.79 619.124,1376.65 621.178,1376.5 623.232,1376.35 625.286,1376.19 627.34,1376.02 629.394,1375.85 631.448,1375.68 633.502,1375.5 635.556,1375.31 637.61,1375.12 639.664,1374.91 641.718,1374.71 643.772,1374.49 645.826,1374.27 647.881,1374.05 649.935,1373.81 651.989,1373.57 654.043,1373.32 656.097,1373.06 658.151,1372.79 660.205,1372.52 662.259,1372.24 664.313,1371.95 666.367,1371.65 668.421,1371.34 670.475,1371.02 672.529,1370.7 674.583,1370.36 676.637,1370.02 678.692,1369.66 680.746,1369.3 682.8,1368.92 684.854,1368.54 686.908,1368.14 688.962,1367.73 691.016,1367.32 693.07,1366.89 695.124,1366.45 697.178,1366 699.232,1365.54 701.286,1365.06 703.34,1364.58 705.394,1364.08 707.448,1363.57 709.503,1363.05 711.557,1362.52 713.611,1361.97 715.665,1361.41 717.719,1360.83 719.773,1360.25 721.827,1359.65 723.881,1359.03 725.935,1358.41 727.989,1357.77 730.043,1357.11 732.097,1356.44 734.151,1355.76 736.205,1355.06 738.259,1354.34 740.314,1353.62 742.368,1352.87 744.422,1352.11 746.476,1351.34 748.53,1350.55 750.584,1349.74 752.638,1348.92 754.692,1348.08 756.746,1347.23 758.8,1346.36 760.854,1345.47 762.908,1344.56 764.962,1343.64 767.016,1342.7 769.07,1341.75 771.125,1340.77 773.179,1339.78 775.233,1338.78 777.287,1337.75 779.341,1336.7 781.395,1335.64 783.449,1334.56 785.503,1333.46 787.557,1332.34 789.611,1331.2 791.665,1330.05 793.719,1328.87 795.773,1327.68 797.827,1326.46 799.881,1325.23 801.936,1323.98 803.99,1322.7 806.044,1321.41 808.098,1320.1 810.152,1318.77 812.206,1317.41 814.26,1316.04 816.314,1314.64 818.368,1313.23 820.422,1311.79 822.476,1310.33 824.53,1308.86 826.584,1307.36 828.638,1305.84 830.692,1304.29 832.747,1302.73 834.801,1301.15 836.855,1299.54 838.909,1297.91 840.963,1296.26 843.017,1294.58 845.071,1292.89 847.125,1291.17 849.179,1289.43 851.233,1287.67 853.287,1285.88 855.341,1284.07 857.395,1282.24 859.449,1280.39 861.503,1278.51 863.558,1276.61 865.612,1274.69 867.666,1272.74 869.72,1270.77 871.774,1268.77 873.828,1266.75 875.882,1264.71 877.936,1262.64 879.99,1260.55 882.044,1258.44 884.098,1256.3 886.152,1254.13 888.206,1251.94 890.26,1249.73 892.314,1247.49 894.369,1245.22 896.423,1242.94 898.477,1240.62 900.531,1238.28 902.585,1235.91 904.639,1233.52 906.693,1231.11 908.747,1228.67 910.801,1226.2 912.855,1223.71 914.909,1221.19 916.963,1218.64 919.017,1216.08 921.071,1213.48 923.125,1210.86 925.18,1208.21 927.234,1205.54 929.288,1202.84 931.342,1200.12 933.396,1197.36 935.45,1194.59 937.504,1191.79 939.558,1188.96 941.612,1186.1 943.666,1183.22 945.72,1180.31 947.774,1177.38 949.828,1174.42 951.882,1171.44 953.936,1168.43 955.991,1165.39 958.045,1162.33 960.099,1159.24 962.153,1156.13 964.207,1152.99 966.261,1149.83 968.315,1146.64 970.369,1143.43 972.423,1140.19 974.477,1136.93 976.531,1133.65 978.585,1130.34 980.639,1127 982.693,1123.64 984.747,1120.26 986.802,1116.86 988.856,1113.43 990.91,1109.97 992.964,1106.5 995.018,1103 997.072,1099.48 999.126,1095.93 1001.18,1092.37 1003.23,1088.78 1005.29,1085.17 1007.34,1081.54 1009.4,1077.88 1011.45,1074.21 1013.5,1070.51 1015.56,1066.8 1017.61,1063.06 1019.67,1059.3 1021.72,1055.52 1023.77,1051.73 1025.83,1047.91 1027.88,1044.07 1029.94,1040.22 1031.99,1036.34 1034.05,1032.45 1036.1,1028.54 1038.15,1024.61 1040.21,1020.66 1042.26,1016.69 1044.32,1012.71 1046.37,1008.71 1048.42,1004.69 1050.48,1000.66 1052.53,996.61 1054.59,992.544 1056.64,988.462 1058.69,984.365 1060.75,980.252 1062.8,976.125 1064.86,971.982 1066.91,967.826 1068.96,963.655 1071.02,959.47 1073.07,955.272 1075.13,951.061 1077.18,946.837 1079.23,942.601 1081.29,938.352 1083.34,934.091 1085.4,929.818 1087.45,925.534 1089.5,921.239 1091.56,916.934 1093.61,912.617 1095.67,908.291 1097.72,903.955 1099.78,899.609 1101.83,895.254 1103.88,890.89 1105.94,886.518 1107.99,882.137 1110.05,877.748 1112.1,873.352 1114.15,868.948 1116.21,864.537 1118.26,860.12 1120.32,855.696 1122.37,851.265 1124.42,846.829 1126.48,842.388 1128.53,837.941 1130.59,833.489 1132.64,829.033 1134.69,824.572 1136.75,820.107 1138.8,815.639 1140.86,811.167 1142.91,806.692 1144.96,802.215 1147.02,797.734 1149.07,793.252 1151.13,788.768 1153.18,784.282 1155.24,779.795 1157.29,775.307 1159.34,770.818 1161.4,766.329 1163.45,761.84 1165.51,757.351 1167.56,752.863 1169.61,748.376 1171.67,743.89 1173.72,739.405 1175.78,734.922 1177.83,730.441 1179.88,725.962 1181.94,721.486 1183.99,717.013 1186.05,712.543 1188.1,708.077 1190.15,703.615 1192.21,699.156 1194.26,694.702 1196.32,690.253 1198.37,685.808 1200.42,681.369 1202.48,676.935 1204.53,672.507 1206.59,668.085 1208.64,663.669 1210.69,659.26 1212.75,654.858 1214.8,650.463 1216.86,646.075 1218.91,641.695 1220.97,637.323 1223.02,632.96 1225.07,628.604 1227.13,624.257 1229.18,619.92 1231.24,615.591 1233.29,611.272 1235.34,606.962 1237.4,602.663 1239.45,598.374 1241.51,594.095 1243.56,589.827 1245.61,585.57 1247.67,581.324 1249.72,577.089 1251.78,572.866 1253.83,568.655 1255.88,564.456 1257.94,560.269 1259.99,556.095 1262.05,551.933 1264.1,547.785 1266.15,543.65 1268.21,539.528 1270.26,535.42 1272.32,531.326 1274.37,527.245 1276.42,523.179 1278.48,519.128 1280.53,515.091 1282.59,511.07 1284.64,507.063 1286.7,503.072 1288.75,499.097 1290.8,495.137 1292.86,491.194 1294.91,487.267 1296.97,483.356 1299.02,479.463 1301.07,475.586 1303.13,471.726 1305.18,467.883 1307.24,464.058 1309.29,460.251 1311.34,456.461 1313.4,452.689 1315.45,448.936 1317.51,445.201 1319.56,441.484 1321.61,437.786 1323.67,434.107 1325.72,430.447 1327.78,426.806 1329.83,423.184 1331.88,419.582 1333.94,415.999 1335.99,412.436 1338.05,408.893 1340.1,405.37 1342.16,401.867 1344.21,398.385 1346.26,394.923 1348.32,391.482 1350.37,388.061 1352.43,384.661 1354.48,381.283 1356.53,377.925 1358.59,374.588 1360.64,371.273 1362.7,367.979 1364.75,364.707 1366.8,361.455 1368.86,358.226 1370.91,355.018 1372.97,351.831 1375.02,348.666 1377.07,345.523 1379.13,342.402 1381.18,339.302 1383.24,336.225 1385.29,333.169 1387.34,330.135 1389.4,327.123 1391.45,324.133 1393.51,321.166 1395.56,318.22 1397.61,315.296 1399.67,312.394 1401.72,309.515 1403.78,306.657 1405.83,303.821 1407.89,301.008 1409.94,298.216 1411.99,295.447 1414.05,292.7 1416.1,289.974 1418.16,287.271 1420.21,284.59 1422.26,281.93 1424.32,279.293 1426.37,276.677 1428.43,274.083 1430.48,271.511 1432.53,268.961 1434.59,266.432 1436.64,263.926 1438.7,261.44 1440.75,258.977 1442.8,256.535 1444.86,254.114 1446.91,251.715 1448.97,249.338 1451.02,246.981 1453.07,244.647 1455.13,242.333 1457.18,240.04 1459.24,237.769 1461.29,235.519 1463.35,233.289 1465.4,231.081 1467.45,228.893 1469.51,226.726 1471.56,224.58 1473.62,222.455 1475.67,220.35 1477.72,218.265 1479.78,216.201 1481.83,214.157 1483.89,212.133 1485.94,210.129 1487.99,208.145 1490.05,206.181 1492.1,204.237 1494.16,202.313 1496.21,200.408 1498.26,198.523 1500.32,196.657 1502.37,194.811 1504.43,192.984 1506.48,191.176 1508.53,189.387 1510.59,187.617 1512.64,185.866 1514.7,184.134 1516.75,182.42 1518.8,180.725 1520.86,179.048 1522.91,177.39 1524.97,175.75 1527.02,174.128 1529.08,172.524 1531.13,170.938 1533.18,169.37 1535.24,167.82 1537.29,166.287 1539.35,164.772 1541.4,163.274 1543.45,161.794 1545.51,160.331 1547.56,158.885 1549.62,157.456 1551.67,156.044 1553.72,154.649 1555.78,153.271 1557.83,151.909 1559.89,150.564 1561.94,149.235 1563.99,147.923 1566.05,146.627 1568.1,145.347 1570.16,144.083 1572.21,142.835 1574.26,141.602 1576.32,140.386 1578.37,139.185 1580.43,138 1582.48,136.83 1584.53,135.676 1586.59,134.537 1588.64,133.413 1590.7,132.304 1592.75,131.21 1594.81,130.132 1596.86,129.068 1598.91,128.019 1600.97,126.984 1603.02,125.964 1605.08,124.959 1607.13,123.968 1609.18,122.991 1611.24,122.029 1613.29,121.081 1615.35,120.147 1617.4,119.227 1619.45,118.321 1621.51,117.429 1623.56,116.551 1625.62,115.687 1627.67,114.836 1629.72,113.999 1631.78,113.176 1633.83,112.366 1635.89,111.569 1637.94,110.786 1639.99,110.016 1642.05,109.259 1644.1,108.515 1646.16,107.785 1648.21,107.068 1650.27,106.363 1652.32,105.672 1654.37,104.993 1656.43,104.327 1658.48,103.674 1660.54,103.034 1662.59,102.406 1664.64,101.791 1666.7,101.189 1668.75,100.599 1670.81,100.021 1672.86,99.4557 1674.91,98.9028 1676.97,98.3622 1679.02,97.8339 1681.08,97.3177 1683.13,96.8137 1685.18,96.3218 1687.24,95.842 1689.29,95.3742 1691.35,94.9184 1693.4,94.4746 1695.45,94.0427 1697.51,93.6226 1699.56,93.2144 1701.62,92.818 1703.67,92.4334 1705.72,92.0606 1707.78,91.6994 1709.83,91.3499 1711.89,91.0121 1713.94,90.6859 1716,90.3713 1718.05,90.0683 1720.1,89.7768 1722.16,89.4968 1724.21,89.2283 1726.27,88.9713 1728.32,88.7258 1730.37,88.4917 1732.43,88.269 1734.48,88.0578 1736.54,87.8579 1738.59,87.6693 1740.64,87.4921 1742.7,87.3262 1744.75,87.1717 1746.81,87.0284 1748.86,86.8964 1750.91,86.7757 1752.97,86.6662 1755.02,86.568 1757.08,86.481 1759.13,86.4053 1761.18,86.3407 1763.24,86.2874 1765.29,86.2452 1767.35,86.2142 1769.4,86.1944 1771.46,86.1857 1773.51,86.1881 1775.56,86.2018 1777.62,86.2265 1779.67,86.2624 1781.73,86.3094 1783.78,86.3675 1785.83,86.4367 1787.89,86.517 1789.94,86.6084 1792,86.7108 1794.05,86.8244 1796.1,86.9491 1798.16,87.0848 1800.21,87.2316 1802.27,87.3894 1804.32,87.5584 1806.37,87.7383 1808.43,87.9294 1810.48,88.1315 1812.54,88.3446 1814.59,88.5688 1816.64,88.8041 1818.7,89.0504 1820.75,89.3078 1822.81,89.5762 1824.86,89.8556 1826.91,90.1461 1828.97,90.4477 1831.02,90.7603 1833.08,91.084 1835.13,91.4187 1837.19,91.7645 1839.24,92.1213 1841.29,92.4891 1843.35,92.8681 1845.4,93.2581 1847.46,93.6591 1849.51,94.0712 1851.56,94.4944 1853.62,94.9287 1855.67,95.374 1857.73,95.8304 1859.78,96.2979 1861.83,96.7765 1863.89,97.2661 1865.94,97.7668 1868,98.2786 1870.05,98.8015 1872.1,99.3355 1874.16,99.8806 1876.21,100.437 1878.27,101.004 1880.32,101.582 1882.37,102.172 1884.43,102.773 1886.48,103.384 1888.54,104.007 1890.59,104.641 1892.64,105.286 1894.7,105.942 1896.75,106.609 1898.81,107.288 1900.86,107.977 1902.92,108.678 1904.97,109.389 1907.02,110.112 1909.08,110.846 1911.13,111.591 1913.19,112.347 1915.24,113.114 1917.29,113.893 1919.35,114.682 1921.4,115.483 1923.46,116.294 1925.51,117.117 1927.56,117.951 1929.62,118.796 1931.67,119.652 1933.73,120.519 1935.78,121.397 1937.83,122.287 1939.89,123.187 1941.94,124.099 1944,125.021 1946.05,125.955 1948.1,126.899 1950.16,127.855 1952.21,128.822 1954.27,129.8 1956.32,130.788 1958.38,131.788 1960.43,132.799 1962.48,133.821 1964.54,134.854 1966.59,135.898 1968.65,136.953 1970.7,138.019 1972.75,139.096 1974.81,140.184 1976.86,141.283 1978.92,142.393 1980.97,143.513 1983.02,144.645 1985.08,145.788 1987.13,146.942 1989.19,148.106 1991.24,149.282 1993.29,150.468 1995.35,151.665 1997.4,152.874 1999.46,154.093 2001.51,155.323 2003.56,156.564 2005.62,157.815 2007.67,159.078 2009.73,160.351 2011.78,161.635 2013.83,162.93 2015.89,164.236 2017.94,165.552 2020,166.879 2022.05,168.217 2024.11,169.566 2026.16,170.925 2028.21,172.296 2030.27,173.676 2032.32,175.068 2034.38,176.47 2036.43,177.883 2038.48,179.306 2040.54,180.74 2042.59,182.184 2044.65,183.64 2046.7,185.105 2048.75,186.581 2050.81,188.068 2052.86,189.565 2054.92,191.073 2056.97,192.591 2059.02,194.12 2061.08,195.659 2063.13,197.208 2065.19,198.768 2067.24,200.338 2069.29,201.918 2071.35,203.509 2073.4,205.11 2075.46,206.721 2077.51,208.343 2079.57,209.974 2081.62,211.616 2083.67,213.268 2085.73,214.931 2087.78,216.603 2089.84,218.286 2091.89,219.978 2093.94,221.681 2096,223.394 2098.05,225.117 2100.11,226.849 2102.16,228.592 2104.21,230.345 2106.27,232.107 2108.32,233.88 2110.38,235.662 2112.43,237.455 2114.48,239.257 2116.54,241.069 2118.59,242.89 2120.65,244.722 2122.7,246.563 2124.75,248.413 2126.81,250.274 2128.86,252.144 2130.92,254.024 2132.97,255.913 2135.02,257.812 2137.08,259.72 2139.13,261.638 2141.19,263.566 2143.24,265.503 2145.3,267.449 2147.35,269.405 2149.4,271.37 2151.46,273.344 2153.51,275.328 2155.57,277.321 2157.62,279.323 2159.67,281.334 2161.73,283.355 2163.78,285.385 2165.84,287.424 2167.89,289.472 2169.94,291.529 2172,293.595 2174.05,295.67 2176.11,297.754 2178.16,299.847 2180.21,301.949 2182.27,304.06 2184.32,306.18 2186.38,308.308 2188.43,310.446 2190.48,312.592 2192.54,314.746 2194.59,316.91 2196.65,319.082 2198.7,321.263 2200.75,323.452 2202.81,325.65 2204.86,327.857 2206.92,330.072 2208.97,332.295 2211.03,334.527 2213.08,336.767 2215.13,339.016 2217.19,341.273 2219.24,343.538 2221.3,345.811 2223.35,348.093 2225.4,350.383 2227.46,352.681 2229.51,354.988 2231.57,357.302 2233.62,359.624 2235.67,361.955 2237.73,364.293 2239.78,366.64 2241.84,368.994 2243.89,371.356 2245.94,373.726 2248,376.104 2250.05,378.49 2252.11,380.884 2254.16,383.285 2256.21,385.694 2258.27,388.11 2260.32,390.535 2262.38,392.966 2264.43,395.406 2266.49,397.853 2268.54,400.307 2270.59,402.769 2272.65,405.238 2274.7,407.715 2276.76,410.199 2278.81,412.69 2280.86,415.189 2282.92,417.695 2284.97,420.208 2287.03,422.728 2289.08,425.255 2291.13,427.79 "/>
</svg>
