<?xml version="1.0" encoding="utf-8"?>
<svg xmlns="http://www.w3.org/2000/svg" xmlns:xlink="http://www.w3.org/1999/xlink" width="600" height="400" viewBox="0 0 2400 1600">
<defs>
  <clipPath id="clip460">
    <rect x="0" y="0" width="2400" height="1600"/>
  </clipPath>
</defs>
<path clip-path="url(#clip460)" d="M0 1600 L2400 1600 L2400 0 L0 0  Z" fill="#ffffff" fill-rule="evenodd" fill-opacity="1"/>
<defs>
  <clipPath id="clip461">
    <rect x="480" y="0" width="1681" height="1600"/>
  </clipPath>
</defs>
<path clip-path="url(#clip460)" d="M316.301 1423.18 L2352.76 1423.18 L2352.76 47.2441 L316.301 47.2441  Z" fill="#ffffff" fill-rule="evenodd" fill-opacity="1"/>
<defs>
  <clipPath id="clip462">
    <rect x="316" y="47" width="2037" height="1377"/>
  </clipPath>
</defs>
<polyline clip-path="url(#clip462)" style="stroke:#000000; stroke-linecap:round; stroke-linejoin:round; stroke-width:2; stroke-opacity:0.1; fill:none" points="373.936,1423.18 373.936,47.2441 "/>
<polyline clip-path="url(#clip462)" style="stroke:#000000; stroke-linecap:round; stroke-linejoin:round; stroke-width:2; stroke-opacity:0.1; fill:none" points="854.232,1423.18 854.232,47.2441 "/>
<polyline clip-path="url(#clip462)" style="stroke:#000000; stroke-linecap:round; stroke-linejoin:round; stroke-width:2; stroke-opacity:0.1; fill:none" points="1334.53,1423.18 1334.53,47.2441 "/>
<polyline clip-path="url(#clip462)" style="stroke:#000000; stroke-linecap:round; stroke-linejoin:round; stroke-width:2; stroke-opacity:0.1; fill:none" points="1814.82,1423.18 1814.82,47.2441 "/>
<polyline clip-path="url(#clip462)" style="stroke:#000000; stroke-linecap:round; stroke-linejoin:round; stroke-width:2; stroke-opacity:0.1; fill:none" points="2295.12,1423.18 2295.12,47.2441 "/>
<polyline clip-path="url(#clip462)" style="stroke:#000000; stroke-linecap:round; stroke-linejoin:round; stroke-width:2; stroke-opacity:0.1; fill:none" points="316.301,1212.78 2352.76,1212.78 "/>
<polyline clip-path="url(#clip462)" style="stroke:#000000; stroke-linecap:round; stroke-linejoin:round; stroke-width:2; stroke-opacity:0.1; fill:none" points="316.301,973.994 2352.76,973.994 "/>
<polyline clip-path="url(#clip462)" style="stroke:#000000; stroke-linecap:round; stroke-linejoin:round; stroke-width:2; stroke-opacity:0.1; fill:none" points="316.301,735.212 2352.76,735.212 "/>
<polyline clip-path="url(#clip462)" style="stroke:#000000; stroke-linecap:round; stroke-linejoin:round; stroke-width:2; stroke-opacity:0.1; fill:none" points="316.301,496.43 2352.76,496.43 "/>
<polyline clip-path="url(#clip462)" style="stroke:#000000; stroke-linecap:round; stroke-linejoin:round; stroke-width:2; stroke-opacity:0.1; fill:none" points="316.301,257.648 2352.76,257.648 "/>
<polyline clip-path="url(#clip460)" style="stroke:#000000; stroke-linecap:round; stroke-linejoin:round; stroke-width:4; stroke-opacity:1; fill:none" points="316.301,1423.18 2352.76,1423.18 "/>
<polyline clip-path="url(#clip460)" style="stroke:#000000; stroke-linecap:round; stroke-linejoin:round; stroke-width:4; stroke-opacity:1; fill:none" points="373.936,1423.18 373.936,1404.28 "/>
<polyline clip-path="url(#clip460)" style="stroke:#000000; stroke-linecap:round; stroke-linejoin:round; stroke-width:4; stroke-opacity:1; fill:none" points="854.232,1423.18 854.232,1404.28 "/>
<polyline clip-path="url(#clip460)" style="stroke:#000000; stroke-linecap:round; stroke-linejoin:round; stroke-width:4; stroke-opacity:1; fill:none" points="1334.53,1423.18 1334.53,1404.28 "/>
<polyline clip-path="url(#clip460)" style="stroke:#000000; stroke-linecap:round; stroke-linejoin:round; stroke-width:4; stroke-opacity:1; fill:none" points="1814.82,1423.18 1814.82,1404.28 "/>
<polyline clip-path="url(#clip460)" style="stroke:#000000; stroke-linecap:round; stroke-linejoin:round; stroke-width:4; stroke-opacity:1; fill:none" points="2295.12,1423.18 2295.12,1404.28 "/>
<path clip-path="url(#clip460)" d="M336.24 1454.1 Q332.629 1454.1 330.8 1457.66 Q328.995 1461.2 328.995 1468.33 Q328.995 1475.44 330.8 1479.01 Q332.629 1482.55 336.24 1482.55 Q339.874 1482.55 341.68 1479.01 Q343.508 1475.44 343.508 1468.33 Q343.508 1461.2 341.68 1457.66 Q339.874 1454.1 336.24 1454.1 M336.24 1450.39 Q342.05 1450.39 345.106 1455 Q348.184 1459.58 348.184 1468.33 Q348.184 1477.06 345.106 1481.67 Q342.05 1486.25 336.24 1486.25 Q330.43 1486.25 327.351 1481.67 Q324.296 1477.06 324.296 1468.33 Q324.296 1459.58 327.351 1455 Q330.43 1450.39 336.24 1450.39 Z" fill="#000000" fill-rule="nonzero" fill-opacity="1" /><path clip-path="url(#clip460)" d="M356.402 1479.7 L361.286 1479.7 L361.286 1485.58 L356.402 1485.58 L356.402 1479.7 Z" fill="#000000" fill-rule="nonzero" fill-opacity="1" /><path clip-path="url(#clip460)" d="M381.471 1454.1 Q377.86 1454.1 376.031 1457.66 Q374.226 1461.2 374.226 1468.33 Q374.226 1475.44 376.031 1479.01 Q377.86 1482.55 381.471 1482.55 Q385.105 1482.55 386.911 1479.01 Q388.74 1475.44 388.74 1468.33 Q388.74 1461.2 386.911 1457.66 Q385.105 1454.1 381.471 1454.1 M381.471 1450.39 Q387.281 1450.39 390.337 1455 Q393.416 1459.58 393.416 1468.33 Q393.416 1477.06 390.337 1481.67 Q387.281 1486.25 381.471 1486.25 Q375.661 1486.25 372.582 1481.67 Q369.527 1477.06 369.527 1468.33 Q369.527 1459.58 372.582 1455 Q375.661 1450.39 381.471 1450.39 Z" fill="#000000" fill-rule="nonzero" fill-opacity="1" /><path clip-path="url(#clip460)" d="M411.633 1454.1 Q408.022 1454.1 406.193 1457.66 Q404.388 1461.2 404.388 1468.33 Q404.388 1475.44 406.193 1479.01 Q408.022 1482.55 411.633 1482.55 Q415.267 1482.55 417.073 1479.01 Q418.901 1475.44 418.901 1468.33 Q418.901 1461.2 417.073 1457.66 Q415.267 1454.1 411.633 1454.1 M411.633 1450.39 Q417.443 1450.39 420.499 1455 Q423.577 1459.58 423.577 1468.33 Q423.577 1477.06 420.499 1481.67 Q417.443 1486.25 411.633 1486.25 Q405.823 1486.25 402.744 1481.67 Q399.689 1477.06 399.689 1468.33 Q399.689 1459.58 402.744 1455 Q405.823 1450.39 411.633 1450.39 Z" fill="#000000" fill-rule="nonzero" fill-opacity="1" /><path clip-path="url(#clip460)" d="M817.034 1454.1 Q813.422 1454.1 811.594 1457.66 Q809.788 1461.2 809.788 1468.33 Q809.788 1475.44 811.594 1479.01 Q813.422 1482.55 817.034 1482.55 Q820.668 1482.55 822.473 1479.01 Q824.302 1475.44 824.302 1468.33 Q824.302 1461.2 822.473 1457.66 Q820.668 1454.1 817.034 1454.1 M817.034 1450.39 Q822.844 1450.39 825.899 1455 Q828.978 1459.58 828.978 1468.33 Q828.978 1477.06 825.899 1481.67 Q822.844 1486.25 817.034 1486.25 Q811.223 1486.25 808.145 1481.67 Q805.089 1477.06 805.089 1468.33 Q805.089 1459.58 808.145 1455 Q811.223 1450.39 817.034 1450.39 Z" fill="#000000" fill-rule="nonzero" fill-opacity="1" /><path clip-path="url(#clip460)" d="M837.195 1479.7 L842.08 1479.7 L842.08 1485.58 L837.195 1485.58 L837.195 1479.7 Z" fill="#000000" fill-rule="nonzero" fill-opacity="1" /><path clip-path="url(#clip460)" d="M856.293 1481.64 L872.612 1481.64 L872.612 1485.58 L850.668 1485.58 L850.668 1481.64 Q853.33 1478.89 857.913 1474.26 Q862.519 1469.61 863.7 1468.27 Q865.945 1465.74 866.825 1464.01 Q867.728 1462.25 867.728 1460.56 Q867.728 1457.8 865.783 1456.07 Q863.862 1454.33 860.76 1454.33 Q858.561 1454.33 856.107 1455.09 Q853.677 1455.86 850.899 1457.41 L850.899 1452.69 Q853.723 1451.55 856.177 1450.97 Q858.631 1450.39 860.668 1450.39 Q866.038 1450.39 869.232 1453.08 Q872.427 1455.77 872.427 1460.26 Q872.427 1462.39 871.617 1464.31 Q870.83 1466.2 868.723 1468.8 Q868.144 1469.47 865.043 1472.69 Q861.941 1475.88 856.293 1481.64 Z" fill="#000000" fill-rule="nonzero" fill-opacity="1" /><path clip-path="url(#clip460)" d="M882.473 1451.02 L900.829 1451.02 L900.829 1454.96 L886.755 1454.96 L886.755 1463.43 Q887.774 1463.08 888.792 1462.92 Q889.811 1462.73 890.829 1462.73 Q896.616 1462.73 899.996 1465.9 Q903.376 1469.08 903.376 1474.49 Q903.376 1480.07 899.903 1483.17 Q896.431 1486.25 890.112 1486.25 Q887.936 1486.25 885.667 1485.88 Q883.422 1485.51 881.015 1484.77 L881.015 1480.07 Q883.098 1481.2 885.32 1481.76 Q887.542 1482.32 890.019 1482.32 Q894.024 1482.32 896.362 1480.21 Q898.7 1478.1 898.7 1474.49 Q898.7 1470.88 896.362 1468.77 Q894.024 1466.67 890.019 1466.67 Q888.144 1466.67 886.269 1467.08 Q884.417 1467.5 882.473 1468.38 L882.473 1451.02 Z" fill="#000000" fill-rule="nonzero" fill-opacity="1" /><path clip-path="url(#clip460)" d="M1296.83 1454.1 Q1293.22 1454.1 1291.39 1457.66 Q1289.59 1461.2 1289.59 1468.33 Q1289.59 1475.44 1291.39 1479.01 Q1293.22 1482.55 1296.83 1482.55 Q1300.47 1482.55 1302.27 1479.01 Q1304.1 1475.44 1304.1 1468.33 Q1304.1 1461.2 1302.27 1457.66 Q1300.47 1454.1 1296.83 1454.1 M1296.83 1450.39 Q1302.64 1450.39 1305.7 1455 Q1308.78 1459.58 1308.78 1468.33 Q1308.78 1477.06 1305.7 1481.67 Q1302.64 1486.25 1296.83 1486.25 Q1291.02 1486.25 1287.94 1481.67 Q1284.89 1477.06 1284.89 1468.33 Q1284.89 1459.58 1287.94 1455 Q1291.02 1450.39 1296.83 1450.39 Z" fill="#000000" fill-rule="nonzero" fill-opacity="1" /><path clip-path="url(#clip460)" d="M1316.99 1479.7 L1321.88 1479.7 L1321.88 1485.58 L1316.99 1485.58 L1316.99 1479.7 Z" fill="#000000" fill-rule="nonzero" fill-opacity="1" /><path clip-path="url(#clip460)" d="M1332.11 1451.02 L1350.47 1451.02 L1350.47 1454.96 L1336.39 1454.96 L1336.39 1463.43 Q1337.41 1463.08 1338.43 1462.92 Q1339.45 1462.73 1340.47 1462.73 Q1346.25 1462.73 1349.63 1465.9 Q1353.01 1469.08 1353.01 1474.49 Q1353.01 1480.07 1349.54 1483.17 Q1346.07 1486.25 1339.75 1486.25 Q1337.57 1486.25 1335.3 1485.88 Q1333.06 1485.51 1330.65 1484.77 L1330.65 1480.07 Q1332.73 1481.2 1334.96 1481.76 Q1337.18 1482.32 1339.66 1482.32 Q1343.66 1482.32 1346 1480.21 Q1348.34 1478.1 1348.34 1474.49 Q1348.34 1470.88 1346 1468.77 Q1343.66 1466.67 1339.66 1466.67 Q1337.78 1466.67 1335.91 1467.08 Q1334.05 1467.5 1332.11 1468.38 L1332.11 1451.02 Z" fill="#000000" fill-rule="nonzero" fill-opacity="1" /><path clip-path="url(#clip460)" d="M1372.22 1454.1 Q1368.61 1454.1 1366.79 1457.66 Q1364.98 1461.2 1364.98 1468.33 Q1364.98 1475.44 1366.79 1479.01 Q1368.61 1482.55 1372.22 1482.55 Q1375.86 1482.55 1377.66 1479.01 Q1379.49 1475.44 1379.49 1468.33 Q1379.49 1461.2 1377.66 1457.66 Q1375.86 1454.1 1372.22 1454.1 M1372.22 1450.39 Q1378.04 1450.39 1381.09 1455 Q1384.17 1459.58 1384.17 1468.33 Q1384.17 1477.06 1381.09 1481.67 Q1378.04 1486.25 1372.22 1486.25 Q1366.41 1486.25 1363.34 1481.67 Q1360.28 1477.06 1360.28 1468.33 Q1360.28 1459.58 1363.34 1455 Q1366.41 1450.39 1372.22 1450.39 Z" fill="#000000" fill-rule="nonzero" fill-opacity="1" /><path clip-path="url(#clip460)" d="M1777.63 1454.1 Q1774.01 1454.1 1772.19 1457.66 Q1770.38 1461.2 1770.38 1468.33 Q1770.38 1475.44 1772.19 1479.01 Q1774.01 1482.55 1777.63 1482.55 Q1781.26 1482.55 1783.07 1479.01 Q1784.89 1475.44 1784.89 1468.33 Q1784.89 1461.2 1783.07 1457.66 Q1781.26 1454.1 1777.63 1454.1 M1777.63 1450.39 Q1783.44 1450.39 1786.49 1455 Q1789.57 1459.58 1789.57 1468.33 Q1789.57 1477.06 1786.49 1481.67 Q1783.44 1486.25 1777.63 1486.25 Q1771.82 1486.25 1768.74 1481.67 Q1765.68 1477.06 1765.68 1468.33 Q1765.68 1459.58 1768.74 1455 Q1771.82 1450.39 1777.63 1450.39 Z" fill="#000000" fill-rule="nonzero" fill-opacity="1" /><path clip-path="url(#clip460)" d="M1797.79 1479.7 L1802.67 1479.7 L1802.67 1485.58 L1797.79 1485.58 L1797.79 1479.7 Z" fill="#000000" fill-rule="nonzero" fill-opacity="1" /><path clip-path="url(#clip460)" d="M1811.68 1451.02 L1833.9 1451.02 L1833.9 1453.01 L1821.35 1485.58 L1816.47 1485.58 L1828.27 1454.96 L1811.68 1454.96 L1811.68 1451.02 Z" fill="#000000" fill-rule="nonzero" fill-opacity="1" /><path clip-path="url(#clip460)" d="M1843.06 1451.02 L1861.42 1451.02 L1861.42 1454.96 L1847.35 1454.96 L1847.35 1463.43 Q1848.37 1463.08 1849.38 1462.92 Q1850.4 1462.73 1851.42 1462.73 Q1857.21 1462.73 1860.59 1465.9 Q1863.97 1469.08 1863.97 1474.49 Q1863.97 1480.07 1860.5 1483.17 Q1857.02 1486.25 1850.7 1486.25 Q1848.53 1486.25 1846.26 1485.88 Q1844.01 1485.51 1841.61 1484.77 L1841.61 1480.07 Q1843.69 1481.2 1845.91 1481.76 Q1848.13 1482.32 1850.61 1482.32 Q1854.62 1482.32 1856.95 1480.21 Q1859.29 1478.1 1859.29 1474.49 Q1859.29 1470.88 1856.95 1468.77 Q1854.62 1466.67 1850.61 1466.67 Q1848.74 1466.67 1846.86 1467.08 Q1845.01 1467.5 1843.06 1468.38 L1843.06 1451.02 Z" fill="#000000" fill-rule="nonzero" fill-opacity="1" /><path clip-path="url(#clip460)" d="M2247.19 1481.64 L2254.83 1481.64 L2254.83 1455.28 L2246.52 1456.95 L2246.52 1452.69 L2254.78 1451.02 L2259.46 1451.02 L2259.46 1481.64 L2267.1 1481.64 L2267.1 1485.58 L2247.19 1485.58 L2247.19 1481.64 Z" fill="#000000" fill-rule="nonzero" fill-opacity="1" /><path clip-path="url(#clip460)" d="M2276.54 1479.7 L2281.43 1479.7 L2281.43 1485.58 L2276.54 1485.58 L2276.54 1479.7 Z" fill="#000000" fill-rule="nonzero" fill-opacity="1" /><path clip-path="url(#clip460)" d="M2301.61 1454.1 Q2298 1454.1 2296.17 1457.66 Q2294.37 1461.2 2294.37 1468.33 Q2294.37 1475.44 2296.17 1479.01 Q2298 1482.55 2301.61 1482.55 Q2305.25 1482.55 2307.05 1479.01 Q2308.88 1475.44 2308.88 1468.33 Q2308.88 1461.2 2307.05 1457.66 Q2305.25 1454.1 2301.61 1454.1 M2301.61 1450.39 Q2307.42 1450.39 2310.48 1455 Q2313.56 1459.58 2313.56 1468.33 Q2313.56 1477.06 2310.48 1481.67 Q2307.42 1486.25 2301.61 1486.25 Q2295.8 1486.25 2292.72 1481.67 Q2289.67 1477.06 2289.67 1468.33 Q2289.67 1459.58 2292.72 1455 Q2295.8 1450.39 2301.61 1450.39 Z" fill="#000000" fill-rule="nonzero" fill-opacity="1" /><path clip-path="url(#clip460)" d="M2331.78 1454.1 Q2328.16 1454.1 2326.34 1457.66 Q2324.53 1461.2 2324.53 1468.33 Q2324.53 1475.44 2326.34 1479.01 Q2328.16 1482.55 2331.78 1482.55 Q2335.41 1482.55 2337.22 1479.01 Q2339.04 1475.44 2339.04 1468.33 Q2339.04 1461.2 2337.22 1457.66 Q2335.41 1454.1 2331.78 1454.1 M2331.78 1450.39 Q2337.59 1450.39 2340.64 1455 Q2343.72 1459.58 2343.72 1468.33 Q2343.72 1477.06 2340.64 1481.67 Q2337.59 1486.25 2331.78 1486.25 Q2325.97 1486.25 2322.89 1481.67 Q2319.83 1477.06 2319.83 1468.33 Q2319.83 1459.58 2322.89 1455 Q2325.97 1450.39 2331.78 1450.39 Z" fill="#000000" fill-rule="nonzero" fill-opacity="1" /><path clip-path="url(#clip460)" d="M1307.59 1528.17 Q1307.59 1529.07 1307.17 1529.3 Q1306.75 1529.49 1305.6 1529.49 L1299.41 1529.49 L1294.52 1548.94 Q1294.13 1550.65 1294.13 1552.1 Q1294.13 1553.71 1294.61 1554.42 Q1295.13 1555.13 1296.19 1555.13 Q1298.28 1555.13 1300.54 1553.23 Q1302.83 1551.33 1304.76 1546.69 Q1305.02 1546.08 1305.14 1545.95 Q1305.31 1545.79 1305.72 1545.79 Q1306.53 1545.79 1306.53 1546.43 Q1306.53 1546.66 1306.08 1547.69 Q1305.66 1548.72 1304.73 1550.23 Q1303.82 1551.75 1302.63 1553.16 Q1301.47 1554.58 1299.7 1555.61 Q1297.93 1556.61 1296.03 1556.61 Q1293.36 1556.61 1291.65 1554.9 Q1289.98 1553.19 1289.98 1550.52 Q1289.98 1549.65 1290.65 1546.88 Q1291.33 1544.08 1295 1529.49 L1289.17 1529.49 Q1288.37 1529.49 1288.04 1529.46 Q1287.75 1529.43 1287.53 1529.27 Q1287.33 1529.07 1287.33 1528.69 Q1287.33 1528.07 1287.59 1527.82 Q1287.85 1527.53 1288.17 1527.49 Q1288.53 1527.43 1289.33 1527.43 L1295.51 1527.43 L1298.09 1516.96 Q1298.35 1515.93 1298.99 1515.35 Q1299.67 1514.74 1300.06 1514.68 Q1300.44 1514.58 1300.73 1514.58 Q1301.6 1514.58 1302.12 1515.06 Q1302.63 1515.51 1302.63 1516.35 Q1302.63 1516.8 1299.93 1527.43 L1305.72 1527.43 Q1306.46 1527.43 1306.75 1527.46 Q1307.08 1527.49 1307.33 1527.66 Q1307.59 1527.82 1307.59 1528.17 Z" fill="#000000" fill-rule="nonzero" fill-opacity="1" /><path clip-path="url(#clip460)" d="M1310.91 1571.42 Q1310.91 1571.1 1311.17 1570.39 L1334.45 1508.17 Q1334.45 1508.11 1334.61 1507.75 Q1334.77 1507.4 1334.87 1507.17 Q1334.97 1506.91 1335.16 1506.72 Q1335.38 1506.53 1335.64 1506.53 Q1336.29 1506.53 1336.29 1507.33 Q1336.29 1507.4 1336.09 1508.17 L1312.74 1570.46 Q1312.36 1571.58 1312.1 1571.91 Q1311.87 1572.23 1311.49 1572.23 Q1310.91 1572.23 1310.91 1571.42 Z" fill="#000000" fill-rule="nonzero" fill-opacity="1" /><path clip-path="url(#clip460)" d="M1388.43 1511.94 Q1388.43 1512.55 1388.31 1513.07 L1386.5 1524.53 Q1386.41 1525.4 1386.21 1525.72 Q1386.05 1526.05 1385.54 1526.05 Q1384.73 1526.05 1384.73 1525.21 Q1384.73 1524.72 1384.92 1523.95 Q1385.47 1520.31 1385.47 1518.67 Q1385.47 1517.58 1385.25 1516.77 Q1385.05 1515.93 1384.73 1515.35 Q1384.44 1514.77 1383.76 1514.39 Q1383.09 1514 1382.44 1513.77 Q1381.8 1513.55 1380.64 1513.45 Q1379.48 1513.32 1378.48 1513.29 Q1377.48 1513.26 1375.84 1513.26 Q1372.27 1513.26 1371.69 1513.39 Q1371.08 1513.55 1370.75 1514.03 Q1370.46 1514.48 1370.14 1515.84 L1361.38 1550.84 L1361.12 1552.23 Q1361.12 1553 1361.61 1553.26 Q1362.09 1553.52 1363.57 1553.68 Q1365.7 1553.84 1367.79 1553.84 Q1367.85 1553.84 1367.98 1553.84 Q1368.69 1553.84 1368.98 1553.87 Q1369.27 1553.87 1369.56 1553.94 Q1369.85 1554 1369.92 1554.16 Q1370.01 1554.29 1370.01 1554.55 Q1370.01 1555.16 1369.76 1555.48 Q1369.5 1555.77 1369.24 1555.84 Q1369.01 1555.87 1368.56 1555.87 Q1367.66 1555.87 1365.73 1555.8 Q1363.8 1555.74 1362.83 1555.74 L1357.36 1555.67 L1351.75 1555.74 Q1350.88 1555.74 1349.05 1555.8 Q1347.21 1555.87 1346.34 1555.87 Q1345.21 1555.87 1345.21 1555.06 Q1345.21 1554.16 1345.63 1554 Q1346.08 1553.84 1347.98 1553.84 Q1350.66 1553.84 1352.11 1553.71 Q1353.56 1553.58 1354.33 1553.13 Q1355.13 1552.68 1355.36 1552.23 Q1355.58 1551.75 1355.84 1550.65 L1364.7 1515.45 Q1364.96 1514.68 1364.96 1514.06 Q1364.96 1513.74 1364.86 1513.61 Q1364.8 1513.48 1364.38 1513.39 Q1363.96 1513.26 1363.09 1513.26 L1360.51 1513.26 Q1357.87 1513.26 1356.23 1513.39 Q1354.62 1513.48 1353.07 1513.97 Q1351.56 1514.45 1350.66 1515.13 Q1349.79 1515.8 1348.82 1517.19 Q1347.86 1518.57 1347.15 1520.25 Q1346.47 1521.92 1345.5 1524.66 Q1345.18 1525.56 1344.99 1525.82 Q1344.83 1526.05 1344.38 1526.05 Q1344.05 1526.05 1343.8 1525.85 Q1343.57 1525.63 1343.57 1525.34 Q1343.89 1524.27 1343.96 1524.15 L1347.92 1512.52 Q1348.24 1511.58 1348.53 1511.42 Q1348.85 1511.23 1350.05 1511.23 L1386.63 1511.23 Q1387.21 1511.23 1387.4 1511.23 Q1387.6 1511.23 1387.92 1511.29 Q1388.24 1511.36 1388.34 1511.52 Q1388.43 1511.68 1388.43 1511.94 Z" fill="#000000" fill-rule="nonzero" fill-opacity="1" /><polyline clip-path="url(#clip460)" style="stroke:#000000; stroke-linecap:round; stroke-linejoin:round; stroke-width:4; stroke-opacity:1; fill:none" points="316.301,1423.18 316.301,47.2441 "/>
<polyline clip-path="url(#clip460)" style="stroke:#000000; stroke-linecap:round; stroke-linejoin:round; stroke-width:4; stroke-opacity:1; fill:none" points="316.301,1212.78 335.199,1212.78 "/>
<polyline clip-path="url(#clip460)" style="stroke:#000000; stroke-linecap:round; stroke-linejoin:round; stroke-width:4; stroke-opacity:1; fill:none" points="316.301,973.994 335.199,973.994 "/>
<polyline clip-path="url(#clip460)" style="stroke:#000000; stroke-linecap:round; stroke-linejoin:round; stroke-width:4; stroke-opacity:1; fill:none" points="316.301,735.212 335.199,735.212 "/>
<polyline clip-path="url(#clip460)" style="stroke:#000000; stroke-linecap:round; stroke-linejoin:round; stroke-width:4; stroke-opacity:1; fill:none" points="316.301,496.43 335.199,496.43 "/>
<polyline clip-path="url(#clip460)" style="stroke:#000000; stroke-linecap:round; stroke-linejoin:round; stroke-width:4; stroke-opacity:1; fill:none" points="316.301,257.648 335.199,257.648 "/>
<path clip-path="url(#clip460)" d="M114.631 1213.23 L144.306 1213.23 L144.306 1217.16 L114.631 1217.16 L114.631 1213.23 Z" fill="#000000" fill-rule="nonzero" fill-opacity="1" /><path clip-path="url(#clip460)" d="M164.399 1198.57 Q160.788 1198.57 158.959 1202.14 Q157.153 1205.68 157.153 1212.81 Q157.153 1219.92 158.959 1223.48 Q160.788 1227.02 164.399 1227.02 Q168.033 1227.02 169.839 1223.48 Q171.667 1219.92 171.667 1212.81 Q171.667 1205.68 169.839 1202.14 Q168.033 1198.57 164.399 1198.57 M164.399 1194.87 Q170.209 1194.87 173.264 1199.48 Q176.343 1204.06 176.343 1212.81 Q176.343 1221.54 173.264 1226.14 Q170.209 1230.73 164.399 1230.73 Q158.589 1230.73 155.51 1226.14 Q152.454 1221.54 152.454 1212.81 Q152.454 1204.06 155.51 1199.48 Q158.589 1194.87 164.399 1194.87 Z" fill="#000000" fill-rule="nonzero" fill-opacity="1" /><path clip-path="url(#clip460)" d="M184.561 1224.18 L189.445 1224.18 L189.445 1230.06 L184.561 1230.06 L184.561 1224.18 Z" fill="#000000" fill-rule="nonzero" fill-opacity="1" /><path clip-path="url(#clip460)" d="M209.63 1198.57 Q206.019 1198.57 204.19 1202.14 Q202.385 1205.68 202.385 1212.81 Q202.385 1219.92 204.19 1223.48 Q206.019 1227.02 209.63 1227.02 Q213.264 1227.02 215.07 1223.48 Q216.898 1219.92 216.898 1212.81 Q216.898 1205.68 215.07 1202.14 Q213.264 1198.57 209.63 1198.57 M209.63 1194.87 Q215.44 1194.87 218.496 1199.48 Q221.574 1204.06 221.574 1212.81 Q221.574 1221.54 218.496 1226.14 Q215.44 1230.73 209.63 1230.73 Q203.82 1230.73 200.741 1226.14 Q197.686 1221.54 197.686 1212.81 Q197.686 1204.06 200.741 1199.48 Q203.82 1194.87 209.63 1194.87 Z" fill="#000000" fill-rule="nonzero" fill-opacity="1" /><path clip-path="url(#clip460)" d="M239.792 1198.57 Q236.181 1198.57 234.352 1202.14 Q232.547 1205.68 232.547 1212.81 Q232.547 1219.92 234.352 1223.48 Q236.181 1227.02 239.792 1227.02 Q243.426 1227.02 245.232 1223.48 Q247.06 1219.92 247.06 1212.81 Q247.06 1205.68 245.232 1202.14 Q243.426 1198.57 239.792 1198.57 M239.792 1194.87 Q245.602 1194.87 248.658 1199.48 Q251.736 1204.06 251.736 1212.81 Q251.736 1221.54 248.658 1226.14 Q245.602 1230.73 239.792 1230.73 Q233.982 1230.73 230.903 1226.14 Q227.848 1221.54 227.848 1212.81 Q227.848 1204.06 230.903 1199.48 Q233.982 1194.87 239.792 1194.87 Z" fill="#000000" fill-rule="nonzero" fill-opacity="1" /><path clip-path="url(#clip460)" d="M263.982 1226.12 L280.301 1226.12 L280.301 1230.06 L258.357 1230.06 L258.357 1226.12 Q261.019 1223.37 265.602 1218.74 Q270.208 1214.08 271.389 1212.74 Q273.634 1210.22 274.514 1208.48 Q275.417 1206.72 275.417 1205.03 Q275.417 1202.28 273.472 1200.54 Q271.551 1198.81 268.449 1198.81 Q266.25 1198.81 263.796 1199.57 Q261.366 1200.33 258.588 1201.88 L258.588 1197.16 Q261.412 1196.03 263.866 1195.45 Q266.32 1194.87 268.357 1194.87 Q273.727 1194.87 276.921 1197.56 Q280.116 1200.24 280.116 1204.73 Q280.116 1206.86 279.306 1208.78 Q278.519 1210.68 276.412 1213.27 Q275.833 1213.94 272.732 1217.16 Q269.63 1220.36 263.982 1226.12 Z" fill="#000000" fill-rule="nonzero" fill-opacity="1" /><path clip-path="url(#clip460)" d="M114.26 974.445 L143.936 974.445 L143.936 978.38 L114.26 978.38 L114.26 974.445 Z" fill="#000000" fill-rule="nonzero" fill-opacity="1" /><path clip-path="url(#clip460)" d="M164.028 959.793 Q160.417 959.793 158.589 963.357 Q156.783 966.899 156.783 974.029 Q156.783 981.135 158.589 984.7 Q160.417 988.242 164.028 988.242 Q167.663 988.242 169.468 984.7 Q171.297 981.135 171.297 974.029 Q171.297 966.899 169.468 963.357 Q167.663 959.793 164.028 959.793 M164.028 956.089 Q169.839 956.089 172.894 960.695 Q175.973 965.279 175.973 974.029 Q175.973 982.755 172.894 987.362 Q169.839 991.945 164.028 991.945 Q158.218 991.945 155.14 987.362 Q152.084 982.755 152.084 974.029 Q152.084 965.279 155.14 960.695 Q158.218 956.089 164.028 956.089 Z" fill="#000000" fill-rule="nonzero" fill-opacity="1" /><path clip-path="url(#clip460)" d="M184.19 985.394 L189.075 985.394 L189.075 991.274 L184.19 991.274 L184.19 985.394 Z" fill="#000000" fill-rule="nonzero" fill-opacity="1" /><path clip-path="url(#clip460)" d="M209.26 959.793 Q205.649 959.793 203.82 963.357 Q202.014 966.899 202.014 974.029 Q202.014 981.135 203.82 984.7 Q205.649 988.242 209.26 988.242 Q212.894 988.242 214.699 984.7 Q216.528 981.135 216.528 974.029 Q216.528 966.899 214.699 963.357 Q212.894 959.793 209.26 959.793 M209.26 956.089 Q215.07 956.089 218.125 960.695 Q221.204 965.279 221.204 974.029 Q221.204 982.755 218.125 987.362 Q215.07 991.945 209.26 991.945 Q203.449 991.945 200.371 987.362 Q197.315 982.755 197.315 974.029 Q197.315 965.279 200.371 960.695 Q203.449 956.089 209.26 956.089 Z" fill="#000000" fill-rule="nonzero" fill-opacity="1" /><path clip-path="url(#clip460)" d="M239.422 959.793 Q235.81 959.793 233.982 963.357 Q232.176 966.899 232.176 974.029 Q232.176 981.135 233.982 984.7 Q235.81 988.242 239.422 988.242 Q243.056 988.242 244.861 984.7 Q246.69 981.135 246.69 974.029 Q246.69 966.899 244.861 963.357 Q243.056 959.793 239.422 959.793 M239.422 956.089 Q245.232 956.089 248.287 960.695 Q251.366 965.279 251.366 974.029 Q251.366 982.755 248.287 987.362 Q245.232 991.945 239.422 991.945 Q233.611 991.945 230.533 987.362 Q227.477 982.755 227.477 974.029 Q227.477 965.279 230.533 960.695 Q233.611 956.089 239.422 956.089 Z" fill="#000000" fill-rule="nonzero" fill-opacity="1" /><path clip-path="url(#clip460)" d="M260.394 987.339 L268.032 987.339 L268.032 960.973 L259.722 962.64 L259.722 958.381 L267.986 956.714 L272.662 956.714 L272.662 987.339 L280.301 987.339 L280.301 991.274 L260.394 991.274 L260.394 987.339 Z" fill="#000000" fill-rule="nonzero" fill-opacity="1" /><path clip-path="url(#clip460)" d="M162.802 721.011 Q159.19 721.011 157.362 724.575 Q155.556 728.117 155.556 735.247 Q155.556 742.353 157.362 745.918 Q159.19 749.46 162.802 749.46 Q166.436 749.46 168.241 745.918 Q170.07 742.353 170.07 735.247 Q170.07 728.117 168.241 724.575 Q166.436 721.011 162.802 721.011 M162.802 717.307 Q168.612 717.307 171.667 721.913 Q174.746 726.497 174.746 735.247 Q174.746 743.973 171.667 748.58 Q168.612 753.163 162.802 753.163 Q156.991 753.163 153.913 748.58 Q150.857 743.973 150.857 735.247 Q150.857 726.497 153.913 721.913 Q156.991 717.307 162.802 717.307 Z" fill="#000000" fill-rule="nonzero" fill-opacity="1" /><path clip-path="url(#clip460)" d="M182.963 746.612 L187.848 746.612 L187.848 752.492 L182.963 752.492 L182.963 746.612 Z" fill="#000000" fill-rule="nonzero" fill-opacity="1" /><path clip-path="url(#clip460)" d="M208.033 721.011 Q204.422 721.011 202.593 724.575 Q200.787 728.117 200.787 735.247 Q200.787 742.353 202.593 745.918 Q204.422 749.46 208.033 749.46 Q211.667 749.46 213.473 745.918 Q215.301 742.353 215.301 735.247 Q215.301 728.117 213.473 724.575 Q211.667 721.011 208.033 721.011 M208.033 717.307 Q213.843 717.307 216.898 721.913 Q219.977 726.497 219.977 735.247 Q219.977 743.973 216.898 748.58 Q213.843 753.163 208.033 753.163 Q202.223 753.163 199.144 748.58 Q196.088 743.973 196.088 735.247 Q196.088 726.497 199.144 721.913 Q202.223 717.307 208.033 717.307 Z" fill="#000000" fill-rule="nonzero" fill-opacity="1" /><path clip-path="url(#clip460)" d="M238.195 721.011 Q234.584 721.011 232.755 724.575 Q230.949 728.117 230.949 735.247 Q230.949 742.353 232.755 745.918 Q234.584 749.46 238.195 749.46 Q241.829 749.46 243.634 745.918 Q245.463 742.353 245.463 735.247 Q245.463 728.117 243.634 724.575 Q241.829 721.011 238.195 721.011 M238.195 717.307 Q244.005 717.307 247.06 721.913 Q250.139 726.497 250.139 735.247 Q250.139 743.973 247.06 748.58 Q244.005 753.163 238.195 753.163 Q232.385 753.163 229.306 748.58 Q226.25 743.973 226.25 735.247 Q226.25 726.497 229.306 721.913 Q232.385 717.307 238.195 717.307 Z" fill="#000000" fill-rule="nonzero" fill-opacity="1" /><path clip-path="url(#clip460)" d="M268.357 721.011 Q264.745 721.011 262.917 724.575 Q261.111 728.117 261.111 735.247 Q261.111 742.353 262.917 745.918 Q264.745 749.46 268.357 749.46 Q271.991 749.46 273.796 745.918 Q275.625 742.353 275.625 735.247 Q275.625 728.117 273.796 724.575 Q271.991 721.011 268.357 721.011 M268.357 717.307 Q274.167 717.307 277.222 721.913 Q280.301 726.497 280.301 735.247 Q280.301 743.973 277.222 748.58 Q274.167 753.163 268.357 753.163 Q262.546 753.163 259.468 748.58 Q256.412 743.973 256.412 735.247 Q256.412 726.497 259.468 721.913 Q262.546 717.307 268.357 717.307 Z" fill="#000000" fill-rule="nonzero" fill-opacity="1" /><path clip-path="url(#clip460)" d="M164.028 482.229 Q160.417 482.229 158.589 485.794 Q156.783 489.335 156.783 496.465 Q156.783 503.571 158.589 507.136 Q160.417 510.678 164.028 510.678 Q167.663 510.678 169.468 507.136 Q171.297 503.571 171.297 496.465 Q171.297 489.335 169.468 485.794 Q167.663 482.229 164.028 482.229 M164.028 478.525 Q169.839 478.525 172.894 483.132 Q175.973 487.715 175.973 496.465 Q175.973 505.192 172.894 509.798 Q169.839 514.381 164.028 514.381 Q158.218 514.381 155.14 509.798 Q152.084 505.192 152.084 496.465 Q152.084 487.715 155.14 483.132 Q158.218 478.525 164.028 478.525 Z" fill="#000000" fill-rule="nonzero" fill-opacity="1" /><path clip-path="url(#clip460)" d="M184.19 507.83 L189.075 507.83 L189.075 513.71 L184.19 513.71 L184.19 507.83 Z" fill="#000000" fill-rule="nonzero" fill-opacity="1" /><path clip-path="url(#clip460)" d="M209.26 482.229 Q205.649 482.229 203.82 485.794 Q202.014 489.335 202.014 496.465 Q202.014 503.571 203.82 507.136 Q205.649 510.678 209.26 510.678 Q212.894 510.678 214.699 507.136 Q216.528 503.571 216.528 496.465 Q216.528 489.335 214.699 485.794 Q212.894 482.229 209.26 482.229 M209.26 478.525 Q215.07 478.525 218.125 483.132 Q221.204 487.715 221.204 496.465 Q221.204 505.192 218.125 509.798 Q215.07 514.381 209.26 514.381 Q203.449 514.381 200.371 509.798 Q197.315 505.192 197.315 496.465 Q197.315 487.715 200.371 483.132 Q203.449 478.525 209.26 478.525 Z" fill="#000000" fill-rule="nonzero" fill-opacity="1" /><path clip-path="url(#clip460)" d="M239.422 482.229 Q235.81 482.229 233.982 485.794 Q232.176 489.335 232.176 496.465 Q232.176 503.571 233.982 507.136 Q235.81 510.678 239.422 510.678 Q243.056 510.678 244.861 507.136 Q246.69 503.571 246.69 496.465 Q246.69 489.335 244.861 485.794 Q243.056 482.229 239.422 482.229 M239.422 478.525 Q245.232 478.525 248.287 483.132 Q251.366 487.715 251.366 496.465 Q251.366 505.192 248.287 509.798 Q245.232 514.381 239.422 514.381 Q233.611 514.381 230.533 509.798 Q227.477 505.192 227.477 496.465 Q227.477 487.715 230.533 483.132 Q233.611 478.525 239.422 478.525 Z" fill="#000000" fill-rule="nonzero" fill-opacity="1" /><path clip-path="url(#clip460)" d="M260.394 509.775 L268.032 509.775 L268.032 483.409 L259.722 485.076 L259.722 480.817 L267.986 479.15 L272.662 479.15 L272.662 509.775 L280.301 509.775 L280.301 513.71 L260.394 513.71 L260.394 509.775 Z" fill="#000000" fill-rule="nonzero" fill-opacity="1" /><path clip-path="url(#clip460)" d="M164.399 243.447 Q160.788 243.447 158.959 247.012 Q157.153 250.553 157.153 257.683 Q157.153 264.789 158.959 268.354 Q160.788 271.896 164.399 271.896 Q168.033 271.896 169.839 268.354 Q171.667 264.789 171.667 257.683 Q171.667 250.553 169.839 247.012 Q168.033 243.447 164.399 243.447 M164.399 239.743 Q170.209 239.743 173.264 244.35 Q176.343 248.933 176.343 257.683 Q176.343 266.41 173.264 271.016 Q170.209 275.599 164.399 275.599 Q158.589 275.599 155.51 271.016 Q152.454 266.41 152.454 257.683 Q152.454 248.933 155.51 244.35 Q158.589 239.743 164.399 239.743 Z" fill="#000000" fill-rule="nonzero" fill-opacity="1" /><path clip-path="url(#clip460)" d="M184.561 269.049 L189.445 269.049 L189.445 274.928 L184.561 274.928 L184.561 269.049 Z" fill="#000000" fill-rule="nonzero" fill-opacity="1" /><path clip-path="url(#clip460)" d="M209.63 243.447 Q206.019 243.447 204.19 247.012 Q202.385 250.553 202.385 257.683 Q202.385 264.789 204.19 268.354 Q206.019 271.896 209.63 271.896 Q213.264 271.896 215.07 268.354 Q216.898 264.789 216.898 257.683 Q216.898 250.553 215.07 247.012 Q213.264 243.447 209.63 243.447 M209.63 239.743 Q215.44 239.743 218.496 244.35 Q221.574 248.933 221.574 257.683 Q221.574 266.41 218.496 271.016 Q215.44 275.599 209.63 275.599 Q203.82 275.599 200.741 271.016 Q197.686 266.41 197.686 257.683 Q197.686 248.933 200.741 244.35 Q203.82 239.743 209.63 239.743 Z" fill="#000000" fill-rule="nonzero" fill-opacity="1" /><path clip-path="url(#clip460)" d="M239.792 243.447 Q236.181 243.447 234.352 247.012 Q232.547 250.553 232.547 257.683 Q232.547 264.789 234.352 268.354 Q236.181 271.896 239.792 271.896 Q243.426 271.896 245.232 268.354 Q247.06 264.789 247.06 257.683 Q247.06 250.553 245.232 247.012 Q243.426 243.447 239.792 243.447 M239.792 239.743 Q245.602 239.743 248.658 244.35 Q251.736 248.933 251.736 257.683 Q251.736 266.41 248.658 271.016 Q245.602 275.599 239.792 275.599 Q233.982 275.599 230.903 271.016 Q227.848 266.41 227.848 257.683 Q227.848 248.933 230.903 244.35 Q233.982 239.743 239.792 239.743 Z" fill="#000000" fill-rule="nonzero" fill-opacity="1" /><path clip-path="url(#clip460)" d="M263.982 270.993 L280.301 270.993 L280.301 274.928 L258.357 274.928 L258.357 270.993 Q261.019 268.238 265.602 263.609 Q270.208 258.956 271.389 257.613 Q273.634 255.09 274.514 253.354 Q275.417 251.595 275.417 249.905 Q275.417 247.15 273.472 245.414 Q271.551 243.678 268.449 243.678 Q266.25 243.678 263.796 244.442 Q261.366 245.206 258.588 246.757 L258.588 242.035 Q261.412 240.901 263.866 240.322 Q266.32 239.743 268.357 239.743 Q273.727 239.743 276.921 242.428 Q280.116 245.113 280.116 249.604 Q280.116 251.734 279.306 253.655 Q278.519 255.553 276.412 258.146 Q275.833 258.817 272.732 262.035 Q269.63 265.229 263.982 270.993 Z" fill="#000000" fill-rule="nonzero" fill-opacity="1" /><path clip-path="url(#clip460)" d="M33.1053 944.116 Q38.5159 944.116 44.6028 945.855 Q50.6575 947.562 55.5528 950.267 Q60.4159 952.972 63.6364 956.515 Q66.8248 960.057 66.8248 963.439 Q66.8248 965.597 65.6332 967.207 Q64.4094 968.785 62.3804 969.655 Q60.3192 970.524 58.0648 970.943 Q55.7782 971.362 53.2984 971.362 Q49.5947 971.362 45.569 970.557 Q41.511 969.751 37.8396 968.399 Q34.1359 967.046 30.7865 965.146 Q27.4049 963.246 24.9572 961.152 Q22.4774 959.027 21.0281 956.644 Q19.5788 954.26 19.5788 952.038 Q19.5788 950.428 20.2874 949.14 Q20.9637 947.819 22.1553 946.982 Q23.3147 946.145 24.6996 945.565 Q26.0844 944.953 27.6947 944.663 Q29.2728 944.373 30.5932 944.244 Q31.8815 944.116 33.1053 944.116 M29.0151 948.463 Q27.3726 948.463 26.1488 948.592 Q24.8928 948.721 23.6368 949.075 Q22.3807 949.43 21.7044 950.202 Q21.0281 950.943 21.0281 952.103 Q21.0281 955.484 27.9524 959.285 Q30.1101 960.508 33.0409 961.603 Q35.9716 962.698 37.3565 963.085 Q38.7413 963.471 42.1551 964.373 L42.1551 950.589 Q33.3629 948.463 29.0151 948.463 M44.2485 951.169 L44.2485 964.888 Q52.3 967.014 57.3241 967.014 Q61.7041 967.014 63.5398 966.112 Q65.3434 965.178 65.3434 963.439 Q65.3434 961.442 63.3466 959.574 Q61.3176 957.706 57.6462 955.806 Q52.8797 953.294 44.2485 951.169 Z" fill="#000000" fill-rule="nonzero" fill-opacity="1" /><path clip-path="url(#clip460)" d="M81.6395 940.739 Q81.3175 940.739 80.6089 940.482 L18.3872 917.197 Q18.3228 917.197 17.9685 917.036 Q17.6143 916.875 17.3888 916.778 Q17.1312 916.681 16.938 916.488 Q16.7447 916.263 16.7447 916.005 Q16.7447 915.361 17.5499 915.361 Q17.6143 915.361 18.3872 915.554 L80.6734 938.903 Q81.8006 939.29 82.1226 939.548 Q82.4447 939.773 82.4447 940.159 Q82.4447 940.739 81.6395 940.739 Z" fill="#000000" fill-rule="nonzero" fill-opacity="1" /><path clip-path="url(#clip460)" d="M49.5947 908.075 Q38.4515 908.075 29.466 903.921 Q25.6979 902.149 22.5418 899.669 Q19.3856 897.19 18.0007 895.547 Q16.6159 893.905 16.6159 893.454 Q16.6159 892.81 17.26 892.777 Q17.5821 892.777 18.3872 893.647 Q29.2084 904.275 49.5947 904.243 Q70.0454 904.243 80.4479 893.905 Q81.5751 892.777 81.9294 892.777 Q82.5735 892.777 82.5735 893.454 Q82.5735 893.905 81.2531 895.483 Q79.9326 897.061 76.9053 899.508 Q73.8779 901.956 70.1742 903.727 Q61.1888 908.075 49.5947 908.075 Z" fill="#000000" fill-rule="nonzero" fill-opacity="1" /><path clip-path="url(#clip460)" d="M66.0841 886.444 Q64.8925 886.444 64.5382 886.347 Q64.1839 886.218 63.6364 885.703 L49.5303 873.046 Q41.7365 866.122 34.941 866.122 Q30.5288 866.122 27.3726 868.441 Q24.2165 870.727 24.2165 874.946 Q24.2165 877.845 25.9878 880.292 Q27.7591 882.74 30.9153 883.867 Q30.8509 883.674 30.8509 882.998 Q30.8509 881.355 31.8815 880.453 Q32.9121 879.519 34.2969 879.519 Q36.0682 879.519 36.9378 880.679 Q37.7751 881.806 37.7751 882.933 Q37.7751 883.384 37.6785 883.996 Q37.5819 884.576 36.6801 885.51 Q35.7462 886.444 34.1037 886.444 Q29.4982 886.444 25.8268 882.965 Q22.1553 879.455 22.1553 874.109 Q22.1553 868.054 25.7624 864.093 Q29.3372 860.099 34.941 860.099 Q36.9056 860.099 38.7091 860.711 Q40.4804 861.291 41.8653 862.096 Q43.2501 862.869 45.4723 864.995 Q47.6945 867.12 49.2726 868.827 Q50.8507 870.534 54.2001 874.366 L60.9956 881.355 L60.9956 869.471 Q60.9956 863.674 60.4803 863.223 Q59.5463 862.579 54.6188 861.774 L54.6188 860.099 L66.0841 861.967 L66.0841 886.444 Z" fill="#000000" fill-rule="nonzero" fill-opacity="1" /><path clip-path="url(#clip460)" d="M39.2244 819.216 Q41.4788 819.216 41.4788 822.437 L41.4788 829.973 Q46.825 831.132 51.9779 831.132 Q58.1292 831.132 62.8635 829.232 Q63.7975 828.845 64.3128 828.845 Q65.2789 828.845 66.0519 829.715 Q66.8248 830.552 66.8248 831.551 Q66.8248 832.388 66.1807 832.936 Q65.5366 833.451 63.5076 833.902 Q61.1244 834.449 58.4835 834.449 Q55.3273 834.449 52.3 833.934 Q49.2404 833.419 41.4788 831.68 L41.4788 839.119 L56.0681 842.823 Q60.9956 844.143 62.5092 844.594 Q63.411 844.884 63.7009 844.981 Q63.9907 845.077 64.6992 845.367 Q65.3756 845.625 65.6332 845.818 Q65.8587 846.011 66.2129 846.333 Q66.5994 846.655 66.696 847.042 Q66.8248 847.428 66.8248 847.911 Q66.8248 848.652 66.3417 849.232 Q65.8909 849.812 65.0213 849.812 Q64.4416 849.812 63.4432 849.296 Q50.2388 843.177 41.4788 840.858 L41.4788 844.594 Q41.4788 849.747 46.5673 852.968 Q47.2437 853.483 47.3081 853.773 Q47.3403 853.902 47.3403 854.03 Q47.3403 854.385 47.1793 854.61 Q47.0182 854.803 46.8572 854.803 L46.6962 854.836 Q46.5029 854.836 45.6334 854.353 Q44.7316 853.837 43.3468 852.871 Q41.9619 851.873 40.7703 850.81 Q39.6753 849.779 38.999 848.781 Q38.2904 847.75 38.0328 846.784 Q37.7751 845.818 37.7107 845.27 Q37.6463 844.723 37.6463 843.95 L37.6463 821.857 Q37.6463 821.019 37.7107 820.569 Q37.7429 820.118 38.1294 819.667 Q38.4837 819.216 39.2244 819.216 Z" fill="#000000" fill-rule="nonzero" fill-opacity="1" /><path clip-path="url(#clip460)" d="M81.9294 813.122 Q81.6073 813.122 80.8022 812.285 Q69.981 801.657 49.5947 801.657 Q29.144 801.657 18.8059 811.866 Q17.6143 813.122 17.26 813.122 Q16.6159 813.122 16.6159 812.478 Q16.6159 812.027 17.9363 810.449 Q19.2568 808.839 22.2841 806.423 Q25.3115 803.976 29.0151 802.172 Q38.0006 797.824 49.5947 797.824 Q60.7379 797.824 69.7234 801.979 Q73.4914 803.75 76.6476 806.23 Q79.8038 808.71 81.1886 810.352 Q82.5735 811.995 82.5735 812.478 Q82.5735 813.122 81.9294 813.122 Z" fill="#000000" fill-rule="nonzero" fill-opacity="1" /><path clip-path="url(#clip460)" d="M48.1646 744.731 Q48.1646 751.828 49.7879 754.566 Q51.4111 757.303 55.3261 757.303 Q58.4452 757.303 60.2913 755.266 Q62.1055 753.197 62.1055 749.664 Q62.1055 744.794 58.668 741.866 Q55.1987 738.906 49.4696 738.906 L48.1646 738.906 L48.1646 744.731 M45.7457 733.05 L66.0841 733.05 L66.0841 738.906 L60.6732 738.906 Q63.9198 740.911 65.4794 743.903 Q67.0071 746.895 67.0071 751.224 Q67.0071 756.698 63.9516 759.945 Q60.8642 763.159 55.708 763.159 Q49.6924 763.159 46.6369 759.149 Q43.5813 755.107 43.5813 747.118 L43.5813 738.906 L43.0084 738.906 Q38.9662 738.906 36.77 741.58 Q34.542 744.221 34.542 749.028 Q34.542 752.083 35.2741 754.979 Q36.0061 757.876 37.4702 760.549 L32.0594 760.549 Q30.8181 757.335 30.2133 754.311 Q29.5768 751.287 29.5768 748.423 Q29.5768 740.688 33.5872 736.869 Q37.5976 733.05 45.7457 733.05 Z" fill="#000000" fill-rule="nonzero" fill-opacity="1" /><path clip-path="url(#clip460)" d="M20.3147 715.194 L30.4361 715.194 L30.4361 703.131 L34.9876 703.131 L34.9876 715.194 L54.3394 715.194 Q58.6999 715.194 59.9412 714.016 Q61.1825 712.807 61.1825 709.146 L61.1825 703.131 L66.0841 703.131 L66.0841 709.146 Q66.0841 715.926 63.5696 718.504 Q61.0234 721.082 54.3394 721.082 L34.9876 721.082 L34.9876 725.379 L30.4361 725.379 L30.4361 721.082 L20.3147 721.082 L20.3147 715.194 Z" fill="#000000" fill-rule="nonzero" fill-opacity="1" /><path clip-path="url(#clip460)" d="M37.202 648.001 Q39.0055 648.001 40.0361 649.128 Q41.0345 650.255 41.0345 651.543 Q41.0345 652.767 40.326 653.411 Q39.6174 654.056 38.7157 654.056 Q37.4918 654.056 36.429 653.154 Q35.3663 652.252 35.1408 650.899 Q34.3035 652.22 34.3035 654.184 Q34.3035 655.473 34.9798 656.6 Q35.6561 657.695 36.5257 658.371 Q37.3952 659.015 38.6513 659.595 Q39.8751 660.142 40.6158 660.368 Q41.3243 660.561 42.0973 660.722 L51.1149 662.977 Q55.3983 664.072 56.912 664.072 Q58.7799 664.072 60.0359 663.17 Q61.2598 662.268 61.2598 660.464 Q61.2598 659.756 61.0665 658.951 Q60.8411 658.146 60.2614 657.115 Q59.6495 656.052 58.7477 655.118 Q57.8137 654.152 56.2357 653.218 Q54.6576 652.284 52.6286 651.672 Q51.9201 651.479 51.9201 650.835 Q51.9201 650.03 52.5642 650.03 Q53.1117 650.03 54.2711 650.481 Q55.3983 650.899 56.8798 651.833 Q58.329 652.735 59.6495 653.927 Q60.9377 655.118 61.8395 656.89 Q62.7412 658.661 62.7412 660.593 Q62.7412 663.363 61.2598 665.199 Q59.7783 667.034 57.7171 667.711 Q58.007 667.872 58.3934 668.097 Q58.7799 668.323 59.6495 668.999 Q60.4868 669.643 61.1309 670.384 Q61.7429 671.125 62.2259 672.284 Q62.7412 673.411 62.7412 674.635 Q62.7412 676.181 62.2904 677.566 Q61.8395 678.918 60.8089 679.885 Q59.7783 680.851 58.3612 680.851 Q56.7832 680.851 55.6882 679.788 Q54.5609 678.693 54.5609 677.212 Q54.5609 676.278 55.1084 675.537 Q55.6559 674.764 56.8476 674.764 Q58.168 674.764 59.1664 675.666 Q60.1648 676.567 60.4224 677.856 Q61.2598 676.535 61.2598 674.571 Q61.2598 672.445 59.3918 670.77 Q57.5239 669.096 54.3999 668.291 Q46.896 666.294 43.5465 665.521 Q40.1649 664.748 38.7157 664.748 Q37.363 664.748 36.429 665.102 Q35.4951 665.456 35.0764 666.068 Q34.6255 666.648 34.4645 667.196 Q34.3035 667.711 34.3035 668.291 Q34.3035 669.257 34.6899 670.352 Q35.0764 671.414 35.9782 672.703 Q36.8477 673.959 38.6513 675.15 Q40.4548 676.342 42.9346 677.147 Q43.6754 677.308 43.6754 678.017 Q43.6432 678.79 42.999 678.79 Q42.4515 678.79 41.3243 678.371 Q40.1649 677.92 38.7157 677.018 Q37.2664 676.084 35.9782 674.893 Q34.6577 673.669 33.756 671.898 Q32.8542 670.094 32.8542 668.162 Q32.8542 667.292 33.0474 666.455 Q33.2085 665.585 33.6915 664.555 Q34.1746 663.492 35.2374 662.558 Q36.3002 661.624 37.8461 661.044 Q37.1054 660.658 36.3968 660.142 Q35.6883 659.595 34.8188 658.758 Q33.917 657.888 33.4017 656.696 Q32.8542 655.473 32.8542 654.12 Q32.8542 652.8 33.2085 651.511 Q33.5305 650.223 34.5933 649.128 Q35.6239 648.001 37.202 648.001 Z" fill="#000000" fill-rule="nonzero" fill-opacity="1" /><path clip-path="url(#clip460)" d="M54.6574 641.28 L53.2146 641.28 Q53.2146 635.734 50.2613 632.871 Q50.2613 632.082 50.4416 631.946 Q50.622 631.811 51.4561 631.811 L77.3593 631.811 Q78.7345 631.811 79.1628 631.135 Q79.5912 630.458 79.5912 627.505 L79.5912 626.04 L81.0114 626.04 Q80.8762 627.663 80.8762 633.524 Q80.8762 639.386 81.0114 640.986 L79.5912 640.986 L79.5912 639.521 Q79.5912 636.613 79.1854 635.914 Q78.757 635.215 77.3593 635.215 L53.44 635.215 Q54.6574 637.627 54.6574 641.28 Z" fill="#000000" fill-rule="nonzero" fill-opacity="1" /><path clip-path="url(#clip460)" d="M51.9845 600.843 Q51.1793 600.779 51.1793 599.523 L51.1793 559.104 Q51.1793 557.204 51.9201 557.172 Q52.7252 557.172 52.693 558.976 L52.693 599.072 Q52.7252 600.843 51.9845 600.843 M39.1021 600.843 Q38.297 600.843 38.3292 599.458 L38.3292 559.169 Q38.3292 557.204 39.1021 557.172 Q39.8429 557.172 39.8429 558.847 L39.8429 599.523 Q39.8429 600.843 39.1021 600.843 Z" fill="#000000" fill-rule="nonzero" fill-opacity="1" /><path clip-path="url(#clip460)" d="M40.9057 531.726 Q31.2117 531.726 25.9299 529.279 Q18.0717 525.865 18.0717 517.813 Q18.0717 516.106 18.5548 514.335 Q19.0057 512.532 20.777 510.277 Q22.5483 507.991 25.4468 506.606 Q31.0507 503.965 40.9057 503.965 Q50.5352 503.965 55.7848 506.412 Q63.4498 509.987 63.4498 517.878 Q63.4498 520.841 61.9361 523.868 Q60.4224 526.863 56.7832 528.763 Q51.3404 531.726 40.9057 531.726 M40.1005 526.251 Q50.0521 526.251 54.0134 525.543 Q58.2968 524.738 60.1648 522.548 Q62.0005 520.325 62.0005 517.878 Q62.0005 515.237 60.0359 513.047 Q58.0392 510.825 53.7558 510.148 Q49.5368 509.408 40.1005 509.44 Q30.9218 509.44 27.2504 510.084 Q22.967 510.953 21.2601 513.272 Q19.521 515.559 19.521 517.878 Q19.521 518.747 19.7786 519.681 Q20.0363 520.583 20.777 521.903 Q21.5177 523.224 23.3535 524.255 Q25.1892 525.253 27.9589 525.736 Q31.5338 526.251 40.1005 526.251 Z" fill="#000000" fill-rule="nonzero" fill-opacity="1" /><polyline clip-path="url(#clip462)" style="stroke:#000000; stroke-linecap:round; stroke-linejoin:round; stroke-width:8; stroke-opacity:1; fill:none" points="373.936,973.432 393.148,1010.87 412.36,1047.26 431.572,1082.41 450.784,1116.19 469.996,1148.46 489.207,1179.09 508.419,1207.95 527.631,1234.93 546.843,1259.93 566.055,1282.85 585.267,1303.6 604.479,1322.1 623.69,1338.27 642.902,1352.07 662.114,1363.44 681.326,1372.34 700.538,1378.73 719.75,1382.6 738.961,1383.94 758.173,1382.73 777.385,1378.99 796.597,1372.74 815.809,1364 835.021,1352.79 854.232,1339.16 873.444,1323.16 892.656,1304.85 911.868,1284.29 931.08,1261.57 950.292,1236.76 969.503,1209.98 988.715,1181.3 1007.93,1150.84 1027.14,1118.72 1046.35,1085.06 1065.56,1049.98 1084.77,1013.63 1103.99,976.153 1123.2,937.703 1142.41,898.429 1161.62,858.49 1180.83,818.05 1200.05,777.266 1219.26,736.304 1238.47,695.334 1257.68,654.523 1276.89,614.036 1296.1,574.046 1315.32,534.718 1334.53,496.206 1353.74,458.659 1372.95,422.234 1392.16,387.076 1411.38,353.321 1430.59,321.103 1449.8,290.554 1469.01,261.787 1488.22,234.914 1507.43,210.043 1526.65,187.261 1545.86,166.647 1565.07,148.283 1584.28,132.245 1603.49,118.581 1622.71,107.336 1641.92,98.5541 1661.13,92.2679 1680.34,88.4899 1699.55,87.2294 1718.77,88.4941 1737.98,92.2809 1757.19,98.574 1776.4,107.35 1795.61,118.576 1814.82,132.209 1834.04,148.206 1853.25,166.507 1872.46,187.04 1891.67,209.729 1910.88,234.501 1930.1,261.266 1949.31,289.909 1968.52,320.316 1987.73,352.378 2006.94,385.974 2026.15,420.96 2045.37,457.2 2064.58,494.562 2083.79,532.892 2103,572.036 2122.21,611.843 2141.43,652.153 2160.64,692.796 2179.85,733.614 2199.06,774.454 2218.27,815.157 2237.48,855.554 2256.7,895.484 2275.91,934.8 2295.12,973.336 "/>
<circle clip-path="url(#clip462)" cx="373.936" cy="973.994" r="18" fill="#0000ff" fill-rule="evenodd" fill-opacity="1" stroke="none"/>
<circle clip-path="url(#clip462)" cx="469.996" cy="1149.21" r="18" fill="#0000ff" fill-rule="evenodd" fill-opacity="1" stroke="none"/>
<circle clip-path="url(#clip462)" cx="566.055" cy="1283.91" r="18" fill="#0000ff" fill-rule="evenodd" fill-opacity="1" stroke="none"/>
<circle clip-path="url(#clip462)" cx="662.114" cy="1364.89" r="18" fill="#0000ff" fill-rule="evenodd" fill-opacity="1" stroke="none"/>
<circle clip-path="url(#clip462)" cx="758.173" cy="1384.24" r="18" fill="#0000ff" fill-rule="evenodd" fill-opacity="1" stroke="none"/>
<circle clip-path="url(#clip462)" cx="854.232" cy="1340.05" r="18" fill="#0000ff" fill-rule="evenodd" fill-opacity="1" stroke="none"/>
<circle clip-path="url(#clip462)" cx="950.292" cy="1236.66" r="18" fill="#0000ff" fill-rule="evenodd" fill-opacity="1" stroke="none"/>
<circle clip-path="url(#clip462)" cx="1046.35" cy="1084.19" r="18" fill="#0000ff" fill-rule="evenodd" fill-opacity="1" stroke="none"/>
<circle clip-path="url(#clip462)" cx="1142.41" cy="897.55" r="18" fill="#0000ff" fill-rule="evenodd" fill-opacity="1" stroke="none"/>
<circle clip-path="url(#clip462)" cx="1238.47" cy="695.023" r="18" fill="#0000ff" fill-rule="evenodd" fill-opacity="1" stroke="none"/>
<circle clip-path="url(#clip462)" cx="1334.53" cy="496.43" r="18" fill="#0000ff" fill-rule="evenodd" fill-opacity="1" stroke="none"/>
<circle clip-path="url(#clip462)" cx="1430.59" cy="321.211" r="18" fill="#0000ff" fill-rule="evenodd" fill-opacity="1" stroke="none"/>
<circle clip-path="url(#clip462)" cx="1526.65" cy="186.516" r="18" fill="#0000ff" fill-rule="evenodd" fill-opacity="1" stroke="none"/>
<circle clip-path="url(#clip462)" cx="1622.71" cy="105.532" r="18" fill="#0000ff" fill-rule="evenodd" fill-opacity="1" stroke="none"/>
<circle clip-path="url(#clip462)" cx="1718.77" cy="86.1857" r="18" fill="#0000ff" fill-rule="evenodd" fill-opacity="1" stroke="none"/>
<circle clip-path="url(#clip462)" cx="1814.82" cy="130.37" r="18" fill="#0000ff" fill-rule="evenodd" fill-opacity="1" stroke="none"/>
<circle clip-path="url(#clip462)" cx="1910.88" cy="233.761" r="18" fill="#0000ff" fill-rule="evenodd" fill-opacity="1" stroke="none"/>
<circle clip-path="url(#clip462)" cx="2006.94" cy="386.237" r="18" fill="#0000ff" fill-rule="evenodd" fill-opacity="1" stroke="none"/>
<circle clip-path="url(#clip462)" cx="2103" cy="572.874" r="18" fill="#0000ff" fill-rule="evenodd" fill-opacity="1" stroke="none"/>
<circle clip-path="url(#clip462)" cx="2199.06" cy="775.401" r="18" fill="#0000ff" fill-rule="evenodd" fill-opacity="1" stroke="none"/>
<circle clip-path="url(#clip462)" cx="2295.12" cy="973.994" r="18" fill="#0000ff" fill-rule="evenodd" fill-opacity="1" stroke="none"/>
<path clip-path="url(#clip460)" d="M384.183 248.629 L854.98 248.629 L854.98 93.1086 L384.183 93.1086  Z" fill="#ffffff" fill-rule="evenodd" fill-opacity="1"/>
<polyline clip-path="url(#clip460)" style="stroke:#000000; stroke-linecap:round; stroke-linejoin:round; stroke-width:4; stroke-opacity:1; fill:none" points="384.183,248.629 854.98,248.629 854.98,93.1086 384.183,93.1086 384.183,248.629 "/>
<polyline clip-path="url(#clip460)" style="stroke:#000000; stroke-linecap:round; stroke-linejoin:round; stroke-width:8; stroke-opacity:1; fill:none" points="406.81,144.949 542.574,144.949 "/>
<path clip-path="url(#clip460)" d="M581.034 132.275 L574.692 149.474 L587.4 149.474 L581.034 132.275 M578.395 127.669 L583.696 127.669 L596.867 162.229 L592.006 162.229 L588.858 153.363 L573.28 153.363 L570.132 162.229 L565.201 162.229 L578.395 127.669 Z" fill="#000000" fill-rule="nonzero" fill-opacity="1" /><path clip-path="url(#clip460)" d="M623.071 148.201 L623.071 150.284 L603.488 150.284 Q603.766 154.682 606.127 156.997 Q608.511 159.289 612.747 159.289 Q615.201 159.289 617.492 158.687 Q619.807 158.085 622.076 156.881 L622.076 160.909 Q619.784 161.881 617.377 162.391 Q614.969 162.9 612.492 162.9 Q606.289 162.9 602.654 159.289 Q599.043 155.678 599.043 149.52 Q599.043 143.155 602.469 139.428 Q605.918 135.678 611.752 135.678 Q616.983 135.678 620.016 139.057 Q623.071 142.414 623.071 148.201 M618.812 146.951 Q618.766 143.456 616.844 141.372 Q614.946 139.289 611.798 139.289 Q608.233 139.289 606.08 141.303 Q603.951 143.317 603.627 146.974 L618.812 146.951 Z" fill="#000000" fill-rule="nonzero" fill-opacity="1" /><path clip-path="url(#clip460)" d="M645.085 140.284 Q644.367 139.868 643.511 139.682 Q642.677 139.474 641.659 139.474 Q638.048 139.474 636.103 141.835 Q634.182 144.173 634.182 148.571 L634.182 162.229 L629.9 162.229 L629.9 136.303 L634.182 136.303 L634.182 140.331 Q635.525 137.969 637.677 136.835 Q639.83 135.678 642.909 135.678 Q643.349 135.678 643.881 135.747 Q644.414 135.794 645.062 135.909 L645.085 140.284 Z" fill="#000000" fill-rule="nonzero" fill-opacity="1" /><path clip-path="url(#clip460)" d="M658.557 139.289 Q655.131 139.289 653.14 141.974 Q651.15 144.636 651.15 149.289 Q651.15 153.942 653.117 156.627 Q655.108 159.289 658.557 159.289 Q661.96 159.289 663.95 156.604 Q665.941 153.918 665.941 149.289 Q665.941 144.682 663.95 141.997 Q661.96 139.289 658.557 139.289 M658.557 135.678 Q664.112 135.678 667.284 139.289 Q670.455 142.9 670.455 149.289 Q670.455 155.655 667.284 159.289 Q664.112 162.9 658.557 162.9 Q652.978 162.9 649.807 159.289 Q646.659 155.655 646.659 149.289 Q646.659 142.9 649.807 139.289 Q652.978 135.678 658.557 135.678 Z" fill="#000000" fill-rule="nonzero" fill-opacity="1" /><path clip-path="url(#clip460)" d="M682.376 145.724 L682.376 158.386 L689.876 158.386 Q693.649 158.386 695.455 156.835 Q697.284 155.261 697.284 152.043 Q697.284 148.803 695.455 147.275 Q693.649 145.724 689.876 145.724 L682.376 145.724 M682.376 131.511 L682.376 141.928 L689.298 141.928 Q692.723 141.928 694.39 140.655 Q696.08 139.358 696.08 136.719 Q696.08 134.104 694.39 132.807 Q692.723 131.511 689.298 131.511 L682.376 131.511 M677.7 127.669 L689.645 127.669 Q694.992 127.669 697.885 129.891 Q700.779 132.113 700.779 136.21 Q700.779 139.382 699.297 141.257 Q697.816 143.131 694.946 143.594 Q698.395 144.335 700.293 146.696 Q702.214 149.034 702.214 152.553 Q702.214 157.182 699.066 159.705 Q695.918 162.229 690.108 162.229 L677.7 162.229 L677.7 127.669 Z" fill="#000000" fill-rule="nonzero" fill-opacity="1" /><path clip-path="url(#clip460)" d="M732.214 148.201 L732.214 150.284 L712.631 150.284 Q712.909 154.682 715.27 156.997 Q717.654 159.289 721.89 159.289 Q724.344 159.289 726.635 158.687 Q728.95 158.085 731.219 156.881 L731.219 160.909 Q728.927 161.881 726.52 162.391 Q724.112 162.9 721.635 162.9 Q715.432 162.9 711.797 159.289 Q708.186 155.678 708.186 149.52 Q708.186 143.155 711.612 139.428 Q715.061 135.678 720.895 135.678 Q726.126 135.678 729.158 139.057 Q732.214 142.414 732.214 148.201 M727.955 146.951 Q727.908 143.456 725.987 141.372 Q724.089 139.289 720.941 139.289 Q717.376 139.289 715.223 141.303 Q713.094 143.317 712.77 146.974 L727.955 146.951 Z" fill="#000000" fill-rule="nonzero" fill-opacity="1" /><path clip-path="url(#clip460)" d="M750.987 149.196 Q745.825 149.196 743.834 150.377 Q741.844 151.557 741.844 154.405 Q741.844 156.673 743.325 158.016 Q744.83 159.335 747.399 159.335 Q750.941 159.335 753.07 156.835 Q755.223 154.312 755.223 150.145 L755.223 149.196 L750.987 149.196 M759.482 147.437 L759.482 162.229 L755.223 162.229 L755.223 158.293 Q753.765 160.655 751.589 161.789 Q749.413 162.9 746.265 162.9 Q742.283 162.9 739.922 160.678 Q737.584 158.432 737.584 154.682 Q737.584 150.307 740.501 148.085 Q743.441 145.863 749.251 145.863 L755.223 145.863 L755.223 145.446 Q755.223 142.507 753.279 140.909 Q751.357 139.289 747.862 139.289 Q745.64 139.289 743.533 139.821 Q741.427 140.354 739.482 141.419 L739.482 137.483 Q741.82 136.581 744.019 136.141 Q746.219 135.678 748.302 135.678 Q753.927 135.678 756.705 138.594 Q759.482 141.511 759.482 147.437 Z" fill="#000000" fill-rule="nonzero" fill-opacity="1" /><path clip-path="url(#clip460)" d="M788.441 141.28 Q790.038 138.409 792.26 137.044 Q794.482 135.678 797.491 135.678 Q801.542 135.678 803.741 138.525 Q805.94 141.349 805.94 146.581 L805.94 162.229 L801.658 162.229 L801.658 146.719 Q801.658 142.993 800.339 141.187 Q799.019 139.382 796.311 139.382 Q793.001 139.382 791.079 141.581 Q789.158 143.78 789.158 147.576 L789.158 162.229 L784.876 162.229 L784.876 146.719 Q784.876 142.969 783.556 141.187 Q782.237 139.382 779.482 139.382 Q776.218 139.382 774.297 141.604 Q772.376 143.803 772.376 147.576 L772.376 162.229 L768.093 162.229 L768.093 136.303 L772.376 136.303 L772.376 140.331 Q773.834 137.946 775.871 136.812 Q777.908 135.678 780.709 135.678 Q783.533 135.678 785.501 137.113 Q787.491 138.548 788.441 141.28 Z" fill="#000000" fill-rule="nonzero" fill-opacity="1" /><path clip-path="url(#clip460)" d="M830.963 137.067 L830.963 141.094 Q829.158 140.169 827.213 139.706 Q825.269 139.243 823.186 139.243 Q820.014 139.243 818.417 140.215 Q816.843 141.187 816.843 143.131 Q816.843 144.613 817.977 145.469 Q819.112 146.303 822.538 147.067 L823.996 147.391 Q828.533 148.363 830.431 150.145 Q832.352 151.905 832.352 155.076 Q832.352 158.687 829.482 160.793 Q826.635 162.9 821.635 162.9 Q819.551 162.9 817.283 162.483 Q815.038 162.09 812.538 161.28 L812.538 156.881 Q814.899 158.108 817.19 158.733 Q819.482 159.335 821.727 159.335 Q824.737 159.335 826.357 158.317 Q827.977 157.275 827.977 155.4 Q827.977 153.664 826.797 152.738 Q825.639 151.812 821.681 150.956 L820.2 150.608 Q816.241 149.775 814.482 148.062 Q812.723 146.326 812.723 143.317 Q812.723 139.659 815.315 137.669 Q817.908 135.678 822.676 135.678 Q825.038 135.678 827.121 136.025 Q829.204 136.372 830.963 137.067 Z" fill="#000000" fill-rule="nonzero" fill-opacity="1" /><circle clip-path="url(#clip460)" cx="474.692" cy="196.789" r="23.04" fill="#0000ff" fill-rule="evenodd" fill-opacity="1" stroke="none"/>
<path clip-path="url(#clip460)" d="M581.034 184.115 L574.692 201.314 L587.4 201.314 L581.034 184.115 M578.395 179.509 L583.696 179.509 L596.867 214.069 L592.006 214.069 L588.858 205.203 L573.28 205.203 L570.132 214.069 L565.201 214.069 L578.395 179.509 Z" fill="#000000" fill-rule="nonzero" fill-opacity="1" /><path clip-path="url(#clip460)" d="M623.279 198.421 L623.279 214.069 L619.02 214.069 L619.02 198.559 Q619.02 194.879 617.585 193.05 Q616.15 191.222 613.279 191.222 Q609.83 191.222 607.84 193.421 Q605.849 195.62 605.849 199.416 L605.849 214.069 L601.567 214.069 L601.567 188.143 L605.849 188.143 L605.849 192.171 Q607.377 189.833 609.437 188.675 Q611.52 187.518 614.229 187.518 Q618.696 187.518 620.988 190.296 Q623.279 193.05 623.279 198.421 Z" fill="#000000" fill-rule="nonzero" fill-opacity="1" /><path clip-path="url(#clip460)" d="M643.557 201.036 Q638.395 201.036 636.404 202.217 Q634.414 203.397 634.414 206.245 Q634.414 208.513 635.895 209.856 Q637.4 211.175 639.969 211.175 Q643.511 211.175 645.64 208.675 Q647.793 206.152 647.793 201.985 L647.793 201.036 L643.557 201.036 M652.052 199.277 L652.052 214.069 L647.793 214.069 L647.793 210.133 Q646.335 212.495 644.159 213.629 Q641.983 214.74 638.835 214.74 Q634.853 214.74 632.492 212.518 Q630.154 210.272 630.154 206.522 Q630.154 202.147 633.071 199.925 Q636.011 197.703 641.821 197.703 L647.793 197.703 L647.793 197.286 Q647.793 194.347 645.849 192.749 Q643.927 191.129 640.432 191.129 Q638.21 191.129 636.103 191.661 Q633.997 192.194 632.052 193.259 L632.052 189.323 Q634.39 188.421 636.589 187.981 Q638.789 187.518 640.872 187.518 Q646.497 187.518 649.275 190.434 Q652.052 193.351 652.052 199.277 Z" fill="#000000" fill-rule="nonzero" fill-opacity="1" /><path clip-path="url(#clip460)" d="M660.825 178.05 L665.085 178.05 L665.085 214.069 L660.825 214.069 L660.825 178.05 Z" fill="#000000" fill-rule="nonzero" fill-opacity="1" /><path clip-path="url(#clip460)" d="M684.784 216.476 Q682.978 221.106 681.265 222.518 Q679.552 223.93 676.682 223.93 L673.279 223.93 L673.279 220.365 L675.779 220.365 Q677.538 220.365 678.511 219.532 Q679.483 218.698 680.663 215.596 L681.427 213.652 L670.941 188.143 L675.455 188.143 L683.557 208.421 L691.659 188.143 L696.173 188.143 L684.784 216.476 Z" fill="#000000" fill-rule="nonzero" fill-opacity="1" /><path clip-path="url(#clip460)" d="M706.265 180.782 L706.265 188.143 L715.038 188.143 L715.038 191.453 L706.265 191.453 L706.265 205.527 Q706.265 208.698 707.122 209.601 Q708.001 210.504 710.663 210.504 L715.038 210.504 L715.038 214.069 L710.663 214.069 Q705.733 214.069 703.858 212.24 Q701.983 210.388 701.983 205.527 L701.983 191.453 L698.858 191.453 L698.858 188.143 L701.983 188.143 L701.983 180.782 L706.265 180.782 Z" fill="#000000" fill-rule="nonzero" fill-opacity="1" /><path clip-path="url(#clip460)" d="M720.64 188.143 L724.899 188.143 L724.899 214.069 L720.64 214.069 L720.64 188.143 M720.64 178.05 L724.899 178.05 L724.899 183.444 L720.64 183.444 L720.64 178.05 Z" fill="#000000" fill-rule="nonzero" fill-opacity="1" /><path clip-path="url(#clip460)" d="M752.469 189.138 L752.469 193.12 Q750.663 192.124 748.834 191.638 Q747.029 191.129 745.177 191.129 Q741.033 191.129 738.742 193.768 Q736.45 196.384 736.45 201.129 Q736.45 205.874 738.742 208.513 Q741.033 211.129 745.177 211.129 Q747.029 211.129 748.834 210.643 Q750.663 210.133 752.469 209.138 L752.469 213.073 Q750.686 213.907 748.765 214.323 Q746.867 214.74 744.714 214.74 Q738.857 214.74 735.408 211.059 Q731.959 207.379 731.959 201.129 Q731.959 194.786 735.432 191.152 Q738.927 187.518 744.992 187.518 Q746.959 187.518 748.834 187.935 Q750.709 188.328 752.469 189.138 Z" fill="#000000" fill-rule="nonzero" fill-opacity="1" /><path clip-path="url(#clip460)" d="M771.658 201.036 Q766.496 201.036 764.505 202.217 Q762.515 203.397 762.515 206.245 Q762.515 208.513 763.996 209.856 Q765.501 211.175 768.07 211.175 Q771.612 211.175 773.742 208.675 Q775.894 206.152 775.894 201.985 L775.894 201.036 L771.658 201.036 M780.154 199.277 L780.154 214.069 L775.894 214.069 L775.894 210.133 Q774.436 212.495 772.26 213.629 Q770.084 214.74 766.936 214.74 Q762.955 214.74 760.593 212.518 Q758.256 210.272 758.256 206.522 Q758.256 202.147 761.172 199.925 Q764.112 197.703 769.922 197.703 L775.894 197.703 L775.894 197.286 Q775.894 194.347 773.95 192.749 Q772.029 191.129 768.533 191.129 Q766.311 191.129 764.205 191.661 Q762.098 192.194 760.154 193.259 L760.154 189.323 Q762.492 188.421 764.691 187.981 Q766.89 187.518 768.973 187.518 Q774.598 187.518 777.376 190.434 Q780.154 193.351 780.154 199.277 Z" fill="#000000" fill-rule="nonzero" fill-opacity="1" /><path clip-path="url(#clip460)" d="M788.927 178.05 L793.186 178.05 L793.186 214.069 L788.927 214.069 L788.927 178.05 Z" fill="#000000" fill-rule="nonzero" fill-opacity="1" /></svg>
