<?xml version="1.0" encoding="utf-8"?>
<svg xmlns="http://www.w3.org/2000/svg" xmlns:xlink="http://www.w3.org/1999/xlink" width="600" height="400" viewBox="0 0 2400 1600">
<defs>
  <clipPath id="clip340">
    <rect x="0" y="0" width="2400" height="1600"/>
  </clipPath>
</defs>
<path clip-path="url(#clip340)" d="M0 1600 L2400 1600 L2400 0 L0 0  Z" fill="#ffffff" fill-rule="evenodd" fill-opacity="1"/>
<defs>
  <clipPath id="clip341">
    <rect x="480" y="0" width="1681" height="1600"/>
  </clipPath>
</defs>
<path clip-path="url(#clip340)" d="M316.301 1423.18 L2352.76 1423.18 L2352.76 47.2441 L316.301 47.2441  Z" fill="#ffffff" fill-rule="evenodd" fill-opacity="1"/>
<defs>
  <clipPath id="clip342">
    <rect x="316" y="47" width="2037" height="1377"/>
  </clipPath>
</defs>
<polyline clip-path="url(#clip342)" style="stroke:#000000; stroke-linecap:round; stroke-linejoin:round; stroke-width:2; stroke-opacity:0.1; fill:none" points="373.936,1423.18 373.936,47.2441 "/>
<polyline clip-path="url(#clip342)" style="stroke:#000000; stroke-linecap:round; stroke-linejoin:round; stroke-width:2; stroke-opacity:0.1; fill:none" points="854.232,1423.18 854.232,47.2441 "/>
<polyline clip-path="url(#clip342)" style="stroke:#000000; stroke-linecap:round; stroke-linejoin:round; stroke-width:2; stroke-opacity:0.1; fill:none" points="1334.53,1423.18 1334.53,47.2441 "/>
<polyline clip-path="url(#clip342)" style="stroke:#000000; stroke-linecap:round; stroke-linejoin:round; stroke-width:2; stroke-opacity:0.1; fill:none" points="1814.82,1423.18 1814.82,47.2441 "/>
<polyline clip-path="url(#clip342)" style="stroke:#000000; stroke-linecap:round; stroke-linejoin:round; stroke-width:2; stroke-opacity:0.1; fill:none" points="2295.12,1423.18 2295.12,47.2441 "/>
<polyline clip-path="url(#clip342)" style="stroke:#000000; stroke-linecap:round; stroke-linejoin:round; stroke-width:2; stroke-opacity:0.1; fill:none" points="316.301,1212.19 2352.76,1212.19 "/>
<polyline clip-path="url(#clip342)" style="stroke:#000000; stroke-linecap:round; stroke-linejoin:round; stroke-width:2; stroke-opacity:0.1; fill:none" points="316.301,973.821 2352.76,973.821 "/>
<polyline clip-path="url(#clip342)" style="stroke:#000000; stroke-linecap:round; stroke-linejoin:round; stroke-width:2; stroke-opacity:0.1; fill:none" points="316.301,735.452 2352.76,735.452 "/>
<polyline clip-path="url(#clip342)" style="stroke:#000000; stroke-linecap:round; stroke-linejoin:round; stroke-width:2; stroke-opacity:0.1; fill:none" points="316.301,497.083 2352.76,497.083 "/>
<polyline clip-path="url(#clip342)" style="stroke:#000000; stroke-linecap:round; stroke-linejoin:round; stroke-width:2; stroke-opacity:0.1; fill:none" points="316.301,258.714 2352.76,258.714 "/>
<polyline clip-path="url(#clip340)" style="stroke:#000000; stroke-linecap:round; stroke-linejoin:round; stroke-width:4; stroke-opacity:1; fill:none" points="316.301,1423.18 2352.76,1423.18 "/>
<polyline clip-path="url(#clip340)" style="stroke:#000000; stroke-linecap:round; stroke-linejoin:round; stroke-width:4; stroke-opacity:1; fill:none" points="373.936,1423.18 373.936,1404.28 "/>
<polyline clip-path="url(#clip340)" style="stroke:#000000; stroke-linecap:round; stroke-linejoin:round; stroke-width:4; stroke-opacity:1; fill:none" points="854.232,1423.18 854.232,1404.28 "/>
<polyline clip-path="url(#clip340)" style="stroke:#000000; stroke-linecap:round; stroke-linejoin:round; stroke-width:4; stroke-opacity:1; fill:none" points="1334.53,1423.18 1334.53,1404.28 "/>
<polyline clip-path="url(#clip340)" style="stroke:#000000; stroke-linecap:round; stroke-linejoin:round; stroke-width:4; stroke-opacity:1; fill:none" points="1814.82,1423.18 1814.82,1404.28 "/>
<polyline clip-path="url(#clip340)" style="stroke:#000000; stroke-linecap:round; stroke-linejoin:round; stroke-width:4; stroke-opacity:1; fill:none" points="2295.12,1423.18 2295.12,1404.28 "/>
<path clip-path="url(#clip340)" d="M336.24 1454.1 Q332.629 1454.1 330.8 1457.66 Q328.995 1461.2 328.995 1468.33 Q328.995 1475.44 330.8 1479.01 Q332.629 1482.55 336.24 1482.55 Q339.874 1482.55 341.68 1479.01 Q343.508 1475.44 343.508 1468.33 Q343.508 1461.2 341.68 1457.66 Q339.874 1454.1 336.24 1454.1 M336.24 1450.39 Q342.05 1450.39 345.106 1455 Q348.184 1459.58 348.184 1468.33 Q348.184 1477.06 345.106 1481.67 Q342.05 1486.25 336.24 1486.25 Q330.43 1486.25 327.351 1481.67 Q324.296 1477.06 324.296 1468.33 Q324.296 1459.58 327.351 1455 Q330.43 1450.39 336.24 1450.39 Z" fill="#000000" fill-rule="nonzero" fill-opacity="1" /><path clip-path="url(#clip340)" d="M356.402 1479.7 L361.286 1479.7 L361.286 1485.58 L356.402 1485.58 L356.402 1479.7 Z" fill="#000000" fill-rule="nonzero" fill-opacity="1" /><path clip-path="url(#clip340)" d="M381.471 1454.1 Q377.86 1454.1 376.031 1457.66 Q374.226 1461.2 374.226 1468.33 Q374.226 1475.44 376.031 1479.01 Q377.86 1482.55 381.471 1482.55 Q385.105 1482.55 386.911 1479.01 Q388.74 1475.44 388.74 1468.33 Q388.74 1461.2 386.911 1457.66 Q385.105 1454.1 381.471 1454.1 M381.471 1450.39 Q387.281 1450.39 390.337 1455 Q393.416 1459.58 393.416 1468.33 Q393.416 1477.06 390.337 1481.67 Q387.281 1486.25 381.471 1486.25 Q375.661 1486.25 372.582 1481.67 Q369.527 1477.06 369.527 1468.33 Q369.527 1459.58 372.582 1455 Q375.661 1450.39 381.471 1450.39 Z" fill="#000000" fill-rule="nonzero" fill-opacity="1" /><path clip-path="url(#clip340)" d="M411.633 1454.1 Q408.022 1454.1 406.193 1457.66 Q404.388 1461.2 404.388 1468.33 Q404.388 1475.44 406.193 1479.01 Q408.022 1482.55 411.633 1482.55 Q415.267 1482.55 417.073 1479.01 Q418.901 1475.44 418.901 1468.33 Q418.901 1461.2 417.073 1457.66 Q415.267 1454.1 411.633 1454.1 M411.633 1450.39 Q417.443 1450.39 420.499 1455 Q423.577 1459.58 423.577 1468.33 Q423.577 1477.06 420.499 1481.67 Q417.443 1486.25 411.633 1486.25 Q405.823 1486.25 402.744 1481.67 Q399.689 1477.06 399.689 1468.33 Q399.689 1459.58 402.744 1455 Q405.823 1450.39 411.633 1450.39 Z" fill="#000000" fill-rule="nonzero" fill-opacity="1" /><path clip-path="url(#clip340)" d="M817.034 1454.1 Q813.422 1454.1 811.594 1457.66 Q809.788 1461.2 809.788 1468.33 Q809.788 1475.44 811.594 1479.01 Q813.422 1482.55 817.034 1482.55 Q820.668 1482.55 822.473 1479.01 Q824.302 1475.44 824.302 1468.33 Q824.302 1461.2 822.473 1457.66 Q820.668 1454.1 817.034 1454.1 M817.034 1450.39 Q822.844 1450.39 825.899 1455 Q828.978 1459.58 828.978 1468.33 Q828.978 1477.06 825.899 1481.67 Q822.844 1486.25 817.034 1486.25 Q811.223 1486.25 808.145 1481.67 Q805.089 1477.06 805.089 1468.33 Q805.089 1459.58 808.145 1455 Q811.223 1450.39 817.034 1450.39 Z" fill="#000000" fill-rule="nonzero" fill-opacity="1" /><path clip-path="url(#clip340)" d="M837.195 1479.7 L842.08 1479.7 L842.08 1485.58 L837.195 1485.58 L837.195 1479.7 Z" fill="#000000" fill-rule="nonzero" fill-opacity="1" /><path clip-path="url(#clip340)" d="M856.293 1481.64 L872.612 1481.64 L872.612 1485.58 L850.668 1485.58 L850.668 1481.64 Q853.33 1478.89 857.913 1474.26 Q862.519 1469.61 863.7 1468.27 Q865.945 1465.74 866.825 1464.01 Q867.728 1462.25 867.728 1460.56 Q867.728 1457.8 865.783 1456.07 Q863.862 1454.33 860.76 1454.33 Q858.561 1454.33 856.107 1455.09 Q853.677 1455.86 850.899 1457.41 L850.899 1452.69 Q853.723 1451.55 856.177 1450.97 Q858.631 1450.39 860.668 1450.39 Q866.038 1450.39 869.232 1453.08 Q872.427 1455.77 872.427 1460.26 Q872.427 1462.39 871.617 1464.31 Q870.83 1466.2 868.723 1468.8 Q868.144 1469.47 865.043 1472.69 Q861.941 1475.88 856.293 1481.64 Z" fill="#000000" fill-rule="nonzero" fill-opacity="1" /><path clip-path="url(#clip340)" d="M882.473 1451.02 L900.829 1451.02 L900.829 1454.96 L886.755 1454.96 L886.755 1463.43 Q887.774 1463.08 888.792 1462.92 Q889.811 1462.73 890.829 1462.73 Q896.616 1462.73 899.996 1465.9 Q903.376 1469.08 903.376 1474.49 Q903.376 1480.07 899.903 1483.17 Q896.431 1486.25 890.112 1486.25 Q887.936 1486.25 885.667 1485.88 Q883.422 1485.51 881.015 1484.77 L881.015 1480.07 Q883.098 1481.2 885.32 1481.76 Q887.542 1482.32 890.019 1482.32 Q894.024 1482.32 896.362 1480.21 Q898.7 1478.1 898.7 1474.49 Q898.7 1470.88 896.362 1468.77 Q894.024 1466.67 890.019 1466.67 Q888.144 1466.67 886.269 1467.08 Q884.417 1467.5 882.473 1468.38 L882.473 1451.02 Z" fill="#000000" fill-rule="nonzero" fill-opacity="1" /><path clip-path="url(#clip340)" d="M1296.83 1454.1 Q1293.22 1454.1 1291.39 1457.66 Q1289.59 1461.2 1289.59 1468.33 Q1289.59 1475.44 1291.39 1479.01 Q1293.22 1482.55 1296.83 1482.55 Q1300.47 1482.55 1302.27 1479.01 Q1304.1 1475.44 1304.1 1468.33 Q1304.1 1461.2 1302.27 1457.66 Q1300.47 1454.1 1296.83 1454.1 M1296.83 1450.39 Q1302.64 1450.39 1305.7 1455 Q1308.78 1459.58 1308.78 1468.33 Q1308.78 1477.06 1305.7 1481.67 Q1302.64 1486.25 1296.83 1486.25 Q1291.02 1486.25 1287.94 1481.67 Q1284.89 1477.06 1284.89 1468.33 Q1284.89 1459.58 1287.94 1455 Q1291.02 1450.39 1296.83 1450.39 Z" fill="#000000" fill-rule="nonzero" fill-opacity="1" /><path clip-path="url(#clip340)" d="M1316.99 1479.7 L1321.88 1479.7 L1321.88 1485.58 L1316.99 1485.58 L1316.99 1479.7 Z" fill="#000000" fill-rule="nonzero" fill-opacity="1" /><path clip-path="url(#clip340)" d="M1332.11 1451.02 L1350.47 1451.02 L1350.47 1454.96 L1336.39 1454.96 L1336.39 1463.43 Q1337.41 1463.08 1338.43 1462.92 Q1339.45 1462.73 1340.47 1462.73 Q1346.25 1462.73 1349.63 1465.9 Q1353.01 1469.08 1353.01 1474.49 Q1353.01 1480.07 1349.54 1483.17 Q1346.07 1486.25 1339.75 1486.25 Q1337.57 1486.25 1335.3 1485.88 Q1333.06 1485.51 1330.65 1484.77 L1330.65 1480.07 Q1332.73 1481.2 1334.96 1481.76 Q1337.18 1482.32 1339.66 1482.32 Q1343.66 1482.32 1346 1480.21 Q1348.34 1478.1 1348.34 1474.49 Q1348.34 1470.88 1346 1468.77 Q1343.66 1466.67 1339.66 1466.67 Q1337.78 1466.67 1335.91 1467.08 Q1334.05 1467.5 1332.11 1468.38 L1332.11 1451.02 Z" fill="#000000" fill-rule="nonzero" fill-opacity="1" /><path clip-path="url(#clip340)" d="M1372.22 1454.1 Q1368.61 1454.1 1366.79 1457.66 Q1364.98 1461.2 1364.98 1468.33 Q1364.98 1475.44 1366.79 1479.01 Q1368.61 1482.55 1372.22 1482.55 Q1375.86 1482.55 1377.66 1479.01 Q1379.49 1475.44 1379.49 1468.33 Q1379.49 1461.2 1377.66 1457.66 Q1375.86 1454.1 1372.22 1454.1 M1372.22 1450.39 Q1378.04 1450.39 1381.09 1455 Q1384.17 1459.58 1384.17 1468.33 Q1384.17 1477.06 1381.09 1481.67 Q1378.04 1486.25 1372.22 1486.25 Q1366.41 1486.25 1363.34 1481.67 Q1360.28 1477.06 1360.28 1468.33 Q1360.28 1459.58 1363.34 1455 Q1366.41 1450.39 1372.22 1450.39 Z" fill="#000000" fill-rule="nonzero" fill-opacity="1" /><path clip-path="url(#clip340)" d="M1777.63 1454.1 Q1774.01 1454.1 1772.19 1457.66 Q1770.38 1461.2 1770.38 1468.33 Q1770.38 1475.44 1772.19 1479.01 Q1774.01 1482.55 1777.63 1482.55 Q1781.26 1482.55 1783.07 1479.01 Q1784.89 1475.44 1784.89 1468.33 Q1784.89 1461.2 1783.07 1457.66 Q1781.26 1454.1 1777.63 1454.1 M1777.63 1450.39 Q1783.44 1450.39 1786.49 1455 Q1789.57 1459.58 1789.57 1468.33 Q1789.57 1477.06 1786.49 1481.67 Q1783.44 1486.25 1777.63 1486.25 Q1771.82 1486.25 1768.74 1481.67 Q1765.68 1477.06 1765.68 1468.33 Q1765.68 1459.58 1768.74 1455 Q1771.82 1450.39 1777.63 1450.39 Z" fill="#000000" fill-rule="nonzero" fill-opacity="1" /><path clip-path="url(#clip340)" d="M1797.79 1479.7 L1802.67 1479.7 L1802.67 1485.58 L1797.79 1485.58 L1797.79 1479.7 Z" fill="#000000" fill-rule="nonzero" fill-opacity="1" /><path clip-path="url(#clip340)" d="M1811.68 1451.02 L1833.9 1451.02 L1833.9 1453.01 L1821.35 1485.58 L1816.47 1485.58 L1828.27 1454.96 L1811.68 1454.96 L1811.68 1451.02 Z" fill="#000000" fill-rule="nonzero" fill-opacity="1" /><path clip-path="url(#clip340)" d="M1843.06 1451.02 L1861.42 1451.02 L1861.42 1454.96 L1847.35 1454.96 L1847.35 1463.43 Q1848.37 1463.08 1849.38 1462.92 Q1850.4 1462.73 1851.42 1462.73 Q1857.21 1462.73 1860.59 1465.9 Q1863.97 1469.08 1863.97 1474.49 Q1863.97 1480.07 1860.5 1483.17 Q1857.02 1486.25 1850.7 1486.25 Q1848.53 1486.25 1846.26 1485.88 Q1844.01 1485.51 1841.61 1484.77 L1841.61 1480.07 Q1843.69 1481.2 1845.91 1481.76 Q1848.13 1482.32 1850.61 1482.32 Q1854.62 1482.32 1856.95 1480.21 Q1859.29 1478.1 1859.29 1474.49 Q1859.29 1470.88 1856.95 1468.77 Q1854.62 1466.67 1850.61 1466.67 Q1848.74 1466.67 1846.86 1467.08 Q1845.01 1467.5 1843.06 1468.38 L1843.06 1451.02 Z" fill="#000000" fill-rule="nonzero" fill-opacity="1" /><path clip-path="url(#clip340)" d="M2247.19 1481.64 L2254.83 1481.64 L2254.83 1455.28 L2246.52 1456.95 L2246.52 1452.69 L2254.78 1451.02 L2259.46 1451.02 L2259.46 1481.64 L2267.1 1481.64 L2267.1 1485.58 L2247.19 1485.58 L2247.19 1481.64 Z" fill="#000000" fill-rule="nonzero" fill-opacity="1" /><path clip-path="url(#clip340)" d="M2276.54 1479.7 L2281.43 1479.7 L2281.43 1485.58 L2276.54 1485.58 L2276.54 1479.7 Z" fill="#000000" fill-rule="nonzero" fill-opacity="1" /><path clip-path="url(#clip340)" d="M2301.61 1454.1 Q2298 1454.1 2296.17 1457.66 Q2294.37 1461.2 2294.37 1468.33 Q2294.37 1475.44 2296.17 1479.01 Q2298 1482.55 2301.61 1482.55 Q2305.25 1482.55 2307.05 1479.01 Q2308.88 1475.44 2308.88 1468.33 Q2308.88 1461.2 2307.05 1457.66 Q2305.25 1454.1 2301.61 1454.1 M2301.61 1450.39 Q2307.42 1450.39 2310.48 1455 Q2313.56 1459.58 2313.56 1468.33 Q2313.56 1477.06 2310.48 1481.67 Q2307.42 1486.25 2301.61 1486.25 Q2295.8 1486.25 2292.72 1481.67 Q2289.67 1477.06 2289.67 1468.33 Q2289.67 1459.58 2292.72 1455 Q2295.8 1450.39 2301.61 1450.39 Z" fill="#000000" fill-rule="nonzero" fill-opacity="1" /><path clip-path="url(#clip340)" d="M2331.78 1454.1 Q2328.16 1454.1 2326.34 1457.66 Q2324.53 1461.2 2324.53 1468.33 Q2324.53 1475.44 2326.34 1479.01 Q2328.16 1482.55 2331.78 1482.55 Q2335.41 1482.55 2337.22 1479.01 Q2339.04 1475.44 2339.04 1468.33 Q2339.04 1461.2 2337.22 1457.66 Q2335.41 1454.1 2331.78 1454.1 M2331.78 1450.39 Q2337.59 1450.39 2340.64 1455 Q2343.72 1459.58 2343.72 1468.33 Q2343.72 1477.06 2340.64 1481.67 Q2337.59 1486.25 2331.78 1486.25 Q2325.97 1486.25 2322.89 1481.67 Q2319.83 1477.06 2319.83 1468.33 Q2319.83 1459.58 2322.89 1455 Q2325.97 1450.39 2331.78 1450.39 Z" fill="#000000" fill-rule="nonzero" fill-opacity="1" /><path clip-path="url(#clip340)" d="M1307.59 1528.17 Q1307.59 1529.07 1307.17 1529.3 Q1306.75 1529.49 1305.6 1529.49 L1299.41 1529.49 L1294.52 1548.94 Q1294.13 1550.65 1294.13 1552.1 Q1294.13 1553.71 1294.61 1554.42 Q1295.13 1555.13 1296.19 1555.13 Q1298.28 1555.13 1300.54 1553.23 Q1302.83 1551.33 1304.76 1546.69 Q1305.02 1546.08 1305.14 1545.95 Q1305.31 1545.79 1305.72 1545.79 Q1306.53 1545.79 1306.53 1546.43 Q1306.53 1546.66 1306.08 1547.69 Q1305.66 1548.72 1304.73 1550.23 Q1303.82 1551.75 1302.63 1553.16 Q1301.47 1554.58 1299.7 1555.61 Q1297.93 1556.61 1296.03 1556.61 Q1293.36 1556.61 1291.65 1554.9 Q1289.98 1553.19 1289.98 1550.52 Q1289.98 1549.65 1290.65 1546.88 Q1291.33 1544.08 1295 1529.49 L1289.17 1529.49 Q1288.37 1529.49 1288.04 1529.46 Q1287.75 1529.43 1287.53 1529.27 Q1287.33 1529.07 1287.33 1528.69 Q1287.33 1528.07 1287.59 1527.82 Q1287.85 1527.53 1288.17 1527.49 Q1288.53 1527.43 1289.33 1527.43 L1295.51 1527.43 L1298.09 1516.96 Q1298.35 1515.93 1298.99 1515.35 Q1299.67 1514.74 1300.06 1514.68 Q1300.44 1514.58 1300.73 1514.58 Q1301.6 1514.58 1302.12 1515.06 Q1302.63 1515.51 1302.63 1516.35 Q1302.63 1516.8 1299.93 1527.43 L1305.72 1527.43 Q1306.46 1527.43 1306.75 1527.46 Q1307.08 1527.49 1307.33 1527.66 Q1307.59 1527.82 1307.59 1528.17 Z" fill="#000000" fill-rule="nonzero" fill-opacity="1" /><path clip-path="url(#clip340)" d="M1310.91 1571.42 Q1310.91 1571.1 1311.17 1570.39 L1334.45 1508.17 Q1334.45 1508.11 1334.61 1507.75 Q1334.77 1507.4 1334.87 1507.17 Q1334.97 1506.91 1335.16 1506.72 Q1335.38 1506.53 1335.64 1506.53 Q1336.29 1506.53 1336.29 1507.33 Q1336.29 1507.4 1336.09 1508.17 L1312.74 1570.46 Q1312.36 1571.58 1312.1 1571.91 Q1311.87 1572.23 1311.49 1572.23 Q1310.91 1572.23 1310.91 1571.42 Z" fill="#000000" fill-rule="nonzero" fill-opacity="1" /><path clip-path="url(#clip340)" d="M1388.43 1511.94 Q1388.43 1512.55 1388.31 1513.07 L1386.5 1524.53 Q1386.41 1525.4 1386.21 1525.72 Q1386.05 1526.05 1385.54 1526.05 Q1384.73 1526.05 1384.73 1525.21 Q1384.73 1524.72 1384.92 1523.95 Q1385.47 1520.31 1385.47 1518.67 Q1385.47 1517.58 1385.25 1516.77 Q1385.05 1515.93 1384.73 1515.35 Q1384.44 1514.77 1383.76 1514.39 Q1383.09 1514 1382.44 1513.77 Q1381.8 1513.55 1380.64 1513.45 Q1379.48 1513.32 1378.48 1513.29 Q1377.48 1513.26 1375.84 1513.26 Q1372.27 1513.26 1371.69 1513.39 Q1371.08 1513.55 1370.75 1514.03 Q1370.46 1514.48 1370.14 1515.84 L1361.38 1550.84 L1361.12 1552.23 Q1361.12 1553 1361.61 1553.26 Q1362.09 1553.52 1363.57 1553.68 Q1365.7 1553.84 1367.79 1553.84 Q1367.85 1553.84 1367.98 1553.84 Q1368.69 1553.84 1368.98 1553.87 Q1369.27 1553.87 1369.56 1553.94 Q1369.85 1554 1369.92 1554.16 Q1370.01 1554.29 1370.01 1554.55 Q1370.01 1555.16 1369.76 1555.48 Q1369.5 1555.77 1369.24 1555.84 Q1369.01 1555.87 1368.56 1555.87 Q1367.66 1555.87 1365.73 1555.8 Q1363.8 1555.74 1362.83 1555.74 L1357.36 1555.67 L1351.75 1555.74 Q1350.88 1555.74 1349.05 1555.8 Q1347.21 1555.87 1346.34 1555.87 Q1345.21 1555.87 1345.21 1555.06 Q1345.21 1554.16 1345.63 1554 Q1346.08 1553.84 1347.98 1553.84 Q1350.66 1553.84 1352.11 1553.71 Q1353.56 1553.58 1354.33 1553.13 Q1355.13 1552.68 1355.36 1552.23 Q1355.58 1551.75 1355.84 1550.65 L1364.7 1515.45 Q1364.96 1514.68 1364.96 1514.06 Q1364.96 1513.74 1364.86 1513.61 Q1364.8 1513.48 1364.38 1513.39 Q1363.96 1513.26 1363.09 1513.26 L1360.51 1513.26 Q1357.87 1513.26 1356.23 1513.39 Q1354.62 1513.48 1353.07 1513.97 Q1351.56 1514.45 1350.66 1515.13 Q1349.79 1515.8 1348.82 1517.19 Q1347.86 1518.57 1347.15 1520.25 Q1346.47 1521.92 1345.5 1524.66 Q1345.18 1525.56 1344.99 1525.82 Q1344.83 1526.05 1344.38 1526.05 Q1344.05 1526.05 1343.8 1525.85 Q1343.57 1525.63 1343.57 1525.34 Q1343.89 1524.27 1343.96 1524.15 L1347.92 1512.52 Q1348.24 1511.58 1348.53 1511.42 Q1348.85 1511.23 1350.05 1511.23 L1386.63 1511.23 Q1387.21 1511.23 1387.4 1511.23 Q1387.6 1511.23 1387.92 1511.29 Q1388.24 1511.36 1388.34 1511.52 Q1388.43 1511.68 1388.43 1511.94 Z" fill="#000000" fill-rule="nonzero" fill-opacity="1" /><polyline clip-path="url(#clip340)" style="stroke:#000000; stroke-linecap:round; stroke-linejoin:round; stroke-width:4; stroke-opacity:1; fill:none" points="316.301,1423.18 316.301,47.2441 "/>
<polyline clip-path="url(#clip340)" style="stroke:#000000; stroke-linecap:round; stroke-linejoin:round; stroke-width:4; stroke-opacity:1; fill:none" points="316.301,1212.19 335.199,1212.19 "/>
<polyline clip-path="url(#clip340)" style="stroke:#000000; stroke-linecap:round; stroke-linejoin:round; stroke-width:4; stroke-opacity:1; fill:none" points="316.301,973.821 335.199,973.821 "/>
<polyline clip-path="url(#clip340)" style="stroke:#000000; stroke-linecap:round; stroke-linejoin:round; stroke-width:4; stroke-opacity:1; fill:none" points="316.301,735.452 335.199,735.452 "/>
<polyline clip-path="url(#clip340)" style="stroke:#000000; stroke-linecap:round; stroke-linejoin:round; stroke-width:4; stroke-opacity:1; fill:none" points="316.301,497.083 335.199,497.083 "/>
<polyline clip-path="url(#clip340)" style="stroke:#000000; stroke-linecap:round; stroke-linejoin:round; stroke-width:4; stroke-opacity:1; fill:none" points="316.301,258.714 335.199,258.714 "/>
<path clip-path="url(#clip340)" d="M114.631 1212.64 L144.306 1212.64 L144.306 1216.58 L114.631 1216.58 L114.631 1212.64 Z" fill="#000000" fill-rule="nonzero" fill-opacity="1" /><path clip-path="url(#clip340)" d="M164.399 1197.99 Q160.788 1197.99 158.959 1201.55 Q157.153 1205.09 157.153 1212.22 Q157.153 1219.33 158.959 1222.9 Q160.788 1226.44 164.399 1226.44 Q168.033 1226.44 169.839 1222.9 Q171.667 1219.33 171.667 1212.22 Q171.667 1205.09 169.839 1201.55 Q168.033 1197.99 164.399 1197.99 M164.399 1194.28 Q170.209 1194.28 173.264 1198.89 Q176.343 1203.47 176.343 1212.22 Q176.343 1220.95 173.264 1225.56 Q170.209 1230.14 164.399 1230.14 Q158.589 1230.14 155.51 1225.56 Q152.454 1220.95 152.454 1212.22 Q152.454 1203.47 155.51 1198.89 Q158.589 1194.28 164.399 1194.28 Z" fill="#000000" fill-rule="nonzero" fill-opacity="1" /><path clip-path="url(#clip340)" d="M184.561 1223.59 L189.445 1223.59 L189.445 1229.47 L184.561 1229.47 L184.561 1223.59 Z" fill="#000000" fill-rule="nonzero" fill-opacity="1" /><path clip-path="url(#clip340)" d="M209.63 1197.99 Q206.019 1197.99 204.19 1201.55 Q202.385 1205.09 202.385 1212.22 Q202.385 1219.33 204.19 1222.9 Q206.019 1226.44 209.63 1226.44 Q213.264 1226.44 215.07 1222.9 Q216.898 1219.33 216.898 1212.22 Q216.898 1205.09 215.07 1201.55 Q213.264 1197.99 209.63 1197.99 M209.63 1194.28 Q215.44 1194.28 218.496 1198.89 Q221.574 1203.47 221.574 1212.22 Q221.574 1220.95 218.496 1225.56 Q215.44 1230.14 209.63 1230.14 Q203.82 1230.14 200.741 1225.56 Q197.686 1220.95 197.686 1212.22 Q197.686 1203.47 200.741 1198.89 Q203.82 1194.28 209.63 1194.28 Z" fill="#000000" fill-rule="nonzero" fill-opacity="1" /><path clip-path="url(#clip340)" d="M239.792 1197.99 Q236.181 1197.99 234.352 1201.55 Q232.547 1205.09 232.547 1212.22 Q232.547 1219.33 234.352 1222.9 Q236.181 1226.44 239.792 1226.44 Q243.426 1226.44 245.232 1222.9 Q247.06 1219.33 247.06 1212.22 Q247.06 1205.09 245.232 1201.55 Q243.426 1197.99 239.792 1197.99 M239.792 1194.28 Q245.602 1194.28 248.658 1198.89 Q251.736 1203.47 251.736 1212.22 Q251.736 1220.95 248.658 1225.56 Q245.602 1230.14 239.792 1230.14 Q233.982 1230.14 230.903 1225.56 Q227.848 1220.95 227.848 1212.22 Q227.848 1203.47 230.903 1198.89 Q233.982 1194.28 239.792 1194.28 Z" fill="#000000" fill-rule="nonzero" fill-opacity="1" /><path clip-path="url(#clip340)" d="M263.982 1225.53 L280.301 1225.53 L280.301 1229.47 L258.357 1229.47 L258.357 1225.53 Q261.019 1222.78 265.602 1218.15 Q270.208 1213.5 271.389 1212.15 Q273.634 1209.63 274.514 1207.9 Q275.417 1206.14 275.417 1204.45 Q275.417 1201.69 273.472 1199.96 Q271.551 1198.22 268.449 1198.22 Q266.25 1198.22 263.796 1198.98 Q261.366 1199.75 258.588 1201.3 L258.588 1196.58 Q261.412 1195.44 263.866 1194.86 Q266.32 1194.28 268.357 1194.28 Q273.727 1194.28 276.921 1196.97 Q280.116 1199.65 280.116 1204.15 Q280.116 1206.28 279.306 1208.2 Q278.519 1210.09 276.412 1212.69 Q275.833 1213.36 272.732 1216.58 Q269.63 1219.77 263.982 1225.53 Z" fill="#000000" fill-rule="nonzero" fill-opacity="1" /><path clip-path="url(#clip340)" d="M114.26 974.272 L143.936 974.272 L143.936 978.207 L114.26 978.207 L114.26 974.272 Z" fill="#000000" fill-rule="nonzero" fill-opacity="1" /><path clip-path="url(#clip340)" d="M164.028 959.619 Q160.417 959.619 158.589 963.184 Q156.783 966.726 156.783 973.855 Q156.783 980.962 158.589 984.527 Q160.417 988.068 164.028 988.068 Q167.663 988.068 169.468 984.527 Q171.297 980.962 171.297 973.855 Q171.297 966.726 169.468 963.184 Q167.663 959.619 164.028 959.619 M164.028 955.916 Q169.839 955.916 172.894 960.522 Q175.973 965.105 175.973 973.855 Q175.973 982.582 172.894 987.189 Q169.839 991.772 164.028 991.772 Q158.218 991.772 155.14 987.189 Q152.084 982.582 152.084 973.855 Q152.084 965.105 155.14 960.522 Q158.218 955.916 164.028 955.916 Z" fill="#000000" fill-rule="nonzero" fill-opacity="1" /><path clip-path="url(#clip340)" d="M184.19 985.221 L189.075 985.221 L189.075 991.101 L184.19 991.101 L184.19 985.221 Z" fill="#000000" fill-rule="nonzero" fill-opacity="1" /><path clip-path="url(#clip340)" d="M209.26 959.619 Q205.649 959.619 203.82 963.184 Q202.014 966.726 202.014 973.855 Q202.014 980.962 203.82 984.527 Q205.649 988.068 209.26 988.068 Q212.894 988.068 214.699 984.527 Q216.528 980.962 216.528 973.855 Q216.528 966.726 214.699 963.184 Q212.894 959.619 209.26 959.619 M209.26 955.916 Q215.07 955.916 218.125 960.522 Q221.204 965.105 221.204 973.855 Q221.204 982.582 218.125 987.189 Q215.07 991.772 209.26 991.772 Q203.449 991.772 200.371 987.189 Q197.315 982.582 197.315 973.855 Q197.315 965.105 200.371 960.522 Q203.449 955.916 209.26 955.916 Z" fill="#000000" fill-rule="nonzero" fill-opacity="1" /><path clip-path="url(#clip340)" d="M239.422 959.619 Q235.81 959.619 233.982 963.184 Q232.176 966.726 232.176 973.855 Q232.176 980.962 233.982 984.527 Q235.81 988.068 239.422 988.068 Q243.056 988.068 244.861 984.527 Q246.69 980.962 246.69 973.855 Q246.69 966.726 244.861 963.184 Q243.056 959.619 239.422 959.619 M239.422 955.916 Q245.232 955.916 248.287 960.522 Q251.366 965.105 251.366 973.855 Q251.366 982.582 248.287 987.189 Q245.232 991.772 239.422 991.772 Q233.611 991.772 230.533 987.189 Q227.477 982.582 227.477 973.855 Q227.477 965.105 230.533 960.522 Q233.611 955.916 239.422 955.916 Z" fill="#000000" fill-rule="nonzero" fill-opacity="1" /><path clip-path="url(#clip340)" d="M260.394 987.165 L268.032 987.165 L268.032 960.8 L259.722 962.467 L259.722 958.207 L267.986 956.541 L272.662 956.541 L272.662 987.165 L280.301 987.165 L280.301 991.101 L260.394 991.101 L260.394 987.165 Z" fill="#000000" fill-rule="nonzero" fill-opacity="1" /><path clip-path="url(#clip340)" d="M162.802 721.25 Q159.19 721.25 157.362 724.815 Q155.556 728.357 155.556 735.486 Q155.556 742.593 157.362 746.158 Q159.19 749.699 162.802 749.699 Q166.436 749.699 168.241 746.158 Q170.07 742.593 170.07 735.486 Q170.07 728.357 168.241 724.815 Q166.436 721.25 162.802 721.25 M162.802 717.547 Q168.612 717.547 171.667 722.153 Q174.746 726.736 174.746 735.486 Q174.746 744.213 171.667 748.82 Q168.612 753.403 162.802 753.403 Q156.991 753.403 153.913 748.82 Q150.857 744.213 150.857 735.486 Q150.857 726.736 153.913 722.153 Q156.991 717.547 162.802 717.547 Z" fill="#000000" fill-rule="nonzero" fill-opacity="1" /><path clip-path="url(#clip340)" d="M182.963 746.852 L187.848 746.852 L187.848 752.732 L182.963 752.732 L182.963 746.852 Z" fill="#000000" fill-rule="nonzero" fill-opacity="1" /><path clip-path="url(#clip340)" d="M208.033 721.25 Q204.422 721.25 202.593 724.815 Q200.787 728.357 200.787 735.486 Q200.787 742.593 202.593 746.158 Q204.422 749.699 208.033 749.699 Q211.667 749.699 213.473 746.158 Q215.301 742.593 215.301 735.486 Q215.301 728.357 213.473 724.815 Q211.667 721.25 208.033 721.25 M208.033 717.547 Q213.843 717.547 216.898 722.153 Q219.977 726.736 219.977 735.486 Q219.977 744.213 216.898 748.82 Q213.843 753.403 208.033 753.403 Q202.223 753.403 199.144 748.82 Q196.088 744.213 196.088 735.486 Q196.088 726.736 199.144 722.153 Q202.223 717.547 208.033 717.547 Z" fill="#000000" fill-rule="nonzero" fill-opacity="1" /><path clip-path="url(#clip340)" d="M238.195 721.25 Q234.584 721.25 232.755 724.815 Q230.949 728.357 230.949 735.486 Q230.949 742.593 232.755 746.158 Q234.584 749.699 238.195 749.699 Q241.829 749.699 243.634 746.158 Q245.463 742.593 245.463 735.486 Q245.463 728.357 243.634 724.815 Q241.829 721.25 238.195 721.25 M238.195 717.547 Q244.005 717.547 247.06 722.153 Q250.139 726.736 250.139 735.486 Q250.139 744.213 247.06 748.82 Q244.005 753.403 238.195 753.403 Q232.385 753.403 229.306 748.82 Q226.25 744.213 226.25 735.486 Q226.25 726.736 229.306 722.153 Q232.385 717.547 238.195 717.547 Z" fill="#000000" fill-rule="nonzero" fill-opacity="1" /><path clip-path="url(#clip340)" d="M268.357 721.25 Q264.745 721.25 262.917 724.815 Q261.111 728.357 261.111 735.486 Q261.111 742.593 262.917 746.158 Q264.745 749.699 268.357 749.699 Q271.991 749.699 273.796 746.158 Q275.625 742.593 275.625 735.486 Q275.625 728.357 273.796 724.815 Q271.991 721.25 268.357 721.25 M268.357 717.547 Q274.167 717.547 277.222 722.153 Q280.301 726.736 280.301 735.486 Q280.301 744.213 277.222 748.82 Q274.167 753.403 268.357 753.403 Q262.546 753.403 259.468 748.82 Q256.412 744.213 256.412 735.486 Q256.412 726.736 259.468 722.153 Q262.546 717.547 268.357 717.547 Z" fill="#000000" fill-rule="nonzero" fill-opacity="1" /><path clip-path="url(#clip340)" d="M164.028 482.881 Q160.417 482.881 158.589 486.446 Q156.783 489.988 156.783 497.117 Q156.783 504.224 158.589 507.789 Q160.417 511.33 164.028 511.33 Q167.663 511.33 169.468 507.789 Q171.297 504.224 171.297 497.117 Q171.297 489.988 169.468 486.446 Q167.663 482.881 164.028 482.881 M164.028 479.178 Q169.839 479.178 172.894 483.784 Q175.973 488.367 175.973 497.117 Q175.973 505.844 172.894 510.451 Q169.839 515.034 164.028 515.034 Q158.218 515.034 155.14 510.451 Q152.084 505.844 152.084 497.117 Q152.084 488.367 155.14 483.784 Q158.218 479.178 164.028 479.178 Z" fill="#000000" fill-rule="nonzero" fill-opacity="1" /><path clip-path="url(#clip340)" d="M184.19 508.483 L189.075 508.483 L189.075 514.363 L184.19 514.363 L184.19 508.483 Z" fill="#000000" fill-rule="nonzero" fill-opacity="1" /><path clip-path="url(#clip340)" d="M209.26 482.881 Q205.649 482.881 203.82 486.446 Q202.014 489.988 202.014 497.117 Q202.014 504.224 203.82 507.789 Q205.649 511.33 209.26 511.33 Q212.894 511.33 214.699 507.789 Q216.528 504.224 216.528 497.117 Q216.528 489.988 214.699 486.446 Q212.894 482.881 209.26 482.881 M209.26 479.178 Q215.07 479.178 218.125 483.784 Q221.204 488.367 221.204 497.117 Q221.204 505.844 218.125 510.451 Q215.07 515.034 209.26 515.034 Q203.449 515.034 200.371 510.451 Q197.315 505.844 197.315 497.117 Q197.315 488.367 200.371 483.784 Q203.449 479.178 209.26 479.178 Z" fill="#000000" fill-rule="nonzero" fill-opacity="1" /><path clip-path="url(#clip340)" d="M239.422 482.881 Q235.81 482.881 233.982 486.446 Q232.176 489.988 232.176 497.117 Q232.176 504.224 233.982 507.789 Q235.81 511.33 239.422 511.33 Q243.056 511.33 244.861 507.789 Q246.69 504.224 246.69 497.117 Q246.69 489.988 244.861 486.446 Q243.056 482.881 239.422 482.881 M239.422 479.178 Q245.232 479.178 248.287 483.784 Q251.366 488.367 251.366 497.117 Q251.366 505.844 248.287 510.451 Q245.232 515.034 239.422 515.034 Q233.611 515.034 230.533 510.451 Q227.477 505.844 227.477 497.117 Q227.477 488.367 230.533 483.784 Q233.611 479.178 239.422 479.178 Z" fill="#000000" fill-rule="nonzero" fill-opacity="1" /><path clip-path="url(#clip340)" d="M260.394 510.428 L268.032 510.428 L268.032 484.062 L259.722 485.729 L259.722 481.469 L267.986 479.803 L272.662 479.803 L272.662 510.428 L280.301 510.428 L280.301 514.363 L260.394 514.363 L260.394 510.428 Z" fill="#000000" fill-rule="nonzero" fill-opacity="1" /><path clip-path="url(#clip340)" d="M164.399 244.512 Q160.788 244.512 158.959 248.077 Q157.153 251.619 157.153 258.748 Q157.153 265.855 158.959 269.42 Q160.788 272.961 164.399 272.961 Q168.033 272.961 169.839 269.42 Q171.667 265.855 171.667 258.748 Q171.667 251.619 169.839 248.077 Q168.033 244.512 164.399 244.512 M164.399 240.809 Q170.209 240.809 173.264 245.415 Q176.343 249.999 176.343 258.748 Q176.343 267.475 173.264 272.082 Q170.209 276.665 164.399 276.665 Q158.589 276.665 155.51 272.082 Q152.454 267.475 152.454 258.748 Q152.454 249.999 155.51 245.415 Q158.589 240.809 164.399 240.809 Z" fill="#000000" fill-rule="nonzero" fill-opacity="1" /><path clip-path="url(#clip340)" d="M184.561 270.114 L189.445 270.114 L189.445 275.994 L184.561 275.994 L184.561 270.114 Z" fill="#000000" fill-rule="nonzero" fill-opacity="1" /><path clip-path="url(#clip340)" d="M209.63 244.512 Q206.019 244.512 204.19 248.077 Q202.385 251.619 202.385 258.748 Q202.385 265.855 204.19 269.42 Q206.019 272.961 209.63 272.961 Q213.264 272.961 215.07 269.42 Q216.898 265.855 216.898 258.748 Q216.898 251.619 215.07 248.077 Q213.264 244.512 209.63 244.512 M209.63 240.809 Q215.44 240.809 218.496 245.415 Q221.574 249.999 221.574 258.748 Q221.574 267.475 218.496 272.082 Q215.44 276.665 209.63 276.665 Q203.82 276.665 200.741 272.082 Q197.686 267.475 197.686 258.748 Q197.686 249.999 200.741 245.415 Q203.82 240.809 209.63 240.809 Z" fill="#000000" fill-rule="nonzero" fill-opacity="1" /><path clip-path="url(#clip340)" d="M239.792 244.512 Q236.181 244.512 234.352 248.077 Q232.547 251.619 232.547 258.748 Q232.547 265.855 234.352 269.42 Q236.181 272.961 239.792 272.961 Q243.426 272.961 245.232 269.42 Q247.06 265.855 247.06 258.748 Q247.06 251.619 245.232 248.077 Q243.426 244.512 239.792 244.512 M239.792 240.809 Q245.602 240.809 248.658 245.415 Q251.736 249.999 251.736 258.748 Q251.736 267.475 248.658 272.082 Q245.602 276.665 239.792 276.665 Q233.982 276.665 230.903 272.082 Q227.848 267.475 227.848 258.748 Q227.848 249.999 230.903 245.415 Q233.982 240.809 239.792 240.809 Z" fill="#000000" fill-rule="nonzero" fill-opacity="1" /><path clip-path="url(#clip340)" d="M263.982 272.059 L280.301 272.059 L280.301 275.994 L258.357 275.994 L258.357 272.059 Q261.019 269.304 265.602 264.674 Q270.208 260.022 271.389 258.679 Q273.634 256.156 274.514 254.42 Q275.417 252.661 275.417 250.971 Q275.417 248.216 273.472 246.48 Q271.551 244.744 268.449 244.744 Q266.25 244.744 263.796 245.508 Q261.366 246.272 258.588 247.823 L258.588 243.1 Q261.412 241.966 263.866 241.387 Q266.32 240.809 268.357 240.809 Q273.727 240.809 276.921 243.494 Q280.116 246.179 280.116 250.67 Q280.116 252.799 279.306 254.721 Q278.519 256.619 276.412 259.211 Q275.833 259.883 272.732 263.1 Q269.63 266.295 263.982 272.059 Z" fill="#000000" fill-rule="nonzero" fill-opacity="1" /><path clip-path="url(#clip340)" d="M44.7407 982.287 Q48.8953 983.125 51.2785 984.252 Q54.9178 986.088 54.9178 989.147 Q54.9178 991.273 53.7262 992.883 Q52.5024 994.461 50.4734 995.009 Q51.2785 995.621 51.826 996.168 Q52.3735 996.683 53.2109 997.682 Q54.016 998.68 54.4669 1000.03 Q54.9178 1001.35 54.9178 1002.87 Q54.9178 1004.03 54.6924 1005.09 Q54.4991 1006.15 53.9516 1007.28 Q53.3719 1008.37 52.5024 1009.18 Q51.6328 1009.95 50.2157 1010.47 Q48.7987 1010.98 46.9952 1010.98 Q44.7407 1010.98 41.6812 1010.11 Q38.6216 1009.21 33.1466 1007.15 Q30.2481 1006.02 28.6378 1006.02 Q27.8971 1006.02 27.414 1006.18 Q26.9309 1006.35 26.7699 1006.67 Q26.5766 1006.96 26.5444 1007.15 Q26.48 1007.34 26.48 1007.67 Q26.48 1009.66 28.509 1011.4 Q30.538 1013.14 34.6603 1014.33 Q35.4655 1014.59 35.6587 1014.75 Q35.8519 1014.91 35.8519 1015.39 Q35.8197 1016.2 35.1756 1016.2 Q34.918 1016.2 33.9196 1015.91 Q32.889 1015.62 31.3753 1014.94 Q29.8294 1014.24 28.4446 1013.27 Q27.0275 1012.3 26.0291 1010.79 Q25.0308 1009.24 25.0308 1007.47 Q25.0308 1005.06 26.6088 1003.58 Q28.1547 1002.06 30.4413 1002.06 Q31.8584 1002.06 34.5959 1003.19 Q44.0966 1006.76 48.058 1006.76 Q53.4363 1006.76 53.4363 1002.67 Q53.4363 1001.32 52.8888 1000.06 Q52.3413 998.777 51.5684 997.939 Q50.7954 997.102 49.9581 996.458 Q49.1207 995.782 48.5732 995.492 Q48.0257 995.17 47.8969 995.137 L28.0581 990.21 Q27.2852 990.017 26.7699 989.662 Q26.2224 989.276 26.0291 988.825 Q25.8359 988.374 25.8037 988.117 Q25.7393 987.859 25.7393 987.633 Q25.7393 986.828 26.2224 986.281 Q26.7055 985.701 27.5428 985.701 Q27.7038 985.701 28.4768 985.894 Q29.2175 986.055 30.3125 986.313 Q31.3753 986.571 31.955 986.699 Q36.013 987.73 36.4316 987.827 L43.5491 989.662 Q43.9678 989.759 45.3205 990.081 Q46.6731 990.371 47.3816 990.532 Q48.058 990.693 48.9919 990.854 Q49.8937 990.983 50.409 990.983 Q52.0193 990.983 52.7278 990.5 Q53.4363 990.017 53.4363 988.954 Q53.4363 987.956 52.76 987.183 Q52.0515 986.377 50.6988 985.766 Q49.314 985.154 48.1868 984.799 Q47.0596 984.445 45.2882 983.994 Q44.5153 983.833 44.3221 983.704 Q44.0966 983.543 44.0966 983.092 Q44.0966 982.287 44.7407 982.287 Z" fill="#000000" fill-rule="nonzero" fill-opacity="1" /><path clip-path="url(#clip340)" d="M66.9658 975.582 Q65.5906 975.582 64.9369 974.793 Q64.2831 974.004 64.2831 972.989 Q64.2831 971.93 64.9819 971.186 Q65.6583 970.419 66.8531 970.419 Q68.1381 970.419 68.8595 971.321 Q69.5809 972.2 69.4006 973.463 Q71.2492 972.358 72.0833 970.329 Q72.9175 968.278 72.9175 966.384 Q72.9175 964.4 71.2041 962.799 Q69.4908 961.176 65.2976 961.176 Q61.7356 961.176 59.6841 962.574 Q57.6326 963.949 57.6326 966.677 L57.6326 968.706 Q57.6326 969.405 57.5649 969.608 Q57.4973 969.811 57.1141 969.811 Q56.6632 969.811 56.573 969.112 Q56.573 968.413 56.4377 967.308 Q56.3476 964.626 54.0255 963.205 Q51.8613 961.92 48.7727 961.92 Q45.9547 961.92 44.7824 963.273 Q43.5876 964.603 43.5876 966.339 Q43.5876 967.962 44.2639 969.743 Q44.9402 971.524 46.4507 972.493 Q46.4507 969.63 48.7727 969.63 Q49.7872 969.63 50.4635 970.284 Q51.1173 970.915 51.1173 971.975 Q51.1173 972.989 50.4861 973.666 Q49.8323 974.342 48.7276 974.342 Q46.09 974.342 44.2639 971.997 Q42.4378 969.63 42.4378 966.159 Q42.4378 962.732 44.2414 960.207 Q46.0449 957.659 48.8178 957.659 Q51.5457 957.659 53.7775 959.463 Q56.0094 961.266 56.9337 964.13 Q57.6326 960.613 60.0222 958.516 Q62.3894 956.419 65.2976 956.419 Q68.9046 956.419 71.5648 959.26 Q74.2025 962.101 74.2025 966.249 Q74.2025 970.081 72.1284 972.832 Q70.0544 975.582 66.9658 975.582 Z" fill="#000000" fill-rule="nonzero" fill-opacity="1" /><path clip-path="url(#clip340)" d="M36.2576 906.501 Q36.2576 913.599 37.8809 916.336 Q39.5041 919.074 43.419 919.074 Q46.5382 919.074 48.3843 917.037 Q50.1985 914.968 50.1985 911.435 Q50.1985 906.565 46.761 903.637 Q43.2917 900.677 37.5626 900.677 L36.2576 900.677 L36.2576 906.501 M33.8386 894.82 L54.1771 894.82 L54.1771 900.677 L48.7662 900.677 Q52.0127 902.682 53.5723 905.674 Q55.1001 908.666 55.1001 912.994 Q55.1001 918.469 52.0446 921.715 Q48.9572 924.93 43.801 924.93 Q37.7854 924.93 34.7298 920.92 Q31.6743 916.877 31.6743 908.889 L31.6743 900.677 L31.1014 900.677 Q27.0592 900.677 24.863 903.35 Q22.635 905.992 22.635 910.798 Q22.635 913.854 23.367 916.75 Q24.0991 919.647 25.5632 922.32 L20.1524 922.32 Q18.911 919.105 18.3063 916.082 Q17.6697 913.058 17.6697 910.193 Q17.6697 902.459 21.6801 898.64 Q25.6905 894.82 33.8386 894.82 Z" fill="#000000" fill-rule="nonzero" fill-opacity="1" /><path clip-path="url(#clip340)" d="M8.40763 876.964 L18.5291 876.964 L18.5291 864.901 L23.0806 864.901 L23.0806 876.964 L42.4323 876.964 Q46.7928 876.964 48.0342 875.787 Q49.2755 874.577 49.2755 870.917 L49.2755 864.901 L54.1771 864.901 L54.1771 870.917 Q54.1771 877.697 51.6626 880.275 Q49.1163 882.853 42.4323 882.853 L23.0806 882.853 L23.0806 887.15 L18.5291 887.15 L18.5291 882.853 L8.40763 882.853 L8.40763 876.964 Z" fill="#000000" fill-rule="nonzero" fill-opacity="1" /><path clip-path="url(#clip340)" d="M39.8817 809.772 Q41.6852 809.772 42.7158 810.899 Q43.7142 812.026 43.7142 813.314 Q43.7142 814.538 43.0056 815.182 Q42.2971 815.826 41.3954 815.826 Q40.1715 815.826 39.1087 814.924 Q38.0459 814.023 37.8205 812.67 Q36.9831 813.99 36.9831 815.955 Q36.9831 817.243 37.6595 818.37 Q38.3358 819.465 39.2054 820.142 Q40.0749 820.786 41.3309 821.366 Q42.5548 821.913 43.2955 822.139 Q44.004 822.332 44.777 822.493 L53.7946 824.747 Q58.078 825.842 59.5917 825.842 Q61.4596 825.842 62.7156 824.94 Q63.9395 824.039 63.9395 822.235 Q63.9395 821.527 63.7462 820.722 Q63.5208 819.916 62.9411 818.886 Q62.3292 817.823 61.4274 816.889 Q60.4934 815.923 58.9153 814.989 Q57.3373 814.055 55.3083 813.443 Q54.5998 813.25 54.5998 812.606 Q54.5998 811.8 55.2439 811.8 Q55.7914 811.8 56.9508 812.251 Q58.078 812.67 59.5595 813.604 Q61.0087 814.506 62.3292 815.697 Q63.6174 816.889 64.5192 818.66 Q65.4209 820.432 65.4209 822.364 Q65.4209 825.134 63.9395 826.969 Q62.458 828.805 60.3968 829.482 Q60.6867 829.643 61.0731 829.868 Q61.4596 830.093 62.3292 830.77 Q63.1665 831.414 63.8106 832.155 Q64.4225 832.895 64.9056 834.055 Q65.4209 835.182 65.4209 836.406 Q65.4209 837.952 64.97 839.337 Q64.5192 840.689 63.4886 841.655 Q62.458 842.622 61.0409 842.622 Q59.4628 842.622 58.3678 841.559 Q57.2406 840.464 57.2406 838.982 Q57.2406 838.048 57.7881 837.308 Q58.3356 836.535 59.5273 836.535 Q60.8477 836.535 61.8461 837.436 Q62.8445 838.338 63.1021 839.626 Q63.9395 838.306 63.9395 836.341 Q63.9395 834.216 62.0715 832.541 Q60.2036 830.866 57.0796 830.061 Q49.5756 828.064 46.2262 827.292 Q42.8446 826.519 41.3954 826.519 Q40.0427 826.519 39.1087 826.873 Q38.1748 827.227 37.7561 827.839 Q37.3052 828.419 37.1442 828.966 Q36.9831 829.482 36.9831 830.061 Q36.9831 831.027 37.3696 832.122 Q37.7561 833.185 38.6579 834.473 Q39.5274 835.729 41.3309 836.921 Q43.1345 838.113 45.6143 838.918 Q46.3551 839.079 46.3551 839.787 Q46.3228 840.56 45.6787 840.56 Q45.1312 840.56 44.004 840.142 Q42.8446 839.691 41.3954 838.789 Q39.9461 837.855 38.6579 836.663 Q37.3374 835.44 36.4356 833.668 Q35.5339 831.865 35.5339 829.932 Q35.5339 829.063 35.7271 828.225 Q35.8881 827.356 36.3712 826.325 Q36.8543 825.263 37.9171 824.329 Q38.9799 823.395 40.5258 822.815 Q39.7851 822.428 39.0765 821.913 Q38.368 821.366 37.4984 820.528 Q36.5967 819.659 36.0814 818.467 Q35.5339 817.243 35.5339 815.891 Q35.5339 814.57 35.8881 813.282 Q36.2102 811.994 37.273 810.899 Q38.3036 809.772 39.8817 809.772 Z" fill="#000000" fill-rule="nonzero" fill-opacity="1" /><path clip-path="url(#clip340)" d="M57.3371 803.05 L55.8942 803.05 Q55.8942 797.504 52.941 794.641 Q52.941 793.852 53.1213 793.717 Q53.3017 793.582 54.1358 793.582 L80.039 793.582 Q81.4142 793.582 81.8425 792.905 Q82.2708 792.229 82.2708 789.276 L82.2708 787.81 L83.6911 787.81 Q83.5559 789.434 83.5559 795.295 Q83.5559 801.157 83.6911 802.757 L82.2708 802.757 L82.2708 801.292 Q82.2708 798.384 81.8651 797.685 Q81.4367 796.986 80.039 796.986 L56.1197 796.986 Q57.3371 799.398 57.3371 803.05 Z" fill="#000000" fill-rule="nonzero" fill-opacity="1" /><path clip-path="url(#clip340)" d="M54.6642 762.614 Q53.859 762.549 53.859 761.293 L53.859 720.875 Q53.859 718.975 54.5998 718.943 Q55.4049 718.943 55.3727 720.746 L55.3727 760.843 Q55.4049 762.614 54.6642 762.614 M41.7818 762.614 Q40.9767 762.614 41.0089 761.229 L41.0089 720.94 Q41.0089 718.975 41.7818 718.943 Q42.5226 718.943 42.5226 720.617 L42.5226 761.293 Q42.5226 762.614 41.7818 762.614 Z" fill="#000000" fill-rule="nonzero" fill-opacity="1" /><path clip-path="url(#clip340)" d="M48.384 653.658 Q48.5773 653.658 49.318 653.916 L63.553 659.133 Q64.3903 659.423 64.5514 659.713 Q64.6802 660.003 64.6802 661.194 L64.6802 691.726 Q64.6802 692.466 64.648 692.756 Q64.6158 693.046 64.4547 693.272 Q64.2937 693.497 63.9395 693.497 Q63.2953 693.497 63.0055 693.272 Q62.7156 693.014 62.6834 692.724 Q62.6512 692.434 62.6512 691.726 Q62.6512 690.115 62.5546 689.149 Q62.458 688.183 62.3292 687.571 Q62.1681 686.927 61.7172 686.605 Q61.2664 686.251 60.8799 686.09 Q60.4612 685.929 59.5273 685.703 L24.1008 676.879 Q23.038 676.621 22.877 676.621 Q22.2651 676.621 22.104 677.008 Q21.9108 677.362 21.8142 678.392 L21.6854 680.904 Q21.6854 681.677 21.6532 681.999 Q21.621 682.289 21.4599 682.515 Q21.2989 682.74 20.9446 682.74 Q20.3327 682.74 20.0429 682.515 Q19.7208 682.257 19.6886 682.064 Q19.6242 681.838 19.6242 681.484 L19.8174 672.724 L19.6242 662.966 Q19.6242 661.903 20.4293 661.903 Q21.3311 661.903 21.5243 662.354 Q21.6854 662.805 21.6854 664.415 Q21.6854 667.507 22.0074 668.924 Q22.3295 670.309 22.877 670.695 Q23.3923 671.049 24.7771 671.404 L60.3968 680.325 Q61.5884 680.647 61.9105 680.647 Q62.2647 680.647 62.3936 680.486 Q62.4902 680.293 62.5546 679.777 Q62.6512 679.198 62.6512 678.328 L62.6512 672.144 Q62.6512 670.277 62.3614 668.634 Q62.0715 666.992 61.6528 665.736 Q61.2342 664.447 60.4612 663.288 Q59.6883 662.128 59.012 661.323 Q58.3034 660.486 57.2084 659.681 Q56.0812 658.843 55.3083 658.36 Q54.5031 657.845 53.2149 657.265 Q51.8945 656.686 51.1537 656.396 Q50.3808 656.074 49.0603 655.591 Q48.384 655.301 48.1908 655.204 Q47.9976 655.108 47.8365 654.947 Q47.6755 654.753 47.6755 654.463 Q47.6755 654.077 47.9009 653.884 Q48.1264 653.658 48.384 653.658 Z" fill="#000000" fill-rule="nonzero" fill-opacity="1" /><path clip-path="url(#clip340)" d="M80.2356 649.03 Q79.9136 649.03 79.205 648.773 L16.9833 625.488 Q16.9189 625.488 16.5646 625.327 Q16.2104 625.166 15.9849 625.069 Q15.7273 624.973 15.534 624.779 Q15.3408 624.554 15.3408 624.296 Q15.3408 623.652 16.146 623.652 Q16.2104 623.652 16.9833 623.845 L79.2694 647.195 Q80.3966 647.581 80.7187 647.839 Q81.0408 648.064 81.0408 648.451 Q81.0408 649.03 80.2356 649.03 Z" fill="#000000" fill-rule="nonzero" fill-opacity="1" /><path clip-path="url(#clip340)" d="M53.7946 616.366 L51.7656 616.366 L20.8158 596.109 Q20.0107 595.594 20.0429 594.788 Q20.0429 594.048 20.3327 593.887 Q20.6226 593.726 21.7498 593.726 L51.7656 593.726 L51.7656 587.123 L53.7946 587.123 L53.7946 593.726 L59.5273 593.726 Q61.4274 593.726 62.0393 592.953 Q62.6512 592.148 62.6512 588.734 L62.6512 587.349 L64.6802 587.349 Q64.487 590.054 64.487 596.302 Q64.487 602.518 64.6802 605.223 L62.6512 605.223 L62.6512 603.838 Q62.6512 600.425 62.0715 599.619 Q61.4596 598.814 59.5273 598.814 L53.7946 598.814 L53.7946 616.366 M51.7656 614.498 L51.7656 598.428 L27.1604 598.428 L51.7656 614.498 Z" fill="#000000" fill-rule="nonzero" fill-opacity="1" /><path clip-path="url(#clip340)" d="M4.65187 557.38 L4.65187 543.885 L9.20335 543.885 L9.20335 551.524 L58.2193 551.524 L58.2193 543.885 L62.7708 543.885 L62.7708 557.38 L4.65187 557.38 Z" fill="#000000" fill-rule="nonzero" fill-opacity="1" /><path clip-path="url(#clip340)" d="M25.3722 503.654 Q21.4255 501.457 19.5476 498.402 Q17.6697 495.346 17.6697 491.209 Q17.6697 485.639 21.5846 482.615 Q25.4677 479.591 32.661 479.591 L54.1771 479.591 L54.1771 485.479 L32.8519 485.479 Q27.7276 485.479 25.2449 487.294 Q22.7623 489.108 22.7623 492.832 Q22.7623 497.383 25.786 500.025 Q28.8097 502.667 34.0296 502.667 L54.1771 502.667 L54.1771 508.555 L32.8519 508.555 Q27.6957 508.555 25.2449 510.369 Q22.7623 512.184 22.7623 515.971 Q22.7623 520.459 25.8178 523.101 Q28.8416 525.743 34.0296 525.743 L54.1771 525.743 L54.1771 531.631 L18.5291 531.631 L18.5291 525.743 L24.0673 525.743 Q20.7889 523.737 19.2293 520.936 Q17.6697 518.136 17.6697 514.284 Q17.6697 510.401 19.6431 507.696 Q21.6165 504.959 25.3722 503.654 Z" fill="#000000" fill-rule="nonzero" fill-opacity="1" /><path clip-path="url(#clip340)" d="M4.65187 454.224 L62.7708 454.224 L62.7708 467.719 L58.2193 467.719 L58.2193 460.112 L9.20335 460.112 L9.20335 467.719 L4.65187 467.719 L4.65187 454.224 Z" fill="#000000" fill-rule="nonzero" fill-opacity="1" /><polyline clip-path="url(#clip342)" style="stroke:#000000; stroke-linecap:round; stroke-linejoin:round; stroke-width:8; stroke-opacity:1; fill:none" points="373.936,497.045 393.148,459.573 412.36,423.154 431.572,387.971 450.784,354.165 469.996,321.871 489.207,291.219 508.419,262.33 527.631,235.321 546.843,210.297 566.055,187.355 585.267,166.587 604.479,148.071 623.69,131.877 642.902,118.065 662.114,106.688 681.326,97.785 700.538,91.3875 719.75,87.517 738.961,86.1857 758.173,87.3964 777.385,91.1434 796.597,97.4126 815.809,106.181 835.021,117.417 854.232,131.079 873.444,147.117 892.656,165.473 911.868,186.08 931.08,208.861 950.292,233.731 969.503,260.594 988.715,289.349 1007.93,319.883 1027.14,352.075 1046.35,385.796 1065.56,420.914 1084.77,457.287 1103.99,494.769 1123.2,533.211 1142.41,572.458 1161.62,612.353 1180.83,652.736 1200.05,693.445 1219.26,734.318 1238.47,775.193 1257.68,815.908 1276.89,856.303 1296.1,896.218 1315.32,935.494 1334.53,973.976 1353.74,1011.51 1372.95,1047.95 1392.16,1083.14 1411.38,1116.95 1430.59,1149.23 1449.8,1179.87 1469.01,1208.74 1488.22,1235.72 1507.43,1260.71 1526.65,1283.61 1545.86,1304.33 1565.07,1322.79 1584.28,1338.92 1603.49,1352.67 1622.71,1363.99 1641.92,1372.83 1661.13,1379.16 1680.34,1382.97 1699.55,1384.24 1718.77,1382.97 1737.98,1379.17 1757.19,1372.85 1776.4,1364.05 1795.61,1352.78 1814.82,1339.1 1834.04,1323.05 1853.25,1304.69 1872.46,1284.09 1891.67,1261.33 1910.88,1236.49 1930.1,1209.66 1949.31,1180.95 1968.52,1150.47 1987.73,1118.34 2006.94,1084.68 2026.15,1049.62 2045.37,1013.31 2064.58,975.895 2083.79,937.515 2103,898.326 2122.21,858.486 2141.43,818.153 2160.64,777.486 2179.85,736.647 2199.06,695.797 2218.27,655.1 2237.48,614.717 2256.7,574.807 2275.91,535.528 2295.12,497.034 "/>
<circle clip-path="url(#clip342)" cx="373.936" cy="497.083" r="18" fill="#0000ff" fill-rule="evenodd" fill-opacity="1" stroke="none"/>
<circle clip-path="url(#clip342)" cx="469.996" cy="322.166" r="18" fill="#0000ff" fill-rule="evenodd" fill-opacity="1" stroke="none"/>
<circle clip-path="url(#clip342)" cx="566.055" cy="187.705" r="18" fill="#0000ff" fill-rule="evenodd" fill-opacity="1" stroke="none"/>
<circle clip-path="url(#clip342)" cx="662.114" cy="106.861" r="18" fill="#0000ff" fill-rule="evenodd" fill-opacity="1" stroke="none"/>
<circle clip-path="url(#clip342)" cx="758.173" cy="87.5478" r="18" fill="#0000ff" fill-rule="evenodd" fill-opacity="1" stroke="none"/>
<circle clip-path="url(#clip342)" cx="854.232" cy="131.656" r="18" fill="#0000ff" fill-rule="evenodd" fill-opacity="1" stroke="none"/>
<circle clip-path="url(#clip342)" cx="950.292" cy="234.868" r="18" fill="#0000ff" fill-rule="evenodd" fill-opacity="1" stroke="none"/>
<circle clip-path="url(#clip342)" cx="1046.35" cy="387.08" r="18" fill="#0000ff" fill-rule="evenodd" fill-opacity="1" stroke="none"/>
<circle clip-path="url(#clip342)" cx="1142.41" cy="573.394" r="18" fill="#0000ff" fill-rule="evenodd" fill-opacity="1" stroke="none"/>
<circle clip-path="url(#clip342)" cx="1238.47" cy="775.571" r="18" fill="#0000ff" fill-rule="evenodd" fill-opacity="1" stroke="none"/>
<circle clip-path="url(#clip342)" cx="1334.53" cy="973.821" r="18" fill="#0000ff" fill-rule="evenodd" fill-opacity="1" stroke="none"/>
<circle clip-path="url(#clip342)" cx="1430.59" cy="1148.74" r="18" fill="#0000ff" fill-rule="evenodd" fill-opacity="1" stroke="none"/>
<circle clip-path="url(#clip342)" cx="1526.65" cy="1283.2" r="18" fill="#0000ff" fill-rule="evenodd" fill-opacity="1" stroke="none"/>
<circle clip-path="url(#clip342)" cx="1622.71" cy="1364.04" r="18" fill="#0000ff" fill-rule="evenodd" fill-opacity="1" stroke="none"/>
<circle clip-path="url(#clip342)" cx="1718.77" cy="1383.36" r="18" fill="#0000ff" fill-rule="evenodd" fill-opacity="1" stroke="none"/>
<circle clip-path="url(#clip342)" cx="1814.82" cy="1339.25" r="18" fill="#0000ff" fill-rule="evenodd" fill-opacity="1" stroke="none"/>
<circle clip-path="url(#clip342)" cx="1910.88" cy="1236.04" r="18" fill="#0000ff" fill-rule="evenodd" fill-opacity="1" stroke="none"/>
<circle clip-path="url(#clip342)" cx="2006.94" cy="1083.82" r="18" fill="#0000ff" fill-rule="evenodd" fill-opacity="1" stroke="none"/>
<circle clip-path="url(#clip342)" cx="2103" cy="897.509" r="18" fill="#0000ff" fill-rule="evenodd" fill-opacity="1" stroke="none"/>
<circle clip-path="url(#clip342)" cx="2199.06" cy="695.332" r="18" fill="#0000ff" fill-rule="evenodd" fill-opacity="1" stroke="none"/>
<circle clip-path="url(#clip342)" cx="2295.12" cy="497.083" r="18" fill="#0000ff" fill-rule="evenodd" fill-opacity="1" stroke="none"/>
<path clip-path="url(#clip340)" d="M1814.08 248.629 L2284.87 248.629 L2284.87 93.1086 L1814.08 93.1086  Z" fill="#ffffff" fill-rule="evenodd" fill-opacity="1"/>
<polyline clip-path="url(#clip340)" style="stroke:#000000; stroke-linecap:round; stroke-linejoin:round; stroke-width:4; stroke-opacity:1; fill:none" points="1814.08,248.629 2284.87,248.629 2284.87,93.1086 1814.08,93.1086 1814.08,248.629 "/>
<polyline clip-path="url(#clip340)" style="stroke:#000000; stroke-linecap:round; stroke-linejoin:round; stroke-width:8; stroke-opacity:1; fill:none" points="1836.7,144.949 1972.47,144.949 "/>
<path clip-path="url(#clip340)" d="M2010.93 132.275 L2004.59 149.474 L2017.29 149.474 L2010.93 132.275 M2008.29 127.669 L2013.59 127.669 L2026.76 162.229 L2021.9 162.229 L2018.75 153.363 L2003.17 153.363 L2000.03 162.229 L1995.1 162.229 L2008.29 127.669 Z" fill="#000000" fill-rule="nonzero" fill-opacity="1" /><path clip-path="url(#clip340)" d="M2052.97 148.201 L2052.97 150.284 L2033.38 150.284 Q2033.66 154.682 2036.02 156.997 Q2038.41 159.289 2042.64 159.289 Q2045.1 159.289 2047.39 158.687 Q2049.7 158.085 2051.97 156.881 L2051.97 160.909 Q2049.68 161.881 2047.27 162.391 Q2044.86 162.9 2042.39 162.9 Q2036.18 162.9 2032.55 159.289 Q2028.94 155.678 2028.94 149.52 Q2028.94 143.155 2032.36 139.428 Q2035.81 135.678 2041.65 135.678 Q2046.88 135.678 2049.91 139.057 Q2052.97 142.414 2052.97 148.201 M2048.71 146.951 Q2048.66 143.456 2046.74 141.372 Q2044.84 139.289 2041.69 139.289 Q2038.13 139.289 2035.97 141.303 Q2033.85 143.317 2033.52 146.974 L2048.71 146.951 Z" fill="#000000" fill-rule="nonzero" fill-opacity="1" /><path clip-path="url(#clip340)" d="M2074.98 140.284 Q2074.26 139.868 2073.41 139.682 Q2072.57 139.474 2071.55 139.474 Q2067.94 139.474 2066 141.835 Q2064.08 144.173 2064.08 148.571 L2064.08 162.229 L2059.79 162.229 L2059.79 136.303 L2064.08 136.303 L2064.08 140.331 Q2065.42 137.969 2067.57 136.835 Q2069.72 135.678 2072.8 135.678 Q2073.24 135.678 2073.78 135.747 Q2074.31 135.794 2074.96 135.909 L2074.98 140.284 Z" fill="#000000" fill-rule="nonzero" fill-opacity="1" /><path clip-path="url(#clip340)" d="M2088.45 139.289 Q2085.03 139.289 2083.03 141.974 Q2081.04 144.636 2081.04 149.289 Q2081.04 153.942 2083.01 156.627 Q2085 159.289 2088.45 159.289 Q2091.85 159.289 2093.84 156.604 Q2095.84 153.918 2095.84 149.289 Q2095.84 144.682 2093.84 141.997 Q2091.85 139.289 2088.45 139.289 M2088.45 135.678 Q2094.01 135.678 2097.18 139.289 Q2100.35 142.9 2100.35 149.289 Q2100.35 155.655 2097.18 159.289 Q2094.01 162.9 2088.45 162.9 Q2082.87 162.9 2079.7 159.289 Q2076.55 155.655 2076.55 149.289 Q2076.55 142.9 2079.7 139.289 Q2082.87 135.678 2088.45 135.678 Z" fill="#000000" fill-rule="nonzero" fill-opacity="1" /><path clip-path="url(#clip340)" d="M2112.27 145.724 L2112.27 158.386 L2119.77 158.386 Q2123.54 158.386 2125.35 156.835 Q2127.18 155.261 2127.18 152.043 Q2127.18 148.803 2125.35 147.275 Q2123.54 145.724 2119.77 145.724 L2112.27 145.724 M2112.27 131.511 L2112.27 141.928 L2119.19 141.928 Q2122.62 141.928 2124.28 140.655 Q2125.97 139.358 2125.97 136.719 Q2125.97 134.104 2124.28 132.807 Q2122.62 131.511 2119.19 131.511 L2112.27 131.511 M2107.59 127.669 L2119.54 127.669 Q2124.89 127.669 2127.78 129.891 Q2130.67 132.113 2130.67 136.21 Q2130.67 139.382 2129.19 141.257 Q2127.71 143.131 2124.84 143.594 Q2128.29 144.335 2130.19 146.696 Q2132.11 149.034 2132.11 152.553 Q2132.11 157.182 2128.96 159.705 Q2125.81 162.229 2120 162.229 L2107.59 162.229 L2107.59 127.669 Z" fill="#000000" fill-rule="nonzero" fill-opacity="1" /><path clip-path="url(#clip340)" d="M2162.11 148.201 L2162.11 150.284 L2142.53 150.284 Q2142.8 154.682 2145.16 156.997 Q2147.55 159.289 2151.78 159.289 Q2154.24 159.289 2156.53 158.687 Q2158.84 158.085 2161.11 156.881 L2161.11 160.909 Q2158.82 161.881 2156.41 162.391 Q2154.01 162.9 2151.53 162.9 Q2145.33 162.9 2141.69 159.289 Q2138.08 155.678 2138.08 149.52 Q2138.08 143.155 2141.51 139.428 Q2144.96 135.678 2150.79 135.678 Q2156.02 135.678 2159.05 139.057 Q2162.11 142.414 2162.11 148.201 M2157.85 146.951 Q2157.8 143.456 2155.88 141.372 Q2153.98 139.289 2150.84 139.289 Q2147.27 139.289 2145.12 141.303 Q2142.99 143.317 2142.66 146.974 L2157.85 146.951 Z" fill="#000000" fill-rule="nonzero" fill-opacity="1" /><path clip-path="url(#clip340)" d="M2180.88 149.196 Q2175.72 149.196 2173.73 150.377 Q2171.74 151.557 2171.74 154.405 Q2171.74 156.673 2173.22 158.016 Q2174.72 159.335 2177.29 159.335 Q2180.84 159.335 2182.96 156.835 Q2185.12 154.312 2185.12 150.145 L2185.12 149.196 L2180.88 149.196 M2189.38 147.437 L2189.38 162.229 L2185.12 162.229 L2185.12 158.293 Q2183.66 160.655 2181.48 161.789 Q2179.31 162.9 2176.16 162.9 Q2172.18 162.9 2169.82 160.678 Q2167.48 158.432 2167.48 154.682 Q2167.48 150.307 2170.4 148.085 Q2173.34 145.863 2179.15 145.863 L2185.12 145.863 L2185.12 145.446 Q2185.12 142.507 2183.17 140.909 Q2181.25 139.289 2177.76 139.289 Q2175.53 139.289 2173.43 139.821 Q2171.32 140.354 2169.38 141.419 L2169.38 137.483 Q2171.71 136.581 2173.91 136.141 Q2176.11 135.678 2178.2 135.678 Q2183.82 135.678 2186.6 138.594 Q2189.38 141.511 2189.38 147.437 Z" fill="#000000" fill-rule="nonzero" fill-opacity="1" /><path clip-path="url(#clip340)" d="M2218.33 141.28 Q2219.93 138.409 2222.15 137.044 Q2224.38 135.678 2227.39 135.678 Q2231.44 135.678 2233.64 138.525 Q2235.83 141.349 2235.83 146.581 L2235.83 162.229 L2231.55 162.229 L2231.55 146.719 Q2231.55 142.993 2230.23 141.187 Q2228.91 139.382 2226.21 139.382 Q2222.9 139.382 2220.97 141.581 Q2219.05 143.78 2219.05 147.576 L2219.05 162.229 L2214.77 162.229 L2214.77 146.719 Q2214.77 142.969 2213.45 141.187 Q2212.13 139.382 2209.38 139.382 Q2206.11 139.382 2204.19 141.604 Q2202.27 143.803 2202.27 147.576 L2202.27 162.229 L2197.99 162.229 L2197.99 136.303 L2202.27 136.303 L2202.27 140.331 Q2203.73 137.946 2205.77 136.812 Q2207.8 135.678 2210.6 135.678 Q2213.43 135.678 2215.4 137.113 Q2217.39 138.548 2218.33 141.28 Z" fill="#000000" fill-rule="nonzero" fill-opacity="1" /><path clip-path="url(#clip340)" d="M2260.86 137.067 L2260.86 141.094 Q2259.05 140.169 2257.11 139.706 Q2255.16 139.243 2253.08 139.243 Q2249.91 139.243 2248.31 140.215 Q2246.74 141.187 2246.74 143.131 Q2246.74 144.613 2247.87 145.469 Q2249.01 146.303 2252.43 147.067 L2253.89 147.391 Q2258.43 148.363 2260.33 150.145 Q2262.25 151.905 2262.25 155.076 Q2262.25 158.687 2259.38 160.793 Q2256.53 162.9 2251.53 162.9 Q2249.45 162.9 2247.18 162.483 Q2244.93 162.09 2242.43 161.28 L2242.43 156.881 Q2244.79 158.108 2247.08 158.733 Q2249.38 159.335 2251.62 159.335 Q2254.63 159.335 2256.25 158.317 Q2257.87 157.275 2257.87 155.4 Q2257.87 153.664 2256.69 152.738 Q2255.53 151.812 2251.58 150.956 L2250.09 150.608 Q2246.14 149.775 2244.38 148.062 Q2242.62 146.326 2242.62 143.317 Q2242.62 139.659 2245.21 137.669 Q2247.8 135.678 2252.57 135.678 Q2254.93 135.678 2257.02 136.025 Q2259.1 136.372 2260.86 137.067 Z" fill="#000000" fill-rule="nonzero" fill-opacity="1" /><circle clip-path="url(#clip340)" cx="1904.59" cy="196.789" r="23.04" fill="#0000ff" fill-rule="evenodd" fill-opacity="1" stroke="none"/>
<path clip-path="url(#clip340)" d="M2010.93 184.115 L2004.59 201.314 L2017.29 201.314 L2010.93 184.115 M2008.29 179.509 L2013.59 179.509 L2026.76 214.069 L2021.9 214.069 L2018.75 205.203 L2003.17 205.203 L2000.03 214.069 L1995.1 214.069 L2008.29 179.509 Z" fill="#000000" fill-rule="nonzero" fill-opacity="1" /><path clip-path="url(#clip340)" d="M2053.17 198.421 L2053.17 214.069 L2048.91 214.069 L2048.91 198.559 Q2048.91 194.879 2047.48 193.05 Q2046.04 191.222 2043.17 191.222 Q2039.72 191.222 2037.73 193.421 Q2035.74 195.62 2035.74 199.416 L2035.74 214.069 L2031.46 214.069 L2031.46 188.143 L2035.74 188.143 L2035.74 192.171 Q2037.27 189.833 2039.33 188.675 Q2041.41 187.518 2044.12 187.518 Q2048.59 187.518 2050.88 190.296 Q2053.17 193.05 2053.17 198.421 Z" fill="#000000" fill-rule="nonzero" fill-opacity="1" /><path clip-path="url(#clip340)" d="M2073.45 201.036 Q2068.29 201.036 2066.3 202.217 Q2064.31 203.397 2064.31 206.245 Q2064.31 208.513 2065.79 209.856 Q2067.29 211.175 2069.86 211.175 Q2073.41 211.175 2075.53 208.675 Q2077.69 206.152 2077.69 201.985 L2077.69 201.036 L2073.45 201.036 M2081.95 199.277 L2081.95 214.069 L2077.69 214.069 L2077.69 210.133 Q2076.23 212.495 2074.05 213.629 Q2071.88 214.74 2068.73 214.74 Q2064.75 214.74 2062.39 212.518 Q2060.05 210.272 2060.05 206.522 Q2060.05 202.147 2062.97 199.925 Q2065.91 197.703 2071.72 197.703 L2077.69 197.703 L2077.69 197.286 Q2077.69 194.347 2075.74 192.749 Q2073.82 191.129 2070.33 191.129 Q2068.1 191.129 2066 191.661 Q2063.89 192.194 2061.95 193.259 L2061.95 189.323 Q2064.28 188.421 2066.48 187.981 Q2068.68 187.518 2070.77 187.518 Q2076.39 187.518 2079.17 190.434 Q2081.95 193.351 2081.95 199.277 Z" fill="#000000" fill-rule="nonzero" fill-opacity="1" /><path clip-path="url(#clip340)" d="M2090.72 178.05 L2094.98 178.05 L2094.98 214.069 L2090.72 214.069 L2090.72 178.05 Z" fill="#000000" fill-rule="nonzero" fill-opacity="1" /><path clip-path="url(#clip340)" d="M2114.68 216.476 Q2112.87 221.106 2111.16 222.518 Q2109.45 223.93 2106.58 223.93 L2103.17 223.93 L2103.17 220.365 L2105.67 220.365 Q2107.43 220.365 2108.41 219.532 Q2109.38 218.698 2110.56 215.596 L2111.32 213.652 L2100.84 188.143 L2105.35 188.143 L2113.45 208.421 L2121.55 188.143 L2126.07 188.143 L2114.68 216.476 Z" fill="#000000" fill-rule="nonzero" fill-opacity="1" /><path clip-path="url(#clip340)" d="M2136.16 180.782 L2136.16 188.143 L2144.93 188.143 L2144.93 191.453 L2136.16 191.453 L2136.16 205.527 Q2136.16 208.698 2137.02 209.601 Q2137.9 210.504 2140.56 210.504 L2144.93 210.504 L2144.93 214.069 L2140.56 214.069 Q2135.63 214.069 2133.75 212.24 Q2131.88 210.388 2131.88 205.527 L2131.88 191.453 L2128.75 191.453 L2128.75 188.143 L2131.88 188.143 L2131.88 180.782 L2136.16 180.782 Z" fill="#000000" fill-rule="nonzero" fill-opacity="1" /><path clip-path="url(#clip340)" d="M2150.53 188.143 L2154.79 188.143 L2154.79 214.069 L2150.53 214.069 L2150.53 188.143 M2150.53 178.05 L2154.79 178.05 L2154.79 183.444 L2150.53 183.444 L2150.53 178.05 Z" fill="#000000" fill-rule="nonzero" fill-opacity="1" /><path clip-path="url(#clip340)" d="M2182.36 189.138 L2182.36 193.12 Q2180.56 192.124 2178.73 191.638 Q2176.92 191.129 2175.07 191.129 Q2170.93 191.129 2168.64 193.768 Q2166.34 196.384 2166.34 201.129 Q2166.34 205.874 2168.64 208.513 Q2170.93 211.129 2175.07 211.129 Q2176.92 211.129 2178.73 210.643 Q2180.56 210.133 2182.36 209.138 L2182.36 213.073 Q2180.58 213.907 2178.66 214.323 Q2176.76 214.74 2174.61 214.74 Q2168.75 214.74 2165.3 211.059 Q2161.85 207.379 2161.85 201.129 Q2161.85 194.786 2165.33 191.152 Q2168.82 187.518 2174.89 187.518 Q2176.85 187.518 2178.73 187.935 Q2180.6 188.328 2182.36 189.138 Z" fill="#000000" fill-rule="nonzero" fill-opacity="1" /><path clip-path="url(#clip340)" d="M2201.55 201.036 Q2196.39 201.036 2194.4 202.217 Q2192.41 203.397 2192.41 206.245 Q2192.41 208.513 2193.89 209.856 Q2195.4 211.175 2197.96 211.175 Q2201.51 211.175 2203.64 208.675 Q2205.79 206.152 2205.79 201.985 L2205.79 201.036 L2201.55 201.036 M2210.05 199.277 L2210.05 214.069 L2205.79 214.069 L2205.79 210.133 Q2204.33 212.495 2202.15 213.629 Q2199.98 214.74 2196.83 214.74 Q2192.85 214.74 2190.49 212.518 Q2188.15 210.272 2188.15 206.522 Q2188.15 202.147 2191.07 199.925 Q2194.01 197.703 2199.82 197.703 L2205.79 197.703 L2205.79 197.286 Q2205.79 194.347 2203.84 192.749 Q2201.92 191.129 2198.43 191.129 Q2196.21 191.129 2194.1 191.661 Q2191.99 192.194 2190.05 193.259 L2190.05 189.323 Q2192.39 188.421 2194.59 187.981 Q2196.78 187.518 2198.87 187.518 Q2204.49 187.518 2207.27 190.434 Q2210.05 193.351 2210.05 199.277 Z" fill="#000000" fill-rule="nonzero" fill-opacity="1" /><path clip-path="url(#clip340)" d="M2218.82 178.05 L2223.08 178.05 L2223.08 214.069 L2218.82 214.069 L2218.82 178.05 Z" fill="#000000" fill-rule="nonzero" fill-opacity="1" /></svg>
