<?xml version="1.0" encoding="utf-8"?>
<svg xmlns="http://www.w3.org/2000/svg" xmlns:xlink="http://www.w3.org/1999/xlink" width="600" height="400" viewBox="0 0 2400 1600">
<defs>
  <clipPath id="clip680">
    <rect x="0" y="0" width="2400" height="1600"/>
  </clipPath>
</defs>
<path clip-path="url(#clip680)" d="M0 1600 L2400 1600 L2400 0 L0 0  Z" fill="#ffffff" fill-rule="evenodd" fill-opacity="1"/>
<defs>
  <clipPath id="clip681">
    <rect x="480" y="0" width="1681" height="1600"/>
  </clipPath>
</defs>
<path clip-path="url(#clip680)" d="M219.38 1423.18 L2352.76 1423.18 L2352.76 47.2441 L219.38 47.2441  Z" fill="#ffffff" fill-rule="evenodd" fill-opacity="1"/>
<defs>
  <clipPath id="clip682">
    <rect x="219" y="47" width="2134" height="1377"/>
  </clipPath>
</defs>
<polyline clip-path="url(#clip682)" style="stroke:#000000; stroke-linecap:round; stroke-linejoin:round; stroke-width:2; stroke-opacity:0.1; fill:none" points="219.38,1423.18 219.38,47.2441 "/>
<polyline clip-path="url(#clip682)" style="stroke:#000000; stroke-linecap:round; stroke-linejoin:round; stroke-width:2; stroke-opacity:0.1; fill:none" points="574.943,1423.18 574.943,47.2441 "/>
<polyline clip-path="url(#clip682)" style="stroke:#000000; stroke-linecap:round; stroke-linejoin:round; stroke-width:2; stroke-opacity:0.1; fill:none" points="930.505,1423.18 930.505,47.2441 "/>
<polyline clip-path="url(#clip682)" style="stroke:#000000; stroke-linecap:round; stroke-linejoin:round; stroke-width:2; stroke-opacity:0.1; fill:none" points="1286.07,1423.18 1286.07,47.2441 "/>
<polyline clip-path="url(#clip682)" style="stroke:#000000; stroke-linecap:round; stroke-linejoin:round; stroke-width:2; stroke-opacity:0.1; fill:none" points="1641.63,1423.18 1641.63,47.2441 "/>
<polyline clip-path="url(#clip682)" style="stroke:#000000; stroke-linecap:round; stroke-linejoin:round; stroke-width:2; stroke-opacity:0.1; fill:none" points="1997.19,1423.18 1997.19,47.2441 "/>
<polyline clip-path="url(#clip682)" style="stroke:#000000; stroke-linecap:round; stroke-linejoin:round; stroke-width:2; stroke-opacity:0.1; fill:none" points="2352.76,1423.18 2352.76,47.2441 "/>
<polyline clip-path="url(#clip682)" style="stroke:#000000; stroke-linecap:round; stroke-linejoin:round; stroke-width:2; stroke-opacity:0.1; fill:none" points="219.38,1384.24 2352.76,1384.24 "/>
<polyline clip-path="url(#clip682)" style="stroke:#000000; stroke-linecap:round; stroke-linejoin:round; stroke-width:2; stroke-opacity:0.1; fill:none" points="219.38,1117 2352.76,1117 "/>
<polyline clip-path="url(#clip682)" style="stroke:#000000; stroke-linecap:round; stroke-linejoin:round; stroke-width:2; stroke-opacity:0.1; fill:none" points="219.38,849.753 2352.76,849.753 "/>
<polyline clip-path="url(#clip682)" style="stroke:#000000; stroke-linecap:round; stroke-linejoin:round; stroke-width:2; stroke-opacity:0.1; fill:none" points="219.38,582.511 2352.76,582.511 "/>
<polyline clip-path="url(#clip682)" style="stroke:#000000; stroke-linecap:round; stroke-linejoin:round; stroke-width:2; stroke-opacity:0.1; fill:none" points="219.38,315.268 2352.76,315.268 "/>
<polyline clip-path="url(#clip682)" style="stroke:#000000; stroke-linecap:round; stroke-linejoin:round; stroke-width:2; stroke-opacity:0.1; fill:none" points="219.38,48.0258 2352.76,48.0258 "/>
<polyline clip-path="url(#clip680)" style="stroke:#000000; stroke-linecap:round; stroke-linejoin:round; stroke-width:4; stroke-opacity:1; fill:none" points="219.38,1423.18 2352.76,1423.18 "/>
<polyline clip-path="url(#clip680)" style="stroke:#000000; stroke-linecap:round; stroke-linejoin:round; stroke-width:4; stroke-opacity:1; fill:none" points="219.38,1423.18 219.38,1404.28 "/>
<polyline clip-path="url(#clip680)" style="stroke:#000000; stroke-linecap:round; stroke-linejoin:round; stroke-width:4; stroke-opacity:1; fill:none" points="574.943,1423.18 574.943,1404.28 "/>
<polyline clip-path="url(#clip680)" style="stroke:#000000; stroke-linecap:round; stroke-linejoin:round; stroke-width:4; stroke-opacity:1; fill:none" points="930.505,1423.18 930.505,1404.28 "/>
<polyline clip-path="url(#clip680)" style="stroke:#000000; stroke-linecap:round; stroke-linejoin:round; stroke-width:4; stroke-opacity:1; fill:none" points="1286.07,1423.18 1286.07,1404.28 "/>
<polyline clip-path="url(#clip680)" style="stroke:#000000; stroke-linecap:round; stroke-linejoin:round; stroke-width:4; stroke-opacity:1; fill:none" points="1641.63,1423.18 1641.63,1404.28 "/>
<polyline clip-path="url(#clip680)" style="stroke:#000000; stroke-linecap:round; stroke-linejoin:round; stroke-width:4; stroke-opacity:1; fill:none" points="1997.19,1423.18 1997.19,1404.28 "/>
<polyline clip-path="url(#clip680)" style="stroke:#000000; stroke-linecap:round; stroke-linejoin:round; stroke-width:4; stroke-opacity:1; fill:none" points="2352.76,1423.18 2352.76,1404.28 "/>
<path clip-path="url(#clip680)" d="M219.38 1454.1 Q215.769 1454.1 213.94 1457.66 Q212.135 1461.2 212.135 1468.33 Q212.135 1475.44 213.94 1479.01 Q215.769 1482.55 219.38 1482.55 Q223.014 1482.55 224.82 1479.01 Q226.649 1475.44 226.649 1468.33 Q226.649 1461.2 224.82 1457.66 Q223.014 1454.1 219.38 1454.1 M219.38 1450.39 Q225.19 1450.39 228.246 1455 Q231.325 1459.58 231.325 1468.33 Q231.325 1477.06 228.246 1481.67 Q225.19 1486.25 219.38 1486.25 Q213.57 1486.25 210.491 1481.67 Q207.436 1477.06 207.436 1468.33 Q207.436 1459.58 210.491 1455 Q213.57 1450.39 219.38 1450.39 Z" fill="#000000" fill-rule="nonzero" fill-opacity="1" /><path clip-path="url(#clip680)" d="M549.63 1481.64 L557.269 1481.64 L557.269 1455.28 L548.959 1456.95 L548.959 1452.69 L557.223 1451.02 L561.899 1451.02 L561.899 1481.64 L569.538 1481.64 L569.538 1485.58 L549.63 1485.58 L549.63 1481.64 Z" fill="#000000" fill-rule="nonzero" fill-opacity="1" /><path clip-path="url(#clip680)" d="M588.982 1454.1 Q585.371 1454.1 583.542 1457.66 Q581.737 1461.2 581.737 1468.33 Q581.737 1475.44 583.542 1479.01 Q585.371 1482.55 588.982 1482.55 Q592.616 1482.55 594.422 1479.01 Q596.251 1475.44 596.251 1468.33 Q596.251 1461.2 594.422 1457.66 Q592.616 1454.1 588.982 1454.1 M588.982 1450.39 Q594.792 1450.39 597.848 1455 Q600.926 1459.58 600.926 1468.33 Q600.926 1477.06 597.848 1481.67 Q594.792 1486.25 588.982 1486.25 Q583.172 1486.25 580.093 1481.67 Q577.038 1477.06 577.038 1468.33 Q577.038 1459.58 580.093 1455 Q583.172 1450.39 588.982 1450.39 Z" fill="#000000" fill-rule="nonzero" fill-opacity="1" /><path clip-path="url(#clip680)" d="M909.279 1481.64 L925.598 1481.64 L925.598 1485.58 L903.654 1485.58 L903.654 1481.64 Q906.316 1478.89 910.899 1474.26 Q915.505 1469.61 916.686 1468.27 Q918.931 1465.74 919.811 1464.01 Q920.714 1462.25 920.714 1460.56 Q920.714 1457.8 918.769 1456.07 Q916.848 1454.33 913.746 1454.33 Q911.547 1454.33 909.093 1455.09 Q906.663 1455.86 903.885 1457.41 L903.885 1452.69 Q906.709 1451.55 909.163 1450.97 Q911.617 1450.39 913.654 1450.39 Q919.024 1450.39 922.218 1453.08 Q925.413 1455.77 925.413 1460.26 Q925.413 1462.39 924.603 1464.31 Q923.816 1466.2 921.709 1468.8 Q921.13 1469.47 918.029 1472.69 Q914.927 1475.88 909.279 1481.64 Z" fill="#000000" fill-rule="nonzero" fill-opacity="1" /><path clip-path="url(#clip680)" d="M945.413 1454.1 Q941.802 1454.1 939.973 1457.66 Q938.167 1461.2 938.167 1468.33 Q938.167 1475.44 939.973 1479.01 Q941.802 1482.55 945.413 1482.55 Q949.047 1482.55 950.853 1479.01 Q952.681 1475.44 952.681 1468.33 Q952.681 1461.2 950.853 1457.66 Q949.047 1454.1 945.413 1454.1 M945.413 1450.39 Q951.223 1450.39 954.278 1455 Q957.357 1459.58 957.357 1468.33 Q957.357 1477.06 954.278 1481.67 Q951.223 1486.25 945.413 1486.25 Q939.603 1486.25 936.524 1481.67 Q933.468 1477.06 933.468 1468.33 Q933.468 1459.58 936.524 1455 Q939.603 1450.39 945.413 1450.39 Z" fill="#000000" fill-rule="nonzero" fill-opacity="1" /><path clip-path="url(#clip680)" d="M1274.91 1466.95 Q1278.27 1467.66 1280.14 1469.93 Q1282.04 1472.2 1282.04 1475.53 Q1282.04 1480.65 1278.52 1483.45 Q1275 1486.25 1268.52 1486.25 Q1266.35 1486.25 1264.03 1485.81 Q1261.74 1485.39 1259.29 1484.54 L1259.29 1480.02 Q1261.23 1481.16 1263.55 1481.74 Q1265.86 1482.32 1268.38 1482.32 Q1272.78 1482.32 1275.07 1480.58 Q1277.39 1478.84 1277.39 1475.53 Q1277.39 1472.48 1275.23 1470.77 Q1273.11 1469.03 1269.29 1469.03 L1265.26 1469.03 L1265.26 1465.19 L1269.47 1465.19 Q1272.92 1465.19 1274.75 1463.82 Q1276.58 1462.43 1276.58 1459.84 Q1276.58 1457.18 1274.68 1455.77 Q1272.8 1454.33 1269.29 1454.33 Q1267.36 1454.33 1265.17 1454.75 Q1262.97 1455.16 1260.33 1456.04 L1260.33 1451.88 Q1262.99 1451.14 1265.3 1450.77 Q1267.64 1450.39 1269.7 1450.39 Q1275.03 1450.39 1278.13 1452.83 Q1281.23 1455.23 1281.23 1459.35 Q1281.23 1462.22 1279.59 1464.21 Q1277.94 1466.18 1274.91 1466.95 Z" fill="#000000" fill-rule="nonzero" fill-opacity="1" /><path clip-path="url(#clip680)" d="M1300.91 1454.1 Q1297.29 1454.1 1295.47 1457.66 Q1293.66 1461.2 1293.66 1468.33 Q1293.66 1475.44 1295.47 1479.01 Q1297.29 1482.55 1300.91 1482.55 Q1304.54 1482.55 1306.35 1479.01 Q1308.17 1475.44 1308.17 1468.33 Q1308.17 1461.2 1306.35 1457.66 Q1304.54 1454.1 1300.91 1454.1 M1300.91 1450.39 Q1306.72 1450.39 1309.77 1455 Q1312.85 1459.58 1312.85 1468.33 Q1312.85 1477.06 1309.77 1481.67 Q1306.72 1486.25 1300.91 1486.25 Q1295.1 1486.25 1292.02 1481.67 Q1288.96 1477.06 1288.96 1468.33 Q1288.96 1459.58 1292.02 1455 Q1295.1 1450.39 1300.91 1450.39 Z" fill="#000000" fill-rule="nonzero" fill-opacity="1" /><path clip-path="url(#clip680)" d="M1629.8 1455.09 L1618 1473.54 L1629.8 1473.54 L1629.8 1455.09 M1628.58 1451.02 L1634.45 1451.02 L1634.45 1473.54 L1639.39 1473.54 L1639.39 1477.43 L1634.45 1477.43 L1634.45 1485.58 L1629.8 1485.58 L1629.8 1477.43 L1614.2 1477.43 L1614.2 1472.92 L1628.58 1451.02 Z" fill="#000000" fill-rule="nonzero" fill-opacity="1" /><path clip-path="url(#clip680)" d="M1657.12 1454.1 Q1653.51 1454.1 1651.68 1457.66 Q1649.87 1461.2 1649.87 1468.33 Q1649.87 1475.44 1651.68 1479.01 Q1653.51 1482.55 1657.12 1482.55 Q1660.75 1482.55 1662.56 1479.01 Q1664.39 1475.44 1664.39 1468.33 Q1664.39 1461.2 1662.56 1457.66 Q1660.75 1454.1 1657.12 1454.1 M1657.12 1450.39 Q1662.93 1450.39 1665.98 1455 Q1669.06 1459.58 1669.06 1468.33 Q1669.06 1477.06 1665.98 1481.67 Q1662.93 1486.25 1657.12 1486.25 Q1651.31 1486.25 1648.23 1481.67 Q1645.17 1477.06 1645.17 1468.33 Q1645.17 1459.58 1648.23 1455 Q1651.31 1450.39 1657.12 1450.39 Z" fill="#000000" fill-rule="nonzero" fill-opacity="1" /><path clip-path="url(#clip680)" d="M1971.89 1451.02 L1990.25 1451.02 L1990.25 1454.96 L1976.17 1454.96 L1976.17 1463.43 Q1977.19 1463.08 1978.21 1462.92 Q1979.23 1462.73 1980.25 1462.73 Q1986.04 1462.73 1989.42 1465.9 Q1992.8 1469.08 1992.8 1474.49 Q1992.8 1480.07 1989.32 1483.17 Q1985.85 1486.25 1979.53 1486.25 Q1977.36 1486.25 1975.09 1485.88 Q1972.84 1485.51 1970.43 1484.77 L1970.43 1480.07 Q1972.52 1481.2 1974.74 1481.76 Q1976.96 1482.32 1979.44 1482.32 Q1983.44 1482.32 1985.78 1480.21 Q1988.12 1478.1 1988.12 1474.49 Q1988.12 1470.88 1985.78 1468.77 Q1983.44 1466.67 1979.44 1466.67 Q1977.56 1466.67 1975.69 1467.08 Q1973.84 1467.5 1971.89 1468.38 L1971.89 1451.02 Z" fill="#000000" fill-rule="nonzero" fill-opacity="1" /><path clip-path="url(#clip680)" d="M2012.01 1454.1 Q2008.4 1454.1 2006.57 1457.66 Q2004.76 1461.2 2004.76 1468.33 Q2004.76 1475.44 2006.57 1479.01 Q2008.4 1482.55 2012.01 1482.55 Q2015.64 1482.55 2017.45 1479.01 Q2019.28 1475.44 2019.28 1468.33 Q2019.28 1461.2 2017.45 1457.66 Q2015.64 1454.1 2012.01 1454.1 M2012.01 1450.39 Q2017.82 1450.39 2020.87 1455 Q2023.95 1459.58 2023.95 1468.33 Q2023.95 1477.06 2020.87 1481.67 Q2017.82 1486.25 2012.01 1486.25 Q2006.2 1486.25 2003.12 1481.67 Q2000.06 1477.06 2000.06 1468.33 Q2000.06 1459.58 2003.12 1455 Q2006.2 1450.39 2012.01 1450.39 Z" fill="#000000" fill-rule="nonzero" fill-opacity="1" /><path clip-path="url(#clip680)" d="M2338.16 1466.44 Q2335.01 1466.44 2333.16 1468.59 Q2331.33 1470.74 2331.33 1474.49 Q2331.33 1478.22 2333.16 1480.39 Q2335.01 1482.55 2338.16 1482.55 Q2341.31 1482.55 2343.14 1480.39 Q2344.99 1478.22 2344.99 1474.49 Q2344.99 1470.74 2343.14 1468.59 Q2341.31 1466.44 2338.16 1466.44 M2347.44 1451.78 L2347.44 1456.04 Q2345.68 1455.21 2343.88 1454.77 Q2342.1 1454.33 2340.34 1454.33 Q2335.71 1454.33 2333.25 1457.45 Q2330.82 1460.58 2330.48 1466.9 Q2331.84 1464.89 2333.9 1463.82 Q2335.96 1462.73 2338.44 1462.73 Q2343.65 1462.73 2346.66 1465.9 Q2349.69 1469.05 2349.69 1474.49 Q2349.69 1479.82 2346.54 1483.03 Q2343.39 1486.25 2338.16 1486.25 Q2332.17 1486.25 2328.99 1481.67 Q2325.82 1477.06 2325.82 1468.33 Q2325.82 1460.14 2329.71 1455.28 Q2333.6 1450.39 2340.15 1450.39 Q2341.91 1450.39 2343.69 1450.74 Q2345.5 1451.09 2347.44 1451.78 Z" fill="#000000" fill-rule="nonzero" fill-opacity="1" /><path clip-path="url(#clip680)" d="M2367.74 1454.1 Q2364.13 1454.1 2362.3 1457.66 Q2360.5 1461.2 2360.5 1468.33 Q2360.5 1475.44 2362.3 1479.01 Q2364.13 1482.55 2367.74 1482.55 Q2371.38 1482.55 2373.18 1479.01 Q2375.01 1475.44 2375.01 1468.33 Q2375.01 1461.2 2373.18 1457.66 Q2371.38 1454.1 2367.74 1454.1 M2367.74 1450.39 Q2373.55 1450.39 2376.61 1455 Q2379.69 1459.58 2379.69 1468.33 Q2379.69 1477.06 2376.61 1481.67 Q2373.55 1486.25 2367.74 1486.25 Q2361.93 1486.25 2358.86 1481.67 Q2355.8 1477.06 2355.8 1468.33 Q2355.8 1459.58 2358.86 1455 Q2361.93 1450.39 2367.74 1450.39 Z" fill="#000000" fill-rule="nonzero" fill-opacity="1" /><path clip-path="url(#clip680)" d="M1072.18 1526.86 L1063.46 1550.51 L1080.93 1550.51 L1072.18 1526.86 M1068.55 1520.52 L1075.84 1520.52 L1093.95 1568.04 L1087.27 1568.04 L1082.94 1555.85 L1061.52 1555.85 L1057.19 1568.04 L1050.41 1568.04 L1068.55 1520.52 Z" fill="#000000" fill-rule="nonzero" fill-opacity="1" /><path clip-path="url(#clip680)" d="M1100.63 1532.4 L1106.49 1532.4 L1106.49 1568.04 L1100.63 1568.04 L1100.63 1532.4 M1100.63 1518.52 L1106.49 1518.52 L1106.49 1525.93 L1100.63 1525.93 L1100.63 1518.52 Z" fill="#000000" fill-rule="nonzero" fill-opacity="1" /><path clip-path="url(#clip680)" d="M1139.4 1537.87 Q1138.42 1537.3 1137.24 1537.04 Q1136.09 1536.76 1134.69 1536.76 Q1129.73 1536.76 1127.05 1540 Q1124.41 1543.22 1124.41 1549.27 L1124.41 1568.04 L1118.52 1568.04 L1118.52 1532.4 L1124.41 1532.4 L1124.41 1537.93 Q1126.26 1534.69 1129.22 1533.13 Q1132.18 1531.54 1136.41 1531.54 Q1137.02 1531.54 1137.75 1531.63 Q1138.48 1531.7 1139.37 1531.85 L1139.4 1537.87 Z" fill="#000000" fill-rule="nonzero" fill-opacity="1" /><path clip-path="url(#clip680)" d="M1168.27 1533.45 L1168.27 1538.98 Q1165.79 1537.71 1163.11 1537.07 Q1160.44 1536.44 1157.58 1536.44 Q1153.22 1536.44 1151.02 1537.77 Q1148.86 1539.11 1148.86 1541.79 Q1148.86 1543.82 1150.41 1545 Q1151.97 1546.15 1156.69 1547.2 L1158.69 1547.64 Q1164.93 1548.98 1167.54 1551.43 Q1170.18 1553.85 1170.18 1558.21 Q1170.18 1563.17 1166.23 1566.07 Q1162.32 1568.97 1155.44 1568.97 Q1152.58 1568.97 1149.46 1568.39 Q1146.37 1567.85 1142.94 1566.74 L1142.94 1560.69 Q1146.18 1562.38 1149.33 1563.24 Q1152.48 1564.07 1155.57 1564.07 Q1159.71 1564.07 1161.94 1562.66 Q1164.16 1561.23 1164.16 1558.65 Q1164.16 1556.27 1162.54 1554.99 Q1160.95 1553.72 1155.51 1552.54 L1153.47 1552.07 Q1148.03 1550.92 1145.61 1548.56 Q1143.19 1546.18 1143.19 1542.04 Q1143.19 1537.01 1146.75 1534.27 Q1150.32 1531.54 1156.88 1531.54 Q1160.12 1531.54 1162.99 1532.01 Q1165.85 1532.49 1168.27 1533.45 Z" fill="#000000" fill-rule="nonzero" fill-opacity="1" /><path clip-path="url(#clip680)" d="M1185.17 1562.7 L1185.17 1581.6 L1179.28 1581.6 L1179.28 1532.4 L1185.17 1532.4 L1185.17 1537.81 Q1187.02 1534.62 1189.82 1533.1 Q1192.65 1531.54 1196.57 1531.54 Q1203.06 1531.54 1207.1 1536.69 Q1211.18 1541.85 1211.18 1550.25 Q1211.18 1558.65 1207.1 1563.81 Q1203.06 1568.97 1196.57 1568.97 Q1192.65 1568.97 1189.82 1567.44 Q1187.02 1565.88 1185.17 1562.7 M1205.1 1550.25 Q1205.1 1543.79 1202.42 1540.13 Q1199.78 1536.44 1195.13 1536.44 Q1190.49 1536.44 1187.81 1540.13 Q1185.17 1543.79 1185.17 1550.25 Q1185.17 1556.71 1187.81 1560.4 Q1190.49 1564.07 1195.13 1564.07 Q1199.78 1564.07 1202.42 1560.4 Q1205.1 1556.71 1205.1 1550.25 Z" fill="#000000" fill-rule="nonzero" fill-opacity="1" /><path clip-path="url(#clip680)" d="M1251.37 1548.76 L1251.37 1551.62 L1224.45 1551.62 Q1224.83 1557.67 1228.08 1560.85 Q1231.35 1564 1237.18 1564 Q1240.55 1564 1243.7 1563.17 Q1246.89 1562.35 1250.01 1560.69 L1250.01 1566.23 Q1246.86 1567.57 1243.55 1568.27 Q1240.23 1568.97 1236.83 1568.97 Q1228.3 1568.97 1223.3 1564 Q1218.34 1559.04 1218.34 1550.57 Q1218.34 1541.82 1223.05 1536.69 Q1227.79 1531.54 1235.81 1531.54 Q1243 1531.54 1247.17 1536.18 Q1251.37 1540.8 1251.37 1548.76 M1245.52 1547.04 Q1245.45 1542.23 1242.81 1539.37 Q1240.2 1536.5 1235.87 1536.5 Q1230.97 1536.5 1228.01 1539.27 Q1225.08 1542.04 1224.64 1547.07 L1245.52 1547.04 Z" fill="#000000" fill-rule="nonzero" fill-opacity="1" /><path clip-path="url(#clip680)" d="M1291.48 1548.76 L1291.48 1551.62 L1264.55 1551.62 Q1264.93 1557.67 1268.18 1560.85 Q1271.46 1564 1277.28 1564 Q1280.66 1564 1283.81 1563.17 Q1286.99 1562.35 1290.11 1560.69 L1290.11 1566.23 Q1286.96 1567.57 1283.65 1568.27 Q1280.34 1568.97 1276.93 1568.97 Q1268.4 1568.97 1263.41 1564 Q1258.44 1559.04 1258.44 1550.57 Q1258.44 1541.82 1263.15 1536.69 Q1267.89 1531.54 1275.91 1531.54 Q1283.11 1531.54 1287.28 1536.18 Q1291.48 1540.8 1291.48 1548.76 M1285.62 1547.04 Q1285.56 1542.23 1282.92 1539.37 Q1280.31 1536.5 1275.98 1536.5 Q1271.08 1536.5 1268.12 1539.27 Q1265.19 1542.04 1264.74 1547.07 L1285.62 1547.04 Z" fill="#000000" fill-rule="nonzero" fill-opacity="1" /><path clip-path="url(#clip680)" d="M1324.55 1537.81 L1324.55 1518.52 L1330.41 1518.52 L1330.41 1568.04 L1324.55 1568.04 L1324.55 1562.7 Q1322.7 1565.88 1319.87 1567.44 Q1317.07 1568.97 1313.12 1568.97 Q1306.66 1568.97 1302.59 1563.81 Q1298.54 1558.65 1298.54 1550.25 Q1298.54 1541.85 1302.59 1536.69 Q1306.66 1531.54 1313.12 1531.54 Q1317.07 1531.54 1319.87 1533.1 Q1322.7 1534.62 1324.55 1537.81 M1304.59 1550.25 Q1304.59 1556.71 1307.23 1560.4 Q1309.91 1564.07 1314.55 1564.07 Q1319.2 1564.07 1321.88 1560.4 Q1324.55 1556.71 1324.55 1550.25 Q1324.55 1543.79 1321.88 1540.13 Q1319.2 1536.44 1314.55 1536.44 Q1309.91 1536.44 1307.23 1540.13 Q1304.59 1543.79 1304.59 1550.25 Z" fill="#000000" fill-rule="nonzero" fill-opacity="1" /><path clip-path="url(#clip680)" d="M1362.65 1518.52 L1376.14 1518.52 L1376.14 1523.07 L1368.5 1523.07 L1368.5 1572.09 L1376.14 1572.09 L1376.14 1576.64 L1362.65 1576.64 L1362.65 1518.52 Z" fill="#000000" fill-rule="nonzero" fill-opacity="1" /><path clip-path="url(#clip680)" d="M1416.37 1539.24 Q1418.57 1535.29 1421.63 1533.41 Q1424.68 1531.54 1428.82 1531.54 Q1434.39 1531.54 1437.41 1535.45 Q1440.44 1539.33 1440.44 1546.53 L1440.44 1568.04 L1434.55 1568.04 L1434.55 1546.72 Q1434.55 1541.59 1432.73 1539.11 Q1430.92 1536.63 1427.2 1536.63 Q1422.64 1536.63 1420 1539.65 Q1417.36 1542.68 1417.36 1547.9 L1417.36 1568.04 L1411.47 1568.04 L1411.47 1546.72 Q1411.47 1541.56 1409.66 1539.11 Q1407.84 1536.63 1404.06 1536.63 Q1399.57 1536.63 1396.93 1539.68 Q1394.29 1542.71 1394.29 1547.9 L1394.29 1568.04 L1388.4 1568.04 L1388.4 1532.4 L1394.29 1532.4 L1394.29 1537.93 Q1396.29 1534.66 1399.09 1533.1 Q1401.89 1531.54 1405.74 1531.54 Q1409.63 1531.54 1412.33 1533.51 Q1415.07 1535.48 1416.37 1539.24 Z" fill="#000000" fill-rule="nonzero" fill-opacity="1" /><path clip-path="url(#clip680)" d="M1462.53 1520.52 L1467.94 1520.52 L1451.39 1574.09 L1445.97 1574.09 L1462.53 1520.52 Z" fill="#000000" fill-rule="nonzero" fill-opacity="1" /><path clip-path="url(#clip680)" d="M1496.8 1533.45 L1496.8 1538.98 Q1494.32 1537.71 1491.65 1537.07 Q1488.97 1536.44 1486.11 1536.44 Q1481.75 1536.44 1479.55 1537.77 Q1477.39 1539.11 1477.39 1541.79 Q1477.39 1543.82 1478.95 1545 Q1480.51 1546.15 1485.22 1547.2 L1487.22 1547.64 Q1493.46 1548.98 1496.07 1551.43 Q1498.71 1553.85 1498.71 1558.21 Q1498.71 1563.17 1494.77 1566.07 Q1490.85 1568.97 1483.98 1568.97 Q1481.11 1568.97 1477.99 1568.39 Q1474.91 1567.85 1471.47 1566.74 L1471.47 1560.69 Q1474.72 1562.38 1477.87 1563.24 Q1481.02 1564.07 1484.11 1564.07 Q1488.24 1564.07 1490.47 1562.66 Q1492.7 1561.23 1492.7 1558.65 Q1492.7 1556.27 1491.08 1554.99 Q1489.48 1553.72 1484.04 1552.54 L1482 1552.07 Q1476.56 1550.92 1474.14 1548.56 Q1471.72 1546.18 1471.72 1542.04 Q1471.72 1537.01 1475.29 1534.27 Q1478.85 1531.54 1485.41 1531.54 Q1488.66 1531.54 1491.52 1532.01 Q1494.39 1532.49 1496.8 1533.45 Z" fill="#000000" fill-rule="nonzero" fill-opacity="1" /><path clip-path="url(#clip680)" d="M1521.73 1518.52 L1521.73 1576.64 L1508.23 1576.64 L1508.23 1572.09 L1515.84 1572.09 L1515.84 1523.07 L1508.23 1523.07 L1508.23 1518.52 L1521.73 1518.52 Z" fill="#000000" fill-rule="nonzero" fill-opacity="1" /><polyline clip-path="url(#clip680)" style="stroke:#000000; stroke-linecap:round; stroke-linejoin:round; stroke-width:4; stroke-opacity:1; fill:none" points="219.38,1423.18 219.38,47.2441 "/>
<polyline clip-path="url(#clip680)" style="stroke:#000000; stroke-linecap:round; stroke-linejoin:round; stroke-width:4; stroke-opacity:1; fill:none" points="219.38,1384.24 238.278,1384.24 "/>
<polyline clip-path="url(#clip680)" style="stroke:#000000; stroke-linecap:round; stroke-linejoin:round; stroke-width:4; stroke-opacity:1; fill:none" points="219.38,1117 238.278,1117 "/>
<polyline clip-path="url(#clip680)" style="stroke:#000000; stroke-linecap:round; stroke-linejoin:round; stroke-width:4; stroke-opacity:1; fill:none" points="219.38,849.753 238.278,849.753 "/>
<polyline clip-path="url(#clip680)" style="stroke:#000000; stroke-linecap:round; stroke-linejoin:round; stroke-width:4; stroke-opacity:1; fill:none" points="219.38,582.511 238.278,582.511 "/>
<polyline clip-path="url(#clip680)" style="stroke:#000000; stroke-linecap:round; stroke-linejoin:round; stroke-width:4; stroke-opacity:1; fill:none" points="219.38,315.268 238.278,315.268 "/>
<polyline clip-path="url(#clip680)" style="stroke:#000000; stroke-linecap:round; stroke-linejoin:round; stroke-width:4; stroke-opacity:1; fill:none" points="219.38,48.0258 238.278,48.0258 "/>
<path clip-path="url(#clip680)" d="M126.205 1370.04 Q122.593 1370.04 120.765 1373.6 Q118.959 1377.14 118.959 1384.27 Q118.959 1391.38 120.765 1394.94 Q122.593 1398.49 126.205 1398.49 Q129.839 1398.49 131.644 1394.94 Q133.473 1391.38 133.473 1384.27 Q133.473 1377.14 131.644 1373.6 Q129.839 1370.04 126.205 1370.04 M126.205 1366.33 Q132.015 1366.33 135.07 1370.94 Q138.149 1375.52 138.149 1384.27 Q138.149 1393 135.07 1397.61 Q132.015 1402.19 126.205 1402.19 Q120.394 1402.19 117.316 1397.61 Q114.26 1393 114.26 1384.27 Q114.26 1375.52 117.316 1370.94 Q120.394 1366.33 126.205 1366.33 Z" fill="#000000" fill-rule="nonzero" fill-opacity="1" /><path clip-path="url(#clip680)" d="M146.366 1395.64 L151.251 1395.64 L151.251 1401.52 L146.366 1401.52 L146.366 1395.64 Z" fill="#000000" fill-rule="nonzero" fill-opacity="1" /><path clip-path="url(#clip680)" d="M171.436 1370.04 Q167.825 1370.04 165.996 1373.6 Q164.19 1377.14 164.19 1384.27 Q164.19 1391.38 165.996 1394.94 Q167.825 1398.49 171.436 1398.49 Q175.07 1398.49 176.876 1394.94 Q178.704 1391.38 178.704 1384.27 Q178.704 1377.14 176.876 1373.6 Q175.07 1370.04 171.436 1370.04 M171.436 1366.33 Q177.246 1366.33 180.301 1370.94 Q183.38 1375.52 183.38 1384.27 Q183.38 1393 180.301 1397.61 Q177.246 1402.19 171.436 1402.19 Q165.626 1402.19 162.547 1397.61 Q159.491 1393 159.491 1384.27 Q159.491 1375.52 162.547 1370.94 Q165.626 1366.33 171.436 1366.33 Z" fill="#000000" fill-rule="nonzero" fill-opacity="1" /><path clip-path="url(#clip680)" d="M127.2 1102.79 Q123.589 1102.79 121.76 1106.36 Q119.955 1109.9 119.955 1117.03 Q119.955 1124.14 121.76 1127.7 Q123.589 1131.24 127.2 1131.24 Q130.834 1131.24 132.64 1127.7 Q134.468 1124.14 134.468 1117.03 Q134.468 1109.9 132.64 1106.36 Q130.834 1102.79 127.2 1102.79 M127.2 1099.09 Q133.01 1099.09 136.066 1103.7 Q139.144 1108.28 139.144 1117.03 Q139.144 1125.76 136.066 1130.36 Q133.01 1134.95 127.2 1134.95 Q121.39 1134.95 118.311 1130.36 Q115.256 1125.76 115.256 1117.03 Q115.256 1108.28 118.311 1103.7 Q121.39 1099.09 127.2 1099.09 Z" fill="#000000" fill-rule="nonzero" fill-opacity="1" /><path clip-path="url(#clip680)" d="M147.362 1128.4 L152.246 1128.4 L152.246 1134.28 L147.362 1134.28 L147.362 1128.4 Z" fill="#000000" fill-rule="nonzero" fill-opacity="1" /><path clip-path="url(#clip680)" d="M162.477 1099.72 L180.834 1099.72 L180.834 1103.65 L166.76 1103.65 L166.76 1112.12 Q167.778 1111.78 168.797 1111.61 Q169.815 1111.43 170.834 1111.43 Q176.621 1111.43 180.001 1114.6 Q183.38 1117.77 183.38 1123.19 Q183.38 1128.77 179.908 1131.87 Q176.436 1134.95 170.116 1134.95 Q167.94 1134.95 165.672 1134.58 Q163.427 1134.21 161.019 1133.47 L161.019 1128.77 Q163.102 1129.9 165.325 1130.46 Q167.547 1131.01 170.024 1131.01 Q174.028 1131.01 176.366 1128.9 Q178.704 1126.8 178.704 1123.19 Q178.704 1119.58 176.366 1117.47 Q174.028 1115.36 170.024 1115.36 Q168.149 1115.36 166.274 1115.78 Q164.422 1116.2 162.477 1117.08 L162.477 1099.72 Z" fill="#000000" fill-rule="nonzero" fill-opacity="1" /><path clip-path="url(#clip680)" d="M117.015 863.098 L124.654 863.098 L124.654 836.732 L116.343 838.399 L116.343 834.14 L124.607 832.473 L129.283 832.473 L129.283 863.098 L136.922 863.098 L136.922 867.033 L117.015 867.033 L117.015 863.098 Z" fill="#000000" fill-rule="nonzero" fill-opacity="1" /><path clip-path="url(#clip680)" d="M146.366 861.153 L151.251 861.153 L151.251 867.033 L146.366 867.033 L146.366 861.153 Z" fill="#000000" fill-rule="nonzero" fill-opacity="1" /><path clip-path="url(#clip680)" d="M171.436 835.552 Q167.825 835.552 165.996 839.116 Q164.19 842.658 164.19 849.788 Q164.19 856.894 165.996 860.459 Q167.825 864 171.436 864 Q175.07 864 176.876 860.459 Q178.704 856.894 178.704 849.788 Q178.704 842.658 176.876 839.116 Q175.07 835.552 171.436 835.552 M171.436 831.848 Q177.246 831.848 180.301 836.454 Q183.38 841.038 183.38 849.788 Q183.38 858.514 180.301 863.121 Q177.246 867.704 171.436 867.704 Q165.626 867.704 162.547 863.121 Q159.491 858.514 159.491 849.788 Q159.491 841.038 162.547 836.454 Q165.626 831.848 171.436 831.848 Z" fill="#000000" fill-rule="nonzero" fill-opacity="1" /><path clip-path="url(#clip680)" d="M118.01 595.855 L125.649 595.855 L125.649 569.49 L117.339 571.156 L117.339 566.897 L125.603 565.231 L130.279 565.231 L130.279 595.855 L137.917 595.855 L137.917 599.791 L118.01 599.791 L118.01 595.855 Z" fill="#000000" fill-rule="nonzero" fill-opacity="1" /><path clip-path="url(#clip680)" d="M147.362 593.911 L152.246 593.911 L152.246 599.791 L147.362 599.791 L147.362 593.911 Z" fill="#000000" fill-rule="nonzero" fill-opacity="1" /><path clip-path="url(#clip680)" d="M162.477 565.231 L180.834 565.231 L180.834 569.166 L166.76 569.166 L166.76 577.638 Q167.778 577.291 168.797 577.129 Q169.815 576.943 170.834 576.943 Q176.621 576.943 180.001 580.115 Q183.38 583.286 183.38 588.703 Q183.38 594.281 179.908 597.383 Q176.436 600.462 170.116 600.462 Q167.94 600.462 165.672 600.091 Q163.427 599.721 161.019 598.98 L161.019 594.281 Q163.102 595.416 165.325 595.971 Q167.547 596.527 170.024 596.527 Q174.028 596.527 176.366 594.42 Q178.704 592.314 178.704 588.703 Q178.704 585.092 176.366 582.985 Q174.028 580.879 170.024 580.879 Q168.149 580.879 166.274 581.295 Q164.422 581.712 162.477 582.592 L162.477 565.231 Z" fill="#000000" fill-rule="nonzero" fill-opacity="1" /><path clip-path="url(#clip680)" d="M120.232 328.613 L136.552 328.613 L136.552 332.548 L114.607 332.548 L114.607 328.613 Q117.269 325.858 121.853 321.229 Q126.459 316.576 127.64 315.233 Q129.885 312.71 130.765 310.974 Q131.667 309.215 131.667 307.525 Q131.667 304.771 129.723 303.034 Q127.802 301.298 124.7 301.298 Q122.501 301.298 120.047 302.062 Q117.617 302.826 114.839 304.377 L114.839 299.655 Q117.663 298.521 120.117 297.942 Q122.57 297.363 124.607 297.363 Q129.978 297.363 133.172 300.048 Q136.367 302.734 136.367 307.224 Q136.367 309.354 135.556 311.275 Q134.769 313.173 132.663 315.766 Q132.084 316.437 128.982 319.655 Q125.88 322.849 120.232 328.613 Z" fill="#000000" fill-rule="nonzero" fill-opacity="1" /><path clip-path="url(#clip680)" d="M146.366 326.669 L151.251 326.669 L151.251 332.548 L146.366 332.548 L146.366 326.669 Z" fill="#000000" fill-rule="nonzero" fill-opacity="1" /><path clip-path="url(#clip680)" d="M171.436 301.067 Q167.825 301.067 165.996 304.632 Q164.19 308.173 164.19 315.303 Q164.19 322.409 165.996 325.974 Q167.825 329.516 171.436 329.516 Q175.07 329.516 176.876 325.974 Q178.704 322.409 178.704 315.303 Q178.704 308.173 176.876 304.632 Q175.07 301.067 171.436 301.067 M171.436 297.363 Q177.246 297.363 180.301 301.97 Q183.38 306.553 183.38 315.303 Q183.38 324.03 180.301 328.636 Q177.246 333.219 171.436 333.219 Q165.626 333.219 162.547 328.636 Q159.491 324.03 159.491 315.303 Q159.491 306.553 162.547 301.97 Q165.626 297.363 171.436 297.363 Z" fill="#000000" fill-rule="nonzero" fill-opacity="1" /><path clip-path="url(#clip680)" d="M121.228 61.3706 L137.547 61.3706 L137.547 65.3058 L115.603 65.3058 L115.603 61.3706 Q118.265 58.616 122.848 53.9864 Q127.455 49.3337 128.635 47.9911 Q130.88 45.468 131.76 43.7319 Q132.663 41.9726 132.663 40.2828 Q132.663 37.5282 130.718 35.7921 Q128.797 34.056 125.695 34.056 Q123.496 34.056 121.043 34.8199 Q118.612 35.5837 115.834 37.1347 L115.834 32.4125 Q118.658 31.2782 121.112 30.6995 Q123.566 30.1208 125.603 30.1208 Q130.973 30.1208 134.167 32.806 Q137.362 35.4912 137.362 39.9819 Q137.362 42.1115 136.552 44.0328 Q135.765 45.9309 133.658 48.5235 Q133.08 49.1948 129.978 52.4124 Q126.876 55.6068 121.228 61.3706 Z" fill="#000000" fill-rule="nonzero" fill-opacity="1" /><path clip-path="url(#clip680)" d="M147.362 59.4262 L152.246 59.4262 L152.246 65.3058 L147.362 65.3058 L147.362 59.4262 Z" fill="#000000" fill-rule="nonzero" fill-opacity="1" /><path clip-path="url(#clip680)" d="M162.477 30.7458 L180.834 30.7458 L180.834 34.681 L166.76 34.681 L166.76 43.1532 Q167.778 42.8059 168.797 42.6439 Q169.815 42.4587 170.834 42.4587 Q176.621 42.4587 180.001 45.63 Q183.38 48.8013 183.38 54.2179 Q183.38 59.7966 179.908 62.8984 Q176.436 65.9771 170.116 65.9771 Q167.94 65.9771 165.672 65.6067 Q163.427 65.2364 161.019 64.4956 L161.019 59.7966 Q163.102 60.9308 165.325 61.4864 Q167.547 62.0419 170.024 62.0419 Q174.028 62.0419 176.366 59.9355 Q178.704 57.829 178.704 54.2179 Q178.704 50.6068 176.366 48.5003 Q174.028 46.3939 170.024 46.3939 Q168.149 46.3939 166.274 46.8105 Q164.422 47.2272 162.477 48.1068 L162.477 30.7458 Z" fill="#000000" fill-rule="nonzero" fill-opacity="1" /><path clip-path="url(#clip680)" d="M16.4842 966.987 L16.4842 926.788 L21.895 926.788 L21.895 943.657 L64.0042 943.657 L64.0042 950.118 L21.895 950.118 L21.895 966.987 L16.4842 966.987 Z" fill="#000000" fill-rule="nonzero" fill-opacity="1" /><path clip-path="url(#clip680)" d="M28.3562 922.841 L28.3562 916.985 L64.0042 916.985 L64.0042 922.841 L28.3562 922.841 M14.479 922.841 L14.479 916.985 L21.895 916.985 L21.895 922.841 L14.479 922.841 Z" fill="#000000" fill-rule="nonzero" fill-opacity="1" /><path clip-path="url(#clip680)" d="M58.657 899.065 L77.5631 899.065 L77.5631 904.954 L28.3562 904.954 L28.3562 899.065 L33.7671 899.065 Q30.5842 897.219 29.0564 894.418 Q27.4968 891.586 27.4968 887.671 Q27.4968 881.178 32.6531 877.135 Q37.8093 873.061 46.212 873.061 Q54.6147 873.061 59.771 877.135 Q64.9272 881.178 64.9272 887.671 Q64.9272 891.586 63.3994 894.418 Q61.8398 897.219 58.657 899.065 M46.212 879.141 Q39.7508 879.141 36.0905 881.814 Q32.3984 884.456 32.3984 889.103 Q32.3984 893.75 36.0905 896.423 Q39.7508 899.065 46.212 899.065 Q52.6732 899.065 56.3653 896.423 Q60.0256 893.75 60.0256 889.103 Q60.0256 884.456 56.3653 881.814 Q52.6732 879.141 46.212 879.141 Z" fill="#000000" fill-rule="nonzero" fill-opacity="1" /><path clip-path="url(#clip680)" d="M18.2347 836.84 L28.3562 836.84 L28.3562 824.777 L32.9077 824.777 L32.9077 836.84 L52.2594 836.84 Q56.6199 836.84 57.8613 835.663 Q59.1026 834.453 59.1026 830.793 L59.1026 824.777 L64.0042 824.777 L64.0042 830.793 Q64.0042 837.573 61.4897 840.151 Q58.9434 842.729 52.2594 842.729 L32.9077 842.729 L32.9077 847.026 L28.3562 847.026 L28.3562 842.729 L18.2347 842.729 L18.2347 836.84 Z" fill="#000000" fill-rule="nonzero" fill-opacity="1" /><path clip-path="url(#clip680)" d="M28.3562 820.481 L28.3562 814.624 L56.1743 807.304 L28.3562 800.015 L28.3562 793.108 L56.1743 785.788 L28.3562 778.499 L28.3562 772.642 L64.0042 781.968 L64.0042 788.875 L34.7856 796.546 L64.0042 804.248 L64.0042 811.155 L28.3562 820.481 Z" fill="#000000" fill-rule="nonzero" fill-opacity="1" /><path clip-path="url(#clip680)" d="M28.3562 763.762 L28.3562 757.906 L64.0042 757.906 L64.0042 763.762 L28.3562 763.762 M14.479 763.762 L14.479 757.906 L21.895 757.906 L21.895 763.762 L14.479 763.762 Z" fill="#000000" fill-rule="nonzero" fill-opacity="1" /><path clip-path="url(#clip680)" d="M29.4065 722.926 L34.9447 722.926 Q33.6716 725.409 33.035 728.082 Q32.3984 730.756 32.3984 733.621 Q32.3984 737.981 33.7352 740.177 Q35.072 742.342 37.7456 742.342 Q39.7826 742.342 40.9603 740.782 Q42.1061 739.222 43.1565 734.512 L43.6021 732.507 Q44.9389 726.268 47.3897 723.658 Q49.8086 721.016 54.1691 721.016 Q59.1344 721.016 62.0308 724.963 Q64.9272 728.878 64.9272 735.753 Q64.9272 738.618 64.3543 741.737 Q63.8132 744.824 62.6992 748.262 L56.6518 748.262 Q58.3387 745.015 59.198 741.864 Q60.0256 738.713 60.0256 735.626 Q60.0256 731.488 58.6251 729.26 Q57.1929 727.032 54.6147 727.032 Q52.2276 727.032 50.9545 728.655 Q49.6813 730.247 48.5037 735.689 L48.0262 737.726 Q46.8804 743.169 44.5251 745.588 Q42.138 748.007 38.0002 748.007 Q32.9713 748.007 30.2341 744.442 Q27.4968 740.877 27.4968 734.321 Q27.4968 731.074 27.9743 728.21 Q28.4517 725.345 29.4065 722.926 Z" fill="#000000" fill-rule="nonzero" fill-opacity="1" /><path clip-path="url(#clip680)" d="M18.2347 705.898 L28.3562 705.898 L28.3562 693.835 L32.9077 693.835 L32.9077 705.898 L52.2594 705.898 Q56.6199 705.898 57.8613 704.72 Q59.1026 703.511 59.1026 699.85 L59.1026 693.835 L64.0042 693.835 L64.0042 699.85 Q64.0042 706.63 61.4897 709.208 Q58.9434 711.786 52.2594 711.786 L32.9077 711.786 L32.9077 716.083 L28.3562 716.083 L28.3562 711.786 L18.2347 711.786 L18.2347 705.898 Z" fill="#000000" fill-rule="nonzero" fill-opacity="1" /><path clip-path="url(#clip680)" d="M14.479 665.953 L14.479 652.458 L19.0304 652.458 L19.0304 660.097 L68.0464 660.097 L68.0464 652.458 L72.5979 652.458 L72.5979 665.953 L14.479 665.953 Z" fill="#000000" fill-rule="nonzero" fill-opacity="1" /><path clip-path="url(#clip680)" d="M33.7671 616.523 L14.479 616.523 L14.479 610.667 L64.0042 610.667 L64.0042 616.523 L58.657 616.523 Q61.8398 618.369 63.3994 621.202 Q64.9272 624.003 64.9272 627.95 Q64.9272 634.411 59.771 638.485 Q54.6147 642.527 46.212 642.527 Q37.8093 642.527 32.6531 638.485 Q27.4968 634.411 27.4968 627.95 Q27.4968 624.003 29.0564 621.202 Q30.5842 618.369 33.7671 616.523 M46.212 636.48 Q52.6732 636.48 56.3653 633.838 Q60.0256 631.164 60.0256 626.518 Q60.0256 621.871 56.3653 619.197 Q52.6732 616.523 46.212 616.523 Q39.7508 616.523 36.0905 619.197 Q32.3984 621.871 32.3984 626.518 Q32.3984 631.164 36.0905 633.838 Q39.7508 636.48 46.212 636.48 Z" fill="#000000" fill-rule="nonzero" fill-opacity="1" /><path clip-path="url(#clip680)" d="M44.7161 568.112 L47.5806 568.112 L47.5806 595.039 Q53.6281 594.657 56.8109 591.411 Q59.9619 588.132 59.9619 582.308 Q59.9619 578.934 59.1344 575.783 Q58.3069 572.6 56.6518 569.481 L62.1899 569.481 Q63.5267 572.632 64.227 575.942 Q64.9272 579.252 64.9272 582.658 Q64.9272 591.188 59.9619 596.185 Q54.9967 601.15 46.5303 601.15 Q37.7774 601.15 32.6531 596.44 Q27.4968 591.697 27.4968 583.676 Q27.4968 576.483 32.1438 572.314 Q36.7589 568.112 44.7161 568.112 M42.9973 573.969 Q38.1912 574.032 35.3266 576.674 Q32.4621 579.284 32.4621 583.613 Q32.4621 588.514 35.2312 591.474 Q38.0002 594.403 43.0292 594.848 L42.9973 573.969 Z" fill="#000000" fill-rule="nonzero" fill-opacity="1" /><path clip-path="url(#clip680)" d="M45.7664 535.042 Q39.4007 535.042 35.8996 537.684 Q32.3984 540.294 32.3984 545.036 Q32.3984 549.747 35.8996 552.389 Q39.4007 554.999 45.7664 554.999 Q52.1003 554.999 55.6014 552.389 Q59.1026 549.747 59.1026 545.036 Q59.1026 540.294 55.6014 537.684 Q52.1003 535.042 45.7664 535.042 M59.58 529.186 Q68.683 529.186 73.1071 533.228 Q77.5631 537.27 77.5631 545.609 Q77.5631 548.697 77.0857 551.434 Q76.6401 554.171 75.6852 556.749 L69.9879 556.749 Q71.3884 554.171 72.0568 551.657 Q72.7252 549.142 72.7252 546.532 Q72.7252 540.771 69.7015 537.907 Q66.7096 535.042 60.6303 535.042 L57.7339 535.042 Q60.885 536.857 62.4446 539.689 Q64.0042 542.522 64.0042 546.469 Q64.0042 553.025 59.0071 557.036 Q54.01 561.046 45.7664 561.046 Q37.491 561.046 32.4939 557.036 Q27.4968 553.025 27.4968 546.469 Q27.4968 542.522 29.0564 539.689 Q30.616 536.857 33.7671 535.042 L28.3562 535.042 L28.3562 529.186 L59.58 529.186 Z" fill="#000000" fill-rule="nonzero" fill-opacity="1" /><path clip-path="url(#clip680)" d="M14.479 503.437 L72.5979 503.437 L72.5979 516.932 L68.0464 516.932 L68.0464 509.325 L19.0304 509.325 L19.0304 516.932 L14.479 516.932 L14.479 503.437 Z" fill="#000000" fill-rule="nonzero" fill-opacity="1" /><polyline clip-path="url(#clip682)" style="stroke:#781b86; stroke-linecap:round; stroke-linejoin:round; stroke-width:8; stroke-opacity:1; fill:none" points="219.38,1384.24 254.936,1384.04 290.493,1383.44 326.049,1382.43 361.605,1381.03 397.161,1379.22 432.718,1377 468.274,1374.37 503.83,1371.33 539.387,1367.87 574.943,1364 610.499,1359.69 646.055,1354.96 681.612,1349.78 717.168,1344.17 752.724,1338.1 788.28,1331.58 823.837,1324.59 859.393,1317.12 894.949,1309.18 930.505,1300.74 966.062,1291.8 1001.62,1281.68 1037.17,1270.82 1072.73,1259.28 1108.29,1247.03 1143.84,1234.03 1179.4,1220.28 1214.96,1206.67 1250.51,1192.69 1286.07,1178.07 1321.62,1162.8 1357.18,1146.86 1392.74,1130.24 1428.29,1112.93 1463.85,1094.92 1499.41,1076.19 1534.96,1056.73 1570.52,1036.53 1606.07,1015.6 1641.63,993.907 1677.19,971.531 1712.74,948.762 1748.3,925.263 1783.86,901.037 1819.41,876.087 1854.97,850.423 1890.52,824.056 1926.08,797.002 1961.64,769.283 1997.19,740.923 2032.75,711.954 2068.31,681.967 2103.86,651.406 2139.42,620.343 2174.97,588.833 2210.53,556.936 2246.09,524.718 2281.64,492.249 2317.2,459.603 2352.76,426.858 "/>
<polyline clip-path="url(#clip682)" style="stroke:#82ba70; stroke-linecap:round; stroke-linejoin:round; stroke-width:8; stroke-opacity:1; fill:none" points="219.38,1384.24 254.936,1383.9 290.493,1382.9 326.049,1381.23 361.605,1378.88 397.161,1375.86 432.718,1372.15 468.274,1367.77 503.83,1362.7 539.387,1356.94 574.943,1350.48 610.499,1343.32 646.055,1335.44 681.612,1326.85 717.168,1317.54 752.724,1307.49 788.28,1296.7 823.837,1285.17 859.393,1272.87 894.949,1259.81 930.505,1245.97 966.062,1231.36 1001.62,1215.28 1037.17,1198.2 1072.73,1180.16 1108.29,1161.15 1143.84,1141.15 1179.4,1120.15 1214.96,1099.06 1250.51,1077.39 1286.07,1054.88 1321.62,1031.55 1357.18,1007.39 1392.74,982.442 1428.29,956.706 1463.85,930.21 1499.41,902.98 1534.96,875.05 1570.52,846.458 1606.07,817.245 1641.63,787.461 1677.19,757.208 1712.74,726.757 1748.3,695.913 1783.86,664.739 1819.41,633.303 1854.97,601.676 1890.52,569.932 1926.08,538.148 1961.64,506.4 1997.19,474.765 2032.75,443.321 2068.31,411.874 2103.86,380.731 2139.42,349.984 2174.97,319.701 2210.53,289.943 2246.09,260.767 2281.64,232.226 2317.2,204.365 2352.76,177.226 "/>
<polyline clip-path="url(#clip682)" style="stroke:#da2121; stroke-linecap:round; stroke-linejoin:round; stroke-width:8; stroke-opacity:1; fill:none" points="219.38,1384.24 254.936,1383.77 290.493,1382.37 326.049,1380.03 361.605,1376.76 397.161,1372.54 432.718,1367.38 468.274,1361.27 503.83,1354.21 539.387,1346.2 574.943,1337.22 610.499,1327.28 646.055,1316.37 681.612,1304.49 717.168,1291.62 752.724,1277.77 788.28,1262.94 823.837,1247.12 859.393,1230.31 894.949,1212.52 930.505,1193.74 966.062,1173.98 1001.62,1152.58 1037.17,1130.01 1072.73,1106.34 1108.29,1081.59 1143.84,1055.76 1179.4,1028.88 1214.96,1001.87 1250.51,974.273 1286.07,945.894 1321.62,916.779 1357.18,886.987 1392.74,856.578 1428.29,825.622 1463.85,794.193 1499.41,762.37 1534.96,730.239 1570.52,697.886 1606.07,665.403 1641.63,632.883 1677.19,600.449 1712.74,568.343 1748.3,536.462 1783.86,504.891 1819.41,473.71 1854.97,442.995 1890.52,412.815 1926.08,383.234 1961.64,354.31 1997.19,326.091 2032.75,298.621 2068.31,271.741 2103.86,245.625 2139.42,220.329 2174.97,195.867 2210.53,172.247 2246.09,149.474 2281.64,127.544 2317.2,106.451 2352.76,86.1857 "/>
<path clip-path="url(#clip680)" d="M290.493 300.469 L730.357 300.469 L730.357 93.1086 L290.493 93.1086  Z" fill="#ffffff" fill-rule="evenodd" fill-opacity="1"/>
<polyline clip-path="url(#clip680)" style="stroke:#000000; stroke-linecap:round; stroke-linejoin:round; stroke-width:4; stroke-opacity:1; fill:none" points="290.493,300.469 730.357,300.469 730.357,93.1086 290.493,93.1086 290.493,300.469 "/>
<polyline clip-path="url(#clip680)" style="stroke:#781b86; stroke-linecap:round; stroke-linejoin:round; stroke-width:8; stroke-opacity:1; fill:none" points="314.197,144.949 456.422,144.949 "/>
<path clip-path="url(#clip680)" d="M499.385 145.794 L484.64 145.794 Q484.987 152.715 486.584 155.655 Q488.575 159.266 492.024 159.266 Q495.496 159.266 497.418 155.631 Q499.107 152.437 499.385 145.794 M499.316 141.858 Q498.668 135.284 497.418 132.97 Q495.427 129.312 492.024 129.312 Q488.483 129.312 486.608 132.923 Q485.126 135.84 484.686 141.858 L499.316 141.858 M492.024 125.84 Q497.58 125.84 500.751 130.747 Q503.922 135.632 503.922 144.289 Q503.922 152.923 500.751 157.83 Q497.58 162.761 492.024 162.761 Q486.445 162.761 483.297 157.83 Q480.126 152.923 480.126 144.289 Q480.126 135.632 483.297 130.747 Q486.445 125.84 492.024 125.84 Z" fill="#000000" fill-rule="nonzero" fill-opacity="1" /><path clip-path="url(#clip680)" d="M526.607 140.701 L556.283 140.701 L556.283 144.59 L526.607 144.59 L526.607 140.701 M526.607 150.145 L556.283 150.145 L556.283 154.081 L526.607 154.081 L526.607 150.145 Z" fill="#000000" fill-rule="nonzero" fill-opacity="1" /><path clip-path="url(#clip680)" d="M595.612 143.594 Q598.968 144.312 600.843 146.581 Q602.741 148.849 602.741 152.182 Q602.741 157.298 599.223 160.099 Q595.704 162.9 589.223 162.9 Q587.047 162.9 584.732 162.46 Q582.44 162.043 579.987 161.187 L579.987 156.673 Q581.931 157.807 584.246 158.386 Q586.561 158.965 589.084 158.965 Q593.482 158.965 595.774 157.229 Q598.088 155.493 598.088 152.182 Q598.088 149.127 595.936 147.414 Q593.806 145.678 589.987 145.678 L585.959 145.678 L585.959 141.835 L590.172 141.835 Q593.621 141.835 595.45 140.469 Q597.278 139.081 597.278 136.488 Q597.278 133.826 595.38 132.414 Q593.505 130.979 589.987 130.979 Q588.065 130.979 585.866 131.395 Q583.667 131.812 581.028 132.692 L581.028 128.525 Q583.69 127.784 586.005 127.414 Q588.343 127.044 590.403 127.044 Q595.727 127.044 598.829 129.474 Q601.931 131.882 601.931 136.002 Q601.931 138.872 600.287 140.863 Q598.644 142.831 595.612 143.594 Z" fill="#000000" fill-rule="nonzero" fill-opacity="1" /><path clip-path="url(#clip680)" d="M643.134 140.238 L643.134 126.21 L647.394 126.21 L647.394 162.229 L643.134 162.229 L643.134 158.34 Q641.792 160.655 639.732 161.789 Q637.695 162.9 634.824 162.9 Q630.125 162.9 627.162 159.15 Q624.223 155.4 624.223 149.289 Q624.223 143.178 627.162 139.428 Q630.125 135.678 634.824 135.678 Q637.695 135.678 639.732 136.812 Q641.792 137.923 643.134 140.238 M628.621 149.289 Q628.621 153.988 630.542 156.673 Q632.486 159.335 635.866 159.335 Q639.246 159.335 641.19 156.673 Q643.134 153.988 643.134 149.289 Q643.134 144.59 641.19 141.928 Q639.246 139.243 635.866 139.243 Q632.486 139.243 630.542 141.928 Q628.621 144.59 628.621 149.289 Z" fill="#000000" fill-rule="nonzero" fill-opacity="1" /><path clip-path="url(#clip680)" d="M678.343 148.201 L678.343 150.284 L658.759 150.284 Q659.037 154.682 661.398 156.997 Q663.783 159.289 668.019 159.289 Q670.472 159.289 672.764 158.687 Q675.079 158.085 677.347 156.881 L677.347 160.909 Q675.056 161.881 672.648 162.391 Q670.241 162.9 667.764 162.9 Q661.56 162.9 657.926 159.289 Q654.315 155.678 654.315 149.52 Q654.315 143.155 657.741 139.428 Q661.19 135.678 667.023 135.678 Q672.255 135.678 675.287 139.057 Q678.343 142.414 678.343 148.201 M674.083 146.951 Q674.037 143.456 672.116 141.372 Q670.218 139.289 667.07 139.289 Q663.505 139.289 661.352 141.303 Q659.222 143.317 658.898 146.974 L674.083 146.951 Z" fill="#000000" fill-rule="nonzero" fill-opacity="1" /><path clip-path="url(#clip680)" d="M702.393 148.965 Q702.393 144.335 700.472 141.789 Q698.574 139.243 695.125 139.243 Q691.699 139.243 689.778 141.789 Q687.88 144.335 687.88 148.965 Q687.88 153.571 689.778 156.118 Q691.699 158.664 695.125 158.664 Q698.574 158.664 700.472 156.118 Q702.393 153.571 702.393 148.965 M706.653 159.011 Q706.653 165.631 703.713 168.849 Q700.773 172.09 694.708 172.09 Q692.463 172.09 690.472 171.742 Q688.481 171.418 686.606 170.724 L686.606 166.58 Q688.481 167.599 690.31 168.085 Q692.139 168.571 694.037 168.571 Q698.227 168.571 700.31 166.372 Q702.393 164.196 702.393 159.775 L702.393 157.668 Q701.074 159.96 699.014 161.094 Q696.954 162.229 694.083 162.229 Q689.315 162.229 686.398 158.594 Q683.481 154.96 683.481 148.965 Q683.481 142.946 686.398 139.312 Q689.315 135.678 694.083 135.678 Q696.954 135.678 699.014 136.812 Q701.074 137.946 702.393 140.238 L702.393 136.303 L706.653 136.303 L706.653 159.011 Z" fill="#000000" fill-rule="nonzero" fill-opacity="1" /><polyline clip-path="url(#clip680)" style="stroke:#82ba70; stroke-linecap:round; stroke-linejoin:round; stroke-width:8; stroke-opacity:1; fill:none" points="314.197,196.789 456.422,196.789 "/>
<path clip-path="url(#clip680)" d="M499.385 197.634 L484.64 197.634 Q484.987 204.555 486.584 207.495 Q488.575 211.106 492.024 211.106 Q495.496 211.106 497.418 207.471 Q499.107 204.277 499.385 197.634 M499.316 193.698 Q498.668 187.124 497.418 184.81 Q495.427 181.152 492.024 181.152 Q488.483 181.152 486.608 184.763 Q485.126 187.68 484.686 193.698 L499.316 193.698 M492.024 177.68 Q497.58 177.68 500.751 182.587 Q503.922 187.472 503.922 196.129 Q503.922 204.763 500.751 209.67 Q497.58 214.601 492.024 214.601 Q486.445 214.601 483.297 209.67 Q480.126 204.763 480.126 196.129 Q480.126 187.472 483.297 182.587 Q486.445 177.68 492.024 177.68 Z" fill="#000000" fill-rule="nonzero" fill-opacity="1" /><path clip-path="url(#clip680)" d="M526.607 192.541 L556.283 192.541 L556.283 196.43 L526.607 196.43 L526.607 192.541 M526.607 201.985 L556.283 201.985 L556.283 205.921 L526.607 205.921 L526.607 201.985 Z" fill="#000000" fill-rule="nonzero" fill-opacity="1" /><path clip-path="url(#clip680)" d="M581.491 179.509 L599.848 179.509 L599.848 183.444 L585.774 183.444 L585.774 191.916 Q586.792 191.569 587.811 191.407 Q588.829 191.222 589.848 191.222 Q595.635 191.222 599.014 194.393 Q602.394 197.564 602.394 202.981 Q602.394 208.559 598.922 211.661 Q595.45 214.74 589.13 214.74 Q586.954 214.74 584.686 214.37 Q582.44 213.999 580.033 213.258 L580.033 208.559 Q582.116 209.694 584.338 210.249 Q586.561 210.805 589.038 210.805 Q593.042 210.805 595.38 208.698 Q597.718 206.592 597.718 202.981 Q597.718 199.37 595.38 197.263 Q593.042 195.157 589.038 195.157 Q587.163 195.157 585.288 195.573 Q583.436 195.99 581.491 196.87 L581.491 179.509 Z" fill="#000000" fill-rule="nonzero" fill-opacity="1" /><path clip-path="url(#clip680)" d="M643.134 192.078 L643.134 178.05 L647.394 178.05 L647.394 214.069 L643.134 214.069 L643.134 210.18 Q641.792 212.495 639.732 213.629 Q637.695 214.74 634.824 214.74 Q630.125 214.74 627.162 210.99 Q624.223 207.24 624.223 201.129 Q624.223 195.018 627.162 191.268 Q630.125 187.518 634.824 187.518 Q637.695 187.518 639.732 188.652 Q641.792 189.763 643.134 192.078 M628.621 201.129 Q628.621 205.828 630.542 208.513 Q632.486 211.175 635.866 211.175 Q639.246 211.175 641.19 208.513 Q643.134 205.828 643.134 201.129 Q643.134 196.43 641.19 193.768 Q639.246 191.083 635.866 191.083 Q632.486 191.083 630.542 193.768 Q628.621 196.43 628.621 201.129 Z" fill="#000000" fill-rule="nonzero" fill-opacity="1" /><path clip-path="url(#clip680)" d="M678.343 200.041 L678.343 202.124 L658.759 202.124 Q659.037 206.522 661.398 208.837 Q663.783 211.129 668.019 211.129 Q670.472 211.129 672.764 210.527 Q675.079 209.925 677.347 208.721 L677.347 212.749 Q675.056 213.721 672.648 214.231 Q670.241 214.74 667.764 214.74 Q661.56 214.74 657.926 211.129 Q654.315 207.518 654.315 201.36 Q654.315 194.995 657.741 191.268 Q661.19 187.518 667.023 187.518 Q672.255 187.518 675.287 190.897 Q678.343 194.254 678.343 200.041 M674.083 198.791 Q674.037 195.296 672.116 193.212 Q670.218 191.129 667.07 191.129 Q663.505 191.129 661.352 193.143 Q659.222 195.157 658.898 198.814 L674.083 198.791 Z" fill="#000000" fill-rule="nonzero" fill-opacity="1" /><path clip-path="url(#clip680)" d="M702.393 200.805 Q702.393 196.175 700.472 193.629 Q698.574 191.083 695.125 191.083 Q691.699 191.083 689.778 193.629 Q687.88 196.175 687.88 200.805 Q687.88 205.411 689.778 207.958 Q691.699 210.504 695.125 210.504 Q698.574 210.504 700.472 207.958 Q702.393 205.411 702.393 200.805 M706.653 210.851 Q706.653 217.471 703.713 220.689 Q700.773 223.93 694.708 223.93 Q692.463 223.93 690.472 223.582 Q688.481 223.258 686.606 222.564 L686.606 218.42 Q688.481 219.439 690.31 219.925 Q692.139 220.411 694.037 220.411 Q698.227 220.411 700.31 218.212 Q702.393 216.036 702.393 211.615 L702.393 209.508 Q701.074 211.8 699.014 212.934 Q696.954 214.069 694.083 214.069 Q689.315 214.069 686.398 210.434 Q683.481 206.8 683.481 200.805 Q683.481 194.786 686.398 191.152 Q689.315 187.518 694.083 187.518 Q696.954 187.518 699.014 188.652 Q701.074 189.786 702.393 192.078 L702.393 188.143 L706.653 188.143 L706.653 210.851 Z" fill="#000000" fill-rule="nonzero" fill-opacity="1" /><polyline clip-path="url(#clip680)" style="stroke:#da2121; stroke-linecap:round; stroke-linejoin:round; stroke-width:8; stroke-opacity:1; fill:none" points="314.197,248.629 456.422,248.629 "/>
<path clip-path="url(#clip680)" d="M499.385 249.474 L484.64 249.474 Q484.987 256.395 486.584 259.335 Q488.575 262.946 492.024 262.946 Q495.496 262.946 497.418 259.311 Q499.107 256.117 499.385 249.474 M499.316 245.538 Q498.668 238.964 497.418 236.65 Q495.427 232.992 492.024 232.992 Q488.483 232.992 486.608 236.603 Q485.126 239.52 484.686 245.538 L499.316 245.538 M492.024 229.52 Q497.58 229.52 500.751 234.427 Q503.922 239.312 503.922 247.969 Q503.922 256.603 500.751 261.51 Q497.58 266.441 492.024 266.441 Q486.445 266.441 483.297 261.51 Q480.126 256.603 480.126 247.969 Q480.126 239.312 483.297 234.427 Q486.445 229.52 492.024 229.52 Z" fill="#000000" fill-rule="nonzero" fill-opacity="1" /><path clip-path="url(#clip680)" d="M526.607 244.381 L556.283 244.381 L556.283 248.27 L526.607 248.27 L526.607 244.381 M526.607 253.825 L556.283 253.825 L556.283 257.761 L526.607 257.761 L526.607 253.825 Z" fill="#000000" fill-rule="nonzero" fill-opacity="1" /><path clip-path="url(#clip680)" d="M580.264 231.349 L602.487 231.349 L602.487 233.339 L589.94 265.909 L585.056 265.909 L596.862 235.284 L580.264 235.284 L580.264 231.349 Z" fill="#000000" fill-rule="nonzero" fill-opacity="1" /><path clip-path="url(#clip680)" d="M643.134 243.918 L643.134 229.89 L647.394 229.89 L647.394 265.909 L643.134 265.909 L643.134 262.02 Q641.792 264.335 639.732 265.469 Q637.695 266.58 634.824 266.58 Q630.125 266.58 627.162 262.83 Q624.223 259.08 624.223 252.969 Q624.223 246.858 627.162 243.108 Q630.125 239.358 634.824 239.358 Q637.695 239.358 639.732 240.492 Q641.792 241.603 643.134 243.918 M628.621 252.969 Q628.621 257.668 630.542 260.353 Q632.486 263.015 635.866 263.015 Q639.246 263.015 641.19 260.353 Q643.134 257.668 643.134 252.969 Q643.134 248.27 641.19 245.608 Q639.246 242.923 635.866 242.923 Q632.486 242.923 630.542 245.608 Q628.621 248.27 628.621 252.969 Z" fill="#000000" fill-rule="nonzero" fill-opacity="1" /><path clip-path="url(#clip680)" d="M678.343 251.881 L678.343 253.964 L658.759 253.964 Q659.037 258.362 661.398 260.677 Q663.783 262.969 668.019 262.969 Q670.472 262.969 672.764 262.367 Q675.079 261.765 677.347 260.561 L677.347 264.589 Q675.056 265.561 672.648 266.071 Q670.241 266.58 667.764 266.58 Q661.56 266.58 657.926 262.969 Q654.315 259.358 654.315 253.2 Q654.315 246.835 657.741 243.108 Q661.19 239.358 667.023 239.358 Q672.255 239.358 675.287 242.737 Q678.343 246.094 678.343 251.881 M674.083 250.631 Q674.037 247.136 672.116 245.052 Q670.218 242.969 667.07 242.969 Q663.505 242.969 661.352 244.983 Q659.222 246.997 658.898 250.654 L674.083 250.631 Z" fill="#000000" fill-rule="nonzero" fill-opacity="1" /><path clip-path="url(#clip680)" d="M702.393 252.645 Q702.393 248.015 700.472 245.469 Q698.574 242.923 695.125 242.923 Q691.699 242.923 689.778 245.469 Q687.88 248.015 687.88 252.645 Q687.88 257.251 689.778 259.798 Q691.699 262.344 695.125 262.344 Q698.574 262.344 700.472 259.798 Q702.393 257.251 702.393 252.645 M706.653 262.691 Q706.653 269.311 703.713 272.529 Q700.773 275.77 694.708 275.77 Q692.463 275.77 690.472 275.422 Q688.481 275.098 686.606 274.404 L686.606 270.26 Q688.481 271.279 690.31 271.765 Q692.139 272.251 694.037 272.251 Q698.227 272.251 700.31 270.052 Q702.393 267.876 702.393 263.455 L702.393 261.348 Q701.074 263.64 699.014 264.774 Q696.954 265.909 694.083 265.909 Q689.315 265.909 686.398 262.274 Q683.481 258.64 683.481 252.645 Q683.481 246.626 686.398 242.992 Q689.315 239.358 694.083 239.358 Q696.954 239.358 699.014 240.492 Q701.074 241.626 702.393 243.918 L702.393 239.983 L706.653 239.983 L706.653 262.691 Z" fill="#000000" fill-rule="nonzero" fill-opacity="1" /></svg>
