<?xml version="1.0" encoding="UTF-8" standalone="no"?>
<svg
   xmlns:dc="http://purl.org/dc/elements/1.1/"
   xmlns:cc="http://creativecommons.org/ns#"
   xmlns:rdf="http://www.w3.org/1999/02/22-rdf-syntax-ns#"
   xmlns:svg="http://www.w3.org/2000/svg"
   xmlns="http://www.w3.org/2000/svg"
   viewBox="0 0 1280 720"
   height="720"
   width="1280"
   xml:space="preserve"
   id="svg2"
   version="1.1"><metadata
     id="metadata8"><rdf:RDF><cc:Work
         rdf:about=""><dc:format>image/svg+xml</dc:format><dc:type
           rdf:resource="http://purl.org/dc/dcmitype/StillImage" /></cc:Work></rdf:RDF></metadata><defs
     id="defs6"><clipPath
       id="clipPath18"
       clipPathUnits="userSpaceOnUse"><path
         style="clip-rule:evenodd"
         id="path16"
         d="M 0,1.2207e-4 H 960 V 540.00012 H 0 Z" /></clipPath><clipPath
       id="clipPath28"
       clipPathUnits="userSpaceOnUse"><path
         style="clip-rule:evenodd"
         id="path26"
         d="M 341.46,540 960,403.2 V 217.83 L 911.82,1.2207e-4 H 621.07 L 3.935e-6,137.36 9.245e-6,322.73 48.054,540 Z" /></clipPath><clipPath
       id="clipPath38"
       clipPathUnits="userSpaceOnUse"><path
         id="path36"
         d="M 0,0 H 1141.21 V 554.99 H 0 Z" /></clipPath><clipPath
       id="clipPath46"
       clipPathUnits="userSpaceOnUse"><path
         style="clip-rule:evenodd"
         id="path44"
         d="M 0,-0.0075073 H 1141.2 V 554.99249 H 0 Z" /></clipPath><clipPath
       id="clipPath60"
       clipPathUnits="userSpaceOnUse"><path
         style="clip-rule:evenodd"
         id="path58"
         d="M -2.2243e-5,540 H 960 V 0 H -4.7124e-5" /></clipPath><clipPath
       id="clipPath70"
       clipPathUnits="userSpaceOnUse"><path
         style="clip-rule:evenodd"
         id="path68"
         d="M -9.9093e-5,540 H 960 V 6.1035e-5 L -1.3358e-4,0" /></clipPath><clipPath
       id="clipPath80"
       clipPathUnits="userSpaceOnUse"><path
         style="clip-rule:evenodd"
         id="path78"
         d="M -4.2935e-5,540 H 960 V 0 H -7.7425e-5" /></clipPath><clipPath
       id="clipPath90"
       clipPathUnits="userSpaceOnUse"><path
         style="clip-rule:evenodd"
         id="path88"
         d="M -7.6411e-5,540 H 960 V 0 H -1.0877e-4" /></clipPath><clipPath
       id="clipPath100"
       clipPathUnits="userSpaceOnUse"><path
         style="clip-rule:evenodd"
         id="path98"
         d="M -1.9421e-5,540 H 960 V 6.1035e-5 L -2.4747e-5,0" /></clipPath><clipPath
       id="clipPath110"
       clipPathUnits="userSpaceOnUse"><path
         style="clip-rule:evenodd"
         id="path108"
         d="M -1.8127e-5,540 H 960 V 1.2207e-4 H -4.014e-5" /></clipPath><clipPath
       id="clipPath120"
       clipPathUnits="userSpaceOnUse"><path
         style="clip-rule:evenodd"
         id="path118"
         d="M -9.101e-6,540 H 960 V 1.2207e-4 H -1.8196e-5" /></clipPath><clipPath
       id="clipPath134"
       clipPathUnits="userSpaceOnUse"><path
         style="clip-rule:evenodd"
         id="path132"
         d="M -5.6347e-5,540 H 960 V 0 H -9.0773e-5" /></clipPath><clipPath
       id="clipPath144"
       clipPathUnits="userSpaceOnUse"><path
         style="clip-rule:evenodd"
         id="path142"
         d="M -5.1697e-5,540 H 960 V 1.2207e-4 H -6.8589e-5" /></clipPath><clipPath
       id="clipPath154"
       clipPathUnits="userSpaceOnUse"><path
         style="clip-rule:evenodd"
         id="path152"
         d="M -5.1697e-5,540 H 960 V 1.2207e-4 H -6.8589e-5" /></clipPath><clipPath
       id="clipPath164"
       clipPathUnits="userSpaceOnUse"><path
         style="clip-rule:evenodd"
         id="path162"
         d="M -5.1697e-5,540 H 960 V 1.2207e-4 H -6.8589e-5" /></clipPath><clipPath
       id="clipPath174"
       clipPathUnits="userSpaceOnUse"><path
         style="clip-rule:evenodd"
         id="path172"
         d="M 1.0184e-5,540 H 960 V 1.8311e-4 L 6.879e-6,1.2207e-4" /></clipPath><clipPath
       id="clipPath184"
       clipPathUnits="userSpaceOnUse"><path
         style="clip-rule:evenodd"
         id="path182"
         d="M 1.0184e-5,540 H 960 V 1.8311e-4 L 6.879e-6,1.2207e-4" /></clipPath><clipPath
       id="clipPath206"
       clipPathUnits="userSpaceOnUse"><path
         style="clip-rule:evenodd"
         id="path204"
         d="M 1.4305e-5,0 H 960.00001 V 540 H 1.4305e-5 Z" /></clipPath><clipPath
       id="clipPath218"
       clipPathUnits="userSpaceOnUse"><path
         style="clip-rule:evenodd"
         id="path216"
         d="M 1.4305e-5,0 H 960.00001 V 540 H 1.4305e-5 Z" /></clipPath><clipPath
       id="clipPath230"
       clipPathUnits="userSpaceOnUse"><path
         style="clip-rule:evenodd"
         id="path228"
         d="M -4.505e-6,540 H 960 V 6.1035e-5 L 3.9971e-5,1.2207e-4" /></clipPath><clipPath
       id="clipPath240"
       clipPathUnits="userSpaceOnUse"><path
         style="clip-rule:evenodd"
         id="path238"
         d="M -4.505e-6,540 H 960 V 6.1035e-5 L 3.9971e-5,1.2207e-4" /></clipPath><clipPath
       id="clipPath250"
       clipPathUnits="userSpaceOnUse"><path
         style="clip-rule:evenodd"
         id="path248"
         d="M 8.228e-6,540 H 960 V 1.2207e-4 L -3.5779e-5,6.1035e-5" /></clipPath><clipPath
       id="clipPath260"
       clipPathUnits="userSpaceOnUse"><path
         style="clip-rule:evenodd"
         id="path258"
         d="M 8.228e-6,540 H 960 V 1.2207e-4 L -3.5779e-5,6.1035e-5" /></clipPath><clipPath
       id="clipPath270"
       clipPathUnits="userSpaceOnUse"><path
         style="clip-rule:evenodd"
         id="path268"
         d="M -3.461e-6,540 H 960 V 6.1035e-5 H 4.9285e-5" /></clipPath><clipPath
       id="clipPath280"
       clipPathUnits="userSpaceOnUse"><path
         style="clip-rule:evenodd"
         id="path278"
         d="M -3.461e-6,540 H 960 V 6.1035e-5 H 4.9285e-5" /></clipPath><clipPath
       id="clipPath290"
       clipPathUnits="userSpaceOnUse"><path
         style="clip-rule:evenodd"
         id="path288"
         d="M -6.5183e-5,540 H 960 V 1.2207e-4 L -1.2899e-4,0" /></clipPath><clipPath
       id="clipPath300"
       clipPathUnits="userSpaceOnUse"><path
         style="clip-rule:evenodd"
         id="path298"
         d="M -6.5183e-5,540 H 960 V 1.2207e-4 L -1.2899e-4,0" /></clipPath><clipPath
       id="clipPath310"
       clipPathUnits="userSpaceOnUse"><path
         style="clip-rule:evenodd"
         id="path308"
         d="M -1.1666e-5,540 H 960 V 0 H 1.1335e-5" /></clipPath><clipPath
       id="clipPath320"
       clipPathUnits="userSpaceOnUse"><path
         style="clip-rule:evenodd"
         id="path318"
         d="M -4.6445e-5,540 H 960 V 1.8311e-4 L -4.6777e-5,1.2207e-4" /></clipPath><clipPath
       id="clipPath330"
       clipPathUnits="userSpaceOnUse"><path
         style="clip-rule:evenodd"
         id="path328"
         d="M -4.6445e-5,540 H 960 V 1.8311e-4 L -4.6777e-5,1.2207e-4" /></clipPath><clipPath
       id="clipPath340"
       clipPathUnits="userSpaceOnUse"><path
         style="clip-rule:evenodd"
         id="path338"
         d="M -3.4458e-5,540 H 960 V 6.1035e-5 L -4.1384e-5,1.2207e-4" /></clipPath><clipPath
       id="clipPath352"
       clipPathUnits="userSpaceOnUse"><path
         style="clip-rule:evenodd"
         id="path350"
         d="M -2.634e-6,540 H 960 V 6.1035e-5 L -9.559e-6,1.2207e-4" /></clipPath><clipPath
       id="clipPath374"
       clipPathUnits="userSpaceOnUse"><path
         style="clip-rule:evenodd"
         id="path372"
         d="M -3.3123e-5,540 H 960 V 6.1035e-5 H -6.9519e-5" /></clipPath><clipPath
       id="clipPath384"
       clipPathUnits="userSpaceOnUse"><path
         style="clip-rule:evenodd"
         id="path382"
         d="M -4.4653e-5,540 H 960 V 6.1035e-5 H -8.1049e-5" /></clipPath><clipPath
       id="clipPath410"
       clipPathUnits="userSpaceOnUse"><path
         style="clip-rule:evenodd"
         id="path408"
         d="M -2.5577e-5,540 H 960 V 1.2207e-4 H -5.8545e-5" /></clipPath><clipPath
       id="clipPath420"
       clipPathUnits="userSpaceOnUse"><path
         style="clip-rule:evenodd"
         id="path418"
         d="M -2.5577e-5,540 H 960 V 1.2207e-4 H -5.8545e-5" /></clipPath><clipPath
       id="clipPath440"
       clipPathUnits="userSpaceOnUse"><path
         style="clip-rule:evenodd"
         id="path438"
         d="M -5.718e-5,540 H 960 V 6.1035e-5 L -9.3401e-5,1.2207e-4" /></clipPath><clipPath
       id="clipPath450"
       clipPathUnits="userSpaceOnUse"><path
         style="clip-rule:evenodd"
         id="path448"
         d="M -3.8542e-5,540 H 960 V 6.1035e-5 H -7.4763e-5" /></clipPath><clipPath
       id="clipPath464"
       clipPathUnits="userSpaceOnUse"><path
         style="clip-rule:evenodd"
         id="path462"
         d="M -8.1462e-5,540 H 960 V 6.1035e-5 H -1.1786e-4" /></clipPath><clipPath
       id="clipPath478"
       clipPathUnits="userSpaceOnUse"><path
         style="clip-rule:evenodd"
         id="path476"
         d="M -1.0313e-4,540 H 960 V 6.1035e-5 H -1.3952e-4" /></clipPath><clipPath
       id="clipPath488"
       clipPathUnits="userSpaceOnUse"><path
         style="clip-rule:evenodd"
         id="path486"
         d="M -2.2196e-5,540 H 960 V 1.2207e-4 H -4.4209e-5" /></clipPath><clipPath
       id="clipPath498"
       clipPathUnits="userSpaceOnUse"><path
         style="clip-rule:evenodd"
         id="path496"
         d="M -1.1408e-5,540 H 960 V 1.2207e-4 H -6.2021e-5" /></clipPath><clipPath
       id="clipPath508"
       clipPathUnits="userSpaceOnUse"><path
         style="clip-rule:evenodd"
         id="path506"
         d="M 2.1234e-5,540 H 960 V 1.2207e-4 H -3.0967e-5" /></clipPath><clipPath
       id="clipPath518"
       clipPathUnits="userSpaceOnUse"><path
         style="clip-rule:evenodd"
         id="path516"
         d="M -6.003e-6,540 H 960 V 1.2207e-4 H -2.9603e-5" /></clipPath><clipPath
       id="clipPath528"
       clipPathUnits="userSpaceOnUse"><path
         style="clip-rule:evenodd"
         id="path526"
         d="M 2.4835e-5,540 H 960 V 1.2207e-4 H 2.822e-6" /></clipPath><clipPath
       id="clipPath538"
       clipPathUnits="userSpaceOnUse"><path
         style="clip-rule:evenodd"
         id="path536"
         d="M -8.284e-6,540 H 960 V 1.2207e-4 H -2.8709e-5" /></clipPath><clipPath
       id="clipPath548"
       clipPathUnits="userSpaceOnUse"><path
         style="clip-rule:evenodd"
         id="path546"
         d="M -2.972e-6,540 H 960 V 1.2207e-4 H -4.71e-5" /></clipPath><clipPath
       id="clipPath558"
       clipPathUnits="userSpaceOnUse"><path
         style="clip-rule:evenodd"
         id="path556"
         d="M -6.5151e-5,540 H 960 V 0 L -1.0177e-4,-6.1035e-5" /></clipPath></defs><g
     transform="matrix(1.3333333,0,0,-1.3333333,0,720)"
     id="g10"><g
       id="g12"><g
         clip-path="url(#clipPath18)"
         id="g14"><path
           id="path20"
           style="fill:#ffffff;fill-opacity:1;fill-rule:evenodd;stroke:none"
           d="M 0,6.1035e-5 H 960 V 540.00006 H 0 Z" /></g></g><g
       id="g22"><g
         clip-path="url(#clipPath28)"
         id="g24"><g
           transform="matrix(13.019,-2.8793,1.4003,6.3314,-39.085,146.01)"
           id="g30"><g
             transform="scale(0.063091,0.12973)"
             id="g32"><g
               clip-path="url(#clipPath38)"
               id="g34"><g
                 id="g40"><g
                   clip-path="url(#clipPath46)"
                   id="g42"><path
                     id="path48"
                     style="fill:#ffffff;fill-opacity:1;fill-rule:evenodd;stroke:none"
                     d="M 0,-0.0075073 H 1141.2 V 554.99249 H 0 Z" /></g></g><path
                 id="path50"
                 style="fill:#ffffff;fill-opacity:1;fill-rule:evenodd;stroke:none"
                 d="M 0,-0.0075073 H 1141.2 V 554.99249 H 0 Z" /><path
                 id="path52"
                 style="fill:none;stroke:#000000;stroke-width:1;stroke-linecap:butt;stroke-linejoin:round;stroke-miterlimit:10;stroke-dasharray:none;stroke-opacity:1"
                 d="m 958.9,287.39 -0.43,0.99 -1.29,0.18 -2.15,0.3 -3,0.42 -3.84,0.53 -4.68,0.64 -5.5,0.75 -6.31,0.85 -7.12,0.95 -7.89,1.04 -8.65,1.13 -9.4,1.2 -10.12,1.28 -10.81,1.34 -11.48,1.4 -12.13,1.45 -12.75,1.5 -13.33,1.53 -13.88,1.56 -14.41,1.59 -14.89,1.59 -15.35,1.61 -15.77,1.6 -16.15,1.6 -16.5,1.58 -16.8,1.55 -17.06,1.52 -17.29,1.47 -17.48,1.43 -17.62,1.36 -17.73,1.29 -17.79,1.22 -17.8,1.12 -17.79,1.02 -17.73,0.92 -17.62,0.8 -17.48,0.67 -17.29,0.54 -17.06,0.39 -16.8,0.24 -16.5,0.09 -16.15,-0.08 -15.77,-0.25 -15.35,-0.42 -14.89,-0.59 -14.41,-0.77 -13.88,-0.94 -13.33,-1.12 -12.75,-1.28 -12.13,-1.46 -11.48,-1.61 -10.81,-1.78 -10.12,-1.92 -9.4,-2.07 -8.65,-2.21 -7.89,-2.33 -7.12,-2.45 -6.31,-2.56 -5.5,-2.66 -4.68,-2.75 -3.84,-2.85 -3,-2.92 -2.15,-3.01 -1.29,-3.07 -0.43,-3.14 0.43,-3.14 1.29,-3.07 2.15,-3 3,-2.93 3.84,-2.84 4.68,-2.76 5.5,-2.66 6.31,-2.56 7.12,-2.45 7.89,-2.33 8.65,-2.2 9.4,-2.07 10.12,-1.93 10.81,-1.77 11.48,-1.62 12.13,-1.45 12.75,-1.29 13.33,-1.12 13.88,-0.94 14.41,-0.76 14.89,-0.6 15.35,-0.42 15.77,-0.24 16.15,-0.08 16.5,0.08 16.8,0.25 17.06,0.39 17.29,0.54 17.48,0.67 17.62,0.79 17.73,0.92 17.79,1.03 17.8,1.12 17.79,1.21 17.73,1.29 17.62,1.37 17.48,1.42 17.29,1.48 17.06,1.52 16.8,1.55 16.5,1.58 16.15,1.59 15.77,1.61 15.35,1.6 14.89,1.6 14.41,1.58 13.88,1.57 13.33,1.53 12.75,1.49 12.13,1.46 11.48,1.4 10.81,1.34 10.12,1.27 9.4,1.21 8.65,1.12 7.89,1.04 7.12,0.95 6.31,0.85 5.5,0.75 4.68,0.65 3.84,0.53 3,0.41 2.15,0.3 1.29,0.18 0.43,0.99" /></g></g></g></g></g><g
       id="g54"><g
         clip-path="url(#clipPath60)"
         id="g56"><path
           id="path62"
           style="fill:none;stroke:#000000;stroke-width:0.5;stroke-linecap:butt;stroke-linejoin:miter;stroke-miterlimit:10;stroke-dasharray:none;stroke-opacity:1"
           d="m 200.24,364.98 15.37,69.18" /></g></g><g
       id="g64"><g
         clip-path="url(#clipPath70)"
         id="g66"><path
           id="path72"
           style="fill:none;stroke:#000000;stroke-width:0.5;stroke-linecap:butt;stroke-linejoin:miter;stroke-miterlimit:10;stroke-dasharray:none;stroke-opacity:1"
           d="m 603.14,266.07 15.37,69.18" /></g></g><g
       id="g74"><g
         clip-path="url(#clipPath80)"
         id="g76"><path
           id="path82"
           style="fill:none;stroke:#000000;stroke-width:0.5;stroke-linecap:butt;stroke-linejoin:miter;stroke-miterlimit:10;stroke-dasharray:none;stroke-opacity:1"
           d="m 473.55,297.3 15.37,69.18" /></g></g><g
       id="g84"><g
         clip-path="url(#clipPath90)"
         id="g86"><path
           id="path92"
           style="fill:none;stroke:#000000;stroke-width:0.5;stroke-linecap:butt;stroke-linejoin:miter;stroke-miterlimit:10;stroke-dasharray:none;stroke-opacity:1"
           d="m 550,278.47 15.37,69.18" /></g></g><g
       id="g94"><g
         clip-path="url(#clipPath100)"
         id="g96"><path
           id="path102"
           style="fill:#000000;fill-opacity:1;fill-rule:nonzero;stroke:none"
           d="m 211.82,399.57 265.52,-58.73 0.21,0.98 -265.51,58.72 z m 1.74,3.2 -6.51,-1.63 5.21,-4.23 z m 262.26,-64.15 6.51,1.63 -5.21,4.23 z" /></g></g><g
       id="g104"><g
         clip-path="url(#clipPath110)"
         id="g106"><path
           id="path112"
           style="fill:#000000;fill-opacity:1;fill-rule:nonzero;stroke:none"
           d="m 359.87,376.57 -0.91,-0.38 -0.52,0.26 4.4,9.31 c 0.26,0.56 0.42,0.97 0.48,1.23 0.05,0.24 0.02,0.43 -0.11,0.55 -0.12,0.13 -0.37,0.25 -0.75,0.34 l 0.21,0.43 2.18,-0.41 0.5,-0.11 -2.84,-5.67 0.1,-0.06 c 0.72,0.62 1.36,1.04 1.92,1.27 0.56,0.22 1.08,0.28 1.57,0.17 0.62,-0.14 1.06,-0.48 1.3,-1.03 0.24,-0.56 0.26,-1.26 0.07,-2.13 -0.21,-0.94 -0.61,-1.83 -1.19,-2.66 -0.58,-0.82 -1.27,-1.43 -2.06,-1.81 -0.8,-0.39 -1.61,-0.49 -2.45,-0.3 -0.76,0.17 -1.39,0.5 -1.9,1 z m 1.33,2.4 c -0.18,-0.38 -0.31,-0.76 -0.39,-1.14 -0.1,-0.45 -0.08,-0.8 0.08,-1.04 0.15,-0.24 0.46,-0.42 0.91,-0.52 0.24,-0.05 0.47,-0.06 0.7,-0.03 0.23,0.03 0.47,0.11 0.73,0.24 0.26,0.12 0.52,0.31 0.78,0.56 0.26,0.24 0.52,0.56 0.78,0.94 0.26,0.39 0.49,0.81 0.69,1.28 0.2,0.46 0.35,0.91 0.45,1.35 0.13,0.6 0.14,1.06 0.04,1.4 -0.1,0.33 -0.34,0.54 -0.71,0.62 -0.27,0.06 -0.56,0.04 -0.87,-0.08 -0.3,-0.11 -0.66,-0.34 -1.08,-0.67 -0.42,-0.33 -0.77,-0.68 -1.07,-1.06 -0.3,-0.38 -0.6,-0.88 -0.89,-1.51 z" /></g></g><g
       id="g114"><g
         clip-path="url(#clipPath120)"
         id="g116"><path
           id="path122"
           style="fill:none;stroke:#000000;stroke-width:0.5;stroke-linecap:butt;stroke-linejoin:miter;stroke-miterlimit:10;stroke-dasharray:2, 1.5;stroke-dashoffset:0;stroke-opacity:1"
           d="M 195.3,341.66 800.62,207.78" /></g></g><g
       id="g124"><path
         id="path126"
         style="fill:none;stroke:#000000;stroke-width:0.5;stroke-linecap:butt;stroke-linejoin:miter;stroke-miterlimit:10;stroke-dasharray:2, 1.5;stroke-dashoffset:0;stroke-opacity:1"
         d="M 311.16,264.6 H 747.47" /></g><g
       id="g128"><g
         clip-path="url(#clipPath134)"
         id="g130"><path
           id="path136"
           style="fill:none;stroke:#000000;stroke-width:1.5;stroke-linecap:butt;stroke-linejoin:miter;stroke-miterlimit:10;stroke-dasharray:none;stroke-opacity:1"
           d="m 550.05,259.01 c -1.28,2.98 -2.56,5.96 -4.45,7.11 -1.89,1.14 -5.45,1.27 -6.89,-0.24 -1.45,-1.51 -2.6,-6.46 -1.78,-8.84 0.83,-2.37 4.16,-4.48 6.75,-5.41 2.58,-0.92 6.57,-1.36 8.77,-0.13 2.21,1.22 4.37,4.17 4.44,7.49 0.07,3.32 -1.06,9.63 -4.03,12.43 -2.97,2.81 -10.09,5 -13.79,4.39 -3.71,-0.61 -6.97,-4.37 -8.46,-8.04 -1.5,-3.66 -3.35,-10.19 -0.52,-13.95 2.83,-3.77 11.87,-8.83 17.51,-8.65 5.63,0.18 14.37,4.19 16.29,9.71 1.93,5.52 -0.31,18.5 -4.76,23.4 -4.46,4.9 -15.86,8.23 -21.95,6.02 -6.09,-2.2 -12.62,-15.23 -14.62,-19.24" /></g></g><g
       id="g138"><g
         clip-path="url(#clipPath144)"
         id="g140"><path
           id="path146"
           style="fill:#ffffff;fill-opacity:1;fill-rule:evenodd;stroke:none"
           d="m 590.86,254.86 c 0.87,3.78 4.65,6.14 8.44,5.27 3.78,-0.87 6.15,-4.64 5.28,-8.42 -0.87,-3.78 -4.64,-6.14 -8.43,-5.27 -3.79,0.88 -6.16,4.65 -5.29,8.42 z" /></g></g><g
       id="g148"><g
         clip-path="url(#clipPath154)"
         id="g150"><path
           id="path156"
           style="fill:none;stroke:#000000;stroke-width:1;stroke-linecap:butt;stroke-linejoin:miter;stroke-miterlimit:10;stroke-dasharray:none;stroke-opacity:1"
           d="m 593.98,259.24 7.48,-11.91 m 2.22,9.68 -11.92,-7.45" /></g></g><g
       id="g158"><g
         clip-path="url(#clipPath164)"
         id="g160"><path
           id="path166"
           style="fill:none;stroke:#000000;stroke-width:1;stroke-linecap:butt;stroke-linejoin:miter;stroke-miterlimit:10;stroke-dasharray:none;stroke-opacity:1"
           d="m 590.86,254.86 c 0.87,3.78 4.65,6.14 8.44,5.27 3.78,-0.87 6.15,-4.64 5.28,-8.42 -0.87,-3.78 -4.64,-6.14 -8.43,-5.27 -3.79,0.88 -6.16,4.65 -5.29,8.42 z" /></g></g><g
       id="g168"><g
         clip-path="url(#clipPath174)"
         id="g170"><path
           id="path176"
           style="fill:#000000;fill-opacity:1;fill-rule:evenodd;stroke:none"
           d="m 539.13,264.45 c 0.05,3.92 3.26,7.05 7.18,7 3.91,-0.04 7.04,-3.25 7,-7.17 -0.05,-3.91 -3.26,-7.04 -7.17,-7 -3.92,0.05 -7.05,3.26 -7.01,7.17 z" /></g></g><g
       id="g178"><g
         clip-path="url(#clipPath184)"
         id="g180"><path
           id="path186"
           style="fill:none;stroke:#000000;stroke-width:1;stroke-linecap:butt;stroke-linejoin:miter;stroke-miterlimit:10;stroke-dasharray:none;stroke-opacity:1"
           d="m 539.13,264.45 c 0.05,3.92 3.26,7.05 7.18,7 3.91,-0.04 7.04,-3.25 7,-7.17 -0.05,-3.91 -3.26,-7.04 -7.17,-7 -3.92,0.05 -7.05,3.26 -7.01,7.17 z" /></g></g><path
       id="path188"
       style="fill:#000000;fill-opacity:1;fill-rule:evenodd;stroke:none"
       d="m 650.64,178.56 c 0,3.91 3.17,7.08 7.08,7.08 3.91,0 7.08,-3.17 7.08,-7.08 0,-3.91 -3.17,-7.08 -7.08,-7.08 -3.91,0 -7.08,3.17 -7.08,7.08 z" /><path
       id="path190"
       style="fill:none;stroke:#000000;stroke-width:1;stroke-linecap:butt;stroke-linejoin:miter;stroke-miterlimit:10;stroke-dasharray:none;stroke-opacity:1"
       d="m 650.64,178.56 c 0,3.91 3.17,7.08 7.08,7.08 3.91,0 7.08,-3.17 7.08,-7.08 0,-3.91 -3.17,-7.08 -7.08,-7.08 -3.91,0 -7.08,3.17 -7.08,7.08 z" /><path
       id="path192"
       style="fill:#ffffff;fill-opacity:1;fill-rule:evenodd;stroke:none"
       d="m 650.64,149.94 c 0,3.88 3.17,7.02 7.08,7.02 3.91,0 7.08,-3.14 7.08,-7.02 0,-3.88 -3.17,-7.02 -7.08,-7.02 -3.91,0 -7.08,3.14 -7.08,7.02 z" /><path
       id="path194"
       style="fill:none;stroke:#000000;stroke-width:1;stroke-linecap:butt;stroke-linejoin:miter;stroke-miterlimit:10;stroke-dasharray:none;stroke-opacity:1"
       d="m 652.71,154.9 10.02,-9.92 m 0,9.92 -10.02,-9.92" /><path
       id="path196"
       style="fill:none;stroke:#000000;stroke-width:1;stroke-linecap:butt;stroke-linejoin:miter;stroke-miterlimit:10;stroke-dasharray:none;stroke-opacity:1"
       d="m 650.64,149.94 c 0,3.88 3.17,7.02 7.08,7.02 3.91,0 7.08,-3.14 7.08,-7.02 0,-3.88 -3.17,-7.02 -7.08,-7.02 -3.91,0 -7.08,3.14 -7.08,7.02 z" /><path
       id="path198"
       style="fill:none;stroke:#000000;stroke-width:1;stroke-linecap:butt;stroke-linejoin:miter;stroke-miterlimit:10;stroke-dasharray:none;stroke-opacity:1"
       d="m 641.64,136.44 h 70.44 v 56.64 h -70.44 z" /><g
       id="g200"><g
         clip-path="url(#clipPath206)"
         id="g202"><text
           id="text210"
           style="font-variant:normal;font-weight:normal;font-size:18px;font-family:TimesNewRomanPSMT;-inkscape-font-specification:TimesNewRomanPSMT;writing-mode:lr-tb;fill:#000000;fill-opacity:1;fill-rule:nonzero;stroke:none"
           transform="matrix(1,0,0,-1,676.54,172.03)"><tspan
             id="tspan208"
             y="0"
             x="0 11.04">EA</tspan></text>
</g></g><g
       id="g212"><g
         clip-path="url(#clipPath218)"
         id="g214"><text
           id="text222"
           style="font-variant:normal;font-weight:normal;font-size:18px;font-family:TimesNewRomanPSMT;-inkscape-font-specification:TimesNewRomanPSMT;writing-mode:lr-tb;fill:#000000;fill-opacity:1;fill-rule:nonzero;stroke:none"
           transform="matrix(1,0,0,-1,676.54,144.43)"><tspan
             id="tspan220"
             y="0"
             x="0 12">CG</tspan></text>
</g></g><g
       id="g224"><g
         clip-path="url(#clipPath230)"
         id="g226"><path
           id="path232"
           style="fill:#000000;fill-opacity:1;fill-rule:evenodd;stroke:none"
           d="m 591.74,249.44 c -2.02,3.21 -1.13,7.43 2.01,9.55 l 3.94,-5.83 z" /></g></g><g
       id="g234"><g
         clip-path="url(#clipPath240)"
         id="g236"><path
           id="path242"
           style="fill:none;stroke:#000000;stroke-width:1;stroke-linecap:butt;stroke-linejoin:miter;stroke-miterlimit:10;stroke-dasharray:none;stroke-opacity:1"
           d="m 591.74,249.44 c -2.02,3.21 -1.13,7.43 2.01,9.55 l 3.94,-5.83 z" /></g></g><g
       id="g244"><g
         clip-path="url(#clipPath250)"
         id="g246"><path
           id="path252"
           style="fill:#000000;fill-opacity:1;fill-rule:evenodd;stroke:none"
           d="m 603.63,257.03 c 2.16,-3.23 1.3,-7.59 -1.93,-9.74 -0.01,0 -0.01,-0.01 -0.02,-0.01 l -3.89,5.86 z" /></g></g><g
       id="g254"><g
         clip-path="url(#clipPath260)"
         id="g256"><path
           id="path262"
           style="fill:none;stroke:#000000;stroke-width:1;stroke-linecap:butt;stroke-linejoin:miter;stroke-miterlimit:10;stroke-dasharray:none;stroke-opacity:1"
           d="m 603.63,257.03 c 2.16,-3.23 1.3,-7.59 -1.93,-9.74 -0.01,0 -0.01,-0.01 -0.02,-0.01 l -3.89,5.86 z" /></g></g><g
       id="g264"><g
         clip-path="url(#clipPath270)"
         id="g266"><path
           id="path272"
           style="fill:#000000;fill-opacity:1;fill-rule:evenodd;stroke:none"
           d="m 652.75,144.8 c -2.68,2.68 -2.76,6.99 -0.18,9.76 l 5.15,-4.8 z" /></g></g><g
       id="g274"><g
         clip-path="url(#clipPath280)"
         id="g276"><path
           id="path282"
           style="fill:none;stroke:#000000;stroke-width:1;stroke-linecap:butt;stroke-linejoin:miter;stroke-miterlimit:10;stroke-dasharray:none;stroke-opacity:1"
           d="m 652.75,144.8 c -2.68,2.68 -2.76,6.99 -0.18,9.76 l 5.15,-4.8 z" /></g></g><g
       id="g284"><g
         clip-path="url(#clipPath290)"
         id="g286"><path
           id="path292"
           style="fill:#000000;fill-opacity:1;fill-rule:evenodd;stroke:none"
           d="m 662.64,154.87 c 2.83,-2.66 2.96,-7.11 0.3,-9.93 -0.01,0 -0.01,-0.01 -0.02,-0.01 l -5.1,4.83 z" /></g></g><g
       id="g294"><g
         clip-path="url(#clipPath300)"
         id="g296"><path
           id="path302"
           style="fill:none;stroke:#000000;stroke-width:1;stroke-linecap:butt;stroke-linejoin:miter;stroke-miterlimit:10;stroke-dasharray:none;stroke-opacity:1"
           d="m 662.64,154.87 c 2.83,-2.66 2.96,-7.11 0.3,-9.93 -0.01,0 -0.01,-0.01 -0.02,-0.01 l -5.1,4.83 z" /></g></g><g
       id="g304"><g
         clip-path="url(#clipPath310)"
         id="g306"><path
           id="path312"
           style="fill:none;stroke:#000000;stroke-width:0.5;stroke-linecap:butt;stroke-linejoin:miter;stroke-miterlimit:10;stroke-dasharray:none;stroke-opacity:1"
           d="m 331.18,264.42 c -6.56,13.97 -0.96,31.91 13.55,43.41" /></g></g><g
       id="g314"><g
         clip-path="url(#clipPath320)"
         id="g316"><path
           id="path322"
           style="fill:#000000;fill-opacity:1;fill-rule:evenodd;stroke:none"
           d="m 338.42,305.49 5.89,2.35 -1.65,-6.12 z" /></g></g><g
       id="g324"><g
         clip-path="url(#clipPath330)"
         id="g326"><path
           id="path332"
           style="fill:none;stroke:#000000;stroke-width:1;stroke-linecap:butt;stroke-linejoin:miter;stroke-miterlimit:10;stroke-dasharray:none;stroke-opacity:1"
           d="m 338.42,305.49 5.89,2.35 -1.65,-6.12 z" /></g></g><g
       id="g334"><g
         clip-path="url(#clipPath340)"
         id="g336"><path
           id="path342"
           style="fill:#000000;fill-opacity:1;fill-rule:nonzero;stroke:none"
           d="m 326.51,294.64 c -0.74,-0.98 -1.61,-2.18 -2.61,-3.6 -0.16,-1.12 -0.24,-1.91 -0.25,-2.37 0,-0.39 0.04,-0.67 0.12,-0.83 0.09,-0.17 0.23,-0.26 0.44,-0.26 0.16,0 0.35,0.07 0.56,0.2 0.21,0.14 0.44,0.35 0.68,0.63 l 0.5,-0.48 c -0.49,-0.52 -0.93,-0.88 -1.29,-1.07 -0.37,-0.19 -0.74,-0.29 -1.13,-0.28 -0.78,0.01 -1.16,0.58 -1.15,1.72 0,0.25 0.03,0.53 0.06,0.83 h -0.08 c -0.62,-0.89 -1.2,-1.53 -1.74,-1.92 -0.54,-0.39 -1.12,-0.58 -1.74,-0.58 -0.43,0.01 -0.79,0.14 -1.08,0.39 -0.29,0.25 -0.5,0.57 -0.63,0.98 -0.14,0.41 -0.21,0.86 -0.2,1.34 0.01,1.05 0.22,2.04 0.63,2.97 0.41,0.94 0.98,1.67 1.69,2.2 0.72,0.53 1.52,0.78 2.4,0.77 0.66,0 1.17,-0.21 1.54,-0.63 0.36,-0.41 0.56,-1.02 0.59,-1.81 l 0.08,0.01 1.18,2.25 1.52,-0.02 z m -3.87,-3.65 c 0.11,0.61 0.17,1.15 0.17,1.62 0.01,0.67 -0.08,1.16 -0.28,1.49 -0.19,0.32 -0.49,0.49 -0.91,0.49 -0.54,0.01 -1.04,-0.23 -1.51,-0.7 -0.47,-0.48 -0.85,-1.12 -1.13,-1.94 -0.29,-0.82 -0.44,-1.66 -0.45,-2.52 -0.01,-0.59 0.07,-1.03 0.25,-1.32 0.17,-0.29 0.43,-0.43 0.78,-0.44 0.51,0 1.03,0.29 1.57,0.87 0.54,0.59 1.04,1.4 1.51,2.45 z" /></g></g><path
       id="path344"
       style="fill:#000000;fill-opacity:1;fill-rule:nonzero;stroke:none"
       d="m 180.84,267.62 h 71.89 v -1 h -71.89 z m 70.89,2.5 6,-3 -6,-3 z" /><g
       id="g346"><g
         clip-path="url(#clipPath352)"
         id="g348"><path
           id="path354"
           style="fill:#000000;fill-opacity:1;fill-rule:nonzero;stroke:none"
           d="m 210.66,290.12 0.1,0.43 3.54,-0.04 -0.11,-0.43 c -0.22,-0.04 -0.38,-0.1 -0.48,-0.15 -0.09,-0.06 -0.18,-0.15 -0.26,-0.26 -0.08,-0.12 -0.16,-0.3 -0.25,-0.55 -0.08,-0.25 -0.18,-0.65 -0.31,-1.21 L 211.73,283 c -0.08,-0.33 -0.15,-0.65 -0.19,-0.95 -0.05,-0.3 -0.08,-0.62 -0.08,-0.94 -0.01,-0.64 0.14,-1.12 0.45,-1.45 0.31,-0.34 0.78,-0.51 1.42,-0.51 0.59,-0.01 1.09,0.11 1.49,0.35 0.41,0.24 0.73,0.59 0.97,1.05 0.25,0.46 0.46,1.06 0.63,1.79 l 1.29,5.52 c 0.14,0.58 0.21,1.05 0.21,1.41 0,0.28 -0.06,0.47 -0.2,0.58 -0.14,0.11 -0.35,0.17 -0.65,0.2 l 0.1,0.42 3.34,-0.04 -0.1,-0.42 c -0.22,-0.05 -0.38,-0.1 -0.48,-0.16 -0.11,-0.06 -0.2,-0.15 -0.28,-0.27 -0.08,-0.11 -0.16,-0.3 -0.24,-0.55 -0.08,-0.25 -0.18,-0.65 -0.31,-1.2 l -1.21,-5.25 c -0.24,-1.04 -0.57,-1.88 -0.99,-2.49 -0.43,-0.62 -0.95,-1.06 -1.58,-1.33 -0.63,-0.27 -1.39,-0.39 -2.29,-0.38 -1.02,0.01 -1.79,0.26 -2.32,0.76 -0.54,0.49 -0.8,1.21 -0.79,2.15 0.01,0.33 0.05,0.7 0.12,1.13 0.07,0.42 0.17,0.9 0.3,1.43 l 0.96,4.08 c 0.15,0.61 0.22,1.08 0.22,1.42 0.01,0.26 -0.06,0.45 -0.19,0.57 -0.14,0.11 -0.36,0.18 -0.67,0.2 z" /></g></g><path
       id="path356"
       style="fill:none;stroke:#000000;stroke-width:1.5;stroke-linecap:butt;stroke-linejoin:miter;stroke-miterlimit:10;stroke-dasharray:none;stroke-opacity:1"
       d="m 546.18,257.22 0.08,-41.1" /><path
       id="path358"
       style="fill:none;stroke:#000000;stroke-width:1.5;stroke-linecap:butt;stroke-linejoin:miter;stroke-miterlimit:10;stroke-dasharray:none;stroke-opacity:1"
       d="m 546.18,216.42 22.68,-8.5" /><path
       id="path360"
       style="fill:none;stroke:#000000;stroke-width:1.5;stroke-linecap:butt;stroke-linejoin:miter;stroke-miterlimit:10;stroke-dasharray:none;stroke-opacity:1"
       d="m 523.5,198.8 45.35,8.5" /><path
       id="path362"
       style="fill:none;stroke:#000000;stroke-width:1.5;stroke-linecap:butt;stroke-linejoin:miter;stroke-miterlimit:10;stroke-dasharray:none;stroke-opacity:1"
       d="m 523.5,198.54 45.35,-8.5" /><path
       id="path364"
       style="fill:none;stroke:#000000;stroke-width:1.5;stroke-linecap:butt;stroke-linejoin:miter;stroke-miterlimit:10;stroke-dasharray:none;stroke-opacity:1"
       d="m 524.46,181.38 22.68,-8.5" /><path
       id="path366"
       style="fill:none;stroke:#000000;stroke-width:1.5;stroke-linecap:butt;stroke-linejoin:miter;stroke-miterlimit:10;stroke-dasharray:none;stroke-opacity:1"
       d="M 547.14,173.34 V 143.55" /><g
       id="g368"><g
         clip-path="url(#clipPath374)"
         id="g370"><path
           id="path376"
           style="fill:#000000;fill-opacity:1;fill-rule:nonzero;stroke:none"
           d="m 579.87,200.02 0.29,-0.01 c 0.24,0 0.47,0.04 0.67,0.12 0.21,0.08 0.44,0.23 0.72,0.44 0.27,0.21 0.7,0.61 1.3,1.18 0.59,0.57 1.02,1.01 1.27,1.31 0.25,0.3 0.44,0.55 0.55,0.77 0.12,0.22 0.18,0.42 0.18,0.6 0,0.15 -0.05,0.27 -0.17,0.36 -0.12,0.09 -0.28,0.15 -0.5,0.17 l 0.1,0.43 3.77,-0.05 -0.1,-0.43 c -0.23,-0.03 -0.5,-0.15 -0.8,-0.35 -0.3,-0.21 -0.75,-0.61 -1.37,-1.2 l -3.45,-3.28 1.82,-4.53 c 0.19,-0.46 0.34,-0.8 0.47,-1 0.12,-0.21 0.27,-0.37 0.44,-0.5 0.18,-0.12 0.39,-0.2 0.65,-0.25 l -0.1,-0.42 -3.39,0.04 0.1,0.43 c 0.31,0.02 0.47,0.16 0.48,0.41 0,0.16 -0.03,0.34 -0.09,0.54 -0.07,0.21 -0.14,0.42 -0.22,0.63 l -1.11,2.81 c -0.13,0.34 -0.25,0.57 -0.35,0.71 -0.09,0.14 -0.2,0.23 -0.31,0.28 -0.11,0.06 -0.28,0.09 -0.52,0.09 l -0.49,0.01 -0.77,-3.32 c -0.08,-0.35 -0.13,-0.62 -0.16,-0.83 -0.02,-0.2 -0.04,-0.38 -0.04,-0.54 0,-0.26 0.06,-0.45 0.19,-0.56 0.13,-0.11 0.35,-0.18 0.66,-0.2 l -0.1,-0.43 -3.51,0.04 0.1,0.43 c 0.22,0.03 0.39,0.09 0.5,0.16 0.11,0.08 0.21,0.19 0.29,0.33 0.07,0.14 0.15,0.31 0.21,0.51 0.07,0.2 0.17,0.59 0.31,1.17 l 1.57,6.75 c 0.14,0.59 0.21,1.06 0.21,1.41 0.01,0.28 -0.06,0.47 -0.2,0.58 -0.13,0.11 -0.35,0.18 -0.65,0.2 l 0.1,0.43 3.52,-0.04 -0.1,-0.43 c -0.23,-0.05 -0.39,-0.1 -0.49,-0.16 -0.09,-0.05 -0.18,-0.14 -0.26,-0.26 -0.08,-0.11 -0.16,-0.29 -0.24,-0.54 -0.09,-0.25 -0.19,-0.65 -0.32,-1.22 z" /></g></g><g
       id="g378"><g
         clip-path="url(#clipPath384)"
         id="g380"><path
           id="path386"
           style="fill:#000000;fill-opacity:1;fill-rule:nonzero;stroke:none"
           d="m 592.82,191.81 c -0.04,-0.17 -0.08,-0.31 -0.11,-0.41 -0.02,-0.11 -0.04,-0.2 -0.06,-0.27 -0.01,-0.07 -0.02,-0.13 -0.02,-0.19 -0.01,-0.05 -0.01,-0.1 -0.01,-0.16 0,-0.16 0.02,-0.28 0.08,-0.35 0.06,-0.08 0.16,-0.11 0.3,-0.12 0.08,0 0.15,0.02 0.23,0.05 0.07,0.03 0.16,0.07 0.24,0.14 0.09,0.06 0.19,0.14 0.3,0.24 0.1,0.1 0.22,0.22 0.36,0.36 0.07,-0.07 0.14,-0.15 0.21,-0.22 0.08,-0.07 0.15,-0.14 0.22,-0.21 -0.22,-0.22 -0.42,-0.41 -0.6,-0.56 -0.19,-0.16 -0.36,-0.28 -0.52,-0.38 -0.17,-0.1 -0.33,-0.17 -0.49,-0.21 -0.16,-0.04 -0.33,-0.07 -0.51,-0.06 -0.15,0 -0.3,0.03 -0.43,0.09 -0.13,0.06 -0.24,0.15 -0.33,0.25 -0.1,0.11 -0.17,0.24 -0.22,0.38 -0.05,0.15 -0.08,0.3 -0.08,0.48 0.01,0.17 0.03,0.37 0.07,0.59 0.04,0.22 0.09,0.45 0.15,0.7 0.06,0.24 0.12,0.49 0.19,0.74 0.07,0.25 0.14,0.48 0.19,0.7 0.06,0.22 0.11,0.42 0.15,0.6 0.04,0.18 0.07,0.33 0.07,0.43 0,0.12 -0.01,0.24 -0.03,0.34 -0.01,0.11 -0.04,0.2 -0.09,0.28 -0.05,0.08 -0.12,0.14 -0.2,0.19 -0.08,0.05 -0.18,0.07 -0.31,0.07 -0.21,0 -0.43,-0.07 -0.67,-0.23 -0.25,-0.16 -0.48,-0.36 -0.7,-0.61 -0.22,-0.25 -0.41,-0.53 -0.59,-0.84 -0.17,-0.32 -0.29,-0.63 -0.36,-0.94 -0.12,-0.51 -0.23,-1.02 -0.34,-1.53 -0.11,-0.51 -0.22,-1.02 -0.34,-1.53 l -1.23,0.01 1.61,6.91 c 0.05,0.22 0.08,0.39 0.11,0.53 0.03,0.14 0.04,0.26 0.04,0.36 0,0.08 -0.01,0.15 -0.04,0.21 -0.02,0.06 -0.06,0.11 -0.13,0.15 -0.06,0.03 -0.14,0.06 -0.25,0.08 -0.11,0.02 -0.24,0.03 -0.4,0.04 l 0.1,0.43 1.78,0.06 0.46,-0.01 -0.93,-3.63 0.09,-0.02 c 0.22,0.25 0.42,0.46 0.62,0.64 0.2,0.18 0.4,0.33 0.59,0.45 0.18,0.11 0.37,0.2 0.56,0.25 0.18,0.05 0.37,0.08 0.56,0.08 0.46,-0.01 0.81,-0.13 1.03,-0.38 0.22,-0.25 0.33,-0.59 0.32,-1.04 0,-0.13 -0.01,-0.29 -0.04,-0.48 -0.03,-0.19 -0.08,-0.42 -0.14,-0.67 z" /></g></g><path
       id="path388"
       style="fill:#000000;fill-opacity:1;fill-rule:evenodd;stroke:none"
       d="m 512.04,136.92 h 70.8 v 6.6 h -70.8 z" /><path
       id="path390"
       style="fill:none;stroke:#000000;stroke-width:1;stroke-linecap:butt;stroke-linejoin:miter;stroke-miterlimit:10;stroke-dasharray:none;stroke-opacity:1"
       d="m 512.04,136.92 h 70.8 v 6.6 h -70.8 z" /><path
       id="path392"
       style="fill:none;stroke:#000000;stroke-width:0.5;stroke-linecap:butt;stroke-linejoin:miter;stroke-miterlimit:10;stroke-dasharray:none;stroke-opacity:1"
       d="m 516,137.28 14.89,-16.34" /><path
       id="path394"
       style="fill:none;stroke:#000000;stroke-width:0.5;stroke-linecap:butt;stroke-linejoin:miter;stroke-miterlimit:10;stroke-dasharray:none;stroke-opacity:1"
       d="m 531.24,137.28 14.89,-16.34" /><path
       id="path396"
       style="fill:none;stroke:#000000;stroke-width:0.5;stroke-linecap:butt;stroke-linejoin:miter;stroke-miterlimit:10;stroke-dasharray:none;stroke-opacity:1"
       d="m 546.12,137.28 14.89,-16.34" /><path
       id="path398"
       style="fill:none;stroke:#000000;stroke-width:0.5;stroke-linecap:butt;stroke-linejoin:miter;stroke-miterlimit:10;stroke-dasharray:none;stroke-opacity:1"
       d="m 560.52,136.68 14.89,-16.34" /><path
       id="path400"
       style="fill:none;stroke:#000000;stroke-width:0.5;stroke-linecap:butt;stroke-linejoin:miter;stroke-miterlimit:10;stroke-dasharray:none;stroke-opacity:1"
       d="m 575.4,136.68 14.89,-16.34" /><path
       id="path402"
       style="fill:none;stroke:#000000;stroke-width:1.5;stroke-linecap:butt;stroke-linejoin:miter;stroke-miterlimit:10;stroke-dasharray:none;stroke-opacity:1"
       d="m 523.39,266.58 -19.21,-39.6" /><g
       id="g404"><g
         clip-path="url(#clipPath410)"
         id="g406"><path
           id="path412"
           style="fill:#000000;fill-opacity:1;fill-rule:evenodd;stroke:none"
           d="m 479.02,237.33 50.23,-20.49 -2.47,-6.06 -50.23,20.49 z" /></g></g><g
       id="g414"><g
         clip-path="url(#clipPath420)"
         id="g416"><path
           id="path422"
           style="fill:none;stroke:#000000;stroke-width:1;stroke-linecap:butt;stroke-linejoin:miter;stroke-miterlimit:10;stroke-dasharray:none;stroke-opacity:1"
           d="m 479.02,237.33 50.23,-20.49 -2.47,-6.06 -50.23,20.49 z" /></g></g><path
       id="path424"
       style="fill:none;stroke:#000000;stroke-width:0.5;stroke-linecap:butt;stroke-linejoin:miter;stroke-miterlimit:10;stroke-dasharray:none;stroke-opacity:1"
       d="m 467.16,223.09 15.28,5.87" /><path
       id="path426"
       style="fill:none;stroke:#000000;stroke-width:0.5;stroke-linecap:butt;stroke-linejoin:miter;stroke-miterlimit:10;stroke-dasharray:none;stroke-opacity:1"
       d="m 477.36,218.53 15.28,5.87" /><path
       id="path428"
       style="fill:none;stroke:#000000;stroke-width:0.5;stroke-linecap:butt;stroke-linejoin:miter;stroke-miterlimit:10;stroke-dasharray:none;stroke-opacity:1"
       d="m 488.52,213.97 15.28,5.87" /><path
       id="path430"
       style="fill:none;stroke:#000000;stroke-width:0.5;stroke-linecap:butt;stroke-linejoin:miter;stroke-miterlimit:10;stroke-dasharray:none;stroke-opacity:1"
       d="m 499.92,210.25 15.28,5.87" /><path
       id="path432"
       style="fill:none;stroke:#000000;stroke-width:0.5;stroke-linecap:butt;stroke-linejoin:miter;stroke-miterlimit:10;stroke-dasharray:none;stroke-opacity:1"
       d="m 509.88,205.57 15.28,5.87" /><g
       id="g434"><g
         clip-path="url(#clipPath440)"
         id="g436"><path
           id="path442"
           style="fill:#000000;fill-opacity:1;fill-rule:nonzero;stroke:none"
           d="m 509.93,287.1 h 0.29 c 0.25,0 0.47,0.04 0.68,0.12 0.2,0.08 0.44,0.22 0.71,0.44 0.27,0.21 0.7,0.6 1.3,1.18 0.6,0.57 1.02,1 1.27,1.3 0.26,0.3 0.44,0.56 0.56,0.78 0.11,0.22 0.17,0.42 0.18,0.6 0,0.15 -0.06,0.26 -0.18,0.36 -0.11,0.09 -0.28,0.15 -0.5,0.17 l 0.11,0.42 3.77,-0.04 -0.1,-0.43 c -0.24,-0.03 -0.51,-0.15 -0.8,-0.35 -0.3,-0.21 -0.76,-0.61 -1.38,-1.21 l -3.45,-3.28 1.82,-4.52 c 0.19,-0.46 0.35,-0.8 0.47,-1.01 0.12,-0.2 0.27,-0.37 0.45,-0.49 0.17,-0.12 0.39,-0.21 0.64,-0.25 l -0.1,-0.43 -3.39,0.04 0.1,0.43 c 0.32,0.03 0.48,0.17 0.48,0.42 0,0.16 -0.03,0.34 -0.09,0.54 -0.06,0.2 -0.14,0.41 -0.22,0.63 l -1.11,2.81 c -0.13,0.33 -0.25,0.57 -0.34,0.71 -0.1,0.13 -0.21,0.23 -0.32,0.28 -0.11,0.05 -0.28,0.08 -0.51,0.09 h -0.5 L 509,283.1 c -0.08,-0.35 -0.13,-0.63 -0.15,-0.83 -0.03,-0.2 -0.04,-0.38 -0.05,-0.54 0,-0.26 0.06,-0.45 0.19,-0.56 0.14,-0.11 0.36,-0.18 0.67,-0.21 l -0.11,-0.43 -3.51,0.05 0.1,0.43 c 0.22,0.03 0.39,0.08 0.5,0.16 0.12,0.08 0.21,0.19 0.29,0.33 0.08,0.14 0.15,0.31 0.22,0.51 0.06,0.2 0.16,0.59 0.3,1.17 l 1.57,6.75 c 0.14,0.58 0.21,1.05 0.22,1.41 0,0.28 -0.07,0.47 -0.2,0.58 -0.14,0.11 -0.36,0.17 -0.66,0.2 l 0.1,0.42 3.52,-0.04 -0.1,-0.43 c -0.22,-0.04 -0.39,-0.09 -0.48,-0.15 -0.1,-0.06 -0.19,-0.14 -0.26,-0.26 -0.08,-0.12 -0.16,-0.3 -0.25,-0.55 -0.08,-0.24 -0.19,-0.65 -0.32,-1.21 z" /></g></g><g
       id="g444"><g
         clip-path="url(#clipPath450)"
         id="g446"><path
           id="path452"
           style="fill:#000000;fill-opacity:1;fill-rule:nonzero;stroke:none"
           d="m 525.19,283.07 c -0.01,-0.07 -0.03,-0.14 -0.04,-0.21 -0.01,-0.07 -0.03,-0.14 -0.05,-0.21 -0.37,-0.47 -0.73,-0.93 -1.07,-1.38 -0.34,-0.45 -0.66,-0.89 -0.96,-1.33 -0.06,-0.36 -0.1,-0.69 -0.14,-0.99 -0.03,-0.3 -0.04,-0.57 -0.05,-0.82 0,-0.15 0.01,-0.27 0.02,-0.36 0.02,-0.1 0.05,-0.17 0.08,-0.22 0.04,-0.06 0.09,-0.1 0.14,-0.12 0.06,-0.02 0.13,-0.03 0.21,-0.03 0.26,-0.01 0.61,0.24 1.05,0.73 0.07,-0.08 0.14,-0.15 0.22,-0.22 0.07,-0.07 0.14,-0.14 0.21,-0.21 -0.22,-0.21 -0.41,-0.4 -0.58,-0.55 -0.18,-0.14 -0.34,-0.26 -0.5,-0.35 -0.16,-0.09 -0.31,-0.16 -0.47,-0.2 -0.15,-0.04 -0.31,-0.06 -0.48,-0.06 -0.67,0.01 -0.99,0.43 -0.98,1.28 0,0.09 0,0.19 0.01,0.28 0.01,0.09 0.02,0.18 0.03,0.28 -0.02,0 -0.04,0 -0.05,0.01 -0.01,0.01 -0.03,0.01 -0.04,0.01 -0.25,-0.33 -0.48,-0.61 -0.71,-0.85 -0.22,-0.23 -0.44,-0.42 -0.66,-0.56 -0.21,-0.15 -0.43,-0.25 -0.64,-0.31 -0.22,-0.07 -0.45,-0.1 -0.68,-0.1 -0.26,0.01 -0.48,0.06 -0.68,0.16 -0.2,0.11 -0.36,0.25 -0.49,0.44 -0.13,0.18 -0.23,0.4 -0.3,0.66 -0.06,0.25 -0.09,0.54 -0.09,0.85 0.01,0.41 0.05,0.81 0.14,1.19 0.09,0.39 0.22,0.75 0.38,1.09 0.16,0.34 0.36,0.65 0.58,0.93 0.23,0.28 0.48,0.52 0.76,0.73 0.28,0.2 0.57,0.36 0.89,0.47 0.32,0.11 0.65,0.16 0.99,0.16 0.52,-0.01 0.93,-0.17 1.22,-0.49 0.29,-0.31 0.45,-0.79 0.47,-1.44 0.02,0 0.04,0 0.05,0 0.01,0.01 0.02,0.01 0.03,0.01 0.15,0.29 0.3,0.59 0.46,0.87 0.16,0.29 0.31,0.58 0.46,0.88 z m -3.21,-3.13 c 0.1,0.42 0.15,0.83 0.15,1.23 0.01,0.49 -0.06,0.86 -0.21,1.09 -0.15,0.24 -0.39,0.35 -0.72,0.36 -0.23,0 -0.45,-0.05 -0.66,-0.15 -0.21,-0.1 -0.4,-0.24 -0.58,-0.42 -0.18,-0.18 -0.34,-0.39 -0.48,-0.64 -0.15,-0.24 -0.27,-0.51 -0.37,-0.79 -0.1,-0.29 -0.18,-0.59 -0.24,-0.9 -0.05,-0.32 -0.08,-0.63 -0.09,-0.95 0,-0.45 0.06,-0.79 0.19,-1.01 0.13,-0.22 0.34,-0.33 0.63,-0.33 0.2,0 0.41,0.05 0.62,0.17 0.21,0.11 0.41,0.27 0.62,0.49 0.2,0.22 0.4,0.48 0.6,0.79 0.19,0.31 0.37,0.67 0.54,1.06 z" /></g></g><path
       id="path454"
       style="fill:none;stroke:#000000;stroke-width:1.5;stroke-linecap:butt;stroke-linejoin:miter;stroke-miterlimit:10;stroke-dasharray:none;stroke-opacity:1"
       d="m 523.5,181.4 45.35,8.5" /><path
       id="path456"
       style="fill:#000000;fill-opacity:1;fill-rule:nonzero;stroke:none"
       d="M 653.54,402.84 V 270.6 h -1 v 132.24 z m 2.5,-131.24 -3,-6 -3,6 z" /><g
       id="g458"><g
         clip-path="url(#clipPath464)"
         id="g460"><path
           id="path466"
           style="fill:#000000;fill-opacity:1;fill-rule:nonzero;stroke:none"
           d="m 665.89,356.88 c 0.15,0.62 0.22,1.06 0.23,1.3 0,0.24 -0.07,0.42 -0.22,0.52 -0.15,0.1 -0.42,0.16 -0.8,0.18 l 0.11,0.45 2.22,0.05 h 0.51 l -1.58,-6.07 0.1,-0.04 c 0.57,0.73 1.1,1.26 1.6,1.58 0.5,0.33 1,0.49 1.5,0.48 0.55,0 0.96,-0.17 1.25,-0.48 0.29,-0.32 0.43,-0.76 0.43,-1.31 -0.01,-0.37 -0.1,-0.9 -0.28,-1.57 l -0.59,-2.3 c -0.17,-0.64 -0.25,-1.09 -0.26,-1.35 0,-0.23 0.04,-0.4 0.11,-0.51 0.08,-0.11 0.19,-0.16 0.36,-0.16 0.17,-0.01 0.36,0.06 0.56,0.21 0.2,0.14 0.49,0.41 0.86,0.81 l 0.49,-0.5 c -0.57,-0.59 -1.03,-0.99 -1.4,-1.21 -0.36,-0.21 -0.77,-0.32 -1.22,-0.32 -0.38,0.01 -0.68,0.15 -0.9,0.42 -0.22,0.27 -0.33,0.62 -0.33,1.05 0.01,0.38 0.11,0.94 0.31,1.67 l 0.4,1.52 c 0.14,0.54 0.23,0.95 0.28,1.22 0.06,0.28 0.08,0.49 0.08,0.64 0.01,0.42 -0.06,0.71 -0.19,0.89 -0.13,0.17 -0.35,0.26 -0.65,0.26 -0.24,0.01 -0.51,-0.09 -0.81,-0.29 -0.29,-0.19 -0.6,-0.49 -0.93,-0.9 -0.33,-0.4 -0.59,-0.79 -0.78,-1.16 -0.2,-0.36 -0.36,-0.81 -0.47,-1.32 l -0.85,-3.8 -1.52,0.02 z" /></g></g><g
       id="g468"><path
         id="path470"
         style="fill:none;stroke:#000000;stroke-width:0.5;stroke-linecap:butt;stroke-linejoin:miter;stroke-miterlimit:10;stroke-dasharray:2, 1.5;stroke-dashoffset:0;stroke-opacity:1"
         d="M 300.72,402.84 H 681.69" /></g><g
       id="g472"><g
         clip-path="url(#clipPath478)"
         id="g474"><path
           id="path480"
           style="fill:#000000;fill-opacity:1;fill-rule:nonzero;stroke:none"
           d="m 684.98,390 v 0.36 h 0.5 c 0.56,-0.01 0.96,0.17 1.2,0.52 0.15,0.22 0.23,0.7 0.24,1.45 l 0.1,8.57 c 0.01,0.83 -0.08,1.35 -0.26,1.56 -0.25,0.29 -0.62,0.44 -1.13,0.44 l -0.5,0.01 0.01,0.36 5.4,-0.06 c 1.98,-0.03 3.49,-0.27 4.52,-0.73 1.02,-0.47 1.85,-1.23 2.46,-2.28 0.62,-1.06 0.92,-2.28 0.91,-3.66 -0.03,-1.84 -0.61,-3.38 -1.74,-4.6 -1.28,-1.37 -3.2,-2.04 -5.78,-2.01 z m 3.8,0.92 c 0.82,-0.2 1.52,-0.3 2.08,-0.3 1.51,-0.02 2.77,0.5 3.78,1.55 1.02,1.05 1.53,2.48 1.55,4.3 0.03,1.84 -0.46,3.29 -1.44,4.36 -0.99,1.06 -2.26,1.61 -3.83,1.63 -0.59,0 -1.26,-0.08 -2.01,-0.26 z m 16.1,0.14 c -0.93,-0.7 -1.51,-1.11 -1.75,-1.22 -0.35,-0.15 -0.73,-0.23 -1.13,-0.23 -0.62,0.01 -1.13,0.23 -1.52,0.66 -0.4,0.43 -0.59,0.99 -0.58,1.68 0,0.43 0.1,0.81 0.3,1.13 0.28,0.44 0.75,0.85 1.41,1.23 0.67,0.39 1.78,0.85 3.32,1.39 l 0.01,0.36 c 0.01,0.89 -0.13,1.5 -0.41,1.84 -0.28,0.34 -0.69,0.51 -1.23,0.51 -0.41,0.01 -0.74,-0.1 -0.98,-0.32 -0.25,-0.22 -0.38,-0.47 -0.38,-0.76 l 0.01,-0.56 c 0,-0.3 -0.08,-0.53 -0.24,-0.7 -0.15,-0.16 -0.36,-0.24 -0.6,-0.23 -0.24,0 -0.44,0.09 -0.59,0.26 -0.15,0.17 -0.23,0.4 -0.22,0.7 0,0.56 0.3,1.07 0.88,1.53 0.58,0.46 1.38,0.69 2.42,0.68 0.8,-0.01 1.45,-0.15 1.95,-0.43 0.39,-0.2 0.67,-0.52 0.84,-0.96 0.12,-0.28 0.17,-0.85 0.16,-1.72 l -0.04,-3.04 c -0.01,-0.86 0,-1.38 0.03,-1.57 0.03,-0.2 0.08,-0.33 0.16,-0.39 0.07,-0.07 0.16,-0.1 0.26,-0.1 0.1,0 0.19,0.02 0.27,0.06 0.14,0.08 0.41,0.32 0.8,0.71 v -0.55 c -0.75,-0.97 -1.45,-1.45 -2.12,-1.44 -0.31,0 -0.57,0.11 -0.75,0.34 -0.19,0.22 -0.28,0.6 -0.28,1.14 z m 0,0.63 0.04,3.42 c -0.99,-0.38 -1.62,-0.65 -1.91,-0.81 -0.52,-0.28 -0.89,-0.58 -1.12,-0.89 -0.23,-0.31 -0.34,-0.65 -0.35,-1.02 0,-0.47 0.13,-0.86 0.41,-1.18 0.28,-0.31 0.6,-0.47 0.96,-0.47 0.5,-0.01 1.16,0.31 1.97,0.95 z m 6.53,9.91 -0.04,-2.95 2.1,-0.02 -0.01,-0.69 -2.1,0.03 -0.07,-5.82 c 0,-0.58 0.08,-0.97 0.24,-1.17 0.16,-0.21 0.38,-0.31 0.64,-0.31 0.21,-0.01 0.42,0.06 0.63,0.19 0.2,0.13 0.36,0.33 0.47,0.59 l 0.38,-0.01 c -0.23,-0.64 -0.56,-1.11 -0.98,-1.43 -0.42,-0.32 -0.86,-0.48 -1.3,-0.47 -0.3,0 -0.59,0.09 -0.88,0.26 -0.28,0.17 -0.49,0.41 -0.62,0.72 -0.14,0.31 -0.2,0.79 -0.19,1.44 l 0.07,6.02 -1.42,0.02 v 0.32 c 0.36,0.14 0.73,0.38 1.11,0.72 0.38,0.34 0.72,0.74 1.02,1.21 0.15,0.24 0.37,0.69 0.64,1.35 z m 10.74,-3.08 -0.07,-5.43 c -0.01,-1.04 0,-1.67 0.05,-1.9 0.05,-0.23 0.12,-0.4 0.23,-0.49 0.11,-0.09 0.23,-0.14 0.38,-0.14 0.2,0 0.43,0.05 0.68,0.16 l 0.13,-0.35 -2.69,-1.07 h -0.44 l 0.02,1.9 c -0.78,-0.82 -1.37,-1.34 -1.78,-1.55 -0.4,-0.21 -0.83,-0.31 -1.28,-0.31 -0.5,0.01 -0.94,0.16 -1.3,0.45 -0.37,0.3 -0.62,0.67 -0.76,1.13 -0.14,0.46 -0.2,1.11 -0.19,1.94 l 0.05,4 c 0,0.43 -0.04,0.72 -0.13,0.89 -0.09,0.16 -0.22,0.29 -0.4,0.38 -0.18,0.09 -0.5,0.13 -0.97,0.13 v 0.36 l 3.14,-0.03 -0.07,-6 c -0.01,-0.84 0.13,-1.39 0.42,-1.65 0.28,-0.27 0.63,-0.4 1.04,-0.41 0.28,0 0.6,0.09 0.96,0.26 0.36,0.17 0.78,0.5 1.28,0.99 l 0.06,5.08 c 0.01,0.51 -0.08,0.85 -0.27,1.03 -0.18,0.19 -0.56,0.29 -1.15,0.31 v 0.36 z m 4.86,-1.7 c 0.66,0.64 1.05,1.01 1.17,1.11 0.29,0.25 0.61,0.43 0.95,0.57 0.34,0.13 0.68,0.19 1.01,0.19 0.56,-0.01 1.05,-0.18 1.45,-0.51 0.4,-0.33 0.66,-0.8 0.79,-1.42 0.68,0.77 1.26,1.28 1.72,1.52 0.47,0.24 0.95,0.35 1.43,0.35 0.48,-0.01 0.9,-0.14 1.27,-0.39 0.36,-0.24 0.65,-0.65 0.86,-1.21 0.14,-0.38 0.2,-0.97 0.19,-1.78 l -0.04,-3.85 c -0.01,-0.56 0.03,-0.95 0.11,-1.16 0.06,-0.14 0.18,-0.27 0.36,-0.37 0.17,-0.1 0.46,-0.16 0.86,-0.16 l -0.01,-0.35 -4.42,0.05 v 0.35 h 0.19 c 0.39,-0.01 0.69,0.06 0.9,0.21 0.15,0.1 0.26,0.27 0.33,0.5 0.03,0.11 0.05,0.42 0.05,0.95 l 0.05,3.85 c 0.01,0.73 -0.07,1.25 -0.25,1.55 -0.25,0.42 -0.65,0.63 -1.21,0.64 -0.35,0.01 -0.7,-0.08 -1.05,-0.25 -0.35,-0.16 -0.77,-0.48 -1.28,-0.94 l -0.02,-0.11 0.02,-0.42 -0.05,-4.28 c -0.01,-0.61 0.02,-0.99 0.09,-1.14 0.06,-0.16 0.19,-0.28 0.38,-0.39 0.19,-0.1 0.51,-0.15 0.96,-0.16 v -0.35 l -4.53,0.05 v 0.35 c 0.5,0 0.84,0.05 1.03,0.17 0.19,0.11 0.32,0.29 0.39,0.52 0.04,0.11 0.06,0.44 0.06,0.97 l 0.05,3.86 c 0.01,0.73 -0.09,1.25 -0.31,1.57 -0.28,0.43 -0.68,0.64 -1.19,0.65 -0.35,0 -0.7,-0.09 -1.05,-0.28 -0.55,-0.28 -0.97,-0.59 -1.27,-0.95 l -0.05,-4.8 c -0.01,-0.59 0.03,-0.97 0.1,-1.15 0.08,-0.18 0.2,-0.31 0.36,-0.4 0.16,-0.09 0.48,-0.14 0.97,-0.14 v -0.36 l -4.43,0.06 v 0.35 c 0.41,-0.01 0.7,0.03 0.86,0.12 0.17,0.09 0.29,0.23 0.38,0.42 0.09,0.19 0.14,0.56 0.14,1.12 l 0.04,3.42 c 0.01,0.99 -0.01,1.62 -0.06,1.91 -0.05,0.22 -0.12,0.36 -0.21,0.45 -0.1,0.08 -0.23,0.12 -0.4,0.12 -0.18,0.01 -0.4,-0.04 -0.66,-0.13 l -0.14,0.35 2.71,1.06 h 0.42 z" /></g></g><g
       id="g482"><g
         clip-path="url(#clipPath488)"
         id="g484"><path
           id="path490"
           style="fill:#000000;fill-opacity:1;fill-rule:nonzero;stroke:none"
           d="m 579.42,332.27 c 0.02,0.47 0.03,0.93 0.03,1.36 0,0.44 -0.01,0.85 -0.03,1.23 -0.01,0.39 -0.04,0.64 -0.08,0.76 -0.04,0.13 -0.09,0.22 -0.15,0.28 -0.06,0.06 -0.15,0.1 -0.26,0.13 -0.12,0.02 -0.23,0.02 -0.34,-0.01 -0.11,-0.04 -0.24,-0.11 -0.38,-0.22 -0.15,-0.1 -0.34,-0.28 -0.6,-0.53 l -0.47,0.5 c 0.48,0.46 0.92,0.79 1.31,0.98 0.39,0.2 0.81,0.25 1.26,0.15 0.18,-0.04 0.33,-0.1 0.46,-0.17 0.12,-0.07 0.23,-0.15 0.31,-0.26 0.09,-0.11 0.15,-0.23 0.2,-0.38 0.06,-0.15 0.09,-0.35 0.12,-0.59 0.02,-0.24 0.03,-0.54 0.02,-0.89 -0.01,-0.35 -0.03,-0.71 -0.06,-1.08 l 0.09,-0.02 c 0.72,0.65 1.26,1.12 1.63,1.42 0.36,0.29 0.66,0.51 0.89,0.64 0.23,0.13 0.45,0.21 0.64,0.24 0.2,0.03 0.45,0.02 0.74,-0.05 0.27,-0.06 0.48,-0.14 0.64,-0.25 l -0.69,-1.48 -0.6,0.14 c 0.02,0.24 -0.05,0.39 -0.22,0.42 -0.05,0.02 -0.11,0.02 -0.17,0.01 -0.06,0 -0.14,-0.02 -0.23,-0.06 -0.1,-0.04 -0.24,-0.12 -0.44,-0.25 -0.2,-0.13 -0.42,-0.3 -0.68,-0.49 -0.25,-0.2 -0.51,-0.41 -0.78,-0.62 l -0.75,-0.6 c -0.02,-0.57 -0.02,-1.07 -0.02,-1.49 0,-0.42 0.01,-0.77 0.02,-1.05 0.01,-0.29 0.03,-0.51 0.05,-0.68 0.02,-0.16 0.05,-0.29 0.1,-0.38 0.04,-0.09 0.1,-0.16 0.16,-0.21 0.05,-0.05 0.13,-0.08 0.21,-0.1 0.16,-0.03 0.32,0 0.49,0.08 0.18,0.09 0.45,0.32 0.81,0.68 l 0.48,-0.49 c -0.53,-0.51 -0.99,-0.85 -1.36,-1.02 -0.38,-0.17 -0.79,-0.21 -1.24,-0.11 -0.25,0.06 -0.44,0.15 -0.6,0.27 -0.15,0.13 -0.27,0.3 -0.35,0.53 -0.08,0.22 -0.13,0.55 -0.13,0.98 -0.02,0.77 0,1.36 0.05,1.76 l -0.09,0.01 c -0.79,-0.71 -1.38,-1.23 -1.76,-1.53 -0.38,-0.31 -0.68,-0.53 -0.91,-0.66 -0.23,-0.14 -0.45,-0.22 -0.64,-0.25 -0.2,-0.03 -0.44,-0.02 -0.74,0.05 -0.27,0.06 -0.48,0.14 -0.64,0.25 l 0.69,1.48 0.6,-0.14 c -0.02,-0.25 0.05,-0.39 0.22,-0.43 0.08,-0.01 0.17,-0.01 0.27,0.01 0.1,0.03 0.25,0.1 0.45,0.23 0.2,0.12 0.49,0.33 0.85,0.61 0.37,0.29 0.91,0.72 1.62,1.29 z" /></g></g><g
       id="g492"><g
         clip-path="url(#clipPath498)"
         id="g494"><path
           id="path500"
           style="fill:#000000;fill-opacity:1;fill-rule:nonzero;stroke:none"
           d="m 592.58,328.07 c -0.03,-0.06 -0.06,-0.13 -0.09,-0.19 -0.03,-0.07 -0.06,-0.14 -0.09,-0.2 -0.46,-0.39 -0.91,-0.77 -1.33,-1.14 -0.42,-0.36 -0.83,-0.73 -1.22,-1.1 -0.13,-0.34 -0.24,-0.65 -0.33,-0.94 -0.09,-0.29 -0.16,-0.55 -0.22,-0.79 -0.03,-0.14 -0.05,-0.26 -0.05,-0.36 0,-0.1 0.01,-0.17 0.03,-0.23 0.02,-0.06 0.06,-0.11 0.11,-0.14 0.06,-0.04 0.12,-0.06 0.2,-0.08 0.26,-0.06 0.65,0.11 1.18,0.5 0.05,-0.09 0.11,-0.18 0.16,-0.26 0.06,-0.09 0.11,-0.17 0.17,-0.25 -0.25,-0.16 -0.48,-0.3 -0.68,-0.41 -0.2,-0.11 -0.39,-0.19 -0.56,-0.25 -0.18,-0.06 -0.34,-0.09 -0.5,-0.1 -0.15,-0.01 -0.32,0.01 -0.48,0.04 -0.65,0.15 -0.89,0.63 -0.71,1.45 0.03,0.1 0.05,0.19 0.08,0.28 0.02,0.08 0.05,0.17 0.08,0.26 -0.02,0.01 -0.03,0.01 -0.04,0.03 -0.01,0.01 -0.03,0.01 -0.04,0.02 -0.31,-0.28 -0.6,-0.51 -0.87,-0.69 -0.26,-0.18 -0.52,-0.32 -0.76,-0.42 -0.24,-0.09 -0.47,-0.15 -0.7,-0.17 -0.22,-0.02 -0.45,0 -0.68,0.05 -0.25,0.06 -0.46,0.15 -0.63,0.29 -0.17,0.15 -0.3,0.32 -0.39,0.53 -0.09,0.2 -0.14,0.44 -0.15,0.71 -0.02,0.26 0.01,0.55 0.08,0.85 0.09,0.4 0.22,0.78 0.38,1.14 0.17,0.36 0.36,0.69 0.59,0.99 0.23,0.29 0.49,0.56 0.77,0.79 0.28,0.23 0.57,0.41 0.89,0.55 0.31,0.14 0.63,0.24 0.97,0.28 0.33,0.04 0.66,0.03 0.99,-0.05 0.52,-0.11 0.88,-0.35 1.1,-0.72 0.22,-0.37 0.28,-0.87 0.17,-1.51 0.02,-0.01 0.03,-0.01 0.04,-0.01 0.01,0.01 0.02,0.01 0.03,0 0.21,0.26 0.42,0.51 0.63,0.76 0.22,0.25 0.43,0.51 0.63,0.77 z m -3.79,-2.41 c 0.18,0.4 0.32,0.79 0.4,1.18 0.11,0.48 0.11,0.85 0.01,1.11 -0.09,0.26 -0.3,0.42 -0.62,0.5 -0.23,0.05 -0.45,0.04 -0.68,-0.01 -0.23,-0.06 -0.44,-0.16 -0.66,-0.3 -0.21,-0.14 -0.41,-0.31 -0.6,-0.52 -0.19,-0.21 -0.36,-0.45 -0.52,-0.71 -0.16,-0.25 -0.3,-0.53 -0.42,-0.83 -0.12,-0.29 -0.21,-0.6 -0.28,-0.9 -0.1,-0.45 -0.1,-0.79 -0.02,-1.03 0.08,-0.24 0.26,-0.39 0.55,-0.46 0.19,-0.04 0.41,-0.03 0.63,0.04 0.23,0.07 0.47,0.19 0.71,0.36 0.25,0.17 0.5,0.39 0.75,0.65 0.25,0.27 0.5,0.57 0.75,0.92 z" /></g></g><g
       id="g502"><g
         clip-path="url(#clipPath508)"
         id="g504"><path
           id="path510"
           style="fill:#000000;fill-opacity:1;fill-rule:nonzero;stroke:none"
           d="m 595.67,325.04 -0.92,-0.39 -0.51,0.26 4.4,9.32 c 0.26,0.55 0.42,0.96 0.48,1.22 0.05,0.24 0.01,0.43 -0.11,0.56 -0.13,0.13 -0.37,0.24 -0.75,0.33 l 0.2,0.43 2.19,-0.41 0.5,-0.11 -2.85,-5.67 0.11,-0.06 c 0.72,0.62 1.36,1.04 1.92,1.27 0.56,0.22 1.08,0.28 1.57,0.17 0.62,-0.14 1.05,-0.48 1.29,-1.03 0.24,-0.55 0.27,-1.26 0.08,-2.13 -0.21,-0.94 -0.61,-1.83 -1.19,-2.65 -0.59,-0.83 -1.27,-1.44 -2.07,-1.82 -0.79,-0.39 -1.61,-0.49 -2.44,-0.3 -0.76,0.17 -1.4,0.5 -1.9,1.01 z m 1.32,2.39 c -0.17,-0.38 -0.3,-0.76 -0.39,-1.14 -0.1,-0.45 -0.07,-0.8 0.08,-1.04 0.16,-0.24 0.46,-0.42 0.92,-0.52 0.23,-0.05 0.47,-0.06 0.69,-0.03 0.23,0.03 0.48,0.11 0.74,0.24 0.26,0.13 0.52,0.31 0.78,0.56 0.26,0.24 0.52,0.56 0.78,0.94 0.26,0.39 0.49,0.82 0.69,1.28 0.2,0.46 0.35,0.91 0.44,1.35 0.14,0.6 0.15,1.06 0.05,1.4 -0.1,0.33 -0.34,0.54 -0.71,0.63 -0.28,0.06 -0.57,0.03 -0.87,-0.09 -0.31,-0.11 -0.67,-0.33 -1.08,-0.67 -0.42,-0.33 -0.78,-0.68 -1.08,-1.06 -0.3,-0.38 -0.59,-0.88 -0.88,-1.5 z" /></g></g><g
       id="g512"><g
         clip-path="url(#clipPath518)"
         id="g514"><path
           id="path520"
           style="fill:#000000;fill-opacity:1;fill-rule:nonzero;stroke:none"
           d="m 523.56,348.02 0.91,0.39 0.52,-0.26 -2.47,-5.15 c -0.24,-0.52 -0.4,-0.93 -0.47,-1.23 -0.05,-0.23 -0.05,-0.41 0,-0.53 0.05,-0.11 0.16,-0.19 0.32,-0.23 0.17,-0.04 0.37,-0.01 0.6,0.09 0.22,0.1 0.56,0.3 1,0.62 l 0.38,-0.59 c -0.64,-0.43 -1.16,-0.73 -1.58,-0.88 -0.41,-0.15 -0.83,-0.18 -1.25,-0.08 -0.36,0.08 -0.62,0.26 -0.77,0.54 -0.16,0.28 -0.2,0.61 -0.11,1 0.07,0.32 0.21,0.64 0.42,0.96 l -0.11,0.06 c -0.73,-0.68 -1.38,-1.15 -1.95,-1.41 -0.58,-0.26 -1.14,-0.33 -1.69,-0.21 -0.63,0.14 -1.06,0.48 -1.3,1.04 -0.24,0.55 -0.27,1.25 -0.08,2.11 0.22,0.98 0.63,1.89 1.21,2.71 0.59,0.82 1.28,1.42 2.07,1.79 0.79,0.37 1.6,0.47 2.43,0.28 0.37,-0.08 0.71,-0.2 1.02,-0.35 0.3,-0.16 0.6,-0.38 0.9,-0.67 z m -1.32,-2.39 c 0.1,0.23 0.18,0.42 0.23,0.59 0.06,0.17 0.11,0.35 0.15,0.55 0.1,0.44 0.08,0.79 -0.06,1.03 -0.15,0.25 -0.45,0.43 -0.9,0.53 -0.59,0.13 -1.17,0.01 -1.74,-0.36 -0.58,-0.37 -1.08,-0.93 -1.52,-1.67 -0.45,-0.74 -0.75,-1.5 -0.93,-2.3 -0.13,-0.59 -0.15,-1.06 -0.05,-1.39 0.1,-0.33 0.34,-0.54 0.72,-0.62 0.38,-0.09 0.78,-0.01 1.22,0.24 0.43,0.25 0.91,0.63 1.43,1.14 0.52,0.52 0.95,1.16 1.29,1.91 z" /></g></g><g
       id="g522"><g
         clip-path="url(#clipPath528)"
         id="g524"><path
           id="path530"
           style="fill:#000000;fill-opacity:1;fill-rule:nonzero;stroke:none"
           d="m 530.03,336.9 c -0.07,-0.16 -0.13,-0.28 -0.18,-0.38 -0.05,-0.1 -0.09,-0.18 -0.12,-0.25 -0.02,-0.07 -0.05,-0.12 -0.06,-0.17 -0.02,-0.05 -0.03,-0.11 -0.04,-0.16 -0.04,-0.16 -0.03,-0.28 0.01,-0.37 0.04,-0.08 0.13,-0.14 0.26,-0.17 0.08,-0.01 0.16,-0.02 0.24,0 0.08,0.01 0.17,0.04 0.27,0.08 0.1,0.05 0.21,0.11 0.33,0.18 0.13,0.08 0.27,0.17 0.43,0.28 0.05,-0.09 0.11,-0.17 0.17,-0.26 0.05,-0.08 0.11,-0.17 0.17,-0.25 -0.26,-0.17 -0.5,-0.31 -0.71,-0.43 -0.21,-0.11 -0.41,-0.2 -0.59,-0.26 -0.18,-0.06 -0.35,-0.1 -0.52,-0.11 -0.16,0 -0.33,0.01 -0.51,0.05 -0.15,0.03 -0.28,0.09 -0.4,0.18 -0.11,0.09 -0.2,0.19 -0.27,0.32 -0.07,0.12 -0.12,0.26 -0.14,0.41 -0.02,0.15 -0.01,0.31 0.02,0.48 0.04,0.17 0.1,0.36 0.19,0.56 0.09,0.21 0.18,0.43 0.29,0.66 0.11,0.23 0.22,0.46 0.34,0.68 0.12,0.23 0.23,0.45 0.33,0.65 0.11,0.21 0.19,0.39 0.27,0.56 0.08,0.17 0.13,0.3 0.15,0.41 0.03,0.12 0.04,0.23 0.05,0.34 0.01,0.1 -0.01,0.2 -0.04,0.29 -0.03,0.09 -0.08,0.16 -0.15,0.22 -0.07,0.06 -0.17,0.11 -0.29,0.14 -0.2,0.04 -0.44,0.01 -0.71,-0.09 -0.27,-0.1 -0.54,-0.25 -0.8,-0.46 -0.27,-0.2 -0.52,-0.43 -0.75,-0.7 -0.24,-0.27 -0.42,-0.55 -0.55,-0.84 -0.22,-0.48 -0.44,-0.95 -0.65,-1.43 -0.21,-0.48 -0.42,-0.95 -0.64,-1.43 l -1.21,0.27 3,6.43 c 0.09,0.2 0.16,0.37 0.22,0.49 0.05,0.13 0.09,0.25 0.11,0.34 0.01,0.08 0.02,0.15 0,0.22 -0.01,0.06 -0.04,0.12 -0.09,0.17 -0.06,0.05 -0.13,0.09 -0.23,0.13 -0.1,0.04 -0.23,0.08 -0.39,0.12 l 0.19,0.41 1.75,-0.31 0.45,-0.1 -1.65,-3.36 0.08,-0.05 c 0.26,0.2 0.51,0.37 0.74,0.51 0.24,0.13 0.46,0.24 0.66,0.31 0.21,0.08 0.41,0.12 0.61,0.14 0.19,0.01 0.38,0 0.56,-0.04 0.45,-0.1 0.76,-0.3 0.93,-0.59 0.17,-0.29 0.2,-0.65 0.11,-1.08 -0.03,-0.13 -0.08,-0.28 -0.15,-0.46 -0.06,-0.18 -0.15,-0.39 -0.27,-0.63 z" /></g></g><g
       id="g532"><g
         clip-path="url(#clipPath538)"
         id="g534"><path
           id="path540"
           style="fill:#000000;fill-opacity:1;fill-rule:nonzero;stroke:none"
           d="m 535.54,337.64 -0.91,-0.39 -0.52,0.26 4.4,9.32 c 0.26,0.55 0.42,0.96 0.48,1.22 0.05,0.24 0.02,0.43 -0.11,0.56 -0.12,0.13 -0.37,0.24 -0.75,0.34 l 0.21,0.42 2.18,-0.41 0.5,-0.11 -2.84,-5.67 0.1,-0.06 c 0.72,0.62 1.36,1.05 1.92,1.27 0.56,0.22 1.08,0.28 1.57,0.17 0.62,-0.13 1.06,-0.48 1.3,-1.03 0.24,-0.55 0.26,-1.26 0.07,-2.12 -0.21,-0.95 -0.61,-1.83 -1.19,-2.66 -0.58,-0.83 -1.27,-1.44 -2.06,-1.82 -0.8,-0.39 -1.61,-0.49 -2.45,-0.3 -0.76,0.17 -1.39,0.5 -1.9,1.01 z m 1.33,2.4 c -0.18,-0.39 -0.31,-0.77 -0.39,-1.14 -0.1,-0.46 -0.08,-0.8 0.08,-1.05 0.15,-0.24 0.46,-0.41 0.91,-0.52 0.24,-0.05 0.47,-0.06 0.7,-0.03 0.23,0.03 0.47,0.11 0.73,0.24 0.26,0.13 0.52,0.31 0.78,0.56 0.26,0.24 0.52,0.56 0.78,0.95 0.26,0.38 0.49,0.81 0.69,1.27 0.2,0.46 0.35,0.92 0.45,1.36 0.13,0.59 0.14,1.06 0.04,1.39 -0.1,0.34 -0.34,0.54 -0.71,0.63 -0.27,0.06 -0.56,0.03 -0.87,-0.08 -0.3,-0.12 -0.66,-0.34 -1.08,-0.67 -0.42,-0.33 -0.77,-0.69 -1.07,-1.07 -0.3,-0.37 -0.6,-0.88 -0.89,-1.5 z" /></g></g><g
       id="g542"><g
         clip-path="url(#clipPath548)"
         id="g544"><path
           id="path550"
           style="fill:#000000;fill-opacity:1;fill-rule:nonzero;stroke:none"
           d="m 488.41,339.71 67.21,-14.17 -0.21,-0.98 -67.21,14.17 z m 0.25,-3.64 -5.25,4.18 6.49,1.7 z m 66.49,-7.88 5.26,-4.17 -6.49,-1.7 z" /></g></g><g
       id="g552"><g
         clip-path="url(#clipPath558)"
         id="g554"><path
           id="path560"
           style="fill:#000000;fill-opacity:1;fill-rule:nonzero;stroke:none"
           d="m 564.76,322.47 43.38,-9.63 0.21,0.98 -43.38,9.63 z m 1.73,3.2 -6.51,-1.62 5.21,-4.23 z m 40.13,-15.05 6.5,1.63 -5.2,4.22 z" /></g></g></g></svg>