<?xml version="1.0" encoding="utf-8" standalone="no"?>
<!DOCTYPE svg PUBLIC "-//W3C//DTD SVG 1.1//EN"
  "http://www.w3.org/Graphics/SVG/1.1/DTD/svg11.dtd">
<svg xmlns:xlink="http://www.w3.org/1999/xlink" width="432pt" height="288pt" viewBox="0 0 432 288" xmlns="http://www.w3.org/2000/svg" version="1.1">
 <metadata>
  <rdf:RDF xmlns:dc="http://purl.org/dc/elements/1.1/" xmlns:cc="http://creativecommons.org/ns#" xmlns:rdf="http://www.w3.org/1999/02/22-rdf-syntax-ns#">
   <cc:Work>
    <dc:type rdf:resource="http://purl.org/dc/dcmitype/StillImage"/>
    <dc:date>2025-04-17T18:52:31.213650</dc:date>
    <dc:format>image/svg+xml</dc:format>
    <dc:creator>
     <cc:Agent>
      <dc:title>Matplotlib v3.10.1, https://matplotlib.org/</dc:title>
     </cc:Agent>
    </dc:creator>
   </cc:Work>
  </rdf:RDF>
 </metadata>
 <defs>
  <style type="text/css">*{stroke-linejoin: round; stroke-linecap: butt}</style>
 </defs>
 <g id="figure_1">
  <g id="patch_1">
   <path d="M 0 288 
L 432 288 
L 432 0 
L 0 0 
z
" style="fill: #ffffff"/>
  </g>
  <g id="axes_1">
   <g id="patch_2">
    <path d="M 37.189356 195.860813 
L 427.457061 195.860813 
L 427.457061 62.751187 
L 37.189356 62.751187 
z
" style="fill: #ffffff"/>
   </g>
   <g id="matplotlib.axis_1">
    <g id="xtick_1">
     <g id="line2d_1">
      <path d="M 80.113413 195.860813 
L 80.113413 62.751187 
" clip-path="url(#p75a492737f)" style="fill: none; stroke: #000000; stroke-opacity: 0.1; stroke-width: 0.5; stroke-linecap: square"/>
     </g>
     <g id="line2d_2">
      <defs>
       <path id="m3c09d141df" d="M 0 0 
L 0 -2.5 
" style="stroke: #000000; stroke-width: 0.5"/>
      </defs>
      <g>
       <use xlink:href="#m3c09d141df" x="80.113413" y="195.860813" style="stroke: #000000; stroke-width: 0.5"/>
      </g>
     </g>
     <g id="text_1">
      <!-- $0$ -->
      <g transform="translate(77.553413 205.439563) scale(0.08 -0.08)">
       <defs>
        <path id="DejaVuSans-30" d="M 2034 4250 
Q 1547 4250 1301 3770 
Q 1056 3291 1056 2328 
Q 1056 1369 1301 889 
Q 1547 409 2034 409 
Q 2525 409 2770 889 
Q 3016 1369 3016 2328 
Q 3016 3291 2770 3770 
Q 2525 4250 2034 4250 
z
M 2034 4750 
Q 2819 4750 3233 4129 
Q 3647 3509 3647 2328 
Q 3647 1150 3233 529 
Q 2819 -91 2034 -91 
Q 1250 -91 836 529 
Q 422 1150 422 2328 
Q 422 3509 836 4129 
Q 1250 4750 2034 4750 
z
" transform="scale(0.015625)"/>
       </defs>
       <use xlink:href="#DejaVuSans-30" transform="translate(0 0.78125)"/>
      </g>
     </g>
    </g>
    <g id="xtick_2">
     <g id="line2d_3">
      <path d="M 149.308977 195.860813 
L 149.308977 62.751187 
" clip-path="url(#p75a492737f)" style="fill: none; stroke: #000000; stroke-opacity: 0.1; stroke-width: 0.5; stroke-linecap: square"/>
     </g>
     <g id="line2d_4">
      <g>
       <use xlink:href="#m3c09d141df" x="149.308977" y="195.860813" style="stroke: #000000; stroke-width: 0.5"/>
      </g>
     </g>
     <g id="text_2">
      <!-- $1$ -->
      <g transform="translate(146.748977 205.439563) scale(0.08 -0.08)">
       <defs>
        <path id="DejaVuSans-31" d="M 794 531 
L 1825 531 
L 1825 4091 
L 703 3866 
L 703 4441 
L 1819 4666 
L 2450 4666 
L 2450 531 
L 3481 531 
L 3481 0 
L 794 0 
L 794 531 
z
" transform="scale(0.015625)"/>
       </defs>
       <use xlink:href="#DejaVuSans-31" transform="translate(0 0.09375)"/>
      </g>
     </g>
    </g>
    <g id="xtick_3">
     <g id="line2d_5">
      <path d="M 218.504541 195.860813 
L 218.504541 62.751187 
" clip-path="url(#p75a492737f)" style="fill: none; stroke: #000000; stroke-opacity: 0.1; stroke-width: 0.5; stroke-linecap: square"/>
     </g>
     <g id="line2d_6">
      <g>
       <use xlink:href="#m3c09d141df" x="218.504541" y="195.860813" style="stroke: #000000; stroke-width: 0.5"/>
      </g>
     </g>
     <g id="text_3">
      <!-- $2$ -->
      <g transform="translate(215.944541 205.439563) scale(0.08 -0.08)">
       <defs>
        <path id="DejaVuSans-32" d="M 1228 531 
L 3431 531 
L 3431 0 
L 469 0 
L 469 531 
Q 828 903 1448 1529 
Q 2069 2156 2228 2338 
Q 2531 2678 2651 2914 
Q 2772 3150 2772 3378 
Q 2772 3750 2511 3984 
Q 2250 4219 1831 4219 
Q 1534 4219 1204 4116 
Q 875 4013 500 3803 
L 500 4441 
Q 881 4594 1212 4672 
Q 1544 4750 1819 4750 
Q 2544 4750 2975 4387 
Q 3406 4025 3406 3419 
Q 3406 3131 3298 2873 
Q 3191 2616 2906 2266 
Q 2828 2175 2409 1742 
Q 1991 1309 1228 531 
z
" transform="scale(0.015625)"/>
       </defs>
       <use xlink:href="#DejaVuSans-32" transform="translate(0 0.78125)"/>
      </g>
     </g>
    </g>
    <g id="xtick_4">
     <g id="line2d_7">
      <path d="M 287.700105 195.860813 
L 287.700105 62.751187 
" clip-path="url(#p75a492737f)" style="fill: none; stroke: #000000; stroke-opacity: 0.1; stroke-width: 0.5; stroke-linecap: square"/>
     </g>
     <g id="line2d_8">
      <g>
       <use xlink:href="#m3c09d141df" x="287.700105" y="195.860813" style="stroke: #000000; stroke-width: 0.5"/>
      </g>
     </g>
     <g id="text_4">
      <!-- $3$ -->
      <g transform="translate(285.140105 205.439563) scale(0.08 -0.08)">
       <defs>
        <path id="DejaVuSans-33" d="M 2597 2516 
Q 3050 2419 3304 2112 
Q 3559 1806 3559 1356 
Q 3559 666 3084 287 
Q 2609 -91 1734 -91 
Q 1441 -91 1130 -33 
Q 819 25 488 141 
L 488 750 
Q 750 597 1062 519 
Q 1375 441 1716 441 
Q 2309 441 2620 675 
Q 2931 909 2931 1356 
Q 2931 1769 2642 2001 
Q 2353 2234 1838 2234 
L 1294 2234 
L 1294 2753 
L 1863 2753 
Q 2328 2753 2575 2939 
Q 2822 3125 2822 3475 
Q 2822 3834 2567 4026 
Q 2313 4219 1838 4219 
Q 1578 4219 1281 4162 
Q 984 4106 628 3988 
L 628 4550 
Q 988 4650 1302 4700 
Q 1616 4750 1894 4750 
Q 2613 4750 3031 4423 
Q 3450 4097 3450 3541 
Q 3450 3153 3228 2886 
Q 3006 2619 2597 2516 
z
" transform="scale(0.015625)"/>
       </defs>
       <use xlink:href="#DejaVuSans-33" transform="translate(0 0.78125)"/>
      </g>
     </g>
    </g>
    <g id="xtick_5">
     <g id="line2d_9">
      <path d="M 356.895669 195.860813 
L 356.895669 62.751187 
" clip-path="url(#p75a492737f)" style="fill: none; stroke: #000000; stroke-opacity: 0.1; stroke-width: 0.5; stroke-linecap: square"/>
     </g>
     <g id="line2d_10">
      <g>
       <use xlink:href="#m3c09d141df" x="356.895669" y="195.860813" style="stroke: #000000; stroke-width: 0.5"/>
      </g>
     </g>
     <g id="text_5">
      <!-- $4$ -->
      <g transform="translate(354.335669 205.439563) scale(0.08 -0.08)">
       <defs>
        <path id="DejaVuSans-34" d="M 2419 4116 
L 825 1625 
L 2419 1625 
L 2419 4116 
z
M 2253 4666 
L 3047 4666 
L 3047 1625 
L 3713 1625 
L 3713 1100 
L 3047 1100 
L 3047 0 
L 2419 0 
L 2419 1100 
L 313 1100 
L 313 1709 
L 2253 4666 
z
" transform="scale(0.015625)"/>
       </defs>
       <use xlink:href="#DejaVuSans-34" transform="translate(0 0.09375)"/>
      </g>
     </g>
    </g>
    <g id="xtick_6">
     <g id="line2d_11">
      <path d="M 426.091233 195.860813 
L 426.091233 62.751187 
" clip-path="url(#p75a492737f)" style="fill: none; stroke: #000000; stroke-opacity: 0.1; stroke-width: 0.5; stroke-linecap: square"/>
     </g>
     <g id="line2d_12">
      <g>
       <use xlink:href="#m3c09d141df" x="426.091233" y="195.860813" style="stroke: #000000; stroke-width: 0.5"/>
      </g>
     </g>
     <g id="text_6">
      <!-- $5$ -->
      <g transform="translate(423.531233 205.439563) scale(0.08 -0.08)">
       <defs>
        <path id="DejaVuSans-35" d="M 691 4666 
L 3169 4666 
L 3169 4134 
L 1269 4134 
L 1269 2991 
Q 1406 3038 1543 3061 
Q 1681 3084 1819 3084 
Q 2600 3084 3056 2656 
Q 3513 2228 3513 1497 
Q 3513 744 3044 326 
Q 2575 -91 1722 -91 
Q 1428 -91 1123 -41 
Q 819 9 494 109 
L 494 744 
Q 775 591 1075 516 
Q 1375 441 1709 441 
Q 2250 441 2565 725 
Q 2881 1009 2881 1497 
Q 2881 1984 2565 2268 
Q 2250 2553 1709 2553 
Q 1456 2553 1204 2497 
Q 953 2441 691 2322 
L 691 4666 
z
" transform="scale(0.015625)"/>
       </defs>
       <use xlink:href="#DejaVuSans-35" transform="translate(0 0.09375)"/>
      </g>
     </g>
    </g>
    <g id="text_7">
     <!-- $x_1$ [m] -->
     <g transform="translate(215.053208 219.461594) scale(0.11 -0.11)">
      <defs>
       <path id="DejaVuSans-Oblique-78" d="M 3841 3500 
L 2234 1784 
L 3219 0 
L 2559 0 
L 1819 1388 
L 531 0 
L -166 0 
L 1556 1844 
L 641 3500 
L 1300 3500 
L 1972 2234 
L 3144 3500 
L 3841 3500 
z
" transform="scale(0.015625)"/>
       <path id="DejaVuSans-20" transform="scale(0.015625)"/>
       <path id="DejaVuSans-5b" d="M 550 4863 
L 1875 4863 
L 1875 4416 
L 1125 4416 
L 1125 -397 
L 1875 -397 
L 1875 -844 
L 550 -844 
L 550 4863 
z
" transform="scale(0.015625)"/>
       <path id="DejaVuSans-6d" d="M 3328 2828 
Q 3544 3216 3844 3400 
Q 4144 3584 4550 3584 
Q 5097 3584 5394 3201 
Q 5691 2819 5691 2113 
L 5691 0 
L 5113 0 
L 5113 2094 
Q 5113 2597 4934 2840 
Q 4756 3084 4391 3084 
Q 3944 3084 3684 2787 
Q 3425 2491 3425 1978 
L 3425 0 
L 2847 0 
L 2847 2094 
Q 2847 2600 2669 2842 
Q 2491 3084 2119 3084 
Q 1678 3084 1418 2786 
Q 1159 2488 1159 1978 
L 1159 0 
L 581 0 
L 581 3500 
L 1159 3500 
L 1159 2956 
Q 1356 3278 1631 3431 
Q 1906 3584 2284 3584 
Q 2666 3584 2933 3390 
Q 3200 3197 3328 2828 
z
" transform="scale(0.015625)"/>
       <path id="DejaVuSans-5d" d="M 1947 4863 
L 1947 -844 
L 622 -844 
L 622 -397 
L 1369 -397 
L 1369 4416 
L 622 4416 
L 622 4863 
L 1947 4863 
z
" transform="scale(0.015625)"/>
      </defs>
      <use xlink:href="#DejaVuSans-Oblique-78" transform="translate(0 0.015625)"/>
      <use xlink:href="#DejaVuSans-31" transform="translate(59.179688 -16.390625) scale(0.7)"/>
      <use xlink:href="#DejaVuSans-20" transform="translate(106.450195 0.015625)"/>
      <use xlink:href="#DejaVuSans-5b" transform="translate(138.237305 0.015625)"/>
      <use xlink:href="#DejaVuSans-6d" transform="translate(177.250977 0.015625)"/>
      <use xlink:href="#DejaVuSans-5d" transform="translate(274.663086 0.015625)"/>
     </g>
    </g>
   </g>
   <g id="matplotlib.axis_2">
    <g id="ytick_1">
     <g id="line2d_13">
      <path d="M 37.189356 174.747065 
L 427.457061 174.747065 
" clip-path="url(#p75a492737f)" style="fill: none; stroke: #000000; stroke-opacity: 0.1; stroke-width: 0.5; stroke-linecap: square"/>
     </g>
     <g id="line2d_14">
      <defs>
       <path id="m17b44a579f" d="M 0 0 
L 2.5 0 
" style="stroke: #000000; stroke-width: 0.5"/>
      </defs>
      <g>
       <use xlink:href="#m17b44a579f" x="37.189356" y="174.747065" style="stroke: #000000; stroke-width: 0.5"/>
      </g>
     </g>
     <g id="text_8">
      <!-- $0.0$ -->
      <g transform="translate(20.889356 177.78644) scale(0.08 -0.08)">
       <defs>
        <path id="DejaVuSans-2e" d="M 684 794 
L 1344 794 
L 1344 0 
L 684 0 
L 684 794 
z
" transform="scale(0.015625)"/>
       </defs>
       <use xlink:href="#DejaVuSans-30" transform="translate(0 0.78125)"/>
       <use xlink:href="#DejaVuSans-2e" transform="translate(63.623047 0.78125)"/>
       <use xlink:href="#DejaVuSans-30" transform="translate(95.410156 0.78125)"/>
      </g>
     </g>
    </g>
    <g id="ytick_2">
     <g id="line2d_15">
      <path d="M 37.189356 140.149283 
L 427.457061 140.149283 
" clip-path="url(#p75a492737f)" style="fill: none; stroke: #000000; stroke-opacity: 0.1; stroke-width: 0.5; stroke-linecap: square"/>
     </g>
     <g id="line2d_16">
      <g>
       <use xlink:href="#m17b44a579f" x="37.189356" y="140.149283" style="stroke: #000000; stroke-width: 0.5"/>
      </g>
     </g>
     <g id="text_9">
      <!-- $0.5$ -->
      <g transform="translate(20.889356 143.188658) scale(0.08 -0.08)">
       <use xlink:href="#DejaVuSans-30" transform="translate(0 0.78125)"/>
       <use xlink:href="#DejaVuSans-2e" transform="translate(63.623047 0.78125)"/>
       <use xlink:href="#DejaVuSans-35" transform="translate(95.410156 0.78125)"/>
      </g>
     </g>
    </g>
    <g id="ytick_3">
     <g id="line2d_17">
      <path d="M 37.189356 105.551501 
L 427.457061 105.551501 
" clip-path="url(#p75a492737f)" style="fill: none; stroke: #000000; stroke-opacity: 0.1; stroke-width: 0.5; stroke-linecap: square"/>
     </g>
     <g id="line2d_18">
      <g>
       <use xlink:href="#m17b44a579f" x="37.189356" y="105.551501" style="stroke: #000000; stroke-width: 0.5"/>
      </g>
     </g>
     <g id="text_10">
      <!-- $1.0$ -->
      <g transform="translate(20.889356 108.590876) scale(0.08 -0.08)">
       <use xlink:href="#DejaVuSans-31" transform="translate(0 0.78125)"/>
       <use xlink:href="#DejaVuSans-2e" transform="translate(63.623047 0.78125)"/>
       <use xlink:href="#DejaVuSans-30" transform="translate(95.410156 0.78125)"/>
      </g>
     </g>
    </g>
    <g id="ytick_4">
     <g id="line2d_19">
      <path d="M 37.189356 70.953719 
L 427.457061 70.953719 
" clip-path="url(#p75a492737f)" style="fill: none; stroke: #000000; stroke-opacity: 0.1; stroke-width: 0.5; stroke-linecap: square"/>
     </g>
     <g id="line2d_20">
      <g>
       <use xlink:href="#m17b44a579f" x="37.189356" y="70.953719" style="stroke: #000000; stroke-width: 0.5"/>
      </g>
     </g>
     <g id="text_11">
      <!-- $1.5$ -->
      <g transform="translate(20.889356 73.993094) scale(0.08 -0.08)">
       <use xlink:href="#DejaVuSans-31" transform="translate(0 0.09375)"/>
       <use xlink:href="#DejaVuSans-2e" transform="translate(63.623047 0.09375)"/>
       <use xlink:href="#DejaVuSans-35" transform="translate(95.410156 0.09375)"/>
      </g>
     </g>
    </g>
    <g id="text_12">
     <!-- $x_3$ [m] -->
     <g transform="translate(14.6017 146.576) rotate(-90) scale(0.11 -0.11)">
      <use xlink:href="#DejaVuSans-Oblique-78" transform="translate(0 0.015625)"/>
      <use xlink:href="#DejaVuSans-33" transform="translate(59.179688 -16.390625) scale(0.7)"/>
      <use xlink:href="#DejaVuSans-20" transform="translate(106.450195 0.015625)"/>
      <use xlink:href="#DejaVuSans-5b" transform="translate(138.237305 0.015625)"/>
      <use xlink:href="#DejaVuSans-6d" transform="translate(177.250977 0.015625)"/>
      <use xlink:href="#DejaVuSans-5d" transform="translate(274.663086 0.015625)"/>
     </g>
    </g>
   </g>
   <g id="patch_3">
    <path d="M 37.189356 195.860813 
L 37.189356 62.751187 
" style="fill: none; stroke: #000000; stroke-linejoin: miter; stroke-linecap: square"/>
   </g>
   <g id="patch_4">
    <path d="M 37.189356 195.860813 
L 427.457061 195.860813 
" style="fill: none; stroke: #000000; stroke-linejoin: miter; stroke-linecap: square"/>
   </g>
   <g id="line2d_21">
    <path d="M 80.113413 174.747065 
L 84.92121 166.901454 
" clip-path="url(#p75a492737f)" style="fill: none; stroke: #000000"/>
   </g>
   <g id="line2d_22">
    <path d="M 84.92121 166.901454 
L 90.133025 159.318216 
" clip-path="url(#p75a492737f)" style="fill: none; stroke: #000000"/>
   </g>
   <g id="line2d_23">
    <path d="M 90.133025 159.318216 
L 95.734573 152.018136 
" clip-path="url(#p75a492737f)" style="fill: none; stroke: #000000"/>
   </g>
   <g id="line2d_24">
    <path d="M 95.734573 152.018136 
L 101.710502 145.021222 
" clip-path="url(#p75a492737f)" style="fill: none; stroke: #000000"/>
   </g>
   <g id="line2d_25">
    <path d="M 101.710502 145.021222 
L 108.044431 138.346654 
" clip-path="url(#p75a492737f)" style="fill: none; stroke: #000000"/>
   </g>
   <g id="line2d_26">
    <path d="M 108.044431 138.346654 
L 114.719 132.012725 
" clip-path="url(#p75a492737f)" style="fill: none; stroke: #000000"/>
   </g>
   <g id="line2d_27">
    <path d="M 114.719 132.012725 
L 121.715913 126.036797 
" clip-path="url(#p75a492737f)" style="fill: none; stroke: #000000"/>
   </g>
   <g id="line2d_28">
    <path d="M 121.715913 126.036797 
L 129.015993 120.435247 
" clip-path="url(#p75a492737f)" style="fill: none; stroke: #000000"/>
   </g>
   <g id="line2d_29">
    <path d="M 129.015993 120.435247 
L 136.599231 115.223433 
" clip-path="url(#p75a492737f)" style="fill: none; stroke: #000000"/>
   </g>
   <g id="line2d_30">
    <path d="M 136.599231 115.223433 
L 144.444842 110.415636 
" clip-path="url(#p75a492737f)" style="fill: none; stroke: #000000"/>
   </g>
   <g id="line2d_31">
    <path d="M 144.444842 110.415636 
L 152.531322 106.025036 
" clip-path="url(#p75a492737f)" style="fill: none; stroke: #000000"/>
   </g>
   <g id="line2d_32">
    <path d="M 152.531322 106.025036 
L 160.836505 102.063667 
" clip-path="url(#p75a492737f)" style="fill: none; stroke: #000000"/>
   </g>
   <g id="line2d_33">
    <path d="M 160.836505 102.063667 
L 169.337628 98.542386 
" clip-path="url(#p75a492737f)" style="fill: none; stroke: #000000"/>
   </g>
   <g id="line2d_34">
    <path d="M 169.337628 98.542386 
L 178.011391 95.470846 
" clip-path="url(#p75a492737f)" style="fill: none; stroke: #000000"/>
   </g>
   <g id="line2d_35">
    <path d="M 178.011391 95.470846 
L 186.834019 92.857464 
" clip-path="url(#p75a492737f)" style="fill: none; stroke: #000000"/>
   </g>
   <g id="line2d_36">
    <path d="M 186.834019 92.857464 
L 195.781329 90.709405 
" clip-path="url(#p75a492737f)" style="fill: none; stroke: #000000"/>
   </g>
   <g id="line2d_37">
    <path d="M 195.781329 90.709405 
L 204.828798 89.032555 
" clip-path="url(#p75a492737f)" style="fill: none; stroke: #000000"/>
   </g>
   <g id="line2d_38">
    <path d="M 204.828798 89.032555 
L 213.951627 87.831513 
" clip-path="url(#p75a492737f)" style="fill: none; stroke: #000000"/>
   </g>
   <g id="line2d_39">
    <path d="M 213.951627 87.831513 
L 223.124812 87.109567 
" clip-path="url(#p75a492737f)" style="fill: none; stroke: #000000"/>
   </g>
   <g id="line2d_40">
    <path d="M 223.124812 87.109567 
L 232.323209 86.868699 
" clip-path="url(#p75a492737f)" style="fill: none; stroke: #000000"/>
   </g>
   <g id="line2d_41">
    <path d="M 232.323209 86.868699 
L 241.521605 87.109567 
" clip-path="url(#p75a492737f)" style="fill: none; stroke: #000000"/>
   </g>
   <g id="line2d_42">
    <path d="M 241.521605 87.109567 
L 250.694789 87.831513 
" clip-path="url(#p75a492737f)" style="fill: none; stroke: #000000"/>
   </g>
   <g id="line2d_43">
    <path d="M 250.694789 87.831513 
L 259.817619 89.032555 
" clip-path="url(#p75a492737f)" style="fill: none; stroke: #000000"/>
   </g>
   <g id="line2d_44">
    <path d="M 259.817619 89.032555 
L 268.865088 90.709405 
" clip-path="url(#p75a492737f)" style="fill: none; stroke: #000000"/>
   </g>
   <g id="line2d_45">
    <path d="M 268.865088 90.709405 
L 277.812398 92.857464 
" clip-path="url(#p75a492737f)" style="fill: none; stroke: #000000"/>
   </g>
   <g id="line2d_46">
    <path d="M 277.812398 92.857464 
L 286.635025 95.470846 
" clip-path="url(#p75a492737f)" style="fill: none; stroke: #000000"/>
   </g>
   <g id="line2d_47">
    <path d="M 286.635025 95.470846 
L 295.308788 98.542386 
" clip-path="url(#p75a492737f)" style="fill: none; stroke: #000000"/>
   </g>
   <g id="line2d_48">
    <path d="M 295.308788 98.542386 
L 303.809912 102.063667 
" clip-path="url(#p75a492737f)" style="fill: none; stroke: #000000"/>
   </g>
   <g id="line2d_49">
    <path d="M 303.809912 102.063667 
L 312.115095 106.025036 
" clip-path="url(#p75a492737f)" style="fill: none; stroke: #000000"/>
   </g>
   <g id="line2d_50">
    <path d="M 312.115095 106.025036 
L 320.201575 110.415636 
" clip-path="url(#p75a492737f)" style="fill: none; stroke: #000000"/>
   </g>
   <g id="line2d_51">
    <path d="M 320.201575 110.415636 
L 328.047185 115.223433 
" clip-path="url(#p75a492737f)" style="fill: none; stroke: #000000"/>
   </g>
   <g id="line2d_52">
    <path d="M 328.047185 115.223433 
L 335.630424 120.435247 
" clip-path="url(#p75a492737f)" style="fill: none; stroke: #000000"/>
   </g>
   <g id="line2d_53">
    <path d="M 335.630424 120.435247 
L 342.930504 126.036797 
" clip-path="url(#p75a492737f)" style="fill: none; stroke: #000000"/>
   </g>
   <g id="line2d_54">
    <path d="M 342.930504 126.036797 
L 349.927418 132.012725 
" clip-path="url(#p75a492737f)" style="fill: none; stroke: #000000"/>
   </g>
   <g id="line2d_55">
    <path d="M 349.927418 132.012725 
L 356.601986 138.346654 
" clip-path="url(#p75a492737f)" style="fill: none; stroke: #000000"/>
   </g>
   <g id="line2d_56">
    <path d="M 356.601986 138.346654 
L 362.935914 145.021222 
" clip-path="url(#p75a492737f)" style="fill: none; stroke: #000000"/>
   </g>
   <g id="line2d_57">
    <path d="M 362.935914 145.021222 
L 368.911843 152.018136 
" clip-path="url(#p75a492737f)" style="fill: none; stroke: #000000"/>
   </g>
   <g id="line2d_58">
    <path d="M 368.911843 152.018136 
L 374.513392 159.318216 
" clip-path="url(#p75a492737f)" style="fill: none; stroke: #000000"/>
   </g>
   <g id="line2d_59">
    <path d="M 374.513392 159.318216 
L 379.725207 166.901454 
" clip-path="url(#p75a492737f)" style="fill: none; stroke: #000000"/>
   </g>
   <g id="line2d_60">
    <path d="M 379.725207 166.901454 
L 384.533003 174.747065 
" clip-path="url(#p75a492737f)" style="fill: none; stroke: #000000"/>
   </g>
   <g id="line2d_61">
    <path d="M 80.113413 174.747065 
L 84.639257 166.881844 
" clip-path="url(#p75a492737f)" style="fill: none; stroke: #0000ff"/>
   </g>
   <g id="line2d_62">
    <path d="M 84.639257 166.881844 
L 89.213658 159.021799 
" clip-path="url(#p75a492737f)" style="fill: none; stroke: #0000ff"/>
   </g>
   <g id="line2d_63">
    <path d="M 89.213658 159.021799 
L 93.969307 151.243513 
" clip-path="url(#p75a492737f)" style="fill: none; stroke: #0000ff"/>
   </g>
   <g id="line2d_64">
    <path d="M 93.969307 151.243513 
L 99.039489 143.653144 
" clip-path="url(#p75a492737f)" style="fill: none; stroke: #0000ff"/>
   </g>
   <g id="line2d_65">
    <path d="M 99.039489 143.653144 
L 104.543765 136.379379 
" clip-path="url(#p75a492737f)" style="fill: none; stroke: #0000ff"/>
   </g>
   <g id="line2d_66">
    <path d="M 104.543765 136.379379 
L 110.575357 129.56318 
" clip-path="url(#p75a492737f)" style="fill: none; stroke: #0000ff"/>
   </g>
   <g id="line2d_67">
    <path d="M 110.575357 129.56318 
L 117.191696 123.345139 
" clip-path="url(#p75a492737f)" style="fill: none; stroke: #0000ff"/>
   </g>
   <g id="line2d_68">
    <path d="M 117.191696 123.345139 
L 124.409268 117.851644 
" clip-path="url(#p75a492737f)" style="fill: none; stroke: #0000ff"/>
   </g>
   <g id="line2d_69">
    <path d="M 124.409268 117.851644 
L 132.203346 113.181441 
" clip-path="url(#p75a492737f)" style="fill: none; stroke: #0000ff"/>
   </g>
   <g id="line2d_70">
    <path d="M 132.203346 113.181441 
L 140.512525 109.394232 
" clip-path="url(#p75a492737f)" style="fill: none; stroke: #0000ff"/>
   </g>
   <g id="line2d_71">
    <path d="M 140.512525 109.394232 
L 149.247346 106.502884 
" clip-path="url(#p75a492737f)" style="fill: none; stroke: #0000ff"/>
   </g>
   <g id="line2d_72">
    <path d="M 149.247346 106.502884 
L 158.301626 104.470371 
" clip-path="url(#p75a492737f)" style="fill: none; stroke: #0000ff"/>
   </g>
   <g id="line2d_73">
    <path d="M 158.301626 104.470371 
L 167.564893 103.211994 
" clip-path="url(#p75a492737f)" style="fill: none; stroke: #0000ff"/>
   </g>
   <g id="line2d_74">
    <path d="M 167.564893 103.211994 
L 176.934186 102.602697 
" clip-path="url(#p75a492737f)" style="fill: none; stroke: #0000ff"/>
   </g>
   <g id="line2d_75">
    <path d="M 176.934186 102.602697 
L 186.32379 102.488682 
" clip-path="url(#p75a492737f)" style="fill: none; stroke: #0000ff"/>
   </g>
   <g id="line2d_76">
    <path d="M 186.32379 102.488682 
L 195.671871 102.701994 
" clip-path="url(#p75a492737f)" style="fill: none; stroke: #0000ff"/>
   </g>
   <g id="line2d_77">
    <path d="M 195.671871 102.701994 
L 204.943541 103.076484 
" clip-path="url(#p75a492737f)" style="fill: none; stroke: #0000ff"/>
   </g>
   <g id="line2d_78">
    <path d="M 204.943541 103.076484 
L 214.130345 103.46351 
" clip-path="url(#p75a492737f)" style="fill: none; stroke: #0000ff"/>
   </g>
   <g id="line2d_79">
    <path d="M 214.130345 103.46351 
L 223.246597 103.745845 
" clip-path="url(#p75a492737f)" style="fill: none; stroke: #0000ff"/>
   </g>
   <g id="line2d_80">
    <path d="M 223.246597 103.745845 
L 232.323209 103.848547 
" clip-path="url(#p75a492737f)" style="fill: none; stroke: #0000ff"/>
   </g>
   <g id="line2d_81">
    <path d="M 232.323209 103.848547 
L 241.39982 103.745845 
" clip-path="url(#p75a492737f)" style="fill: none; stroke: #0000ff"/>
   </g>
   <g id="line2d_82">
    <path d="M 241.39982 103.745845 
L 250.516072 103.46351 
" clip-path="url(#p75a492737f)" style="fill: none; stroke: #0000ff"/>
   </g>
   <g id="line2d_83">
    <path d="M 250.516072 103.46351 
L 259.702876 103.076484 
" clip-path="url(#p75a492737f)" style="fill: none; stroke: #0000ff"/>
   </g>
   <g id="line2d_84">
    <path d="M 259.702876 103.076484 
L 268.974545 102.701994 
" clip-path="url(#p75a492737f)" style="fill: none; stroke: #0000ff"/>
   </g>
   <g id="line2d_85">
    <path d="M 268.974545 102.701994 
L 278.322626 102.488682 
" clip-path="url(#p75a492737f)" style="fill: none; stroke: #0000ff"/>
   </g>
   <g id="line2d_86">
    <path d="M 278.322626 102.488682 
L 287.71223 102.602697 
" clip-path="url(#p75a492737f)" style="fill: none; stroke: #0000ff"/>
   </g>
   <g id="line2d_87">
    <path d="M 287.71223 102.602697 
L 297.081524 103.211994 
" clip-path="url(#p75a492737f)" style="fill: none; stroke: #0000ff"/>
   </g>
   <g id="line2d_88">
    <path d="M 297.081524 103.211994 
L 306.344791 104.470371 
" clip-path="url(#p75a492737f)" style="fill: none; stroke: #0000ff"/>
   </g>
   <g id="line2d_89">
    <path d="M 306.344791 104.470371 
L 315.399071 106.502884 
" clip-path="url(#p75a492737f)" style="fill: none; stroke: #0000ff"/>
   </g>
   <g id="line2d_90">
    <path d="M 315.399071 106.502884 
L 324.133892 109.394232 
" clip-path="url(#p75a492737f)" style="fill: none; stroke: #0000ff"/>
   </g>
   <g id="line2d_91">
    <path d="M 324.133892 109.394232 
L 332.443071 113.181441 
" clip-path="url(#p75a492737f)" style="fill: none; stroke: #0000ff"/>
   </g>
   <g id="line2d_92">
    <path d="M 332.443071 113.181441 
L 340.237148 117.851644 
" clip-path="url(#p75a492737f)" style="fill: none; stroke: #0000ff"/>
   </g>
   <g id="line2d_93">
    <path d="M 340.237148 117.851644 
L 347.454721 123.345139 
" clip-path="url(#p75a492737f)" style="fill: none; stroke: #0000ff"/>
   </g>
   <g id="line2d_94">
    <path d="M 347.454721 123.345139 
L 354.07106 129.56318 
" clip-path="url(#p75a492737f)" style="fill: none; stroke: #0000ff"/>
   </g>
   <g id="line2d_95">
    <path d="M 354.07106 129.56318 
L 360.102651 136.379379 
" clip-path="url(#p75a492737f)" style="fill: none; stroke: #0000ff"/>
   </g>
   <g id="line2d_96">
    <path d="M 360.102651 136.379379 
L 365.606928 143.653144 
" clip-path="url(#p75a492737f)" style="fill: none; stroke: #0000ff"/>
   </g>
   <g id="line2d_97">
    <path d="M 365.606928 143.653144 
L 370.67711 151.243513 
" clip-path="url(#p75a492737f)" style="fill: none; stroke: #0000ff"/>
   </g>
   <g id="line2d_98">
    <path d="M 370.67711 151.243513 
L 375.432758 159.021799 
" clip-path="url(#p75a492737f)" style="fill: none; stroke: #0000ff"/>
   </g>
   <g id="line2d_99">
    <path d="M 375.432758 159.021799 
L 380.00716 166.881844 
" clip-path="url(#p75a492737f)" style="fill: none; stroke: #0000ff"/>
   </g>
   <g id="line2d_100">
    <path d="M 380.00716 166.881844 
L 384.533003 174.747065 
" clip-path="url(#p75a492737f)" style="fill: none; stroke: #0000ff"/>
   </g>
   <g id="line2d_101">
    <path d="M 48.234668 156.341863 
L 80.113413 174.747065 
" clip-path="url(#p75a492737f)" style="fill: none; stroke: #800080"/>
   </g>
   <g id="line2d_102">
    <path d="M 50.937963 151.66675 
L 82.376335 170.814454 
" clip-path="url(#p75a492737f)" style="fill: none; stroke: #800080"/>
   </g>
   <g id="line2d_103">
    <path d="M 53.658548 147.002168 
L 84.639257 166.881844 
" clip-path="url(#p75a492737f)" style="fill: none; stroke: #800080"/>
   </g>
   <g id="line2d_104">
    <path d="M 53.658548 147.002168 
L 84.639257 166.881844 
" clip-path="url(#p75a492737f)" style="fill: none; stroke: #800080"/>
   </g>
   <g id="line2d_105">
    <path d="M 56.436119 142.327925 
L 86.926458 162.951822 
" clip-path="url(#p75a492737f)" style="fill: none; stroke: #800080"/>
   </g>
   <g id="line2d_106">
    <path d="M 59.231564 137.665773 
L 89.213658 159.021799 
" clip-path="url(#p75a492737f)" style="fill: none; stroke: #800080"/>
   </g>
   <g id="line2d_107">
    <path d="M 59.231564 137.665773 
L 89.213658 159.021799 
" clip-path="url(#p75a492737f)" style="fill: none; stroke: #800080"/>
   </g>
   <g id="line2d_108">
    <path d="M 62.154791 133.030913 
L 91.591483 155.132656 
" clip-path="url(#p75a492737f)" style="fill: none; stroke: #800080"/>
   </g>
   <g id="line2d_109">
    <path d="M 65.096561 128.409976 
L 93.969307 151.243513 
" clip-path="url(#p75a492737f)" style="fill: none; stroke: #800080"/>
   </g>
   <g id="line2d_110">
    <path d="M 65.096561 128.409976 
L 93.969307 151.243513 
" clip-path="url(#p75a492737f)" style="fill: none; stroke: #800080"/>
   </g>
   <g id="line2d_111">
    <path d="M 68.23602 123.870698 
L 96.504398 147.448328 
" clip-path="url(#p75a492737f)" style="fill: none; stroke: #800080"/>
   </g>
   <g id="line2d_112">
    <path d="M 71.39465 119.34741 
L 99.039489 143.653144 
" clip-path="url(#p75a492737f)" style="fill: none; stroke: #800080"/>
   </g>
   <g id="line2d_113">
    <path d="M 71.39465 119.34741 
L 99.039489 143.653144 
" clip-path="url(#p75a492737f)" style="fill: none; stroke: #800080"/>
   </g>
   <g id="line2d_114">
    <path d="M 74.812262 114.973904 
L 101.791627 140.016261 
" clip-path="url(#p75a492737f)" style="fill: none; stroke: #800080"/>
   </g>
   <g id="line2d_115">
    <path d="M 78.249495 110.61861 
L 104.543765 136.379379 
" clip-path="url(#p75a492737f)" style="fill: none; stroke: #800080"/>
   </g>
   <g id="line2d_116">
    <path d="M 78.249495 110.61861 
L 104.543765 136.379379 
" clip-path="url(#p75a492737f)" style="fill: none; stroke: #800080"/>
   </g>
   <g id="line2d_117">
    <path d="M 81.991644 106.489447 
L 107.559561 132.971279 
" clip-path="url(#p75a492737f)" style="fill: none; stroke: #800080"/>
   </g>
   <g id="line2d_118">
    <path d="M 85.753559 102.380756 
L 110.575357 129.56318 
" clip-path="url(#p75a492737f)" style="fill: none; stroke: #800080"/>
   </g>
   <g id="line2d_119">
    <path d="M 85.753559 102.380756 
L 110.575357 129.56318 
" clip-path="url(#p75a492737f)" style="fill: none; stroke: #800080"/>
   </g>
   <g id="line2d_120">
    <path d="M 89.845982 98.575811 
L 113.883526 126.454159 
" clip-path="url(#p75a492737f)" style="fill: none; stroke: #800080"/>
   </g>
   <g id="line2d_121">
    <path d="M 93.957907 94.793485 
L 117.191696 123.345139 
" clip-path="url(#p75a492737f)" style="fill: none; stroke: #800080"/>
   </g>
   <g id="line2d_122">
    <path d="M 93.957907 94.793485 
L 117.191696 123.345139 
" clip-path="url(#p75a492737f)" style="fill: none; stroke: #800080"/>
   </g>
   <g id="line2d_123">
    <path d="M 98.403011 91.38608 
L 120.800482 120.598391 
" clip-path="url(#p75a492737f)" style="fill: none; stroke: #800080"/>
   </g>
   <g id="line2d_124">
    <path d="M 102.86689 88.003164 
L 124.409268 117.851644 
" clip-path="url(#p75a492737f)" style="fill: none; stroke: #800080"/>
   </g>
   <g id="line2d_125">
    <path d="M 102.86689 88.003164 
L 124.409268 117.851644 
" clip-path="url(#p75a492737f)" style="fill: none; stroke: #800080"/>
   </g>
   <g id="line2d_126">
    <path d="M 107.643835 85.052333 
L 128.306307 115.516543 
" clip-path="url(#p75a492737f)" style="fill: none; stroke: #800080"/>
   </g>
   <g id="line2d_127">
    <path d="M 112.438367 82.127432 
L 132.203346 113.181441 
" clip-path="url(#p75a492737f)" style="fill: none; stroke: #800080"/>
   </g>
   <g id="line2d_128">
    <path d="M 112.438367 82.127432 
L 132.203346 113.181441 
" clip-path="url(#p75a492737f)" style="fill: none; stroke: #800080"/>
   </g>
   <g id="line2d_129">
    <path d="M 117.505897 79.671283 
L 136.357936 111.287837 
" clip-path="url(#p75a492737f)" style="fill: none; stroke: #800080"/>
   </g>
   <g id="line2d_130">
    <path d="M 122.589425 77.241964 
L 140.512525 109.394232 
" clip-path="url(#p75a492737f)" style="fill: none; stroke: #800080"/>
   </g>
   <g id="line2d_131">
    <path d="M 122.589425 77.241964 
L 140.512525 109.394232 
" clip-path="url(#p75a492737f)" style="fill: none; stroke: #800080"/>
   </g>
   <g id="line2d_132">
    <path d="M 127.891008 75.29305 
L 144.879936 107.948558 
" clip-path="url(#p75a492737f)" style="fill: none; stroke: #800080"/>
   </g>
   <g id="line2d_133">
    <path d="M 133.206707 73.371271 
L 149.247346 106.502884 
" clip-path="url(#p75a492737f)" style="fill: none; stroke: #800080"/>
   </g>
   <g id="line2d_134">
    <path d="M 133.206707 73.371271 
L 149.247346 106.502884 
" clip-path="url(#p75a492737f)" style="fill: none; stroke: #800080"/>
   </g>
   <g id="line2d_135">
    <path d="M 138.677233 71.914633 
L 153.774486 105.486628 
" clip-path="url(#p75a492737f)" style="fill: none; stroke: #800080"/>
   </g>
   <g id="line2d_136">
    <path d="M 144.159836 70.484851 
L 158.301626 104.470371 
" clip-path="url(#p75a492737f)" style="fill: none; stroke: #800080"/>
   </g>
   <g id="line2d_137">
    <path d="M 144.159836 70.484851 
L 158.301626 104.470371 
" clip-path="url(#p75a492737f)" style="fill: none; stroke: #800080"/>
   </g>
   <g id="line2d_138">
    <path d="M 149.732903 69.479046 
L 162.933259 103.841183 
" clip-path="url(#p75a492737f)" style="fill: none; stroke: #800080"/>
   </g>
   <g id="line2d_139">
    <path d="M 155.315986 68.499314 
L 167.564893 103.211994 
" clip-path="url(#p75a492737f)" style="fill: none; stroke: #800080"/>
   </g>
   <g id="line2d_140">
    <path d="M 155.315986 68.499314 
L 167.564893 103.211994 
" clip-path="url(#p75a492737f)" style="fill: none; stroke: #800080"/>
   </g>
   <g id="line2d_141">
    <path d="M 160.930783 67.880333 
L 172.24954 102.907345 
" clip-path="url(#p75a492737f)" style="fill: none; stroke: #800080"/>
   </g>
   <g id="line2d_142">
    <path d="M 166.553633 67.286271 
L 176.934186 102.602697 
" clip-path="url(#p75a492737f)" style="fill: none; stroke: #800080"/>
   </g>
   <g id="line2d_143">
    <path d="M 166.553633 67.286271 
L 176.934186 102.602697 
" clip-path="url(#p75a492737f)" style="fill: none; stroke: #800080"/>
   </g>
   <g id="line2d_144">
    <path d="M 172.160574 66.973861 
L 181.628988 102.545689 
" clip-path="url(#p75a492737f)" style="fill: none; stroke: #800080"/>
   </g>
   <g id="line2d_145">
    <path d="M 177.773785 66.685005 
L 186.32379 102.488682 
" clip-path="url(#p75a492737f)" style="fill: none; stroke: #800080"/>
   </g>
   <g id="line2d_146">
    <path d="M 177.773785 66.685005 
L 186.32379 102.488682 
" clip-path="url(#p75a492737f)" style="fill: none; stroke: #800080"/>
   </g>
   <g id="line2d_147">
    <path d="M 183.338301 66.590651 
L 190.997831 102.595338 
" clip-path="url(#p75a492737f)" style="fill: none; stroke: #800080"/>
   </g>
   <g id="line2d_148">
    <path d="M 188.907527 66.518441 
L 195.671871 102.701994 
" clip-path="url(#p75a492737f)" style="fill: none; stroke: #800080"/>
   </g>
   <g id="line2d_149">
    <path d="M 188.907527 66.518441 
L 195.671871 102.701994 
" clip-path="url(#p75a492737f)" style="fill: none; stroke: #800080"/>
   </g>
   <g id="line2d_150">
    <path d="M 194.411728 66.554087 
L 200.307706 102.889239 
" clip-path="url(#p75a492737f)" style="fill: none; stroke: #800080"/>
   </g>
   <g id="line2d_151">
    <path d="M 199.919309 66.610569 
L 204.943541 103.076484 
" clip-path="url(#p75a492737f)" style="fill: none; stroke: #800080"/>
   </g>
   <g id="line2d_152">
    <path d="M 199.919309 66.610569 
L 204.943541 103.076484 
" clip-path="url(#p75a492737f)" style="fill: none; stroke: #800080"/>
   </g>
   <g id="line2d_153">
    <path d="M 205.36154 66.697168 
L 209.536943 103.269997 
" clip-path="url(#p75a492737f)" style="fill: none; stroke: #800080"/>
   </g>
   <g id="line2d_154">
    <path d="M 210.806026 66.803522 
L 214.130345 103.46351 
" clip-path="url(#p75a492737f)" style="fill: none; stroke: #800080"/>
   </g>
   <g id="line2d_155">
    <path d="M 210.806026 66.803522 
L 214.130345 103.46351 
" clip-path="url(#p75a492737f)" style="fill: none; stroke: #800080"/>
   </g>
   <g id="line2d_156">
    <path d="M 216.198551 66.878582 
L 218.688471 103.604678 
" clip-path="url(#p75a492737f)" style="fill: none; stroke: #800080"/>
   </g>
   <g id="line2d_157">
    <path d="M 221.592363 66.97263 
L 223.246597 103.745845 
" clip-path="url(#p75a492737f)" style="fill: none; stroke: #800080"/>
   </g>
   <g id="line2d_158">
    <path d="M 221.592363 66.97263 
L 223.246597 103.745845 
" clip-path="url(#p75a492737f)" style="fill: none; stroke: #800080"/>
   </g>
   <g id="line2d_159">
    <path d="M 226.957577 66.996091 
L 227.784903 103.797196 
" clip-path="url(#p75a492737f)" style="fill: none; stroke: #800080"/>
   </g>
   <g id="line2d_160">
    <path d="M 232.323209 67.038143 
L 232.323209 103.848547 
" clip-path="url(#p75a492737f)" style="fill: none; stroke: #800080"/>
   </g>
   <g id="line2d_161">
    <path d="M 232.323209 67.038143 
L 232.323209 103.848547 
" clip-path="url(#p75a492737f)" style="fill: none; stroke: #800080"/>
   </g>
   <g id="line2d_162">
    <path d="M 237.68884 66.996091 
L 236.861514 103.797196 
" clip-path="url(#p75a492737f)" style="fill: none; stroke: #800080"/>
   </g>
   <g id="line2d_163">
    <path d="M 243.054054 66.97263 
L 241.39982 103.745845 
" clip-path="url(#p75a492737f)" style="fill: none; stroke: #800080"/>
   </g>
   <g id="line2d_164">
    <path d="M 243.054054 66.97263 
L 241.39982 103.745845 
" clip-path="url(#p75a492737f)" style="fill: none; stroke: #800080"/>
   </g>
   <g id="line2d_165">
    <path d="M 248.447866 66.878582 
L 245.957946 103.604678 
" clip-path="url(#p75a492737f)" style="fill: none; stroke: #800080"/>
   </g>
   <g id="line2d_166">
    <path d="M 253.840391 66.803522 
L 250.516072 103.46351 
" clip-path="url(#p75a492737f)" style="fill: none; stroke: #800080"/>
   </g>
   <g id="line2d_167">
    <path d="M 253.840391 66.803522 
L 250.516072 103.46351 
" clip-path="url(#p75a492737f)" style="fill: none; stroke: #800080"/>
   </g>
   <g id="line2d_168">
    <path d="M 259.284877 66.697168 
L 255.109474 103.269997 
" clip-path="url(#p75a492737f)" style="fill: none; stroke: #800080"/>
   </g>
   <g id="line2d_169">
    <path d="M 264.727107 66.610569 
L 259.702876 103.076484 
" clip-path="url(#p75a492737f)" style="fill: none; stroke: #800080"/>
   </g>
   <g id="line2d_170">
    <path d="M 264.727107 66.610569 
L 259.702876 103.076484 
" clip-path="url(#p75a492737f)" style="fill: none; stroke: #800080"/>
   </g>
   <g id="line2d_171">
    <path d="M 270.234689 66.554087 
L 264.338711 102.889239 
" clip-path="url(#p75a492737f)" style="fill: none; stroke: #800080"/>
   </g>
   <g id="line2d_172">
    <path d="M 275.738889 66.518441 
L 268.974545 102.701994 
" clip-path="url(#p75a492737f)" style="fill: none; stroke: #800080"/>
   </g>
   <g id="line2d_173">
    <path d="M 275.738889 66.518441 
L 268.974545 102.701994 
" clip-path="url(#p75a492737f)" style="fill: none; stroke: #800080"/>
   </g>
   <g id="line2d_174">
    <path d="M 281.308115 66.590651 
L 273.648586 102.595338 
" clip-path="url(#p75a492737f)" style="fill: none; stroke: #800080"/>
   </g>
   <g id="line2d_175">
    <path d="M 286.872631 66.685005 
L 278.322626 102.488682 
" clip-path="url(#p75a492737f)" style="fill: none; stroke: #800080"/>
   </g>
   <g id="line2d_176">
    <path d="M 286.872631 66.685005 
L 278.322626 102.488682 
" clip-path="url(#p75a492737f)" style="fill: none; stroke: #800080"/>
   </g>
   <g id="line2d_177">
    <path d="M 292.485842 66.973861 
L 283.017428 102.545689 
" clip-path="url(#p75a492737f)" style="fill: none; stroke: #800080"/>
   </g>
   <g id="line2d_178">
    <path d="M 298.092784 67.286271 
L 287.71223 102.602697 
" clip-path="url(#p75a492737f)" style="fill: none; stroke: #800080"/>
   </g>
   <g id="line2d_179">
    <path d="M 298.092784 67.286271 
L 287.71223 102.602697 
" clip-path="url(#p75a492737f)" style="fill: none; stroke: #800080"/>
   </g>
   <g id="line2d_180">
    <path d="M 303.715633 67.880333 
L 292.396877 102.907345 
" clip-path="url(#p75a492737f)" style="fill: none; stroke: #800080"/>
   </g>
   <g id="line2d_181">
    <path d="M 309.33043 68.499314 
L 297.081524 103.211994 
" clip-path="url(#p75a492737f)" style="fill: none; stroke: #800080"/>
   </g>
   <g id="line2d_182">
    <path d="M 309.33043 68.499314 
L 297.081524 103.211994 
" clip-path="url(#p75a492737f)" style="fill: none; stroke: #800080"/>
   </g>
   <g id="line2d_183">
    <path d="M 314.913513 69.479046 
L 301.713157 103.841183 
" clip-path="url(#p75a492737f)" style="fill: none; stroke: #800080"/>
   </g>
   <g id="line2d_184">
    <path d="M 320.48658 70.484851 
L 306.344791 104.470371 
" clip-path="url(#p75a492737f)" style="fill: none; stroke: #800080"/>
   </g>
   <g id="line2d_185">
    <path d="M 320.48658 70.484851 
L 306.344791 104.470371 
" clip-path="url(#p75a492737f)" style="fill: none; stroke: #800080"/>
   </g>
   <g id="line2d_186">
    <path d="M 325.969183 71.914633 
L 310.871931 105.486628 
" clip-path="url(#p75a492737f)" style="fill: none; stroke: #800080"/>
   </g>
   <g id="line2d_187">
    <path d="M 331.43971 73.371271 
L 315.399071 106.502884 
" clip-path="url(#p75a492737f)" style="fill: none; stroke: #800080"/>
   </g>
   <g id="line2d_188">
    <path d="M 331.43971 73.371271 
L 315.399071 106.502884 
" clip-path="url(#p75a492737f)" style="fill: none; stroke: #800080"/>
   </g>
   <g id="line2d_189">
    <path d="M 336.755409 75.29305 
L 319.766481 107.948558 
" clip-path="url(#p75a492737f)" style="fill: none; stroke: #800080"/>
   </g>
   <g id="line2d_190">
    <path d="M 342.056992 77.241964 
L 324.133892 109.394232 
" clip-path="url(#p75a492737f)" style="fill: none; stroke: #800080"/>
   </g>
   <g id="line2d_191">
    <path d="M 342.056992 77.241964 
L 324.133892 109.394232 
" clip-path="url(#p75a492737f)" style="fill: none; stroke: #800080"/>
   </g>
   <g id="line2d_192">
    <path d="M 347.14052 79.671283 
L 328.288481 111.287837 
" clip-path="url(#p75a492737f)" style="fill: none; stroke: #800080"/>
   </g>
   <g id="line2d_193">
    <path d="M 352.208049 82.127432 
L 332.443071 113.181441 
" clip-path="url(#p75a492737f)" style="fill: none; stroke: #800080"/>
   </g>
   <g id="line2d_194">
    <path d="M 352.208049 82.127432 
L 332.443071 113.181441 
" clip-path="url(#p75a492737f)" style="fill: none; stroke: #800080"/>
   </g>
   <g id="line2d_195">
    <path d="M 357.002582 85.052333 
L 336.34011 115.516543 
" clip-path="url(#p75a492737f)" style="fill: none; stroke: #800080"/>
   </g>
   <g id="line2d_196">
    <path d="M 361.779527 88.003164 
L 340.237148 117.851644 
" clip-path="url(#p75a492737f)" style="fill: none; stroke: #800080"/>
   </g>
   <g id="line2d_197">
    <path d="M 361.779527 88.003164 
L 340.237148 117.851644 
" clip-path="url(#p75a492737f)" style="fill: none; stroke: #800080"/>
   </g>
   <g id="line2d_198">
    <path d="M 366.243406 91.38608 
L 343.845935 120.598391 
" clip-path="url(#p75a492737f)" style="fill: none; stroke: #800080"/>
   </g>
   <g id="line2d_199">
    <path d="M 370.688509 94.793485 
L 347.454721 123.345139 
" clip-path="url(#p75a492737f)" style="fill: none; stroke: #800080"/>
   </g>
   <g id="line2d_200">
    <path d="M 370.688509 94.793485 
L 347.454721 123.345139 
" clip-path="url(#p75a492737f)" style="fill: none; stroke: #800080"/>
   </g>
   <g id="line2d_201">
    <path d="M 374.800435 98.575811 
L 350.762891 126.454159 
" clip-path="url(#p75a492737f)" style="fill: none; stroke: #800080"/>
   </g>
   <g id="line2d_202">
    <path d="M 378.892858 102.380756 
L 354.07106 129.56318 
" clip-path="url(#p75a492737f)" style="fill: none; stroke: #800080"/>
   </g>
   <g id="line2d_203">
    <path d="M 378.892858 102.380756 
L 354.07106 129.56318 
" clip-path="url(#p75a492737f)" style="fill: none; stroke: #800080"/>
   </g>
   <g id="line2d_204">
    <path d="M 382.654773 106.489447 
L 357.086856 132.971279 
" clip-path="url(#p75a492737f)" style="fill: none; stroke: #800080"/>
   </g>
   <g id="line2d_205">
    <path d="M 386.396921 110.61861 
L 360.102651 136.379379 
" clip-path="url(#p75a492737f)" style="fill: none; stroke: #800080"/>
   </g>
   <g id="line2d_206">
    <path d="M 386.396921 110.61861 
L 360.102651 136.379379 
" clip-path="url(#p75a492737f)" style="fill: none; stroke: #800080"/>
   </g>
   <g id="line2d_207">
    <path d="M 389.834155 114.973904 
L 362.854789 140.016261 
" clip-path="url(#p75a492737f)" style="fill: none; stroke: #800080"/>
   </g>
   <g id="line2d_208">
    <path d="M 393.251767 119.34741 
L 365.606928 143.653144 
" clip-path="url(#p75a492737f)" style="fill: none; stroke: #800080"/>
   </g>
   <g id="line2d_209">
    <path d="M 393.251767 119.34741 
L 365.606928 143.653144 
" clip-path="url(#p75a492737f)" style="fill: none; stroke: #800080"/>
   </g>
   <g id="line2d_210">
    <path d="M 396.410397 123.870698 
L 368.142019 147.448328 
" clip-path="url(#p75a492737f)" style="fill: none; stroke: #800080"/>
   </g>
   <g id="line2d_211">
    <path d="M 399.549856 128.409976 
L 370.67711 151.243513 
" clip-path="url(#p75a492737f)" style="fill: none; stroke: #800080"/>
   </g>
   <g id="line2d_212">
    <path d="M 399.549856 128.409976 
L 370.67711 151.243513 
" clip-path="url(#p75a492737f)" style="fill: none; stroke: #800080"/>
   </g>
   <g id="line2d_213">
    <path d="M 402.491626 133.030913 
L 373.054934 155.132656 
" clip-path="url(#p75a492737f)" style="fill: none; stroke: #800080"/>
   </g>
   <g id="line2d_214">
    <path d="M 405.414853 137.665773 
L 375.432758 159.021799 
" clip-path="url(#p75a492737f)" style="fill: none; stroke: #800080"/>
   </g>
   <g id="line2d_215">
    <path d="M 405.414853 137.665773 
L 375.432758 159.021799 
" clip-path="url(#p75a492737f)" style="fill: none; stroke: #800080"/>
   </g>
   <g id="line2d_216">
    <path d="M 408.210297 142.327925 
L 377.719959 162.951822 
" clip-path="url(#p75a492737f)" style="fill: none; stroke: #800080"/>
   </g>
   <g id="line2d_217">
    <path d="M 410.987868 147.002168 
L 380.00716 166.881844 
" clip-path="url(#p75a492737f)" style="fill: none; stroke: #800080"/>
   </g>
   <g id="line2d_218">
    <path d="M 410.987868 147.002168 
L 380.00716 166.881844 
" clip-path="url(#p75a492737f)" style="fill: none; stroke: #800080"/>
   </g>
   <g id="line2d_219">
    <path d="M 413.708454 151.66675 
L 382.270082 170.814454 
" clip-path="url(#p75a492737f)" style="fill: none; stroke: #800080"/>
   </g>
   <g id="line2d_220">
    <path d="M 416.411748 156.341863 
L 384.533003 174.747065 
" clip-path="url(#p75a492737f)" style="fill: none; stroke: #800080"/>
   </g>
   <g id="patch_5">
    <path d="M 80.113413 174.747065 
L 68.549084 168.9649 
L 68.549084 180.52923 
" clip-path="url(#p75a492737f)" style="fill: #ff0000; stroke: #ff0000; stroke-linejoin: miter"/>
   </g>
   <g id="patch_6">
    <path d="M 85.895578 174.747065 
L 85.612579 172.960278 
L 84.791283 171.348394 
L 83.512084 170.069195 
L 81.9002 169.2479 
L 80.113413 168.9649 
L 78.326626 169.2479 
L 76.714742 170.069195 
L 75.435544 171.348394 
L 74.614248 172.960278 
L 74.331248 174.747065 
L 74.614248 176.533852 
L 75.435544 178.145736 
L 76.714742 179.424934 
L 78.326626 180.24623 
L 80.113413 180.52923 
L 81.9002 180.24623 
L 83.512084 179.424934 
L 84.791283 178.145736 
L 85.612579 176.533852 
L 85.895578 174.747065 
" clip-path="url(#p75a492737f)" style="fill: #ff0000; stroke: #ff0000; stroke-linejoin: miter"/>
   </g>
   <g id="patch_7">
    <path d="M 80.113413 174.747065 
L 85.895578 186.311394 
L 74.331248 186.311394 
" clip-path="url(#p75a492737f)" style="fill: #ff0000; stroke: #ff0000; stroke-linejoin: miter"/>
   </g>
   <g id="patch_8">
    <path d="M 80.113413 174.747065 
L 68.549084 168.9649 
L 68.549084 180.52923 
" clip-path="url(#p75a492737f)" style="fill: #ff0000; stroke: #ff0000; stroke-linejoin: miter"/>
   </g>
   <g id="patch_9">
    <path d="M 74.331248 174.747065 
L 62.766919 168.9649 
L 62.766919 180.52923 
" clip-path="url(#p75a492737f)" style="fill: #ffa500; stroke: #ffa500; stroke-linejoin: miter"/>
   </g>
   <g id="patch_10">
    <path d="M 85.895578 174.747065 
L 85.612579 172.960278 
L 84.791283 171.348394 
L 83.512084 170.069195 
L 81.9002 169.2479 
L 80.113413 168.9649 
L 78.326626 169.2479 
L 76.714742 170.069195 
L 75.435544 171.348394 
L 74.614248 172.960278 
L 74.331248 174.747065 
L 74.614248 176.533852 
L 75.435544 178.145736 
L 76.714742 179.424934 
L 78.326626 180.24623 
L 80.113413 180.52923 
L 81.9002 180.24623 
L 83.512084 179.424934 
L 84.791283 178.145736 
L 85.612579 176.533852 
L 85.895578 174.747065 
" clip-path="url(#p75a492737f)" style="fill: #ff0000; stroke: #ff0000; stroke-linejoin: miter"/>
   </g>
   <g id="patch_11">
    <path d="M 85.895578 174.747065 
L 85.612579 172.960278 
L 84.791283 171.348394 
L 83.512084 170.069195 
L 81.9002 169.2479 
L 80.113413 168.9649 
L 78.326626 169.2479 
L 76.714742 170.069195 
L 75.435544 171.348394 
L 74.614248 172.960278 
L 74.331248 174.747065 
L 74.614248 176.533852 
L 75.435544 178.145736 
L 76.714742 179.424934 
L 78.326626 180.24623 
L 80.113413 180.52923 
L 81.9002 180.24623 
L 83.512084 179.424934 
L 84.791283 178.145736 
L 85.612579 176.533852 
L 85.895578 174.747065 
" clip-path="url(#p75a492737f)" style="fill: #ffa500; stroke: #ffa500; stroke-linejoin: miter"/>
   </g>
   <g id="patch_12">
    <path d="M 80.113413 174.747065 
L 85.895578 186.311394 
L 74.331248 186.311394 
" clip-path="url(#p75a492737f)" style="fill: #ff0000; stroke: #ff0000; stroke-linejoin: miter"/>
   </g>
   <g id="patch_13">
    <path d="M 80.113413 180.52923 
L 85.895578 192.093559 
L 74.331248 192.093559 
" clip-path="url(#p75a492737f)" style="fill: #ffa500; stroke: #ffa500; stroke-linejoin: miter"/>
   </g>
   <g id="patch_14">
    <path d="M 384.533003 174.747065 
L 372.968674 168.9649 
L 372.968674 180.52923 
" clip-path="url(#p75a492737f)" style="fill: #ff0000; stroke: #ff0000; stroke-linejoin: miter"/>
   </g>
   <g id="patch_15">
    <path d="M 390.315168 174.747065 
L 390.032169 172.960278 
L 389.210873 171.348394 
L 387.931675 170.069195 
L 386.319791 169.2479 
L 384.533003 168.9649 
L 382.746216 169.2479 
L 381.134332 170.069195 
L 379.855134 171.348394 
L 379.033838 172.960278 
L 378.750839 174.747065 
L 379.033838 176.533852 
L 379.855134 178.145736 
L 381.134332 179.424934 
L 382.746216 180.24623 
L 384.533003 180.52923 
L 386.319791 180.24623 
L 387.931675 179.424934 
L 389.210873 178.145736 
L 390.032169 176.533852 
L 390.315168 174.747065 
" clip-path="url(#p75a492737f)" style="fill: #ff0000; stroke: #ff0000; stroke-linejoin: miter"/>
   </g>
   <g id="patch_16">
    <path d="M 384.533003 174.747065 
L 390.315168 186.311394 
L 378.750839 186.311394 
" clip-path="url(#p75a492737f)" style="fill: #ff0000; stroke: #ff0000; stroke-linejoin: miter"/>
   </g>
   <g id="patch_17">
    <path d="M 384.533003 174.747065 
L 372.968674 168.9649 
L 372.968674 180.52923 
" clip-path="url(#p75a492737f)" style="fill: #ff0000; stroke: #ff0000; stroke-linejoin: miter"/>
   </g>
   <g id="patch_18">
    <path d="M 378.750839 174.747065 
L 367.186509 168.9649 
L 367.186509 180.52923 
" clip-path="url(#p75a492737f)" style="fill: #ffa500; stroke: #ffa500; stroke-linejoin: miter"/>
   </g>
   <g id="patch_19">
    <path d="M 390.315168 174.747065 
L 390.032169 172.960278 
L 389.210873 171.348394 
L 387.931675 170.069195 
L 386.319791 169.2479 
L 384.533003 168.9649 
L 382.746216 169.2479 
L 381.134332 170.069195 
L 379.855134 171.348394 
L 379.033838 172.960278 
L 378.750839 174.747065 
L 379.033838 176.533852 
L 379.855134 178.145736 
L 381.134332 179.424934 
L 382.746216 180.24623 
L 384.533003 180.52923 
L 386.319791 180.24623 
L 387.931675 179.424934 
L 389.210873 178.145736 
L 390.032169 176.533852 
L 390.315168 174.747065 
" clip-path="url(#p75a492737f)" style="fill: #ff0000; stroke: #ff0000; stroke-linejoin: miter"/>
   </g>
   <g id="patch_20">
    <path d="M 390.315168 174.747065 
L 390.032169 172.960278 
L 389.210873 171.348394 
L 387.931675 170.069195 
L 386.319791 169.2479 
L 384.533003 168.9649 
L 382.746216 169.2479 
L 381.134332 170.069195 
L 379.855134 171.348394 
L 379.033838 172.960278 
L 378.750839 174.747065 
L 379.033838 176.533852 
L 379.855134 178.145736 
L 381.134332 179.424934 
L 382.746216 180.24623 
L 384.533003 180.52923 
L 386.319791 180.24623 
L 387.931675 179.424934 
L 389.210873 178.145736 
L 390.032169 176.533852 
L 390.315168 174.747065 
" clip-path="url(#p75a492737f)" style="fill: #ffa500; stroke: #ffa500; stroke-linejoin: miter"/>
   </g>
   <g id="patch_21">
    <path d="M 384.533003 174.747065 
L 390.315168 186.311394 
L 378.750839 186.311394 
" clip-path="url(#p75a492737f)" style="fill: #ff0000; stroke: #ff0000; stroke-linejoin: miter"/>
   </g>
   <g id="patch_22">
    <path d="M 384.533003 180.52923 
L 390.315168 192.093559 
L 378.750839 192.093559 
" clip-path="url(#p75a492737f)" style="fill: #ffa500; stroke: #ffa500; stroke-linejoin: miter"/>
   </g>
   <g id="patch_23">
    <path d="M 78.265337 171.948027 
Q 79.189375 173.347546 80.113413 174.747065 
Q 78.439375 174.646584 76.765337 174.546103 
z
" style="fill: #800080; stroke: #800080; stroke-linecap: round"/>
   </g>
   <g id="patch_24">
    <path d="M 80.594405 167.972848 
Q 81.48537 169.393651 82.376335 170.814454 
Q 80.705114 170.674745 79.033892 170.535035 
z
" style="fill: #800080; stroke: #800080; stroke-linecap: round"/>
   </g>
   <g id="patch_25">
    <path d="M 82.924453 163.999232 
Q 83.781855 165.440538 84.639257 166.881844 
Q 82.971771 166.702982 81.304285 166.52412 
z
" style="fill: #800080; stroke: #800080; stroke-linecap: round"/>
   </g>
   <g id="patch_26">
    <path d="M 82.924453 163.999232 
Q 83.781855 165.440538 84.639257 166.881844 
Q 82.971771 166.702982 81.304285 166.52412 
z
" style="fill: #800080; stroke: #800080; stroke-linecap: round"/>
   </g>
   <g id="patch_27">
    <path d="M 85.281945 160.028539 
Q 86.104201 161.49018 86.926458 162.951822 
Q 85.263791 162.732642 83.601124 162.513462 
z
" style="fill: #800080; stroke: #800080; stroke-linecap: round"/>
   </g>
   <g id="patch_28">
    <path d="M 87.640401 156.05956 
Q 88.42703 157.54068 89.213658 159.021799 
Q 87.556786 158.76243 85.899913 158.503062 
z
" style="fill: #800080; stroke: #800080; stroke-linecap: round"/>
   </g>
   <g id="patch_29">
    <path d="M 87.640401 156.05956 
Q 88.42703 157.54068 89.213658 159.021799 
Q 87.556786 158.76243 85.899913 158.503062 
z
" style="fill: #800080; stroke: #800080; stroke-linecap: round"/>
   </g>
   <g id="patch_30">
    <path d="M 90.093062 152.131867 
Q 90.842272 153.632261 91.591483 155.132656 
Q 89.941641 154.831787 88.291799 154.530919 
z
" style="fill: #800080; stroke: #800080; stroke-linecap: round"/>
   </g>
   <g id="patch_31">
    <path d="M 92.546667 148.206064 
Q 93.257987 149.724788 93.969307 151.243513 
Q 92.327535 150.901334 90.685764 150.559155 
z
" style="fill: #800080; stroke: #800080; stroke-linecap: round"/>
   </g>
   <g id="patch_32">
    <path d="M 92.546667 148.206064 
Q 93.257987 149.724788 93.969307 151.243513 
Q 92.327535 150.901334 90.685764 150.559155 
z
" style="fill: #800080; stroke: #800080; stroke-linecap: round"/>
   </g>
   <g id="patch_33">
    <path d="M 95.161335 144.374864 
Q 95.832866 145.911596 96.504398 147.448328 
Q 94.872093 147.063514 93.239789 146.6787 
z
" style="fill: #800080; stroke: #800080; stroke-linecap: round"/>
   </g>
   <g id="patch_34">
    <path d="M 97.776914 140.545749 
Q 98.408201 142.099446 99.039489 143.653144 
Q 97.417758 143.225956 95.796028 142.798767 
z
" style="fill: #800080; stroke: #800080; stroke-linecap: round"/>
   </g>
   <g id="patch_35">
    <path d="M 97.776914 140.545749 
Q 98.408201 142.099446 99.039489 143.653144 
Q 97.417758 143.225956 95.796028 142.798767 
z
" style="fill: #800080; stroke: #800080; stroke-linecap: round"/>
   </g>
   <g id="patch_36">
    <path d="M 100.613304 136.87595 
Q 101.202465 138.446106 101.791627 140.016261 
Q 100.182006 139.545497 98.572384 139.074733 
z
" style="fill: #800080; stroke: #800080; stroke-linecap: round"/>
   </g>
   <g id="patch_37">
    <path d="M 103.450551 133.208435 
Q 103.997158 134.793907 104.543765 136.379379 
Q 102.947424 135.865381 101.351082 135.351384 
z
" style="fill: #800080; stroke: #800080; stroke-linecap: round"/>
   </g>
   <g id="patch_38">
    <path d="M 103.450551 133.208435 
Q 103.997158 134.793907 104.543765 136.379379 
Q 102.947424 135.865381 101.351082 135.351384 
z
" style="fill: #800080; stroke: #800080; stroke-linecap: round"/>
   </g>
   <g id="patch_39">
    <path d="M 106.554927 129.771169 
Q 107.057244 131.371224 107.559561 132.971279 
Q 105.978126 132.4131 104.396692 131.85492 
z
" style="fill: #800080; stroke: #800080; stroke-linecap: round"/>
   </g>
   <g id="patch_40">
    <path d="M 109.660079 126.336376 
Q 110.117718 127.949778 110.575357 129.56318 
Q 109.010052 128.96125 107.444747 128.35932 
z
" style="fill: #800080; stroke: #800080; stroke-linecap: round"/>
   </g>
   <g id="patch_41">
    <path d="M 109.660079 126.336376 
Q 110.117718 127.949778 110.575357 129.56318 
Q 109.010052 128.96125 107.444747 128.35932 
z
" style="fill: #800080; stroke: #800080; stroke-linecap: round"/>
   </g>
   <g id="patch_42">
    <path d="M 113.060522 123.202596 
Q 113.472024 124.828378 113.883526 126.454159 
Q 112.336 125.807892 110.788473 125.161624 
z
" style="fill: #800080; stroke: #800080; stroke-linecap: round"/>
   </g>
   <g id="patch_43">
    <path d="M 116.461633 120.071454 
Q 116.826665 121.708296 117.191696 123.345139 
Q 115.663203 122.655058 114.134711 121.964978 
z
" style="fill: #800080; stroke: #800080; stroke-linecap: round"/>
   </g>
   <g id="patch_44">
    <path d="M 116.461633 120.071454 
Q 116.826665 121.708296 117.191696 123.345139 
Q 115.663203 122.655058 114.134711 121.964978 
z
" style="fill: #800080; stroke: #800080; stroke-linecap: round"/>
   </g>
   <g id="patch_45">
    <path d="M 120.1655 117.304943 
Q 120.482991 118.951667 120.800482 120.598391 
Q 119.292608 119.86435 117.784735 119.130308 
z
" style="fill: #800080; stroke: #800080; stroke-linecap: round"/>
   </g>
   <g id="patch_46">
    <path d="M 123.869899 114.541194 
Q 124.139584 116.196419 124.409268 117.851644 
Q 122.923277 117.074257 121.437286 116.296869 
z
" style="fill: #800080; stroke: #800080; stroke-linecap: round"/>
   </g>
   <g id="patch_47">
    <path d="M 123.869899 114.541194 
Q 124.139584 116.196419 124.409268 117.851644 
Q 122.923277 117.074257 121.437286 116.296869 
z
" style="fill: #800080; stroke: #800080; stroke-linecap: round"/>
   </g>
   <g id="patch_48">
    <path d="M 127.863739 112.191767 
Q 128.085023 113.854155 128.306307 115.516543 
Q 126.843626 114.696137 125.380946 113.875731 
z
" style="fill: #800080; stroke: #800080; stroke-linecap: round"/>
   </g>
   <g id="patch_49">
    <path d="M 131.857956 109.84517 
Q 132.030651 111.513306 132.203346 113.181441 
Q 130.76522 112.318716 129.327095 111.45599 
z
" style="fill: #800080; stroke: #800080; stroke-linecap: round"/>
   </g>
   <g id="patch_50">
    <path d="M 131.857956 109.84517 
Q 132.030651 111.513306 132.203346 113.181441 
Q 130.76522 112.318716 129.327095 111.45599 
z
" style="fill: #800080; stroke: #800080; stroke-linecap: round"/>
   </g>
   <g id="patch_51">
    <path d="M 136.109873 107.94292 
Q 136.233904 109.615378 136.357936 111.287837 
Q 134.94555 110.383587 133.533165 109.479337 
z
" style="fill: #800080; stroke: #800080; stroke-linecap: round"/>
   </g>
   <g id="patch_52">
    <path d="M 140.362 106.043509 
Q 140.437263 107.718871 140.512525 109.394232 
Q 139.127079 108.449225 137.741632 107.504219 
z
" style="fill: #800080; stroke: #800080; stroke-linecap: round"/>
   </g>
   <g id="patch_53">
    <path d="M 140.362 106.043509 
Q 140.437263 107.718871 140.512525 109.394232 
Q 139.127079 108.449225 137.741632 107.504219 
z
" style="fill: #800080; stroke: #800080; stroke-linecap: round"/>
   </g>
   <g id="patch_54">
    <path d="M 144.826051 104.594889 
Q 144.852993 106.271723 144.879936 107.948558 
Q 143.522303 106.964011 142.164669 105.979464 
z
" style="fill: #800080; stroke: #800080; stroke-linecap: round"/>
   </g>
   <g id="patch_55">
    <path d="M 149.290146 103.149055 
Q 149.268746 104.825969 149.247346 106.502884 
Q 147.918654 105.479615 146.589963 104.456346 
z
" style="fill: #800080; stroke: #800080; stroke-linecap: round"/>
   </g>
   <g id="patch_56">
    <path d="M 149.290146 103.149055 
Q 149.268746 104.825969 149.247346 106.502884 
Q 147.918654 105.479615 146.589963 104.456346 
z
" style="fill: #800080; stroke: #800080; stroke-linecap: round"/>
   </g>
   <g id="patch_57">
    <path d="M 153.912116 102.135351 
Q 153.843301 103.810989 153.774486 105.486628 
Q 152.475264 104.426192 151.176042 103.365757 
z
" style="fill: #800080; stroke: #800080; stroke-linecap: round"/>
   </g>
   <g id="patch_58">
    <path d="M 158.533976 101.124327 
Q 158.417801 102.797349 158.301626 104.470371 
Q 157.032913 103.373618 155.7642 102.276864 
z
" style="fill: #800080; stroke: #800080; stroke-linecap: round"/>
   </g>
   <g id="patch_59">
    <path d="M 158.533976 101.124327 
Q 158.417801 102.797349 158.301626 104.470371 
Q 157.032913 103.373618 155.7642 102.276864 
z
" style="fill: #800080; stroke: #800080; stroke-linecap: round"/>
   </g>
   <g id="patch_60">
    <path d="M 163.257682 100.502807 
Q 163.095471 102.171995 162.933259 103.841183 
Q 161.695236 102.709901 160.457213 101.578619 
z
" style="fill: #800080; stroke: #800080; stroke-linecap: round"/>
   </g>
   <g id="patch_61">
    <path d="M 167.981142 99.883821 
Q 167.773017 101.547907 167.564893 103.211994 
Q 166.358498 102.047042 165.152104 100.882091 
z
" style="fill: #800080; stroke: #800080; stroke-linecap: round"/>
   </g>
   <g id="patch_62">
    <path d="M 167.981142 99.883821 
Q 167.773017 101.547907 167.564893 103.211994 
Q 166.358498 102.047042 165.152104 100.882091 
z
" style="fill: #800080; stroke: #800080; stroke-linecap: round"/>
   </g>
   <g id="patch_63">
    <path d="M 172.754404 99.591457 
Q 172.501972 101.249401 172.24954 102.907345 
Q 171.074644 101.710633 169.899748 100.513921 
z
" style="fill: #800080; stroke: #800080; stroke-linecap: round"/>
   </g>
   <g id="patch_64">
    <path d="M 177.527306 99.301453 
Q 177.230746 100.952075 176.934186 102.602697 
Q 175.791625 101.375076 174.649063 100.147455 
z
" style="fill: #800080; stroke: #800080; stroke-linecap: round"/>
   </g>
   <g id="patch_65">
    <path d="M 177.527306 99.301453 
Q 177.230746 100.952075 176.934186 102.602697 
Q 175.791625 101.375076 174.649063 100.147455 
z
" style="fill: #800080; stroke: #800080; stroke-linecap: round"/>
   </g>
   <g id="patch_66">
    <path d="M 182.306854 99.2608 
Q 181.967921 100.903245 181.628988 102.545689 
Q 180.518392 101.289076 179.407796 100.032463 
z
" style="fill: #800080; stroke: #800080; stroke-linecap: round"/>
   </g>
   <g id="patch_67">
    <path d="M 187.085952 99.222322 
Q 186.704871 100.855502 186.32379 102.488682 
Q 185.245895 101.203909 184.167999 99.919136 
z
" style="fill: #800080; stroke: #800080; stroke-linecap: round"/>
   </g>
   <g id="patch_68">
    <path d="M 187.085952 99.222322 
Q 186.704871 100.855502 186.32379 102.488682 
Q 185.245895 101.203909 184.167999 99.919136 
z
" style="fill: #800080; stroke: #800080; stroke-linecap: round"/>
   </g>
   <g id="patch_69">
    <path d="M 191.840757 99.348882 
Q 191.419294 100.97211 190.997831 102.595338 
Q 189.952126 101.284231 188.906422 99.973123 
z
" style="fill: #800080; stroke: #800080; stroke-linecap: round"/>
   </g>
   <g id="patch_70">
    <path d="M 196.595042 99.477439 
Q 196.133457 101.089716 195.671871 102.701994 
Q 194.659001 101.365359 193.64613 100.028724 
z
" style="fill: #800080; stroke: #800080; stroke-linecap: round"/>
   </g>
   <g id="patch_71">
    <path d="M 196.595042 99.477439 
Q 196.133457 101.089716 195.671871 102.701994 
Q 194.659001 101.365359 193.64613 100.028724 
z
" style="fill: #800080; stroke: #800080; stroke-linecap: round"/>
   </g>
   <g id="patch_72">
    <path d="M 201.307825 99.687714 
Q 200.807766 101.288476 200.307706 102.889239 
Q 199.327132 101.528734 198.346558 100.168228 
z
" style="fill: #800080; stroke: #800080; stroke-linecap: round"/>
   </g>
   <g id="patch_73">
    <path d="M 206.020035 99.899825 
Q 205.481788 101.488154 204.943541 103.076484 
Q 203.995825 101.692889 203.04811 100.309293 
z
" style="fill: #800080; stroke: #800080; stroke-linecap: round"/>
   </g>
   <g id="patch_74">
    <path d="M 206.020035 99.899825 
Q 205.481788 101.488154 204.943541 103.076484 
Q 203.995825 101.692889 203.04811 100.309293 
z
" style="fill: #800080; stroke: #800080; stroke-linecap: round"/>
   </g>
   <g id="patch_75">
    <path d="M 210.686972 100.119214 
Q 210.111957 101.694606 209.536943 103.269997 
Q 208.621638 101.864751 207.706334 100.459504 
z
" style="fill: #800080; stroke: #800080; stroke-linecap: round"/>
   </g>
   <g id="patch_76">
    <path d="M 215.353288 100.340305 
Q 214.741816 101.901908 214.130345 103.46351 
Q 213.247946 102.037372 212.365547 100.611233 
z
" style="fill: #800080; stroke: #800080; stroke-linecap: round"/>
   </g>
   <g id="patch_77">
    <path d="M 215.353288 100.340305 
Q 214.741816 101.901908 214.130345 103.46351 
Q 213.247946 102.037372 212.365547 100.611233 
z
" style="fill: #800080; stroke: #800080; stroke-linecap: round"/>
   </g>
   <g id="patch_78">
    <path d="M 219.98211 100.510086 
Q 219.33529 102.057382 218.688471 103.604678 
Q 217.838726 102.158845 216.988981 100.713011 
z
" style="fill: #800080; stroke: #800080; stroke-linecap: round"/>
   </g>
   <g id="patch_79">
    <path d="M 224.610263 100.681467 
Q 223.92843 102.213656 223.246597 103.745845 
Q 222.429946 102.281065 221.613294 100.816285 
z
" style="fill: #800080; stroke: #800080; stroke-linecap: round"/>
   </g>
   <g id="patch_80">
    <path d="M 224.610263 100.681467 
Q 223.92843 102.213656 223.246597 103.745845 
Q 222.429946 102.281065 221.613294 100.816285 
z
" style="fill: #800080; stroke: #800080; stroke-linecap: round"/>
   </g>
   <g id="patch_81">
    <path d="M 229.217098 100.764241 
Q 228.501 102.280719 227.784903 103.797196 
Q 227.001379 102.314432 226.217856 100.831667 
z
" style="fill: #800080; stroke: #800080; stroke-linecap: round"/>
   </g>
   <g id="patch_82">
    <path d="M 233.823209 100.848547 
Q 233.073209 102.348547 232.323209 103.848547 
Q 231.573209 102.348547 230.823209 100.848547 
z
" style="fill: #800080; stroke: #800080; stroke-linecap: round"/>
   </g>
   <g id="patch_83">
    <path d="M 233.823209 100.848547 
Q 233.073209 102.348547 232.323209 103.848547 
Q 231.573209 102.348547 230.823209 100.848547 
z
" style="fill: #800080; stroke: #800080; stroke-linecap: round"/>
   </g>
   <g id="patch_84">
    <path d="M 238.428561 100.831667 
Q 237.645038 102.314432 236.861514 103.797196 
Q 236.145417 102.280719 235.429319 100.764241 
z
" style="fill: #800080; stroke: #800080; stroke-linecap: round"/>
   </g>
   <g id="patch_85">
    <path d="M 243.033122 100.816285 
Q 242.216471 102.281065 241.39982 103.745845 
Q 240.717986 102.213656 240.036153 100.681467 
z
" style="fill: #800080; stroke: #800080; stroke-linecap: round"/>
   </g>
   <g id="patch_86">
    <path d="M 243.033122 100.816285 
Q 242.216471 102.281065 241.39982 103.745845 
Q 240.717986 102.213656 240.036153 100.681467 
z
" style="fill: #800080; stroke: #800080; stroke-linecap: round"/>
   </g>
   <g id="patch_87">
    <path d="M 247.657436 100.713011 
Q 246.807691 102.158845 245.957946 103.604678 
Q 245.311126 102.057382 244.664306 100.510086 
z
" style="fill: #800080; stroke: #800080; stroke-linecap: round"/>
   </g>
   <g id="patch_88">
    <path d="M 252.28087 100.611233 
Q 251.398471 102.037372 250.516072 103.46351 
Q 249.9046 101.901908 249.293129 100.340305 
z
" style="fill: #800080; stroke: #800080; stroke-linecap: round"/>
   </g>
   <g id="patch_89">
    <path d="M 252.28087 100.611233 
Q 251.398471 102.037372 250.516072 103.46351 
Q 249.9046 101.901908 249.293129 100.340305 
z
" style="fill: #800080; stroke: #800080; stroke-linecap: round"/>
   </g>
   <g id="patch_90">
    <path d="M 256.940083 100.459504 
Q 256.024778 101.864751 255.109474 103.269997 
Q 254.534459 101.694606 253.959445 100.119214 
z
" style="fill: #800080; stroke: #800080; stroke-linecap: round"/>
   </g>
   <g id="patch_91">
    <path d="M 261.598307 100.309293 
Q 260.650591 101.692889 259.702876 103.076484 
Q 259.164629 101.488154 258.626382 99.899825 
z
" style="fill: #800080; stroke: #800080; stroke-linecap: round"/>
   </g>
   <g id="patch_92">
    <path d="M 261.598307 100.309293 
Q 260.650591 101.692889 259.702876 103.076484 
Q 259.164629 101.488154 258.626382 99.899825 
z
" style="fill: #800080; stroke: #800080; stroke-linecap: round"/>
   </g>
   <g id="patch_93">
    <path d="M 266.299859 100.168228 
Q 265.319285 101.528734 264.338711 102.889239 
Q 263.838651 101.288476 263.338591 99.687714 
z
" style="fill: #800080; stroke: #800080; stroke-linecap: round"/>
   </g>
   <g id="patch_94">
    <path d="M 271.000287 100.028724 
Q 269.987416 101.365359 268.974545 102.701994 
Q 268.51296 101.089716 268.051374 99.477439 
z
" style="fill: #800080; stroke: #800080; stroke-linecap: round"/>
   </g>
   <g id="patch_95">
    <path d="M 271.000287 100.028724 
Q 269.987416 101.365359 268.974545 102.701994 
Q 268.51296 101.089716 268.051374 99.477439 
z
" style="fill: #800080; stroke: #800080; stroke-linecap: round"/>
   </g>
   <g id="patch_96">
    <path d="M 275.739995 99.973123 
Q 274.69429 101.284231 273.648586 102.595338 
Q 273.227123 100.97211 272.80566 99.348882 
z
" style="fill: #800080; stroke: #800080; stroke-linecap: round"/>
   </g>
   <g id="patch_97">
    <path d="M 280.478417 99.919136 
Q 279.400522 101.203909 278.322626 102.488682 
Q 277.941545 100.855502 277.560464 99.222322 
z
" style="fill: #800080; stroke: #800080; stroke-linecap: round"/>
   </g>
   <g id="patch_98">
    <path d="M 280.478417 99.919136 
Q 279.400522 101.203909 278.322626 102.488682 
Q 277.941545 100.855502 277.560464 99.222322 
z
" style="fill: #800080; stroke: #800080; stroke-linecap: round"/>
   </g>
   <g id="patch_99">
    <path d="M 285.238621 100.032463 
Q 284.128024 101.289076 283.017428 102.545689 
Q 282.678496 100.903245 282.339563 99.2608 
z
" style="fill: #800080; stroke: #800080; stroke-linecap: round"/>
   </g>
   <g id="patch_100">
    <path d="M 289.997353 100.147455 
Q 288.854792 101.375076 287.71223 102.602697 
Q 287.41567 100.952075 287.11911 99.301453 
z
" style="fill: #800080; stroke: #800080; stroke-linecap: round"/>
   </g>
   <g id="patch_101">
    <path d="M 289.997353 100.147455 
Q 288.854792 101.375076 287.71223 102.602697 
Q 287.41567 100.952075 287.11911 99.301453 
z
" style="fill: #800080; stroke: #800080; stroke-linecap: round"/>
   </g>
   <g id="patch_102">
    <path d="M 294.746669 100.513921 
Q 293.571773 101.710633 292.396877 102.907345 
Q 292.144445 101.249401 291.892013 99.591457 
z
" style="fill: #800080; stroke: #800080; stroke-linecap: round"/>
   </g>
   <g id="patch_103">
    <path d="M 299.494313 100.882091 
Q 298.287919 102.047042 297.081524 103.211994 
Q 296.873399 101.547907 296.665275 99.883821 
z
" style="fill: #800080; stroke: #800080; stroke-linecap: round"/>
   </g>
   <g id="patch_104">
    <path d="M 299.494313 100.882091 
Q 298.287919 102.047042 297.081524 103.211994 
Q 296.873399 101.547907 296.665275 99.883821 
z
" style="fill: #800080; stroke: #800080; stroke-linecap: round"/>
   </g>
   <g id="patch_105">
    <path d="M 304.189204 101.578619 
Q 302.951181 102.709901 301.713157 103.841183 
Q 301.550946 102.171995 301.388735 100.502807 
z
" style="fill: #800080; stroke: #800080; stroke-linecap: round"/>
   </g>
   <g id="patch_106">
    <path d="M 308.882216 102.276864 
Q 307.613504 103.373618 306.344791 104.470371 
Q 306.228616 102.797349 306.112441 101.124327 
z
" style="fill: #800080; stroke: #800080; stroke-linecap: round"/>
   </g>
   <g id="patch_107">
    <path d="M 308.882216 102.276864 
Q 307.613504 103.373618 306.344791 104.470371 
Q 306.228616 102.797349 306.112441 101.124327 
z
" style="fill: #800080; stroke: #800080; stroke-linecap: round"/>
   </g>
   <g id="patch_108">
    <path d="M 313.470374 103.365757 
Q 312.171153 104.426192 310.871931 105.486628 
Q 310.803116 103.810989 310.7343 102.135351 
z
" style="fill: #800080; stroke: #800080; stroke-linecap: round"/>
   </g>
   <g id="patch_109">
    <path d="M 318.056454 104.456346 
Q 316.727762 105.479615 315.399071 106.502884 
Q 315.377671 104.825969 315.35627 103.149055 
z
" style="fill: #800080; stroke: #800080; stroke-linecap: round"/>
   </g>
   <g id="patch_110">
    <path d="M 318.056454 104.456346 
Q 316.727762 105.479615 315.399071 106.502884 
Q 315.377671 104.825969 315.35627 103.149055 
z
" style="fill: #800080; stroke: #800080; stroke-linecap: round"/>
   </g>
   <g id="patch_111">
    <path d="M 322.481748 105.979464 
Q 321.124114 106.964011 319.766481 107.948558 
Q 319.793424 106.271723 319.820366 104.594889 
z
" style="fill: #800080; stroke: #800080; stroke-linecap: round"/>
   </g>
   <g id="patch_112">
    <path d="M 326.904785 107.504219 
Q 325.519338 108.449225 324.133892 109.394232 
Q 324.209155 107.718871 324.284417 106.043509 
z
" style="fill: #800080; stroke: #800080; stroke-linecap: round"/>
   </g>
   <g id="patch_113">
    <path d="M 326.904785 107.504219 
Q 325.519338 108.449225 324.133892 109.394232 
Q 324.209155 107.718871 324.284417 106.043509 
z
" style="fill: #800080; stroke: #800080; stroke-linecap: round"/>
   </g>
   <g id="patch_114">
    <path d="M 331.113252 109.479337 
Q 329.700867 110.383587 328.288481 111.287837 
Q 328.412513 109.615378 328.536544 107.94292 
z
" style="fill: #800080; stroke: #800080; stroke-linecap: round"/>
   </g>
   <g id="patch_115">
    <path d="M 335.319322 111.45599 
Q 333.881196 112.318716 332.443071 113.181441 
Q 332.615766 111.513306 332.78846 109.84517 
z
" style="fill: #800080; stroke: #800080; stroke-linecap: round"/>
   </g>
   <g id="patch_116">
    <path d="M 335.319322 111.45599 
Q 333.881196 112.318716 332.443071 113.181441 
Q 332.615766 111.513306 332.78846 109.84517 
z
" style="fill: #800080; stroke: #800080; stroke-linecap: round"/>
   </g>
   <g id="patch_117">
    <path d="M 339.265471 113.875731 
Q 337.80279 114.696137 336.34011 115.516543 
Q 336.561394 113.854155 336.782677 112.191767 
z
" style="fill: #800080; stroke: #800080; stroke-linecap: round"/>
   </g>
   <g id="patch_118">
    <path d="M 343.20913 116.296869 
Q 341.723139 117.074257 340.237148 117.851644 
Q 340.506833 116.196419 340.776518 114.541194 
z
" style="fill: #800080; stroke: #800080; stroke-linecap: round"/>
   </g>
   <g id="patch_119">
    <path d="M 343.20913 116.296869 
Q 341.723139 117.074257 340.237148 117.851644 
Q 340.506833 116.196419 340.776518 114.541194 
z
" style="fill: #800080; stroke: #800080; stroke-linecap: round"/>
   </g>
   <g id="patch_120">
    <path d="M 346.861682 119.130308 
Q 345.353808 119.86435 343.845935 120.598391 
Q 344.163426 118.951667 344.480917 117.304943 
z
" style="fill: #800080; stroke: #800080; stroke-linecap: round"/>
   </g>
   <g id="patch_121">
    <path d="M 350.511706 121.964978 
Q 348.983213 122.655058 347.454721 123.345139 
Q 347.819752 121.708296 348.184783 120.071454 
z
" style="fill: #800080; stroke: #800080; stroke-linecap: round"/>
   </g>
   <g id="patch_122">
    <path d="M 350.511706 121.964978 
Q 348.983213 122.655058 347.454721 123.345139 
Q 347.819752 121.708296 348.184783 120.071454 
z
" style="fill: #800080; stroke: #800080; stroke-linecap: round"/>
   </g>
   <g id="patch_123">
    <path d="M 353.857944 125.161624 
Q 352.310417 125.807892 350.762891 126.454159 
Q 351.174393 124.828378 351.585895 123.202596 
z
" style="fill: #800080; stroke: #800080; stroke-linecap: round"/>
   </g>
   <g id="patch_124">
    <path d="M 357.201671 128.35932 
Q 355.636365 128.96125 354.07106 129.56318 
Q 354.528699 127.949778 354.986338 126.336376 
z
" style="fill: #800080; stroke: #800080; stroke-linecap: round"/>
   </g>
   <g id="patch_125">
    <path d="M 357.201671 128.35932 
Q 355.636365 128.96125 354.07106 129.56318 
Q 354.528699 127.949778 354.986338 126.336376 
z
" style="fill: #800080; stroke: #800080; stroke-linecap: round"/>
   </g>
   <g id="patch_126">
    <path d="M 360.249725 131.85492 
Q 358.66829 132.4131 357.086856 132.971279 
Q 357.589173 131.371224 358.09149 129.771169 
z
" style="fill: #800080; stroke: #800080; stroke-linecap: round"/>
   </g>
   <g id="patch_127">
    <path d="M 363.295335 135.351384 
Q 361.698993 135.865381 360.102651 136.379379 
Q 360.649258 134.793907 361.195866 133.208435 
z
" style="fill: #800080; stroke: #800080; stroke-linecap: round"/>
   </g>
   <g id="patch_128">
    <path d="M 363.295335 135.351384 
Q 361.698993 135.865381 360.102651 136.379379 
Q 360.649258 134.793907 361.195866 133.208435 
z
" style="fill: #800080; stroke: #800080; stroke-linecap: round"/>
   </g>
   <g id="patch_129">
    <path d="M 366.074032 139.074733 
Q 364.464411 139.545497 362.854789 140.016261 
Q 363.443951 138.446106 364.033113 136.87595 
z
" style="fill: #800080; stroke: #800080; stroke-linecap: round"/>
   </g>
   <g id="patch_130">
    <path d="M 368.850389 142.798767 
Q 367.228658 143.225956 365.606928 143.653144 
Q 366.238215 142.099446 366.869503 140.545749 
z
" style="fill: #800080; stroke: #800080; stroke-linecap: round"/>
   </g>
   <g id="patch_131">
    <path d="M 368.850389 142.798767 
Q 367.228658 143.225956 365.606928 143.653144 
Q 366.238215 142.099446 366.869503 140.545749 
z
" style="fill: #800080; stroke: #800080; stroke-linecap: round"/>
   </g>
   <g id="patch_132">
    <path d="M 371.406628 146.6787 
Q 369.774323 147.063514 368.142019 147.448328 
Q 368.81355 145.911596 369.485082 144.374864 
z
" style="fill: #800080; stroke: #800080; stroke-linecap: round"/>
   </g>
   <g id="patch_133">
    <path d="M 373.960653 150.559155 
Q 372.318881 150.901334 370.67711 151.243513 
Q 371.38843 149.724788 372.099749 148.206064 
z
" style="fill: #800080; stroke: #800080; stroke-linecap: round"/>
   </g>
   <g id="patch_134">
    <path d="M 373.960653 150.559155 
Q 372.318881 150.901334 370.67711 151.243513 
Q 371.38843 149.724788 372.099749 148.206064 
z
" style="fill: #800080; stroke: #800080; stroke-linecap: round"/>
   </g>
   <g id="patch_135">
    <path d="M 376.354618 154.530919 
Q 374.704776 154.831787 373.054934 155.132656 
Q 373.804144 153.632261 374.553355 152.131867 
z
" style="fill: #800080; stroke: #800080; stroke-linecap: round"/>
   </g>
   <g id="patch_136">
    <path d="M 378.746504 158.503062 
Q 377.089631 158.76243 375.432758 159.021799 
Q 376.219387 157.54068 377.006016 156.05956 
z
" style="fill: #800080; stroke: #800080; stroke-linecap: round"/>
   </g>
   <g id="patch_137">
    <path d="M 378.746504 158.503062 
Q 377.089631 158.76243 375.432758 159.021799 
Q 376.219387 157.54068 377.006016 156.05956 
z
" style="fill: #800080; stroke: #800080; stroke-linecap: round"/>
   </g>
   <g id="patch_138">
    <path d="M 381.045292 162.513462 
Q 379.382626 162.732642 377.719959 162.951822 
Q 378.542215 161.49018 379.364472 160.028539 
z
" style="fill: #800080; stroke: #800080; stroke-linecap: round"/>
   </g>
   <g id="patch_139">
    <path d="M 383.342131 166.52412 
Q 381.674645 166.702982 380.00716 166.881844 
Q 380.864562 165.440538 381.721963 163.999232 
z
" style="fill: #800080; stroke: #800080; stroke-linecap: round"/>
   </g>
   <g id="patch_140">
    <path d="M 383.342131 166.52412 
Q 381.674645 166.702982 380.00716 166.881844 
Q 380.864562 165.440538 381.721963 163.999232 
z
" style="fill: #800080; stroke: #800080; stroke-linecap: round"/>
   </g>
   <g id="patch_141">
    <path d="M 385.612525 170.535035 
Q 383.941303 170.674745 382.270082 170.814454 
Q 383.161047 169.393651 384.052012 167.972848 
z
" style="fill: #800080; stroke: #800080; stroke-linecap: round"/>
   </g>
   <g id="patch_142">
    <path d="M 387.88108 174.546103 
Q 386.207041 174.646584 384.533003 174.747065 
Q 385.457041 173.347546 386.38108 171.948027 
z
" style="fill: #800080; stroke: #800080; stroke-linecap: round"/>
   </g>
   <g id="text_13">
    <!-- Deformation scale: 10 -->
    <g transform="translate(67.09182 24.724324) scale(0.08 -0.08)">
     <defs>
      <path id="DejaVuSans-44" d="M 1259 4147 
L 1259 519 
L 2022 519 
Q 2988 519 3436 956 
Q 3884 1394 3884 2338 
Q 3884 3275 3436 3711 
Q 2988 4147 2022 4147 
L 1259 4147 
z
M 628 4666 
L 1925 4666 
Q 3281 4666 3915 4102 
Q 4550 3538 4550 2338 
Q 4550 1131 3912 565 
Q 3275 0 1925 0 
L 628 0 
L 628 4666 
z
" transform="scale(0.015625)"/>
      <path id="DejaVuSans-65" d="M 3597 1894 
L 3597 1613 
L 953 1613 
Q 991 1019 1311 708 
Q 1631 397 2203 397 
Q 2534 397 2845 478 
Q 3156 559 3463 722 
L 3463 178 
Q 3153 47 2828 -22 
Q 2503 -91 2169 -91 
Q 1331 -91 842 396 
Q 353 884 353 1716 
Q 353 2575 817 3079 
Q 1281 3584 2069 3584 
Q 2775 3584 3186 3129 
Q 3597 2675 3597 1894 
z
M 3022 2063 
Q 3016 2534 2758 2815 
Q 2500 3097 2075 3097 
Q 1594 3097 1305 2825 
Q 1016 2553 972 2059 
L 3022 2063 
z
" transform="scale(0.015625)"/>
      <path id="DejaVuSans-66" d="M 2375 4863 
L 2375 4384 
L 1825 4384 
Q 1516 4384 1395 4259 
Q 1275 4134 1275 3809 
L 1275 3500 
L 2222 3500 
L 2222 3053 
L 1275 3053 
L 1275 0 
L 697 0 
L 697 3053 
L 147 3053 
L 147 3500 
L 697 3500 
L 697 3744 
Q 697 4328 969 4595 
Q 1241 4863 1831 4863 
L 2375 4863 
z
" transform="scale(0.015625)"/>
      <path id="DejaVuSans-6f" d="M 1959 3097 
Q 1497 3097 1228 2736 
Q 959 2375 959 1747 
Q 959 1119 1226 758 
Q 1494 397 1959 397 
Q 2419 397 2687 759 
Q 2956 1122 2956 1747 
Q 2956 2369 2687 2733 
Q 2419 3097 1959 3097 
z
M 1959 3584 
Q 2709 3584 3137 3096 
Q 3566 2609 3566 1747 
Q 3566 888 3137 398 
Q 2709 -91 1959 -91 
Q 1206 -91 779 398 
Q 353 888 353 1747 
Q 353 2609 779 3096 
Q 1206 3584 1959 3584 
z
" transform="scale(0.015625)"/>
      <path id="DejaVuSans-72" d="M 2631 2963 
Q 2534 3019 2420 3045 
Q 2306 3072 2169 3072 
Q 1681 3072 1420 2755 
Q 1159 2438 1159 1844 
L 1159 0 
L 581 0 
L 581 3500 
L 1159 3500 
L 1159 2956 
Q 1341 3275 1631 3429 
Q 1922 3584 2338 3584 
Q 2397 3584 2469 3576 
Q 2541 3569 2628 3553 
L 2631 2963 
z
" transform="scale(0.015625)"/>
      <path id="DejaVuSans-61" d="M 2194 1759 
Q 1497 1759 1228 1600 
Q 959 1441 959 1056 
Q 959 750 1161 570 
Q 1363 391 1709 391 
Q 2188 391 2477 730 
Q 2766 1069 2766 1631 
L 2766 1759 
L 2194 1759 
z
M 3341 1997 
L 3341 0 
L 2766 0 
L 2766 531 
Q 2569 213 2275 61 
Q 1981 -91 1556 -91 
Q 1019 -91 701 211 
Q 384 513 384 1019 
Q 384 1609 779 1909 
Q 1175 2209 1959 2209 
L 2766 2209 
L 2766 2266 
Q 2766 2663 2505 2880 
Q 2244 3097 1772 3097 
Q 1472 3097 1187 3025 
Q 903 2953 641 2809 
L 641 3341 
Q 956 3463 1253 3523 
Q 1550 3584 1831 3584 
Q 2591 3584 2966 3190 
Q 3341 2797 3341 1997 
z
" transform="scale(0.015625)"/>
      <path id="DejaVuSans-74" d="M 1172 4494 
L 1172 3500 
L 2356 3500 
L 2356 3053 
L 1172 3053 
L 1172 1153 
Q 1172 725 1289 603 
Q 1406 481 1766 481 
L 2356 481 
L 2356 0 
L 1766 0 
Q 1100 0 847 248 
Q 594 497 594 1153 
L 594 3053 
L 172 3053 
L 172 3500 
L 594 3500 
L 594 4494 
L 1172 4494 
z
" transform="scale(0.015625)"/>
      <path id="DejaVuSans-69" d="M 603 3500 
L 1178 3500 
L 1178 0 
L 603 0 
L 603 3500 
z
M 603 4863 
L 1178 4863 
L 1178 4134 
L 603 4134 
L 603 4863 
z
" transform="scale(0.015625)"/>
      <path id="DejaVuSans-6e" d="M 3513 2113 
L 3513 0 
L 2938 0 
L 2938 2094 
Q 2938 2591 2744 2837 
Q 2550 3084 2163 3084 
Q 1697 3084 1428 2787 
Q 1159 2491 1159 1978 
L 1159 0 
L 581 0 
L 581 3500 
L 1159 3500 
L 1159 2956 
Q 1366 3272 1645 3428 
Q 1925 3584 2291 3584 
Q 2894 3584 3203 3211 
Q 3513 2838 3513 2113 
z
" transform="scale(0.015625)"/>
      <path id="DejaVuSans-73" d="M 2834 3397 
L 2834 2853 
Q 2591 2978 2328 3040 
Q 2066 3103 1784 3103 
Q 1356 3103 1142 2972 
Q 928 2841 928 2578 
Q 928 2378 1081 2264 
Q 1234 2150 1697 2047 
L 1894 2003 
Q 2506 1872 2764 1633 
Q 3022 1394 3022 966 
Q 3022 478 2636 193 
Q 2250 -91 1575 -91 
Q 1294 -91 989 -36 
Q 684 19 347 128 
L 347 722 
Q 666 556 975 473 
Q 1284 391 1588 391 
Q 1994 391 2212 530 
Q 2431 669 2431 922 
Q 2431 1156 2273 1281 
Q 2116 1406 1581 1522 
L 1381 1569 
Q 847 1681 609 1914 
Q 372 2147 372 2553 
Q 372 3047 722 3315 
Q 1072 3584 1716 3584 
Q 2034 3584 2315 3537 
Q 2597 3491 2834 3397 
z
" transform="scale(0.015625)"/>
      <path id="DejaVuSans-63" d="M 3122 3366 
L 3122 2828 
Q 2878 2963 2633 3030 
Q 2388 3097 2138 3097 
Q 1578 3097 1268 2742 
Q 959 2388 959 1747 
Q 959 1106 1268 751 
Q 1578 397 2138 397 
Q 2388 397 2633 464 
Q 2878 531 3122 666 
L 3122 134 
Q 2881 22 2623 -34 
Q 2366 -91 2075 -91 
Q 1284 -91 818 406 
Q 353 903 353 1747 
Q 353 2603 823 3093 
Q 1294 3584 2113 3584 
Q 2378 3584 2631 3529 
Q 2884 3475 3122 3366 
z
" transform="scale(0.015625)"/>
      <path id="DejaVuSans-6c" d="M 603 4863 
L 1178 4863 
L 1178 0 
L 603 0 
L 603 4863 
z
" transform="scale(0.015625)"/>
      <path id="DejaVuSans-3a" d="M 750 794 
L 1409 794 
L 1409 0 
L 750 0 
L 750 794 
z
M 750 3309 
L 1409 3309 
L 1409 2516 
L 750 2516 
L 750 3309 
z
" transform="scale(0.015625)"/>
      <path id="DejaVuSans-d7" d="M 4488 3438 
L 3059 2003 
L 4488 575 
L 4116 197 
L 2681 1631 
L 1247 197 
L 878 575 
L 2303 2003 
L 878 3438 
L 1247 3816 
L 2681 2381 
L 4116 3816 
L 4488 3438 
z
" transform="scale(0.015625)"/>
     </defs>
     <use xlink:href="#DejaVuSans-44"/>
     <use xlink:href="#DejaVuSans-65" transform="translate(77.001953 0)"/>
     <use xlink:href="#DejaVuSans-66" transform="translate(138.525391 0)"/>
     <use xlink:href="#DejaVuSans-6f" transform="translate(173.730469 0)"/>
     <use xlink:href="#DejaVuSans-72" transform="translate(234.912109 0)"/>
     <use xlink:href="#DejaVuSans-6d" transform="translate(274.275391 0)"/>
     <use xlink:href="#DejaVuSans-61" transform="translate(371.6875 0)"/>
     <use xlink:href="#DejaVuSans-74" transform="translate(432.966797 0)"/>
     <use xlink:href="#DejaVuSans-69" transform="translate(472.175781 0)"/>
     <use xlink:href="#DejaVuSans-6f" transform="translate(499.958984 0)"/>
     <use xlink:href="#DejaVuSans-6e" transform="translate(561.140625 0)"/>
     <use xlink:href="#DejaVuSans-20" transform="translate(624.519531 0)"/>
     <use xlink:href="#DejaVuSans-73" transform="translate(656.306641 0)"/>
     <use xlink:href="#DejaVuSans-63" transform="translate(708.40625 0)"/>
     <use xlink:href="#DejaVuSans-61" transform="translate(763.386719 0)"/>
     <use xlink:href="#DejaVuSans-6c" transform="translate(824.666016 0)"/>
     <use xlink:href="#DejaVuSans-65" transform="translate(852.449219 0)"/>
     <use xlink:href="#DejaVuSans-3a" transform="translate(913.972656 0)"/>
     <use xlink:href="#DejaVuSans-20" transform="translate(947.664062 0)"/>
     <use xlink:href="#DejaVuSans-31" transform="translate(979.451172 0)"/>
     <use xlink:href="#DejaVuSans-30" transform="translate(1043.074219 0)"/>
     <use xlink:href="#DejaVuSans-d7" transform="translate(1106.697266 0)"/>
    </g>
   </g>
   <g id="legend_1">
    <g id="patch_143">
     <path d="M 338.677061 99.036187 
L 423.457061 99.036187 
L 423.457061 66.751187 
L 338.677061 66.751187 
z
" style="fill: #ffffff; stroke: #000000; stroke-linejoin: miter"/>
    </g>
    <g id="line2d_221">
     <path d="M 345.077061 76.429937 
L 353.077061 76.429937 
L 361.077061 76.429937 
" style="fill: none; stroke: #000000; stroke-linejoin: miter"/>
    </g>
    <g id="text_14">
     <!-- Undeformed -->
     <g transform="translate(367.477061 79.229937) scale(0.08 -0.08)">
      <defs>
       <path id="DejaVuSans-55" d="M 556 4666 
L 1191 4666 
L 1191 1831 
Q 1191 1081 1462 751 
Q 1734 422 2344 422 
Q 2950 422 3222 751 
Q 3494 1081 3494 1831 
L 3494 4666 
L 4128 4666 
L 4128 1753 
Q 4128 841 3676 375 
Q 3225 -91 2344 -91 
Q 1459 -91 1007 375 
Q 556 841 556 1753 
L 556 4666 
z
" transform="scale(0.015625)"/>
       <path id="DejaVuSans-64" d="M 2906 2969 
L 2906 4863 
L 3481 4863 
L 3481 0 
L 2906 0 
L 2906 525 
Q 2725 213 2448 61 
Q 2172 -91 1784 -91 
Q 1150 -91 751 415 
Q 353 922 353 1747 
Q 353 2572 751 3078 
Q 1150 3584 1784 3584 
Q 2172 3584 2448 3432 
Q 2725 3281 2906 2969 
z
M 947 1747 
Q 947 1113 1208 752 
Q 1469 391 1925 391 
Q 2381 391 2643 752 
Q 2906 1113 2906 1747 
Q 2906 2381 2643 2742 
Q 2381 3103 1925 3103 
Q 1469 3103 1208 2742 
Q 947 2381 947 1747 
z
" transform="scale(0.015625)"/>
      </defs>
      <use xlink:href="#DejaVuSans-55"/>
      <use xlink:href="#DejaVuSans-6e" transform="translate(73.193359 0)"/>
      <use xlink:href="#DejaVuSans-64" transform="translate(136.572266 0)"/>
      <use xlink:href="#DejaVuSans-65" transform="translate(200.048828 0)"/>
      <use xlink:href="#DejaVuSans-66" transform="translate(261.572266 0)"/>
      <use xlink:href="#DejaVuSans-6f" transform="translate(296.777344 0)"/>
      <use xlink:href="#DejaVuSans-72" transform="translate(357.958984 0)"/>
      <use xlink:href="#DejaVuSans-6d" transform="translate(397.322266 0)"/>
      <use xlink:href="#DejaVuSans-65" transform="translate(494.734375 0)"/>
      <use xlink:href="#DejaVuSans-64" transform="translate(556.257812 0)"/>
     </g>
    </g>
    <g id="line2d_222">
     <path d="M 345.077061 88.172437 
L 353.077061 88.172437 
L 361.077061 88.172437 
" style="fill: none; stroke: #0000ff; stroke-linejoin: miter"/>
    </g>
    <g id="text_15">
     <!-- Deformed -->
     <g transform="translate(367.477061 90.972437) scale(0.08 -0.08)">
      <use xlink:href="#DejaVuSans-44"/>
      <use xlink:href="#DejaVuSans-65" transform="translate(77.001953 0)"/>
      <use xlink:href="#DejaVuSans-66" transform="translate(138.525391 0)"/>
      <use xlink:href="#DejaVuSans-6f" transform="translate(173.730469 0)"/>
      <use xlink:href="#DejaVuSans-72" transform="translate(234.912109 0)"/>
      <use xlink:href="#DejaVuSans-6d" transform="translate(274.275391 0)"/>
      <use xlink:href="#DejaVuSans-65" transform="translate(371.6875 0)"/>
      <use xlink:href="#DejaVuSans-64" transform="translate(433.210938 0)"/>
     </g>
    </g>
   </g>
  </g>
 </g>
 <defs>
  <clipPath id="p75a492737f">
   <rect x="37.189356" y="62.751187" width="390.267705" height="133.109625"/>
  </clipPath>
 </defs>
</svg>
