<?xml version="1.0" encoding="utf-8"?>
<svg xmlns="http://www.w3.org/2000/svg" xmlns:xlink="http://www.w3.org/1999/xlink" width="600" height="400" viewBox="0 0 2400 1600">
<defs>
  <clipPath id="clip510">
    <rect x="0" y="0" width="2400" height="1600"/>
  </clipPath>
</defs>
<path clip-path="url(#clip510)" d="M0 1600 L2400 1600 L2400 0 L0 0  Z" fill="#ffffff" fill-rule="evenodd" fill-opacity="1"/>
<defs>
  <clipPath id="clip511">
    <rect x="480" y="0" width="1681" height="1600"/>
  </clipPath>
</defs>
<path clip-path="url(#clip510)" d="M242.135 1423.18 L2352.76 1423.18 L2352.76 47.2441 L242.135 47.2441  Z" fill="#ffffff" fill-rule="evenodd" fill-opacity="1"/>
<defs>
  <clipPath id="clip512">
    <rect x="242" y="47" width="2112" height="1377"/>
  </clipPath>
</defs>
<polyline clip-path="url(#clip512)" style="stroke:#000000; stroke-linecap:round; stroke-linejoin:round; stroke-width:2; stroke-opacity:0.1; fill:none" points="566.846,1423.18 566.846,47.2441 "/>
<polyline clip-path="url(#clip512)" style="stroke:#000000; stroke-linecap:round; stroke-linejoin:round; stroke-width:2; stroke-opacity:0.1; fill:none" points="972.734,1423.18 972.734,47.2441 "/>
<polyline clip-path="url(#clip512)" style="stroke:#000000; stroke-linecap:round; stroke-linejoin:round; stroke-width:2; stroke-opacity:0.1; fill:none" points="1378.62,1423.18 1378.62,47.2441 "/>
<polyline clip-path="url(#clip512)" style="stroke:#000000; stroke-linecap:round; stroke-linejoin:round; stroke-width:2; stroke-opacity:0.1; fill:none" points="1784.51,1423.18 1784.51,47.2441 "/>
<polyline clip-path="url(#clip512)" style="stroke:#000000; stroke-linecap:round; stroke-linejoin:round; stroke-width:2; stroke-opacity:0.1; fill:none" points="2190.4,1423.18 2190.4,47.2441 "/>
<polyline clip-path="url(#clip512)" style="stroke:#000000; stroke-linecap:round; stroke-linejoin:round; stroke-width:2; stroke-opacity:0.1; fill:none" points="242.135,1224.4 2352.76,1224.4 "/>
<polyline clip-path="url(#clip512)" style="stroke:#000000; stroke-linecap:round; stroke-linejoin:round; stroke-width:2; stroke-opacity:0.1; fill:none" points="242.135,1012.02 2352.76,1012.02 "/>
<polyline clip-path="url(#clip512)" style="stroke:#000000; stroke-linecap:round; stroke-linejoin:round; stroke-width:2; stroke-opacity:0.1; fill:none" points="242.135,799.648 2352.76,799.648 "/>
<polyline clip-path="url(#clip512)" style="stroke:#000000; stroke-linecap:round; stroke-linejoin:round; stroke-width:2; stroke-opacity:0.1; fill:none" points="242.135,587.272 2352.76,587.272 "/>
<polyline clip-path="url(#clip512)" style="stroke:#000000; stroke-linecap:round; stroke-linejoin:round; stroke-width:2; stroke-opacity:0.1; fill:none" points="242.135,374.897 2352.76,374.897 "/>
<polyline clip-path="url(#clip512)" style="stroke:#000000; stroke-linecap:round; stroke-linejoin:round; stroke-width:2; stroke-opacity:0.1; fill:none" points="242.135,162.522 2352.76,162.522 "/>
<polyline clip-path="url(#clip510)" style="stroke:#000000; stroke-linecap:round; stroke-linejoin:round; stroke-width:4; stroke-opacity:1; fill:none" points="242.135,1423.18 2352.76,1423.18 "/>
<polyline clip-path="url(#clip510)" style="stroke:#000000; stroke-linecap:round; stroke-linejoin:round; stroke-width:4; stroke-opacity:1; fill:none" points="566.846,1423.18 566.846,1404.28 "/>
<polyline clip-path="url(#clip510)" style="stroke:#000000; stroke-linecap:round; stroke-linejoin:round; stroke-width:4; stroke-opacity:1; fill:none" points="972.734,1423.18 972.734,1404.28 "/>
<polyline clip-path="url(#clip510)" style="stroke:#000000; stroke-linecap:round; stroke-linejoin:round; stroke-width:4; stroke-opacity:1; fill:none" points="1378.62,1423.18 1378.62,1404.28 "/>
<polyline clip-path="url(#clip510)" style="stroke:#000000; stroke-linecap:round; stroke-linejoin:round; stroke-width:4; stroke-opacity:1; fill:none" points="1784.51,1423.18 1784.51,1404.28 "/>
<polyline clip-path="url(#clip510)" style="stroke:#000000; stroke-linecap:round; stroke-linejoin:round; stroke-width:4; stroke-opacity:1; fill:none" points="2190.4,1423.18 2190.4,1404.28 "/>
<path clip-path="url(#clip510)" d="M541.545 1451.02 L559.901 1451.02 L559.901 1454.96 L545.827 1454.96 L545.827 1463.43 Q546.846 1463.08 547.864 1462.92 Q548.883 1462.73 549.901 1462.73 Q555.688 1462.73 559.068 1465.9 Q562.448 1469.08 562.448 1474.49 Q562.448 1480.07 558.975 1483.17 Q555.503 1486.25 549.184 1486.25 Q547.008 1486.25 544.739 1485.88 Q542.494 1485.51 540.087 1484.77 L540.087 1480.07 Q542.17 1481.2 544.392 1481.76 Q546.614 1482.32 549.091 1482.32 Q553.096 1482.32 555.434 1480.21 Q557.772 1478.1 557.772 1474.49 Q557.772 1470.88 555.434 1468.77 Q553.096 1466.67 549.091 1466.67 Q547.216 1466.67 545.341 1467.08 Q543.489 1467.5 541.545 1468.38 L541.545 1451.02 Z" fill="#000000" fill-rule="nonzero" fill-opacity="1" /><path clip-path="url(#clip510)" d="M581.66 1454.1 Q578.049 1454.1 576.221 1457.66 Q574.415 1461.2 574.415 1468.33 Q574.415 1475.44 576.221 1479.01 Q578.049 1482.55 581.66 1482.55 Q585.295 1482.55 587.1 1479.01 Q588.929 1475.44 588.929 1468.33 Q588.929 1461.2 587.1 1457.66 Q585.295 1454.1 581.66 1454.1 M581.66 1450.39 Q587.471 1450.39 590.526 1455 Q593.605 1459.58 593.605 1468.33 Q593.605 1477.06 590.526 1481.67 Q587.471 1486.25 581.66 1486.25 Q575.85 1486.25 572.772 1481.67 Q569.716 1477.06 569.716 1468.33 Q569.716 1459.58 572.772 1455 Q575.85 1450.39 581.66 1450.39 Z" fill="#000000" fill-rule="nonzero" fill-opacity="1" /><path clip-path="url(#clip510)" d="M946.589 1451.02 L968.811 1451.02 L968.811 1453.01 L956.265 1485.58 L951.38 1485.58 L963.186 1454.96 L946.589 1454.96 L946.589 1451.02 Z" fill="#000000" fill-rule="nonzero" fill-opacity="1" /><path clip-path="url(#clip510)" d="M977.977 1451.02 L996.334 1451.02 L996.334 1454.96 L982.26 1454.96 L982.26 1463.43 Q983.278 1463.08 984.297 1462.92 Q985.315 1462.73 986.334 1462.73 Q992.121 1462.73 995.5 1465.9 Q998.88 1469.08 998.88 1474.49 Q998.88 1480.07 995.408 1483.17 Q991.936 1486.25 985.616 1486.25 Q983.44 1486.25 981.172 1485.88 Q978.926 1485.51 976.519 1484.77 L976.519 1480.07 Q978.602 1481.2 980.825 1481.76 Q983.047 1482.32 985.524 1482.32 Q989.528 1482.32 991.866 1480.21 Q994.204 1478.1 994.204 1474.49 Q994.204 1470.88 991.866 1468.77 Q989.528 1466.67 985.524 1466.67 Q983.649 1466.67 981.774 1467.08 Q979.922 1467.5 977.977 1468.38 L977.977 1451.02 Z" fill="#000000" fill-rule="nonzero" fill-opacity="1" /><path clip-path="url(#clip510)" d="M1338.23 1481.64 L1345.87 1481.64 L1345.87 1455.28 L1337.56 1456.95 L1337.56 1452.69 L1345.82 1451.02 L1350.5 1451.02 L1350.5 1481.64 L1358.14 1481.64 L1358.14 1485.58 L1338.23 1485.58 L1338.23 1481.64 Z" fill="#000000" fill-rule="nonzero" fill-opacity="1" /><path clip-path="url(#clip510)" d="M1377.58 1454.1 Q1373.97 1454.1 1372.14 1457.66 Q1370.34 1461.2 1370.34 1468.33 Q1370.34 1475.44 1372.14 1479.01 Q1373.97 1482.55 1377.58 1482.55 Q1381.22 1482.55 1383.02 1479.01 Q1384.85 1475.44 1384.85 1468.33 Q1384.85 1461.2 1383.02 1457.66 Q1381.22 1454.1 1377.58 1454.1 M1377.58 1450.39 Q1383.39 1450.39 1386.45 1455 Q1389.53 1459.58 1389.53 1468.33 Q1389.53 1477.06 1386.45 1481.67 Q1383.39 1486.25 1377.58 1486.25 Q1371.77 1486.25 1368.69 1481.67 Q1365.64 1477.06 1365.64 1468.33 Q1365.64 1459.58 1368.69 1455 Q1371.77 1450.39 1377.58 1450.39 Z" fill="#000000" fill-rule="nonzero" fill-opacity="1" /><path clip-path="url(#clip510)" d="M1407.74 1454.1 Q1404.13 1454.1 1402.3 1457.66 Q1400.5 1461.2 1400.5 1468.33 Q1400.5 1475.44 1402.3 1479.01 Q1404.13 1482.55 1407.74 1482.55 Q1411.38 1482.55 1413.18 1479.01 Q1415.01 1475.44 1415.01 1468.33 Q1415.01 1461.2 1413.18 1457.66 Q1411.38 1454.1 1407.74 1454.1 M1407.74 1450.39 Q1413.55 1450.39 1416.61 1455 Q1419.69 1459.58 1419.69 1468.33 Q1419.69 1477.06 1416.61 1481.67 Q1413.55 1486.25 1407.74 1486.25 Q1401.93 1486.25 1398.85 1481.67 Q1395.8 1477.06 1395.8 1468.33 Q1395.8 1459.58 1398.85 1455 Q1401.93 1450.39 1407.74 1450.39 Z" fill="#000000" fill-rule="nonzero" fill-opacity="1" /><path clip-path="url(#clip510)" d="M1744.62 1481.64 L1752.25 1481.64 L1752.25 1455.28 L1743.94 1456.95 L1743.94 1452.69 L1752.21 1451.02 L1756.88 1451.02 L1756.88 1481.64 L1764.52 1481.64 L1764.52 1485.58 L1744.62 1485.58 L1744.62 1481.64 Z" fill="#000000" fill-rule="nonzero" fill-opacity="1" /><path clip-path="url(#clip510)" d="M1778 1481.64 L1794.31 1481.64 L1794.31 1485.58 L1772.37 1485.58 L1772.37 1481.64 Q1775.03 1478.89 1779.62 1474.26 Q1784.22 1469.61 1785.4 1468.27 Q1787.65 1465.74 1788.53 1464.01 Q1789.43 1462.25 1789.43 1460.56 Q1789.43 1457.8 1787.49 1456.07 Q1785.56 1454.33 1782.46 1454.33 Q1780.26 1454.33 1777.81 1455.09 Q1775.38 1455.86 1772.6 1457.41 L1772.6 1452.69 Q1775.43 1451.55 1777.88 1450.97 Q1780.33 1450.39 1782.37 1450.39 Q1787.74 1450.39 1790.94 1453.08 Q1794.13 1455.77 1794.13 1460.26 Q1794.13 1462.39 1793.32 1464.31 Q1792.53 1466.2 1790.43 1468.8 Q1789.85 1469.47 1786.75 1472.69 Q1783.64 1475.88 1778 1481.64 Z" fill="#000000" fill-rule="nonzero" fill-opacity="1" /><path clip-path="url(#clip510)" d="M1804.18 1451.02 L1822.53 1451.02 L1822.53 1454.96 L1808.46 1454.96 L1808.46 1463.43 Q1809.48 1463.08 1810.5 1462.92 Q1811.51 1462.73 1812.53 1462.73 Q1818.32 1462.73 1821.7 1465.9 Q1825.08 1469.08 1825.08 1474.49 Q1825.08 1480.07 1821.61 1483.17 Q1818.13 1486.25 1811.81 1486.25 Q1809.64 1486.25 1807.37 1485.88 Q1805.13 1485.51 1802.72 1484.77 L1802.72 1480.07 Q1804.8 1481.2 1807.02 1481.76 Q1809.25 1482.32 1811.72 1482.32 Q1815.73 1482.32 1818.06 1480.21 Q1820.4 1478.1 1820.4 1474.49 Q1820.4 1470.88 1818.06 1468.77 Q1815.73 1466.67 1811.72 1466.67 Q1809.85 1466.67 1807.97 1467.08 Q1806.12 1467.5 1804.18 1468.38 L1804.18 1451.02 Z" fill="#000000" fill-rule="nonzero" fill-opacity="1" /><path clip-path="url(#clip510)" d="M2150.01 1481.64 L2157.65 1481.64 L2157.65 1455.28 L2149.34 1456.95 L2149.34 1452.69 L2157.6 1451.02 L2162.28 1451.02 L2162.28 1481.64 L2169.91 1481.64 L2169.91 1485.58 L2150.01 1485.58 L2150.01 1481.64 Z" fill="#000000" fill-rule="nonzero" fill-opacity="1" /><path clip-path="url(#clip510)" d="M2179.41 1451.02 L2197.76 1451.02 L2197.76 1454.96 L2183.69 1454.96 L2183.69 1463.43 Q2184.71 1463.08 2185.72 1462.92 Q2186.74 1462.73 2187.76 1462.73 Q2193.55 1462.73 2196.93 1465.9 Q2200.31 1469.08 2200.31 1474.49 Q2200.31 1480.07 2196.84 1483.17 Q2193.36 1486.25 2187.04 1486.25 Q2184.87 1486.25 2182.6 1485.88 Q2180.35 1485.51 2177.95 1484.77 L2177.95 1480.07 Q2180.03 1481.2 2182.25 1481.76 Q2184.47 1482.32 2186.95 1482.32 Q2190.96 1482.32 2193.29 1480.21 Q2195.63 1478.1 2195.63 1474.49 Q2195.63 1470.88 2193.29 1468.77 Q2190.96 1466.67 2186.95 1466.67 Q2185.08 1466.67 2183.2 1467.08 Q2181.35 1467.5 2179.41 1468.38 L2179.41 1451.02 Z" fill="#000000" fill-rule="nonzero" fill-opacity="1" /><path clip-path="url(#clip510)" d="M2219.52 1454.1 Q2215.91 1454.1 2214.08 1457.66 Q2212.28 1461.2 2212.28 1468.33 Q2212.28 1475.44 2214.08 1479.01 Q2215.91 1482.55 2219.52 1482.55 Q2223.15 1482.55 2224.96 1479.01 Q2226.79 1475.44 2226.79 1468.33 Q2226.79 1461.2 2224.96 1457.66 Q2223.15 1454.1 2219.52 1454.1 M2219.52 1450.39 Q2225.33 1450.39 2228.39 1455 Q2231.47 1459.58 2231.47 1468.33 Q2231.47 1477.06 2228.39 1481.67 Q2225.33 1486.25 2219.52 1486.25 Q2213.71 1486.25 2210.63 1481.67 Q2207.58 1477.06 2207.58 1468.33 Q2207.58 1459.58 2210.63 1455 Q2213.71 1450.39 2219.52 1450.39 Z" fill="#000000" fill-rule="nonzero" fill-opacity="1" /><path clip-path="url(#clip510)" d="M1083.56 1526.86 L1074.84 1550.51 L1092.31 1550.51 L1083.56 1526.86 M1079.93 1520.52 L1087.22 1520.52 L1105.33 1568.04 L1098.64 1568.04 L1094.32 1555.85 L1072.89 1555.85 L1068.57 1568.04 L1061.79 1568.04 L1079.93 1520.52 Z" fill="#000000" fill-rule="nonzero" fill-opacity="1" /><path clip-path="url(#clip510)" d="M1112.01 1532.4 L1117.87 1532.4 L1117.87 1568.04 L1112.01 1568.04 L1112.01 1532.4 M1112.01 1518.52 L1117.87 1518.52 L1117.87 1525.93 L1112.01 1525.93 L1112.01 1518.52 Z" fill="#000000" fill-rule="nonzero" fill-opacity="1" /><path clip-path="url(#clip510)" d="M1150.78 1537.87 Q1149.79 1537.3 1148.62 1537.04 Q1147.47 1536.76 1146.07 1536.76 Q1141.1 1536.76 1138.43 1540 Q1135.79 1543.22 1135.79 1549.27 L1135.79 1568.04 L1129.9 1568.04 L1129.9 1532.4 L1135.79 1532.4 L1135.79 1537.93 Q1137.63 1534.69 1140.59 1533.13 Q1143.55 1531.54 1147.79 1531.54 Q1148.39 1531.54 1149.12 1531.63 Q1149.86 1531.7 1150.75 1531.85 L1150.78 1537.87 Z" fill="#000000" fill-rule="nonzero" fill-opacity="1" /><path clip-path="url(#clip510)" d="M1179.65 1533.45 L1179.65 1538.98 Q1177.17 1537.71 1174.49 1537.07 Q1171.82 1536.44 1168.95 1536.44 Q1164.59 1536.44 1162.4 1537.77 Q1160.23 1539.11 1160.23 1541.79 Q1160.23 1543.82 1161.79 1545 Q1163.35 1546.15 1168.06 1547.2 L1170.07 1547.64 Q1176.31 1548.98 1178.92 1551.43 Q1181.56 1553.85 1181.56 1558.21 Q1181.56 1563.17 1177.61 1566.07 Q1173.7 1568.97 1166.82 1568.97 Q1163.96 1568.97 1160.84 1568.39 Q1157.75 1567.85 1154.31 1566.74 L1154.31 1560.69 Q1157.56 1562.38 1160.71 1563.24 Q1163.86 1564.07 1166.95 1564.07 Q1171.09 1564.07 1173.31 1562.66 Q1175.54 1561.23 1175.54 1558.65 Q1175.54 1556.27 1173.92 1554.99 Q1172.33 1553.72 1166.88 1552.54 L1164.85 1552.07 Q1159.4 1550.92 1156.99 1548.56 Q1154.57 1546.18 1154.57 1542.04 Q1154.57 1537.01 1158.13 1534.27 Q1161.7 1531.54 1168.25 1531.54 Q1171.5 1531.54 1174.36 1532.01 Q1177.23 1532.49 1179.65 1533.45 Z" fill="#000000" fill-rule="nonzero" fill-opacity="1" /><path clip-path="url(#clip510)" d="M1196.55 1562.7 L1196.55 1581.6 L1190.66 1581.6 L1190.66 1532.4 L1196.55 1532.4 L1196.55 1537.81 Q1198.39 1534.62 1201.2 1533.1 Q1204.03 1531.54 1207.94 1531.54 Q1214.44 1531.54 1218.48 1536.69 Q1222.55 1541.85 1222.55 1550.25 Q1222.55 1558.65 1218.48 1563.81 Q1214.44 1568.97 1207.94 1568.97 Q1204.03 1568.97 1201.2 1567.44 Q1198.39 1565.88 1196.55 1562.7 M1216.47 1550.25 Q1216.47 1543.79 1213.8 1540.13 Q1211.16 1536.44 1206.51 1536.44 Q1201.86 1536.44 1199.19 1540.13 Q1196.55 1543.79 1196.55 1550.25 Q1196.55 1556.71 1199.19 1560.4 Q1201.86 1564.07 1206.51 1564.07 Q1211.16 1564.07 1213.8 1560.4 Q1216.47 1556.71 1216.47 1550.25 Z" fill="#000000" fill-rule="nonzero" fill-opacity="1" /><path clip-path="url(#clip510)" d="M1262.75 1548.76 L1262.75 1551.62 L1235.83 1551.62 Q1236.21 1557.67 1239.45 1560.85 Q1242.73 1564 1248.56 1564 Q1251.93 1564 1255.08 1563.17 Q1258.26 1562.35 1261.38 1560.69 L1261.38 1566.23 Q1258.23 1567.57 1254.92 1568.27 Q1251.61 1568.97 1248.21 1568.97 Q1239.68 1568.97 1234.68 1564 Q1229.71 1559.04 1229.71 1550.57 Q1229.71 1541.82 1234.42 1536.69 Q1239.17 1531.54 1247.19 1531.54 Q1254.38 1531.54 1258.55 1536.18 Q1262.75 1540.8 1262.75 1548.76 M1256.9 1547.04 Q1256.83 1542.23 1254.19 1539.37 Q1251.58 1536.5 1247.25 1536.5 Q1242.35 1536.5 1239.39 1539.27 Q1236.46 1542.04 1236.02 1547.07 L1256.9 1547.04 Z" fill="#000000" fill-rule="nonzero" fill-opacity="1" /><path clip-path="url(#clip510)" d="M1302.86 1548.76 L1302.86 1551.62 L1275.93 1551.62 Q1276.31 1557.67 1279.56 1560.85 Q1282.84 1564 1288.66 1564 Q1292.03 1564 1295.19 1563.17 Q1298.37 1562.35 1301.49 1560.69 L1301.49 1566.23 Q1298.34 1567.57 1295.03 1568.27 Q1291.72 1568.97 1288.31 1568.97 Q1279.78 1568.97 1274.78 1564 Q1269.82 1559.04 1269.82 1550.57 Q1269.82 1541.82 1274.53 1536.69 Q1279.27 1531.54 1287.29 1531.54 Q1294.49 1531.54 1298.65 1536.18 Q1302.86 1540.8 1302.86 1548.76 M1297 1547.04 Q1296.94 1542.23 1294.29 1539.37 Q1291.68 1536.5 1287.36 1536.5 Q1282.45 1536.5 1279.49 1539.27 Q1276.57 1542.04 1276.12 1547.07 L1297 1547.04 Z" fill="#000000" fill-rule="nonzero" fill-opacity="1" /><path clip-path="url(#clip510)" d="M1335.93 1537.81 L1335.93 1518.52 L1341.78 1518.52 L1341.78 1568.04 L1335.93 1568.04 L1335.93 1562.7 Q1334.08 1565.88 1331.25 1567.44 Q1328.45 1568.97 1324.5 1568.97 Q1318.04 1568.97 1313.96 1563.81 Q1309.92 1558.65 1309.92 1550.25 Q1309.92 1541.85 1313.96 1536.69 Q1318.04 1531.54 1324.5 1531.54 Q1328.45 1531.54 1331.25 1533.1 Q1334.08 1534.62 1335.93 1537.81 M1315.97 1550.25 Q1315.97 1556.71 1318.61 1560.4 Q1321.28 1564.07 1325.93 1564.07 Q1330.58 1564.07 1333.25 1560.4 Q1335.93 1556.71 1335.93 1550.25 Q1335.93 1543.79 1333.25 1540.13 Q1330.58 1536.44 1325.93 1536.44 Q1321.28 1536.44 1318.61 1540.13 Q1315.97 1543.79 1315.97 1550.25 Z" fill="#000000" fill-rule="nonzero" fill-opacity="1" /><path clip-path="url(#clip510)" d="M1374.02 1518.52 L1387.52 1518.52 L1387.52 1523.07 L1379.88 1523.07 L1379.88 1572.09 L1387.52 1572.09 L1387.52 1576.64 L1374.02 1576.64 L1374.02 1518.52 Z" fill="#000000" fill-rule="nonzero" fill-opacity="1" /><path clip-path="url(#clip510)" d="M1427.75 1539.24 Q1429.95 1535.29 1433 1533.41 Q1436.06 1531.54 1440.2 1531.54 Q1445.77 1531.54 1448.79 1535.45 Q1451.81 1539.33 1451.81 1546.53 L1451.81 1568.04 L1445.93 1568.04 L1445.93 1546.72 Q1445.93 1541.59 1444.11 1539.11 Q1442.3 1536.63 1438.57 1536.63 Q1434.02 1536.63 1431.38 1539.65 Q1428.74 1542.68 1428.74 1547.9 L1428.74 1568.04 L1422.85 1568.04 L1422.85 1546.72 Q1422.85 1541.56 1421.04 1539.11 Q1419.22 1536.63 1415.43 1536.63 Q1410.95 1536.63 1408.3 1539.68 Q1405.66 1542.71 1405.66 1547.9 L1405.66 1568.04 L1399.77 1568.04 L1399.77 1532.4 L1405.66 1532.4 L1405.66 1537.93 Q1407.67 1534.66 1410.47 1533.1 Q1413.27 1531.54 1417.12 1531.54 Q1421 1531.54 1423.71 1533.51 Q1426.45 1535.48 1427.75 1539.24 Z" fill="#000000" fill-rule="nonzero" fill-opacity="1" /><path clip-path="url(#clip510)" d="M1473.9 1520.52 L1479.31 1520.52 L1462.76 1574.09 L1457.35 1574.09 L1473.9 1520.52 Z" fill="#000000" fill-rule="nonzero" fill-opacity="1" /><path clip-path="url(#clip510)" d="M1508.18 1533.45 L1508.18 1538.98 Q1505.7 1537.71 1503.03 1537.07 Q1500.35 1536.44 1497.49 1536.44 Q1493.13 1536.44 1490.93 1537.77 Q1488.77 1539.11 1488.77 1541.79 Q1488.77 1543.82 1490.33 1545 Q1491.89 1546.15 1496.6 1547.2 L1498.6 1547.64 Q1504.84 1548.98 1507.45 1551.43 Q1510.09 1553.85 1510.09 1558.21 Q1510.09 1563.17 1506.14 1566.07 Q1502.23 1568.97 1495.36 1568.97 Q1492.49 1568.97 1489.37 1568.39 Q1486.28 1567.85 1482.85 1566.74 L1482.85 1560.69 Q1486.09 1562.38 1489.24 1563.24 Q1492.4 1564.07 1495.48 1564.07 Q1499.62 1564.07 1501.85 1562.66 Q1504.08 1561.23 1504.08 1558.65 Q1504.08 1556.27 1502.45 1554.99 Q1500.86 1553.72 1495.42 1552.54 L1493.38 1552.07 Q1487.94 1550.92 1485.52 1548.56 Q1483.1 1546.18 1483.1 1542.04 Q1483.1 1537.01 1486.67 1534.27 Q1490.23 1531.54 1496.79 1531.54 Q1500.03 1531.54 1502.9 1532.01 Q1505.76 1532.49 1508.18 1533.45 Z" fill="#000000" fill-rule="nonzero" fill-opacity="1" /><path clip-path="url(#clip510)" d="M1533.1 1518.52 L1533.1 1576.64 L1519.61 1576.64 L1519.61 1572.09 L1527.22 1572.09 L1527.22 1523.07 L1519.61 1523.07 L1519.61 1518.52 L1533.1 1518.52 Z" fill="#000000" fill-rule="nonzero" fill-opacity="1" /><polyline clip-path="url(#clip510)" style="stroke:#000000; stroke-linecap:round; stroke-linejoin:round; stroke-width:4; stroke-opacity:1; fill:none" points="242.135,1423.18 242.135,47.2441 "/>
<polyline clip-path="url(#clip510)" style="stroke:#000000; stroke-linecap:round; stroke-linejoin:round; stroke-width:4; stroke-opacity:1; fill:none" points="242.135,1224.4 261.032,1224.4 "/>
<polyline clip-path="url(#clip510)" style="stroke:#000000; stroke-linecap:round; stroke-linejoin:round; stroke-width:4; stroke-opacity:1; fill:none" points="242.135,1012.02 261.032,1012.02 "/>
<polyline clip-path="url(#clip510)" style="stroke:#000000; stroke-linecap:round; stroke-linejoin:round; stroke-width:4; stroke-opacity:1; fill:none" points="242.135,799.648 261.032,799.648 "/>
<polyline clip-path="url(#clip510)" style="stroke:#000000; stroke-linecap:round; stroke-linejoin:round; stroke-width:4; stroke-opacity:1; fill:none" points="242.135,587.272 261.032,587.272 "/>
<polyline clip-path="url(#clip510)" style="stroke:#000000; stroke-linecap:round; stroke-linejoin:round; stroke-width:4; stroke-opacity:1; fill:none" points="242.135,374.897 261.032,374.897 "/>
<polyline clip-path="url(#clip510)" style="stroke:#000000; stroke-linecap:round; stroke-linejoin:round; stroke-width:4; stroke-opacity:1; fill:none" points="242.135,162.522 261.032,162.522 "/>
<path clip-path="url(#clip510)" d="M114.26 1224.85 L143.936 1224.85 L143.936 1228.78 L114.26 1228.78 L114.26 1224.85 Z" fill="#000000" fill-rule="nonzero" fill-opacity="1" /><path clip-path="url(#clip510)" d="M158.056 1237.74 L174.376 1237.74 L174.376 1241.68 L152.431 1241.68 L152.431 1237.74 Q155.093 1234.99 159.677 1230.36 Q164.283 1225.71 165.464 1224.36 Q167.709 1221.84 168.589 1220.1 Q169.491 1218.34 169.491 1216.66 Q169.491 1213.9 167.547 1212.16 Q165.626 1210.43 162.524 1210.43 Q160.325 1210.43 157.871 1211.19 Q155.44 1211.96 152.663 1213.51 L152.663 1208.78 Q155.487 1207.65 157.94 1207.07 Q160.394 1206.49 162.431 1206.49 Q167.802 1206.49 170.996 1209.18 Q174.19 1211.86 174.19 1216.35 Q174.19 1218.48 173.38 1220.41 Q172.593 1222.3 170.487 1224.9 Q169.908 1225.57 166.806 1228.78 Q163.704 1231.98 158.056 1237.74 Z" fill="#000000" fill-rule="nonzero" fill-opacity="1" /><path clip-path="url(#clip510)" d="M194.19 1210.2 Q190.579 1210.2 188.75 1213.76 Q186.945 1217.3 186.945 1224.43 Q186.945 1231.54 188.75 1235.1 Q190.579 1238.65 194.19 1238.65 Q197.825 1238.65 199.63 1235.1 Q201.459 1231.54 201.459 1224.43 Q201.459 1217.3 199.63 1213.76 Q197.825 1210.2 194.19 1210.2 M194.19 1206.49 Q200 1206.49 203.056 1211.1 Q206.135 1215.68 206.135 1224.43 Q206.135 1233.16 203.056 1237.77 Q200 1242.35 194.19 1242.35 Q188.38 1242.35 185.301 1237.77 Q182.246 1233.16 182.246 1224.43 Q182.246 1215.68 185.301 1211.1 Q188.38 1206.49 194.19 1206.49 Z" fill="#000000" fill-rule="nonzero" fill-opacity="1" /><path clip-path="url(#clip510)" d="M115.256 1012.47 L144.931 1012.47 L144.931 1016.41 L115.256 1016.41 L115.256 1012.47 Z" fill="#000000" fill-rule="nonzero" fill-opacity="1" /><path clip-path="url(#clip510)" d="M155.834 1025.37 L163.473 1025.37 L163.473 999.002 L155.163 1000.67 L155.163 996.409 L163.427 994.743 L168.102 994.743 L168.102 1025.37 L175.741 1025.37 L175.741 1029.3 L155.834 1029.3 L155.834 1025.37 Z" fill="#000000" fill-rule="nonzero" fill-opacity="1" /><path clip-path="url(#clip510)" d="M185.232 994.743 L203.588 994.743 L203.588 998.678 L189.514 998.678 L189.514 1007.15 Q190.533 1006.8 191.551 1006.64 Q192.57 1006.46 193.588 1006.46 Q199.375 1006.46 202.755 1009.63 Q206.135 1012.8 206.135 1018.21 Q206.135 1023.79 202.662 1026.9 Q199.19 1029.97 192.871 1029.97 Q190.695 1029.97 188.426 1029.6 Q186.181 1029.23 183.774 1028.49 L183.774 1023.79 Q185.857 1024.93 188.079 1025.48 Q190.301 1026.04 192.778 1026.04 Q196.783 1026.04 199.121 1023.93 Q201.459 1021.83 201.459 1018.21 Q201.459 1014.6 199.121 1012.5 Q196.783 1010.39 192.778 1010.39 Q190.903 1010.39 189.028 1010.81 Q187.176 1011.22 185.232 1012.1 L185.232 994.743 Z" fill="#000000" fill-rule="nonzero" fill-opacity="1" /><path clip-path="url(#clip510)" d="M114.26 800.099 L143.936 800.099 L143.936 804.034 L114.26 804.034 L114.26 800.099 Z" fill="#000000" fill-rule="nonzero" fill-opacity="1" /><path clip-path="url(#clip510)" d="M154.839 812.992 L162.477 812.992 L162.477 786.627 L154.167 788.293 L154.167 784.034 L162.431 782.368 L167.107 782.368 L167.107 812.992 L174.746 812.992 L174.746 816.928 L154.839 816.928 L154.839 812.992 Z" fill="#000000" fill-rule="nonzero" fill-opacity="1" /><path clip-path="url(#clip510)" d="M194.19 785.446 Q190.579 785.446 188.75 789.011 Q186.945 792.553 186.945 799.682 Q186.945 806.789 188.75 810.354 Q190.579 813.895 194.19 813.895 Q197.825 813.895 199.63 810.354 Q201.459 806.789 201.459 799.682 Q201.459 792.553 199.63 789.011 Q197.825 785.446 194.19 785.446 M194.19 781.743 Q200 781.743 203.056 786.349 Q206.135 790.932 206.135 799.682 Q206.135 808.409 203.056 813.016 Q200 817.599 194.19 817.599 Q188.38 817.599 185.301 813.016 Q182.246 808.409 182.246 799.682 Q182.246 790.932 185.301 786.349 Q188.38 781.743 194.19 781.743 Z" fill="#000000" fill-rule="nonzero" fill-opacity="1" /><path clip-path="url(#clip510)" d="M145.417 587.724 L175.093 587.724 L175.093 591.659 L145.417 591.659 L145.417 587.724 Z" fill="#000000" fill-rule="nonzero" fill-opacity="1" /><path clip-path="url(#clip510)" d="M185.232 569.992 L203.588 569.992 L203.588 573.927 L189.514 573.927 L189.514 582.4 Q190.533 582.052 191.551 581.89 Q192.57 581.705 193.588 581.705 Q199.375 581.705 202.755 584.877 Q206.135 588.048 206.135 593.464 Q206.135 599.043 202.662 602.145 Q199.19 605.224 192.871 605.224 Q190.695 605.224 188.426 604.853 Q186.181 604.483 183.774 603.742 L183.774 599.043 Q185.857 600.177 188.079 600.733 Q190.301 601.288 192.778 601.288 Q196.783 601.288 199.121 599.182 Q201.459 597.076 201.459 593.464 Q201.459 589.853 199.121 587.747 Q196.783 585.64 192.778 585.64 Q190.903 585.64 189.028 586.057 Q187.176 586.474 185.232 587.353 L185.232 569.992 Z" fill="#000000" fill-rule="nonzero" fill-opacity="1" /><path clip-path="url(#clip510)" d="M194.19 360.696 Q190.579 360.696 188.75 364.261 Q186.945 367.802 186.945 374.932 Q186.945 382.038 188.75 385.603 Q190.579 389.145 194.19 389.145 Q197.825 389.145 199.63 385.603 Q201.459 382.038 201.459 374.932 Q201.459 367.802 199.63 364.261 Q197.825 360.696 194.19 360.696 M194.19 356.992 Q200 356.992 203.056 361.599 Q206.135 366.182 206.135 374.932 Q206.135 383.659 203.056 388.265 Q200 392.848 194.19 392.848 Q188.38 392.848 185.301 388.265 Q182.246 383.659 182.246 374.932 Q182.246 366.182 185.301 361.599 Q188.38 356.992 194.19 356.992 Z" fill="#000000" fill-rule="nonzero" fill-opacity="1" /><path clip-path="url(#clip510)" d="M185.232 145.242 L203.588 145.242 L203.588 149.177 L189.514 149.177 L189.514 157.649 Q190.533 157.302 191.551 157.14 Q192.57 156.955 193.588 156.955 Q199.375 156.955 202.755 160.126 Q206.135 163.297 206.135 168.714 Q206.135 174.293 202.662 177.394 Q199.19 180.473 192.871 180.473 Q190.695 180.473 188.426 180.103 Q186.181 179.732 183.774 178.992 L183.774 174.293 Q185.857 175.427 188.079 175.982 Q190.301 176.538 192.778 176.538 Q196.783 176.538 199.121 174.431 Q201.459 172.325 201.459 168.714 Q201.459 165.103 199.121 162.996 Q196.783 160.89 192.778 160.89 Q190.903 160.89 189.028 161.307 Q187.176 161.723 185.232 162.603 L185.232 145.242 Z" fill="#000000" fill-rule="nonzero" fill-opacity="1" /><path clip-path="url(#clip510)" d="M16.4842 1215.98 L16.4842 1175.78 L21.895 1175.78 L21.895 1192.65 L64.0042 1192.65 L64.0042 1199.11 L21.895 1199.11 L21.895 1215.98 L16.4842 1215.98 Z" fill="#000000" fill-rule="nonzero" fill-opacity="1" /><path clip-path="url(#clip510)" d="M33.8307 1158.75 Q33.2578 1159.74 33.0032 1160.92 Q32.7167 1162.06 32.7167 1163.46 Q32.7167 1168.43 35.9632 1171.1 Q39.1779 1173.75 45.2253 1173.75 L64.0042 1173.75 L64.0042 1179.63 L28.3562 1179.63 L28.3562 1173.75 L33.8944 1173.75 Q30.6479 1171.9 29.0883 1168.94 Q27.4968 1165.98 27.4968 1161.75 Q27.4968 1161.14 27.5923 1160.41 Q27.656 1159.68 27.8151 1158.79 L33.8307 1158.75 Z" fill="#000000" fill-rule="nonzero" fill-opacity="1" /><path clip-path="url(#clip510)" d="M28.3562 1152.61 L28.3562 1146.75 L64.0042 1146.75 L64.0042 1152.61 L28.3562 1152.61 M14.479 1152.61 L14.479 1146.75 L21.895 1146.75 L21.895 1152.61 L14.479 1152.61 Z" fill="#000000" fill-rule="nonzero" fill-opacity="1" /><path clip-path="url(#clip510)" d="M35.1993 1106.75 Q31.2526 1104.55 29.3747 1101.49 Q27.4968 1098.44 27.4968 1094.3 Q27.4968 1088.73 31.4117 1085.71 Q35.2948 1082.68 42.4881 1082.68 L64.0042 1082.68 L64.0042 1088.57 L42.679 1088.57 Q37.5546 1088.57 35.072 1090.39 Q32.5894 1092.2 32.5894 1095.92 Q32.5894 1100.48 35.6131 1103.12 Q38.6368 1105.76 43.8567 1105.76 L64.0042 1105.76 L64.0042 1111.65 L42.679 1111.65 Q37.5228 1111.65 35.072 1113.46 Q32.5894 1115.28 32.5894 1119.06 Q32.5894 1123.55 35.6449 1126.19 Q38.6686 1128.84 43.8567 1128.84 L64.0042 1128.84 L64.0042 1134.72 L28.3562 1134.72 L28.3562 1128.84 L33.8944 1128.84 Q30.616 1126.83 29.0564 1124.03 Q27.4968 1121.23 27.4968 1117.38 Q27.4968 1113.49 29.4702 1110.79 Q31.4436 1108.05 35.1993 1106.75 Z" fill="#000000" fill-rule="nonzero" fill-opacity="1" /><path clip-path="url(#clip510)" d="M44.7161 1019.79 L47.5806 1019.79 L47.5806 1046.72 Q53.6281 1046.34 56.8109 1043.09 Q59.9619 1039.81 59.9619 1033.99 Q59.9619 1030.61 59.1344 1027.46 Q58.3069 1024.28 56.6518 1021.16 L62.1899 1021.16 Q63.5267 1024.31 64.227 1027.62 Q64.9272 1030.93 64.9272 1034.34 Q64.9272 1042.87 59.9619 1047.86 Q54.9967 1052.83 46.5303 1052.83 Q37.7774 1052.83 32.6531 1048.12 Q27.4968 1043.38 27.4968 1035.36 Q27.4968 1028.16 32.1438 1023.99 Q36.7589 1019.79 44.7161 1019.79 M42.9973 1025.65 Q38.1912 1025.71 35.3266 1028.35 Q32.4621 1030.96 32.4621 1035.29 Q32.4621 1040.19 35.2312 1043.15 Q38.0002 1046.08 43.0292 1046.53 L42.9973 1025.65 Z" fill="#000000" fill-rule="nonzero" fill-opacity="1" /><path clip-path="url(#clip510)" d="M14.479 1010.18 L14.479 1004.32 L64.0042 1004.32 L64.0042 1010.18 L14.479 1010.18 Z" fill="#000000" fill-rule="nonzero" fill-opacity="1" /><path clip-path="url(#clip510)" d="M44.7161 961.576 L47.5806 961.576 L47.5806 988.503 Q53.6281 988.121 56.8109 984.875 Q59.9619 981.597 59.9619 975.772 Q59.9619 972.398 59.1344 969.247 Q58.3069 966.064 56.6518 962.945 L62.1899 962.945 Q63.5267 966.096 64.227 969.406 Q64.9272 972.716 64.9272 976.122 Q64.9272 984.652 59.9619 989.649 Q54.9967 994.615 46.5303 994.615 Q37.7774 994.615 32.6531 989.904 Q27.4968 985.161 27.4968 977.141 Q27.4968 969.947 32.1438 965.778 Q36.7589 961.576 44.7161 961.576 M42.9973 967.433 Q38.1912 967.497 35.3266 970.138 Q32.4621 972.748 32.4621 977.077 Q32.4621 981.979 35.2312 984.939 Q38.0002 987.867 43.0292 988.312 L42.9973 967.433 Z" fill="#000000" fill-rule="nonzero" fill-opacity="1" /><path clip-path="url(#clip510)" d="M28.3562 956.166 L28.3562 949.959 L58.275 938.819 L28.3562 927.679 L28.3562 921.473 L64.0042 934.841 L64.0042 942.798 L28.3562 956.166 Z" fill="#000000" fill-rule="nonzero" fill-opacity="1" /><path clip-path="url(#clip510)" d="M46.0847 897.187 Q46.0847 904.285 47.7079 907.022 Q49.3312 909.76 53.2461 909.76 Q56.3653 909.76 58.2114 907.723 Q60.0256 905.654 60.0256 902.121 Q60.0256 897.251 56.5881 894.323 Q53.1188 891.363 47.3897 891.363 L46.0847 891.363 L46.0847 897.187 M43.6657 885.506 L64.0042 885.506 L64.0042 891.363 L58.5933 891.363 Q61.8398 893.368 63.3994 896.36 Q64.9272 899.352 64.9272 903.68 Q64.9272 909.155 61.8716 912.401 Q58.7843 915.616 53.6281 915.616 Q47.6125 915.616 44.5569 911.606 Q41.5014 907.563 41.5014 899.575 L41.5014 891.363 L40.9285 891.363 Q36.8862 891.363 34.6901 894.036 Q32.4621 896.678 32.4621 901.484 Q32.4621 904.54 33.1941 907.436 Q33.9262 910.333 35.3903 913.006 L29.9795 913.006 Q28.7381 909.791 28.1334 906.768 Q27.4968 903.744 27.4968 900.879 Q27.4968 893.145 31.5072 889.326 Q35.5176 885.506 43.6657 885.506 Z" fill="#000000" fill-rule="nonzero" fill-opacity="1" /><path clip-path="url(#clip510)" d="M18.2347 867.65 L28.3562 867.65 L28.3562 855.587 L32.9077 855.587 L32.9077 867.65 L52.2594 867.65 Q56.6199 867.65 57.8613 866.473 Q59.1026 865.263 59.1026 861.603 L59.1026 855.587 L64.0042 855.587 L64.0042 861.603 Q64.0042 868.383 61.4897 870.961 Q58.9434 873.539 52.2594 873.539 L32.9077 873.539 L32.9077 877.836 L28.3562 877.836 L28.3562 873.539 L18.2347 873.539 L18.2347 867.65 Z" fill="#000000" fill-rule="nonzero" fill-opacity="1" /><path clip-path="url(#clip510)" d="M32.4621 834.071 Q32.4621 838.782 36.1542 841.519 Q39.8145 844.257 46.212 844.257 Q52.6095 844.257 56.3017 841.551 Q59.9619 838.814 59.9619 834.071 Q59.9619 829.393 56.2698 826.655 Q52.5777 823.918 46.212 823.918 Q39.8781 823.918 36.186 826.655 Q32.4621 829.393 32.4621 834.071 M27.4968 834.071 Q27.4968 826.433 32.4621 822.072 Q37.4273 817.712 46.212 817.712 Q54.9649 817.712 59.9619 822.072 Q64.9272 826.433 64.9272 834.071 Q64.9272 841.742 59.9619 846.103 Q54.9649 850.431 46.212 850.431 Q37.4273 850.431 32.4621 846.103 Q27.4968 841.742 27.4968 834.071 Z" fill="#000000" fill-rule="nonzero" fill-opacity="1" /><path clip-path="url(#clip510)" d="M33.8307 787.347 Q33.2578 788.334 33.0032 789.511 Q32.7167 790.657 32.7167 792.058 Q32.7167 797.023 35.9632 799.697 Q39.1779 802.338 45.2253 802.338 L64.0042 802.338 L64.0042 808.227 L28.3562 808.227 L28.3562 802.338 L33.8944 802.338 Q30.6479 800.492 29.0883 797.532 Q27.4968 794.572 27.4968 790.339 Q27.4968 789.734 27.5923 789.002 Q27.656 788.27 27.8151 787.379 L33.8307 787.347 Z" fill="#000000" fill-rule="nonzero" fill-opacity="1" /><path clip-path="url(#clip510)" d="M33.7671 737.026 L14.479 737.026 L14.479 731.17 L64.0042 731.17 L64.0042 737.026 L58.657 737.026 Q61.8398 738.872 63.3994 741.705 Q64.9272 744.506 64.9272 748.453 Q64.9272 754.914 59.771 758.988 Q54.6147 763.03 46.212 763.03 Q37.8093 763.03 32.6531 758.988 Q27.4968 754.914 27.4968 748.453 Q27.4968 744.506 29.0564 741.705 Q30.5842 738.872 33.7671 737.026 M46.212 756.983 Q52.6732 756.983 56.3653 754.341 Q60.0256 751.667 60.0256 747.02 Q60.0256 742.373 56.3653 739.7 Q52.6732 737.026 46.212 737.026 Q39.7508 737.026 36.0905 739.7 Q32.3984 742.373 32.3984 747.02 Q32.3984 751.667 36.0905 754.341 Q39.7508 756.983 46.212 756.983 Z" fill="#000000" fill-rule="nonzero" fill-opacity="1" /><path clip-path="url(#clip510)" d="M44.7161 688.615 L47.5806 688.615 L47.5806 715.542 Q53.6281 715.16 56.8109 711.913 Q59.9619 708.635 59.9619 702.811 Q59.9619 699.437 59.1344 696.286 Q58.3069 693.103 56.6518 689.984 L62.1899 689.984 Q63.5267 693.135 64.227 696.445 Q64.9272 699.755 64.9272 703.161 Q64.9272 711.691 59.9619 716.688 Q54.9967 721.653 46.5303 721.653 Q37.7774 721.653 32.6531 716.942 Q27.4968 712.2 27.4968 704.179 Q27.4968 696.986 32.1438 692.816 Q36.7589 688.615 44.7161 688.615 M42.9973 694.471 Q38.1912 694.535 35.3266 697.177 Q32.4621 699.787 32.4621 704.115 Q32.4621 709.017 35.2312 711.977 Q38.0002 714.905 43.0292 715.351 L42.9973 694.471 Z" fill="#000000" fill-rule="nonzero" fill-opacity="1" /><path clip-path="url(#clip510)" d="M14.479 660.956 L19.3487 660.956 L19.3487 666.558 Q19.3487 669.709 20.6219 670.95 Q21.895 672.16 25.2052 672.16 L28.3562 672.16 L28.3562 662.516 L32.9077 662.516 L32.9077 672.16 L64.0042 672.16 L64.0042 678.048 L32.9077 678.048 L32.9077 683.65 L28.3562 683.65 L28.3562 678.048 L25.8736 678.048 Q19.9216 678.048 17.2162 675.279 Q14.479 672.51 14.479 666.494 L14.479 660.956 Z" fill="#000000" fill-rule="nonzero" fill-opacity="1" /><path clip-path="url(#clip510)" d="M14.479 656.054 L14.479 650.198 L64.0042 650.198 L64.0042 656.054 L14.479 656.054 Z" fill="#000000" fill-rule="nonzero" fill-opacity="1" /><path clip-path="url(#clip510)" d="M44.7161 607.452 L47.5806 607.452 L47.5806 634.379 Q53.6281 633.997 56.8109 630.751 Q59.9619 627.472 59.9619 621.648 Q59.9619 618.274 59.1344 615.123 Q58.3069 611.94 56.6518 608.821 L62.1899 608.821 Q63.5267 611.972 64.227 615.282 Q64.9272 618.592 64.9272 621.998 Q64.9272 630.528 59.9619 635.525 Q54.9967 640.49 46.5303 640.49 Q37.7774 640.49 32.6531 635.78 Q27.4968 631.037 27.4968 623.016 Q27.4968 615.823 32.1438 611.654 Q36.7589 607.452 44.7161 607.452 M42.9973 613.309 Q38.1912 613.372 35.3266 616.014 Q32.4621 618.624 32.4621 622.953 Q32.4621 627.854 35.2312 630.814 Q38.0002 633.743 43.0292 634.188 L42.9973 613.309 Z" fill="#000000" fill-rule="nonzero" fill-opacity="1" /><path clip-path="url(#clip510)" d="M29.7248 572.186 L35.1993 572.186 Q33.8307 574.669 33.1623 577.183 Q32.4621 579.666 32.4621 582.212 Q32.4621 587.91 36.0905 591.061 Q39.6872 594.212 46.212 594.212 Q52.7369 594.212 56.3653 591.061 Q59.9619 587.91 59.9619 582.212 Q59.9619 579.666 59.2935 577.183 Q58.5933 574.669 57.2247 572.186 L62.6355 572.186 Q63.7814 574.637 64.3543 577.279 Q64.9272 579.889 64.9272 582.849 Q64.9272 590.901 59.8664 595.644 Q54.8057 600.386 46.212 600.386 Q37.491 600.386 32.4939 595.612 Q27.4968 590.806 27.4968 582.467 Q27.4968 579.761 28.0697 577.183 Q28.6108 574.605 29.7248 572.186 Z" fill="#000000" fill-rule="nonzero" fill-opacity="1" /><path clip-path="url(#clip510)" d="M18.2347 556.208 L28.3562 556.208 L28.3562 544.145 L32.9077 544.145 L32.9077 556.208 L52.2594 556.208 Q56.6199 556.208 57.8613 555.031 Q59.1026 553.821 59.1026 550.161 L59.1026 544.145 L64.0042 544.145 L64.0042 550.161 Q64.0042 556.94 61.4897 559.518 Q58.9434 562.097 52.2594 562.097 L32.9077 562.097 L32.9077 566.393 L28.3562 566.393 L28.3562 562.097 L18.2347 562.097 L18.2347 556.208 Z" fill="#000000" fill-rule="nonzero" fill-opacity="1" /><path clip-path="url(#clip510)" d="M28.3562 536.443 L28.3562 530.586 L64.0042 530.586 L64.0042 536.443 L28.3562 536.443 M14.479 536.443 L14.479 530.586 L21.895 530.586 L21.895 536.443 L14.479 536.443 Z" fill="#000000" fill-rule="nonzero" fill-opacity="1" /><path clip-path="url(#clip510)" d="M32.4621 504.519 Q32.4621 509.229 36.1542 511.967 Q39.8145 514.704 46.212 514.704 Q52.6095 514.704 56.3017 511.998 Q59.9619 509.261 59.9619 504.519 Q59.9619 499.84 56.2698 497.103 Q52.5777 494.365 46.212 494.365 Q39.8781 494.365 36.186 497.103 Q32.4621 499.84 32.4621 504.519 M27.4968 504.519 Q27.4968 496.88 32.4621 492.519 Q37.4273 488.159 46.212 488.159 Q54.9649 488.159 59.9619 492.519 Q64.9272 496.88 64.9272 504.519 Q64.9272 512.189 59.9619 516.55 Q54.9649 520.879 46.212 520.879 Q37.4273 520.879 32.4621 516.55 Q27.4968 512.189 27.4968 504.519 Z" fill="#000000" fill-rule="nonzero" fill-opacity="1" /><path clip-path="url(#clip510)" d="M42.4881 448.819 L64.0042 448.819 L64.0042 454.675 L42.679 454.675 Q37.6183 454.675 35.1038 456.649 Q32.5894 458.622 32.5894 462.569 Q32.5894 467.311 35.6131 470.048 Q38.6368 472.786 43.8567 472.786 L64.0042 472.786 L64.0042 478.674 L28.3562 478.674 L28.3562 472.786 L33.8944 472.786 Q30.6797 470.685 29.0883 467.852 Q27.4968 464.988 27.4968 461.264 Q27.4968 455.121 31.3163 451.97 Q35.1038 448.819 42.4881 448.819 Z" fill="#000000" fill-rule="nonzero" fill-opacity="1" /><path clip-path="url(#clip510)" d="M14.479 416.958 L14.479 403.463 L19.0304 403.463 L19.0304 411.102 L68.0464 411.102 L68.0464 403.463 L72.5979 403.463 L72.5979 416.958 L14.479 416.958 Z" fill="#000000" fill-rule="nonzero" fill-opacity="1" /><path clip-path="url(#clip510)" d="M33.7671 367.529 L14.479 367.529 L14.479 361.672 L64.0042 361.672 L64.0042 367.529 L58.657 367.529 Q61.8398 369.375 63.3994 372.208 Q64.9272 375.008 64.9272 378.955 Q64.9272 385.416 59.771 389.49 Q54.6147 393.533 46.212 393.533 Q37.8093 393.533 32.6531 389.49 Q27.4968 385.416 27.4968 378.955 Q27.4968 375.008 29.0564 372.208 Q30.5842 369.375 33.7671 367.529 M46.212 387.485 Q52.6732 387.485 56.3653 384.843 Q60.0256 382.17 60.0256 377.523 Q60.0256 372.876 56.3653 370.202 Q52.6732 367.529 46.212 367.529 Q39.7508 367.529 36.0905 370.202 Q32.3984 372.876 32.3984 377.523 Q32.3984 382.17 36.0905 384.843 Q39.7508 387.485 46.212 387.485 Z" fill="#000000" fill-rule="nonzero" fill-opacity="1" /><path clip-path="url(#clip510)" d="M44.7161 319.118 L47.5806 319.118 L47.5806 346.044 Q53.6281 345.663 56.8109 342.416 Q59.9619 339.138 59.9619 333.313 Q59.9619 329.939 59.1344 326.788 Q58.3069 323.605 56.6518 320.486 L62.1899 320.486 Q63.5267 323.637 64.227 326.947 Q64.9272 330.258 64.9272 333.663 Q64.9272 342.193 59.9619 347.19 Q54.9967 352.156 46.5303 352.156 Q37.7774 352.156 32.6531 347.445 Q27.4968 342.702 27.4968 334.682 Q27.4968 327.488 32.1438 323.319 Q36.7589 319.118 44.7161 319.118 M42.9973 324.974 Q38.1912 325.038 35.3266 327.679 Q32.4621 330.289 32.4621 334.618 Q32.4621 339.52 35.2312 342.48 Q38.0002 345.408 43.0292 345.854 L42.9973 324.974 Z" fill="#000000" fill-rule="nonzero" fill-opacity="1" /><path clip-path="url(#clip510)" d="M45.7664 286.048 Q39.4007 286.048 35.8996 288.689 Q32.3984 291.299 32.3984 296.042 Q32.3984 300.752 35.8996 303.394 Q39.4007 306.004 45.7664 306.004 Q52.1003 306.004 55.6014 303.394 Q59.1026 300.752 59.1026 296.042 Q59.1026 291.299 55.6014 288.689 Q52.1003 286.048 45.7664 286.048 M59.58 280.191 Q68.683 280.191 73.1071 284.233 Q77.5631 288.276 77.5631 296.615 Q77.5631 299.702 77.0857 302.439 Q76.6401 305.177 75.6852 307.755 L69.9879 307.755 Q71.3884 305.177 72.0568 302.662 Q72.7252 300.148 72.7252 297.538 Q72.7252 291.777 69.7015 288.912 Q66.7096 286.048 60.6303 286.048 L57.7339 286.048 Q60.885 287.862 62.4446 290.695 Q64.0042 293.527 64.0042 297.474 Q64.0042 304.031 59.0071 308.041 Q54.01 312.052 45.7664 312.052 Q37.491 312.052 32.4939 308.041 Q27.4968 304.031 27.4968 297.474 Q27.4968 293.527 29.0564 290.695 Q30.616 287.862 33.7671 286.048 L28.3562 286.048 L28.3562 280.191 L59.58 280.191 Z" fill="#000000" fill-rule="nonzero" fill-opacity="1" /><path clip-path="url(#clip510)" d="M14.479 254.442 L72.5979 254.442 L72.5979 267.937 L68.0464 267.937 L68.0464 260.33 L19.0304 260.33 L19.0304 267.937 L14.479 267.937 L14.479 254.442 Z" fill="#000000" fill-rule="nonzero" fill-opacity="1" /><polyline clip-path="url(#clip512)" style="stroke:#000000; stroke-linecap:round; stroke-linejoin:round; stroke-width:8; stroke-opacity:1; fill:none" points="242.135,1384.24 274.606,1206.12 307.077,1051.68 339.548,928.84 372.019,826.299 404.49,736.394 436.961,658.724 469.432,591.845 501.903,534.162 534.375,484.281 566.846,441.031 599.317,403.442 631.788,370.704 664.259,342.131 696.73,317.166 729.201,295.328 761.672,276.212 794.143,259.47 826.614,244.806 859.085,231.963 891.557,220.719 924.028,210.883 956.499,202.287 988.97,194.784 1021.44,188.245 1053.91,182.558 1086.38,177.621 1118.85,173.347 1151.33,169.656 1183.8,166.478 1216.27,163.751 1248.74,161.42 1281.21,159.434 1313.68,157.748 1346.15,156.322 1378.62,155.121 1411.09,154.11 1443.57,153.261 1476.04,152.547 1508.51,151.944 1540.98,151.431 1573.45,150.987 1605.92,150.595 1638.39,150.239 1670.86,149.903 1703.33,149.575 1735.81,149.241 1768.28,148.892 1800.75,148.516 1833.22,148.105 1865.69,147.65 1898.16,147.144 1930.63,146.579 1963.1,145.949 1995.57,145.248 2028.04,144.471 2060.52,143.612 2092.99,142.668 2125.46,141.633 2157.93,140.505 2190.4,139.279 2222.87,137.952 2255.34,136.522 2287.81,134.984 2320.28,133.338 2352.76,131.579 "/>
<circle clip-path="url(#clip512)" cx="242.135" cy="1289.13" r="14.4" fill="#000000" fill-rule="evenodd" fill-opacity="1" stroke="none"/>
<circle clip-path="url(#clip512)" cx="323.312" cy="957.655" r="14.4" fill="#000000" fill-rule="evenodd" fill-opacity="1" stroke="none"/>
<circle clip-path="url(#clip512)" cx="404.49" cy="734.716" r="14.4" fill="#000000" fill-rule="evenodd" fill-opacity="1" stroke="none"/>
<circle clip-path="url(#clip512)" cx="485.668" cy="580.595" r="14.4" fill="#000000" fill-rule="evenodd" fill-opacity="1" stroke="none"/>
<circle clip-path="url(#clip512)" cx="566.846" cy="470.903" r="14.4" fill="#000000" fill-rule="evenodd" fill-opacity="1" stroke="none"/>
<circle clip-path="url(#clip512)" cx="648.023" cy="390.812" r="14.4" fill="#000000" fill-rule="evenodd" fill-opacity="1" stroke="none"/>
<circle clip-path="url(#clip512)" cx="729.201" cy="331.063" r="14.4" fill="#000000" fill-rule="evenodd" fill-opacity="1" stroke="none"/>
<circle clip-path="url(#clip512)" cx="810.379" cy="285.678" r="14.4" fill="#000000" fill-rule="evenodd" fill-opacity="1" stroke="none"/>
<circle clip-path="url(#clip512)" cx="891.557" cy="250.675" r="14.4" fill="#000000" fill-rule="evenodd" fill-opacity="1" stroke="none"/>
<circle clip-path="url(#clip512)" cx="972.734" cy="223.316" r="14.4" fill="#000000" fill-rule="evenodd" fill-opacity="1" stroke="none"/>
<circle clip-path="url(#clip512)" cx="1053.91" cy="201.671" r="14.4" fill="#000000" fill-rule="evenodd" fill-opacity="1" stroke="none"/>
<circle clip-path="url(#clip512)" cx="1135.09" cy="184.35" r="14.4" fill="#000000" fill-rule="evenodd" fill-opacity="1" stroke="none"/>
<circle clip-path="url(#clip512)" cx="1216.27" cy="170.32" r="14.4" fill="#000000" fill-rule="evenodd" fill-opacity="1" stroke="none"/>
<circle clip-path="url(#clip512)" cx="1297.45" cy="158.818" r="14.4" fill="#000000" fill-rule="evenodd" fill-opacity="1" stroke="none"/>
<circle clip-path="url(#clip512)" cx="1378.62" cy="149.253" r="14.4" fill="#000000" fill-rule="evenodd" fill-opacity="1" stroke="none"/>
<circle clip-path="url(#clip512)" cx="1459.8" cy="141.174" r="14.4" fill="#000000" fill-rule="evenodd" fill-opacity="1" stroke="none"/>
<circle clip-path="url(#clip512)" cx="1540.98" cy="134.225" r="14.4" fill="#000000" fill-rule="evenodd" fill-opacity="1" stroke="none"/>
<circle clip-path="url(#clip512)" cx="1622.16" cy="128.13" r="14.4" fill="#000000" fill-rule="evenodd" fill-opacity="1" stroke="none"/>
<circle clip-path="url(#clip512)" cx="1703.33" cy="122.663" r="14.4" fill="#000000" fill-rule="evenodd" fill-opacity="1" stroke="none"/>
<circle clip-path="url(#clip512)" cx="1784.51" cy="117.655" r="14.4" fill="#000000" fill-rule="evenodd" fill-opacity="1" stroke="none"/>
<circle clip-path="url(#clip512)" cx="1865.69" cy="112.958" r="14.4" fill="#000000" fill-rule="evenodd" fill-opacity="1" stroke="none"/>
<circle clip-path="url(#clip512)" cx="1946.87" cy="108.46" r="14.4" fill="#000000" fill-rule="evenodd" fill-opacity="1" stroke="none"/>
<circle clip-path="url(#clip512)" cx="2028.04" cy="104.063" r="14.4" fill="#000000" fill-rule="evenodd" fill-opacity="1" stroke="none"/>
<circle clip-path="url(#clip512)" cx="2109.22" cy="99.6927" r="14.4" fill="#000000" fill-rule="evenodd" fill-opacity="1" stroke="none"/>
<circle clip-path="url(#clip512)" cx="2190.4" cy="95.2881" r="14.4" fill="#000000" fill-rule="evenodd" fill-opacity="1" stroke="none"/>
<circle clip-path="url(#clip512)" cx="2271.58" cy="90.7985" r="14.4" fill="#000000" fill-rule="evenodd" fill-opacity="1" stroke="none"/>
<circle clip-path="url(#clip512)" cx="2352.76" cy="86.1857" r="14.4" fill="#000000" fill-rule="evenodd" fill-opacity="1" stroke="none"/>
<path clip-path="url(#clip510)" d="M1804.19 1377.32 L2282.4 1377.32 L2282.4 1221.8 L1804.19 1221.8  Z" fill="#ffffff" fill-rule="evenodd" fill-opacity="1"/>
<polyline clip-path="url(#clip510)" style="stroke:#000000; stroke-linecap:round; stroke-linejoin:round; stroke-width:4; stroke-opacity:1; fill:none" points="1804.19,1377.32 2282.4,1377.32 2282.4,1221.8 1804.19,1221.8 1804.19,1377.32 "/>
<polyline clip-path="url(#clip510)" style="stroke:#000000; stroke-linecap:round; stroke-linejoin:round; stroke-width:8; stroke-opacity:1; fill:none" points="1827.64,1273.64 1968.35,1273.64 "/>
<path clip-path="url(#clip510)" d="M2007.63 1260.96 L2001.29 1278.16 L2014 1278.16 L2007.63 1260.96 M2004.99 1256.36 L2010.29 1256.36 L2023.47 1290.92 L2018.6 1290.92 L2015.46 1282.05 L1999.88 1282.05 L1996.73 1290.92 L1991.8 1290.92 L2004.99 1256.36 Z" fill="#000000" fill-rule="nonzero" fill-opacity="1" /><path clip-path="url(#clip510)" d="M2049.67 1276.89 L2049.67 1278.97 L2030.09 1278.97 Q2030.36 1283.37 2032.72 1285.68 Q2035.11 1287.98 2039.35 1287.98 Q2041.8 1287.98 2044.09 1287.37 Q2046.41 1286.77 2048.67 1285.57 L2048.67 1289.6 Q2046.38 1290.57 2043.97 1291.08 Q2041.57 1291.59 2039.09 1291.59 Q2032.89 1291.59 2029.25 1287.98 Q2025.64 1284.36 2025.64 1278.21 Q2025.64 1271.84 2029.07 1268.11 Q2032.52 1264.36 2038.35 1264.36 Q2043.58 1264.36 2046.61 1267.74 Q2049.67 1271.1 2049.67 1276.89 M2045.41 1275.64 Q2045.36 1272.14 2043.44 1270.06 Q2041.54 1267.98 2038.4 1267.98 Q2034.83 1267.98 2032.68 1269.99 Q2030.55 1272 2030.22 1275.66 L2045.41 1275.64 Z" fill="#000000" fill-rule="nonzero" fill-opacity="1" /><path clip-path="url(#clip510)" d="M2071.68 1268.97 Q2070.97 1268.55 2070.11 1268.37 Q2069.28 1268.16 2068.26 1268.16 Q2064.65 1268.16 2062.7 1270.52 Q2060.78 1272.86 2060.78 1277.26 L2060.78 1290.92 L2056.5 1290.92 L2056.5 1264.99 L2060.78 1264.99 L2060.78 1269.02 Q2062.12 1266.66 2064.28 1265.52 Q2066.43 1264.36 2069.51 1264.36 Q2069.95 1264.36 2070.48 1264.43 Q2071.01 1264.48 2071.66 1264.6 L2071.68 1268.97 Z" fill="#000000" fill-rule="nonzero" fill-opacity="1" /><path clip-path="url(#clip510)" d="M2085.16 1267.98 Q2081.73 1267.98 2079.74 1270.66 Q2077.75 1273.32 2077.75 1277.98 Q2077.75 1282.63 2079.72 1285.31 Q2081.71 1287.98 2085.16 1287.98 Q2088.56 1287.98 2090.55 1285.29 Q2092.54 1282.61 2092.54 1277.98 Q2092.54 1273.37 2090.55 1270.68 Q2088.56 1267.98 2085.16 1267.98 M2085.16 1264.36 Q2090.71 1264.36 2093.88 1267.98 Q2097.05 1271.59 2097.05 1277.98 Q2097.05 1284.34 2093.88 1287.98 Q2090.71 1291.59 2085.16 1291.59 Q2079.58 1291.59 2076.41 1287.98 Q2073.26 1284.34 2073.26 1277.98 Q2073.26 1271.59 2076.41 1267.98 Q2079.58 1264.36 2085.16 1264.36 Z" fill="#000000" fill-rule="nonzero" fill-opacity="1" /><path clip-path="url(#clip510)" d="M2108.97 1274.41 L2108.97 1287.07 L2116.47 1287.07 Q2120.25 1287.07 2122.05 1285.52 Q2123.88 1283.95 2123.88 1280.73 Q2123.88 1277.49 2122.05 1275.96 Q2120.25 1274.41 2116.47 1274.41 L2108.97 1274.41 M2108.97 1260.2 L2108.97 1270.61 L2115.9 1270.61 Q2119.32 1270.61 2120.99 1269.34 Q2122.68 1268.05 2122.68 1265.41 Q2122.68 1262.79 2120.99 1261.49 Q2119.32 1260.2 2115.9 1260.2 L2108.97 1260.2 M2104.3 1256.36 L2116.24 1256.36 Q2121.59 1256.36 2124.48 1258.58 Q2127.38 1260.8 2127.38 1264.9 Q2127.38 1268.07 2125.9 1269.94 Q2124.41 1271.82 2121.54 1272.28 Q2124.99 1273.02 2126.89 1275.38 Q2128.81 1277.72 2128.81 1281.24 Q2128.81 1285.87 2125.66 1288.39 Q2122.52 1290.92 2116.71 1290.92 L2104.3 1290.92 L2104.3 1256.36 Z" fill="#000000" fill-rule="nonzero" fill-opacity="1" /><path clip-path="url(#clip510)" d="M2158.81 1276.89 L2158.81 1278.97 L2139.23 1278.97 Q2139.51 1283.37 2141.87 1285.68 Q2144.25 1287.98 2148.49 1287.98 Q2150.94 1287.98 2153.23 1287.37 Q2155.55 1286.77 2157.82 1285.57 L2157.82 1289.6 Q2155.53 1290.57 2153.12 1291.08 Q2150.71 1291.59 2148.23 1291.59 Q2142.03 1291.59 2138.4 1287.98 Q2134.78 1284.36 2134.78 1278.21 Q2134.78 1271.84 2138.21 1268.11 Q2141.66 1264.36 2147.49 1264.36 Q2152.72 1264.36 2155.76 1267.74 Q2158.81 1271.1 2158.81 1276.89 M2154.55 1275.64 Q2154.51 1272.14 2152.59 1270.06 Q2150.69 1267.98 2147.54 1267.98 Q2143.97 1267.98 2141.82 1269.99 Q2139.69 1272 2139.37 1275.66 L2154.55 1275.64 Z" fill="#000000" fill-rule="nonzero" fill-opacity="1" /><path clip-path="url(#clip510)" d="M2177.59 1277.88 Q2172.42 1277.88 2170.43 1279.06 Q2168.44 1280.24 2168.44 1283.09 Q2168.44 1285.36 2169.92 1286.7 Q2171.43 1288.02 2174 1288.02 Q2177.54 1288.02 2179.67 1285.52 Q2181.82 1283 2181.82 1278.83 L2181.82 1277.88 L2177.59 1277.88 M2186.08 1276.12 L2186.08 1290.92 L2181.82 1290.92 L2181.82 1286.98 Q2180.36 1289.34 2178.19 1290.48 Q2176.01 1291.59 2172.86 1291.59 Q2168.88 1291.59 2166.52 1289.36 Q2164.18 1287.12 2164.18 1283.37 Q2164.18 1278.99 2167.1 1276.77 Q2170.04 1274.55 2175.85 1274.55 L2181.82 1274.55 L2181.82 1274.13 Q2181.82 1271.19 2179.88 1269.6 Q2177.96 1267.98 2174.46 1267.98 Q2172.24 1267.98 2170.13 1268.51 Q2168.03 1269.04 2166.08 1270.11 L2166.08 1266.17 Q2168.42 1265.27 2170.62 1264.83 Q2172.82 1264.36 2174.9 1264.36 Q2180.53 1264.36 2183.3 1267.28 Q2186.08 1270.2 2186.08 1276.12 Z" fill="#000000" fill-rule="nonzero" fill-opacity="1" /><path clip-path="url(#clip510)" d="M2215.04 1269.97 Q2216.64 1267.1 2218.86 1265.73 Q2221.08 1264.36 2224.09 1264.36 Q2228.14 1264.36 2230.34 1267.21 Q2232.54 1270.04 2232.54 1275.27 L2232.54 1290.92 L2228.26 1290.92 L2228.26 1275.41 Q2228.26 1271.68 2226.94 1269.87 Q2225.62 1268.07 2222.91 1268.07 Q2219.6 1268.07 2217.68 1270.27 Q2215.76 1272.47 2215.76 1276.26 L2215.76 1290.92 L2211.47 1290.92 L2211.47 1275.41 Q2211.47 1271.66 2210.15 1269.87 Q2208.84 1268.07 2206.08 1268.07 Q2202.82 1268.07 2200.9 1270.29 Q2198.97 1272.49 2198.97 1276.26 L2198.97 1290.92 L2194.69 1290.92 L2194.69 1264.99 L2198.97 1264.99 L2198.97 1269.02 Q2200.43 1266.63 2202.47 1265.5 Q2204.51 1264.36 2207.31 1264.36 Q2210.13 1264.36 2212.1 1265.8 Q2214.09 1267.23 2215.04 1269.97 Z" fill="#000000" fill-rule="nonzero" fill-opacity="1" /><path clip-path="url(#clip510)" d="M2257.56 1265.75 L2257.56 1269.78 Q2255.76 1268.86 2253.81 1268.39 Q2251.87 1267.93 2249.78 1267.93 Q2246.61 1267.93 2245.02 1268.9 Q2243.44 1269.87 2243.44 1271.82 Q2243.44 1273.3 2244.58 1274.16 Q2245.71 1274.99 2249.14 1275.75 L2250.59 1276.08 Q2255.13 1277.05 2257.03 1278.83 Q2258.95 1280.59 2258.95 1283.76 Q2258.95 1287.37 2256.08 1289.48 Q2253.23 1291.59 2248.23 1291.59 Q2246.15 1291.59 2243.88 1291.17 Q2241.64 1290.78 2239.14 1289.97 L2239.14 1285.57 Q2241.5 1286.79 2243.79 1287.42 Q2246.08 1288.02 2248.33 1288.02 Q2251.33 1288.02 2252.96 1287 Q2254.58 1285.96 2254.58 1284.09 Q2254.58 1282.35 2253.39 1281.42 Q2252.24 1280.5 2248.28 1279.64 L2246.8 1279.3 Q2242.84 1278.46 2241.08 1276.75 Q2239.32 1275.01 2239.32 1272 Q2239.32 1268.35 2241.91 1266.36 Q2244.51 1264.36 2249.27 1264.36 Q2251.64 1264.36 2253.72 1264.71 Q2255.8 1265.06 2257.56 1265.75 Z" fill="#000000" fill-rule="nonzero" fill-opacity="1" /><circle clip-path="url(#clip510)" cx="1897.99" cy="1325.48" r="20.48" fill="#000000" fill-rule="evenodd" fill-opacity="1" stroke="none"/>
<path clip-path="url(#clip510)" d="M1991.8 1308.2 L1996.5 1308.2 L1996.5 1329.19 Q1996.5 1334.75 1998.51 1337.2 Q2000.53 1339.63 2005.04 1339.63 Q2009.53 1339.63 2011.54 1337.2 Q2013.56 1334.75 2013.56 1329.19 L2013.56 1308.2 L2018.26 1308.2 L2018.26 1329.77 Q2018.26 1336.53 2014.9 1339.98 Q2011.57 1343.43 2005.04 1343.43 Q1998.49 1343.43 1995.13 1339.98 Q1991.8 1336.53 1991.8 1329.77 L1991.8 1308.2 Z" fill="#000000" fill-rule="nonzero" fill-opacity="1" /><path clip-path="url(#clip510)" d="M2027.03 1308.2 L2034 1308.2 L2042.82 1331.71 L2051.68 1308.2 L2058.65 1308.2 L2058.65 1342.76 L2054.09 1342.76 L2054.09 1312.41 L2045.18 1336.11 L2040.48 1336.11 L2031.57 1312.41 L2031.57 1342.76 L2027.03 1342.76 L2027.03 1308.2 Z" fill="#000000" fill-rule="nonzero" fill-opacity="1" /><path clip-path="url(#clip510)" d="M2075.32 1308.2 L2079.25 1308.2 L2067.22 1347.15 L2063.28 1347.15 L2075.32 1308.2 Z" fill="#000000" fill-rule="nonzero" fill-opacity="1" /><path clip-path="url(#clip510)" d="M2083.91 1308.2 L2090.2 1308.2 L2105.53 1337.11 L2105.53 1308.2 L2110.06 1308.2 L2110.06 1342.76 L2103.77 1342.76 L2088.44 1313.84 L2088.44 1342.76 L2083.91 1342.76 L2083.91 1308.2 Z" fill="#000000" fill-rule="nonzero" fill-opacity="1" /><path clip-path="url(#clip510)" d="M2130.92 1312.8 L2124.58 1330 L2137.28 1330 L2130.92 1312.8 M2128.28 1308.2 L2133.58 1308.2 L2146.75 1342.76 L2141.89 1342.76 L2138.74 1333.89 L2123.16 1333.89 L2120.02 1342.76 L2115.09 1342.76 L2128.28 1308.2 Z" fill="#000000" fill-rule="nonzero" fill-opacity="1" /><path clip-path="url(#clip510)" d="M2172.52 1309.33 L2172.52 1313.89 Q2169.85 1312.62 2167.49 1311.99 Q2165.13 1311.37 2162.93 1311.37 Q2159.11 1311.37 2157.03 1312.85 Q2154.97 1314.33 2154.97 1317.06 Q2154.97 1319.35 2156.34 1320.53 Q2157.72 1321.69 2161.57 1322.41 L2164.39 1322.99 Q2169.62 1323.98 2172.1 1326.51 Q2174.6 1329.01 2174.6 1333.22 Q2174.6 1338.24 2171.22 1340.83 Q2167.86 1343.43 2161.36 1343.43 Q2158.9 1343.43 2156.13 1342.87 Q2153.37 1342.32 2150.41 1341.23 L2150.41 1336.41 Q2153.26 1338.01 2155.99 1338.82 Q2158.72 1339.63 2161.36 1339.63 Q2165.36 1339.63 2167.54 1338.06 Q2169.71 1336.48 2169.71 1333.57 Q2169.71 1331.02 2168.14 1329.58 Q2166.59 1328.15 2163.03 1327.43 L2160.18 1326.88 Q2154.95 1325.83 2152.61 1323.61 Q2150.27 1321.39 2150.27 1317.43 Q2150.27 1312.85 2153.49 1310.21 Q2156.73 1307.57 2162.4 1307.57 Q2164.83 1307.57 2167.35 1308.01 Q2169.88 1308.45 2172.52 1309.33 Z" fill="#000000" fill-rule="nonzero" fill-opacity="1" /><path clip-path="url(#clip510)" d="M2177.1 1308.2 L2206.34 1308.2 L2206.34 1312.13 L2194.07 1312.13 L2194.07 1342.76 L2189.37 1342.76 L2189.37 1312.13 L2177.1 1312.13 L2177.1 1308.2 Z" fill="#000000" fill-rule="nonzero" fill-opacity="1" /></svg>
