<?xml version="1.0" encoding="utf-8"?>
<svg xmlns="http://www.w3.org/2000/svg" xmlns:xlink="http://www.w3.org/1999/xlink" width="600" height="400" viewBox="0 0 2400 1600">
<defs>
  <clipPath id="clip040">
    <rect x="0" y="0" width="2400" height="1600"/>
  </clipPath>
</defs>
<path clip-path="url(#clip040)" d="M0 1600 L2400 1600 L2400 0 L0 0  Z" fill="#ffffff" fill-rule="evenodd" fill-opacity="1"/>
<defs>
  <clipPath id="clip041">
    <rect x="480" y="0" width="1681" height="1600"/>
  </clipPath>
</defs>
<path clip-path="url(#clip040)" d="M287.366 1423.18 L2352.76 1423.18 L2352.76 47.2441 L287.366 47.2441  Z" fill="#ffffff" fill-rule="evenodd" fill-opacity="1"/>
<defs>
  <clipPath id="clip042">
    <rect x="287" y="47" width="2066" height="1377"/>
  </clipPath>
</defs>
<polyline clip-path="url(#clip042)" style="stroke:#000000; stroke-linecap:round; stroke-linejoin:round; stroke-width:2; stroke-opacity:0.1; fill:none" points="345.82,1423.18 345.82,47.2441 "/>
<polyline clip-path="url(#clip042)" style="stroke:#000000; stroke-linecap:round; stroke-linejoin:round; stroke-width:2; stroke-opacity:0.1; fill:none" points="832.941,1423.18 832.941,47.2441 "/>
<polyline clip-path="url(#clip042)" style="stroke:#000000; stroke-linecap:round; stroke-linejoin:round; stroke-width:2; stroke-opacity:0.1; fill:none" points="1320.06,1423.18 1320.06,47.2441 "/>
<polyline clip-path="url(#clip042)" style="stroke:#000000; stroke-linecap:round; stroke-linejoin:round; stroke-width:2; stroke-opacity:0.1; fill:none" points="1807.18,1423.18 1807.18,47.2441 "/>
<polyline clip-path="url(#clip042)" style="stroke:#000000; stroke-linecap:round; stroke-linejoin:round; stroke-width:2; stroke-opacity:0.1; fill:none" points="2294.3,1423.18 2294.3,47.2441 "/>
<polyline clip-path="url(#clip042)" style="stroke:#000000; stroke-linecap:round; stroke-linejoin:round; stroke-width:2; stroke-opacity:0.1; fill:none" points="287.366,1216.53 2352.76,1216.53 "/>
<polyline clip-path="url(#clip042)" style="stroke:#000000; stroke-linecap:round; stroke-linejoin:round; stroke-width:2; stroke-opacity:0.1; fill:none" points="287.366,975.871 2352.76,975.871 "/>
<polyline clip-path="url(#clip042)" style="stroke:#000000; stroke-linecap:round; stroke-linejoin:round; stroke-width:2; stroke-opacity:0.1; fill:none" points="287.366,735.212 2352.76,735.212 "/>
<polyline clip-path="url(#clip042)" style="stroke:#000000; stroke-linecap:round; stroke-linejoin:round; stroke-width:2; stroke-opacity:0.1; fill:none" points="287.366,494.553 2352.76,494.553 "/>
<polyline clip-path="url(#clip042)" style="stroke:#000000; stroke-linecap:round; stroke-linejoin:round; stroke-width:2; stroke-opacity:0.1; fill:none" points="287.366,253.894 2352.76,253.894 "/>
<polyline clip-path="url(#clip040)" style="stroke:#000000; stroke-linecap:round; stroke-linejoin:round; stroke-width:4; stroke-opacity:1; fill:none" points="287.366,1423.18 2352.76,1423.18 "/>
<polyline clip-path="url(#clip040)" style="stroke:#000000; stroke-linecap:round; stroke-linejoin:round; stroke-width:4; stroke-opacity:1; fill:none" points="345.82,1423.18 345.82,1404.28 "/>
<polyline clip-path="url(#clip040)" style="stroke:#000000; stroke-linecap:round; stroke-linejoin:round; stroke-width:4; stroke-opacity:1; fill:none" points="832.941,1423.18 832.941,1404.28 "/>
<polyline clip-path="url(#clip040)" style="stroke:#000000; stroke-linecap:round; stroke-linejoin:round; stroke-width:4; stroke-opacity:1; fill:none" points="1320.06,1423.18 1320.06,1404.28 "/>
<polyline clip-path="url(#clip040)" style="stroke:#000000; stroke-linecap:round; stroke-linejoin:round; stroke-width:4; stroke-opacity:1; fill:none" points="1807.18,1423.18 1807.18,1404.28 "/>
<polyline clip-path="url(#clip040)" style="stroke:#000000; stroke-linecap:round; stroke-linejoin:round; stroke-width:4; stroke-opacity:1; fill:none" points="2294.3,1423.18 2294.3,1404.28 "/>
<path clip-path="url(#clip040)" d="M308.124 1454.1 Q304.513 1454.1 302.684 1457.66 Q300.878 1461.2 300.878 1468.33 Q300.878 1475.44 302.684 1479.01 Q304.513 1482.55 308.124 1482.55 Q311.758 1482.55 313.564 1479.01 Q315.392 1475.44 315.392 1468.33 Q315.392 1461.2 313.564 1457.66 Q311.758 1454.1 308.124 1454.1 M308.124 1450.39 Q313.934 1450.39 316.989 1455 Q320.068 1459.58 320.068 1468.33 Q320.068 1477.06 316.989 1481.67 Q313.934 1486.25 308.124 1486.25 Q302.314 1486.25 299.235 1481.67 Q296.179 1477.06 296.179 1468.33 Q296.179 1459.58 299.235 1455 Q302.314 1450.39 308.124 1450.39 Z" fill="#000000" fill-rule="nonzero" fill-opacity="1" /><path clip-path="url(#clip040)" d="M328.286 1479.7 L333.17 1479.7 L333.17 1485.58 L328.286 1485.58 L328.286 1479.7 Z" fill="#000000" fill-rule="nonzero" fill-opacity="1" /><path clip-path="url(#clip040)" d="M353.355 1454.1 Q349.744 1454.1 347.915 1457.66 Q346.11 1461.2 346.11 1468.33 Q346.11 1475.44 347.915 1479.01 Q349.744 1482.55 353.355 1482.55 Q356.989 1482.55 358.795 1479.01 Q360.623 1475.44 360.623 1468.33 Q360.623 1461.2 358.795 1457.66 Q356.989 1454.1 353.355 1454.1 M353.355 1450.39 Q359.165 1450.39 362.221 1455 Q365.299 1459.58 365.299 1468.33 Q365.299 1477.06 362.221 1481.67 Q359.165 1486.25 353.355 1486.25 Q347.545 1486.25 344.466 1481.67 Q341.411 1477.06 341.411 1468.33 Q341.411 1459.58 344.466 1455 Q347.545 1450.39 353.355 1450.39 Z" fill="#000000" fill-rule="nonzero" fill-opacity="1" /><path clip-path="url(#clip040)" d="M383.517 1454.1 Q379.906 1454.1 378.077 1457.66 Q376.272 1461.2 376.272 1468.33 Q376.272 1475.44 378.077 1479.01 Q379.906 1482.55 383.517 1482.55 Q387.151 1482.55 388.957 1479.01 Q390.785 1475.44 390.785 1468.33 Q390.785 1461.2 388.957 1457.66 Q387.151 1454.1 383.517 1454.1 M383.517 1450.39 Q389.327 1450.39 392.383 1455 Q395.461 1459.58 395.461 1468.33 Q395.461 1477.06 392.383 1481.67 Q389.327 1486.25 383.517 1486.25 Q377.707 1486.25 374.628 1481.67 Q371.573 1477.06 371.573 1468.33 Q371.573 1459.58 374.628 1455 Q377.707 1450.39 383.517 1450.39 Z" fill="#000000" fill-rule="nonzero" fill-opacity="1" /><path clip-path="url(#clip040)" d="M795.742 1454.1 Q792.131 1454.1 790.302 1457.66 Q788.496 1461.2 788.496 1468.33 Q788.496 1475.44 790.302 1479.01 Q792.131 1482.55 795.742 1482.55 Q799.376 1482.55 801.182 1479.01 Q803.01 1475.44 803.01 1468.33 Q803.01 1461.2 801.182 1457.66 Q799.376 1454.1 795.742 1454.1 M795.742 1450.39 Q801.552 1450.39 804.607 1455 Q807.686 1459.58 807.686 1468.33 Q807.686 1477.06 804.607 1481.67 Q801.552 1486.25 795.742 1486.25 Q789.932 1486.25 786.853 1481.67 Q783.797 1477.06 783.797 1468.33 Q783.797 1459.58 786.853 1455 Q789.932 1450.39 795.742 1450.39 Z" fill="#000000" fill-rule="nonzero" fill-opacity="1" /><path clip-path="url(#clip040)" d="M815.904 1479.7 L820.788 1479.7 L820.788 1485.58 L815.904 1485.58 L815.904 1479.7 Z" fill="#000000" fill-rule="nonzero" fill-opacity="1" /><path clip-path="url(#clip040)" d="M835.001 1481.64 L851.32 1481.64 L851.32 1485.58 L829.376 1485.58 L829.376 1481.64 Q832.038 1478.89 836.621 1474.26 Q841.228 1469.61 842.408 1468.27 Q844.654 1465.74 845.533 1464.01 Q846.436 1462.25 846.436 1460.56 Q846.436 1457.8 844.491 1456.07 Q842.57 1454.33 839.468 1454.33 Q837.269 1454.33 834.816 1455.09 Q832.385 1455.86 829.607 1457.41 L829.607 1452.69 Q832.431 1451.55 834.885 1450.97 Q837.339 1450.39 839.376 1450.39 Q844.746 1450.39 847.941 1453.08 Q851.135 1455.77 851.135 1460.26 Q851.135 1462.39 850.325 1464.31 Q849.538 1466.2 847.431 1468.8 Q846.853 1469.47 843.751 1472.69 Q840.649 1475.88 835.001 1481.64 Z" fill="#000000" fill-rule="nonzero" fill-opacity="1" /><path clip-path="url(#clip040)" d="M861.181 1451.02 L879.538 1451.02 L879.538 1454.96 L865.464 1454.96 L865.464 1463.43 Q866.482 1463.08 867.501 1462.92 Q868.519 1462.73 869.538 1462.73 Q875.325 1462.73 878.704 1465.9 Q882.084 1469.08 882.084 1474.49 Q882.084 1480.07 878.612 1483.17 Q875.139 1486.25 868.82 1486.25 Q866.644 1486.25 864.376 1485.88 Q862.13 1485.51 859.723 1484.77 L859.723 1480.07 Q861.806 1481.2 864.028 1481.76 Q866.251 1482.32 868.727 1482.32 Q872.732 1482.32 875.07 1480.21 Q877.408 1478.1 877.408 1474.49 Q877.408 1470.88 875.07 1468.77 Q872.732 1466.67 868.727 1466.67 Q866.852 1466.67 864.977 1467.08 Q863.126 1467.5 861.181 1468.38 L861.181 1451.02 Z" fill="#000000" fill-rule="nonzero" fill-opacity="1" /><path clip-path="url(#clip040)" d="M1282.36 1454.1 Q1278.75 1454.1 1276.92 1457.66 Q1275.12 1461.2 1275.12 1468.33 Q1275.12 1475.44 1276.92 1479.01 Q1278.75 1482.55 1282.36 1482.55 Q1286 1482.55 1287.8 1479.01 Q1289.63 1475.44 1289.63 1468.33 Q1289.63 1461.2 1287.8 1457.66 Q1286 1454.1 1282.36 1454.1 M1282.36 1450.39 Q1288.17 1450.39 1291.23 1455 Q1294.31 1459.58 1294.31 1468.33 Q1294.31 1477.06 1291.23 1481.67 Q1288.17 1486.25 1282.36 1486.25 Q1276.55 1486.25 1273.48 1481.67 Q1270.42 1477.06 1270.42 1468.33 Q1270.42 1459.58 1273.48 1455 Q1276.55 1450.39 1282.36 1450.39 Z" fill="#000000" fill-rule="nonzero" fill-opacity="1" /><path clip-path="url(#clip040)" d="M1302.53 1479.7 L1307.41 1479.7 L1307.41 1485.58 L1302.53 1485.58 L1302.53 1479.7 Z" fill="#000000" fill-rule="nonzero" fill-opacity="1" /><path clip-path="url(#clip040)" d="M1317.64 1451.02 L1336 1451.02 L1336 1454.96 L1321.92 1454.96 L1321.92 1463.43 Q1322.94 1463.08 1323.96 1462.92 Q1324.98 1462.73 1326 1462.73 Q1331.79 1462.73 1335.16 1465.9 Q1338.54 1469.08 1338.54 1474.49 Q1338.54 1480.07 1335.07 1483.17 Q1331.6 1486.25 1325.28 1486.25 Q1323.1 1486.25 1320.84 1485.88 Q1318.59 1485.51 1316.18 1484.77 L1316.18 1480.07 Q1318.27 1481.2 1320.49 1481.76 Q1322.71 1482.32 1325.19 1482.32 Q1329.19 1482.32 1331.53 1480.21 Q1333.87 1478.1 1333.87 1474.49 Q1333.87 1470.88 1331.53 1468.77 Q1329.19 1466.67 1325.19 1466.67 Q1323.31 1466.67 1321.44 1467.08 Q1319.59 1467.5 1317.64 1468.38 L1317.64 1451.02 Z" fill="#000000" fill-rule="nonzero" fill-opacity="1" /><path clip-path="url(#clip040)" d="M1357.76 1454.1 Q1354.15 1454.1 1352.32 1457.66 Q1350.51 1461.2 1350.51 1468.33 Q1350.51 1475.44 1352.32 1479.01 Q1354.15 1482.55 1357.76 1482.55 Q1361.39 1482.55 1363.2 1479.01 Q1365.03 1475.44 1365.03 1468.33 Q1365.03 1461.2 1363.2 1457.66 Q1361.39 1454.1 1357.76 1454.1 M1357.76 1450.39 Q1363.57 1450.39 1366.62 1455 Q1369.7 1459.58 1369.7 1468.33 Q1369.7 1477.06 1366.62 1481.67 Q1363.57 1486.25 1357.76 1486.25 Q1351.95 1486.25 1348.87 1481.67 Q1345.81 1477.06 1345.81 1468.33 Q1345.81 1459.58 1348.87 1455 Q1351.95 1450.39 1357.76 1450.39 Z" fill="#000000" fill-rule="nonzero" fill-opacity="1" /><path clip-path="url(#clip040)" d="M1769.98 1454.1 Q1766.37 1454.1 1764.54 1457.66 Q1762.74 1461.2 1762.74 1468.33 Q1762.74 1475.44 1764.54 1479.01 Q1766.37 1482.55 1769.98 1482.55 Q1773.62 1482.55 1775.42 1479.01 Q1777.25 1475.44 1777.25 1468.33 Q1777.25 1461.2 1775.42 1457.66 Q1773.62 1454.1 1769.98 1454.1 M1769.98 1450.39 Q1775.79 1450.39 1778.85 1455 Q1781.93 1459.58 1781.93 1468.33 Q1781.93 1477.06 1778.85 1481.67 Q1775.79 1486.25 1769.98 1486.25 Q1764.17 1486.25 1761.09 1481.67 Q1758.04 1477.06 1758.04 1468.33 Q1758.04 1459.58 1761.09 1455 Q1764.17 1450.39 1769.98 1450.39 Z" fill="#000000" fill-rule="nonzero" fill-opacity="1" /><path clip-path="url(#clip040)" d="M1790.14 1479.7 L1795.03 1479.7 L1795.03 1485.58 L1790.14 1485.58 L1790.14 1479.7 Z" fill="#000000" fill-rule="nonzero" fill-opacity="1" /><path clip-path="url(#clip040)" d="M1804.03 1451.02 L1826.26 1451.02 L1826.26 1453.01 L1813.71 1485.58 L1808.82 1485.58 L1820.63 1454.96 L1804.03 1454.96 L1804.03 1451.02 Z" fill="#000000" fill-rule="nonzero" fill-opacity="1" /><path clip-path="url(#clip040)" d="M1835.42 1451.02 L1853.78 1451.02 L1853.78 1454.96 L1839.7 1454.96 L1839.7 1463.43 Q1840.72 1463.08 1841.74 1462.92 Q1842.76 1462.73 1843.78 1462.73 Q1849.57 1462.73 1852.94 1465.9 Q1856.32 1469.08 1856.32 1474.49 Q1856.32 1480.07 1852.85 1483.17 Q1849.38 1486.25 1843.06 1486.25 Q1840.88 1486.25 1838.62 1485.88 Q1836.37 1485.51 1833.96 1484.77 L1833.96 1480.07 Q1836.05 1481.2 1838.27 1481.76 Q1840.49 1482.32 1842.97 1482.32 Q1846.97 1482.32 1849.31 1480.21 Q1851.65 1478.1 1851.65 1474.49 Q1851.65 1470.88 1849.31 1468.77 Q1846.97 1466.67 1842.97 1466.67 Q1841.09 1466.67 1839.22 1467.08 Q1837.37 1467.5 1835.42 1468.38 L1835.42 1451.02 Z" fill="#000000" fill-rule="nonzero" fill-opacity="1" /><path clip-path="url(#clip040)" d="M2246.37 1481.64 L2254.01 1481.64 L2254.01 1455.28 L2245.7 1456.95 L2245.7 1452.69 L2253.97 1451.02 L2258.64 1451.02 L2258.64 1481.64 L2266.28 1481.64 L2266.28 1485.58 L2246.37 1485.58 L2246.37 1481.64 Z" fill="#000000" fill-rule="nonzero" fill-opacity="1" /><path clip-path="url(#clip040)" d="M2275.73 1479.7 L2280.61 1479.7 L2280.61 1485.58 L2275.73 1485.58 L2275.73 1479.7 Z" fill="#000000" fill-rule="nonzero" fill-opacity="1" /><path clip-path="url(#clip040)" d="M2300.79 1454.1 Q2297.18 1454.1 2295.35 1457.66 Q2293.55 1461.2 2293.55 1468.33 Q2293.55 1475.44 2295.35 1479.01 Q2297.18 1482.55 2300.79 1482.55 Q2304.43 1482.55 2306.23 1479.01 Q2308.06 1475.44 2308.06 1468.33 Q2308.06 1461.2 2306.23 1457.66 Q2304.43 1454.1 2300.79 1454.1 M2300.79 1450.39 Q2306.6 1450.39 2309.66 1455 Q2312.74 1459.58 2312.74 1468.33 Q2312.74 1477.06 2309.66 1481.67 Q2306.6 1486.25 2300.79 1486.25 Q2294.98 1486.25 2291.91 1481.67 Q2288.85 1477.06 2288.85 1468.33 Q2288.85 1459.58 2291.91 1455 Q2294.98 1450.39 2300.79 1450.39 Z" fill="#000000" fill-rule="nonzero" fill-opacity="1" /><path clip-path="url(#clip040)" d="M2330.96 1454.1 Q2327.35 1454.1 2325.52 1457.66 Q2323.71 1461.2 2323.71 1468.33 Q2323.71 1475.44 2325.52 1479.01 Q2327.35 1482.55 2330.96 1482.55 Q2334.59 1482.55 2336.4 1479.01 Q2338.22 1475.44 2338.22 1468.33 Q2338.22 1461.2 2336.4 1457.66 Q2334.59 1454.1 2330.96 1454.1 M2330.96 1450.39 Q2336.77 1450.39 2339.82 1455 Q2342.9 1459.58 2342.9 1468.33 Q2342.9 1477.06 2339.82 1481.67 Q2336.77 1486.25 2330.96 1486.25 Q2325.15 1486.25 2322.07 1481.67 Q2319.01 1477.06 2319.01 1468.33 Q2319.01 1459.58 2322.07 1455 Q2325.15 1450.39 2330.96 1450.39 Z" fill="#000000" fill-rule="nonzero" fill-opacity="1" /><path clip-path="url(#clip040)" d="M1293.12 1528.17 Q1293.12 1529.07 1292.71 1529.3 Q1292.29 1529.49 1291.13 1529.49 L1284.94 1529.49 L1280.05 1548.94 Q1279.66 1550.65 1279.66 1552.1 Q1279.66 1553.71 1280.15 1554.42 Q1280.66 1555.13 1281.72 1555.13 Q1283.82 1555.13 1286.07 1553.23 Q1288.36 1551.33 1290.29 1546.69 Q1290.55 1546.08 1290.68 1545.95 Q1290.84 1545.79 1291.26 1545.79 Q1292.06 1545.79 1292.06 1546.43 Q1292.06 1546.66 1291.61 1547.69 Q1291.19 1548.72 1290.26 1550.23 Q1289.36 1551.75 1288.16 1553.16 Q1287.01 1554.58 1285.23 1555.61 Q1283.46 1556.61 1281.56 1556.61 Q1278.89 1556.61 1277.18 1554.9 Q1275.51 1553.19 1275.51 1550.52 Q1275.51 1549.65 1276.18 1546.88 Q1276.86 1544.08 1280.53 1529.49 L1274.7 1529.49 Q1273.9 1529.49 1273.58 1529.46 Q1273.29 1529.43 1273.06 1529.27 Q1272.87 1529.07 1272.87 1528.69 Q1272.87 1528.07 1273.12 1527.82 Q1273.38 1527.53 1273.7 1527.49 Q1274.06 1527.43 1274.86 1527.43 L1281.05 1527.43 L1283.62 1516.96 Q1283.88 1515.93 1284.53 1515.35 Q1285.2 1514.74 1285.59 1514.68 Q1285.97 1514.58 1286.26 1514.58 Q1287.13 1514.58 1287.65 1515.06 Q1288.16 1515.51 1288.16 1516.35 Q1288.16 1516.8 1285.46 1527.43 L1291.26 1527.43 Q1292 1527.43 1292.29 1527.46 Q1292.61 1527.49 1292.87 1527.66 Q1293.12 1527.82 1293.12 1528.17 Z" fill="#000000" fill-rule="nonzero" fill-opacity="1" /><path clip-path="url(#clip040)" d="M1296.44 1571.42 Q1296.44 1571.1 1296.7 1570.39 L1319.98 1508.17 Q1319.98 1508.11 1320.14 1507.75 Q1320.3 1507.4 1320.4 1507.17 Q1320.5 1506.91 1320.69 1506.72 Q1320.92 1506.53 1321.17 1506.53 Q1321.82 1506.53 1321.82 1507.33 Q1321.82 1507.4 1321.63 1508.17 L1298.28 1570.46 Q1297.89 1571.58 1297.63 1571.91 Q1297.41 1572.23 1297.02 1572.23 Q1296.44 1572.23 1296.44 1571.42 Z" fill="#000000" fill-rule="nonzero" fill-opacity="1" /><path clip-path="url(#clip040)" d="M1373.97 1511.94 Q1373.97 1512.55 1373.84 1513.07 L1372.03 1524.53 Q1371.94 1525.4 1371.74 1525.72 Q1371.58 1526.05 1371.07 1526.05 Q1370.26 1526.05 1370.26 1525.21 Q1370.26 1524.72 1370.46 1523.95 Q1371 1520.31 1371 1518.67 Q1371 1517.58 1370.78 1516.77 Q1370.59 1515.93 1370.26 1515.35 Q1369.97 1514.77 1369.3 1514.39 Q1368.62 1514 1367.98 1513.77 Q1367.33 1513.55 1366.17 1513.45 Q1365.01 1513.32 1364.02 1513.29 Q1363.02 1513.26 1361.37 1513.26 Q1357.8 1513.26 1357.22 1513.39 Q1356.61 1513.55 1356.29 1514.03 Q1356 1514.48 1355.67 1515.84 L1346.91 1550.84 L1346.66 1552.23 Q1346.66 1553 1347.14 1553.26 Q1347.62 1553.52 1349.1 1553.68 Q1351.23 1553.84 1353.32 1553.84 Q1353.39 1553.84 1353.52 1553.84 Q1354.22 1553.84 1354.51 1553.87 Q1354.8 1553.87 1355.09 1553.94 Q1355.38 1554 1355.45 1554.16 Q1355.55 1554.29 1355.55 1554.55 Q1355.55 1555.16 1355.29 1555.48 Q1355.03 1555.77 1354.77 1555.84 Q1354.55 1555.87 1354.1 1555.87 Q1353.19 1555.87 1351.26 1555.8 Q1349.33 1555.74 1348.36 1555.74 L1342.89 1555.67 L1337.28 1555.74 Q1336.41 1555.74 1334.58 1555.8 Q1332.74 1555.87 1331.87 1555.87 Q1330.75 1555.87 1330.75 1555.06 Q1330.75 1554.16 1331.17 1554 Q1331.62 1553.84 1333.52 1553.84 Q1336.19 1553.84 1337.64 1553.71 Q1339.09 1553.58 1339.86 1553.13 Q1340.67 1552.68 1340.89 1552.23 Q1341.12 1551.75 1341.37 1550.65 L1350.23 1515.45 Q1350.49 1514.68 1350.49 1514.06 Q1350.49 1513.74 1350.39 1513.61 Q1350.33 1513.48 1349.91 1513.39 Q1349.49 1513.26 1348.62 1513.26 L1346.04 1513.26 Q1343.4 1513.26 1341.76 1513.39 Q1340.15 1513.48 1338.6 1513.97 Q1337.09 1514.45 1336.19 1515.13 Q1335.32 1515.8 1334.35 1517.19 Q1333.39 1518.57 1332.68 1520.25 Q1332 1521.92 1331.04 1524.66 Q1330.71 1525.56 1330.52 1525.82 Q1330.36 1526.05 1329.91 1526.05 Q1329.59 1526.05 1329.33 1525.85 Q1329.1 1525.63 1329.1 1525.34 Q1329.43 1524.27 1329.49 1524.15 L1333.45 1512.52 Q1333.77 1511.58 1334.06 1511.42 Q1334.39 1511.23 1335.58 1511.23 L1372.16 1511.23 Q1372.74 1511.23 1372.94 1511.23 Q1373.13 1511.23 1373.45 1511.29 Q1373.77 1511.36 1373.87 1511.52 Q1373.97 1511.68 1373.97 1511.94 Z" fill="#000000" fill-rule="nonzero" fill-opacity="1" /><polyline clip-path="url(#clip040)" style="stroke:#000000; stroke-linecap:round; stroke-linejoin:round; stroke-width:4; stroke-opacity:1; fill:none" points="287.366,1423.18 287.366,47.2441 "/>
<polyline clip-path="url(#clip040)" style="stroke:#000000; stroke-linecap:round; stroke-linejoin:round; stroke-width:4; stroke-opacity:1; fill:none" points="287.366,1216.53 306.264,1216.53 "/>
<polyline clip-path="url(#clip040)" style="stroke:#000000; stroke-linecap:round; stroke-linejoin:round; stroke-width:4; stroke-opacity:1; fill:none" points="287.366,975.871 306.264,975.871 "/>
<polyline clip-path="url(#clip040)" style="stroke:#000000; stroke-linecap:round; stroke-linejoin:round; stroke-width:4; stroke-opacity:1; fill:none" points="287.366,735.212 306.264,735.212 "/>
<polyline clip-path="url(#clip040)" style="stroke:#000000; stroke-linecap:round; stroke-linejoin:round; stroke-width:4; stroke-opacity:1; fill:none" points="287.366,494.553 306.264,494.553 "/>
<polyline clip-path="url(#clip040)" style="stroke:#000000; stroke-linecap:round; stroke-linejoin:round; stroke-width:4; stroke-opacity:1; fill:none" points="287.366,253.894 306.264,253.894 "/>
<path clip-path="url(#clip040)" d="M114.26 1216.98 L143.936 1216.98 L143.936 1220.92 L114.26 1220.92 L114.26 1216.98 Z" fill="#000000" fill-rule="nonzero" fill-opacity="1" /><path clip-path="url(#clip040)" d="M164.028 1202.33 Q160.417 1202.33 158.589 1205.89 Q156.783 1209.43 156.783 1216.56 Q156.783 1223.67 158.589 1227.24 Q160.417 1230.78 164.028 1230.78 Q167.663 1230.78 169.468 1227.24 Q171.297 1223.67 171.297 1216.56 Q171.297 1209.43 169.468 1205.89 Q167.663 1202.33 164.028 1202.33 M164.028 1198.62 Q169.839 1198.62 172.894 1203.23 Q175.973 1207.81 175.973 1216.56 Q175.973 1225.29 172.894 1229.9 Q169.839 1234.48 164.028 1234.48 Q158.218 1234.48 155.14 1229.9 Q152.084 1225.29 152.084 1216.56 Q152.084 1207.81 155.14 1203.23 Q158.218 1198.62 164.028 1198.62 Z" fill="#000000" fill-rule="nonzero" fill-opacity="1" /><path clip-path="url(#clip040)" d="M184.19 1227.93 L189.075 1227.93 L189.075 1233.81 L184.19 1233.81 L184.19 1227.93 Z" fill="#000000" fill-rule="nonzero" fill-opacity="1" /><path clip-path="url(#clip040)" d="M199.306 1199.25 L217.662 1199.25 L217.662 1203.18 L203.588 1203.18 L203.588 1211.66 Q204.607 1211.31 205.625 1211.15 Q206.644 1210.96 207.662 1210.96 Q213.449 1210.96 216.829 1214.13 Q220.209 1217.31 220.209 1222.72 Q220.209 1228.3 216.736 1231.4 Q213.264 1234.48 206.945 1234.48 Q204.769 1234.48 202.5 1234.11 Q200.255 1233.74 197.848 1233 L197.848 1228.3 Q199.931 1229.43 202.153 1229.99 Q204.375 1230.55 206.852 1230.55 Q210.857 1230.55 213.195 1228.44 Q215.533 1226.33 215.533 1222.72 Q215.533 1219.11 213.195 1217 Q210.857 1214.9 206.852 1214.9 Q204.977 1214.9 203.102 1215.31 Q201.25 1215.73 199.306 1216.61 L199.306 1199.25 Z" fill="#000000" fill-rule="nonzero" fill-opacity="1" /><path clip-path="url(#clip040)" d="M239.422 1202.33 Q235.81 1202.33 233.982 1205.89 Q232.176 1209.43 232.176 1216.56 Q232.176 1223.67 233.982 1227.24 Q235.81 1230.78 239.422 1230.78 Q243.056 1230.78 244.861 1227.24 Q246.69 1223.67 246.69 1216.56 Q246.69 1209.43 244.861 1205.89 Q243.056 1202.33 239.422 1202.33 M239.422 1198.62 Q245.232 1198.62 248.287 1203.23 Q251.366 1207.81 251.366 1216.56 Q251.366 1225.29 248.287 1229.9 Q245.232 1234.48 239.422 1234.48 Q233.611 1234.48 230.533 1229.9 Q227.477 1225.29 227.477 1216.56 Q227.477 1207.81 230.533 1203.23 Q233.611 1198.62 239.422 1198.62 Z" fill="#000000" fill-rule="nonzero" fill-opacity="1" /><path clip-path="url(#clip040)" d="M115.256 976.322 L144.931 976.322 L144.931 980.257 L115.256 980.257 L115.256 976.322 Z" fill="#000000" fill-rule="nonzero" fill-opacity="1" /><path clip-path="url(#clip040)" d="M165.024 961.67 Q161.413 961.67 159.584 965.234 Q157.778 968.776 157.778 975.906 Q157.778 983.012 159.584 986.577 Q161.413 990.118 165.024 990.118 Q168.658 990.118 170.464 986.577 Q172.292 983.012 172.292 975.906 Q172.292 968.776 170.464 965.234 Q168.658 961.67 165.024 961.67 M165.024 957.966 Q170.834 957.966 173.889 962.572 Q176.968 967.156 176.968 975.906 Q176.968 984.632 173.889 989.239 Q170.834 993.822 165.024 993.822 Q159.214 993.822 156.135 989.239 Q153.079 984.632 153.079 975.906 Q153.079 967.156 156.135 962.572 Q159.214 957.966 165.024 957.966 Z" fill="#000000" fill-rule="nonzero" fill-opacity="1" /><path clip-path="url(#clip040)" d="M185.186 987.271 L190.07 987.271 L190.07 993.151 L185.186 993.151 L185.186 987.271 Z" fill="#000000" fill-rule="nonzero" fill-opacity="1" /><path clip-path="url(#clip040)" d="M204.283 989.216 L220.602 989.216 L220.602 993.151 L198.658 993.151 L198.658 989.216 Q201.32 986.461 205.903 981.831 Q210.51 977.179 211.69 975.836 Q213.936 973.313 214.815 971.577 Q215.718 969.818 215.718 968.128 Q215.718 965.373 213.774 963.637 Q211.852 961.901 208.75 961.901 Q206.551 961.901 204.098 962.665 Q201.667 963.429 198.889 964.98 L198.889 960.257 Q201.713 959.123 204.167 958.545 Q206.621 957.966 208.658 957.966 Q214.028 957.966 217.223 960.651 Q220.417 963.336 220.417 967.827 Q220.417 969.957 219.607 971.878 Q218.82 973.776 216.713 976.369 Q216.135 977.04 213.033 980.257 Q209.931 983.452 204.283 989.216 Z" fill="#000000" fill-rule="nonzero" fill-opacity="1" /><path clip-path="url(#clip040)" d="M230.463 958.591 L248.82 958.591 L248.82 962.526 L234.746 962.526 L234.746 970.998 Q235.764 970.651 236.783 970.489 Q237.801 970.304 238.82 970.304 Q244.607 970.304 247.986 973.475 Q251.366 976.646 251.366 982.063 Q251.366 987.642 247.894 990.743 Q244.421 993.822 238.102 993.822 Q235.926 993.822 233.658 993.452 Q231.412 993.081 229.005 992.341 L229.005 987.642 Q231.088 988.776 233.31 989.331 Q235.533 989.887 238.009 989.887 Q242.014 989.887 244.352 987.78 Q246.69 985.674 246.69 982.063 Q246.69 978.452 244.352 976.345 Q242.014 974.239 238.009 974.239 Q236.135 974.239 234.26 974.656 Q232.408 975.072 230.463 975.952 L230.463 958.591 Z" fill="#000000" fill-rule="nonzero" fill-opacity="1" /><path clip-path="url(#clip040)" d="M164.028 721.011 Q160.417 721.011 158.589 724.575 Q156.783 728.117 156.783 735.247 Q156.783 742.353 158.589 745.918 Q160.417 749.46 164.028 749.46 Q167.663 749.46 169.468 745.918 Q171.297 742.353 171.297 735.247 Q171.297 728.117 169.468 724.575 Q167.663 721.011 164.028 721.011 M164.028 717.307 Q169.839 717.307 172.894 721.913 Q175.973 726.497 175.973 735.247 Q175.973 743.973 172.894 748.58 Q169.839 753.163 164.028 753.163 Q158.218 753.163 155.14 748.58 Q152.084 743.973 152.084 735.247 Q152.084 726.497 155.14 721.913 Q158.218 717.307 164.028 717.307 Z" fill="#000000" fill-rule="nonzero" fill-opacity="1" /><path clip-path="url(#clip040)" d="M184.19 746.612 L189.075 746.612 L189.075 752.492 L184.19 752.492 L184.19 746.612 Z" fill="#000000" fill-rule="nonzero" fill-opacity="1" /><path clip-path="url(#clip040)" d="M209.26 721.011 Q205.649 721.011 203.82 724.575 Q202.014 728.117 202.014 735.247 Q202.014 742.353 203.82 745.918 Q205.649 749.46 209.26 749.46 Q212.894 749.46 214.699 745.918 Q216.528 742.353 216.528 735.247 Q216.528 728.117 214.699 724.575 Q212.894 721.011 209.26 721.011 M209.26 717.307 Q215.07 717.307 218.125 721.913 Q221.204 726.497 221.204 735.247 Q221.204 743.973 218.125 748.58 Q215.07 753.163 209.26 753.163 Q203.449 753.163 200.371 748.58 Q197.315 743.973 197.315 735.247 Q197.315 726.497 200.371 721.913 Q203.449 717.307 209.26 717.307 Z" fill="#000000" fill-rule="nonzero" fill-opacity="1" /><path clip-path="url(#clip040)" d="M239.422 721.011 Q235.81 721.011 233.982 724.575 Q232.176 728.117 232.176 735.247 Q232.176 742.353 233.982 745.918 Q235.81 749.46 239.422 749.46 Q243.056 749.46 244.861 745.918 Q246.69 742.353 246.69 735.247 Q246.69 728.117 244.861 724.575 Q243.056 721.011 239.422 721.011 M239.422 717.307 Q245.232 717.307 248.287 721.913 Q251.366 726.497 251.366 735.247 Q251.366 743.973 248.287 748.58 Q245.232 753.163 239.422 753.163 Q233.611 753.163 230.533 748.58 Q227.477 743.973 227.477 735.247 Q227.477 726.497 230.533 721.913 Q233.611 717.307 239.422 717.307 Z" fill="#000000" fill-rule="nonzero" fill-opacity="1" /><path clip-path="url(#clip040)" d="M165.024 480.352 Q161.413 480.352 159.584 483.917 Q157.778 487.458 157.778 494.588 Q157.778 501.694 159.584 505.259 Q161.413 508.801 165.024 508.801 Q168.658 508.801 170.464 505.259 Q172.292 501.694 172.292 494.588 Q172.292 487.458 170.464 483.917 Q168.658 480.352 165.024 480.352 M165.024 476.648 Q170.834 476.648 173.889 481.255 Q176.968 485.838 176.968 494.588 Q176.968 503.315 173.889 507.921 Q170.834 512.504 165.024 512.504 Q159.214 512.504 156.135 507.921 Q153.079 503.315 153.079 494.588 Q153.079 485.838 156.135 481.255 Q159.214 476.648 165.024 476.648 Z" fill="#000000" fill-rule="nonzero" fill-opacity="1" /><path clip-path="url(#clip040)" d="M185.186 505.954 L190.07 505.954 L190.07 511.833 L185.186 511.833 L185.186 505.954 Z" fill="#000000" fill-rule="nonzero" fill-opacity="1" /><path clip-path="url(#clip040)" d="M204.283 507.898 L220.602 507.898 L220.602 511.833 L198.658 511.833 L198.658 507.898 Q201.32 505.143 205.903 500.514 Q210.51 495.861 211.69 494.518 Q213.936 491.995 214.815 490.259 Q215.718 488.5 215.718 486.81 Q215.718 484.055 213.774 482.319 Q211.852 480.583 208.75 480.583 Q206.551 480.583 204.098 481.347 Q201.667 482.111 198.889 483.662 L198.889 478.94 Q201.713 477.806 204.167 477.227 Q206.621 476.648 208.658 476.648 Q214.028 476.648 217.223 479.333 Q220.417 482.018 220.417 486.509 Q220.417 488.639 219.607 490.56 Q218.82 492.458 216.713 495.051 Q216.135 495.722 213.033 498.94 Q209.931 502.134 204.283 507.898 Z" fill="#000000" fill-rule="nonzero" fill-opacity="1" /><path clip-path="url(#clip040)" d="M230.463 477.273 L248.82 477.273 L248.82 481.208 L234.746 481.208 L234.746 489.68 Q235.764 489.333 236.783 489.171 Q237.801 488.986 238.82 488.986 Q244.607 488.986 247.986 492.157 Q251.366 495.329 251.366 500.745 Q251.366 506.324 247.894 509.426 Q244.421 512.504 238.102 512.504 Q235.926 512.504 233.658 512.134 Q231.412 511.764 229.005 511.023 L229.005 506.324 Q231.088 507.458 233.31 508.014 Q235.533 508.569 238.009 508.569 Q242.014 508.569 244.352 506.463 Q246.69 504.356 246.69 500.745 Q246.69 497.134 244.352 495.028 Q242.014 492.921 238.009 492.921 Q236.135 492.921 234.26 493.338 Q232.408 493.755 230.463 494.634 L230.463 477.273 Z" fill="#000000" fill-rule="nonzero" fill-opacity="1" /><path clip-path="url(#clip040)" d="M164.028 239.693 Q160.417 239.693 158.589 243.258 Q156.783 246.799 156.783 253.929 Q156.783 261.035 158.589 264.6 Q160.417 268.142 164.028 268.142 Q167.663 268.142 169.468 264.6 Q171.297 261.035 171.297 253.929 Q171.297 246.799 169.468 243.258 Q167.663 239.693 164.028 239.693 M164.028 235.989 Q169.839 235.989 172.894 240.596 Q175.973 245.179 175.973 253.929 Q175.973 262.656 172.894 267.262 Q169.839 271.846 164.028 271.846 Q158.218 271.846 155.14 267.262 Q152.084 262.656 152.084 253.929 Q152.084 245.179 155.14 240.596 Q158.218 235.989 164.028 235.989 Z" fill="#000000" fill-rule="nonzero" fill-opacity="1" /><path clip-path="url(#clip040)" d="M184.19 265.295 L189.075 265.295 L189.075 271.174 L184.19 271.174 L184.19 265.295 Z" fill="#000000" fill-rule="nonzero" fill-opacity="1" /><path clip-path="url(#clip040)" d="M199.306 236.614 L217.662 236.614 L217.662 240.549 L203.588 240.549 L203.588 249.022 Q204.607 248.674 205.625 248.512 Q206.644 248.327 207.662 248.327 Q213.449 248.327 216.829 251.498 Q220.209 254.67 220.209 260.086 Q220.209 265.665 216.736 268.767 Q213.264 271.846 206.945 271.846 Q204.769 271.846 202.5 271.475 Q200.255 271.105 197.848 270.364 L197.848 265.665 Q199.931 266.799 202.153 267.355 Q204.375 267.91 206.852 267.91 Q210.857 267.91 213.195 265.804 Q215.533 263.697 215.533 260.086 Q215.533 256.475 213.195 254.369 Q210.857 252.262 206.852 252.262 Q204.977 252.262 203.102 252.679 Q201.25 253.096 199.306 253.975 L199.306 236.614 Z" fill="#000000" fill-rule="nonzero" fill-opacity="1" /><path clip-path="url(#clip040)" d="M239.422 239.693 Q235.81 239.693 233.982 243.258 Q232.176 246.799 232.176 253.929 Q232.176 261.035 233.982 264.6 Q235.81 268.142 239.422 268.142 Q243.056 268.142 244.861 264.6 Q246.69 261.035 246.69 253.929 Q246.69 246.799 244.861 243.258 Q243.056 239.693 239.422 239.693 M239.422 235.989 Q245.232 235.989 248.287 240.596 Q251.366 245.179 251.366 253.929 Q251.366 262.656 248.287 267.262 Q245.232 271.846 239.422 271.846 Q233.611 271.846 230.533 267.262 Q227.477 262.656 227.477 253.929 Q227.477 245.179 230.533 240.596 Q233.611 235.989 239.422 235.989 Z" fill="#000000" fill-rule="nonzero" fill-opacity="1" /><path clip-path="url(#clip040)" d="M52.9488 1069.99 L52.9488 1068.34 Q57.4254 1067.41 58.1017 1066.96 Q59.2289 1066.32 59.3577 1063.51 Q59.3577 1062.93 59.3577 1061.94 L59.3577 1057.52 Q56.3304 1058.33 52.8522 1060.36 Q49.3417 1062.39 46.733 1064.32 Q44.1244 1066.22 40.5817 1067.73 Q37.0069 1069.25 33.6253 1069.25 Q26.8942 1069.25 22.0312 1063.45 Q17.1359 1057.65 17.1359 1049.15 Q17.1359 1040.65 21.9989 1034.82 Q26.8298 1028.96 33.6253 1028.96 Q36.9747 1028.96 40.5173 1030.47 Q44.06 1031.98 46.6686 1033.88 Q49.2773 1035.75 52.82 1037.85 Q56.3304 1039.91 59.3577 1040.71 L59.3577 1036.2 Q59.3577 1032.5 58.6814 1031.76 Q57.9729 1031.02 54.2692 1030.21 Q53.3997 1030.08 52.9488 1029.96 L52.9488 1028.25 L63.6411 1030.41 L63.6411 1040.97 Q63.6411 1041.84 63.3835 1042.23 Q63.1258 1042.61 62.1919 1042.61 Q57.7152 1042.61 48.0857 1039.2 Q38.4561 1035.75 33.6253 1035.75 Q26.4434 1035.75 22.5142 1039.84 Q18.5851 1043.93 18.5851 1049.15 Q18.5851 1054.3 22.482 1058.39 Q26.3789 1062.45 33.6253 1062.45 Q38.5206 1062.45 48.1179 1059.04 Q57.7152 1055.59 62.1275 1055.59 Q63.1902 1055.59 63.4157 1056.01 Q63.6411 1056.4 63.6411 1057.72 L63.6411 1067.8 L52.9488 1069.99 Z" fill="#000000" fill-rule="nonzero" fill-opacity="1" /><path clip-path="url(#clip040)" d="M81.9177 1021.62 Q81.0836 1021.62 80.8356 1021.55 Q80.5876 1021.46 80.2043 1021.1 L70.33 1012.24 Q64.8743 1007.39 60.1175 1007.39 Q57.029 1007.39 54.8197 1009.02 Q52.6104 1010.62 52.6104 1013.57 Q52.6104 1015.6 53.8503 1017.31 Q55.0902 1019.03 57.2995 1019.82 Q57.2544 1019.68 57.2544 1019.21 Q57.2544 1018.06 57.9759 1017.43 Q58.6973 1016.77 59.6667 1016.77 Q60.9066 1016.77 61.5153 1017.58 Q62.1014 1018.37 62.1014 1019.16 Q62.1014 1019.48 62.0338 1019.91 Q61.9662 1020.31 61.3349 1020.97 Q60.6811 1021.62 59.5314 1021.62 Q56.3076 1021.62 53.7376 1019.18 Q51.1675 1016.73 51.1675 1012.98 Q51.1675 1008.75 53.6925 1005.97 Q56.1949 1003.18 60.1175 1003.18 Q61.4927 1003.18 62.7552 1003.61 Q63.9951 1004.01 64.9645 1004.58 Q65.9339 1005.12 67.4895 1006.6 Q69.045 1008.09 70.1497 1009.29 Q71.2543 1010.48 73.5989 1013.17 L78.3557 1018.06 L78.3557 1009.74 Q78.3557 1005.68 77.995 1005.36 Q77.3412 1004.91 73.892 1004.35 L73.892 1003.18 L81.9177 1004.49 L81.9177 1021.62 Z" fill="#000000" fill-rule="nonzero" fill-opacity="1" /><path clip-path="url(#clip040)" d="M45.7217 953.26 Q45.7217 960.358 47.3449 963.095 Q48.9682 965.833 52.8831 965.833 Q56.0023 965.833 57.8483 963.796 Q59.6626 961.727 59.6626 958.194 Q59.6626 953.324 56.2251 950.396 Q52.7558 947.436 47.0266 947.436 L45.7217 947.436 L45.7217 953.26 M43.3027 941.579 L63.6411 941.579 L63.6411 947.436 L58.2303 947.436 Q61.4768 949.441 63.0364 952.433 Q64.5642 955.425 64.5642 959.753 Q64.5642 965.228 61.5086 968.475 Q58.4212 971.689 53.265 971.689 Q47.2494 971.689 44.1939 967.679 Q41.1384 963.637 41.1384 955.648 L41.1384 947.436 L40.5654 947.436 Q36.5232 947.436 34.327 950.109 Q32.099 952.751 32.099 957.557 Q32.099 960.613 32.8311 963.509 Q33.5632 966.406 35.0273 969.079 L29.6164 969.079 Q28.3751 965.865 27.7704 962.841 Q27.1338 959.817 27.1338 956.953 Q27.1338 949.218 31.1442 945.399 Q35.1546 941.579 43.3027 941.579 Z" fill="#000000" fill-rule="nonzero" fill-opacity="1" /><path clip-path="url(#clip040)" d="M17.8717 923.724 L27.9932 923.724 L27.9932 911.661 L32.5446 911.661 L32.5446 923.724 L51.8964 923.724 Q56.2569 923.724 57.4982 922.546 Q58.7395 921.336 58.7395 917.676 L58.7395 911.661 L63.6411 911.661 L63.6411 917.676 Q63.6411 924.456 61.1267 927.034 Q58.5804 929.612 51.8964 929.612 L32.5446 929.612 L32.5446 933.909 L27.9932 933.909 L27.9932 929.612 L17.8717 929.612 L17.8717 923.724 Z" fill="#000000" fill-rule="nonzero" fill-opacity="1" /><path clip-path="url(#clip040)" d="M39.8817 856.531 Q41.6852 856.531 42.7158 857.658 Q43.7142 858.785 43.7142 860.073 Q43.7142 861.297 43.0056 861.941 Q42.2971 862.585 41.3954 862.585 Q40.1715 862.585 39.1087 861.684 Q38.0459 860.782 37.8205 859.429 Q36.9831 860.75 36.9831 862.714 Q36.9831 864.002 37.6595 865.13 Q38.3358 866.225 39.2054 866.901 Q40.0749 867.545 41.3309 868.125 Q42.5548 868.672 43.2955 868.898 Q44.004 869.091 44.777 869.252 L53.7946 871.506 Q58.078 872.601 59.5917 872.601 Q61.4596 872.601 62.7156 871.7 Q63.9395 870.798 63.9395 868.994 Q63.9395 868.286 63.7462 867.481 Q63.5208 866.675 62.9411 865.645 Q62.3292 864.582 61.4274 863.648 Q60.4934 862.682 58.9153 861.748 Q57.3373 860.814 55.3083 860.202 Q54.5998 860.009 54.5998 859.365 Q54.5998 858.56 55.2439 858.56 Q55.7914 858.56 56.9508 859.01 Q58.078 859.429 59.5595 860.363 Q61.0087 861.265 62.3292 862.457 Q63.6174 863.648 64.5192 865.419 Q65.4209 867.191 65.4209 869.123 Q65.4209 871.893 63.9395 873.729 Q62.458 875.564 60.3968 876.241 Q60.6867 876.402 61.0731 876.627 Q61.4596 876.853 62.3292 877.529 Q63.1665 878.173 63.8106 878.914 Q64.4225 879.654 64.9056 880.814 Q65.4209 881.941 65.4209 883.165 Q65.4209 884.711 64.97 886.096 Q64.5192 887.448 63.4886 888.414 Q62.458 889.381 61.0409 889.381 Q59.4628 889.381 58.3678 888.318 Q57.2406 887.223 57.2406 885.741 Q57.2406 884.807 57.7881 884.067 Q58.3356 883.294 59.5273 883.294 Q60.8477 883.294 61.8461 884.195 Q62.8445 885.097 63.1021 886.385 Q63.9395 885.065 63.9395 883.1 Q63.9395 880.975 62.0715 879.3 Q60.2036 877.625 57.0796 876.82 Q49.5756 874.824 46.2262 874.051 Q42.8446 873.278 41.3954 873.278 Q40.0427 873.278 39.1087 873.632 Q38.1748 873.986 37.7561 874.598 Q37.3052 875.178 37.1442 875.725 Q36.9831 876.241 36.9831 876.82 Q36.9831 877.787 37.3696 878.882 Q37.7561 879.944 38.6579 881.233 Q39.5274 882.489 41.3309 883.68 Q43.1345 884.872 45.6143 885.677 Q46.3551 885.838 46.3551 886.546 Q46.3228 887.319 45.6787 887.319 Q45.1312 887.319 44.004 886.901 Q42.8446 886.45 41.3954 885.548 Q39.9461 884.614 38.6579 883.423 Q37.3374 882.199 36.4356 880.427 Q35.5339 878.624 35.5339 876.692 Q35.5339 875.822 35.7271 874.985 Q35.8881 874.115 36.3712 873.084 Q36.8543 872.022 37.9171 871.088 Q38.9799 870.154 40.5258 869.574 Q39.7851 869.188 39.0765 868.672 Q38.368 868.125 37.4984 867.287 Q36.5967 866.418 36.0814 865.226 Q35.5339 864.002 35.5339 862.65 Q35.5339 861.329 35.8881 860.041 Q36.2102 858.753 37.273 857.658 Q38.3036 856.531 39.8817 856.531 Z" fill="#000000" fill-rule="nonzero" fill-opacity="1" /><path clip-path="url(#clip040)" d="M57.3371 849.809 L55.8942 849.809 Q55.8942 844.264 52.941 841.4 Q52.941 840.611 53.1213 840.476 Q53.3017 840.341 54.1358 840.341 L80.039 840.341 Q81.4142 840.341 81.8425 839.665 Q82.2708 838.988 82.2708 836.035 L82.2708 834.57 L83.6911 834.57 Q83.5559 836.193 83.5559 842.054 Q83.5559 847.916 83.6911 849.516 L82.2708 849.516 L82.2708 848.051 Q82.2708 845.143 81.8651 844.444 Q81.4367 843.745 80.039 843.745 L56.1197 843.745 Q57.3371 846.157 57.3371 849.809 Z" fill="#000000" fill-rule="nonzero" fill-opacity="1" /><path clip-path="url(#clip040)" d="M54.6642 809.373 Q53.859 809.309 53.859 808.053 L53.859 767.634 Q53.859 765.734 54.5998 765.702 Q55.4049 765.702 55.3727 767.505 L55.3727 807.602 Q55.4049 809.373 54.6642 809.373 M41.7818 809.373 Q40.9767 809.373 41.0089 807.988 L41.0089 767.699 Q41.0089 765.734 41.7818 765.702 Q42.5226 765.702 42.5226 767.377 L42.5226 808.053 Q42.5226 809.373 41.7818 809.373 Z" fill="#000000" fill-rule="nonzero" fill-opacity="1" /><path clip-path="url(#clip040)" d="M48.384 700.417 Q48.5773 700.417 49.318 700.675 L63.553 705.892 Q64.3903 706.182 64.5514 706.472 Q64.6802 706.762 64.6802 707.954 L64.6802 738.485 Q64.6802 739.225 64.648 739.515 Q64.6158 739.805 64.4547 740.031 Q64.2937 740.256 63.9395 740.256 Q63.2953 740.256 63.0055 740.031 Q62.7156 739.773 62.6834 739.483 Q62.6512 739.193 62.6512 738.485 Q62.6512 736.874 62.5546 735.908 Q62.458 734.942 62.3292 734.33 Q62.1681 733.686 61.7172 733.364 Q61.2664 733.01 60.8799 732.849 Q60.4612 732.688 59.5273 732.462 L24.1008 723.638 Q23.038 723.38 22.877 723.38 Q22.2651 723.38 22.104 723.767 Q21.9108 724.121 21.8142 725.152 L21.6854 727.664 Q21.6854 728.437 21.6532 728.759 Q21.621 729.048 21.4599 729.274 Q21.2989 729.499 20.9446 729.499 Q20.3327 729.499 20.0429 729.274 Q19.7208 729.016 19.6886 728.823 Q19.6242 728.598 19.6242 728.243 L19.8174 719.483 L19.6242 709.725 Q19.6242 708.662 20.4293 708.662 Q21.3311 708.662 21.5243 709.113 Q21.6854 709.564 21.6854 711.174 Q21.6854 714.266 22.0074 715.683 Q22.3295 717.068 22.877 717.454 Q23.3923 717.809 24.7771 718.163 L60.3968 727.084 Q61.5884 727.406 61.9105 727.406 Q62.2647 727.406 62.3936 727.245 Q62.4902 727.052 62.5546 726.536 Q62.6512 725.957 62.6512 725.087 L62.6512 718.904 Q62.6512 717.036 62.3614 715.393 Q62.0715 713.751 61.6528 712.495 Q61.2342 711.206 60.4612 710.047 Q59.6883 708.888 59.012 708.082 Q58.3034 707.245 57.2084 706.44 Q56.0812 705.603 55.3083 705.119 Q54.5031 704.604 53.2149 704.024 Q51.8945 703.445 51.1537 703.155 Q50.3808 702.833 49.0603 702.35 Q48.384 702.06 48.1908 701.963 Q47.9976 701.867 47.8365 701.706 Q47.6755 701.512 47.6755 701.223 Q47.6755 700.836 47.9009 700.643 Q48.1264 700.417 48.384 700.417 Z" fill="#000000" fill-rule="nonzero" fill-opacity="1" /><path clip-path="url(#clip040)" d="M80.2356 695.79 Q79.9136 695.79 79.205 695.532 L16.9833 672.247 Q16.9189 672.247 16.5646 672.086 Q16.2104 671.925 15.9849 671.828 Q15.7273 671.732 15.534 671.539 Q15.3408 671.313 15.3408 671.055 Q15.3408 670.411 16.146 670.411 Q16.2104 670.411 16.9833 670.605 L79.2694 693.954 Q80.3966 694.34 80.7187 694.598 Q81.0408 694.823 81.0408 695.21 Q81.0408 695.79 80.2356 695.79 Z" fill="#000000" fill-rule="nonzero" fill-opacity="1" /><path clip-path="url(#clip040)" d="M64.6802 663.126 Q63.4886 663.126 63.1343 663.029 Q62.78 662.9 62.2325 662.385 L48.1264 649.728 Q40.3326 642.804 33.5371 642.804 Q29.1249 642.804 25.9687 645.122 Q22.8126 647.409 22.8126 651.628 Q22.8126 654.527 24.5839 656.974 Q26.3552 659.422 29.5114 660.549 Q29.447 660.356 29.447 659.679 Q29.447 658.037 30.4776 657.135 Q31.5082 656.201 32.893 656.201 Q34.6643 656.201 35.5339 657.361 Q36.3712 658.488 36.3712 659.615 Q36.3712 660.066 36.2746 660.678 Q36.178 661.258 35.2762 662.192 Q34.3423 663.126 32.6998 663.126 Q28.0943 663.126 24.4229 659.647 Q20.7514 656.137 20.7514 650.791 Q20.7514 644.736 24.3585 640.775 Q27.9333 636.781 33.5371 636.781 Q35.5017 636.781 37.3052 637.393 Q39.0765 637.973 40.4614 638.778 Q41.8462 639.551 44.0684 641.676 Q46.2906 643.802 47.8687 645.509 Q49.4468 647.216 52.7962 651.048 L59.5917 658.037 L59.5917 646.153 Q59.5917 640.356 59.0764 639.905 Q58.1424 639.261 53.2149 638.456 L53.2149 636.781 L64.6802 638.649 L64.6802 663.126 Z" fill="#000000" fill-rule="nonzero" fill-opacity="1" /><path clip-path="url(#clip040)" d="M14.1159 604.139 L14.1159 590.644 L18.6674 590.644 L18.6674 598.283 L67.6833 598.283 L67.6833 590.644 L72.2348 590.644 L72.2348 604.139 L14.1159 604.139 Z" fill="#000000" fill-rule="nonzero" fill-opacity="1" /><path clip-path="url(#clip040)" d="M33.4677 557.51 Q32.8948 558.497 32.6401 559.675 Q32.3537 560.821 32.3537 562.221 Q32.3537 567.186 35.6002 569.86 Q38.8149 572.502 44.8623 572.502 L63.6411 572.502 L63.6411 578.39 L27.9932 578.39 L27.9932 572.502 L33.5313 572.502 Q30.2848 570.656 28.7252 567.696 Q27.1338 564.736 27.1338 560.502 Q27.1338 559.898 27.2293 559.166 Q27.2929 558.433 27.4521 557.542 L33.4677 557.51 Z" fill="#000000" fill-rule="nonzero" fill-opacity="1" /><path clip-path="url(#clip040)" d="M45.7217 535.167 Q45.7217 542.265 47.3449 545.002 Q48.9682 547.739 52.8831 547.739 Q56.0023 547.739 57.8483 545.702 Q59.6626 543.633 59.6626 540.1 Q59.6626 535.23 56.2251 532.302 Q52.7558 529.342 47.0266 529.342 L45.7217 529.342 L45.7217 535.167 M43.3027 523.486 L63.6411 523.486 L63.6411 529.342 L58.2303 529.342 Q61.4768 531.347 63.0364 534.339 Q64.5642 537.331 64.5642 541.66 Q64.5642 547.134 61.5086 550.381 Q58.4212 553.596 53.265 553.596 Q47.2494 553.596 44.1939 549.585 Q41.1384 545.543 41.1384 537.554 L41.1384 529.342 L40.5654 529.342 Q36.5232 529.342 34.327 532.016 Q32.099 534.658 32.099 539.464 Q32.099 542.519 32.8311 545.416 Q33.5632 548.312 35.0273 550.986 L29.6164 550.986 Q28.3751 547.771 27.7704 544.747 Q27.1338 541.724 27.1338 538.859 Q27.1338 531.125 31.1442 527.305 Q35.1546 523.486 43.3027 523.486 Z" fill="#000000" fill-rule="nonzero" fill-opacity="1" /><path clip-path="url(#clip040)" d="M33.404 487.965 L14.1159 487.965 L14.1159 482.109 L63.6411 482.109 L63.6411 487.965 L58.2939 487.965 Q61.4768 489.811 63.0364 492.644 Q64.5642 495.445 64.5642 499.392 Q64.5642 505.853 59.4079 509.927 Q54.2517 513.969 45.849 513.969 Q37.4462 513.969 32.29 509.927 Q27.1338 505.853 27.1338 499.392 Q27.1338 495.445 28.6934 492.644 Q30.2212 489.811 33.404 487.965 M45.849 507.922 Q52.3102 507.922 56.0023 505.28 Q59.6626 502.606 59.6626 497.959 Q59.6626 493.312 56.0023 490.639 Q52.3102 487.965 45.849 487.965 Q39.3878 487.965 35.7275 490.639 Q32.0354 493.312 32.0354 497.959 Q32.0354 502.606 35.7275 505.28 Q39.3878 507.922 45.849 507.922 Z" fill="#000000" fill-rule="nonzero" fill-opacity="1" /><path clip-path="url(#clip040)" d="M16.1211 459.638 L16.1211 454.227 L69.6885 470.778 L69.6885 476.189 L16.1211 459.638 Z" fill="#000000" fill-rule="nonzero" fill-opacity="1" /><path clip-path="url(#clip040)" d="M29.0435 425.358 L34.5817 425.358 Q33.3085 427.841 32.672 430.515 Q32.0354 433.188 32.0354 436.053 Q32.0354 440.413 33.3722 442.609 Q34.709 444.774 37.3826 444.774 Q39.4196 444.774 40.5973 443.214 Q41.7431 441.655 42.7934 436.944 L43.239 434.939 Q44.5758 428.7 47.0266 426.09 Q49.4456 423.449 53.8061 423.449 Q58.7714 423.449 61.6678 427.395 Q64.5642 431.31 64.5642 438.185 Q64.5642 441.05 63.9912 444.169 Q63.4502 447.256 62.3362 450.694 L56.2887 450.694 Q57.9756 447.447 58.835 444.296 Q59.6626 441.145 59.6626 438.058 Q59.6626 433.92 58.2621 431.692 Q56.8298 429.464 54.2517 429.464 Q51.8646 429.464 50.5914 431.088 Q49.3183 432.679 48.1406 438.122 L47.6632 440.159 Q46.5174 445.601 44.1621 448.02 Q41.7749 450.439 37.6372 450.439 Q32.6083 450.439 29.8711 446.874 Q27.1338 443.31 27.1338 436.753 Q27.1338 433.506 27.6112 430.642 Q28.0887 427.777 29.0435 425.358 Z" fill="#000000" fill-rule="nonzero" fill-opacity="1" /><path clip-path="url(#clip040)" d="M14.1159 400.437 L72.2348 400.437 L72.2348 413.932 L67.6833 413.932 L67.6833 406.325 L18.6674 406.325 L18.6674 413.932 L14.1159 413.932 L14.1159 400.437 Z" fill="#000000" fill-rule="nonzero" fill-opacity="1" /><polyline clip-path="url(#clip042)" style="stroke:#000000; stroke-linecap:round; stroke-linejoin:round; stroke-width:8; stroke-opacity:1; fill:none" points="345.82,133.201 365.305,149.33 384.79,167.767 404.275,188.469 423.76,211.339 443.244,236.316 462.729,263.259 482.214,292.091 501.699,322.668 521.184,354.877 540.668,388.564 560.153,423.634 579.638,459.855 599.123,497.089 618.608,535.256 638.093,574.202 657.577,613.641 677.062,653.529 696.547,693.764 716.032,734.176 735.517,774.519 755.001,814.702 774.486,854.669 793.971,894.264 813.456,933.197 832.941,971.401 852.425,1008.76 871.91,1045.12 891.395,1080.24 910.88,1114.04 930.365,1146.41 949.849,1177.13 969.334,1206.09 988.819,1233.22 1008.3,1258.31 1027.79,1281.22 1047.27,1301.96 1066.76,1320.51 1086.24,1336.61 1105.73,1350.21 1125.21,1361.42 1144.7,1370.28 1164.18,1376.52 1183.67,1380.19 1203.15,1381.46 1222.64,1380.28 1242.12,1376.49 1261.61,1370.22 1281.09,1361.57 1300.58,1350.43 1320.06,1336.84 1339.55,1320.98 1359.03,1302.79 1378.52,1282.25 1398,1259.5 1417.48,1234.81 1436.97,1208.04 1456.45,1179.21 1475.94,1148.61 1495.42,1116.47 1514.91,1082.71 1534.39,1047.46 1553.88,1011.05 1573.36,973.61 1592.85,935.203 1612.33,896.08 1631.82,856.424 1651.3,816.267 1670.79,775.829 1690.27,735.45 1709.76,695.086 1729.24,654.763 1748.73,614.785 1768.21,575.527 1787.7,536.783 1807.18,498.605 1826.67,461.44 1846.15,425.466 1865.64,390.526 1885.12,356.865 1904.61,324.699 1924.09,294.111 1943.57,265.185 1963.06,238.143 1982.54,213.07 2002.03,189.966 2021.51,168.969 2041,150.41 2060.48,134.191 2079.97,120.182 2099.45,108.635 2118.94,99.8 2138.42,93.4537 2157.91,89.4739 2177.39,88.0417 2196.88,89.3735 2216.36,93.1718 2235.85,99.3804 2255.33,108.216 2274.82,119.551 2294.3,133.176 "/>
<circle clip-path="url(#clip042)" cx="345.82" cy="130.37" r="18" fill="#0000ff" fill-rule="evenodd" fill-opacity="1" stroke="none"/>
<circle clip-path="url(#clip042)" cx="443.244" cy="233.761" r="18" fill="#0000ff" fill-rule="evenodd" fill-opacity="1" stroke="none"/>
<circle clip-path="url(#clip042)" cx="540.668" cy="386.237" r="18" fill="#0000ff" fill-rule="evenodd" fill-opacity="1" stroke="none"/>
<circle clip-path="url(#clip042)" cx="638.093" cy="572.874" r="18" fill="#0000ff" fill-rule="evenodd" fill-opacity="1" stroke="none"/>
<circle clip-path="url(#clip042)" cx="735.517" cy="775.401" r="18" fill="#0000ff" fill-rule="evenodd" fill-opacity="1" stroke="none"/>
<circle clip-path="url(#clip042)" cx="832.941" cy="973.994" r="18" fill="#0000ff" fill-rule="evenodd" fill-opacity="1" stroke="none"/>
<circle clip-path="url(#clip042)" cx="930.365" cy="1149.21" r="18" fill="#0000ff" fill-rule="evenodd" fill-opacity="1" stroke="none"/>
<circle clip-path="url(#clip042)" cx="1027.79" cy="1283.91" r="18" fill="#0000ff" fill-rule="evenodd" fill-opacity="1" stroke="none"/>
<circle clip-path="url(#clip042)" cx="1125.21" cy="1364.89" r="18" fill="#0000ff" fill-rule="evenodd" fill-opacity="1" stroke="none"/>
<circle clip-path="url(#clip042)" cx="1222.64" cy="1384.24" r="18" fill="#0000ff" fill-rule="evenodd" fill-opacity="1" stroke="none"/>
<circle clip-path="url(#clip042)" cx="1320.06" cy="1340.05" r="18" fill="#0000ff" fill-rule="evenodd" fill-opacity="1" stroke="none"/>
<circle clip-path="url(#clip042)" cx="1417.48" cy="1236.66" r="18" fill="#0000ff" fill-rule="evenodd" fill-opacity="1" stroke="none"/>
<circle clip-path="url(#clip042)" cx="1514.91" cy="1084.19" r="18" fill="#0000ff" fill-rule="evenodd" fill-opacity="1" stroke="none"/>
<circle clip-path="url(#clip042)" cx="1612.33" cy="897.55" r="18" fill="#0000ff" fill-rule="evenodd" fill-opacity="1" stroke="none"/>
<circle clip-path="url(#clip042)" cx="1709.76" cy="695.023" r="18" fill="#0000ff" fill-rule="evenodd" fill-opacity="1" stroke="none"/>
<circle clip-path="url(#clip042)" cx="1807.18" cy="496.43" r="18" fill="#0000ff" fill-rule="evenodd" fill-opacity="1" stroke="none"/>
<circle clip-path="url(#clip042)" cx="1904.61" cy="321.211" r="18" fill="#0000ff" fill-rule="evenodd" fill-opacity="1" stroke="none"/>
<circle clip-path="url(#clip042)" cx="2002.03" cy="186.516" r="18" fill="#0000ff" fill-rule="evenodd" fill-opacity="1" stroke="none"/>
<circle clip-path="url(#clip042)" cx="2099.45" cy="105.532" r="18" fill="#0000ff" fill-rule="evenodd" fill-opacity="1" stroke="none"/>
<circle clip-path="url(#clip042)" cx="2196.88" cy="86.1857" r="18" fill="#0000ff" fill-rule="evenodd" fill-opacity="1" stroke="none"/>
<circle clip-path="url(#clip042)" cx="2294.3" cy="130.37" r="18" fill="#0000ff" fill-rule="evenodd" fill-opacity="1" stroke="none"/>
<path clip-path="url(#clip040)" d="M1810.22 1377.32 L2283.91 1377.32 L2283.91 1221.8 L1810.22 1221.8  Z" fill="#ffffff" fill-rule="evenodd" fill-opacity="1"/>
<polyline clip-path="url(#clip040)" style="stroke:#000000; stroke-linecap:round; stroke-linejoin:round; stroke-width:4; stroke-opacity:1; fill:none" points="1810.22,1377.32 2283.91,1377.32 2283.91,1221.8 1810.22,1221.8 1810.22,1377.32 "/>
<polyline clip-path="url(#clip040)" style="stroke:#000000; stroke-linecap:round; stroke-linejoin:round; stroke-width:8; stroke-opacity:1; fill:none" points="1833.17,1273.64 1970.86,1273.64 "/>
<path clip-path="url(#clip040)" d="M2009.64 1260.96 L2003.3 1278.16 L2016.01 1278.16 L2009.64 1260.96 M2007 1256.36 L2012.3 1256.36 L2025.48 1290.92 L2020.61 1290.92 L2017.47 1282.05 L2001.89 1282.05 L1998.74 1290.92 L1993.81 1290.92 L2007 1256.36 Z" fill="#000000" fill-rule="nonzero" fill-opacity="1" /><path clip-path="url(#clip040)" d="M2051.68 1276.89 L2051.68 1278.97 L2032.1 1278.97 Q2032.37 1283.37 2034.74 1285.68 Q2037.12 1287.98 2041.36 1287.98 Q2043.81 1287.98 2046.1 1287.37 Q2048.42 1286.77 2050.68 1285.57 L2050.68 1289.6 Q2048.39 1290.57 2045.99 1291.08 Q2043.58 1291.59 2041.1 1291.59 Q2034.9 1291.59 2031.26 1287.98 Q2027.65 1284.36 2027.65 1278.21 Q2027.65 1271.84 2031.08 1268.11 Q2034.53 1264.36 2040.36 1264.36 Q2045.59 1264.36 2048.62 1267.74 Q2051.68 1271.1 2051.68 1276.89 M2047.42 1275.64 Q2047.37 1272.14 2045.45 1270.06 Q2043.55 1267.98 2040.41 1267.98 Q2036.84 1267.98 2034.69 1269.99 Q2032.56 1272 2032.24 1275.66 L2047.42 1275.64 Z" fill="#000000" fill-rule="nonzero" fill-opacity="1" /><path clip-path="url(#clip040)" d="M2073.69 1268.97 Q2072.98 1268.55 2072.12 1268.37 Q2071.29 1268.16 2070.27 1268.16 Q2066.66 1268.16 2064.71 1270.52 Q2062.79 1272.86 2062.79 1277.26 L2062.79 1290.92 L2058.51 1290.92 L2058.51 1264.99 L2062.79 1264.99 L2062.79 1269.02 Q2064.13 1266.66 2066.29 1265.52 Q2068.44 1264.36 2071.52 1264.36 Q2071.96 1264.36 2072.49 1264.43 Q2073.02 1264.48 2073.67 1264.6 L2073.69 1268.97 Z" fill="#000000" fill-rule="nonzero" fill-opacity="1" /><path clip-path="url(#clip040)" d="M2087.17 1267.98 Q2083.74 1267.98 2081.75 1270.66 Q2079.76 1273.32 2079.76 1277.98 Q2079.76 1282.63 2081.73 1285.31 Q2083.72 1287.98 2087.17 1287.98 Q2090.57 1287.98 2092.56 1285.29 Q2094.55 1282.61 2094.55 1277.98 Q2094.55 1273.37 2092.56 1270.68 Q2090.57 1267.98 2087.17 1267.98 M2087.17 1264.36 Q2092.72 1264.36 2095.89 1267.98 Q2099.06 1271.59 2099.06 1277.98 Q2099.06 1284.34 2095.89 1287.98 Q2092.72 1291.59 2087.17 1291.59 Q2081.59 1291.59 2078.42 1287.98 Q2075.27 1284.34 2075.27 1277.98 Q2075.27 1271.59 2078.42 1267.98 Q2081.59 1264.36 2087.17 1264.36 Z" fill="#000000" fill-rule="nonzero" fill-opacity="1" /><path clip-path="url(#clip040)" d="M2110.98 1274.41 L2110.98 1287.07 L2118.48 1287.07 Q2122.26 1287.07 2124.06 1285.52 Q2125.89 1283.95 2125.89 1280.73 Q2125.89 1277.49 2124.06 1275.96 Q2122.26 1274.41 2118.48 1274.41 L2110.98 1274.41 M2110.98 1260.2 L2110.98 1270.61 L2117.91 1270.61 Q2121.33 1270.61 2123 1269.34 Q2124.69 1268.05 2124.69 1265.41 Q2124.69 1262.79 2123 1261.49 Q2121.33 1260.2 2117.91 1260.2 L2110.98 1260.2 M2106.31 1256.36 L2118.25 1256.36 Q2123.6 1256.36 2126.49 1258.58 Q2129.39 1260.8 2129.39 1264.9 Q2129.39 1268.07 2127.91 1269.94 Q2126.42 1271.82 2123.55 1272.28 Q2127 1273.02 2128.9 1275.38 Q2130.82 1277.72 2130.82 1281.24 Q2130.82 1285.87 2127.67 1288.39 Q2124.53 1290.92 2118.72 1290.92 L2106.31 1290.92 L2106.31 1256.36 Z" fill="#000000" fill-rule="nonzero" fill-opacity="1" /><path clip-path="url(#clip040)" d="M2160.82 1276.89 L2160.82 1278.97 L2141.24 1278.97 Q2141.52 1283.37 2143.88 1285.68 Q2146.26 1287.98 2150.5 1287.98 Q2152.95 1287.98 2155.24 1287.37 Q2157.56 1286.77 2159.83 1285.57 L2159.83 1289.6 Q2157.54 1290.57 2155.13 1291.08 Q2152.72 1291.59 2150.24 1291.59 Q2144.04 1291.59 2140.41 1287.98 Q2136.79 1284.36 2136.79 1278.21 Q2136.79 1271.84 2140.22 1268.11 Q2143.67 1264.36 2149.5 1264.36 Q2154.73 1264.36 2157.77 1267.74 Q2160.82 1271.1 2160.82 1276.89 M2156.56 1275.64 Q2156.52 1272.14 2154.6 1270.06 Q2152.7 1267.98 2149.55 1267.98 Q2145.98 1267.98 2143.83 1269.99 Q2141.7 1272 2141.38 1275.66 L2156.56 1275.64 Z" fill="#000000" fill-rule="nonzero" fill-opacity="1" /><path clip-path="url(#clip040)" d="M2179.6 1277.88 Q2174.43 1277.88 2172.44 1279.06 Q2170.45 1280.24 2170.45 1283.09 Q2170.45 1285.36 2171.93 1286.7 Q2173.44 1288.02 2176.01 1288.02 Q2179.55 1288.02 2181.68 1285.52 Q2183.83 1283 2183.83 1278.83 L2183.83 1277.88 L2179.6 1277.88 M2188.09 1276.12 L2188.09 1290.92 L2183.83 1290.92 L2183.83 1286.98 Q2182.37 1289.34 2180.2 1290.48 Q2178.02 1291.59 2174.87 1291.59 Q2170.89 1291.59 2168.53 1289.36 Q2166.19 1287.12 2166.19 1283.37 Q2166.19 1278.99 2169.11 1276.77 Q2172.05 1274.55 2177.86 1274.55 L2183.83 1274.55 L2183.83 1274.13 Q2183.83 1271.19 2181.89 1269.6 Q2179.97 1267.98 2176.47 1267.98 Q2174.25 1267.98 2172.14 1268.51 Q2170.04 1269.04 2168.09 1270.11 L2168.09 1266.17 Q2170.43 1265.27 2172.63 1264.83 Q2174.83 1264.36 2176.91 1264.36 Q2182.54 1264.36 2185.31 1267.28 Q2188.09 1270.2 2188.09 1276.12 Z" fill="#000000" fill-rule="nonzero" fill-opacity="1" /><path clip-path="url(#clip040)" d="M2217.05 1269.97 Q2218.65 1267.1 2220.87 1265.73 Q2223.09 1264.36 2226.1 1264.36 Q2230.15 1264.36 2232.35 1267.21 Q2234.55 1270.04 2234.55 1275.27 L2234.55 1290.92 L2230.27 1290.92 L2230.27 1275.41 Q2230.27 1271.68 2228.95 1269.87 Q2227.63 1268.07 2224.92 1268.07 Q2221.61 1268.07 2219.69 1270.27 Q2217.77 1272.47 2217.77 1276.26 L2217.77 1290.92 L2213.48 1290.92 L2213.48 1275.41 Q2213.48 1271.66 2212.16 1269.87 Q2210.85 1268.07 2208.09 1268.07 Q2204.83 1268.07 2202.91 1270.29 Q2200.98 1272.49 2200.98 1276.26 L2200.98 1290.92 L2196.7 1290.92 L2196.7 1264.99 L2200.98 1264.99 L2200.98 1269.02 Q2202.44 1266.63 2204.48 1265.5 Q2206.52 1264.36 2209.32 1264.36 Q2212.14 1264.36 2214.11 1265.8 Q2216.1 1267.23 2217.05 1269.97 Z" fill="#000000" fill-rule="nonzero" fill-opacity="1" /><path clip-path="url(#clip040)" d="M2259.57 1265.75 L2259.57 1269.78 Q2257.77 1268.86 2255.82 1268.39 Q2253.88 1267.93 2251.79 1267.93 Q2248.62 1267.93 2247.03 1268.9 Q2245.45 1269.87 2245.45 1271.82 Q2245.45 1273.3 2246.59 1274.16 Q2247.72 1274.99 2251.15 1275.75 L2252.6 1276.08 Q2257.14 1277.05 2259.04 1278.83 Q2260.96 1280.59 2260.96 1283.76 Q2260.96 1287.37 2258.09 1289.48 Q2255.24 1291.59 2250.24 1291.59 Q2248.16 1291.59 2245.89 1291.17 Q2243.65 1290.78 2241.15 1289.97 L2241.15 1285.57 Q2243.51 1286.79 2245.8 1287.42 Q2248.09 1288.02 2250.34 1288.02 Q2253.35 1288.02 2254.97 1287 Q2256.59 1285.96 2256.59 1284.09 Q2256.59 1282.35 2255.41 1281.42 Q2254.25 1280.5 2250.29 1279.64 L2248.81 1279.3 Q2244.85 1278.46 2243.09 1276.75 Q2241.33 1275.01 2241.33 1272 Q2241.33 1268.35 2243.92 1266.36 Q2246.52 1264.36 2251.28 1264.36 Q2253.65 1264.36 2255.73 1264.71 Q2257.81 1265.06 2259.57 1265.75 Z" fill="#000000" fill-rule="nonzero" fill-opacity="1" /><circle clip-path="url(#clip040)" cx="1902.01" cy="1325.48" r="23.04" fill="#0000ff" fill-rule="evenodd" fill-opacity="1" stroke="none"/>
<path clip-path="url(#clip040)" d="M2009.64 1312.8 L2003.3 1330 L2016.01 1330 L2009.64 1312.8 M2007 1308.2 L2012.3 1308.2 L2025.48 1342.76 L2020.61 1342.76 L2017.47 1333.89 L2001.89 1333.89 L1998.74 1342.76 L1993.81 1342.76 L2007 1308.2 Z" fill="#000000" fill-rule="nonzero" fill-opacity="1" /><path clip-path="url(#clip040)" d="M2051.89 1327.11 L2051.89 1342.76 L2047.63 1342.76 L2047.63 1327.25 Q2047.63 1323.57 2046.19 1321.74 Q2044.76 1319.91 2041.89 1319.91 Q2038.44 1319.91 2036.45 1322.11 Q2034.46 1324.31 2034.46 1328.1 L2034.46 1342.76 L2030.17 1342.76 L2030.17 1316.83 L2034.46 1316.83 L2034.46 1320.86 Q2035.99 1318.52 2038.05 1317.36 Q2040.13 1316.2 2042.84 1316.2 Q2047.3 1316.2 2049.6 1318.98 Q2051.89 1321.74 2051.89 1327.11 Z" fill="#000000" fill-rule="nonzero" fill-opacity="1" /><path clip-path="url(#clip040)" d="M2072.17 1329.72 Q2067 1329.72 2065.01 1330.9 Q2063.02 1332.08 2063.02 1334.93 Q2063.02 1337.2 2064.5 1338.54 Q2066.01 1339.86 2068.58 1339.86 Q2072.12 1339.86 2074.25 1337.36 Q2076.4 1334.84 2076.4 1330.67 L2076.4 1329.72 L2072.17 1329.72 M2080.66 1327.96 L2080.66 1342.76 L2076.4 1342.76 L2076.4 1338.82 Q2074.94 1341.18 2072.77 1342.32 Q2070.59 1343.43 2067.44 1343.43 Q2063.46 1343.43 2061.1 1341.2 Q2058.76 1338.96 2058.76 1335.21 Q2058.76 1330.83 2061.68 1328.61 Q2064.62 1326.39 2070.43 1326.39 L2076.4 1326.39 L2076.4 1325.97 Q2076.4 1323.03 2074.46 1321.44 Q2072.54 1319.82 2069.04 1319.82 Q2066.82 1319.82 2064.71 1320.35 Q2062.61 1320.88 2060.66 1321.95 L2060.66 1318.01 Q2063 1317.11 2065.2 1316.67 Q2067.4 1316.2 2069.48 1316.2 Q2075.11 1316.2 2077.88 1319.12 Q2080.66 1322.04 2080.66 1327.96 Z" fill="#000000" fill-rule="nonzero" fill-opacity="1" /><path clip-path="url(#clip040)" d="M2089.43 1306.74 L2093.69 1306.74 L2093.69 1342.76 L2089.43 1342.76 L2089.43 1306.74 Z" fill="#000000" fill-rule="nonzero" fill-opacity="1" /><path clip-path="url(#clip040)" d="M2113.39 1345.16 Q2111.59 1349.79 2109.87 1351.2 Q2108.16 1352.62 2105.29 1352.62 L2101.89 1352.62 L2101.89 1349.05 L2104.39 1349.05 Q2106.15 1349.05 2107.12 1348.22 Q2108.09 1347.38 2109.27 1344.28 L2110.04 1342.34 L2099.55 1316.83 L2104.06 1316.83 L2112.17 1337.11 L2120.27 1316.83 L2124.78 1316.83 L2113.39 1345.16 Z" fill="#000000" fill-rule="nonzero" fill-opacity="1" /><path clip-path="url(#clip040)" d="M2134.87 1309.47 L2134.87 1316.83 L2143.65 1316.83 L2143.65 1320.14 L2134.87 1320.14 L2134.87 1334.21 Q2134.87 1337.38 2135.73 1338.29 Q2136.61 1339.19 2139.27 1339.19 L2143.65 1339.19 L2143.65 1342.76 L2139.27 1342.76 Q2134.34 1342.76 2132.47 1340.93 Q2130.59 1339.07 2130.59 1334.21 L2130.59 1320.14 L2127.47 1320.14 L2127.47 1316.83 L2130.59 1316.83 L2130.59 1309.47 L2134.87 1309.47 Z" fill="#000000" fill-rule="nonzero" fill-opacity="1" /><path clip-path="url(#clip040)" d="M2149.25 1316.83 L2153.51 1316.83 L2153.51 1342.76 L2149.25 1342.76 L2149.25 1316.83 M2149.25 1306.74 L2153.51 1306.74 L2153.51 1312.13 L2149.25 1312.13 L2149.25 1306.74 Z" fill="#000000" fill-rule="nonzero" fill-opacity="1" /><path clip-path="url(#clip040)" d="M2181.08 1317.82 L2181.08 1321.81 Q2179.27 1320.81 2177.44 1320.32 Q2175.64 1319.82 2173.79 1319.82 Q2169.64 1319.82 2167.35 1322.45 Q2165.06 1325.07 2165.06 1329.82 Q2165.06 1334.56 2167.35 1337.2 Q2169.64 1339.82 2173.79 1339.82 Q2175.64 1339.82 2177.44 1339.33 Q2179.27 1338.82 2181.08 1337.82 L2181.08 1341.76 Q2179.29 1342.59 2177.37 1343.01 Q2175.48 1343.43 2173.32 1343.43 Q2167.47 1343.43 2164.02 1339.75 Q2160.57 1336.07 2160.57 1329.82 Q2160.57 1323.47 2164.04 1319.84 Q2167.54 1316.2 2173.6 1316.2 Q2175.57 1316.2 2177.44 1316.62 Q2179.32 1317.01 2181.08 1317.82 Z" fill="#000000" fill-rule="nonzero" fill-opacity="1" /><path clip-path="url(#clip040)" d="M2200.27 1329.72 Q2195.1 1329.72 2193.11 1330.9 Q2191.12 1332.08 2191.12 1334.93 Q2191.12 1337.2 2192.6 1338.54 Q2194.11 1339.86 2196.68 1339.86 Q2200.22 1339.86 2202.35 1337.36 Q2204.5 1334.84 2204.5 1330.67 L2204.5 1329.72 L2200.27 1329.72 M2208.76 1327.96 L2208.76 1342.76 L2204.5 1342.76 L2204.5 1338.82 Q2203.04 1341.18 2200.87 1342.32 Q2198.69 1343.43 2195.54 1343.43 Q2191.56 1343.43 2189.2 1341.2 Q2186.86 1338.96 2186.86 1335.21 Q2186.86 1330.83 2189.78 1328.61 Q2192.72 1326.39 2198.53 1326.39 L2204.5 1326.39 L2204.5 1325.97 Q2204.5 1323.03 2202.56 1321.44 Q2200.64 1319.82 2197.14 1319.82 Q2194.92 1319.82 2192.81 1320.35 Q2190.71 1320.88 2188.76 1321.95 L2188.76 1318.01 Q2191.1 1317.11 2193.3 1316.67 Q2195.5 1316.2 2197.58 1316.2 Q2203.21 1316.2 2205.98 1319.12 Q2208.76 1322.04 2208.76 1327.96 Z" fill="#000000" fill-rule="nonzero" fill-opacity="1" /><path clip-path="url(#clip040)" d="M2217.54 1306.74 L2221.79 1306.74 L2221.79 1342.76 L2217.54 1342.76 L2217.54 1306.74 Z" fill="#000000" fill-rule="nonzero" fill-opacity="1" /></svg>
