<?xml version="1.0" encoding="utf-8"?>
<svg xmlns="http://www.w3.org/2000/svg" xmlns:xlink="http://www.w3.org/1999/xlink" width="600" height="400" viewBox="0 0 2400 1600">
<defs>
  <clipPath id="clip070">
    <rect x="0" y="0" width="2400" height="1600"/>
  </clipPath>
</defs>
<path clip-path="url(#clip070)" d="M0 1600 L2400 1600 L2400 0 L0 0  Z" fill="#ffffff" fill-rule="evenodd" fill-opacity="1"/>
<defs>
  <clipPath id="clip071">
    <rect x="480" y="0" width="1681" height="1600"/>
  </clipPath>
</defs>
<path clip-path="url(#clip070)" d="M245.431 1423.18 L2352.76 1423.18 L2352.76 47.2441 L245.431 47.2441  Z" fill="#ffffff" fill-rule="evenodd" fill-opacity="1"/>
<defs>
  <clipPath id="clip072">
    <rect x="245" y="47" width="2108" height="1377"/>
  </clipPath>
</defs>
<polyline clip-path="url(#clip072)" style="stroke:#000000; stroke-linecap:round; stroke-linejoin:round; stroke-width:2; stroke-opacity:0.1; fill:none" points="305.072,1423.18 305.072,47.2441 "/>
<polyline clip-path="url(#clip072)" style="stroke:#000000; stroke-linecap:round; stroke-linejoin:round; stroke-width:2; stroke-opacity:0.1; fill:none" points="802.083,1423.18 802.083,47.2441 "/>
<polyline clip-path="url(#clip072)" style="stroke:#000000; stroke-linecap:round; stroke-linejoin:round; stroke-width:2; stroke-opacity:0.1; fill:none" points="1299.09,1423.18 1299.09,47.2441 "/>
<polyline clip-path="url(#clip072)" style="stroke:#000000; stroke-linecap:round; stroke-linejoin:round; stroke-width:2; stroke-opacity:0.1; fill:none" points="1796.1,1423.18 1796.1,47.2441 "/>
<polyline clip-path="url(#clip072)" style="stroke:#000000; stroke-linecap:round; stroke-linejoin:round; stroke-width:2; stroke-opacity:0.1; fill:none" points="2293.11,1423.18 2293.11,47.2441 "/>
<polyline clip-path="url(#clip072)" style="stroke:#000000; stroke-linecap:round; stroke-linejoin:round; stroke-width:2; stroke-opacity:0.1; fill:none" points="245.431,1271.92 2352.76,1271.92 "/>
<polyline clip-path="url(#clip072)" style="stroke:#000000; stroke-linecap:round; stroke-linejoin:round; stroke-width:2; stroke-opacity:0.1; fill:none" points="245.431,1094.38 2352.76,1094.38 "/>
<polyline clip-path="url(#clip072)" style="stroke:#000000; stroke-linecap:round; stroke-linejoin:round; stroke-width:2; stroke-opacity:0.1; fill:none" points="245.431,916.835 2352.76,916.835 "/>
<polyline clip-path="url(#clip072)" style="stroke:#000000; stroke-linecap:round; stroke-linejoin:round; stroke-width:2; stroke-opacity:0.1; fill:none" points="245.431,739.292 2352.76,739.292 "/>
<polyline clip-path="url(#clip072)" style="stroke:#000000; stroke-linecap:round; stroke-linejoin:round; stroke-width:2; stroke-opacity:0.1; fill:none" points="245.431,561.748 2352.76,561.748 "/>
<polyline clip-path="url(#clip072)" style="stroke:#000000; stroke-linecap:round; stroke-linejoin:round; stroke-width:2; stroke-opacity:0.1; fill:none" points="245.431,384.205 2352.76,384.205 "/>
<polyline clip-path="url(#clip072)" style="stroke:#000000; stroke-linecap:round; stroke-linejoin:round; stroke-width:2; stroke-opacity:0.1; fill:none" points="245.431,206.661 2352.76,206.661 "/>
<polyline clip-path="url(#clip070)" style="stroke:#000000; stroke-linecap:round; stroke-linejoin:round; stroke-width:4; stroke-opacity:1; fill:none" points="245.431,1423.18 2352.76,1423.18 "/>
<polyline clip-path="url(#clip070)" style="stroke:#000000; stroke-linecap:round; stroke-linejoin:round; stroke-width:4; stroke-opacity:1; fill:none" points="305.072,1423.18 305.072,1404.28 "/>
<polyline clip-path="url(#clip070)" style="stroke:#000000; stroke-linecap:round; stroke-linejoin:round; stroke-width:4; stroke-opacity:1; fill:none" points="802.083,1423.18 802.083,1404.28 "/>
<polyline clip-path="url(#clip070)" style="stroke:#000000; stroke-linecap:round; stroke-linejoin:round; stroke-width:4; stroke-opacity:1; fill:none" points="1299.09,1423.18 1299.09,1404.28 "/>
<polyline clip-path="url(#clip070)" style="stroke:#000000; stroke-linecap:round; stroke-linejoin:round; stroke-width:4; stroke-opacity:1; fill:none" points="1796.1,1423.18 1796.1,1404.28 "/>
<polyline clip-path="url(#clip070)" style="stroke:#000000; stroke-linecap:round; stroke-linejoin:round; stroke-width:4; stroke-opacity:1; fill:none" points="2293.11,1423.18 2293.11,1404.28 "/>
<path clip-path="url(#clip070)" d="M267.376 1454.1 Q263.765 1454.1 261.936 1457.66 Q260.13 1461.2 260.13 1468.33 Q260.13 1475.44 261.936 1479.01 Q263.765 1482.55 267.376 1482.55 Q271.01 1482.55 272.815 1479.01 Q274.644 1475.44 274.644 1468.33 Q274.644 1461.2 272.815 1457.66 Q271.01 1454.1 267.376 1454.1 M267.376 1450.39 Q273.186 1450.39 276.241 1455 Q279.32 1459.58 279.32 1468.33 Q279.32 1477.06 276.241 1481.67 Q273.186 1486.25 267.376 1486.25 Q261.565 1486.25 258.487 1481.67 Q255.431 1477.06 255.431 1468.33 Q255.431 1459.58 258.487 1455 Q261.565 1450.39 267.376 1450.39 Z" fill="#000000" fill-rule="nonzero" fill-opacity="1" /><path clip-path="url(#clip070)" d="M287.538 1479.7 L292.422 1479.7 L292.422 1485.58 L287.538 1485.58 L287.538 1479.7 Z" fill="#000000" fill-rule="nonzero" fill-opacity="1" /><path clip-path="url(#clip070)" d="M312.607 1454.1 Q308.996 1454.1 307.167 1457.66 Q305.362 1461.2 305.362 1468.33 Q305.362 1475.44 307.167 1479.01 Q308.996 1482.55 312.607 1482.55 Q316.241 1482.55 318.047 1479.01 Q319.875 1475.44 319.875 1468.33 Q319.875 1461.2 318.047 1457.66 Q316.241 1454.1 312.607 1454.1 M312.607 1450.39 Q318.417 1450.39 321.473 1455 Q324.551 1459.58 324.551 1468.33 Q324.551 1477.06 321.473 1481.67 Q318.417 1486.25 312.607 1486.25 Q306.797 1486.25 303.718 1481.67 Q300.662 1477.06 300.662 1468.33 Q300.662 1459.58 303.718 1455 Q306.797 1450.39 312.607 1450.39 Z" fill="#000000" fill-rule="nonzero" fill-opacity="1" /><path clip-path="url(#clip070)" d="M342.769 1454.1 Q339.158 1454.1 337.329 1457.66 Q335.523 1461.2 335.523 1468.33 Q335.523 1475.44 337.329 1479.01 Q339.158 1482.55 342.769 1482.55 Q346.403 1482.55 348.209 1479.01 Q350.037 1475.44 350.037 1468.33 Q350.037 1461.2 348.209 1457.66 Q346.403 1454.1 342.769 1454.1 M342.769 1450.39 Q348.579 1450.39 351.634 1455 Q354.713 1459.58 354.713 1468.33 Q354.713 1477.06 351.634 1481.67 Q348.579 1486.25 342.769 1486.25 Q336.959 1486.25 333.88 1481.67 Q330.824 1477.06 330.824 1468.33 Q330.824 1459.58 333.88 1455 Q336.959 1450.39 342.769 1450.39 Z" fill="#000000" fill-rule="nonzero" fill-opacity="1" /><path clip-path="url(#clip070)" d="M764.884 1454.1 Q761.273 1454.1 759.444 1457.66 Q757.639 1461.2 757.639 1468.33 Q757.639 1475.44 759.444 1479.01 Q761.273 1482.55 764.884 1482.55 Q768.518 1482.55 770.324 1479.01 Q772.152 1475.44 772.152 1468.33 Q772.152 1461.2 770.324 1457.66 Q768.518 1454.1 764.884 1454.1 M764.884 1450.39 Q770.694 1450.39 773.75 1455 Q776.828 1459.58 776.828 1468.33 Q776.828 1477.06 773.75 1481.67 Q770.694 1486.25 764.884 1486.25 Q759.074 1486.25 755.995 1481.67 Q752.94 1477.06 752.94 1468.33 Q752.94 1459.58 755.995 1455 Q759.074 1450.39 764.884 1450.39 Z" fill="#000000" fill-rule="nonzero" fill-opacity="1" /><path clip-path="url(#clip070)" d="M785.046 1479.7 L789.93 1479.7 L789.93 1485.58 L785.046 1485.58 L785.046 1479.7 Z" fill="#000000" fill-rule="nonzero" fill-opacity="1" /><path clip-path="url(#clip070)" d="M804.143 1481.64 L820.462 1481.64 L820.462 1485.58 L798.518 1485.58 L798.518 1481.64 Q801.18 1478.89 805.763 1474.26 Q810.37 1469.61 811.55 1468.27 Q813.796 1465.74 814.675 1464.01 Q815.578 1462.25 815.578 1460.56 Q815.578 1457.8 813.634 1456.07 Q811.712 1454.33 808.611 1454.33 Q806.411 1454.33 803.958 1455.09 Q801.527 1455.86 798.749 1457.41 L798.749 1452.69 Q801.574 1451.55 804.027 1450.97 Q806.481 1450.39 808.518 1450.39 Q813.888 1450.39 817.083 1453.08 Q820.277 1455.77 820.277 1460.26 Q820.277 1462.39 819.467 1464.31 Q818.68 1466.2 816.573 1468.8 Q815.995 1469.47 812.893 1472.69 Q809.791 1475.88 804.143 1481.64 Z" fill="#000000" fill-rule="nonzero" fill-opacity="1" /><path clip-path="url(#clip070)" d="M830.323 1451.02 L848.68 1451.02 L848.68 1454.96 L834.606 1454.96 L834.606 1463.43 Q835.624 1463.08 836.643 1462.92 Q837.661 1462.73 838.68 1462.73 Q844.467 1462.73 847.846 1465.9 Q851.226 1469.08 851.226 1474.49 Q851.226 1480.07 847.754 1483.17 Q844.282 1486.25 837.962 1486.25 Q835.786 1486.25 833.518 1485.88 Q831.272 1485.51 828.865 1484.77 L828.865 1480.07 Q830.948 1481.2 833.171 1481.76 Q835.393 1482.32 837.87 1482.32 Q841.874 1482.32 844.212 1480.21 Q846.55 1478.1 846.55 1474.49 Q846.55 1470.88 844.212 1468.77 Q841.874 1466.67 837.87 1466.67 Q835.995 1466.67 834.12 1467.08 Q832.268 1467.5 830.323 1468.38 L830.323 1451.02 Z" fill="#000000" fill-rule="nonzero" fill-opacity="1" /><path clip-path="url(#clip070)" d="M1261.4 1454.1 Q1257.79 1454.1 1255.96 1457.66 Q1254.15 1461.2 1254.15 1468.33 Q1254.15 1475.44 1255.96 1479.01 Q1257.79 1482.55 1261.4 1482.55 Q1265.03 1482.55 1266.84 1479.01 Q1268.67 1475.44 1268.67 1468.33 Q1268.67 1461.2 1266.84 1457.66 Q1265.03 1454.1 1261.4 1454.1 M1261.4 1450.39 Q1267.21 1450.39 1270.26 1455 Q1273.34 1459.58 1273.34 1468.33 Q1273.34 1477.06 1270.26 1481.67 Q1267.21 1486.25 1261.4 1486.25 Q1255.59 1486.25 1252.51 1481.67 Q1249.45 1477.06 1249.45 1468.33 Q1249.45 1459.58 1252.51 1455 Q1255.59 1450.39 1261.4 1450.39 Z" fill="#000000" fill-rule="nonzero" fill-opacity="1" /><path clip-path="url(#clip070)" d="M1281.56 1479.7 L1286.44 1479.7 L1286.44 1485.58 L1281.56 1485.58 L1281.56 1479.7 Z" fill="#000000" fill-rule="nonzero" fill-opacity="1" /><path clip-path="url(#clip070)" d="M1296.67 1451.02 L1315.03 1451.02 L1315.03 1454.96 L1300.96 1454.96 L1300.96 1463.43 Q1301.98 1463.08 1302.99 1462.92 Q1304.01 1462.73 1305.03 1462.73 Q1310.82 1462.73 1314.2 1465.9 Q1317.58 1469.08 1317.58 1474.49 Q1317.58 1480.07 1314.1 1483.17 Q1310.63 1486.25 1304.31 1486.25 Q1302.14 1486.25 1299.87 1485.88 Q1297.62 1485.51 1295.22 1484.77 L1295.22 1480.07 Q1297.3 1481.2 1299.52 1481.76 Q1301.74 1482.32 1304.22 1482.32 Q1308.23 1482.32 1310.56 1480.21 Q1312.9 1478.1 1312.9 1474.49 Q1312.9 1470.88 1310.56 1468.77 Q1308.23 1466.67 1304.22 1466.67 Q1302.35 1466.67 1300.47 1467.08 Q1298.62 1467.5 1296.67 1468.38 L1296.67 1451.02 Z" fill="#000000" fill-rule="nonzero" fill-opacity="1" /><path clip-path="url(#clip070)" d="M1336.79 1454.1 Q1333.18 1454.1 1331.35 1457.66 Q1329.54 1461.2 1329.54 1468.33 Q1329.54 1475.44 1331.35 1479.01 Q1333.18 1482.55 1336.79 1482.55 Q1340.42 1482.55 1342.23 1479.01 Q1344.06 1475.44 1344.06 1468.33 Q1344.06 1461.2 1342.23 1457.66 Q1340.42 1454.1 1336.79 1454.1 M1336.79 1450.39 Q1342.6 1450.39 1345.66 1455 Q1348.73 1459.58 1348.73 1468.33 Q1348.73 1477.06 1345.66 1481.67 Q1342.6 1486.25 1336.79 1486.25 Q1330.98 1486.25 1327.9 1481.67 Q1324.85 1477.06 1324.85 1468.33 Q1324.85 1459.58 1327.9 1455 Q1330.98 1450.39 1336.79 1450.39 Z" fill="#000000" fill-rule="nonzero" fill-opacity="1" /><path clip-path="url(#clip070)" d="M1758.91 1454.1 Q1755.29 1454.1 1753.47 1457.66 Q1751.66 1461.2 1751.66 1468.33 Q1751.66 1475.44 1753.47 1479.01 Q1755.29 1482.55 1758.91 1482.55 Q1762.54 1482.55 1764.34 1479.01 Q1766.17 1475.44 1766.17 1468.33 Q1766.17 1461.2 1764.34 1457.66 Q1762.54 1454.1 1758.91 1454.1 M1758.91 1450.39 Q1764.72 1450.39 1767.77 1455 Q1770.85 1459.58 1770.85 1468.33 Q1770.85 1477.06 1767.77 1481.67 Q1764.72 1486.25 1758.91 1486.25 Q1753.09 1486.25 1750.02 1481.67 Q1746.96 1477.06 1746.96 1468.33 Q1746.96 1459.58 1750.02 1455 Q1753.09 1450.39 1758.91 1450.39 Z" fill="#000000" fill-rule="nonzero" fill-opacity="1" /><path clip-path="url(#clip070)" d="M1779.07 1479.7 L1783.95 1479.7 L1783.95 1485.58 L1779.07 1485.58 L1779.07 1479.7 Z" fill="#000000" fill-rule="nonzero" fill-opacity="1" /><path clip-path="url(#clip070)" d="M1792.96 1451.02 L1815.18 1451.02 L1815.18 1453.01 L1802.63 1485.58 L1797.75 1485.58 L1809.55 1454.96 L1792.96 1454.96 L1792.96 1451.02 Z" fill="#000000" fill-rule="nonzero" fill-opacity="1" /><path clip-path="url(#clip070)" d="M1824.34 1451.02 L1842.7 1451.02 L1842.7 1454.96 L1828.63 1454.96 L1828.63 1463.43 Q1829.65 1463.08 1830.66 1462.92 Q1831.68 1462.73 1832.7 1462.73 Q1838.49 1462.73 1841.87 1465.9 Q1845.25 1469.08 1845.25 1474.49 Q1845.25 1480.07 1841.78 1483.17 Q1838.3 1486.25 1831.98 1486.25 Q1829.81 1486.25 1827.54 1485.88 Q1825.29 1485.51 1822.89 1484.77 L1822.89 1480.07 Q1824.97 1481.2 1827.19 1481.76 Q1829.41 1482.32 1831.89 1482.32 Q1835.9 1482.32 1838.23 1480.21 Q1840.57 1478.1 1840.57 1474.49 Q1840.57 1470.88 1838.23 1468.77 Q1835.9 1466.67 1831.89 1466.67 Q1830.02 1466.67 1828.14 1467.08 Q1826.29 1467.5 1824.34 1468.38 L1824.34 1451.02 Z" fill="#000000" fill-rule="nonzero" fill-opacity="1" /><path clip-path="url(#clip070)" d="M2245.19 1481.64 L2252.83 1481.64 L2252.83 1455.28 L2244.52 1456.95 L2244.52 1452.69 L2252.78 1451.02 L2257.46 1451.02 L2257.46 1481.64 L2265.09 1481.64 L2265.09 1485.58 L2245.19 1485.58 L2245.19 1481.64 Z" fill="#000000" fill-rule="nonzero" fill-opacity="1" /><path clip-path="url(#clip070)" d="M2274.54 1479.7 L2279.42 1479.7 L2279.42 1485.58 L2274.54 1485.58 L2274.54 1479.7 Z" fill="#000000" fill-rule="nonzero" fill-opacity="1" /><path clip-path="url(#clip070)" d="M2299.61 1454.1 Q2296 1454.1 2294.17 1457.66 Q2292.36 1461.2 2292.36 1468.33 Q2292.36 1475.44 2294.17 1479.01 Q2296 1482.55 2299.61 1482.55 Q2303.24 1482.55 2305.05 1479.01 Q2306.88 1475.44 2306.88 1468.33 Q2306.88 1461.2 2305.05 1457.66 Q2303.24 1454.1 2299.61 1454.1 M2299.61 1450.39 Q2305.42 1450.39 2308.47 1455 Q2311.55 1459.58 2311.55 1468.33 Q2311.55 1477.06 2308.47 1481.67 Q2305.42 1486.25 2299.61 1486.25 Q2293.8 1486.25 2290.72 1481.67 Q2287.66 1477.06 2287.66 1468.33 Q2287.66 1459.58 2290.72 1455 Q2293.8 1450.39 2299.61 1450.39 Z" fill="#000000" fill-rule="nonzero" fill-opacity="1" /><path clip-path="url(#clip070)" d="M2329.77 1454.1 Q2326.16 1454.1 2324.33 1457.66 Q2322.52 1461.2 2322.52 1468.33 Q2322.52 1475.44 2324.33 1479.01 Q2326.16 1482.55 2329.77 1482.55 Q2333.4 1482.55 2335.21 1479.01 Q2337.04 1475.44 2337.04 1468.33 Q2337.04 1461.2 2335.21 1457.66 Q2333.4 1454.1 2329.77 1454.1 M2329.77 1450.39 Q2335.58 1450.39 2338.64 1455 Q2341.71 1459.58 2341.71 1468.33 Q2341.71 1477.06 2338.64 1481.67 Q2335.58 1486.25 2329.77 1486.25 Q2323.96 1486.25 2320.88 1481.67 Q2317.83 1477.06 2317.83 1468.33 Q2317.83 1459.58 2320.88 1455 Q2323.96 1450.39 2329.77 1450.39 Z" fill="#000000" fill-rule="nonzero" fill-opacity="1" /><path clip-path="url(#clip070)" d="M1272.16 1528.17 Q1272.16 1529.07 1271.74 1529.3 Q1271.32 1529.49 1270.16 1529.49 L1263.98 1529.49 L1259.08 1548.94 Q1258.7 1550.65 1258.7 1552.1 Q1258.7 1553.71 1259.18 1554.42 Q1259.69 1555.13 1260.76 1555.13 Q1262.85 1555.13 1265.1 1553.23 Q1267.39 1551.33 1269.32 1546.69 Q1269.58 1546.08 1269.71 1545.95 Q1269.87 1545.79 1270.29 1545.79 Q1271.09 1545.79 1271.09 1546.43 Q1271.09 1546.66 1270.64 1547.69 Q1270.22 1548.72 1269.29 1550.23 Q1268.39 1551.75 1267.2 1553.16 Q1266.04 1554.58 1264.27 1555.61 Q1262.5 1556.61 1260.6 1556.61 Q1257.92 1556.61 1256.22 1554.9 Q1254.54 1553.19 1254.54 1550.52 Q1254.54 1549.65 1255.22 1546.88 Q1255.89 1544.08 1259.56 1529.49 L1253.74 1529.49 Q1252.93 1529.49 1252.61 1529.46 Q1252.32 1529.43 1252.09 1529.27 Q1251.9 1529.07 1251.9 1528.69 Q1251.9 1528.07 1252.16 1527.82 Q1252.41 1527.53 1252.74 1527.49 Q1253.09 1527.43 1253.9 1527.43 L1260.08 1527.43 L1262.66 1516.96 Q1262.91 1515.93 1263.56 1515.35 Q1264.23 1514.74 1264.62 1514.68 Q1265.01 1514.58 1265.3 1514.58 Q1266.17 1514.58 1266.68 1515.06 Q1267.2 1515.51 1267.2 1516.35 Q1267.2 1516.8 1264.49 1527.43 L1270.29 1527.43 Q1271.03 1527.43 1271.32 1527.46 Q1271.64 1527.49 1271.9 1527.66 Q1272.16 1527.82 1272.16 1528.17 Z" fill="#000000" fill-rule="nonzero" fill-opacity="1" /><path clip-path="url(#clip070)" d="M1275.47 1571.42 Q1275.47 1571.1 1275.73 1570.39 L1299.02 1508.17 Q1299.02 1508.11 1299.18 1507.75 Q1299.34 1507.4 1299.43 1507.17 Q1299.53 1506.91 1299.72 1506.72 Q1299.95 1506.53 1300.21 1506.53 Q1300.85 1506.53 1300.85 1507.33 Q1300.85 1507.4 1300.66 1508.17 L1277.31 1570.46 Q1276.92 1571.58 1276.66 1571.91 Q1276.44 1572.23 1276.05 1572.23 Q1275.47 1572.23 1275.47 1571.42 Z" fill="#000000" fill-rule="nonzero" fill-opacity="1" /><path clip-path="url(#clip070)" d="M1353 1511.94 Q1353 1512.55 1352.87 1513.07 L1351.07 1524.53 Q1350.97 1525.4 1350.78 1525.72 Q1350.62 1526.05 1350.1 1526.05 Q1349.3 1526.05 1349.3 1525.21 Q1349.3 1524.72 1349.49 1523.95 Q1350.04 1520.31 1350.04 1518.67 Q1350.04 1517.58 1349.81 1516.77 Q1349.62 1515.93 1349.3 1515.35 Q1349.01 1514.77 1348.33 1514.39 Q1347.65 1514 1347.01 1513.77 Q1346.36 1513.55 1345.21 1513.45 Q1344.05 1513.32 1343.05 1513.29 Q1342.05 1513.26 1340.41 1513.26 Q1336.83 1513.26 1336.25 1513.39 Q1335.64 1513.55 1335.32 1514.03 Q1335.03 1514.48 1334.71 1515.84 L1325.95 1550.84 L1325.69 1552.23 Q1325.69 1553 1326.17 1553.26 Q1326.66 1553.52 1328.14 1553.68 Q1330.26 1553.84 1332.36 1553.84 Q1332.42 1553.84 1332.55 1553.84 Q1333.26 1553.84 1333.55 1553.87 Q1333.84 1553.87 1334.13 1553.94 Q1334.42 1554 1334.48 1554.16 Q1334.58 1554.29 1334.58 1554.55 Q1334.58 1555.16 1334.32 1555.48 Q1334.06 1555.77 1333.8 1555.84 Q1333.58 1555.87 1333.13 1555.87 Q1332.23 1555.87 1330.29 1555.8 Q1328.36 1555.74 1327.4 1555.74 L1321.92 1555.67 L1316.32 1555.74 Q1315.45 1555.74 1313.61 1555.8 Q1311.78 1555.87 1310.91 1555.87 Q1309.78 1555.87 1309.78 1555.06 Q1309.78 1554.16 1310.2 1554 Q1310.65 1553.84 1312.55 1553.84 Q1315.22 1553.84 1316.67 1553.71 Q1318.12 1553.58 1318.89 1553.13 Q1319.7 1552.68 1319.92 1552.23 Q1320.15 1551.75 1320.41 1550.65 L1329.26 1515.45 Q1329.52 1514.68 1329.52 1514.06 Q1329.52 1513.74 1329.42 1513.61 Q1329.36 1513.48 1328.94 1513.39 Q1328.52 1513.26 1327.65 1513.26 L1325.08 1513.26 Q1322.44 1513.26 1320.79 1513.39 Q1319.18 1513.48 1317.64 1513.97 Q1316.12 1514.45 1315.22 1515.13 Q1314.35 1515.8 1313.39 1517.19 Q1312.42 1518.57 1311.71 1520.25 Q1311.04 1521.92 1310.07 1524.66 Q1309.75 1525.56 1309.55 1525.82 Q1309.39 1526.05 1308.94 1526.05 Q1308.62 1526.05 1308.36 1525.85 Q1308.14 1525.63 1308.14 1525.34 Q1308.46 1524.27 1308.52 1524.15 L1312.48 1512.52 Q1312.81 1511.58 1313.1 1511.42 Q1313.42 1511.23 1314.61 1511.23 L1351.2 1511.23 Q1351.78 1511.23 1351.97 1511.23 Q1352.16 1511.23 1352.48 1511.29 Q1352.81 1511.36 1352.9 1511.52 Q1353 1511.68 1353 1511.94 Z" fill="#000000" fill-rule="nonzero" fill-opacity="1" /><polyline clip-path="url(#clip070)" style="stroke:#000000; stroke-linecap:round; stroke-linejoin:round; stroke-width:4; stroke-opacity:1; fill:none" points="245.431,1423.18 245.431,47.2441 "/>
<polyline clip-path="url(#clip070)" style="stroke:#000000; stroke-linecap:round; stroke-linejoin:round; stroke-width:4; stroke-opacity:1; fill:none" points="245.431,1271.92 264.329,1271.92 "/>
<polyline clip-path="url(#clip070)" style="stroke:#000000; stroke-linecap:round; stroke-linejoin:round; stroke-width:4; stroke-opacity:1; fill:none" points="245.431,1094.38 264.329,1094.38 "/>
<polyline clip-path="url(#clip070)" style="stroke:#000000; stroke-linecap:round; stroke-linejoin:round; stroke-width:4; stroke-opacity:1; fill:none" points="245.431,916.835 264.329,916.835 "/>
<polyline clip-path="url(#clip070)" style="stroke:#000000; stroke-linecap:round; stroke-linejoin:round; stroke-width:4; stroke-opacity:1; fill:none" points="245.431,739.292 264.329,739.292 "/>
<polyline clip-path="url(#clip070)" style="stroke:#000000; stroke-linecap:round; stroke-linejoin:round; stroke-width:4; stroke-opacity:1; fill:none" points="245.431,561.748 264.329,561.748 "/>
<polyline clip-path="url(#clip070)" style="stroke:#000000; stroke-linecap:round; stroke-linejoin:round; stroke-width:4; stroke-opacity:1; fill:none" points="245.431,384.205 264.329,384.205 "/>
<polyline clip-path="url(#clip070)" style="stroke:#000000; stroke-linecap:round; stroke-linejoin:round; stroke-width:4; stroke-opacity:1; fill:none" points="245.431,206.661 264.329,206.661 "/>
<path clip-path="url(#clip070)" d="M117.556 1272.37 L147.232 1272.37 L147.232 1276.31 L117.556 1276.31 L117.556 1272.37 Z" fill="#000000" fill-rule="nonzero" fill-opacity="1" /><path clip-path="url(#clip070)" d="M171.491 1270.57 Q174.848 1271.29 176.723 1273.55 Q178.621 1275.82 178.621 1279.16 Q178.621 1284.27 175.102 1287.07 Q171.584 1289.87 165.102 1289.87 Q162.927 1289.87 160.612 1289.43 Q158.32 1289.02 155.866 1288.16 L155.866 1283.65 Q157.811 1284.78 160.126 1285.36 Q162.44 1285.94 164.964 1285.94 Q169.362 1285.94 171.653 1284.2 Q173.968 1282.47 173.968 1279.16 Q173.968 1276.1 171.815 1274.39 Q169.686 1272.65 165.866 1272.65 L161.839 1272.65 L161.839 1268.81 L166.052 1268.81 Q169.501 1268.81 171.329 1267.44 Q173.158 1266.05 173.158 1263.46 Q173.158 1260.8 171.26 1259.39 Q169.385 1257.95 165.866 1257.95 Q163.945 1257.95 161.746 1258.37 Q159.547 1258.79 156.908 1259.67 L156.908 1255.5 Q159.57 1254.76 161.885 1254.39 Q164.223 1254.02 166.283 1254.02 Q171.607 1254.02 174.709 1256.45 Q177.811 1258.86 177.811 1262.98 Q177.811 1265.85 176.167 1267.84 Q174.524 1269.8 171.491 1270.57 Z" fill="#000000" fill-rule="nonzero" fill-opacity="1" /><path clip-path="url(#clip070)" d="M197.487 1257.72 Q193.875 1257.72 192.047 1261.29 Q190.241 1264.83 190.241 1271.96 Q190.241 1279.06 192.047 1282.63 Q193.875 1286.17 197.487 1286.17 Q201.121 1286.17 202.926 1282.63 Q204.755 1279.06 204.755 1271.96 Q204.755 1264.83 202.926 1261.29 Q201.121 1257.72 197.487 1257.72 M197.487 1254.02 Q203.297 1254.02 206.352 1258.62 Q209.431 1263.21 209.431 1271.96 Q209.431 1280.68 206.352 1285.29 Q203.297 1289.87 197.487 1289.87 Q191.676 1289.87 188.598 1285.29 Q185.542 1280.68 185.542 1271.96 Q185.542 1263.21 188.598 1258.62 Q191.676 1254.02 197.487 1254.02 Z" fill="#000000" fill-rule="nonzero" fill-opacity="1" /><path clip-path="url(#clip070)" d="M117.556 1094.83 L147.232 1094.83 L147.232 1098.77 L117.556 1098.77 L117.556 1094.83 Z" fill="#000000" fill-rule="nonzero" fill-opacity="1" /><path clip-path="url(#clip070)" d="M161.352 1107.72 L177.672 1107.72 L177.672 1111.66 L155.727 1111.66 L155.727 1107.72 Q158.39 1104.97 162.973 1100.34 Q167.579 1095.69 168.76 1094.34 Q171.005 1091.82 171.885 1090.08 Q172.788 1088.33 172.788 1086.64 Q172.788 1083.88 170.843 1082.14 Q168.922 1080.41 165.82 1080.41 Q163.621 1080.41 161.167 1081.17 Q158.737 1081.94 155.959 1083.49 L155.959 1078.77 Q158.783 1077.63 161.237 1077.05 Q163.69 1076.47 165.727 1076.47 Q171.098 1076.47 174.292 1079.16 Q177.487 1081.84 177.487 1086.33 Q177.487 1088.46 176.676 1090.39 Q175.889 1092.28 173.783 1094.88 Q173.204 1095.55 170.102 1098.77 Q167.001 1101.96 161.352 1107.72 Z" fill="#000000" fill-rule="nonzero" fill-opacity="1" /><path clip-path="url(#clip070)" d="M197.487 1080.18 Q193.875 1080.18 192.047 1083.74 Q190.241 1087.28 190.241 1094.41 Q190.241 1101.52 192.047 1105.08 Q193.875 1108.63 197.487 1108.63 Q201.121 1108.63 202.926 1105.08 Q204.755 1101.52 204.755 1094.41 Q204.755 1087.28 202.926 1083.74 Q201.121 1080.18 197.487 1080.18 M197.487 1076.47 Q203.297 1076.47 206.352 1081.08 Q209.431 1085.66 209.431 1094.41 Q209.431 1103.14 206.352 1107.75 Q203.297 1112.33 197.487 1112.33 Q191.676 1112.33 188.598 1107.75 Q185.542 1103.14 185.542 1094.41 Q185.542 1085.66 188.598 1081.08 Q191.676 1076.47 197.487 1076.47 Z" fill="#000000" fill-rule="nonzero" fill-opacity="1" /><path clip-path="url(#clip070)" d="M117.556 917.287 L147.232 917.287 L147.232 921.222 L117.556 921.222 L117.556 917.287 Z" fill="#000000" fill-rule="nonzero" fill-opacity="1" /><path clip-path="url(#clip070)" d="M158.135 930.18 L165.774 930.18 L165.774 903.814 L157.464 905.481 L157.464 901.222 L165.727 899.555 L170.403 899.555 L170.403 930.18 L178.042 930.18 L178.042 934.115 L158.135 934.115 L158.135 930.18 Z" fill="#000000" fill-rule="nonzero" fill-opacity="1" /><path clip-path="url(#clip070)" d="M197.487 902.634 Q193.875 902.634 192.047 906.199 Q190.241 909.74 190.241 916.87 Q190.241 923.976 192.047 927.541 Q193.875 931.083 197.487 931.083 Q201.121 931.083 202.926 927.541 Q204.755 923.976 204.755 916.87 Q204.755 909.74 202.926 906.199 Q201.121 902.634 197.487 902.634 M197.487 898.93 Q203.297 898.93 206.352 903.537 Q209.431 908.12 209.431 916.87 Q209.431 925.597 206.352 930.203 Q203.297 934.786 197.487 934.786 Q191.676 934.786 188.598 930.203 Q185.542 925.597 185.542 916.87 Q185.542 908.12 188.598 903.537 Q191.676 898.93 197.487 898.93 Z" fill="#000000" fill-rule="nonzero" fill-opacity="1" /><path clip-path="url(#clip070)" d="M197.487 725.09 Q193.875 725.09 192.047 728.655 Q190.241 732.197 190.241 739.326 Q190.241 746.433 192.047 749.998 Q193.875 753.539 197.487 753.539 Q201.121 753.539 202.926 749.998 Q204.755 746.433 204.755 739.326 Q204.755 732.197 202.926 728.655 Q201.121 725.09 197.487 725.09 M197.487 721.387 Q203.297 721.387 206.352 725.993 Q209.431 730.576 209.431 739.326 Q209.431 748.053 206.352 752.66 Q203.297 757.243 197.487 757.243 Q191.676 757.243 188.598 752.66 Q185.542 748.053 185.542 739.326 Q185.542 730.576 188.598 725.993 Q191.676 721.387 197.487 721.387 Z" fill="#000000" fill-rule="nonzero" fill-opacity="1" /><path clip-path="url(#clip070)" d="M158.135 575.093 L165.774 575.093 L165.774 548.727 L157.464 550.394 L157.464 546.135 L165.727 544.468 L170.403 544.468 L170.403 575.093 L178.042 575.093 L178.042 579.028 L158.135 579.028 L158.135 575.093 Z" fill="#000000" fill-rule="nonzero" fill-opacity="1" /><path clip-path="url(#clip070)" d="M197.487 547.547 Q193.875 547.547 192.047 551.112 Q190.241 554.653 190.241 561.783 Q190.241 568.889 192.047 572.454 Q193.875 575.996 197.487 575.996 Q201.121 575.996 202.926 572.454 Q204.755 568.889 204.755 561.783 Q204.755 554.653 202.926 551.112 Q201.121 547.547 197.487 547.547 M197.487 543.843 Q203.297 543.843 206.352 548.45 Q209.431 553.033 209.431 561.783 Q209.431 570.51 206.352 575.116 Q203.297 579.699 197.487 579.699 Q191.676 579.699 188.598 575.116 Q185.542 570.51 185.542 561.783 Q185.542 553.033 188.598 548.45 Q191.676 543.843 197.487 543.843 Z" fill="#000000" fill-rule="nonzero" fill-opacity="1" /><path clip-path="url(#clip070)" d="M161.352 397.549 L177.672 397.549 L177.672 401.485 L155.727 401.485 L155.727 397.549 Q158.39 394.795 162.973 390.165 Q167.579 385.512 168.76 384.17 Q171.005 381.647 171.885 379.911 Q172.788 378.151 172.788 376.462 Q172.788 373.707 170.843 371.971 Q168.922 370.235 165.82 370.235 Q163.621 370.235 161.167 370.999 Q158.737 371.762 155.959 373.313 L155.959 368.591 Q158.783 367.457 161.237 366.878 Q163.69 366.3 165.727 366.3 Q171.098 366.3 174.292 368.985 Q177.487 371.67 177.487 376.161 Q177.487 378.29 176.676 380.211 Q175.889 382.11 173.783 384.702 Q173.204 385.374 170.102 388.591 Q167.001 391.786 161.352 397.549 Z" fill="#000000" fill-rule="nonzero" fill-opacity="1" /><path clip-path="url(#clip070)" d="M197.487 370.003 Q193.875 370.003 192.047 373.568 Q190.241 377.11 190.241 384.239 Q190.241 391.346 192.047 394.91 Q193.875 398.452 197.487 398.452 Q201.121 398.452 202.926 394.91 Q204.755 391.346 204.755 384.239 Q204.755 377.11 202.926 373.568 Q201.121 370.003 197.487 370.003 M197.487 366.3 Q203.297 366.3 206.352 370.906 Q209.431 375.489 209.431 384.239 Q209.431 392.966 206.352 397.573 Q203.297 402.156 197.487 402.156 Q191.676 402.156 188.598 397.573 Q185.542 392.966 185.542 384.239 Q185.542 375.489 188.598 370.906 Q191.676 366.3 197.487 366.3 Z" fill="#000000" fill-rule="nonzero" fill-opacity="1" /><path clip-path="url(#clip070)" d="M171.491 205.307 Q174.848 206.024 176.723 208.293 Q178.621 210.561 178.621 213.895 Q178.621 219.01 175.102 221.811 Q171.584 224.612 165.102 224.612 Q162.927 224.612 160.612 224.172 Q158.32 223.756 155.866 222.899 L155.866 218.385 Q157.811 219.52 160.126 220.098 Q162.44 220.677 164.964 220.677 Q169.362 220.677 171.653 218.941 Q173.968 217.205 173.968 213.895 Q173.968 210.839 171.815 209.126 Q169.686 207.39 165.866 207.39 L161.839 207.39 L161.839 203.548 L166.052 203.548 Q169.501 203.548 171.329 202.182 Q173.158 200.793 173.158 198.2 Q173.158 195.538 171.26 194.126 Q169.385 192.691 165.866 192.691 Q163.945 192.691 161.746 193.108 Q159.547 193.524 156.908 194.404 L156.908 190.237 Q159.57 189.497 161.885 189.126 Q164.223 188.756 166.283 188.756 Q171.607 188.756 174.709 191.187 Q177.811 193.594 177.811 197.714 Q177.811 200.585 176.167 202.575 Q174.524 204.543 171.491 205.307 Z" fill="#000000" fill-rule="nonzero" fill-opacity="1" /><path clip-path="url(#clip070)" d="M197.487 192.46 Q193.875 192.46 192.047 196.024 Q190.241 199.566 190.241 206.696 Q190.241 213.802 192.047 217.367 Q193.875 220.909 197.487 220.909 Q201.121 220.909 202.926 217.367 Q204.755 213.802 204.755 206.696 Q204.755 199.566 202.926 196.024 Q201.121 192.46 197.487 192.46 M197.487 188.756 Q203.297 188.756 206.352 193.362 Q209.431 197.946 209.431 206.696 Q209.431 215.423 206.352 220.029 Q203.297 224.612 197.487 224.612 Q191.676 224.612 188.598 220.029 Q185.542 215.423 185.542 206.696 Q185.542 197.946 188.598 193.362 Q191.676 188.756 197.487 188.756 Z" fill="#000000" fill-rule="nonzero" fill-opacity="1" /><path clip-path="url(#clip070)" d="M15.0962 1052.2 Q16.0205 1052.2 16.787 1052.88 Q17.5535 1053.58 17.5535 1054.71 Q17.5535 1055.72 16.8096 1056.42 Q16.0431 1057.14 15.0962 1057.14 Q14.1494 1057.14 13.4054 1056.46 Q12.6615 1055.79 12.6615 1054.66 Q12.6615 1053.65 13.4054 1052.92 Q14.1494 1052.2 15.0962 1052.2 Z" fill="#000000" fill-rule="nonzero" fill-opacity="1" /><path clip-path="url(#clip070)" d="M60.2099 1078.03 L60.2099 1076.39 Q64.6866 1075.45 65.3629 1075 Q66.4901 1074.36 66.6189 1071.56 Q66.6189 1070.98 66.6189 1069.98 L66.6189 1065.57 Q63.5916 1066.37 60.1133 1068.4 Q56.6029 1070.43 53.9942 1072.36 Q51.3855 1074.26 47.8429 1075.78 Q44.268 1077.29 40.8864 1077.29 Q34.1554 1077.29 29.2923 1071.49 Q24.397 1065.7 24.397 1057.19 Q24.397 1048.69 29.2601 1042.86 Q34.091 1037 40.8864 1037 Q44.2358 1037 47.7785 1038.51 Q51.3211 1040.03 53.9298 1041.93 Q56.5385 1043.8 60.0811 1045.89 Q63.5916 1047.95 66.6189 1048.76 L66.6189 1044.25 Q66.6189 1040.54 65.9426 1039.8 Q65.2341 1039.06 61.5304 1038.26 Q60.6608 1038.13 60.2099 1038 L60.2099 1036.29 L70.9023 1038.45 L70.9023 1049.01 Q70.9023 1049.88 70.6446 1050.27 Q70.387 1050.66 69.453 1050.66 Q64.9764 1050.66 55.3469 1047.24 Q45.7173 1043.8 40.8864 1043.8 Q33.7045 1043.8 29.7754 1047.89 Q25.8463 1051.98 25.8463 1057.19 Q25.8463 1062.35 29.7432 1066.44 Q33.6401 1070.49 40.8864 1070.49 Q45.7817 1070.49 55.3791 1067.08 Q64.9764 1063.63 69.3886 1063.63 Q70.4514 1063.63 70.6768 1064.05 Q70.9023 1064.44 70.9023 1065.76 L70.9023 1075.84 L60.2099 1078.03 Z" fill="#000000" fill-rule="nonzero" fill-opacity="1" /><path clip-path="url(#clip070)" d="M89.1788 1029.66 Q88.3447 1029.66 88.0967 1029.59 Q87.8487 1029.5 87.4655 1029.14 L77.5912 1020.28 Q72.1355 1015.44 67.3787 1015.44 Q64.2902 1015.44 62.0808 1017.06 Q59.8715 1018.66 59.8715 1021.61 Q59.8715 1023.64 61.1114 1025.36 Q62.3514 1027.07 64.5607 1027.86 Q64.5156 1027.72 64.5156 1027.25 Q64.5156 1026.1 65.237 1025.47 Q65.9584 1024.82 66.9278 1024.82 Q68.1677 1024.82 68.7764 1025.63 Q69.3626 1026.42 69.3626 1027.21 Q69.3626 1027.52 69.2949 1027.95 Q69.2273 1028.35 68.5961 1029.01 Q67.9423 1029.66 66.7926 1029.66 Q63.5687 1029.66 60.9987 1027.23 Q58.4287 1024.77 58.4287 1021.03 Q58.4287 1016.79 60.9536 1014.02 Q63.456 1011.22 67.3787 1011.22 Q68.7539 1011.22 70.0164 1011.65 Q71.2563 1012.06 72.2257 1012.62 Q73.1951 1013.16 74.7506 1014.65 Q76.3062 1016.14 77.4108 1017.33 Q78.5155 1018.53 80.8601 1021.21 L85.6169 1026.1 L85.6169 1017.78 Q85.6169 1013.72 85.2562 1013.41 Q84.6024 1012.96 81.1531 1012.39 L81.1531 1011.22 L89.1788 1012.53 L89.1788 1029.66 Z" fill="#000000" fill-rule="nonzero" fill-opacity="1" /><path clip-path="url(#clip070)" d="M52.9828 961.304 Q52.9828 968.402 54.6061 971.139 Q56.2293 973.876 60.1442 973.876 Q63.2634 973.876 65.1095 971.839 Q66.9237 969.77 66.9237 966.237 Q66.9237 961.367 63.4862 958.439 Q60.0169 955.479 54.2878 955.479 L52.9828 955.479 L52.9828 961.304 M50.5638 949.623 L70.9023 949.623 L70.9023 955.479 L65.4914 955.479 Q68.7379 957.484 70.2975 960.476 Q71.8253 963.468 71.8253 967.797 Q71.8253 973.271 68.7698 976.518 Q65.6824 979.733 60.5262 979.733 Q54.5106 979.733 51.455 975.722 Q48.3995 971.68 48.3995 963.691 L48.3995 955.479 L47.8266 955.479 Q43.7844 955.479 41.5882 958.153 Q39.3602 960.795 39.3602 965.601 Q39.3602 968.656 40.0923 971.553 Q40.8243 974.449 42.2884 977.123 L36.8776 977.123 Q35.6363 973.908 35.0315 970.884 Q34.395 967.86 34.395 964.996 Q34.395 957.262 38.4054 953.442 Q42.4157 949.623 50.5638 949.623 Z" fill="#000000" fill-rule="nonzero" fill-opacity="1" /><path clip-path="url(#clip070)" d="M25.1329 931.767 L35.2543 931.767 L35.2543 919.704 L39.8058 919.704 L39.8058 931.767 L59.1576 931.767 Q63.5181 931.767 64.7594 930.589 Q66.0007 929.38 66.0007 925.719 L66.0007 919.704 L70.9023 919.704 L70.9023 925.719 Q70.9023 932.499 68.3878 935.077 Q65.8415 937.655 59.1576 937.655 L39.8058 937.655 L39.8058 941.952 L35.2543 941.952 L35.2543 937.655 L25.1329 937.655 L25.1329 931.767 Z" fill="#000000" fill-rule="nonzero" fill-opacity="1" /><path clip-path="url(#clip070)" d="M41.2002 864.574 Q43.0037 864.574 44.0343 865.701 Q45.0327 866.828 45.0327 868.117 Q45.0327 869.34 44.3241 869.985 Q43.6156 870.629 42.7139 870.629 Q41.49 870.629 40.4272 869.727 Q39.3644 868.825 39.139 867.472 Q38.3016 868.793 38.3016 870.757 Q38.3016 872.046 38.978 873.173 Q39.6543 874.268 40.5239 874.944 Q41.3934 875.588 42.6494 876.168 Q43.8733 876.716 44.614 876.941 Q45.3225 877.134 46.0955 877.295 L55.1131 879.55 Q59.3965 880.645 60.9102 880.645 Q62.7781 880.645 64.0341 879.743 Q65.258 878.841 65.258 877.038 Q65.258 876.329 65.0647 875.524 Q64.8393 874.719 64.2596 873.688 Q63.6477 872.625 62.7459 871.691 Q61.8119 870.725 60.2338 869.791 Q58.6558 868.857 56.6268 868.245 Q55.9183 868.052 55.9183 867.408 Q55.9183 866.603 56.5624 866.603 Q57.1099 866.603 58.2693 867.054 Q59.3965 867.472 60.878 868.406 Q62.3272 869.308 63.6477 870.5 Q64.9359 871.691 65.8377 873.463 Q66.7394 875.234 66.7394 877.166 Q66.7394 879.936 65.258 881.772 Q63.7765 883.608 61.7153 884.284 Q62.0052 884.445 62.3916 884.67 Q62.7781 884.896 63.6477 885.572 Q64.485 886.216 65.1291 886.957 Q65.741 887.698 66.2241 888.857 Q66.7394 889.984 66.7394 891.208 Q66.7394 892.754 66.2885 894.139 Q65.8377 895.492 64.8071 896.458 Q63.7765 897.424 62.3594 897.424 Q60.7813 897.424 59.6863 896.361 Q58.5591 895.266 58.5591 893.785 Q58.5591 892.851 59.1066 892.11 Q59.6541 891.337 60.8458 891.337 Q62.1662 891.337 63.1646 892.239 Q64.163 893.141 64.4206 894.429 Q65.258 893.108 65.258 891.144 Q65.258 889.018 63.39 887.343 Q61.5221 885.669 58.3981 884.864 Q50.8941 882.867 47.5447 882.094 Q44.1631 881.321 42.7139 881.321 Q41.3612 881.321 40.4272 881.675 Q39.4933 882.03 39.0746 882.641 Q38.6237 883.221 38.4627 883.769 Q38.3016 884.284 38.3016 884.864 Q38.3016 885.83 38.6881 886.925 Q39.0746 887.988 39.9764 889.276 Q40.8459 890.532 42.6494 891.723 Q44.453 892.915 46.9328 893.72 Q47.6736 893.881 47.6736 894.59 Q47.6413 895.363 46.9972 895.363 Q46.4497 895.363 45.3225 894.944 Q44.1631 894.493 42.7139 893.591 Q41.2646 892.657 39.9764 891.466 Q38.6559 890.242 37.7541 888.471 Q36.8524 886.667 36.8524 884.735 Q36.8524 883.865 37.0456 883.028 Q37.2066 882.158 37.6897 881.128 Q38.1728 880.065 39.2356 879.131 Q40.2984 878.197 41.8443 877.617 Q41.1036 877.231 40.395 876.716 Q39.6865 876.168 38.8169 875.331 Q37.9152 874.461 37.3999 873.27 Q36.8524 872.046 36.8524 870.693 Q36.8524 869.373 37.2066 868.084 Q37.5287 866.796 38.5915 865.701 Q39.6221 864.574 41.2002 864.574 Z" fill="#000000" fill-rule="nonzero" fill-opacity="1" /><path clip-path="url(#clip070)" d="M58.6556 857.853 L57.2127 857.853 Q57.2127 852.307 54.2595 849.444 Q54.2595 848.655 54.4398 848.519 Q54.6202 848.384 55.4543 848.384 L81.3575 848.384 Q82.7327 848.384 83.161 847.708 Q83.5893 847.032 83.5893 844.078 L83.5893 842.613 L85.0096 842.613 Q84.8744 844.236 84.8744 850.098 Q84.8744 855.959 85.0096 857.56 L83.5893 857.56 L83.5893 856.094 Q83.5893 853.186 83.1836 852.487 Q82.7552 851.788 81.3575 851.788 L57.4382 851.788 Q58.6556 854.201 58.6556 857.853 Z" fill="#000000" fill-rule="nonzero" fill-opacity="1" /><path clip-path="url(#clip070)" d="M55.9827 817.416 Q55.1775 817.352 55.1775 816.096 L55.1775 775.678 Q55.1775 773.777 55.9183 773.745 Q56.7234 773.745 56.6912 775.549 L56.6912 815.645 Q56.7234 817.416 55.9827 817.416 M43.1003 817.416 Q42.2952 817.416 42.3274 816.031 L42.3274 775.742 Q42.3274 773.777 43.1003 773.745 Q43.8411 773.745 43.8411 775.42 L43.8411 816.096 Q43.8411 817.416 43.1003 817.416 Z" fill="#000000" fill-rule="nonzero" fill-opacity="1" /><path clip-path="url(#clip070)" d="M49.7025 708.461 Q49.8958 708.461 50.6365 708.718 L64.8715 713.936 Q65.7088 714.226 65.8699 714.515 Q65.9987 714.805 65.9987 715.997 L65.9987 746.528 Q65.9987 747.269 65.9665 747.559 Q65.9343 747.849 65.7732 748.074 Q65.6122 748.299 65.258 748.299 Q64.6138 748.299 64.324 748.074 Q64.0341 747.816 64.0019 747.526 Q63.9697 747.237 63.9697 746.528 Q63.9697 744.918 63.8731 743.952 Q63.7765 742.985 63.6477 742.374 Q63.4866 741.729 63.0357 741.407 Q62.5849 741.053 62.1984 740.892 Q61.7797 740.731 60.8458 740.506 L25.4193 731.681 Q24.3565 731.424 24.1955 731.424 Q23.5836 731.424 23.4225 731.81 Q23.2293 732.164 23.1327 733.195 L23.0039 735.707 Q23.0039 736.48 22.9717 736.802 Q22.9395 737.092 22.7784 737.317 Q22.6174 737.543 22.2631 737.543 Q21.6512 737.543 21.3614 737.317 Q21.0393 737.06 21.0071 736.866 Q20.9427 736.641 20.9427 736.287 L21.1359 727.527 L20.9427 717.768 Q20.9427 716.705 21.7478 716.705 Q22.6496 716.705 22.8428 717.156 Q23.0039 717.607 23.0039 719.218 Q23.0039 722.309 23.3259 723.726 Q23.648 725.111 24.1955 725.498 Q24.7108 725.852 26.0956 726.206 L61.7153 735.127 Q62.9069 735.449 63.229 735.449 Q63.5832 735.449 63.7121 735.288 Q63.8087 735.095 63.8731 734.58 Q63.9697 734 63.9697 733.13 L63.9697 726.947 Q63.9697 725.079 63.6799 723.436 Q63.39 721.794 62.9713 720.538 Q62.5527 719.25 61.7797 718.09 Q61.0068 716.931 60.3305 716.126 Q59.6219 715.288 58.5269 714.483 Q57.3997 713.646 56.6268 713.163 Q55.8216 712.648 54.5334 712.068 Q53.213 711.488 52.4722 711.198 Q51.6993 710.876 50.3788 710.393 Q49.7025 710.103 49.5093 710.007 Q49.3161 709.91 49.155 709.749 Q48.994 709.556 48.994 709.266 Q48.994 708.879 49.2194 708.686 Q49.4449 708.461 49.7025 708.461 Z" fill="#000000" fill-rule="nonzero" fill-opacity="1" /><path clip-path="url(#clip070)" d="M81.5541 703.833 Q81.2321 703.833 80.5235 703.575 L18.3018 680.29 Q18.2374 680.29 17.8831 680.129 Q17.5289 679.968 17.3034 679.872 Q17.0458 679.775 16.8525 679.582 Q16.6593 679.356 16.6593 679.099 Q16.6593 678.455 17.4645 678.455 Q17.5289 678.455 18.3018 678.648 L80.5879 701.997 Q81.7151 702.384 82.0372 702.641 Q82.3593 702.867 82.3593 703.253 Q82.3593 703.833 81.5541 703.833 Z" fill="#000000" fill-rule="nonzero" fill-opacity="1" /><path clip-path="url(#clip070)" d="M65.9987 671.169 Q64.8071 671.169 64.4528 671.072 Q64.0985 670.943 63.551 670.428 L49.4449 657.771 Q41.6511 650.847 34.8556 650.847 Q30.4434 650.847 27.2872 653.166 Q24.1311 655.452 24.1311 659.671 Q24.1311 662.57 25.9024 665.018 Q27.6737 667.465 30.8299 668.592 Q30.7655 668.399 30.7655 667.723 Q30.7655 666.08 31.7961 665.179 Q32.8267 664.245 34.2115 664.245 Q35.9828 664.245 36.8524 665.404 Q37.6897 666.531 37.6897 667.658 Q37.6897 668.109 37.5931 668.721 Q37.4965 669.301 36.5947 670.235 Q35.6608 671.169 34.0183 671.169 Q29.4128 671.169 25.7414 667.691 Q22.0699 664.18 22.0699 658.834 Q22.0699 652.779 25.677 648.818 Q29.2518 644.824 34.8556 644.824 Q36.8202 644.824 38.6237 645.436 Q40.395 646.016 41.7799 646.821 Q43.1647 647.594 45.3869 649.72 Q47.6091 651.845 49.1872 653.552 Q50.7653 655.259 54.1147 659.092 L60.9102 666.08 L60.9102 654.196 Q60.9102 648.399 60.3949 647.948 Q59.4609 647.304 54.5334 646.499 L54.5334 644.824 L65.9987 646.692 L65.9987 671.169 Z" fill="#000000" fill-rule="nonzero" fill-opacity="1" /><path clip-path="url(#clip070)" d="M21.3771 612.183 L21.3771 598.687 L25.9286 598.687 L25.9286 606.326 L74.9445 606.326 L74.9445 598.687 L79.496 598.687 L79.496 612.183 L21.3771 612.183 Z" fill="#000000" fill-rule="nonzero" fill-opacity="1" /><path clip-path="url(#clip070)" d="M40.7288 565.554 Q40.1559 566.54 39.9013 567.718 Q39.6148 568.864 39.6148 570.264 Q39.6148 575.23 42.8613 577.903 Q46.076 580.545 52.1234 580.545 L70.9023 580.545 L70.9023 586.433 L35.2543 586.433 L35.2543 580.545 L40.7925 580.545 Q37.546 578.699 35.9864 575.739 Q34.395 572.779 34.395 568.546 Q34.395 567.941 34.4904 567.209 Q34.5541 566.477 34.7132 565.586 L40.7288 565.554 Z" fill="#000000" fill-rule="nonzero" fill-opacity="1" /><path clip-path="url(#clip070)" d="M52.9828 543.21 Q52.9828 550.308 54.6061 553.045 Q56.2293 555.782 60.1442 555.782 Q63.2634 555.782 65.1095 553.745 Q66.9237 551.677 66.9237 548.144 Q66.9237 543.274 63.4862 540.346 Q60.0169 537.386 54.2878 537.386 L52.9828 537.386 L52.9828 543.21 M50.5638 531.529 L70.9023 531.529 L70.9023 537.386 L65.4914 537.386 Q68.7379 539.391 70.2975 542.383 Q71.8253 545.374 71.8253 549.703 Q71.8253 555.178 68.7698 558.424 Q65.6824 561.639 60.5262 561.639 Q54.5106 561.639 51.455 557.628 Q48.3995 553.586 48.3995 545.597 L48.3995 537.386 L47.8266 537.386 Q43.7844 537.386 41.5882 540.059 Q39.3602 542.701 39.3602 547.507 Q39.3602 550.563 40.0923 553.459 Q40.8243 556.355 42.2884 559.029 L36.8776 559.029 Q35.6363 555.814 35.0315 552.791 Q34.395 549.767 34.395 546.902 Q34.395 539.168 38.4054 535.348 Q42.4157 531.529 50.5638 531.529 Z" fill="#000000" fill-rule="nonzero" fill-opacity="1" /><path clip-path="url(#clip070)" d="M40.6652 496.008 L21.3771 496.008 L21.3771 490.152 L70.9023 490.152 L70.9023 496.008 L65.5551 496.008 Q68.7379 497.854 70.2975 500.687 Q71.8253 503.488 71.8253 507.435 Q71.8253 513.896 66.6691 517.97 Q61.5129 522.012 53.1101 522.012 Q44.7074 522.012 39.5512 517.97 Q34.395 513.896 34.395 507.435 Q34.395 503.488 35.9546 500.687 Q37.4823 497.854 40.6652 496.008 M53.1101 515.965 Q59.5713 515.965 63.2634 513.323 Q66.9237 510.65 66.9237 506.003 Q66.9237 501.356 63.2634 498.682 Q59.5713 496.008 53.1101 496.008 Q46.6489 496.008 42.9887 498.682 Q39.2965 501.356 39.2965 506.003 Q39.2965 510.65 42.9887 513.323 Q46.6489 515.965 53.1101 515.965 Z" fill="#000000" fill-rule="nonzero" fill-opacity="1" /><path clip-path="url(#clip070)" d="M23.3823 467.681 L23.3823 462.27 L76.9497 478.821 L76.9497 484.232 L23.3823 467.681 Z" fill="#000000" fill-rule="nonzero" fill-opacity="1" /><path clip-path="url(#clip070)" d="M52.3202 437.987 Q54.1238 437.987 55.0899 438.889 Q56.0239 439.79 56.0239 441.014 Q56.0239 442.013 55.4442 442.56 Q54.8645 443.075 54.0915 443.075 Q52.9643 443.075 52.0626 442.174 Q51.1608 441.24 51.1286 439.887 Q49.937 440.338 49.2285 441.53 Q48.4877 442.721 48.2945 443.784 Q48.1013 444.815 48.1013 445.845 Q48.1013 447.874 48.7454 449.42 Q49.3895 450.966 50.3879 451.739 Q51.354 452.512 52.288 452.866 Q53.222 453.22 54.0271 453.22 Q54.7357 453.22 55.3154 453.059 Q55.8629 452.866 56.2815 452.415 Q56.668 451.964 56.9257 451.642 Q57.1833 451.288 57.4088 450.515 Q57.6342 449.742 57.7308 449.42 Q57.7952 449.098 57.9885 448.196 Q58.3749 446.328 58.6004 445.491 Q58.7936 444.654 59.3411 443.559 Q59.8886 442.431 60.7582 441.594 Q62.7871 439.565 65.589 439.565 Q66.6196 439.565 67.8757 439.919 Q69.1317 440.241 70.7098 441.175 Q72.2879 442.109 73.5439 443.526 Q74.7999 444.943 75.6695 447.391 Q76.539 449.807 76.539 452.834 Q76.539 457.053 74.7677 459.662 Q72.9642 462.27 70.1301 462.27 Q68.0689 462.27 66.9417 461.143 Q65.7823 460.016 65.7823 458.567 Q65.7823 457.472 66.3942 456.795 Q66.9739 456.119 68.0689 456.119 Q69.5504 456.119 70.6776 457.31 Q71.8048 458.502 71.5793 460.273 Q75.0576 458.76 75.0576 452.769 Q75.0576 450.515 74.4779 448.776 Q73.8659 447.005 73.0286 446.038 Q72.159 445.04 71.0962 444.396 Q70.0334 443.752 69.2283 443.559 Q68.4232 443.333 67.8112 443.333 Q66.7485 443.333 65.9433 443.752 Q65.1382 444.17 64.6873 444.75 Q64.2042 445.298 63.8177 446.36 Q63.399 447.391 63.238 448.132 Q63.077 448.873 62.8193 450.193 Q62.6905 450.805 62.6261 451.191 Q62.5295 451.578 62.2718 452.383 Q61.982 453.156 61.6921 453.703 Q61.4023 454.219 60.887 454.895 Q60.3717 455.571 59.7598 455.99 Q59.1479 456.409 58.2461 456.699 Q57.3443 456.988 56.2815 456.988 Q55.3154 456.988 54.156 456.699 Q52.9965 456.377 51.6439 455.571 Q50.2913 454.734 49.1963 453.542 Q48.1013 452.351 47.3927 450.354 Q46.652 448.325 46.652 445.845 Q46.652 442.238 48.3267 440.113 Q49.9692 437.987 52.3202 437.987 Z" fill="#000000" fill-rule="nonzero" fill-opacity="1" /><path clip-path="url(#clip070)" d="M56.0616 431.183 Q55.2274 431.183 54.9795 431.116 Q54.7315 431.025 54.3482 430.665 L44.4739 421.805 Q39.0182 416.958 34.2614 416.958 Q31.1729 416.958 28.9636 418.581 Q26.7542 420.182 26.7542 423.135 Q26.7542 425.164 27.9942 426.877 Q29.2341 428.591 31.4434 429.38 Q31.3983 429.245 31.3983 428.771 Q31.3983 427.621 32.1197 426.99 Q32.8412 426.336 33.8105 426.336 Q35.0505 426.336 35.6592 427.148 Q36.2453 427.937 36.2453 428.726 Q36.2453 429.042 36.1777 429.47 Q36.11 429.876 35.4788 430.53 Q34.825 431.183 33.6753 431.183 Q30.4515 431.183 27.8815 428.749 Q25.3114 426.291 25.3114 422.549 Q25.3114 418.311 27.8364 415.538 Q30.3388 412.742 34.2614 412.742 Q35.6366 412.742 36.8991 413.171 Q38.139 413.576 39.1084 414.14 Q40.0778 414.681 41.6334 416.169 Q43.1889 417.657 44.2936 418.852 Q45.3982 420.047 47.7428 422.729 L52.4996 427.621 L52.4996 419.303 Q52.4996 415.245 52.1389 414.929 Q51.4851 414.478 48.0359 413.915 L48.0359 412.742 L56.0616 414.05 L56.0616 431.183 Z" fill="#000000" fill-rule="nonzero" fill-opacity="1" /><path clip-path="url(#clip070)" d="M21.3771 392.393 L79.496 392.393 L79.496 405.889 L74.9445 405.889 L74.9445 398.282 L25.9286 398.282 L25.9286 405.889 L21.3771 405.889 L21.3771 392.393 Z" fill="#000000" fill-rule="nonzero" fill-opacity="1" /><polyline clip-path="url(#clip072)" style="stroke:#000000; stroke-linecap:round; stroke-linejoin:round; stroke-width:8; stroke-opacity:1; fill:none" points="305.072,739.249 324.953,1113.16 344.833,792.722 364.713,1165.67 384.594,842.959 404.474,1214.52 424.355,888.519 444.235,1258.29 464.116,928.979 483.996,1296.11 503.876,963.215 523.757,1328.2 543.637,989.854 563.518,1351.7 583.398,1011.46 603.279,1369.76 623.159,1022.91 643.039,1380.14 662.92,1030.96 682.8,1384.24 702.681,1029.37 722.561,1380.53 742.442,1024.34 762.322,1371.94 782.202,1008.98 802.083,1355.04 821.963,989.444 841.844,1331.85 861.724,960.635 881.604,1301.46 901.485,927.142 921.365,1263.62 941.246,885.976 961.126,1221.4 981.007,838.73 1000.89,1170.9 1020.77,788.308 1040.65,1120.29 1060.53,731.298 1080.41,1062.52 1100.29,675.952 1120.17,1007.89 1140.05,615.419 1159.93,948.244 1179.81,559.657 1199.69,891.687 1219.57,499.105 1239.45,834.069 1259.33,444.046 1279.21,776.436 1299.09,387.022 1318.97,724.103 1338.85,332.9 1358.73,669.587 1378.62,281.751 1398.5,624.575 1418.38,233.424 1438.26,577.085 1458.14,192.267 1478.02,541.539 1497.9,154.491 1517.78,507.12 1537.66,127.527 1557.54,483.392 1577.42,105.036 1597.3,466.801 1617.18,92.6842 1637.06,455.177 1656.94,86.1857 1676.82,456.563 1696.7,86.4996 1716.58,457.529 1736.46,94.4827 1756.34,474.244 1776.22,106.374 1796.1,487.374 1815.98,129.842 1835.86,514.965 1855.75,153.834 1875.63,544.584 1895.51,188.506 1915.39,581.146 1935.27,227.032 1955.15,624.79 1975.03,272.679 1994.91,670.439 2014.79,321.505 2034.67,726.927 2054.55,375.758 2074.43,778.143 2094.31,432.816 2114.19,841.005 2134.07,490.49 2153.95,895.856 2173.83,549.532 2193.71,959.92 2213.59,606.695 2233.47,1015.78 2253.35,667.59 2273.23,1073.69 2293.11,720.68 "/>
<circle clip-path="url(#clip072)" cx="305.072" cy="913.153" r="18" fill="#0000ff" fill-rule="evenodd" fill-opacity="1" stroke="none"/>
<circle clip-path="url(#clip072)" cx="404.474" cy="1040.73" r="18" fill="#0000ff" fill-rule="evenodd" fill-opacity="1" stroke="none"/>
<circle clip-path="url(#clip072)" cx="503.876" cy="1138.81" r="18" fill="#0000ff" fill-rule="evenodd" fill-opacity="1" stroke="none"/>
<circle clip-path="url(#clip072)" cx="603.279" cy="1197.77" r="18" fill="#0000ff" fill-rule="evenodd" fill-opacity="1" stroke="none"/>
<circle clip-path="url(#clip072)" cx="702.681" cy="1211.86" r="18" fill="#0000ff" fill-rule="evenodd" fill-opacity="1" stroke="none"/>
<circle clip-path="url(#clip072)" cx="802.083" cy="1179.69" r="18" fill="#0000ff" fill-rule="evenodd" fill-opacity="1" stroke="none"/>
<circle clip-path="url(#clip072)" cx="901.485" cy="1104.41" r="18" fill="#0000ff" fill-rule="evenodd" fill-opacity="1" stroke="none"/>
<circle clip-path="url(#clip072)" cx="1000.89" cy="993.387" r="18" fill="#0000ff" fill-rule="evenodd" fill-opacity="1" stroke="none"/>
<circle clip-path="url(#clip072)" cx="1100.29" cy="857.493" r="18" fill="#0000ff" fill-rule="evenodd" fill-opacity="1" stroke="none"/>
<circle clip-path="url(#clip072)" cx="1199.69" cy="710.029" r="18" fill="#0000ff" fill-rule="evenodd" fill-opacity="1" stroke="none"/>
<circle clip-path="url(#clip072)" cx="1299.09" cy="565.43" r="18" fill="#0000ff" fill-rule="evenodd" fill-opacity="1" stroke="none"/>
<circle clip-path="url(#clip072)" cx="1398.5" cy="437.849" r="18" fill="#0000ff" fill-rule="evenodd" fill-opacity="1" stroke="none"/>
<circle clip-path="url(#clip072)" cx="1497.9" cy="339.776" r="18" fill="#0000ff" fill-rule="evenodd" fill-opacity="1" stroke="none"/>
<circle clip-path="url(#clip072)" cx="1597.3" cy="280.809" r="18" fill="#0000ff" fill-rule="evenodd" fill-opacity="1" stroke="none"/>
<circle clip-path="url(#clip072)" cx="1696.7" cy="266.723" r="18" fill="#0000ff" fill-rule="evenodd" fill-opacity="1" stroke="none"/>
<circle clip-path="url(#clip072)" cx="1796.1" cy="298.894" r="18" fill="#0000ff" fill-rule="evenodd" fill-opacity="1" stroke="none"/>
<circle clip-path="url(#clip072)" cx="1895.51" cy="374.175" r="18" fill="#0000ff" fill-rule="evenodd" fill-opacity="1" stroke="none"/>
<circle clip-path="url(#clip072)" cx="1994.91" cy="485.196" r="18" fill="#0000ff" fill-rule="evenodd" fill-opacity="1" stroke="none"/>
<circle clip-path="url(#clip072)" cx="2094.31" cy="621.09" r="18" fill="#0000ff" fill-rule="evenodd" fill-opacity="1" stroke="none"/>
<circle clip-path="url(#clip072)" cx="2193.71" cy="768.554" r="18" fill="#0000ff" fill-rule="evenodd" fill-opacity="1" stroke="none"/>
<circle clip-path="url(#clip072)" cx="2293.11" cy="913.153" r="18" fill="#0000ff" fill-rule="evenodd" fill-opacity="1" stroke="none"/>
<path clip-path="url(#clip070)" d="M315.675 248.629 L793.559 248.629 L793.559 93.1086 L315.675 93.1086  Z" fill="#ffffff" fill-rule="evenodd" fill-opacity="1"/>
<polyline clip-path="url(#clip070)" style="stroke:#000000; stroke-linecap:round; stroke-linejoin:round; stroke-width:4; stroke-opacity:1; fill:none" points="315.675,248.629 793.559,248.629 793.559,93.1086 315.675,93.1086 315.675,248.629 "/>
<polyline clip-path="url(#clip070)" style="stroke:#000000; stroke-linecap:round; stroke-linejoin:round; stroke-width:8; stroke-opacity:1; fill:none" points="339.09,144.949 479.578,144.949 "/>
<path clip-path="url(#clip070)" d="M518.826 132.275 L512.484 149.474 L525.192 149.474 L518.826 132.275 M516.187 127.669 L521.488 127.669 L534.659 162.229 L529.798 162.229 L526.65 153.363 L511.072 153.363 L507.923 162.229 L502.993 162.229 L516.187 127.669 Z" fill="#000000" fill-rule="nonzero" fill-opacity="1" /><path clip-path="url(#clip070)" d="M560.863 148.201 L560.863 150.284 L541.28 150.284 Q541.557 154.682 543.919 156.997 Q546.303 159.289 550.539 159.289 Q552.993 159.289 555.284 158.687 Q557.599 158.085 559.868 156.881 L559.868 160.909 Q557.576 161.881 555.169 162.391 Q552.761 162.9 550.284 162.9 Q544.081 162.9 540.446 159.289 Q536.835 155.678 536.835 149.52 Q536.835 143.155 540.261 139.428 Q543.71 135.678 549.544 135.678 Q554.775 135.678 557.807 139.057 Q560.863 142.414 560.863 148.201 M556.604 146.951 Q556.557 143.456 554.636 141.372 Q552.738 139.289 549.59 139.289 Q546.025 139.289 543.872 141.303 Q541.743 143.317 541.419 146.974 L556.604 146.951 Z" fill="#000000" fill-rule="nonzero" fill-opacity="1" /><path clip-path="url(#clip070)" d="M582.877 140.284 Q582.159 139.868 581.303 139.682 Q580.469 139.474 579.451 139.474 Q575.84 139.474 573.895 141.835 Q571.974 144.173 571.974 148.571 L571.974 162.229 L567.692 162.229 L567.692 136.303 L571.974 136.303 L571.974 140.331 Q573.317 137.969 575.469 136.835 Q577.622 135.678 580.701 135.678 Q581.141 135.678 581.673 135.747 Q582.205 135.794 582.854 135.909 L582.877 140.284 Z" fill="#000000" fill-rule="nonzero" fill-opacity="1" /><path clip-path="url(#clip070)" d="M596.349 139.289 Q592.923 139.289 590.932 141.974 Q588.941 144.636 588.941 149.289 Q588.941 153.942 590.909 156.627 Q592.9 159.289 596.349 159.289 Q599.752 159.289 601.742 156.604 Q603.733 153.918 603.733 149.289 Q603.733 144.682 601.742 141.997 Q599.752 139.289 596.349 139.289 M596.349 135.678 Q601.904 135.678 605.076 139.289 Q608.247 142.9 608.247 149.289 Q608.247 155.655 605.076 159.289 Q601.904 162.9 596.349 162.9 Q590.77 162.9 587.599 159.289 Q584.451 155.655 584.451 149.289 Q584.451 142.9 587.599 139.289 Q590.77 135.678 596.349 135.678 Z" fill="#000000" fill-rule="nonzero" fill-opacity="1" /><path clip-path="url(#clip070)" d="M620.168 145.724 L620.168 158.386 L627.668 158.386 Q631.441 158.386 633.247 156.835 Q635.075 155.261 635.075 152.043 Q635.075 148.803 633.247 147.275 Q631.441 145.724 627.668 145.724 L620.168 145.724 M620.168 131.511 L620.168 141.928 L627.089 141.928 Q630.515 141.928 632.182 140.655 Q633.872 139.358 633.872 136.719 Q633.872 134.104 632.182 132.807 Q630.515 131.511 627.089 131.511 L620.168 131.511 M615.492 127.669 L627.437 127.669 Q632.784 127.669 635.677 129.891 Q638.571 132.113 638.571 136.21 Q638.571 139.382 637.089 141.257 Q635.608 143.131 632.738 143.594 Q636.187 144.335 638.085 146.696 Q640.006 149.034 640.006 152.553 Q640.006 157.182 636.858 159.705 Q633.71 162.229 627.9 162.229 L615.492 162.229 L615.492 127.669 Z" fill="#000000" fill-rule="nonzero" fill-opacity="1" /><path clip-path="url(#clip070)" d="M670.006 148.201 L670.006 150.284 L650.423 150.284 Q650.7 154.682 653.061 156.997 Q655.446 159.289 659.682 159.289 Q662.136 159.289 664.427 158.687 Q666.742 158.085 669.01 156.881 L669.01 160.909 Q666.719 161.881 664.311 162.391 Q661.904 162.9 659.427 162.9 Q653.224 162.9 649.589 159.289 Q645.978 155.678 645.978 149.52 Q645.978 143.155 649.404 139.428 Q652.853 135.678 658.686 135.678 Q663.918 135.678 666.95 139.057 Q670.006 142.414 670.006 148.201 M665.747 146.951 Q665.7 143.456 663.779 141.372 Q661.881 139.289 658.733 139.289 Q655.168 139.289 653.015 141.303 Q650.886 143.317 650.562 146.974 L665.747 146.951 Z" fill="#000000" fill-rule="nonzero" fill-opacity="1" /><path clip-path="url(#clip070)" d="M688.779 149.196 Q683.617 149.196 681.626 150.377 Q679.635 151.557 679.635 154.405 Q679.635 156.673 681.117 158.016 Q682.622 159.335 685.191 159.335 Q688.733 159.335 690.862 156.835 Q693.015 154.312 693.015 150.145 L693.015 149.196 L688.779 149.196 M697.274 147.437 L697.274 162.229 L693.015 162.229 L693.015 158.293 Q691.557 160.655 689.381 161.789 Q687.205 162.9 684.057 162.9 Q680.075 162.9 677.714 160.678 Q675.376 158.432 675.376 154.682 Q675.376 150.307 678.293 148.085 Q681.233 145.863 687.043 145.863 L693.015 145.863 L693.015 145.446 Q693.015 142.507 691.071 140.909 Q689.149 139.289 685.654 139.289 Q683.432 139.289 681.325 139.821 Q679.219 140.354 677.274 141.419 L677.274 137.483 Q679.612 136.581 681.811 136.141 Q684.01 135.678 686.094 135.678 Q691.719 135.678 694.496 138.594 Q697.274 141.511 697.274 147.437 Z" fill="#000000" fill-rule="nonzero" fill-opacity="1" /><path clip-path="url(#clip070)" d="M726.232 141.28 Q727.83 138.409 730.052 137.044 Q732.274 135.678 735.283 135.678 Q739.334 135.678 741.533 138.525 Q743.732 141.349 743.732 146.581 L743.732 162.229 L739.45 162.229 L739.45 146.719 Q739.45 142.993 738.13 141.187 Q736.811 139.382 734.103 139.382 Q730.793 139.382 728.871 141.581 Q726.95 143.78 726.95 147.576 L726.95 162.229 L722.668 162.229 L722.668 146.719 Q722.668 142.969 721.348 141.187 Q720.029 139.382 717.274 139.382 Q714.01 139.382 712.089 141.604 Q710.168 143.803 710.168 147.576 L710.168 162.229 L705.885 162.229 L705.885 136.303 L710.168 136.303 L710.168 140.331 Q711.626 137.946 713.663 136.812 Q715.7 135.678 718.501 135.678 Q721.325 135.678 723.293 137.113 Q725.283 138.548 726.232 141.28 Z" fill="#000000" fill-rule="nonzero" fill-opacity="1" /><path clip-path="url(#clip070)" d="M768.755 137.067 L768.755 141.094 Q766.95 140.169 765.005 139.706 Q763.061 139.243 760.978 139.243 Q757.806 139.243 756.209 140.215 Q754.635 141.187 754.635 143.131 Q754.635 144.613 755.769 145.469 Q756.904 146.303 760.329 147.067 L761.788 147.391 Q766.325 148.363 768.223 150.145 Q770.144 151.905 770.144 155.076 Q770.144 158.687 767.274 160.793 Q764.427 162.9 759.427 162.9 Q757.343 162.9 755.075 162.483 Q752.829 162.09 750.329 161.28 L750.329 156.881 Q752.691 158.108 754.982 158.733 Q757.274 159.335 759.519 159.335 Q762.529 159.335 764.149 158.317 Q765.769 157.275 765.769 155.4 Q765.769 153.664 764.589 152.738 Q763.431 151.812 759.473 150.956 L757.991 150.608 Q754.033 149.775 752.274 148.062 Q750.515 146.326 750.515 143.317 Q750.515 139.659 753.107 137.669 Q755.7 135.678 760.468 135.678 Q762.829 135.678 764.913 136.025 Q766.996 136.372 768.755 137.067 Z" fill="#000000" fill-rule="nonzero" fill-opacity="1" /><circle clip-path="url(#clip070)" cx="409.334" cy="196.789" r="23.04" fill="#0000ff" fill-rule="evenodd" fill-opacity="1" stroke="none"/>
<path clip-path="url(#clip070)" d="M518.826 184.115 L512.484 201.314 L525.192 201.314 L518.826 184.115 M516.187 179.509 L521.488 179.509 L534.659 214.069 L529.798 214.069 L526.65 205.203 L511.072 205.203 L507.923 214.069 L502.993 214.069 L516.187 179.509 Z" fill="#000000" fill-rule="nonzero" fill-opacity="1" /><path clip-path="url(#clip070)" d="M561.071 198.421 L561.071 214.069 L556.812 214.069 L556.812 198.559 Q556.812 194.879 555.377 193.05 Q553.942 191.222 551.071 191.222 Q547.622 191.222 545.632 193.421 Q543.641 195.62 543.641 199.416 L543.641 214.069 L539.358 214.069 L539.358 188.143 L543.641 188.143 L543.641 192.171 Q545.169 189.833 547.229 188.675 Q549.312 187.518 552.02 187.518 Q556.488 187.518 558.78 190.296 Q561.071 193.05 561.071 198.421 Z" fill="#000000" fill-rule="nonzero" fill-opacity="1" /><path clip-path="url(#clip070)" d="M581.349 201.036 Q576.187 201.036 574.196 202.217 Q572.205 203.397 572.205 206.245 Q572.205 208.513 573.687 209.856 Q575.192 211.175 577.761 211.175 Q581.303 211.175 583.432 208.675 Q585.585 206.152 585.585 201.985 L585.585 201.036 L581.349 201.036 M589.844 199.277 L589.844 214.069 L585.585 214.069 L585.585 210.133 Q584.127 212.495 581.951 213.629 Q579.775 214.74 576.627 214.74 Q572.645 214.74 570.284 212.518 Q567.946 210.272 567.946 206.522 Q567.946 202.147 570.863 199.925 Q573.803 197.703 579.613 197.703 L585.585 197.703 L585.585 197.286 Q585.585 194.347 583.641 192.749 Q581.719 191.129 578.224 191.129 Q576.002 191.129 573.895 191.661 Q571.789 192.194 569.844 193.259 L569.844 189.323 Q572.182 188.421 574.381 187.981 Q576.58 187.518 578.664 187.518 Q584.289 187.518 587.066 190.434 Q589.844 193.351 589.844 199.277 Z" fill="#000000" fill-rule="nonzero" fill-opacity="1" /><path clip-path="url(#clip070)" d="M598.617 178.05 L602.877 178.05 L602.877 214.069 L598.617 214.069 L598.617 178.05 Z" fill="#000000" fill-rule="nonzero" fill-opacity="1" /><path clip-path="url(#clip070)" d="M622.576 216.476 Q620.77 221.106 619.057 222.518 Q617.344 223.93 614.474 223.93 L611.071 223.93 L611.071 220.365 L613.571 220.365 Q615.33 220.365 616.302 219.532 Q617.275 218.698 618.455 215.596 L619.219 213.652 L608.733 188.143 L613.247 188.143 L621.349 208.421 L629.451 188.143 L633.964 188.143 L622.576 216.476 Z" fill="#000000" fill-rule="nonzero" fill-opacity="1" /><path clip-path="url(#clip070)" d="M644.057 180.782 L644.057 188.143 L652.83 188.143 L652.83 191.453 L644.057 191.453 L644.057 205.527 Q644.057 208.698 644.913 209.601 Q645.793 210.504 648.455 210.504 L652.83 210.504 L652.83 214.069 L648.455 214.069 Q643.525 214.069 641.65 212.24 Q639.775 210.388 639.775 205.527 L639.775 191.453 L636.65 191.453 L636.65 188.143 L639.775 188.143 L639.775 180.782 L644.057 180.782 Z" fill="#000000" fill-rule="nonzero" fill-opacity="1" /><path clip-path="url(#clip070)" d="M658.432 188.143 L662.691 188.143 L662.691 214.069 L658.432 214.069 L658.432 188.143 M658.432 178.05 L662.691 178.05 L662.691 183.444 L658.432 183.444 L658.432 178.05 Z" fill="#000000" fill-rule="nonzero" fill-opacity="1" /><path clip-path="url(#clip070)" d="M690.26 189.138 L690.26 193.12 Q688.455 192.124 686.626 191.638 Q684.821 191.129 682.969 191.129 Q678.825 191.129 676.534 193.768 Q674.242 196.384 674.242 201.129 Q674.242 205.874 676.534 208.513 Q678.825 211.129 682.969 211.129 Q684.821 211.129 686.626 210.643 Q688.455 210.133 690.26 209.138 L690.26 213.073 Q688.478 213.907 686.557 214.323 Q684.659 214.74 682.506 214.74 Q676.649 214.74 673.2 211.059 Q669.751 207.379 669.751 201.129 Q669.751 194.786 673.223 191.152 Q676.719 187.518 682.784 187.518 Q684.751 187.518 686.626 187.935 Q688.501 188.328 690.26 189.138 Z" fill="#000000" fill-rule="nonzero" fill-opacity="1" /><path clip-path="url(#clip070)" d="M709.45 201.036 Q704.288 201.036 702.297 202.217 Q700.307 203.397 700.307 206.245 Q700.307 208.513 701.788 209.856 Q703.293 211.175 705.862 211.175 Q709.404 211.175 711.533 208.675 Q713.686 206.152 713.686 201.985 L713.686 201.036 L709.45 201.036 M717.945 199.277 L717.945 214.069 L713.686 214.069 L713.686 210.133 Q712.228 212.495 710.052 213.629 Q707.876 214.74 704.728 214.74 Q700.746 214.74 698.385 212.518 Q696.047 210.272 696.047 206.522 Q696.047 202.147 698.964 199.925 Q701.904 197.703 707.714 197.703 L713.686 197.703 L713.686 197.286 Q713.686 194.347 711.742 192.749 Q709.82 191.129 706.325 191.129 Q704.103 191.129 701.996 191.661 Q699.89 192.194 697.946 193.259 L697.946 189.323 Q700.283 188.421 702.483 187.981 Q704.682 187.518 706.765 187.518 Q712.39 187.518 715.168 190.434 Q717.945 193.351 717.945 199.277 Z" fill="#000000" fill-rule="nonzero" fill-opacity="1" /><path clip-path="url(#clip070)" d="M726.719 178.05 L730.978 178.05 L730.978 214.069 L726.719 214.069 L726.719 178.05 Z" fill="#000000" fill-rule="nonzero" fill-opacity="1" /></svg>
