<?xml version="1.0" encoding="utf-8"?>
<svg xmlns="http://www.w3.org/2000/svg" xmlns:xlink="http://www.w3.org/1999/xlink" width="600" height="400" viewBox="0 0 2400 1600">
<defs>
  <clipPath id="clip550">
    <rect x="0" y="0" width="2400" height="1600"/>
  </clipPath>
</defs>
<path clip-path="url(#clip550)" d="M0 1600 L2400 1600 L2400 0 L0 0  Z" fill="#ffffff" fill-rule="evenodd" fill-opacity="1"/>
<defs>
  <clipPath id="clip551">
    <rect x="480" y="0" width="1681" height="1600"/>
  </clipPath>
</defs>
<path clip-path="url(#clip550)" d="M234.125 1423.18 L2352.76 1423.18 L2352.76 47.2441 L234.125 47.2441  Z" fill="#ffffff" fill-rule="evenodd" fill-opacity="1"/>
<defs>
  <clipPath id="clip552">
    <rect x="234" y="47" width="2120" height="1377"/>
  </clipPath>
</defs>
<polyline clip-path="url(#clip552)" style="stroke:#000000; stroke-linecap:round; stroke-linejoin:round; stroke-width:2; stroke-opacity:0.1; fill:none" points="294.087,1423.18 294.087,47.2441 "/>
<polyline clip-path="url(#clip552)" style="stroke:#000000; stroke-linecap:round; stroke-linejoin:round; stroke-width:2; stroke-opacity:0.1; fill:none" points="793.764,1423.18 793.764,47.2441 "/>
<polyline clip-path="url(#clip552)" style="stroke:#000000; stroke-linecap:round; stroke-linejoin:round; stroke-width:2; stroke-opacity:0.1; fill:none" points="1293.44,1423.18 1293.44,47.2441 "/>
<polyline clip-path="url(#clip552)" style="stroke:#000000; stroke-linecap:round; stroke-linejoin:round; stroke-width:2; stroke-opacity:0.1; fill:none" points="1793.12,1423.18 1793.12,47.2441 "/>
<polyline clip-path="url(#clip552)" style="stroke:#000000; stroke-linecap:round; stroke-linejoin:round; stroke-width:2; stroke-opacity:0.1; fill:none" points="2292.79,1423.18 2292.79,47.2441 "/>
<polyline clip-path="url(#clip552)" style="stroke:#000000; stroke-linecap:round; stroke-linejoin:round; stroke-width:2; stroke-opacity:0.1; fill:none" points="234.125,1384.24 2352.76,1384.24 "/>
<polyline clip-path="url(#clip552)" style="stroke:#000000; stroke-linecap:round; stroke-linejoin:round; stroke-width:2; stroke-opacity:0.1; fill:none" points="234.125,1111.29 2352.76,1111.29 "/>
<polyline clip-path="url(#clip552)" style="stroke:#000000; stroke-linecap:round; stroke-linejoin:round; stroke-width:2; stroke-opacity:0.1; fill:none" points="234.125,838.337 2352.76,838.337 "/>
<polyline clip-path="url(#clip552)" style="stroke:#000000; stroke-linecap:round; stroke-linejoin:round; stroke-width:2; stroke-opacity:0.1; fill:none" points="234.125,565.387 2352.76,565.387 "/>
<polyline clip-path="url(#clip552)" style="stroke:#000000; stroke-linecap:round; stroke-linejoin:round; stroke-width:2; stroke-opacity:0.1; fill:none" points="234.125,292.437 2352.76,292.437 "/>
<polyline clip-path="url(#clip550)" style="stroke:#000000; stroke-linecap:round; stroke-linejoin:round; stroke-width:4; stroke-opacity:1; fill:none" points="234.125,1423.18 2352.76,1423.18 "/>
<polyline clip-path="url(#clip550)" style="stroke:#000000; stroke-linecap:round; stroke-linejoin:round; stroke-width:4; stroke-opacity:1; fill:none" points="294.087,1423.18 294.087,1404.28 "/>
<polyline clip-path="url(#clip550)" style="stroke:#000000; stroke-linecap:round; stroke-linejoin:round; stroke-width:4; stroke-opacity:1; fill:none" points="793.764,1423.18 793.764,1404.28 "/>
<polyline clip-path="url(#clip550)" style="stroke:#000000; stroke-linecap:round; stroke-linejoin:round; stroke-width:4; stroke-opacity:1; fill:none" points="1293.44,1423.18 1293.44,1404.28 "/>
<polyline clip-path="url(#clip550)" style="stroke:#000000; stroke-linecap:round; stroke-linejoin:round; stroke-width:4; stroke-opacity:1; fill:none" points="1793.12,1423.18 1793.12,1404.28 "/>
<polyline clip-path="url(#clip550)" style="stroke:#000000; stroke-linecap:round; stroke-linejoin:round; stroke-width:4; stroke-opacity:1; fill:none" points="2292.79,1423.18 2292.79,1404.28 "/>
<path clip-path="url(#clip550)" d="M271.471 1454.1 Q267.86 1454.1 266.031 1457.66 Q264.226 1461.2 264.226 1468.33 Q264.226 1475.44 266.031 1479.01 Q267.86 1482.55 271.471 1482.55 Q275.105 1482.55 276.911 1479.01 Q278.74 1475.44 278.74 1468.33 Q278.74 1461.2 276.911 1457.66 Q275.105 1454.1 271.471 1454.1 M271.471 1450.39 Q277.281 1450.39 280.337 1455 Q283.415 1459.58 283.415 1468.33 Q283.415 1477.06 280.337 1481.67 Q277.281 1486.25 271.471 1486.25 Q265.661 1486.25 262.582 1481.67 Q259.527 1477.06 259.527 1468.33 Q259.527 1459.58 262.582 1455 Q265.661 1450.39 271.471 1450.39 Z" fill="#000000" fill-rule="nonzero" fill-opacity="1" /><path clip-path="url(#clip550)" d="M291.633 1479.7 L296.517 1479.7 L296.517 1485.58 L291.633 1485.58 L291.633 1479.7 Z" fill="#000000" fill-rule="nonzero" fill-opacity="1" /><path clip-path="url(#clip550)" d="M316.702 1454.1 Q313.091 1454.1 311.263 1457.66 Q309.457 1461.2 309.457 1468.33 Q309.457 1475.44 311.263 1479.01 Q313.091 1482.55 316.702 1482.55 Q320.337 1482.55 322.142 1479.01 Q323.971 1475.44 323.971 1468.33 Q323.971 1461.2 322.142 1457.66 Q320.337 1454.1 316.702 1454.1 M316.702 1450.39 Q322.512 1450.39 325.568 1455 Q328.647 1459.58 328.647 1468.33 Q328.647 1477.06 325.568 1481.67 Q322.512 1486.25 316.702 1486.25 Q310.892 1486.25 307.813 1481.67 Q304.758 1477.06 304.758 1468.33 Q304.758 1459.58 307.813 1455 Q310.892 1450.39 316.702 1450.39 Z" fill="#000000" fill-rule="nonzero" fill-opacity="1" /><path clip-path="url(#clip550)" d="M765.5 1481.64 L781.819 1481.64 L781.819 1485.58 L759.875 1485.58 L759.875 1481.64 Q762.537 1478.89 767.12 1474.26 Q771.727 1469.61 772.907 1468.27 Q775.153 1465.74 776.032 1464.01 Q776.935 1462.25 776.935 1460.56 Q776.935 1457.8 774.991 1456.07 Q773.069 1454.33 769.968 1454.33 Q767.768 1454.33 765.315 1455.09 Q762.884 1455.86 760.106 1457.41 L760.106 1452.69 Q762.931 1451.55 765.384 1450.97 Q767.838 1450.39 769.875 1450.39 Q775.245 1450.39 778.44 1453.08 Q781.634 1455.77 781.634 1460.26 Q781.634 1462.39 780.824 1464.31 Q780.037 1466.2 777.93 1468.8 Q777.352 1469.47 774.25 1472.69 Q771.148 1475.88 765.5 1481.64 Z" fill="#000000" fill-rule="nonzero" fill-opacity="1" /><path clip-path="url(#clip550)" d="M791.634 1479.7 L796.518 1479.7 L796.518 1485.58 L791.634 1485.58 L791.634 1479.7 Z" fill="#000000" fill-rule="nonzero" fill-opacity="1" /><path clip-path="url(#clip550)" d="M806.75 1451.02 L825.106 1451.02 L825.106 1454.96 L811.032 1454.96 L811.032 1463.43 Q812.051 1463.08 813.069 1462.92 Q814.088 1462.73 815.106 1462.73 Q820.893 1462.73 824.273 1465.9 Q827.652 1469.08 827.652 1474.49 Q827.652 1480.07 824.18 1483.17 Q820.708 1486.25 814.389 1486.25 Q812.213 1486.25 809.944 1485.88 Q807.699 1485.51 805.291 1484.77 L805.291 1480.07 Q807.375 1481.2 809.597 1481.76 Q811.819 1482.32 814.296 1482.32 Q818.301 1482.32 820.639 1480.21 Q822.976 1478.1 822.976 1474.49 Q822.976 1470.88 820.639 1468.77 Q818.301 1466.67 814.296 1466.67 Q812.421 1466.67 810.546 1467.08 Q808.694 1467.5 806.75 1468.38 L806.75 1451.02 Z" fill="#000000" fill-rule="nonzero" fill-opacity="1" /><path clip-path="url(#clip550)" d="M1260.61 1451.02 L1278.96 1451.02 L1278.96 1454.96 L1264.89 1454.96 L1264.89 1463.43 Q1265.91 1463.08 1266.92 1462.92 Q1267.94 1462.73 1268.96 1462.73 Q1274.75 1462.73 1278.13 1465.9 Q1281.51 1469.08 1281.51 1474.49 Q1281.51 1480.07 1278.04 1483.17 Q1274.56 1486.25 1268.24 1486.25 Q1266.07 1486.25 1263.8 1485.88 Q1261.55 1485.51 1259.15 1484.77 L1259.15 1480.07 Q1261.23 1481.2 1263.45 1481.76 Q1265.67 1482.32 1268.15 1482.32 Q1272.16 1482.32 1274.49 1480.21 Q1276.83 1478.1 1276.83 1474.49 Q1276.83 1470.88 1274.49 1468.77 Q1272.16 1466.67 1268.15 1466.67 Q1266.28 1466.67 1264.4 1467.08 Q1262.55 1467.5 1260.61 1468.38 L1260.61 1451.02 Z" fill="#000000" fill-rule="nonzero" fill-opacity="1" /><path clip-path="url(#clip550)" d="M1290.72 1479.7 L1295.61 1479.7 L1295.61 1485.58 L1290.72 1485.58 L1290.72 1479.7 Z" fill="#000000" fill-rule="nonzero" fill-opacity="1" /><path clip-path="url(#clip550)" d="M1315.79 1454.1 Q1312.18 1454.1 1310.35 1457.66 Q1308.54 1461.2 1308.54 1468.33 Q1308.54 1475.44 1310.35 1479.01 Q1312.18 1482.55 1315.79 1482.55 Q1319.42 1482.55 1321.23 1479.01 Q1323.06 1475.44 1323.06 1468.33 Q1323.06 1461.2 1321.23 1457.66 Q1319.42 1454.1 1315.79 1454.1 M1315.79 1450.39 Q1321.6 1450.39 1324.66 1455 Q1327.73 1459.58 1327.73 1468.33 Q1327.73 1477.06 1324.66 1481.67 Q1321.6 1486.25 1315.79 1486.25 Q1309.98 1486.25 1306.9 1481.67 Q1303.85 1477.06 1303.85 1468.33 Q1303.85 1459.58 1306.9 1455 Q1309.98 1450.39 1315.79 1450.39 Z" fill="#000000" fill-rule="nonzero" fill-opacity="1" /><path clip-path="url(#clip550)" d="M1759.44 1451.02 L1781.66 1451.02 L1781.66 1453.01 L1769.11 1485.58 L1764.23 1485.58 L1776.03 1454.96 L1759.44 1454.96 L1759.44 1451.02 Z" fill="#000000" fill-rule="nonzero" fill-opacity="1" /><path clip-path="url(#clip550)" d="M1790.78 1479.7 L1795.66 1479.7 L1795.66 1485.58 L1790.78 1485.58 L1790.78 1479.7 Z" fill="#000000" fill-rule="nonzero" fill-opacity="1" /><path clip-path="url(#clip550)" d="M1805.9 1451.02 L1824.25 1451.02 L1824.25 1454.96 L1810.18 1454.96 L1810.18 1463.43 Q1811.2 1463.08 1812.21 1462.92 Q1813.23 1462.73 1814.25 1462.73 Q1820.04 1462.73 1823.42 1465.9 Q1826.8 1469.08 1826.8 1474.49 Q1826.8 1480.07 1823.33 1483.17 Q1819.85 1486.25 1813.53 1486.25 Q1811.36 1486.25 1809.09 1485.88 Q1806.84 1485.51 1804.44 1484.77 L1804.44 1480.07 Q1806.52 1481.2 1808.74 1481.76 Q1810.96 1482.32 1813.44 1482.32 Q1817.45 1482.32 1819.78 1480.21 Q1822.12 1478.1 1822.12 1474.49 Q1822.12 1470.88 1819.78 1468.77 Q1817.45 1466.67 1813.44 1466.67 Q1811.57 1466.67 1809.69 1467.08 Q1807.84 1467.5 1805.9 1468.38 L1805.9 1451.02 Z" fill="#000000" fill-rule="nonzero" fill-opacity="1" /><path clip-path="url(#clip550)" d="M2244.87 1481.64 L2252.51 1481.64 L2252.51 1455.28 L2244.2 1456.95 L2244.2 1452.69 L2252.46 1451.02 L2257.14 1451.02 L2257.14 1481.64 L2264.77 1481.64 L2264.77 1485.58 L2244.87 1485.58 L2244.87 1481.64 Z" fill="#000000" fill-rule="nonzero" fill-opacity="1" /><path clip-path="url(#clip550)" d="M2284.22 1454.1 Q2280.61 1454.1 2278.78 1457.66 Q2276.97 1461.2 2276.97 1468.33 Q2276.97 1475.44 2278.78 1479.01 Q2280.61 1482.55 2284.22 1482.55 Q2287.85 1482.55 2289.66 1479.01 Q2291.49 1475.44 2291.49 1468.33 Q2291.49 1461.2 2289.66 1457.66 Q2287.85 1454.1 2284.22 1454.1 M2284.22 1450.39 Q2290.03 1450.39 2293.08 1455 Q2296.16 1459.58 2296.16 1468.33 Q2296.16 1477.06 2293.08 1481.67 Q2290.03 1486.25 2284.22 1486.25 Q2278.41 1486.25 2275.33 1481.67 Q2272.27 1477.06 2272.27 1468.33 Q2272.27 1459.58 2275.33 1455 Q2278.41 1450.39 2284.22 1450.39 Z" fill="#000000" fill-rule="nonzero" fill-opacity="1" /><path clip-path="url(#clip550)" d="M2304.38 1479.7 L2309.26 1479.7 L2309.26 1485.58 L2304.38 1485.58 L2304.38 1479.7 Z" fill="#000000" fill-rule="nonzero" fill-opacity="1" /><path clip-path="url(#clip550)" d="M2329.45 1454.1 Q2325.84 1454.1 2324.01 1457.66 Q2322.2 1461.2 2322.2 1468.33 Q2322.2 1475.44 2324.01 1479.01 Q2325.84 1482.55 2329.45 1482.55 Q2333.08 1482.55 2334.89 1479.01 Q2336.72 1475.44 2336.72 1468.33 Q2336.72 1461.2 2334.89 1457.66 Q2333.08 1454.1 2329.45 1454.1 M2329.45 1450.39 Q2335.26 1450.39 2338.32 1455 Q2341.39 1459.58 2341.39 1468.33 Q2341.39 1477.06 2338.32 1481.67 Q2335.26 1486.25 2329.45 1486.25 Q2323.64 1486.25 2320.56 1481.67 Q2317.51 1477.06 2317.51 1468.33 Q2317.51 1459.58 2320.56 1455 Q2323.64 1450.39 2329.45 1450.39 Z" fill="#000000" fill-rule="nonzero" fill-opacity="1" /><path clip-path="url(#clip550)" d="M1163.61 1520.52 L1203.81 1520.52 L1203.81 1525.93 L1186.94 1525.93 L1186.94 1568.04 L1180.48 1568.04 L1180.48 1525.93 L1163.61 1525.93 L1163.61 1520.52 Z" fill="#000000" fill-rule="nonzero" fill-opacity="1" /><path clip-path="url(#clip550)" d="M1207.76 1532.4 L1213.61 1532.4 L1213.61 1568.04 L1207.76 1568.04 L1207.76 1532.4 M1207.76 1518.52 L1213.61 1518.52 L1213.61 1525.93 L1207.76 1525.93 L1207.76 1518.52 Z" fill="#000000" fill-rule="nonzero" fill-opacity="1" /><path clip-path="url(#clip550)" d="M1253.62 1539.24 Q1255.82 1535.29 1258.87 1533.41 Q1261.93 1531.54 1266.07 1531.54 Q1271.64 1531.54 1274.66 1535.45 Q1277.69 1539.33 1277.69 1546.53 L1277.69 1568.04 L1271.8 1568.04 L1271.8 1546.72 Q1271.8 1541.59 1269.98 1539.11 Q1268.17 1536.63 1264.44 1536.63 Q1259.89 1536.63 1257.25 1539.65 Q1254.61 1542.68 1254.61 1547.9 L1254.61 1568.04 L1248.72 1568.04 L1248.72 1546.72 Q1248.72 1541.56 1246.91 1539.11 Q1245.09 1536.63 1241.31 1536.63 Q1236.82 1536.63 1234.18 1539.68 Q1231.53 1542.71 1231.53 1547.9 L1231.53 1568.04 L1225.65 1568.04 L1225.65 1532.4 L1231.53 1532.4 L1231.53 1537.93 Q1233.54 1534.66 1236.34 1533.1 Q1239.14 1531.54 1242.99 1531.54 Q1246.88 1531.54 1249.58 1533.51 Q1252.32 1535.48 1253.62 1539.24 Z" fill="#000000" fill-rule="nonzero" fill-opacity="1" /><path clip-path="url(#clip550)" d="M1319.86 1548.76 L1319.86 1551.62 L1292.93 1551.62 Q1293.31 1557.67 1296.56 1560.85 Q1299.84 1564 1305.66 1564 Q1309.04 1564 1312.19 1563.17 Q1315.37 1562.35 1318.49 1560.69 L1318.49 1566.23 Q1315.34 1567.57 1312.03 1568.27 Q1308.72 1568.97 1305.31 1568.97 Q1296.78 1568.97 1291.79 1564 Q1286.82 1559.04 1286.82 1550.57 Q1286.82 1541.82 1291.53 1536.69 Q1296.27 1531.54 1304.29 1531.54 Q1311.49 1531.54 1315.66 1536.18 Q1319.86 1540.8 1319.86 1548.76 M1314 1547.04 Q1313.94 1542.23 1311.3 1539.37 Q1308.69 1536.5 1304.36 1536.5 Q1299.46 1536.5 1296.5 1539.27 Q1293.57 1542.04 1293.12 1547.07 L1314 1547.04 Z" fill="#000000" fill-rule="nonzero" fill-opacity="1" /><path clip-path="url(#clip550)" d="M1349.65 1518.52 L1363.15 1518.52 L1363.15 1523.07 L1355.51 1523.07 L1355.51 1572.09 L1363.15 1572.09 L1363.15 1576.64 L1349.65 1576.64 L1349.65 1518.52 Z" fill="#000000" fill-rule="nonzero" fill-opacity="1" /><path clip-path="url(#clip550)" d="M1398.35 1533.45 L1398.35 1538.98 Q1395.86 1537.71 1393.19 1537.07 Q1390.52 1536.44 1387.65 1536.44 Q1383.29 1536.44 1381.1 1537.77 Q1378.93 1539.11 1378.93 1541.79 Q1378.93 1543.82 1380.49 1545 Q1382.05 1546.15 1386.76 1547.2 L1388.77 1547.64 Q1395.01 1548.98 1397.62 1551.43 Q1400.26 1553.85 1400.26 1558.21 Q1400.26 1563.17 1396.31 1566.07 Q1392.4 1568.97 1385.52 1568.97 Q1382.66 1568.97 1379.54 1568.39 Q1376.45 1567.85 1373.01 1566.74 L1373.01 1560.69 Q1376.26 1562.38 1379.41 1563.24 Q1382.56 1564.07 1385.65 1564.07 Q1389.79 1564.07 1392.01 1562.66 Q1394.24 1561.23 1394.24 1558.65 Q1394.24 1556.27 1392.62 1554.99 Q1391.03 1553.72 1385.58 1552.54 L1383.55 1552.07 Q1378.1 1550.92 1375.69 1548.56 Q1373.27 1546.18 1373.27 1542.04 Q1373.27 1537.01 1376.83 1534.27 Q1380.4 1531.54 1386.95 1531.54 Q1390.2 1531.54 1393.06 1532.01 Q1395.93 1532.49 1398.35 1533.45 Z" fill="#000000" fill-rule="nonzero" fill-opacity="1" /><path clip-path="url(#clip550)" d="M1423.27 1518.52 L1423.27 1576.64 L1409.77 1576.64 L1409.77 1572.09 L1417.38 1572.09 L1417.38 1523.07 L1409.77 1523.07 L1409.77 1518.52 L1423.27 1518.52 Z" fill="#000000" fill-rule="nonzero" fill-opacity="1" /><polyline clip-path="url(#clip550)" style="stroke:#000000; stroke-linecap:round; stroke-linejoin:round; stroke-width:4; stroke-opacity:1; fill:none" points="234.125,1423.18 234.125,47.2441 "/>
<polyline clip-path="url(#clip550)" style="stroke:#000000; stroke-linecap:round; stroke-linejoin:round; stroke-width:4; stroke-opacity:1; fill:none" points="234.125,1384.24 253.023,1384.24 "/>
<polyline clip-path="url(#clip550)" style="stroke:#000000; stroke-linecap:round; stroke-linejoin:round; stroke-width:4; stroke-opacity:1; fill:none" points="234.125,1111.29 253.023,1111.29 "/>
<polyline clip-path="url(#clip550)" style="stroke:#000000; stroke-linecap:round; stroke-linejoin:round; stroke-width:4; stroke-opacity:1; fill:none" points="234.125,838.337 253.023,838.337 "/>
<polyline clip-path="url(#clip550)" style="stroke:#000000; stroke-linecap:round; stroke-linejoin:round; stroke-width:4; stroke-opacity:1; fill:none" points="234.125,565.387 253.023,565.387 "/>
<polyline clip-path="url(#clip550)" style="stroke:#000000; stroke-linecap:round; stroke-linejoin:round; stroke-width:4; stroke-opacity:1; fill:none" points="234.125,292.437 253.023,292.437 "/>
<path clip-path="url(#clip550)" d="M186.181 1370.04 Q182.57 1370.04 180.741 1373.6 Q178.936 1377.14 178.936 1384.27 Q178.936 1391.38 180.741 1394.94 Q182.57 1398.49 186.181 1398.49 Q189.815 1398.49 191.621 1394.94 Q193.45 1391.38 193.45 1384.27 Q193.45 1377.14 191.621 1373.6 Q189.815 1370.04 186.181 1370.04 M186.181 1366.33 Q191.991 1366.33 195.047 1370.94 Q198.125 1375.52 198.125 1384.27 Q198.125 1393 195.047 1397.61 Q191.991 1402.19 186.181 1402.19 Q180.371 1402.19 177.292 1397.61 Q174.237 1393 174.237 1384.27 Q174.237 1375.52 177.292 1370.94 Q180.371 1366.33 186.181 1366.33 Z" fill="#000000" fill-rule="nonzero" fill-opacity="1" /><path clip-path="url(#clip550)" d="M146.066 1094.01 L164.422 1094.01 L164.422 1097.94 L150.348 1097.94 L150.348 1106.42 Q151.366 1106.07 152.385 1105.91 Q153.403 1105.72 154.422 1105.72 Q160.209 1105.72 163.589 1108.89 Q166.968 1112.06 166.968 1117.48 Q166.968 1123.06 163.496 1126.16 Q160.024 1129.24 153.704 1129.24 Q151.528 1129.24 149.26 1128.87 Q147.015 1128.5 144.607 1127.76 L144.607 1123.06 Q146.691 1124.19 148.913 1124.75 Q151.135 1125.3 153.612 1125.3 Q157.616 1125.3 159.954 1123.2 Q162.292 1121.09 162.292 1117.48 Q162.292 1113.87 159.954 1111.76 Q157.616 1109.66 153.612 1109.66 Q151.737 1109.66 149.862 1110.07 Q148.01 1110.49 146.066 1111.37 L146.066 1094.01 Z" fill="#000000" fill-rule="nonzero" fill-opacity="1" /><path clip-path="url(#clip550)" d="M186.181 1097.09 Q182.57 1097.09 180.741 1100.65 Q178.936 1104.19 178.936 1111.32 Q178.936 1118.43 180.741 1121.99 Q182.57 1125.54 186.181 1125.54 Q189.815 1125.54 191.621 1121.99 Q193.45 1118.43 193.45 1111.32 Q193.45 1104.19 191.621 1100.65 Q189.815 1097.09 186.181 1097.09 M186.181 1093.38 Q191.991 1093.38 195.047 1097.99 Q198.125 1102.57 198.125 1111.32 Q198.125 1120.05 195.047 1124.66 Q191.991 1129.24 186.181 1129.24 Q180.371 1129.24 177.292 1124.66 Q174.237 1120.05 174.237 1111.32 Q174.237 1102.57 177.292 1097.99 Q180.371 1093.38 186.181 1093.38 Z" fill="#000000" fill-rule="nonzero" fill-opacity="1" /><path clip-path="url(#clip550)" d="M116.668 851.682 L124.306 851.682 L124.306 825.317 L115.996 826.983 L115.996 822.724 L124.26 821.057 L128.936 821.057 L128.936 851.682 L136.575 851.682 L136.575 855.617 L116.668 855.617 L116.668 851.682 Z" fill="#000000" fill-rule="nonzero" fill-opacity="1" /><path clip-path="url(#clip550)" d="M156.019 824.136 Q152.408 824.136 150.579 827.701 Q148.774 831.243 148.774 838.372 Q148.774 845.479 150.579 849.043 Q152.408 852.585 156.019 852.585 Q159.653 852.585 161.459 849.043 Q163.288 845.479 163.288 838.372 Q163.288 831.243 161.459 827.701 Q159.653 824.136 156.019 824.136 M156.019 820.432 Q161.829 820.432 164.885 825.039 Q167.964 829.622 167.964 838.372 Q167.964 847.099 164.885 851.705 Q161.829 856.289 156.019 856.289 Q150.209 856.289 147.13 851.705 Q144.075 847.099 144.075 838.372 Q144.075 829.622 147.13 825.039 Q150.209 820.432 156.019 820.432 Z" fill="#000000" fill-rule="nonzero" fill-opacity="1" /><path clip-path="url(#clip550)" d="M186.181 824.136 Q182.57 824.136 180.741 827.701 Q178.936 831.243 178.936 838.372 Q178.936 845.479 180.741 849.043 Q182.57 852.585 186.181 852.585 Q189.815 852.585 191.621 849.043 Q193.45 845.479 193.45 838.372 Q193.45 831.243 191.621 827.701 Q189.815 824.136 186.181 824.136 M186.181 820.432 Q191.991 820.432 195.047 825.039 Q198.125 829.622 198.125 838.372 Q198.125 847.099 195.047 851.705 Q191.991 856.289 186.181 856.289 Q180.371 856.289 177.292 851.705 Q174.237 847.099 174.237 838.372 Q174.237 829.622 177.292 825.039 Q180.371 820.432 186.181 820.432 Z" fill="#000000" fill-rule="nonzero" fill-opacity="1" /><path clip-path="url(#clip550)" d="M116.668 578.732 L124.306 578.732 L124.306 552.366 L115.996 554.033 L115.996 549.774 L124.26 548.107 L128.936 548.107 L128.936 578.732 L136.575 578.732 L136.575 582.667 L116.668 582.667 L116.668 578.732 Z" fill="#000000" fill-rule="nonzero" fill-opacity="1" /><path clip-path="url(#clip550)" d="M146.066 548.107 L164.422 548.107 L164.422 552.042 L150.348 552.042 L150.348 560.514 Q151.366 560.167 152.385 560.005 Q153.403 559.82 154.422 559.82 Q160.209 559.82 163.589 562.991 Q166.968 566.162 166.968 571.579 Q166.968 577.158 163.496 580.26 Q160.024 583.338 153.704 583.338 Q151.528 583.338 149.26 582.968 Q147.015 582.598 144.607 581.857 L144.607 577.158 Q146.691 578.292 148.913 578.848 Q151.135 579.403 153.612 579.403 Q157.616 579.403 159.954 577.297 Q162.292 575.19 162.292 571.579 Q162.292 567.968 159.954 565.862 Q157.616 563.755 153.612 563.755 Q151.737 563.755 149.862 564.172 Q148.01 564.588 146.066 565.468 L146.066 548.107 Z" fill="#000000" fill-rule="nonzero" fill-opacity="1" /><path clip-path="url(#clip550)" d="M186.181 551.186 Q182.57 551.186 180.741 554.751 Q178.936 558.292 178.936 565.422 Q178.936 572.528 180.741 576.093 Q182.57 579.635 186.181 579.635 Q189.815 579.635 191.621 576.093 Q193.45 572.528 193.45 565.422 Q193.45 558.292 191.621 554.751 Q189.815 551.186 186.181 551.186 M186.181 547.482 Q191.991 547.482 195.047 552.089 Q198.125 556.672 198.125 565.422 Q198.125 574.149 195.047 578.755 Q191.991 583.338 186.181 583.338 Q180.371 583.338 177.292 578.755 Q174.237 574.149 174.237 565.422 Q174.237 556.672 177.292 552.089 Q180.371 547.482 186.181 547.482 Z" fill="#000000" fill-rule="nonzero" fill-opacity="1" /><path clip-path="url(#clip550)" d="M119.885 305.781 L136.204 305.781 L136.204 309.717 L114.26 309.717 L114.26 305.781 Q116.922 303.027 121.505 298.397 Q126.112 293.744 127.292 292.402 Q129.538 289.879 130.417 288.143 Q131.32 286.383 131.32 284.694 Q131.32 281.939 129.376 280.203 Q127.455 278.467 124.353 278.467 Q122.154 278.467 119.7 279.231 Q117.269 279.995 114.492 281.545 L114.492 276.823 Q117.316 275.689 119.769 275.11 Q122.223 274.532 124.26 274.532 Q129.63 274.532 132.825 277.217 Q136.019 279.902 136.019 284.393 Q136.019 286.522 135.209 288.444 Q134.422 290.342 132.316 292.934 Q131.737 293.606 128.635 296.823 Q125.533 300.018 119.885 305.781 Z" fill="#000000" fill-rule="nonzero" fill-opacity="1" /><path clip-path="url(#clip550)" d="M156.019 278.235 Q152.408 278.235 150.579 281.8 Q148.774 285.342 148.774 292.471 Q148.774 299.578 150.579 303.143 Q152.408 306.684 156.019 306.684 Q159.653 306.684 161.459 303.143 Q163.288 299.578 163.288 292.471 Q163.288 285.342 161.459 281.8 Q159.653 278.235 156.019 278.235 M156.019 274.532 Q161.829 274.532 164.885 279.138 Q167.964 283.721 167.964 292.471 Q167.964 301.198 164.885 305.805 Q161.829 310.388 156.019 310.388 Q150.209 310.388 147.13 305.805 Q144.075 301.198 144.075 292.471 Q144.075 283.721 147.13 279.138 Q150.209 274.532 156.019 274.532 Z" fill="#000000" fill-rule="nonzero" fill-opacity="1" /><path clip-path="url(#clip550)" d="M186.181 278.235 Q182.57 278.235 180.741 281.8 Q178.936 285.342 178.936 292.471 Q178.936 299.578 180.741 303.143 Q182.57 306.684 186.181 306.684 Q189.815 306.684 191.621 303.143 Q193.45 299.578 193.45 292.471 Q193.45 285.342 191.621 281.8 Q189.815 278.235 186.181 278.235 M186.181 274.532 Q191.991 274.532 195.047 279.138 Q198.125 283.721 198.125 292.471 Q198.125 301.198 195.047 305.805 Q191.991 310.388 186.181 310.388 Q180.371 310.388 177.292 305.805 Q174.237 301.198 174.237 292.471 Q174.237 283.721 177.292 279.138 Q180.371 274.532 186.181 274.532 Z" fill="#000000" fill-rule="nonzero" fill-opacity="1" /><path clip-path="url(#clip550)" d="M16.4842 1076.29 L16.4842 1048.98 L21.895 1048.98 L21.895 1069.86 L35.8996 1069.86 L35.8996 1051.01 L41.3104 1051.01 L41.3104 1069.86 L64.0042 1069.86 L64.0042 1076.29 L16.4842 1076.29 Z" fill="#000000" fill-rule="nonzero" fill-opacity="1" /><path clip-path="url(#clip550)" d="M32.4621 1027.56 Q32.4621 1032.27 36.1542 1035 Q39.8145 1037.74 46.212 1037.74 Q52.6095 1037.74 56.3017 1035.04 Q59.9619 1032.3 59.9619 1027.56 Q59.9619 1022.88 56.2698 1020.14 Q52.5777 1017.4 46.212 1017.4 Q39.8781 1017.4 36.186 1020.14 Q32.4621 1022.88 32.4621 1027.56 M27.4968 1027.56 Q27.4968 1019.92 32.4621 1015.56 Q37.4273 1011.2 46.212 1011.2 Q54.9649 1011.2 59.9619 1015.56 Q64.9272 1019.92 64.9272 1027.56 Q64.9272 1035.23 59.9619 1039.59 Q54.9649 1043.92 46.212 1043.92 Q37.4273 1043.92 32.4621 1039.59 Q27.4968 1035.23 27.4968 1027.56 Z" fill="#000000" fill-rule="nonzero" fill-opacity="1" /><path clip-path="url(#clip550)" d="M33.8307 980.833 Q33.2578 981.819 33.0032 982.997 Q32.7167 984.143 32.7167 985.543 Q32.7167 990.509 35.9632 993.182 Q39.1779 995.824 45.2253 995.824 L64.0042 995.824 L64.0042 1001.71 L28.3562 1001.71 L28.3562 995.824 L33.8944 995.824 Q30.6479 993.978 29.0883 991.018 Q27.4968 988.058 27.4968 983.825 Q27.4968 983.22 27.5923 982.488 Q27.656 981.756 27.8151 980.865 L33.8307 980.833 Z" fill="#000000" fill-rule="nonzero" fill-opacity="1" /><path clip-path="url(#clip550)" d="M28.3562 978.096 L28.3562 972.239 L56.1743 964.918 L28.3562 957.63 L28.3562 950.723 L56.1743 943.402 L28.3562 936.114 L28.3562 930.257 L64.0042 939.583 L64.0042 946.49 L34.7856 954.16 L64.0042 961.863 L64.0042 968.77 L28.3562 978.096 Z" fill="#000000" fill-rule="nonzero" fill-opacity="1" /><path clip-path="url(#clip550)" d="M46.0847 905.176 Q46.0847 912.274 47.7079 915.011 Q49.3312 917.749 53.2461 917.749 Q56.3653 917.749 58.2114 915.712 Q60.0256 913.643 60.0256 910.11 Q60.0256 905.24 56.5881 902.312 Q53.1188 899.352 47.3897 899.352 L46.0847 899.352 L46.0847 905.176 M43.6657 893.495 L64.0042 893.495 L64.0042 899.352 L58.5933 899.352 Q61.8398 901.357 63.3994 904.349 Q64.9272 907.341 64.9272 911.669 Q64.9272 917.144 61.8716 920.39 Q58.7843 923.605 53.6281 923.605 Q47.6125 923.605 44.5569 919.595 Q41.5014 915.552 41.5014 907.563 L41.5014 899.352 L40.9285 899.352 Q36.8862 899.352 34.6901 902.025 Q32.4621 904.667 32.4621 909.473 Q32.4621 912.529 33.1941 915.425 Q33.9262 918.322 35.3903 920.995 L29.9795 920.995 Q28.7381 917.78 28.1334 914.757 Q27.4968 911.733 27.4968 908.868 Q27.4968 901.134 31.5072 897.315 Q35.5176 893.495 43.6657 893.495 Z" fill="#000000" fill-rule="nonzero" fill-opacity="1" /><path clip-path="url(#clip550)" d="M33.8307 860.776 Q33.2578 861.762 33.0032 862.94 Q32.7167 864.086 32.7167 865.486 Q32.7167 870.451 35.9632 873.125 Q39.1779 875.767 45.2253 875.767 L64.0042 875.767 L64.0042 881.655 L28.3562 881.655 L28.3562 875.767 L33.8944 875.767 Q30.6479 873.921 29.0883 870.961 Q27.4968 868.001 27.4968 863.767 Q27.4968 863.163 27.5923 862.431 Q27.656 861.699 27.8151 860.807 L33.8307 860.776 Z" fill="#000000" fill-rule="nonzero" fill-opacity="1" /><path clip-path="url(#clip550)" d="M33.7671 832.321 L14.479 832.321 L14.479 826.464 L64.0042 826.464 L64.0042 832.321 L58.657 832.321 Q61.8398 834.167 63.3994 837 Q64.9272 839.801 64.9272 843.747 Q64.9272 850.208 59.771 854.283 Q54.6147 858.325 46.212 858.325 Q37.8093 858.325 32.6531 854.283 Q27.4968 850.208 27.4968 843.747 Q27.4968 839.801 29.0564 837 Q30.5842 834.167 33.7671 832.321 M46.212 852.277 Q52.6732 852.277 56.3653 849.636 Q60.0256 846.962 60.0256 842.315 Q60.0256 837.668 56.3653 834.994 Q52.6732 832.321 46.212 832.321 Q39.7508 832.321 36.0905 834.994 Q32.3984 837.668 32.3984 842.315 Q32.3984 846.962 36.0905 849.636 Q39.7508 852.277 46.212 852.277 Z" fill="#000000" fill-rule="nonzero" fill-opacity="1" /><path clip-path="url(#clip550)" d="M33.7671 770.223 L14.479 770.223 L14.479 764.367 L64.0042 764.367 L64.0042 770.223 L58.657 770.223 Q61.8398 772.069 63.3994 774.902 Q64.9272 777.703 64.9272 781.65 Q64.9272 788.111 59.771 792.185 Q54.6147 796.227 46.212 796.227 Q37.8093 796.227 32.6531 792.185 Q27.4968 788.111 27.4968 781.65 Q27.4968 777.703 29.0564 774.902 Q30.5842 772.069 33.7671 770.223 M46.212 790.18 Q52.6732 790.18 56.3653 787.538 Q60.0256 784.864 60.0256 780.218 Q60.0256 775.571 56.3653 772.897 Q52.6732 770.223 46.212 770.223 Q39.7508 770.223 36.0905 772.897 Q32.3984 775.571 32.3984 780.218 Q32.3984 784.864 36.0905 787.538 Q39.7508 790.18 46.212 790.18 Z" fill="#000000" fill-rule="nonzero" fill-opacity="1" /><path clip-path="url(#clip550)" d="M28.3562 752.304 L28.3562 746.447 L64.0042 746.447 L64.0042 752.304 L28.3562 752.304 M14.479 752.304 L14.479 746.447 L21.895 746.447 L21.895 752.304 L14.479 752.304 Z" fill="#000000" fill-rule="nonzero" fill-opacity="1" /><path clip-path="url(#clip550)" d="M29.4065 711.468 L34.9447 711.468 Q33.6716 713.951 33.035 716.624 Q32.3984 719.298 32.3984 722.162 Q32.3984 726.523 33.7352 728.719 Q35.072 730.883 37.7456 730.883 Q39.7826 730.883 40.9603 729.324 Q42.1061 727.764 43.1565 723.053 L43.6021 721.048 Q44.9389 714.81 47.3897 712.2 Q49.8086 709.558 54.1691 709.558 Q59.1344 709.558 62.0308 713.505 Q64.9272 717.42 64.9272 724.295 Q64.9272 727.159 64.3543 730.279 Q63.8132 733.366 62.6992 736.803 L56.6518 736.803 Q58.3387 733.557 59.198 730.406 Q60.0256 727.255 60.0256 724.167 Q60.0256 720.03 58.6251 717.802 Q57.1929 715.574 54.6147 715.574 Q52.2276 715.574 50.9545 717.197 Q49.6813 718.788 48.5037 724.231 L48.0262 726.268 Q46.8804 731.711 44.5251 734.13 Q42.138 736.549 38.0002 736.549 Q32.9713 736.549 30.2341 732.984 Q27.4968 729.419 27.4968 722.862 Q27.4968 719.616 27.9743 716.751 Q28.4517 713.887 29.4065 711.468 Z" fill="#000000" fill-rule="nonzero" fill-opacity="1" /><path clip-path="url(#clip550)" d="M18.2347 694.44 L28.3562 694.44 L28.3562 682.377 L32.9077 682.377 L32.9077 694.44 L52.2594 694.44 Q56.6199 694.44 57.8613 693.262 Q59.1026 692.052 59.1026 688.392 L59.1026 682.377 L64.0042 682.377 L64.0042 688.392 Q64.0042 695.172 61.4897 697.75 Q58.9434 700.328 52.2594 700.328 L32.9077 700.328 L32.9077 704.625 L28.3562 704.625 L28.3562 700.328 L18.2347 700.328 L18.2347 694.44 Z" fill="#000000" fill-rule="nonzero" fill-opacity="1" /><path clip-path="url(#clip550)" d="M46.0847 658.473 Q46.0847 665.571 47.7079 668.308 Q49.3312 671.046 53.2461 671.046 Q56.3653 671.046 58.2114 669.009 Q60.0256 666.94 60.0256 663.407 Q60.0256 658.537 56.5881 655.609 Q53.1188 652.649 47.3897 652.649 L46.0847 652.649 L46.0847 658.473 M43.6657 646.792 L64.0042 646.792 L64.0042 652.649 L58.5933 652.649 Q61.8398 654.654 63.3994 657.646 Q64.9272 660.638 64.9272 664.966 Q64.9272 670.441 61.8716 673.687 Q58.7843 676.902 53.6281 676.902 Q47.6125 676.902 44.5569 672.892 Q41.5014 668.849 41.5014 660.861 L41.5014 652.649 L40.9285 652.649 Q36.8862 652.649 34.6901 655.322 Q32.4621 657.964 32.4621 662.77 Q32.4621 665.826 33.1941 668.722 Q33.9262 671.619 35.3903 674.292 L29.9795 674.292 Q28.7381 671.077 28.1334 668.054 Q27.4968 665.03 27.4968 662.165 Q27.4968 654.431 31.5072 650.612 Q35.5176 646.792 43.6657 646.792 Z" fill="#000000" fill-rule="nonzero" fill-opacity="1" /><path clip-path="url(#clip550)" d="M42.4881 605.097 L64.0042 605.097 L64.0042 610.953 L42.679 610.953 Q37.6183 610.953 35.1038 612.927 Q32.5894 614.9 32.5894 618.847 Q32.5894 623.589 35.6131 626.327 Q38.6368 629.064 43.8567 629.064 L64.0042 629.064 L64.0042 634.952 L28.3562 634.952 L28.3562 629.064 L33.8944 629.064 Q30.6797 626.963 29.0883 624.13 Q27.4968 621.266 27.4968 617.542 Q27.4968 611.399 31.3163 608.248 Q35.1038 605.097 42.4881 605.097 Z" fill="#000000" fill-rule="nonzero" fill-opacity="1" /><path clip-path="url(#clip550)" d="M29.7248 567.762 L35.1993 567.762 Q33.8307 570.245 33.1623 572.759 Q32.4621 575.242 32.4621 577.788 Q32.4621 583.485 36.0905 586.636 Q39.6872 589.787 46.212 589.787 Q52.7369 589.787 56.3653 586.636 Q59.9619 583.485 59.9619 577.788 Q59.9619 575.242 59.2935 572.759 Q58.5933 570.245 57.2247 567.762 L62.6355 567.762 Q63.7814 570.213 64.3543 572.855 Q64.9272 575.465 64.9272 578.425 Q64.9272 586.477 59.8664 591.22 Q54.8057 595.962 46.212 595.962 Q37.491 595.962 32.4939 591.188 Q27.4968 586.382 27.4968 578.043 Q27.4968 575.337 28.0697 572.759 Q28.6108 570.181 29.7248 567.762 Z" fill="#000000" fill-rule="nonzero" fill-opacity="1" /><path clip-path="url(#clip550)" d="M44.7161 527.085 L47.5806 527.085 L47.5806 554.012 Q53.6281 553.63 56.8109 550.384 Q59.9619 547.105 59.9619 541.281 Q59.9619 537.907 59.1344 534.756 Q58.3069 531.573 56.6518 528.454 L62.1899 528.454 Q63.5267 531.605 64.227 534.915 Q64.9272 538.225 64.9272 541.631 Q64.9272 550.161 59.9619 555.158 Q54.9967 560.123 46.5303 560.123 Q37.7774 560.123 32.6531 555.413 Q27.4968 550.67 27.4968 542.649 Q27.4968 535.456 32.1438 531.287 Q36.7589 527.085 44.7161 527.085 M42.9973 532.942 Q38.1912 533.005 35.3266 535.647 Q32.4621 538.257 32.4621 542.586 Q32.4621 547.487 35.2312 550.447 Q38.0002 553.376 43.0292 553.821 L42.9973 532.942 Z" fill="#000000" fill-rule="nonzero" fill-opacity="1" /><path clip-path="url(#clip550)" d="M14.479 497.294 L14.479 483.798 L19.0304 483.798 L19.0304 491.437 L68.0464 491.437 L68.0464 483.798 L72.5979 483.798 L72.5979 497.294 L14.479 497.294 Z" fill="#000000" fill-rule="nonzero" fill-opacity="1" /><path clip-path="url(#clip550)" d="M35.1993 443.567 Q31.2526 441.371 29.3747 438.315 Q27.4968 435.26 27.4968 431.122 Q27.4968 425.552 31.4117 422.528 Q35.2948 419.505 42.4881 419.505 L64.0042 419.505 L64.0042 425.393 L42.679 425.393 Q37.5546 425.393 35.072 427.207 Q32.5894 429.021 32.5894 432.745 Q32.5894 437.297 35.6131 439.939 Q38.6368 442.58 43.8567 442.58 L64.0042 442.58 L64.0042 448.469 L42.679 448.469 Q37.5228 448.469 35.072 450.283 Q32.5894 452.097 32.5894 455.885 Q32.5894 460.373 35.6449 463.014 Q38.6686 465.656 43.8567 465.656 L64.0042 465.656 L64.0042 471.544 L28.3562 471.544 L28.3562 465.656 L33.8944 465.656 Q30.616 463.651 29.0564 460.85 Q27.4968 458.049 27.4968 454.198 Q27.4968 450.315 29.4702 447.609 Q31.4436 444.872 35.1993 443.567 Z" fill="#000000" fill-rule="nonzero" fill-opacity="1" /><path clip-path="url(#clip550)" d="M14.479 394.137 L72.5979 394.137 L72.5979 407.633 L68.0464 407.633 L68.0464 400.026 L19.0304 400.026 L19.0304 407.633 L14.479 407.633 L14.479 394.137 Z" fill="#000000" fill-rule="nonzero" fill-opacity="1" /><polyline clip-path="url(#clip552)" style="stroke:#000000; stroke-linecap:round; stroke-linejoin:round; stroke-width:8; stroke-opacity:1; fill:none" points="294.087,1384.24 296.085,1382.87 298.084,1381.51 300.083,1380.14 302.082,1378.78 304.08,1377.41 306.079,1376.05 308.078,1374.69 310.076,1373.32 312.075,1371.96 314.074,1370.59 316.072,1369.23 318.071,1367.86 320.07,1366.5 322.069,1365.13 324.067,1363.77 326.066,1362.4 328.065,1361.04 330.063,1359.67 332.062,1358.31 334.061,1356.94 336.06,1355.58 338.058,1354.21 340.057,1352.85 342.056,1351.48 344.054,1350.12 346.053,1348.75 348.052,1347.39 350.051,1346.03 352.049,1344.66 354.048,1343.3 356.047,1341.93 358.045,1340.57 360.044,1339.2 362.043,1337.84 364.041,1336.47 366.04,1335.11 368.039,1333.74 370.038,1332.38 372.036,1331.01 374.035,1329.65 376.034,1328.28 378.032,1326.92 380.031,1325.55 382.03,1324.19 384.029,1322.82 386.027,1321.46 388.026,1320.09 390.025,1318.73 392.023,1317.37 394.022,1316 396.021,1314.64 398.02,1313.27 400.018,1311.91 402.017,1310.54 404.016,1309.18 406.014,1307.81 408.013,1306.45 410.012,1305.08 412.01,1303.72 414.009,1302.35 416.008,1300.99 418.007,1299.62 420.005,1298.26 422.004,1296.89 424.003,1295.53 426.001,1294.17 428,1292.8 429.999,1291.44 431.998,1290.07 433.996,1288.71 435.995,1287.34 437.994,1285.98 439.992,1284.61 441.991,1283.25 443.99,1281.88 445.988,1280.52 447.987,1279.15 449.986,1277.79 451.985,1276.42 453.983,1275.06 455.982,1273.69 457.981,1272.33 459.979,1270.96 461.978,1269.6 463.977,1268.24 465.976,1266.87 467.974,1265.51 469.973,1264.14 471.972,1262.78 473.97,1261.41 475.969,1260.05 477.968,1258.68 479.967,1257.32 481.965,1255.95 483.964,1254.59 485.963,1253.22 487.961,1251.86 489.96,1250.5 491.959,1249.13 493.957,1247.77 495.956,1246.4 497.955,1245.04 499.954,1243.67 501.952,1242.31 503.951,1240.94 505.95,1239.58 507.948,1238.21 509.947,1236.85 511.946,1235.48 513.945,1234.12 515.943,1232.76 517.942,1231.39 519.941,1230.03 521.939,1228.66 523.938,1227.3 525.937,1225.93 527.936,1224.57 529.934,1223.2 531.933,1221.84 533.932,1220.47 535.93,1219.11 537.929,1217.75 539.928,1216.38 541.926,1215.02 543.925,1213.65 545.924,1212.29 547.923,1210.92 549.921,1209.56 551.92,1208.19 553.919,1206.83 555.917,1205.46 557.916,1204.1 559.915,1202.73 561.914,1201.37 563.912,1200.01 565.911,1198.64 567.91,1197.28 569.908,1195.91 571.907,1194.55 573.906,1193.18 575.905,1191.82 577.903,1190.45 579.902,1189.09 581.901,1187.72 583.899,1186.36 585.898,1184.99 587.897,1183.63 589.895,1182.26 591.894,1180.9 593.893,1179.53 595.892,1178.17 597.89,1176.8 599.889,1175.44 601.888,1174.07 603.886,1172.71 605.885,1171.34 607.884,1169.98 609.883,1168.61 611.881,1167.25 613.88,1165.88 615.879,1164.52 617.877,1163.15 619.876,1161.78 621.875,1160.42 623.874,1159.05 625.872,1157.69 627.871,1156.32 629.87,1154.96 631.868,1153.59 633.867,1152.23 635.866,1150.86 637.864,1149.5 639.863,1148.13 641.862,1146.77 643.861,1145.4 645.859,1144.03 647.858,1142.67 649.857,1141.3 651.855,1139.94 653.854,1138.57 655.853,1137.21 657.852,1135.84 659.85,1134.48 661.849,1133.11 663.848,1131.75 665.846,1130.38 667.845,1129.02 669.844,1127.65 671.842,1126.28 673.841,1124.92 675.84,1123.55 677.839,1122.19 679.837,1120.82 681.836,1119.46 683.835,1118.09 685.833,1116.73 687.832,1115.36 689.831,1114 691.83,1112.63 693.828,1111.27 695.827,1109.9 697.826,1108.54 699.824,1107.17 701.823,1105.81 703.822,1104.44 705.821,1103.08 707.819,1101.71 709.818,1100.35 711.817,1098.98 713.815,1097.62 715.814,1096.25 717.813,1094.89 719.811,1093.52 721.81,1092.16 723.809,1090.79 725.808,1089.43 727.806,1088.06 729.805,1086.7 731.804,1085.33 733.802,1083.97 735.801,1082.6 737.8,1081.24 739.799,1079.88 741.797,1078.51 743.796,1077.15 745.795,1075.78 747.793,1074.42 749.792,1073.06 751.791,1071.69 753.79,1070.33 755.788,1068.97 757.787,1067.6 759.786,1066.24 761.784,1064.87 763.783,1063.51 765.782,1062.15 767.78,1060.79 769.779,1059.42 771.778,1058.06 773.777,1056.7 775.775,1055.33 777.774,1053.97 779.773,1052.61 781.771,1051.25 783.77,1049.88 785.769,1048.52 787.768,1047.16 789.766,1045.8 791.765,1044.44 793.764,1043.08 795.762,1041.71 797.761,1040.35 799.76,1038.99 801.759,1037.63 803.757,1036.27 805.756,1034.91 807.755,1033.55 809.753,1032.19 811.752,1030.83 813.751,1029.47 815.749,1028.11 817.748,1026.75 819.747,1025.39 821.746,1024.03 823.744,1022.67 825.743,1021.31 827.742,1019.95 829.74,1018.59 831.739,1017.23 833.738,1015.87 835.737,1014.51 837.735,1013.16 839.734,1011.8 841.733,1010.44 843.731,1009.08 845.73,1007.72 847.729,1006.37 849.728,1005.01 851.726,1003.65 853.725,1002.3 855.724,1000.94 857.722,999.583 859.721,998.227 861.72,996.871 863.718,995.516 865.717,994.16 867.716,992.805 869.715,991.45 871.713,990.095 873.712,988.74 875.711,987.386 877.709,986.032 879.708,984.678 881.707,983.324 883.706,981.971 885.704,980.618 887.703,979.265 889.702,977.912 891.7,976.56 893.699,975.207 895.698,973.855 897.696,972.504 899.695,971.152 901.694,969.801 903.693,968.45 905.691,967.1 907.69,965.749 909.689,964.399 911.687,963.049 913.686,961.7 915.685,960.35 917.684,959.002 919.682,957.653 921.681,956.304 923.68,954.956 925.678,953.609 927.677,952.261 929.676,950.914 931.675,949.567 933.673,948.221 935.672,946.874 937.671,945.529 939.669,944.183 941.668,942.838 943.667,941.493 945.665,940.149 947.664,938.804 949.663,937.461 951.662,936.117 953.66,934.774 955.659,933.432 957.658,932.089 959.656,930.747 961.655,929.406 963.654,928.065 965.653,926.724 967.651,925.384 969.65,924.044 971.649,922.705 973.647,921.366 975.646,920.027 977.645,918.689 979.644,917.351 981.642,916.014 983.641,914.677 985.64,913.341 987.638,912.005 989.637,910.669 991.636,909.334 993.634,907.999 995.633,906.665 997.632,905.332 999.631,903.998 1001.63,902.665 1003.63,901.333 1005.63,900.001 1007.63,898.67 1009.62,897.339 1011.62,896.009 1013.62,894.679 1015.62,893.349 1017.62,892.02 1019.62,890.691 1021.62,889.363 1023.62,888.036 1025.61,886.709 1027.61,885.382 1029.61,884.056 1031.61,882.73 1033.61,881.405 1035.61,880.08 1037.61,878.756 1039.6,877.433 1041.6,876.109 1043.6,874.787 1045.6,873.464 1047.6,872.143 1049.6,870.821 1051.6,869.501 1053.6,868.18 1055.59,866.861 1057.59,865.541 1059.59,864.223 1061.59,862.904 1063.59,861.587 1065.59,860.269 1067.59,858.952 1069.59,857.636 1071.58,856.32 1073.58,855.005 1075.58,853.69 1077.58,852.376 1079.58,851.062 1081.58,849.749 1083.58,848.436 1085.58,847.124 1087.57,845.812 1089.57,844.501 1091.57,843.19 1093.57,841.88 1095.57,840.57 1097.57,839.261 1099.57,837.952 1101.56,836.643 1103.56,835.336 1105.56,834.028 1107.56,832.721 1109.56,831.415 1111.56,830.109 1113.56,828.804 1115.56,827.499 1117.55,826.194 1119.55,824.891 1121.55,823.587 1123.55,822.284 1125.55,820.982 1127.55,819.68 1129.55,818.378 1131.55,817.077 1133.54,815.776 1135.54,814.476 1137.54,813.177 1139.54,811.878 1141.54,810.579 1143.54,809.281 1145.54,807.983 1147.53,806.686 1149.53,805.389 1151.53,804.092 1153.53,802.797 1155.53,801.501 1157.53,800.206 1159.53,798.912 1161.53,797.617 1163.52,796.324 1165.52,795.031 1167.52,793.738 1169.52,792.446 1171.52,791.154 1173.52,789.862 1175.52,788.571 1177.52,787.281 1179.51,785.991 1181.51,784.701 1183.51,783.412 1185.51,782.123 1187.51,780.835 1189.51,779.547 1191.51,778.259 1193.51,776.972 1195.5,775.685 1197.5,774.399 1199.5,773.113 1201.5,771.828 1203.5,770.542 1205.5,769.258 1207.5,767.973 1209.49,766.69 1211.49,765.406 1213.49,764.123 1215.49,762.84 1217.49,761.558 1219.49,760.276 1221.49,758.994 1223.49,757.713 1225.48,756.432 1227.48,755.152 1229.48,753.872 1231.48,752.592 1233.48,751.313 1235.48,750.034 1237.48,748.755 1239.48,747.477 1241.47,746.199 1243.47,744.922 1245.47,743.645 1247.47,742.368 1249.47,741.091 1251.47,739.815 1253.47,738.54 1255.47,737.264 1257.46,735.989 1259.46,734.714 1261.46,733.44 1263.46,732.166 1265.46,730.892 1267.46,729.619 1269.46,728.346 1271.45,727.073 1273.45,725.8 1275.45,724.528 1277.45,723.256 1279.45,721.985 1281.45,720.714 1283.45,719.443 1285.45,718.172 1287.44,716.902 1289.44,715.632 1291.44,714.362 1293.44,713.093 1295.44,711.824 1297.44,710.555 1299.44,709.286 1301.44,708.018 1303.43,706.75 1305.43,705.483 1307.43,704.215 1309.43,702.948 1311.43,701.681 1313.43,700.415 1315.43,699.149 1317.43,697.883 1319.42,696.617 1321.42,695.351 1323.42,694.086 1325.42,692.821 1327.42,691.556 1329.42,690.292 1331.42,689.028 1333.41,687.764 1335.41,686.5 1337.41,685.236 1339.41,683.973 1341.41,682.71 1343.41,681.447 1345.41,680.185 1347.41,678.922 1349.4,677.66 1351.4,676.398 1353.4,675.136 1355.4,673.875 1357.4,672.613 1359.4,671.352 1361.4,670.091 1363.4,668.83 1365.39,667.57 1367.39,666.309 1369.39,665.049 1371.39,663.789 1373.39,662.529 1375.39,661.27 1377.39,660.01 1379.39,658.751 1381.38,657.492 1383.38,656.233 1385.38,654.974 1387.38,653.715 1389.38,652.457 1391.38,651.198 1393.38,649.94 1395.37,648.682 1397.37,647.424 1399.37,646.166 1401.37,644.909 1403.37,643.651 1405.37,642.394 1407.37,641.137 1409.37,639.88 1411.36,638.623 1413.36,637.366 1415.36,636.11 1417.36,634.853 1419.36,633.597 1421.36,632.341 1423.36,631.085 1425.36,629.829 1427.35,628.573 1429.35,627.318 1431.35,626.062 1433.35,624.807 1435.35,623.552 1437.35,622.296 1439.35,621.041 1441.35,619.787 1443.34,618.532 1445.34,617.277 1447.34,616.023 1449.34,614.769 1451.34,613.514 1453.34,612.26 1455.34,611.006 1457.33,609.752 1459.33,608.499 1461.33,607.245 1463.33,605.991 1465.33,604.738 1467.33,603.485 1469.33,602.231 1471.33,600.978 1473.32,599.725 1475.32,598.473 1477.32,597.22 1479.32,595.967 1481.32,594.715 1483.32,593.462 1485.32,592.21 1487.32,590.958 1489.31,589.706 1491.31,588.454 1493.31,587.202 1495.31,585.95 1497.31,584.698 1499.31,583.447 1501.31,582.195 1503.31,580.944 1505.3,579.692 1507.3,578.441 1509.3,577.19 1511.3,575.939 1513.3,574.688 1515.3,573.437 1517.3,572.187 1519.29,570.936 1521.29,569.686 1523.29,568.435 1525.29,567.185 1527.29,565.935 1529.29,564.685 1531.29,563.435 1533.29,562.185 1535.28,560.935 1537.28,559.685 1539.28,558.435 1541.28,557.186 1543.28,555.936 1545.28,554.687 1547.28,553.438 1549.28,552.188 1551.27,550.939 1553.27,549.69 1555.27,548.441 1557.27,547.192 1559.27,545.944 1561.27,544.695 1563.27,543.446 1565.26,542.198 1567.26,540.949 1569.26,539.701 1571.26,538.453 1573.26,537.205 1575.26,535.956 1577.26,534.708 1579.26,533.461 1581.25,532.213 1583.25,530.965 1585.25,529.717 1587.25,528.47 1589.25,527.222 1591.25,525.975 1593.25,524.727 1595.25,523.48 1597.24,522.233 1599.24,520.986 1601.24,519.739 1603.24,518.492 1605.24,517.245 1607.24,515.998 1609.24,514.752 1611.24,513.505 1613.23,512.258 1615.23,511.012 1617.23,509.765 1619.23,508.519 1621.23,507.273 1623.23,506.027 1625.23,504.78 1627.22,503.534 1629.22,502.288 1631.22,501.042 1633.22,499.797 1635.22,498.551 1637.22,497.305 1639.22,496.059 1641.22,494.814 1643.21,493.568 1645.21,492.323 1647.21,491.077 1649.21,489.832 1651.21,488.587 1653.21,487.342 1655.21,486.096 1657.21,484.851 1659.2,483.606 1661.2,482.361 1663.2,481.116 1665.2,479.871 1667.2,478.627 1669.2,477.382 1671.2,476.137 1673.2,474.892 1675.19,473.648 1677.19,472.403 1679.19,471.159 1681.19,469.914 1683.19,468.67 1685.19,467.425 1687.19,466.181 1689.18,464.937 1691.18,463.693 1693.18,462.448 1695.18,461.204 1697.18,459.96 1699.18,458.716 1701.18,457.472 1703.18,456.228 1705.17,454.984 1707.17,453.74 1709.17,452.497 1711.17,451.253 1713.17,450.009 1715.17,448.765 1717.17,447.521 1719.17,446.278 1721.16,445.034 1723.16,443.79 1725.16,442.547 1727.16,441.303 1729.16,440.06 1731.16,438.816 1733.16,437.573 1735.16,436.329 1737.15,435.086 1739.15,433.842 1741.15,432.599 1743.15,431.356 1745.15,430.112 1747.15,428.869 1749.15,427.626 1751.14,426.382 1753.14,425.139 1755.14,423.896 1757.14,422.652 1759.14,421.409 1761.14,420.166 1763.14,418.923 1765.14,417.679 1767.13,416.436 1769.13,415.193 1771.13,413.95 1773.13,412.706 1775.13,411.463 1777.13,410.22 1779.13,408.977 1781.13,407.733 1783.12,406.49 1785.12,405.247 1787.12,404.004 1789.12,402.76 1791.12,401.517 1793.12,400.274 1795.12,399.031 1797.12,397.787 1799.11,396.544 1801.11,395.301 1803.11,394.057 1805.11,392.814 1807.11,391.571 1809.11,390.327 1811.11,389.084 1813.1,387.84 1815.1,386.597 1817.1,385.353 1819.1,384.11 1821.1,382.866 1823.1,381.623 1825.1,380.379 1827.1,379.136 1829.09,377.892 1831.09,376.648 1833.09,375.405 1835.09,374.161 1837.09,372.917 1839.09,371.673 1841.09,370.429 1843.09,369.186 1845.08,367.942 1847.08,366.698 1849.08,365.454 1851.08,364.21 1853.08,362.965 1855.08,361.721 1857.08,360.477 1859.08,359.233 1861.07,357.989 1863.07,356.744 1865.07,355.5 1867.07,354.255 1869.07,353.011 1871.07,351.766 1873.07,350.522 1875.06,349.277 1877.06,348.032 1879.06,346.787 1881.06,345.543 1883.06,344.298 1885.06,343.053 1887.06,341.808 1889.06,340.562 1891.05,339.317 1893.05,338.072 1895.05,336.827 1897.05,335.581 1899.05,334.336 1901.05,333.09 1903.05,331.845 1905.05,330.599 1907.04,329.353 1909.04,328.107 1911.04,326.861 1913.04,325.615 1915.04,324.369 1917.04,323.123 1919.04,321.877 1921.03,320.63 1923.03,319.384 1925.03,318.137 1927.03,316.891 1929.03,315.644 1931.03,314.397 1933.03,313.15 1935.03,311.903 1937.02,310.656 1939.02,309.409 1941.02,308.162 1943.02,306.914 1945.02,305.667 1947.02,304.419 1949.02,303.172 1951.02,301.924 1953.01,300.676 1955.01,299.428 1957.01,298.18 1959.01,296.932 1961.01,295.683 1963.01,294.435 1965.01,293.186 1967.01,291.938 1969,290.689 1971,289.44 1973,288.191 1975,286.942 1977,285.693 1979,284.443 1981,283.194 1982.99,281.944 1984.99,280.694 1986.99,279.445 1988.99,278.195 1990.99,276.945 1992.99,275.694 1994.99,274.444 1996.99,273.194 1998.98,271.943 2000.98,270.692 2002.98,269.441 2004.98,268.19 2006.98,266.939 2008.98,265.688 2010.98,264.437 2012.98,263.185 2014.97,261.933 2016.97,260.682 2018.97,259.43 2020.97,258.177 2022.97,256.925 2024.97,255.673 2026.97,254.42 2028.97,253.168 2030.96,251.915 2032.96,250.662 2034.96,249.409 2036.96,248.155 2038.96,246.902 2040.96,245.648 2042.96,244.395 2044.95,243.141 2046.95,241.887 2048.95,240.633 2050.95,239.378 2052.95,238.124 2054.95,236.869 2056.95,235.614 2058.95,234.359 2060.94,233.104 2062.94,231.849 2064.94,230.593 2066.94,229.338 2068.94,228.082 2070.94,226.826 2072.94,225.57 2074.94,224.314 2076.93,223.057 2078.93,221.801 2080.93,220.544 2082.93,219.287 2084.93,218.03 2086.93,216.772 2088.93,215.515 2090.93,214.257 2092.92,212.999 2094.92,211.741 2096.92,210.483 2098.92,209.225 2100.92,207.966 2102.92,206.708 2104.92,205.449 2106.91,204.19 2108.91,202.93 2110.91,201.671 2112.91,200.411 2114.91,199.151 2116.91,197.891 2118.91,196.631 2120.91,195.371 2122.9,194.11 2124.9,192.849 2126.9,191.588 2128.9,190.327 2130.9,189.066 2132.9,187.804 2134.9,186.543 2136.9,185.281 2138.89,184.019 2140.89,182.756 2142.89,181.494 2144.89,180.231 2146.89,178.968 2148.89,177.705 2150.89,176.442 2152.89,175.178 2154.88,173.914 2156.88,172.65 2158.88,171.386 2160.88,170.122 2162.88,168.857 2164.88,167.593 2166.88,166.328 2168.87,165.063 2170.87,163.797 2172.87,162.532 2174.87,161.266 2176.87,160 2178.87,158.734 2180.87,157.467 2182.87,156.201 2184.86,154.934 2186.86,153.667 2188.86,152.399 2190.86,151.132 2192.86,149.864 2194.86,148.596 2196.86,147.328 2198.86,146.06 2200.85,144.791 2202.85,143.522 2204.85,142.253 2206.85,140.984 2208.85,139.714 2210.85,138.445 2212.85,137.175 2214.85,135.905 2216.84,134.634 2218.84,133.364 2220.84,132.093 2222.84,130.822 2224.84,129.55 2226.84,128.279 2228.84,127.007 2230.83,125.735 2232.83,124.463 2234.83,123.191 2236.83,121.918 2238.83,120.645 2240.83,119.372 2242.83,118.098 2244.83,116.825 2246.82,115.551 2248.82,114.277 2250.82,113.003 2252.82,111.728 2254.82,110.453 2256.82,109.178 2258.82,107.903 2260.82,106.627 2262.81,105.352 2264.81,104.076 2266.81,102.799 2268.81,101.523 2270.81,100.246 2272.81,98.9691 2274.81,97.6918 2276.81,96.4144 2278.8,95.1366 2280.8,93.8587 2282.8,92.5805 2284.8,91.302 2286.8,90.0233 2288.8,88.7443 2290.8,87.4651 2292.79,86.1857 "/>
</svg>
