<?xml version="1.0" encoding="utf-8"?>
<svg xmlns="http://www.w3.org/2000/svg" xmlns:xlink="http://www.w3.org/1999/xlink" width="600" height="400" viewBox="0 0 2400 1600">
<defs>
  <clipPath id="clip920">
    <rect x="0" y="0" width="2400" height="1600"/>
  </clipPath>
</defs>
<path clip-path="url(#clip920)" d="M0 1600 L2400 1600 L2400 0 L0 0  Z" fill="#ffffff" fill-rule="evenodd" fill-opacity="1"/>
<defs>
  <clipPath id="clip921">
    <rect x="480" y="0" width="1681" height="1600"/>
  </clipPath>
</defs>
<path clip-path="url(#clip920)" d="M272.297 1423.18 L2352.76 1423.18 L2352.76 123.472 L272.297 123.472  Z" fill="#ffffff" fill-rule="evenodd" fill-opacity="1"/>
<defs>
  <clipPath id="clip922">
    <rect x="272" y="123" width="2081" height="1301"/>
  </clipPath>
</defs>
<polyline clip-path="url(#clip922)" style="stroke:#000000; stroke-linecap:round; stroke-linejoin:round; stroke-width:2; stroke-opacity:0.1; fill:none" points="272.297,1423.18 272.297,123.472 "/>
<polyline clip-path="url(#clip922)" style="stroke:#000000; stroke-linecap:round; stroke-linejoin:round; stroke-width:2; stroke-opacity:0.1; fill:none" points="792.411,1423.18 792.411,123.472 "/>
<polyline clip-path="url(#clip922)" style="stroke:#000000; stroke-linecap:round; stroke-linejoin:round; stroke-width:2; stroke-opacity:0.1; fill:none" points="1312.53,1423.18 1312.53,123.472 "/>
<polyline clip-path="url(#clip922)" style="stroke:#000000; stroke-linecap:round; stroke-linejoin:round; stroke-width:2; stroke-opacity:0.1; fill:none" points="1832.64,1423.18 1832.64,123.472 "/>
<polyline clip-path="url(#clip922)" style="stroke:#000000; stroke-linecap:round; stroke-linejoin:round; stroke-width:2; stroke-opacity:0.1; fill:none" points="2352.76,1423.18 2352.76,123.472 "/>
<polyline clip-path="url(#clip922)" style="stroke:#000000; stroke-linecap:round; stroke-linejoin:round; stroke-width:2; stroke-opacity:0.1; fill:none" points="272.297,1423.18 2352.76,1423.18 "/>
<polyline clip-path="url(#clip922)" style="stroke:#000000; stroke-linecap:round; stroke-linejoin:round; stroke-width:2; stroke-opacity:0.1; fill:none" points="272.297,1293.21 2352.76,1293.21 "/>
<polyline clip-path="url(#clip922)" style="stroke:#000000; stroke-linecap:round; stroke-linejoin:round; stroke-width:2; stroke-opacity:0.1; fill:none" points="272.297,1163.24 2352.76,1163.24 "/>
<polyline clip-path="url(#clip922)" style="stroke:#000000; stroke-linecap:round; stroke-linejoin:round; stroke-width:2; stroke-opacity:0.1; fill:none" points="272.297,1033.27 2352.76,1033.27 "/>
<polyline clip-path="url(#clip922)" style="stroke:#000000; stroke-linecap:round; stroke-linejoin:round; stroke-width:2; stroke-opacity:0.1; fill:none" points="272.297,903.297 2352.76,903.297 "/>
<polyline clip-path="url(#clip922)" style="stroke:#000000; stroke-linecap:round; stroke-linejoin:round; stroke-width:2; stroke-opacity:0.1; fill:none" points="272.297,773.326 2352.76,773.326 "/>
<polyline clip-path="url(#clip922)" style="stroke:#000000; stroke-linecap:round; stroke-linejoin:round; stroke-width:2; stroke-opacity:0.1; fill:none" points="272.297,643.355 2352.76,643.355 "/>
<polyline clip-path="url(#clip922)" style="stroke:#000000; stroke-linecap:round; stroke-linejoin:round; stroke-width:2; stroke-opacity:0.1; fill:none" points="272.297,513.384 2352.76,513.384 "/>
<polyline clip-path="url(#clip922)" style="stroke:#000000; stroke-linecap:round; stroke-linejoin:round; stroke-width:2; stroke-opacity:0.1; fill:none" points="272.297,383.414 2352.76,383.414 "/>
<polyline clip-path="url(#clip922)" style="stroke:#000000; stroke-linecap:round; stroke-linejoin:round; stroke-width:2; stroke-opacity:0.1; fill:none" points="272.297,253.443 2352.76,253.443 "/>
<polyline clip-path="url(#clip922)" style="stroke:#000000; stroke-linecap:round; stroke-linejoin:round; stroke-width:2; stroke-opacity:0.1; fill:none" points="272.297,123.472 2352.76,123.472 "/>
<polyline clip-path="url(#clip920)" style="stroke:#000000; stroke-linecap:round; stroke-linejoin:round; stroke-width:4; stroke-opacity:1; fill:none" points="272.297,1423.18 2352.76,1423.18 "/>
<polyline clip-path="url(#clip920)" style="stroke:#000000; stroke-linecap:round; stroke-linejoin:round; stroke-width:4; stroke-opacity:1; fill:none" points="272.297,1423.18 272.297,1404.28 "/>
<polyline clip-path="url(#clip920)" style="stroke:#000000; stroke-linecap:round; stroke-linejoin:round; stroke-width:4; stroke-opacity:1; fill:none" points="792.411,1423.18 792.411,1404.28 "/>
<polyline clip-path="url(#clip920)" style="stroke:#000000; stroke-linecap:round; stroke-linejoin:round; stroke-width:4; stroke-opacity:1; fill:none" points="1312.53,1423.18 1312.53,1404.28 "/>
<polyline clip-path="url(#clip920)" style="stroke:#000000; stroke-linecap:round; stroke-linejoin:round; stroke-width:4; stroke-opacity:1; fill:none" points="1832.64,1423.18 1832.64,1404.28 "/>
<polyline clip-path="url(#clip920)" style="stroke:#000000; stroke-linecap:round; stroke-linejoin:round; stroke-width:4; stroke-opacity:1; fill:none" points="2352.76,1423.18 2352.76,1404.28 "/>
<path clip-path="url(#clip920)" d="M226.359 1468.75 L256.035 1468.75 L256.035 1472.69 L226.359 1472.69 L226.359 1468.75 Z" fill="#000000" fill-rule="nonzero" fill-opacity="1" /><path clip-path="url(#clip920)" d="M266.938 1481.64 L274.577 1481.64 L274.577 1455.28 L266.266 1456.95 L266.266 1452.69 L274.53 1451.02 L279.206 1451.02 L279.206 1481.64 L286.845 1481.64 L286.845 1485.58 L266.938 1485.58 L266.938 1481.64 Z" fill="#000000" fill-rule="nonzero" fill-opacity="1" /><path clip-path="url(#clip920)" d="M306.289 1454.1 Q302.678 1454.1 300.85 1457.66 Q299.044 1461.2 299.044 1468.33 Q299.044 1475.44 300.85 1479.01 Q302.678 1482.55 306.289 1482.55 Q309.924 1482.55 311.729 1479.01 Q313.558 1475.44 313.558 1468.33 Q313.558 1461.2 311.729 1457.66 Q309.924 1454.1 306.289 1454.1 M306.289 1450.39 Q312.1 1450.39 315.155 1455 Q318.234 1459.58 318.234 1468.33 Q318.234 1477.06 315.155 1481.67 Q312.1 1486.25 306.289 1486.25 Q300.479 1486.25 297.401 1481.67 Q294.345 1477.06 294.345 1468.33 Q294.345 1459.58 297.401 1455 Q300.479 1450.39 306.289 1450.39 Z" fill="#000000" fill-rule="nonzero" fill-opacity="1" /><path clip-path="url(#clip920)" d="M792.411 1454.1 Q788.8 1454.1 786.972 1457.66 Q785.166 1461.2 785.166 1468.33 Q785.166 1475.44 786.972 1479.01 Q788.8 1482.55 792.411 1482.55 Q796.046 1482.55 797.851 1479.01 Q799.68 1475.44 799.68 1468.33 Q799.68 1461.2 797.851 1457.66 Q796.046 1454.1 792.411 1454.1 M792.411 1450.39 Q798.222 1450.39 801.277 1455 Q804.356 1459.58 804.356 1468.33 Q804.356 1477.06 801.277 1481.67 Q798.222 1486.25 792.411 1486.25 Q786.601 1486.25 783.523 1481.67 Q780.467 1477.06 780.467 1468.33 Q780.467 1459.58 783.523 1455 Q786.601 1450.39 792.411 1450.39 Z" fill="#000000" fill-rule="nonzero" fill-opacity="1" /><path clip-path="url(#clip920)" d="M1287.21 1481.64 L1294.85 1481.64 L1294.85 1455.28 L1286.54 1456.95 L1286.54 1452.69 L1294.81 1451.02 L1299.48 1451.02 L1299.48 1481.64 L1307.12 1481.64 L1307.12 1485.58 L1287.21 1485.58 L1287.21 1481.64 Z" fill="#000000" fill-rule="nonzero" fill-opacity="1" /><path clip-path="url(#clip920)" d="M1326.57 1454.1 Q1322.95 1454.1 1321.13 1457.66 Q1319.32 1461.2 1319.32 1468.33 Q1319.32 1475.44 1321.13 1479.01 Q1322.95 1482.55 1326.57 1482.55 Q1330.2 1482.55 1332.01 1479.01 Q1333.83 1475.44 1333.83 1468.33 Q1333.83 1461.2 1332.01 1457.66 Q1330.2 1454.1 1326.57 1454.1 M1326.57 1450.39 Q1332.38 1450.39 1335.43 1455 Q1338.51 1459.58 1338.51 1468.33 Q1338.51 1477.06 1335.43 1481.67 Q1332.38 1486.25 1326.57 1486.25 Q1320.76 1486.25 1317.68 1481.67 Q1314.62 1477.06 1314.62 1468.33 Q1314.62 1459.58 1317.68 1455 Q1320.76 1450.39 1326.57 1450.39 Z" fill="#000000" fill-rule="nonzero" fill-opacity="1" /><path clip-path="url(#clip920)" d="M1811.41 1481.64 L1827.73 1481.64 L1827.73 1485.58 L1805.79 1485.58 L1805.79 1481.64 Q1808.45 1478.89 1813.03 1474.26 Q1817.64 1469.61 1818.82 1468.27 Q1821.07 1465.74 1821.95 1464.01 Q1822.85 1462.25 1822.85 1460.56 Q1822.85 1457.8 1820.91 1456.07 Q1818.98 1454.33 1815.88 1454.33 Q1813.68 1454.33 1811.23 1455.09 Q1808.8 1455.86 1806.02 1457.41 L1806.02 1452.69 Q1808.84 1451.55 1811.3 1450.97 Q1813.75 1450.39 1815.79 1450.39 Q1821.16 1450.39 1824.35 1453.08 Q1827.55 1455.77 1827.55 1460.26 Q1827.55 1462.39 1826.74 1464.31 Q1825.95 1466.2 1823.84 1468.8 Q1823.27 1469.47 1820.16 1472.69 Q1817.06 1475.88 1811.41 1481.64 Z" fill="#000000" fill-rule="nonzero" fill-opacity="1" /><path clip-path="url(#clip920)" d="M1847.55 1454.1 Q1843.94 1454.1 1842.11 1457.66 Q1840.3 1461.2 1840.3 1468.33 Q1840.3 1475.44 1842.11 1479.01 Q1843.94 1482.55 1847.55 1482.55 Q1851.18 1482.55 1852.99 1479.01 Q1854.82 1475.44 1854.82 1468.33 Q1854.82 1461.2 1852.99 1457.66 Q1851.18 1454.1 1847.55 1454.1 M1847.55 1450.39 Q1853.36 1450.39 1856.41 1455 Q1859.49 1459.58 1859.49 1468.33 Q1859.49 1477.06 1856.41 1481.67 Q1853.36 1486.25 1847.55 1486.25 Q1841.74 1486.25 1838.66 1481.67 Q1835.6 1477.06 1835.6 1468.33 Q1835.6 1459.58 1838.66 1455 Q1841.74 1450.39 1847.55 1450.39 Z" fill="#000000" fill-rule="nonzero" fill-opacity="1" /><path clip-path="url(#clip920)" d="M2341.6 1466.95 Q2344.96 1467.66 2346.83 1469.93 Q2348.73 1472.2 2348.73 1475.53 Q2348.73 1480.65 2345.21 1483.45 Q2341.69 1486.25 2335.21 1486.25 Q2333.03 1486.25 2330.72 1485.81 Q2328.43 1485.39 2325.97 1484.54 L2325.97 1480.02 Q2327.92 1481.16 2330.23 1481.74 Q2332.55 1482.32 2335.07 1482.32 Q2339.47 1482.32 2341.76 1480.58 Q2344.08 1478.84 2344.08 1475.53 Q2344.08 1472.48 2341.92 1470.77 Q2339.79 1469.03 2335.97 1469.03 L2331.95 1469.03 L2331.95 1465.19 L2336.16 1465.19 Q2339.61 1465.19 2341.44 1463.82 Q2343.27 1462.43 2343.27 1459.84 Q2343.27 1457.18 2341.37 1455.77 Q2339.49 1454.33 2335.97 1454.33 Q2334.05 1454.33 2331.85 1454.75 Q2329.65 1455.16 2327.02 1456.04 L2327.02 1451.88 Q2329.68 1451.14 2331.99 1450.77 Q2334.33 1450.39 2336.39 1450.39 Q2341.71 1450.39 2344.82 1452.83 Q2347.92 1455.23 2347.92 1459.35 Q2347.92 1462.22 2346.27 1464.21 Q2344.63 1466.18 2341.6 1466.95 Z" fill="#000000" fill-rule="nonzero" fill-opacity="1" /><path clip-path="url(#clip920)" d="M2367.59 1454.1 Q2363.98 1454.1 2362.15 1457.66 Q2360.35 1461.2 2360.35 1468.33 Q2360.35 1475.44 2362.15 1479.01 Q2363.98 1482.55 2367.59 1482.55 Q2371.23 1482.55 2373.03 1479.01 Q2374.86 1475.44 2374.86 1468.33 Q2374.86 1461.2 2373.03 1457.66 Q2371.23 1454.1 2367.59 1454.1 M2367.59 1450.39 Q2373.4 1450.39 2376.46 1455 Q2379.54 1459.58 2379.54 1468.33 Q2379.54 1477.06 2376.46 1481.67 Q2373.4 1486.25 2367.59 1486.25 Q2361.78 1486.25 2358.7 1481.67 Q2355.65 1477.06 2355.65 1468.33 Q2355.65 1459.58 2358.7 1455 Q2361.78 1450.39 2367.59 1450.39 Z" fill="#000000" fill-rule="nonzero" fill-opacity="1" /><path clip-path="url(#clip920)" d="M1023.79 1522.08 L1023.79 1528.35 Q1020.13 1526.6 1016.89 1525.74 Q1013.64 1524.88 1010.62 1524.88 Q1005.36 1524.88 1002.5 1526.92 Q999.668 1528.96 999.668 1532.71 Q999.668 1535.87 1001.55 1537.49 Q1003.46 1539.08 1008.74 1540.07 L1012.62 1540.86 Q1019.82 1542.23 1023.22 1545.7 Q1026.66 1549.14 1026.66 1554.93 Q1026.66 1561.84 1022.01 1565.4 Q1017.4 1568.97 1008.45 1568.97 Q1005.08 1568.97 1001.26 1568.2 Q997.471 1567.44 993.397 1565.94 L993.397 1559.32 Q997.312 1561.52 1001.07 1562.63 Q1004.82 1563.75 1008.45 1563.75 Q1013.96 1563.75 1016.95 1561.58 Q1019.94 1559.42 1019.94 1555.41 Q1019.94 1551.91 1017.78 1549.93 Q1015.65 1547.96 1010.74 1546.97 L1006.83 1546.21 Q999.636 1544.78 996.421 1541.72 Q993.206 1538.67 993.206 1533.22 Q993.206 1526.92 997.631 1523.29 Q1002.09 1519.66 1009.88 1519.66 Q1013.23 1519.66 1016.7 1520.27 Q1020.17 1520.87 1023.79 1522.08 Z" fill="#000000" fill-rule="nonzero" fill-opacity="1" /><path clip-path="url(#clip920)" d="M1036.43 1532.4 L1042.29 1532.4 L1042.29 1568.04 L1036.43 1568.04 L1036.43 1532.4 M1036.43 1518.52 L1042.29 1518.52 L1042.29 1525.93 L1036.43 1525.93 L1036.43 1518.52 Z" fill="#000000" fill-rule="nonzero" fill-opacity="1" /><path clip-path="url(#clip920)" d="M1078 1537.81 L1078 1518.52 L1083.85 1518.52 L1083.85 1568.04 L1078 1568.04 L1078 1562.7 Q1076.15 1565.88 1073.32 1567.44 Q1070.52 1568.97 1066.57 1568.97 Q1060.11 1568.97 1056.04 1563.81 Q1051.99 1558.65 1051.99 1550.25 Q1051.99 1541.85 1056.04 1536.69 Q1060.11 1531.54 1066.57 1531.54 Q1070.52 1531.54 1073.32 1533.1 Q1076.15 1534.62 1078 1537.81 M1058.04 1550.25 Q1058.04 1556.71 1060.68 1560.4 Q1063.36 1564.07 1068 1564.07 Q1072.65 1564.07 1075.32 1560.4 Q1078 1556.71 1078 1550.25 Q1078 1543.79 1075.32 1540.13 Q1072.65 1536.44 1068 1536.44 Q1063.36 1536.44 1060.68 1540.13 Q1058.04 1543.79 1058.04 1550.25 Z" fill="#000000" fill-rule="nonzero" fill-opacity="1" /><path clip-path="url(#clip920)" d="M1126.41 1548.76 L1126.41 1551.62 L1099.48 1551.62 Q1099.86 1557.67 1103.11 1560.85 Q1106.39 1564 1112.21 1564 Q1115.59 1564 1118.74 1563.17 Q1121.92 1562.35 1125.04 1560.69 L1125.04 1566.23 Q1121.89 1567.57 1118.58 1568.27 Q1115.27 1568.97 1111.86 1568.97 Q1103.33 1568.97 1098.34 1564 Q1093.37 1559.04 1093.37 1550.57 Q1093.37 1541.82 1098.08 1536.69 Q1102.82 1531.54 1110.84 1531.54 Q1118.04 1531.54 1122.21 1536.18 Q1126.41 1540.8 1126.41 1548.76 M1120.55 1547.04 Q1120.49 1542.23 1117.85 1539.37 Q1115.24 1536.5 1110.91 1536.5 Q1106.01 1536.5 1103.05 1539.27 Q1100.12 1542.04 1099.67 1547.07 L1120.55 1547.04 Z" fill="#000000" fill-rule="nonzero" fill-opacity="1" /><path clip-path="url(#clip920)" d="M1158.75 1533.45 L1158.75 1538.98 Q1156.26 1537.71 1153.59 1537.07 Q1150.92 1536.44 1148.05 1536.44 Q1143.69 1536.44 1141.5 1537.77 Q1139.33 1539.11 1139.33 1541.79 Q1139.33 1543.82 1140.89 1545 Q1142.45 1546.15 1147.16 1547.2 L1149.17 1547.64 Q1155.4 1548.98 1158.01 1551.43 Q1160.66 1553.85 1160.66 1558.21 Q1160.66 1563.17 1156.71 1566.07 Q1152.79 1568.97 1145.92 1568.97 Q1143.06 1568.97 1139.94 1568.39 Q1136.85 1567.85 1133.41 1566.74 L1133.41 1560.69 Q1136.66 1562.38 1139.81 1563.24 Q1142.96 1564.07 1146.05 1564.07 Q1150.18 1564.07 1152.41 1562.66 Q1154.64 1561.23 1154.64 1558.65 Q1154.64 1556.27 1153.02 1554.99 Q1151.43 1553.72 1145.98 1552.54 L1143.95 1552.07 Q1138.5 1550.92 1136.08 1548.56 Q1133.67 1546.18 1133.67 1542.04 Q1133.67 1537.01 1137.23 1534.27 Q1140.8 1531.54 1147.35 1531.54 Q1150.6 1531.54 1153.46 1532.01 Q1156.33 1532.49 1158.75 1533.45 Z" fill="#000000" fill-rule="nonzero" fill-opacity="1" /><path clip-path="url(#clip920)" d="M1169.98 1518.52 L1175.84 1518.52 L1175.84 1568.04 L1169.98 1568.04 L1169.98 1518.52 Z" fill="#000000" fill-rule="nonzero" fill-opacity="1" /><path clip-path="url(#clip920)" d="M1188.09 1532.4 L1193.95 1532.4 L1193.95 1568.04 L1188.09 1568.04 L1188.09 1532.4 M1188.09 1518.52 L1193.95 1518.52 L1193.95 1525.93 L1188.09 1525.93 L1188.09 1518.52 Z" fill="#000000" fill-rule="nonzero" fill-opacity="1" /><path clip-path="url(#clip920)" d="M1211.87 1562.7 L1211.87 1581.6 L1205.98 1581.6 L1205.98 1532.4 L1211.87 1532.4 L1211.87 1537.81 Q1213.71 1534.62 1216.52 1533.1 Q1219.35 1531.54 1223.26 1531.54 Q1229.76 1531.54 1233.8 1536.69 Q1237.87 1541.85 1237.87 1550.25 Q1237.87 1558.65 1233.8 1563.81 Q1229.76 1568.97 1223.26 1568.97 Q1219.35 1568.97 1216.52 1567.44 Q1213.71 1565.88 1211.87 1562.7 M1231.79 1550.25 Q1231.79 1543.79 1229.12 1540.13 Q1226.48 1536.44 1221.83 1536.44 Q1217.18 1536.44 1214.51 1540.13 Q1211.87 1543.79 1211.87 1550.25 Q1211.87 1556.71 1214.51 1560.4 Q1217.18 1564.07 1221.83 1564.07 Q1226.48 1564.07 1229.12 1560.4 Q1231.79 1556.71 1231.79 1550.25 Z" fill="#000000" fill-rule="nonzero" fill-opacity="1" /><path clip-path="url(#clip920)" d="M1284.5 1550.12 Q1277.4 1550.12 1274.67 1551.75 Q1271.93 1553.37 1271.93 1557.29 Q1271.93 1560.4 1273.97 1562.25 Q1276.03 1564.07 1279.57 1564.07 Q1284.44 1564.07 1287.37 1560.63 Q1290.33 1557.16 1290.33 1551.43 L1290.33 1550.12 L1284.5 1550.12 M1296.18 1547.71 L1296.18 1568.04 L1290.33 1568.04 L1290.33 1562.63 Q1288.32 1565.88 1285.33 1567.44 Q1282.34 1568.97 1278.01 1568.97 Q1272.53 1568.97 1269.29 1565.91 Q1266.07 1562.82 1266.07 1557.67 Q1266.07 1551.65 1270.08 1548.6 Q1274.13 1545.54 1282.11 1545.54 L1290.33 1545.54 L1290.33 1544.97 Q1290.33 1540.93 1287.65 1538.73 Q1285.01 1536.5 1280.2 1536.5 Q1277.15 1536.5 1274.25 1537.23 Q1271.36 1537.97 1268.68 1539.43 L1268.68 1534.02 Q1271.9 1532.78 1274.92 1532.17 Q1277.94 1531.54 1280.81 1531.54 Q1288.54 1531.54 1292.36 1535.55 Q1296.18 1539.56 1296.18 1547.71 Z" fill="#000000" fill-rule="nonzero" fill-opacity="1" /><path clip-path="url(#clip920)" d="M1337.88 1546.53 L1337.88 1568.04 L1332.02 1568.04 L1332.02 1546.72 Q1332.02 1541.66 1330.05 1539.14 Q1328.07 1536.63 1324.13 1536.63 Q1319.39 1536.63 1316.65 1539.65 Q1313.91 1542.68 1313.91 1547.9 L1313.91 1568.04 L1308.02 1568.04 L1308.02 1532.4 L1313.91 1532.4 L1313.91 1537.93 Q1316.01 1534.72 1318.84 1533.13 Q1321.71 1531.54 1325.43 1531.54 Q1331.58 1531.54 1334.73 1535.36 Q1337.88 1539.14 1337.88 1546.53 Z" fill="#000000" fill-rule="nonzero" fill-opacity="1" /><path clip-path="url(#clip920)" d="M1373.02 1549.81 Q1373.02 1543.44 1370.37 1539.94 Q1367.76 1536.44 1363.02 1536.44 Q1358.31 1536.44 1355.67 1539.94 Q1353.06 1543.44 1353.06 1549.81 Q1353.06 1556.14 1355.67 1559.64 Q1358.31 1563.14 1363.02 1563.14 Q1367.76 1563.14 1370.37 1559.64 Q1373.02 1556.14 1373.02 1549.81 M1378.87 1563.62 Q1378.87 1572.72 1374.83 1577.15 Q1370.79 1581.6 1362.45 1581.6 Q1359.36 1581.6 1356.62 1581.13 Q1353.89 1580.68 1351.31 1579.72 L1351.31 1574.03 Q1353.89 1575.43 1356.4 1576.1 Q1358.92 1576.76 1361.53 1576.76 Q1367.29 1576.76 1370.15 1573.74 Q1373.02 1570.75 1373.02 1564.67 L1373.02 1561.77 Q1371.2 1564.92 1368.37 1566.48 Q1365.54 1568.04 1361.59 1568.04 Q1355.03 1568.04 1351.02 1563.05 Q1347.01 1558.05 1347.01 1549.81 Q1347.01 1541.53 1351.02 1536.53 Q1355.03 1531.54 1361.59 1531.54 Q1365.54 1531.54 1368.37 1533.1 Q1371.2 1534.66 1373.02 1537.81 L1373.02 1532.4 L1378.87 1532.4 L1378.87 1563.62 Z" fill="#000000" fill-rule="nonzero" fill-opacity="1" /><path clip-path="url(#clip920)" d="M1390.94 1518.52 L1396.79 1518.52 L1396.79 1568.04 L1390.94 1568.04 L1390.94 1518.52 Z" fill="#000000" fill-rule="nonzero" fill-opacity="1" /><path clip-path="url(#clip920)" d="M1439.54 1548.76 L1439.54 1551.62 L1412.61 1551.62 Q1412.99 1557.67 1416.24 1560.85 Q1419.52 1564 1425.34 1564 Q1428.72 1564 1431.87 1563.17 Q1435.05 1562.35 1438.17 1560.69 L1438.17 1566.23 Q1435.02 1567.57 1431.71 1568.27 Q1428.4 1568.97 1424.99 1568.97 Q1416.46 1568.97 1411.47 1564 Q1406.5 1559.04 1406.5 1550.57 Q1406.5 1541.82 1411.21 1536.69 Q1415.95 1531.54 1423.97 1531.54 Q1431.17 1531.54 1435.34 1536.18 Q1439.54 1540.8 1439.54 1548.76 M1433.68 1547.04 Q1433.62 1542.23 1430.98 1539.37 Q1428.37 1536.5 1424.04 1536.5 Q1419.14 1536.5 1416.18 1539.27 Q1413.25 1542.04 1412.8 1547.07 L1433.68 1547.04 Z" fill="#000000" fill-rule="nonzero" fill-opacity="1" /><path clip-path="url(#clip920)" d="M1469.33 1518.52 L1482.82 1518.52 L1482.82 1523.07 L1475.19 1523.07 L1475.19 1572.09 L1482.82 1572.09 L1482.82 1576.64 L1469.33 1576.64 L1469.33 1518.52 Z" fill="#000000" fill-rule="nonzero" fill-opacity="1" /><path clip-path="url(#clip920)" d="M1518.76 1537.81 L1518.76 1518.52 L1524.62 1518.52 L1524.62 1568.04 L1518.76 1568.04 L1518.76 1562.7 Q1516.91 1565.88 1514.08 1567.44 Q1511.28 1568.97 1507.33 1568.97 Q1500.87 1568.97 1496.8 1563.81 Q1492.76 1558.65 1492.76 1550.25 Q1492.76 1541.85 1496.8 1536.69 Q1500.87 1531.54 1507.33 1531.54 Q1511.28 1531.54 1514.08 1533.1 Q1516.91 1534.62 1518.76 1537.81 M1498.8 1550.25 Q1498.8 1556.71 1501.44 1560.4 Q1504.12 1564.07 1508.77 1564.07 Q1513.41 1564.07 1516.09 1560.4 Q1518.76 1556.71 1518.76 1550.25 Q1518.76 1543.79 1516.09 1540.13 Q1513.41 1536.44 1508.77 1536.44 Q1504.12 1536.44 1501.44 1540.13 Q1498.8 1543.79 1498.8 1550.25 Z" fill="#000000" fill-rule="nonzero" fill-opacity="1" /><path clip-path="url(#clip920)" d="M1567.17 1548.76 L1567.17 1551.62 L1540.24 1551.62 Q1540.63 1557.67 1543.87 1560.85 Q1547.15 1564 1552.97 1564 Q1556.35 1564 1559.5 1563.17 Q1562.68 1562.35 1565.8 1560.69 L1565.8 1566.23 Q1562.65 1567.57 1559.34 1568.27 Q1556.03 1568.97 1552.62 1568.97 Q1544.09 1568.97 1539.1 1564 Q1534.13 1559.04 1534.13 1550.57 Q1534.13 1541.82 1538.84 1536.69 Q1543.59 1531.54 1551.61 1531.54 Q1558.8 1531.54 1562.97 1536.18 Q1567.17 1540.8 1567.17 1548.76 M1561.31 1547.04 Q1561.25 1542.23 1558.61 1539.37 Q1556 1536.5 1551.67 1536.5 Q1546.77 1536.5 1543.81 1539.27 Q1540.88 1542.04 1540.43 1547.07 L1561.31 1547.04 Z" fill="#000000" fill-rule="nonzero" fill-opacity="1" /><path clip-path="url(#clip920)" d="M1600.24 1549.81 Q1600.24 1543.44 1597.6 1539.94 Q1594.99 1536.44 1590.25 1536.44 Q1585.54 1536.44 1582.89 1539.94 Q1580.28 1543.44 1580.28 1549.81 Q1580.28 1556.14 1582.89 1559.64 Q1585.54 1563.14 1590.25 1563.14 Q1594.99 1563.14 1597.6 1559.64 Q1600.24 1556.14 1600.24 1549.81 M1606.1 1563.62 Q1606.1 1572.72 1602.05 1577.15 Q1598.01 1581.6 1589.67 1581.6 Q1586.59 1581.6 1583.85 1581.13 Q1581.11 1580.68 1578.53 1579.72 L1578.53 1574.03 Q1581.11 1575.43 1583.63 1576.1 Q1586.14 1576.76 1588.75 1576.76 Q1594.51 1576.76 1597.38 1573.74 Q1600.24 1570.75 1600.24 1564.67 L1600.24 1561.77 Q1598.43 1564.92 1595.59 1566.48 Q1592.76 1568.04 1588.81 1568.04 Q1582.26 1568.04 1578.25 1563.05 Q1574.24 1558.05 1574.24 1549.81 Q1574.24 1541.53 1578.25 1536.53 Q1582.26 1531.54 1588.81 1531.54 Q1592.76 1531.54 1595.59 1533.1 Q1598.43 1534.66 1600.24 1537.81 L1600.24 1532.4 L1606.1 1532.4 L1606.1 1563.62 Z" fill="#000000" fill-rule="nonzero" fill-opacity="1" /><path clip-path="url(#clip920)" d="M1631.85 1518.52 L1631.85 1576.64 L1618.35 1576.64 L1618.35 1572.09 L1625.96 1572.09 L1625.96 1523.07 L1618.35 1523.07 L1618.35 1518.52 L1631.85 1518.52 Z" fill="#000000" fill-rule="nonzero" fill-opacity="1" /><polyline clip-path="url(#clip920)" style="stroke:#000000; stroke-linecap:round; stroke-linejoin:round; stroke-width:4; stroke-opacity:1; fill:none" points="272.297,1423.18 272.297,123.472 "/>
<polyline clip-path="url(#clip920)" style="stroke:#000000; stroke-linecap:round; stroke-linejoin:round; stroke-width:4; stroke-opacity:1; fill:none" points="272.297,1423.18 291.194,1423.18 "/>
<polyline clip-path="url(#clip920)" style="stroke:#000000; stroke-linecap:round; stroke-linejoin:round; stroke-width:4; stroke-opacity:1; fill:none" points="272.297,1293.21 291.194,1293.21 "/>
<polyline clip-path="url(#clip920)" style="stroke:#000000; stroke-linecap:round; stroke-linejoin:round; stroke-width:4; stroke-opacity:1; fill:none" points="272.297,1163.24 291.194,1163.24 "/>
<polyline clip-path="url(#clip920)" style="stroke:#000000; stroke-linecap:round; stroke-linejoin:round; stroke-width:4; stroke-opacity:1; fill:none" points="272.297,1033.27 291.194,1033.27 "/>
<polyline clip-path="url(#clip920)" style="stroke:#000000; stroke-linecap:round; stroke-linejoin:round; stroke-width:4; stroke-opacity:1; fill:none" points="272.297,903.297 291.194,903.297 "/>
<polyline clip-path="url(#clip920)" style="stroke:#000000; stroke-linecap:round; stroke-linejoin:round; stroke-width:4; stroke-opacity:1; fill:none" points="272.297,773.326 291.194,773.326 "/>
<polyline clip-path="url(#clip920)" style="stroke:#000000; stroke-linecap:round; stroke-linejoin:round; stroke-width:4; stroke-opacity:1; fill:none" points="272.297,643.355 291.194,643.355 "/>
<polyline clip-path="url(#clip920)" style="stroke:#000000; stroke-linecap:round; stroke-linejoin:round; stroke-width:4; stroke-opacity:1; fill:none" points="272.297,513.384 291.194,513.384 "/>
<polyline clip-path="url(#clip920)" style="stroke:#000000; stroke-linecap:round; stroke-linejoin:round; stroke-width:4; stroke-opacity:1; fill:none" points="272.297,383.414 291.194,383.414 "/>
<polyline clip-path="url(#clip920)" style="stroke:#000000; stroke-linecap:round; stroke-linejoin:round; stroke-width:4; stroke-opacity:1; fill:none" points="272.297,253.443 291.194,253.443 "/>
<polyline clip-path="url(#clip920)" style="stroke:#000000; stroke-linecap:round; stroke-linejoin:round; stroke-width:4; stroke-opacity:1; fill:none" points="272.297,123.472 291.194,123.472 "/>
<path clip-path="url(#clip920)" d="M114.26 1423.63 L143.936 1423.63 L143.936 1427.57 L114.26 1427.57 L114.26 1423.63 Z" fill="#000000" fill-rule="nonzero" fill-opacity="1" /><path clip-path="url(#clip920)" d="M154.839 1436.52 L162.477 1436.52 L162.477 1410.16 L154.167 1411.83 L154.167 1407.57 L162.431 1405.9 L167.107 1405.9 L167.107 1436.52 L174.746 1436.52 L174.746 1440.46 L154.839 1440.46 L154.839 1436.52 Z" fill="#000000" fill-rule="nonzero" fill-opacity="1" /><path clip-path="url(#clip920)" d="M184.237 1405.9 L202.593 1405.9 L202.593 1409.84 L188.519 1409.84 L188.519 1418.31 Q189.538 1417.96 190.556 1417.8 Q191.575 1417.61 192.593 1417.61 Q198.38 1417.61 201.76 1420.78 Q205.139 1423.96 205.139 1429.37 Q205.139 1434.95 201.667 1438.05 Q198.195 1441.13 191.875 1441.13 Q189.7 1441.13 187.431 1440.76 Q185.186 1440.39 182.778 1439.65 L182.778 1434.95 Q184.862 1436.08 187.084 1436.64 Q189.306 1437.2 191.783 1437.2 Q195.787 1437.2 198.125 1435.09 Q200.463 1432.98 200.463 1429.37 Q200.463 1425.76 198.125 1423.65 Q195.787 1421.55 191.783 1421.55 Q189.908 1421.55 188.033 1421.96 Q186.181 1422.38 184.237 1423.26 L184.237 1405.9 Z" fill="#000000" fill-rule="nonzero" fill-opacity="1" /><path clip-path="url(#clip920)" d="M224.352 1408.98 Q220.741 1408.98 218.912 1412.54 Q217.107 1416.08 217.107 1423.21 Q217.107 1430.32 218.912 1433.89 Q220.741 1437.43 224.352 1437.43 Q227.986 1437.43 229.792 1433.89 Q231.621 1430.32 231.621 1423.21 Q231.621 1416.08 229.792 1412.54 Q227.986 1408.98 224.352 1408.98 M224.352 1405.27 Q230.162 1405.27 233.218 1409.88 Q236.297 1414.46 236.297 1423.21 Q236.297 1431.94 233.218 1436.55 Q230.162 1441.13 224.352 1441.13 Q218.542 1441.13 215.463 1436.55 Q212.408 1431.94 212.408 1423.21 Q212.408 1414.46 215.463 1409.88 Q218.542 1405.27 224.352 1405.27 Z" fill="#000000" fill-rule="nonzero" fill-opacity="1" /><path clip-path="url(#clip920)" d="M114.26 1293.66 L143.936 1293.66 L143.936 1297.6 L114.26 1297.6 L114.26 1293.66 Z" fill="#000000" fill-rule="nonzero" fill-opacity="1" /><path clip-path="url(#clip920)" d="M154.839 1306.55 L162.477 1306.55 L162.477 1280.19 L154.167 1281.85 L154.167 1277.6 L162.431 1275.93 L167.107 1275.93 L167.107 1306.55 L174.746 1306.55 L174.746 1310.49 L154.839 1310.49 L154.839 1306.55 Z" fill="#000000" fill-rule="nonzero" fill-opacity="1" /><path clip-path="url(#clip920)" d="M188.218 1306.55 L204.537 1306.55 L204.537 1310.49 L182.593 1310.49 L182.593 1306.55 Q185.255 1303.8 189.838 1299.17 Q194.445 1294.52 195.625 1293.17 Q197.871 1290.65 198.75 1288.92 Q199.653 1287.16 199.653 1285.47 Q199.653 1282.71 197.709 1280.98 Q195.787 1279.24 192.686 1279.24 Q190.487 1279.24 188.033 1280 Q185.602 1280.77 182.825 1282.32 L182.825 1277.6 Q185.649 1276.46 188.102 1275.88 Q190.556 1275.3 192.593 1275.3 Q197.963 1275.3 201.158 1277.99 Q204.352 1280.67 204.352 1285.17 Q204.352 1287.29 203.542 1289.22 Q202.755 1291.11 200.649 1293.71 Q200.07 1294.38 196.968 1297.6 Q193.866 1300.79 188.218 1306.55 Z" fill="#000000" fill-rule="nonzero" fill-opacity="1" /><path clip-path="url(#clip920)" d="M224.352 1279.01 Q220.741 1279.01 218.912 1282.57 Q217.107 1286.11 217.107 1293.24 Q217.107 1300.35 218.912 1303.92 Q220.741 1307.46 224.352 1307.46 Q227.986 1307.46 229.792 1303.92 Q231.621 1300.35 231.621 1293.24 Q231.621 1286.11 229.792 1282.57 Q227.986 1279.01 224.352 1279.01 M224.352 1275.3 Q230.162 1275.3 233.218 1279.91 Q236.297 1284.49 236.297 1293.24 Q236.297 1301.97 233.218 1306.58 Q230.162 1311.16 224.352 1311.16 Q218.542 1311.16 215.463 1306.58 Q212.408 1301.97 212.408 1293.24 Q212.408 1284.49 215.463 1279.91 Q218.542 1275.3 224.352 1275.3 Z" fill="#000000" fill-rule="nonzero" fill-opacity="1" /><path clip-path="url(#clip920)" d="M144.422 1163.69 L174.098 1163.69 L174.098 1167.62 L144.422 1167.62 L144.422 1163.69 Z" fill="#000000" fill-rule="nonzero" fill-opacity="1" /><path clip-path="url(#clip920)" d="M184.329 1179.8 L184.329 1175.54 Q186.088 1176.37 187.894 1176.81 Q189.7 1177.25 191.436 1177.25 Q196.065 1177.25 198.496 1174.15 Q200.95 1171.03 201.297 1164.69 Q199.954 1166.68 197.894 1167.74 Q195.834 1168.81 193.334 1168.81 Q188.149 1168.81 185.116 1165.68 Q182.107 1162.53 182.107 1157.09 Q182.107 1151.77 185.255 1148.55 Q188.403 1145.33 193.635 1145.33 Q199.63 1145.33 202.778 1149.94 Q205.949 1154.52 205.949 1163.27 Q205.949 1171.44 202.061 1176.33 Q198.195 1181.19 191.644 1181.19 Q189.885 1181.19 188.079 1180.84 Q186.274 1180.5 184.329 1179.8 M193.635 1165.15 Q196.783 1165.15 198.612 1163 Q200.463 1160.84 200.463 1157.09 Q200.463 1153.37 198.612 1151.21 Q196.783 1149.04 193.635 1149.04 Q190.487 1149.04 188.635 1151.21 Q186.806 1153.37 186.806 1157.09 Q186.806 1160.84 188.635 1163 Q190.487 1165.15 193.635 1165.15 Z" fill="#000000" fill-rule="nonzero" fill-opacity="1" /><path clip-path="url(#clip920)" d="M224.352 1149.04 Q220.741 1149.04 218.912 1152.6 Q217.107 1156.14 217.107 1163.27 Q217.107 1170.38 218.912 1173.94 Q220.741 1177.49 224.352 1177.49 Q227.986 1177.49 229.792 1173.94 Q231.621 1170.38 231.621 1163.27 Q231.621 1156.14 229.792 1152.6 Q227.986 1149.04 224.352 1149.04 M224.352 1145.33 Q230.162 1145.33 233.218 1149.94 Q236.297 1154.52 236.297 1163.27 Q236.297 1172 233.218 1176.61 Q230.162 1181.19 224.352 1181.19 Q218.542 1181.19 215.463 1176.61 Q212.408 1172 212.408 1163.27 Q212.408 1154.52 215.463 1149.94 Q218.542 1145.33 224.352 1145.33 Z" fill="#000000" fill-rule="nonzero" fill-opacity="1" /><path clip-path="url(#clip920)" d="M144.422 1033.72 L174.098 1033.72 L174.098 1037.65 L144.422 1037.65 L144.422 1033.72 Z" fill="#000000" fill-rule="nonzero" fill-opacity="1" /><path clip-path="url(#clip920)" d="M194.769 1031.4 Q191.621 1031.4 189.769 1033.56 Q187.94 1035.71 187.94 1039.46 Q187.94 1043.19 189.769 1045.36 Q191.621 1047.52 194.769 1047.52 Q197.917 1047.52 199.746 1045.36 Q201.598 1043.19 201.598 1039.46 Q201.598 1035.71 199.746 1033.56 Q197.917 1031.4 194.769 1031.4 M204.051 1016.75 L204.051 1021.01 Q202.292 1020.18 200.487 1019.74 Q198.704 1019.3 196.945 1019.3 Q192.315 1019.3 189.862 1022.42 Q187.431 1025.55 187.084 1031.87 Q188.45 1029.85 190.51 1028.79 Q192.57 1027.7 195.047 1027.7 Q200.255 1027.7 203.264 1030.87 Q206.297 1034.02 206.297 1039.46 Q206.297 1044.78 203.149 1048 Q200 1051.22 194.769 1051.22 Q188.774 1051.22 185.602 1046.64 Q182.431 1042.03 182.431 1033.3 Q182.431 1025.11 186.32 1020.25 Q190.209 1015.36 196.76 1015.36 Q198.519 1015.36 200.301 1015.71 Q202.107 1016.06 204.051 1016.75 Z" fill="#000000" fill-rule="nonzero" fill-opacity="1" /><path clip-path="url(#clip920)" d="M224.352 1019.07 Q220.741 1019.07 218.912 1022.63 Q217.107 1026.17 217.107 1033.3 Q217.107 1040.41 218.912 1043.97 Q220.741 1047.52 224.352 1047.52 Q227.986 1047.52 229.792 1043.97 Q231.621 1040.41 231.621 1033.3 Q231.621 1026.17 229.792 1022.63 Q227.986 1019.07 224.352 1019.07 M224.352 1015.36 Q230.162 1015.36 233.218 1019.97 Q236.297 1024.55 236.297 1033.3 Q236.297 1042.03 233.218 1046.64 Q230.162 1051.22 224.352 1051.22 Q218.542 1051.22 215.463 1046.64 Q212.408 1042.03 212.408 1033.3 Q212.408 1024.55 215.463 1019.97 Q218.542 1015.36 224.352 1015.36 Z" fill="#000000" fill-rule="nonzero" fill-opacity="1" /><path clip-path="url(#clip920)" d="M144.422 903.748 L174.098 903.748 L174.098 907.683 L144.422 907.683 L144.422 903.748 Z" fill="#000000" fill-rule="nonzero" fill-opacity="1" /><path clip-path="url(#clip920)" d="M198.357 901.943 Q201.713 902.66 203.588 904.929 Q205.487 907.197 205.487 910.531 Q205.487 915.646 201.968 918.447 Q198.45 921.248 191.968 921.248 Q189.792 921.248 187.477 920.808 Q185.186 920.392 182.732 919.535 L182.732 915.021 Q184.676 916.155 186.991 916.734 Q189.306 917.313 191.829 917.313 Q196.227 917.313 198.519 915.577 Q200.834 913.841 200.834 910.531 Q200.834 907.475 198.681 905.762 Q196.551 904.026 192.732 904.026 L188.704 904.026 L188.704 900.183 L192.917 900.183 Q196.366 900.183 198.195 898.818 Q200.024 897.429 200.024 894.836 Q200.024 892.174 198.125 890.762 Q196.25 889.327 192.732 889.327 Q190.811 889.327 188.612 889.744 Q186.413 890.16 183.774 891.04 L183.774 886.873 Q186.436 886.132 188.75 885.762 Q191.088 885.392 193.149 885.392 Q198.473 885.392 201.575 887.822 Q204.676 890.23 204.676 894.35 Q204.676 897.22 203.033 899.211 Q201.389 901.179 198.357 901.943 Z" fill="#000000" fill-rule="nonzero" fill-opacity="1" /><path clip-path="url(#clip920)" d="M224.352 889.095 Q220.741 889.095 218.912 892.66 Q217.107 896.202 217.107 903.331 Q217.107 910.438 218.912 914.003 Q220.741 917.544 224.352 917.544 Q227.986 917.544 229.792 914.003 Q231.621 910.438 231.621 903.331 Q231.621 896.202 229.792 892.66 Q227.986 889.095 224.352 889.095 M224.352 885.392 Q230.162 885.392 233.218 889.998 Q236.297 894.582 236.297 903.331 Q236.297 912.058 233.218 916.665 Q230.162 921.248 224.352 921.248 Q218.542 921.248 215.463 916.665 Q212.408 912.058 212.408 903.331 Q212.408 894.582 215.463 889.998 Q218.542 885.392 224.352 885.392 Z" fill="#000000" fill-rule="nonzero" fill-opacity="1" /><path clip-path="url(#clip920)" d="M224.352 759.125 Q220.741 759.125 218.912 762.689 Q217.107 766.231 217.107 773.361 Q217.107 780.467 218.912 784.032 Q220.741 787.574 224.352 787.574 Q227.986 787.574 229.792 784.032 Q231.621 780.467 231.621 773.361 Q231.621 766.231 229.792 762.689 Q227.986 759.125 224.352 759.125 M224.352 755.421 Q230.162 755.421 233.218 760.027 Q236.297 764.611 236.297 773.361 Q236.297 782.088 233.218 786.694 Q230.162 791.277 224.352 791.277 Q218.542 791.277 215.463 786.694 Q212.408 782.088 212.408 773.361 Q212.408 764.611 215.463 760.027 Q218.542 755.421 224.352 755.421 Z" fill="#000000" fill-rule="nonzero" fill-opacity="1" /><path clip-path="url(#clip920)" d="M198.357 642.001 Q201.713 642.719 203.588 644.987 Q205.487 647.256 205.487 650.589 Q205.487 655.705 201.968 658.506 Q198.45 661.307 191.968 661.307 Q189.792 661.307 187.477 660.867 Q185.186 660.45 182.732 659.594 L182.732 655.08 Q184.676 656.214 186.991 656.793 Q189.306 657.371 191.829 657.371 Q196.227 657.371 198.519 655.635 Q200.834 653.899 200.834 650.589 Q200.834 647.533 198.681 645.82 Q196.551 644.084 192.732 644.084 L188.704 644.084 L188.704 640.242 L192.917 640.242 Q196.366 640.242 198.195 638.876 Q200.024 637.487 200.024 634.895 Q200.024 632.233 198.125 630.821 Q196.25 629.385 192.732 629.385 Q190.811 629.385 188.612 629.802 Q186.413 630.219 183.774 631.098 L183.774 626.932 Q186.436 626.191 188.75 625.821 Q191.088 625.45 193.149 625.45 Q198.473 625.45 201.575 627.881 Q204.676 630.288 204.676 634.409 Q204.676 637.279 203.033 639.27 Q201.389 641.237 198.357 642.001 Z" fill="#000000" fill-rule="nonzero" fill-opacity="1" /><path clip-path="url(#clip920)" d="M224.352 629.154 Q220.741 629.154 218.912 632.719 Q217.107 636.26 217.107 643.39 Q217.107 650.496 218.912 654.061 Q220.741 657.603 224.352 657.603 Q227.986 657.603 229.792 654.061 Q231.621 650.496 231.621 643.39 Q231.621 636.26 229.792 632.719 Q227.986 629.154 224.352 629.154 M224.352 625.45 Q230.162 625.45 233.218 630.057 Q236.297 634.64 236.297 643.39 Q236.297 652.117 233.218 656.723 Q230.162 661.307 224.352 661.307 Q218.542 661.307 215.463 656.723 Q212.408 652.117 212.408 643.39 Q212.408 634.64 215.463 630.057 Q218.542 625.45 224.352 625.45 Z" fill="#000000" fill-rule="nonzero" fill-opacity="1" /><path clip-path="url(#clip920)" d="M194.769 511.521 Q191.621 511.521 189.769 513.674 Q187.94 515.827 187.94 519.577 Q187.94 523.303 189.769 525.479 Q191.621 527.632 194.769 527.632 Q197.917 527.632 199.746 525.479 Q201.598 523.303 201.598 519.577 Q201.598 515.827 199.746 513.674 Q197.917 511.521 194.769 511.521 M204.051 496.868 L204.051 501.128 Q202.292 500.294 200.487 499.854 Q198.704 499.415 196.945 499.415 Q192.315 499.415 189.862 502.54 Q187.431 505.665 187.084 511.984 Q188.45 509.97 190.51 508.905 Q192.57 507.817 195.047 507.817 Q200.255 507.817 203.264 510.989 Q206.297 514.137 206.297 519.577 Q206.297 524.901 203.149 528.118 Q200 531.336 194.769 531.336 Q188.774 531.336 185.602 526.752 Q182.431 522.146 182.431 513.419 Q182.431 505.225 186.32 500.364 Q190.209 495.479 196.76 495.479 Q198.519 495.479 200.301 495.827 Q202.107 496.174 204.051 496.868 Z" fill="#000000" fill-rule="nonzero" fill-opacity="1" /><path clip-path="url(#clip920)" d="M224.352 499.183 Q220.741 499.183 218.912 502.748 Q217.107 506.29 217.107 513.419 Q217.107 520.526 218.912 524.09 Q220.741 527.632 224.352 527.632 Q227.986 527.632 229.792 524.09 Q231.621 520.526 231.621 513.419 Q231.621 506.29 229.792 502.748 Q227.986 499.183 224.352 499.183 M224.352 495.479 Q230.162 495.479 233.218 500.086 Q236.297 504.669 236.297 513.419 Q236.297 522.146 233.218 526.752 Q230.162 531.336 224.352 531.336 Q218.542 531.336 215.463 526.752 Q212.408 522.146 212.408 513.419 Q212.408 504.669 215.463 500.086 Q218.542 495.479 224.352 495.479 Z" fill="#000000" fill-rule="nonzero" fill-opacity="1" /><path clip-path="url(#clip920)" d="M184.329 399.976 L184.329 395.717 Q186.088 396.55 187.894 396.99 Q189.7 397.43 191.436 397.43 Q196.065 397.43 198.496 394.328 Q200.95 391.203 201.297 384.86 Q199.954 386.851 197.894 387.916 Q195.834 388.981 193.334 388.981 Q188.149 388.981 185.116 385.856 Q182.107 382.708 182.107 377.268 Q182.107 371.944 185.255 368.726 Q188.403 365.509 193.635 365.509 Q199.63 365.509 202.778 370.115 Q205.949 374.698 205.949 383.448 Q205.949 391.62 202.061 396.504 Q198.195 401.365 191.644 401.365 Q189.885 401.365 188.079 401.018 Q186.274 400.671 184.329 399.976 M193.635 385.323 Q196.783 385.323 198.612 383.171 Q200.463 381.018 200.463 377.268 Q200.463 373.541 198.612 371.388 Q196.783 369.212 193.635 369.212 Q190.487 369.212 188.635 371.388 Q186.806 373.541 186.806 377.268 Q186.806 381.018 188.635 383.171 Q190.487 385.323 193.635 385.323 Z" fill="#000000" fill-rule="nonzero" fill-opacity="1" /><path clip-path="url(#clip920)" d="M224.352 369.212 Q220.741 369.212 218.912 372.777 Q217.107 376.319 217.107 383.448 Q217.107 390.555 218.912 394.12 Q220.741 397.661 224.352 397.661 Q227.986 397.661 229.792 394.12 Q231.621 390.555 231.621 383.448 Q231.621 376.319 229.792 372.777 Q227.986 369.212 224.352 369.212 M224.352 365.509 Q230.162 365.509 233.218 370.115 Q236.297 374.698 236.297 383.448 Q236.297 392.175 233.218 396.782 Q230.162 401.365 224.352 401.365 Q218.542 401.365 215.463 396.782 Q212.408 392.175 212.408 383.448 Q212.408 374.698 215.463 370.115 Q218.542 365.509 224.352 365.509 Z" fill="#000000" fill-rule="nonzero" fill-opacity="1" /><path clip-path="url(#clip920)" d="M154.839 266.788 L162.477 266.788 L162.477 240.422 L154.167 242.089 L154.167 237.83 L162.431 236.163 L167.107 236.163 L167.107 266.788 L174.746 266.788 L174.746 270.723 L154.839 270.723 L154.839 266.788 Z" fill="#000000" fill-rule="nonzero" fill-opacity="1" /><path clip-path="url(#clip920)" d="M188.218 266.788 L204.537 266.788 L204.537 270.723 L182.593 270.723 L182.593 266.788 Q185.255 264.033 189.838 259.404 Q194.445 254.751 195.625 253.408 Q197.871 250.885 198.75 249.149 Q199.653 247.39 199.653 245.7 Q199.653 242.945 197.709 241.209 Q195.787 239.473 192.686 239.473 Q190.487 239.473 188.033 240.237 Q185.602 241.001 182.825 242.552 L182.825 237.83 Q185.649 236.695 188.102 236.117 Q190.556 235.538 192.593 235.538 Q197.963 235.538 201.158 238.223 Q204.352 240.908 204.352 245.399 Q204.352 247.529 203.542 249.45 Q202.755 251.348 200.649 253.941 Q200.07 254.612 196.968 257.829 Q193.866 261.024 188.218 266.788 Z" fill="#000000" fill-rule="nonzero" fill-opacity="1" /><path clip-path="url(#clip920)" d="M224.352 239.242 Q220.741 239.242 218.912 242.806 Q217.107 246.348 217.107 253.478 Q217.107 260.584 218.912 264.149 Q220.741 267.691 224.352 267.691 Q227.986 267.691 229.792 264.149 Q231.621 260.584 231.621 253.478 Q231.621 246.348 229.792 242.806 Q227.986 239.242 224.352 239.242 M224.352 235.538 Q230.162 235.538 233.218 240.144 Q236.297 244.728 236.297 253.478 Q236.297 262.204 233.218 266.811 Q230.162 271.394 224.352 271.394 Q218.542 271.394 215.463 266.811 Q212.408 262.204 212.408 253.478 Q212.408 244.728 215.463 240.144 Q218.542 235.538 224.352 235.538 Z" fill="#000000" fill-rule="nonzero" fill-opacity="1" /><path clip-path="url(#clip920)" d="M154.839 136.817 L162.477 136.817 L162.477 110.451 L154.167 112.118 L154.167 107.859 L162.431 106.192 L167.107 106.192 L167.107 136.817 L174.746 136.817 L174.746 140.752 L154.839 140.752 L154.839 136.817 Z" fill="#000000" fill-rule="nonzero" fill-opacity="1" /><path clip-path="url(#clip920)" d="M184.237 106.192 L202.593 106.192 L202.593 110.127 L188.519 110.127 L188.519 118.599 Q189.538 118.252 190.556 118.09 Q191.575 117.905 192.593 117.905 Q198.38 117.905 201.76 121.076 Q205.139 124.248 205.139 129.664 Q205.139 135.243 201.667 138.345 Q198.195 141.423 191.875 141.423 Q189.7 141.423 187.431 141.053 Q185.186 140.683 182.778 139.942 L182.778 135.243 Q184.862 136.377 187.084 136.933 Q189.306 137.488 191.783 137.488 Q195.787 137.488 198.125 135.382 Q200.463 133.275 200.463 129.664 Q200.463 126.053 198.125 123.947 Q195.787 121.84 191.783 121.84 Q189.908 121.84 188.033 122.257 Q186.181 122.674 184.237 123.553 L184.237 106.192 Z" fill="#000000" fill-rule="nonzero" fill-opacity="1" /><path clip-path="url(#clip920)" d="M224.352 109.271 Q220.741 109.271 218.912 112.836 Q217.107 116.377 217.107 123.507 Q217.107 130.613 218.912 134.178 Q220.741 137.72 224.352 137.72 Q227.986 137.72 229.792 134.178 Q231.621 130.613 231.621 123.507 Q231.621 116.377 229.792 112.836 Q227.986 109.271 224.352 109.271 M224.352 105.567 Q230.162 105.567 233.218 110.174 Q236.297 114.757 236.297 123.507 Q236.297 132.234 233.218 136.84 Q230.162 141.423 224.352 141.423 Q218.542 141.423 215.463 136.84 Q212.408 132.234 212.408 123.507 Q212.408 114.757 215.463 110.174 Q218.542 105.567 224.352 105.567 Z" fill="#000000" fill-rule="nonzero" fill-opacity="1" /><path clip-path="url(#clip920)" d="M20.1444 1020.81 L26.9239 1020.81 Q23.9002 1024.06 22.4043 1027.75 Q20.9083 1031.41 20.9083 1035.55 Q20.9083 1043.69 25.9054 1048.02 Q30.8707 1052.35 40.2919 1052.35 Q49.6813 1052.35 54.6784 1048.02 Q59.6436 1043.69 59.6436 1035.55 Q59.6436 1031.41 58.1477 1027.75 Q56.6518 1024.06 53.6281 1020.81 L60.3439 1020.81 Q62.6355 1024.18 63.7814 1027.97 Q64.9272 1031.73 64.9272 1035.93 Q64.9272 1046.72 58.3387 1052.92 Q51.7183 1059.13 40.2919 1059.13 Q28.8336 1059.13 22.2451 1052.92 Q15.6248 1046.72 15.6248 1035.93 Q15.6248 1031.66 16.7706 1027.91 Q17.8846 1024.12 20.1444 1020.81 Z" fill="#000000" fill-rule="nonzero" fill-opacity="1" /><path clip-path="url(#clip920)" d="M32.4621 997.319 Q32.4621 1002.03 36.1542 1004.77 Q39.8145 1007.5 46.212 1007.5 Q52.6095 1007.5 56.3017 1004.8 Q59.9619 1002.06 59.9619 997.319 Q59.9619 992.64 56.2698 989.903 Q52.5777 987.166 46.212 987.166 Q39.8781 987.166 36.186 989.903 Q32.4621 992.64 32.4621 997.319 M27.4968 997.319 Q27.4968 989.68 32.4621 985.32 Q37.4273 980.959 46.212 980.959 Q54.9649 980.959 59.9619 985.32 Q64.9272 989.68 64.9272 997.319 Q64.9272 1004.99 59.9619 1009.35 Q54.9649 1013.68 46.212 1013.68 Q37.4273 1013.68 32.4621 1009.35 Q27.4968 1004.99 27.4968 997.319 Z" fill="#000000" fill-rule="nonzero" fill-opacity="1" /><path clip-path="url(#clip920)" d="M46.0847 955.051 Q46.0847 962.149 47.7079 964.886 Q49.3312 967.623 53.2461 967.623 Q56.3653 967.623 58.2114 965.586 Q60.0256 963.517 60.0256 959.984 Q60.0256 955.115 56.5881 952.186 Q53.1188 949.226 47.3897 949.226 L46.0847 949.226 L46.0847 955.051 M43.6657 943.37 L64.0042 943.37 L64.0042 949.226 L58.5933 949.226 Q61.8398 951.232 63.3994 954.223 Q64.9272 957.215 64.9272 961.544 Q64.9272 967.019 61.8716 970.265 Q58.7843 973.48 53.6281 973.48 Q47.6125 973.48 44.5569 969.469 Q41.5014 965.427 41.5014 957.438 L41.5014 949.226 L40.9285 949.226 Q36.8862 949.226 34.6901 951.9 Q32.4621 954.542 32.4621 959.348 Q32.4621 962.403 33.1941 965.3 Q33.9262 968.196 35.3903 970.87 L29.9795 970.87 Q28.7381 967.655 28.1334 964.631 Q27.4968 961.608 27.4968 958.743 Q27.4968 951.009 31.5072 947.189 Q35.5176 943.37 43.6657 943.37 Z" fill="#000000" fill-rule="nonzero" fill-opacity="1" /><path clip-path="url(#clip920)" d="M29.4065 908.581 L34.9447 908.581 Q33.6716 911.064 33.035 913.738 Q32.3984 916.411 32.3984 919.276 Q32.3984 923.636 33.7352 925.832 Q35.072 927.997 37.7456 927.997 Q39.7826 927.997 40.9603 926.437 Q42.1061 924.878 43.1565 920.167 L43.6021 918.162 Q44.9389 911.923 47.3897 909.313 Q49.8086 906.672 54.1691 906.672 Q59.1344 906.672 62.0308 910.618 Q64.9272 914.533 64.9272 921.408 Q64.9272 924.273 64.3543 927.392 Q63.8132 930.479 62.6992 933.917 L56.6518 933.917 Q58.3387 930.67 59.198 927.519 Q60.0256 924.368 60.0256 921.281 Q60.0256 917.143 58.6251 914.915 Q57.1929 912.687 54.6147 912.687 Q52.2276 912.687 50.9545 914.31 Q49.6813 915.902 48.5037 921.345 L48.0262 923.382 Q46.8804 928.824 44.5251 931.243 Q42.138 933.662 38.0002 933.662 Q32.9713 933.662 30.2341 930.097 Q27.4968 926.533 27.4968 919.976 Q27.4968 916.729 27.9743 913.865 Q28.4517 911 29.4065 908.581 Z" fill="#000000" fill-rule="nonzero" fill-opacity="1" /><path clip-path="url(#clip920)" d="M18.2347 891.553 L28.3562 891.553 L28.3562 879.49 L32.9077 879.49 L32.9077 891.553 L52.2594 891.553 Q56.6199 891.553 57.8613 890.375 Q59.1026 889.166 59.1026 885.506 L59.1026 879.49 L64.0042 879.49 L64.0042 885.506 Q64.0042 892.285 61.4897 894.863 Q58.9434 897.441 52.2594 897.441 L32.9077 897.441 L32.9077 901.738 L28.3562 901.738 L28.3562 897.441 L18.2347 897.441 L18.2347 891.553 Z" fill="#000000" fill-rule="nonzero" fill-opacity="1" /><path clip-path="url(#clip920)" d="M46.0847 834.866 Q46.0847 841.964 47.7079 844.701 Q49.3312 847.439 53.2461 847.439 Q56.3653 847.439 58.2114 845.402 Q60.0256 843.333 60.0256 839.8 Q60.0256 834.93 56.5881 832.002 Q53.1188 829.042 47.3897 829.042 L46.0847 829.042 L46.0847 834.866 M43.6657 823.185 L64.0042 823.185 L64.0042 829.042 L58.5933 829.042 Q61.8398 831.047 63.3994 834.039 Q64.9272 837.031 64.9272 841.359 Q64.9272 846.834 61.8716 850.08 Q58.7843 853.295 53.6281 853.295 Q47.6125 853.295 44.5569 849.285 Q41.5014 845.243 41.5014 837.254 L41.5014 829.042 L40.9285 829.042 Q36.8862 829.042 34.6901 831.715 Q32.4621 834.357 32.4621 839.163 Q32.4621 842.219 33.1941 845.115 Q33.9262 848.012 35.3903 850.685 L29.9795 850.685 Q28.7381 847.471 28.1334 844.447 Q27.4968 841.423 27.4968 838.559 Q27.4968 830.824 31.5072 827.005 Q35.5176 823.185 43.6657 823.185 Z" fill="#000000" fill-rule="nonzero" fill-opacity="1" /><path clip-path="url(#clip920)" d="M42.4881 781.49 L64.0042 781.49 L64.0042 787.346 L42.679 787.346 Q37.6183 787.346 35.1038 789.32 Q32.5894 791.293 32.5894 795.24 Q32.5894 799.982 35.6131 802.72 Q38.6368 805.457 43.8567 805.457 L64.0042 805.457 L64.0042 811.345 L28.3562 811.345 L28.3562 805.457 L33.8944 805.457 Q30.6797 803.356 29.0883 800.523 Q27.4968 797.659 27.4968 793.935 Q27.4968 787.792 31.3163 784.641 Q35.1038 781.49 42.4881 781.49 Z" fill="#000000" fill-rule="nonzero" fill-opacity="1" /><path clip-path="url(#clip920)" d="M45.7664 746.351 Q39.4007 746.351 35.8996 748.993 Q32.3984 751.603 32.3984 756.345 Q32.3984 761.056 35.8996 763.698 Q39.4007 766.308 45.7664 766.308 Q52.1003 766.308 55.6014 763.698 Q59.1026 761.056 59.1026 756.345 Q59.1026 751.603 55.6014 748.993 Q52.1003 746.351 45.7664 746.351 M59.58 740.495 Q68.683 740.495 73.1071 744.537 Q77.5631 748.579 77.5631 756.918 Q77.5631 760.006 77.0857 762.743 Q76.6401 765.48 75.6852 768.058 L69.9879 768.058 Q71.3884 765.48 72.0568 762.966 Q72.7252 760.451 72.7252 757.841 Q72.7252 752.08 69.7015 749.216 Q66.7096 746.351 60.6303 746.351 L57.7339 746.351 Q60.885 748.166 62.4446 750.998 Q64.0042 753.831 64.0042 757.778 Q64.0042 764.334 59.0071 768.345 Q54.01 772.355 45.7664 772.355 Q37.491 772.355 32.4939 768.345 Q27.4968 764.334 27.4968 757.778 Q27.4968 753.831 29.0564 750.998 Q30.616 748.166 33.7671 746.351 L28.3562 746.351 L28.3562 740.495 L59.58 740.495 Z" fill="#000000" fill-rule="nonzero" fill-opacity="1" /><path clip-path="url(#clip920)" d="M14.479 728.432 L14.479 722.575 L64.0042 722.575 L64.0042 728.432 L14.479 728.432 Z" fill="#000000" fill-rule="nonzero" fill-opacity="1" /><path clip-path="url(#clip920)" d="M44.7161 679.83 L47.5806 679.83 L47.5806 706.757 Q53.6281 706.375 56.8109 703.128 Q59.9619 699.85 59.9619 694.025 Q59.9619 690.651 59.1344 687.5 Q58.3069 684.317 56.6518 681.198 L62.1899 681.198 Q63.5267 684.349 64.227 687.659 Q64.9272 690.97 64.9272 694.375 Q64.9272 702.905 59.9619 707.902 Q54.9967 712.868 46.5303 712.868 Q37.7774 712.868 32.6531 708.157 Q27.4968 703.415 27.4968 695.394 Q27.4968 688.201 32.1438 684.031 Q36.7589 679.83 44.7161 679.83 M42.9973 685.686 Q38.1912 685.75 35.3266 688.392 Q32.4621 691.001 32.4621 695.33 Q32.4621 700.232 35.2312 703.192 Q38.0002 706.12 43.0292 706.566 L42.9973 685.686 Z" fill="#000000" fill-rule="nonzero" fill-opacity="1" /><path clip-path="url(#clip920)" d="M14.479 650.038 L14.479 636.543 L19.0304 636.543 L19.0304 644.182 L68.0464 644.182 L68.0464 636.543 L72.5979 636.543 L72.5979 650.038 L14.479 650.038 Z" fill="#000000" fill-rule="nonzero" fill-opacity="1" /><path clip-path="url(#clip920)" d="M33.7671 600.608 L14.479 600.608 L14.479 594.752 L64.0042 594.752 L64.0042 600.608 L58.657 600.608 Q61.8398 602.455 63.3994 605.287 Q64.9272 608.088 64.9272 612.035 Q64.9272 618.496 59.771 622.57 Q54.6147 626.612 46.212 626.612 Q37.8093 626.612 32.6531 622.57 Q27.4968 618.496 27.4968 612.035 Q27.4968 608.088 29.0564 605.287 Q30.5842 602.455 33.7671 600.608 M46.212 620.565 Q52.6732 620.565 56.3653 617.923 Q60.0256 615.25 60.0256 610.603 Q60.0256 605.956 56.3653 603.282 Q52.6732 600.608 46.212 600.608 Q39.7508 600.608 36.0905 603.282 Q32.3984 605.956 32.3984 610.603 Q32.3984 615.25 36.0905 617.923 Q39.7508 620.565 46.212 620.565 Z" fill="#000000" fill-rule="nonzero" fill-opacity="1" /><path clip-path="url(#clip920)" d="M44.7161 552.197 L47.5806 552.197 L47.5806 579.124 Q53.6281 578.742 56.8109 575.496 Q59.9619 572.217 59.9619 566.393 Q59.9619 563.019 59.1344 559.868 Q58.3069 556.685 56.6518 553.566 L62.1899 553.566 Q63.5267 556.717 64.227 560.027 Q64.9272 563.337 64.9272 566.743 Q64.9272 575.273 59.9619 580.27 Q54.9967 585.235 46.5303 585.235 Q37.7774 585.235 32.6531 580.525 Q27.4968 575.782 27.4968 567.761 Q27.4968 560.568 32.1438 556.399 Q36.7589 552.197 44.7161 552.197 M42.9973 558.054 Q38.1912 558.117 35.3266 560.759 Q32.4621 563.369 32.4621 567.698 Q32.4621 572.599 35.2312 575.559 Q38.0002 578.488 43.0292 578.933 L42.9973 558.054 Z" fill="#000000" fill-rule="nonzero" fill-opacity="1" /><path clip-path="url(#clip920)" d="M45.7664 519.127 Q39.4007 519.127 35.8996 521.769 Q32.3984 524.379 32.3984 529.122 Q32.3984 533.832 35.8996 536.474 Q39.4007 539.084 45.7664 539.084 Q52.1003 539.084 55.6014 536.474 Q59.1026 533.832 59.1026 529.122 Q59.1026 524.379 55.6014 521.769 Q52.1003 519.127 45.7664 519.127 M59.58 513.271 Q68.683 513.271 73.1071 517.313 Q77.5631 521.355 77.5631 529.694 Q77.5631 532.782 77.0857 535.519 Q76.6401 538.256 75.6852 540.834 L69.9879 540.834 Q71.3884 538.256 72.0568 535.742 Q72.7252 533.227 72.7252 530.618 Q72.7252 524.857 69.7015 521.992 Q66.7096 519.127 60.6303 519.127 L57.7339 519.127 Q60.885 520.942 62.4446 523.774 Q64.0042 526.607 64.0042 530.554 Q64.0042 537.111 59.0071 541.121 Q54.01 545.131 45.7664 545.131 Q37.491 545.131 32.4939 541.121 Q27.4968 537.111 27.4968 530.554 Q27.4968 526.607 29.0564 523.774 Q30.616 520.942 33.7671 519.127 L28.3562 519.127 L28.3562 513.271 L59.58 513.271 Z" fill="#000000" fill-rule="nonzero" fill-opacity="1" /><path clip-path="url(#clip920)" d="M14.479 487.522 L72.5979 487.522 L72.5979 501.017 L68.0464 501.017 L68.0464 493.41 L19.0304 493.41 L19.0304 501.017 L14.479 501.017 L14.479 487.522 Z" fill="#000000" fill-rule="nonzero" fill-opacity="1" /><path clip-path="url(#clip920)" d="M947.02 21.4364 L955.284 21.4364 L968.004 72.5588 L980.683 21.4364 L989.879 21.4364 L1002.6 72.5588 L1015.28 21.4364 L1023.58 21.4364 L1008.39 81.9164 L998.102 81.9164 L985.342 29.4167 L972.46 81.9164 L962.17 81.9164 L947.02 21.4364 Z" fill="#000000" fill-rule="nonzero" fill-opacity="1" /><path clip-path="url(#clip920)" d="M1032.29 36.5462 L1039.75 36.5462 L1039.75 81.9164 L1032.29 81.9164 L1032.29 36.5462 M1032.29 18.8843 L1039.75 18.8843 L1039.75 28.3229 L1032.29 28.3229 L1032.29 18.8843 Z" fill="#000000" fill-rule="nonzero" fill-opacity="1" /><path clip-path="url(#clip920)" d="M1093.06 54.5323 L1093.06 81.9164 L1085.6 81.9164 L1085.6 54.7753 Q1085.6 48.3344 1083.09 45.1342 Q1080.58 41.934 1075.56 41.934 Q1069.52 41.934 1066.04 45.7823 Q1062.55 49.6307 1062.55 56.2742 L1062.55 81.9164 L1055.06 81.9164 L1055.06 36.5462 L1062.55 36.5462 L1062.55 43.5948 Q1065.23 39.5034 1068.83 37.478 Q1072.48 35.4525 1077.22 35.4525 Q1085.03 35.4525 1089.04 40.3136 Q1093.06 45.1342 1093.06 54.5323 Z" fill="#000000" fill-rule="nonzero" fill-opacity="1" /><path clip-path="url(#clip920)" d="M1137.78 58.7047 Q1137.78 50.6029 1134.41 46.1469 Q1131.09 41.6909 1125.06 41.6909 Q1119.06 41.6909 1115.7 46.1469 Q1112.38 50.6029 1112.38 58.7047 Q1112.38 66.766 1115.7 71.222 Q1119.06 75.678 1125.06 75.678 Q1131.09 75.678 1134.41 71.222 Q1137.78 66.766 1137.78 58.7047 M1145.23 76.2856 Q1145.23 87.8712 1140.09 93.502 Q1134.94 99.1732 1124.33 99.1732 Q1120.4 99.1732 1116.91 98.5656 Q1113.43 97.9985 1110.15 96.7832 L1110.15 89.5321 Q1113.43 91.3145 1116.63 92.1652 Q1119.83 93.0159 1123.15 93.0159 Q1130.49 93.0159 1134.13 89.1675 Q1137.78 85.3596 1137.78 77.6224 L1137.78 73.9361 Q1135.47 77.9465 1131.86 79.9314 Q1128.26 81.9164 1123.23 81.9164 Q1114.89 81.9164 1109.79 75.5565 Q1104.68 69.1965 1104.68 58.7047 Q1104.68 48.1723 1109.79 41.8124 Q1114.89 35.4525 1123.23 35.4525 Q1128.26 35.4525 1131.86 37.4374 Q1135.47 39.4224 1137.78 43.4328 L1137.78 36.5462 L1145.23 36.5462 L1145.23 76.2856 Z" fill="#000000" fill-rule="nonzero" fill-opacity="1" /><path clip-path="url(#clip920)" d="M1167.96 23.6644 L1167.96 36.5462 L1183.31 36.5462 L1183.31 42.339 L1167.96 42.339 L1167.96 66.9685 Q1167.96 72.5183 1169.46 74.0981 Q1170.99 75.678 1175.65 75.678 L1183.31 75.678 L1183.31 81.9164 L1175.65 81.9164 Q1167.02 81.9164 1163.74 78.7162 Q1160.46 75.4754 1160.46 66.9685 L1160.46 42.339 L1154.99 42.339 L1154.99 36.5462 L1160.46 36.5462 L1160.46 23.6644 L1167.96 23.6644 Z" fill="#000000" fill-rule="nonzero" fill-opacity="1" /><path clip-path="url(#clip920)" d="M1193.11 36.5462 L1200.57 36.5462 L1200.57 81.9164 L1193.11 81.9164 L1193.11 36.5462 M1193.11 18.8843 L1200.57 18.8843 L1200.57 28.3229 L1193.11 28.3229 L1193.11 18.8843 Z" fill="#000000" fill-rule="nonzero" fill-opacity="1" /><path clip-path="url(#clip920)" d="M1223.37 75.1109 L1223.37 99.1732 L1215.88 99.1732 L1215.88 36.5462 L1223.37 36.5462 L1223.37 43.4328 Q1225.72 39.3819 1229.29 37.4374 Q1232.89 35.4525 1237.87 35.4525 Q1246.14 35.4525 1251.28 42.015 Q1256.47 48.5774 1256.47 59.2718 Q1256.47 69.9662 1251.28 76.5287 Q1246.14 83.0911 1237.87 83.0911 Q1232.89 83.0911 1229.29 81.1467 Q1225.72 79.1618 1223.37 75.1109 M1248.73 59.2718 Q1248.73 51.0485 1245.33 46.3899 Q1241.97 41.6909 1236.05 41.6909 Q1230.14 41.6909 1226.73 46.3899 Q1223.37 51.0485 1223.37 59.2718 Q1223.37 67.4952 1226.73 72.1942 Q1230.14 76.8527 1236.05 76.8527 Q1241.97 76.8527 1245.33 72.1942 Q1248.73 67.4952 1248.73 59.2718 Z" fill="#000000" fill-rule="nonzero" fill-opacity="1" /><path clip-path="url(#clip920)" d="M1302.57 23.6644 L1302.57 36.5462 L1317.92 36.5462 L1317.92 42.339 L1302.57 42.339 L1302.57 66.9685 Q1302.57 72.5183 1304.07 74.0981 Q1305.61 75.678 1310.26 75.678 L1317.92 75.678 L1317.92 81.9164 L1310.26 81.9164 Q1301.64 81.9164 1298.35 78.7162 Q1295.07 75.4754 1295.07 66.9685 L1295.07 42.339 L1289.6 42.339 L1289.6 36.5462 L1295.07 36.5462 L1295.07 23.6644 L1302.57 23.6644 Z" fill="#000000" fill-rule="nonzero" fill-opacity="1" /><path clip-path="url(#clip920)" d="M1323.39 36.5462 L1330.84 36.5462 L1340.16 71.9512 L1349.44 36.5462 L1358.23 36.5462 L1367.54 71.9512 L1376.82 36.5462 L1384.27 36.5462 L1372.41 81.9164 L1363.62 81.9164 L1353.85 44.7291 L1344.05 81.9164 L1335.26 81.9164 L1323.39 36.5462 Z" fill="#000000" fill-rule="nonzero" fill-opacity="1" /><path clip-path="url(#clip920)" d="M1395.58 36.5462 L1403.03 36.5462 L1403.03 81.9164 L1395.58 81.9164 L1395.58 36.5462 M1395.58 18.8843 L1403.03 18.8843 L1403.03 28.3229 L1395.58 28.3229 L1395.58 18.8843 Z" fill="#000000" fill-rule="nonzero" fill-opacity="1" /><path clip-path="url(#clip920)" d="M1447.55 37.883 L1447.55 44.9316 Q1444.39 43.3113 1440.99 42.5011 Q1437.58 41.6909 1433.94 41.6909 Q1428.39 41.6909 1425.59 43.3923 Q1422.84 45.0937 1422.84 48.4964 Q1422.84 51.089 1424.82 52.5878 Q1426.81 54.0462 1432.8 55.383 L1435.36 55.9501 Q1443.3 57.6515 1446.62 60.7707 Q1449.98 63.8493 1449.98 69.3991 Q1449.98 75.7185 1444.96 79.4048 Q1439.97 83.0911 1431.22 83.0911 Q1427.58 83.0911 1423.61 82.362 Q1419.68 81.6733 1415.3 80.2555 L1415.3 72.5588 Q1419.44 74.7058 1423.45 75.7995 Q1427.46 76.8527 1431.39 76.8527 Q1436.65 76.8527 1439.49 75.0703 Q1442.32 73.2474 1442.32 69.9662 Q1442.32 66.928 1440.26 65.3077 Q1438.23 63.6873 1431.31 62.1885 L1428.71 61.5808 Q1421.79 60.1225 1418.71 57.1248 Q1415.63 54.0867 1415.63 48.8205 Q1415.63 42.4201 1420.17 38.9363 Q1424.7 35.4525 1433.05 35.4525 Q1437.18 35.4525 1440.83 36.0601 Q1444.47 36.6678 1447.55 37.883 Z" fill="#000000" fill-rule="nonzero" fill-opacity="1" /><path clip-path="url(#clip920)" d="M1469.22 23.6644 L1469.22 36.5462 L1484.58 36.5462 L1484.58 42.339 L1469.22 42.339 L1469.22 66.9685 Q1469.22 72.5183 1470.72 74.0981 Q1472.26 75.678 1476.92 75.678 L1484.58 75.678 L1484.58 81.9164 L1476.92 81.9164 Q1468.29 81.9164 1465.01 78.7162 Q1461.73 75.4754 1461.73 66.9685 L1461.73 42.339 L1456.26 42.339 L1456.26 36.5462 L1461.73 36.5462 L1461.73 23.6644 L1469.22 23.6644 Z" fill="#000000" fill-rule="nonzero" fill-opacity="1" /><path clip-path="url(#clip920)" d="M1521.72 44.243 L1573.65 44.243 L1573.65 51.0485 L1521.72 51.0485 L1521.72 44.243 M1521.72 60.7707 L1573.65 60.7707 L1573.65 67.6572 L1521.72 67.6572 L1521.72 60.7707 Z" fill="#000000" fill-rule="nonzero" fill-opacity="1" /><path clip-path="url(#clip920)" d="M1608.82 44.9031 Q1608.82 40.4352 1610.13 37.402 Q1611.44 34.3278 1614.19 31.2946 Q1619.23 26.007 1626.52 26.007 Q1629.64 26.007 1632.39 27.3187 Q1635.17 28.6303 1637.8 31.6225 Q1640.46 34.5738 1642.06 40.4352 Q1643.66 46.2557 1643.66 54.2896 Q1643.66 67.2832 1637.34 75.522 Q1631.07 83.7609 1622.59 83.7609 Q1617.22 83.7609 1614.06 81.3425 Q1610.91 78.8832 1610.91 74.7023 Q1610.91 72.5298 1612.14 71.6281 Q1613.37 70.6853 1614.76 70.6853 Q1616.28 70.6853 1617.46 71.71 Q1618.65 72.6938 1618.65 74.5383 Q1618.65 76.0549 1617.67 77.2436 Q1616.73 78.3913 1614.27 78.3913 Q1616.69 81.4245 1622.51 81.4245 Q1624.6 81.4245 1626.69 80.4818 Q1628.78 79.498 1631.03 77.1616 Q1633.33 74.7842 1634.72 69.8245 Q1636.12 64.8648 1636.12 57.8967 L1636.12 55.2324 Q1632.75 63.6352 1625.62 63.6352 Q1618.57 63.6352 1613.69 58.2246 Q1608.82 52.814 1608.82 44.9031 M1616.36 44.985 Q1616.36 53.3059 1617.87 56.3801 Q1620.46 61.6677 1625.7 61.6677 Q1630.83 61.6677 1633.37 57.1179 Q1635.95 52.5271 1635.95 46.5836 Q1635.95 38.3448 1634.6 34.7377 Q1632.1 28.0975 1626.52 28.0975 Q1620.99 28.0975 1618.12 33.3851 Q1616.36 36.5003 1616.36 44.985 Z" fill="#000000" fill-rule="nonzero" fill-opacity="1" /><path clip-path="url(#clip920)" d="M1650.39 33.9179 Q1650.39 30.0649 1653.09 27.3187 Q1655.84 24.5724 1659.69 24.5724 Q1663.63 24.5724 1666.29 27.3596 Q1669 30.1059 1669 33.795 Q1669 37.648 1666.21 40.3942 Q1663.46 43.1405 1659.69 43.1405 Q1655.76 43.1405 1653.05 40.3942 Q1650.39 37.607 1650.39 33.9179 M1655.51 29.655 Q1653.75 31.3766 1653.75 33.9179 Q1653.75 36.4183 1655.51 38.0988 Q1657.27 39.7794 1659.69 39.7794 Q1662.11 39.7794 1663.83 38.0988 Q1665.55 36.4183 1665.55 33.9179 Q1665.55 31.3766 1663.79 29.655 Q1662.03 27.9335 1659.69 27.9335 Q1657.27 27.9335 1655.51 29.655 Z" fill="#000000" fill-rule="nonzero" fill-opacity="1" /><polyline clip-path="url(#clip922)" style="stroke:#800080; stroke-linecap:round; stroke-linejoin:round; stroke-width:8; stroke-opacity:1; fill:none" points="272.297,789.47 324.308,789.846 376.32,790.27 428.331,790.748 480.342,791.284 532.354,791.886 584.365,792.561 636.377,793.317 688.388,794.165 740.4,795.117 792.411,796.187 844.423,797.393 896.434,798.756 948.446,800.301 1000.46,802.06 1052.47,804.07 1104.48,806.381 1156.49,809.054 1208.5,812.168 1260.51,815.825 1312.53,820.159 1364.54,825.349 1416.55,831.635 1468.56,839.347 1520.57,848.933 1572.58,861.008 1624.6,876.385 1676.61,896.076 1728.62,921.147 1780.63,952.328 1832.64,989.371 1884.65,1030.64 1936.66,1073.51 1988.68,1115.36 2040.69,1154.37 2092.7,1189.62 2144.71,1220.9 2196.72,1248.38 2248.73,1272.43 2300.74,1293.5 2352.76,1311.98 "/>
<polyline clip-path="url(#clip922)" style="stroke:#800080; stroke-linecap:round; stroke-linejoin:round; stroke-width:8; stroke-opacity:1; fill:none" stroke-dasharray="32, 20" points="803.59,816.158 969.224,823.694 1142.11,832.489 1319.81,845.672 1483.02,865.137 1654.71,901.546 1793.74,941.725 1917,998.219 2018.53,1055.97 2140.6,1128.16 2347.29,1231.13 "/>
<circle clip-path="url(#clip922)" cx="795.79" cy="806.468" r="21.6" fill="#800080" fill-rule="evenodd" fill-opacity="1" stroke="none"/>
<circle clip-path="url(#clip922)" cx="999.136" cy="813.379" r="21.6" fill="#800080" fill-rule="evenodd" fill-opacity="1" stroke="none"/>
<circle clip-path="url(#clip922)" cx="1208.32" cy="825.353" r="21.6" fill="#800080" fill-rule="evenodd" fill-opacity="1" stroke="none"/>
<circle clip-path="url(#clip922)" cx="1415.14" cy="844.472" r="21.6" fill="#800080" fill-rule="evenodd" fill-opacity="1" stroke="none"/>
<circle clip-path="url(#clip922)" cx="1572.48" cy="875.778" r="21.6" fill="#800080" fill-rule="evenodd" fill-opacity="1" stroke="none"/>
<circle clip-path="url(#clip922)" cx="1729.29" cy="930.305" r="21.6" fill="#800080" fill-rule="evenodd" fill-opacity="1" stroke="none"/>
<circle clip-path="url(#clip922)" cx="1882.57" cy="1037.52" r="21.6" fill="#800080" fill-rule="evenodd" fill-opacity="1" stroke="none"/>
<circle clip-path="url(#clip922)" cx="2040.58" cy="1149.5" r="21.6" fill="#800080" fill-rule="evenodd" fill-opacity="1" stroke="none"/>
<circle clip-path="url(#clip922)" cx="2197.35" cy="1241.83" r="21.6" fill="#800080" fill-rule="evenodd" fill-opacity="1" stroke="none"/>
<circle clip-path="url(#clip922)" cx="2299.96" cy="1280" r="21.6" fill="#800080" fill-rule="evenodd" fill-opacity="1" stroke="none"/>
<polyline clip-path="url(#clip922)" style="stroke:#1900e5; stroke-linecap:round; stroke-linejoin:round; stroke-width:8; stroke-opacity:1; fill:none" points="272.297,764.31 324.308,763.783 376.32,763.247 428.331,762.698 480.342,762.136 532.354,761.559 584.365,760.964 636.377,760.348 688.388,759.709 740.4,759.042 792.411,758.343 844.423,757.607 896.434,756.827 948.446,755.994 1000.46,755.099 1052.47,754.129 1104.48,753.066 1156.49,751.888 1208.5,750.566 1260.51,749.059 1312.53,747.307 1364.54,745.224 1416.55,742.675 1468.56,739.439 1520.57,735.123 1572.58,728.945 1624.6,719.035 1676.61,698.964 "/>
<polyline clip-path="url(#clip922)" style="stroke:#1900e5; stroke-linecap:round; stroke-linejoin:round; stroke-width:8; stroke-opacity:1; fill:none" stroke-dasharray="32, 20" points="806.908,774.259 937.664,773.723 1074.65,773.188 1236.53,773.192 1394.29,775.889 1567.59,778.587 1690.03,786.133 1826.97,808.226 1920.33,861.03 2006.41,953.162 2069.71,1025.36 2153.71,1119.11 2227.3,1187.53 2346.62,1267.26 "/>
<circle clip-path="url(#clip922)" cx="795.126" cy="761.672" r="21.6" fill="#1900e5" fill-rule="evenodd" fill-opacity="1" stroke="none"/>
<circle clip-path="url(#clip922)" cx="998.887" cy="761.343" r="21.6" fill="#1900e5" fill-rule="evenodd" fill-opacity="1" stroke="none"/>
<circle clip-path="url(#clip922)" cx="1105" cy="761.376" r="21.6" fill="#1900e5" fill-rule="evenodd" fill-opacity="1" stroke="none"/>
<circle clip-path="url(#clip922)" cx="1208.8" cy="760.23" r="21.6" fill="#1900e5" fill-rule="evenodd" fill-opacity="1" stroke="none"/>
<circle clip-path="url(#clip922)" cx="1311.06" cy="757.905" r="21.6" fill="#1900e5" fill-rule="evenodd" fill-opacity="1" stroke="none"/>
<circle clip-path="url(#clip922)" cx="1420.24" cy="753.618" r="21.6" fill="#1900e5" fill-rule="evenodd" fill-opacity="1" stroke="none"/>
<circle clip-path="url(#clip922)" cx="1620.9" cy="745.431" r="21.6" fill="#1900e5" fill-rule="evenodd" fill-opacity="1" stroke="none"/>
<circle clip-path="url(#clip922)" cx="1650.13" cy="743.083" r="21.6" fill="#1900e5" fill-rule="evenodd" fill-opacity="1" stroke="none"/>
<circle clip-path="url(#clip922)" cx="1731.63" cy="728.178" r="21.6" fill="#1900e5" fill-rule="evenodd" fill-opacity="1" stroke="none"/>
<circle clip-path="url(#clip922)" cx="1778.5" cy="708.943" r="21.6" fill="#1900e5" fill-rule="evenodd" fill-opacity="1" stroke="none"/>
<circle clip-path="url(#clip922)" cx="1833.84" cy="657.89" r="21.6" fill="#1900e5" fill-rule="evenodd" fill-opacity="1" stroke="none"/>
<circle clip-path="url(#clip922)" cx="1855.84" cy="234.77" r="21.6" fill="#1900e5" fill-rule="evenodd" fill-opacity="1" stroke="none"/>
<polyline clip-path="url(#clip922)" style="stroke:#004c65; stroke-linecap:round; stroke-linejoin:round; stroke-width:8; stroke-opacity:1; fill:none" points="272.297,738.895 324.308,737.439 376.32,735.909 428.331,734.298 480.342,732.596 532.354,730.792 584.365,728.871 636.377,726.817 688.388,724.612 740.4,722.233 792.411,719.653 844.423,716.839 896.434,713.748 948.446,710.331 1000.46,706.521 1052.47,702.236 1104.48,697.366 1156.49,691.765 1208.5,685.23 1260.51,677.476 1312.53,668.084 1364.54,656.403 1416.55,641.359 1468.56,620.992 1520.57,591.11 1572.58,539.108 "/>
<polyline clip-path="url(#clip922)" style="stroke:#004c65; stroke-linecap:round; stroke-linejoin:round; stroke-width:8; stroke-opacity:1; fill:none" stroke-dasharray="32, 20" points="804.612,729.158 958.572,721.632 1117,711.789 1281,699.052 1419.36,678.781 1548.76,642.874 1619.08,604.069 1666,557.154 1686.12,478.383 1674.99,423.934 1671.67,374.701 1644.93,327.786 1609.25,271.032 1630.47,250.757 1711.92,243.782 1884.81,242.049 2149.23,238.583 2347.81,235.724 "/>
<circle clip-path="url(#clip922)" cx="793.539" cy="720.878" r="21.6" fill="#004c65" fill-rule="evenodd" fill-opacity="1" stroke="none"/>
<circle clip-path="url(#clip922)" cx="995.646" cy="710.017" r="21.6" fill="#004c65" fill-rule="evenodd" fill-opacity="1" stroke="none"/>
<circle clip-path="url(#clip922)" cx="1208.78" cy="692.463" r="21.6" fill="#004c65" fill-rule="evenodd" fill-opacity="1" stroke="none"/>
<circle clip-path="url(#clip922)" cx="1418.47" cy="663.275" r="21.6" fill="#004c65" fill-rule="evenodd" fill-opacity="1" stroke="none"/>
<circle clip-path="url(#clip922)" cx="1572.95" cy="619.267" r="21.6" fill="#004c65" fill-rule="evenodd" fill-opacity="1" stroke="none"/>
<circle clip-path="url(#clip922)" cx="1728.05" cy="477.98" r="21.6" fill="#004c65" fill-rule="evenodd" fill-opacity="1" stroke="none"/>
<circle clip-path="url(#clip922)" cx="1749.27" cy="234.424" r="21.6" fill="#004c65" fill-rule="evenodd" fill-opacity="1" stroke="none"/>
<polyline clip-path="url(#clip922)" style="stroke:#658e00; stroke-linecap:round; stroke-linejoin:round; stroke-width:8; stroke-opacity:1; fill:none" points="272.297,713.743 324.308,711.385 376.32,708.896 428.331,706.262 480.342,703.464 532.354,700.484 584.365,697.298 636.377,693.879 688.388,690.194 740.4,686.207 792.411,681.87 844.423,677.128 896.434,671.915 948.446,666.147 1000.46,659.719 1052.47,652.499 1104.48,644.317 1156.49,634.951 1208.5,624.102 1260.51,611.362 1312.53,596.154 1364.54,577.634 1416.55,554.501 1468.56,524.606 1520.57,484 1572.58,423.693 "/>
<polyline clip-path="url(#clip922)" style="stroke:#658e00; stroke-linecap:round; stroke-linejoin:round; stroke-width:8; stroke-opacity:1; fill:none" stroke-dasharray="32, 20" points="803.873,682.624 957.043,670.727 1112.3,652.882 1264.43,630.163 1386.38,596.089 1487.44,555.521 1558.33,511.162 1606.29,461.396 1645.92,398.109 1664.7,338.617 1682.43,285.589 1696.01,259.075 1741.88,248.807 1825.2,243.392 2005.48,240.706 2336.79,239.623 "/>
<circle clip-path="url(#clip922)" cx="794.489" cy="675.64" r="21.6" fill="#658e00" fill-rule="evenodd" fill-opacity="1" stroke="none"/>
<circle clip-path="url(#clip922)" cx="1102.65" cy="646.258" r="21.6" fill="#658e00" fill-rule="evenodd" fill-opacity="1" stroke="none"/>
<circle clip-path="url(#clip922)" cx="1312.38" cy="613.029" r="21.6" fill="#658e00" fill-rule="evenodd" fill-opacity="1" stroke="none"/>
<circle clip-path="url(#clip922)" cx="1647.58" cy="456.713" r="21.6" fill="#658e00" fill-rule="evenodd" fill-opacity="1" stroke="none"/>
<circle clip-path="url(#clip922)" cx="1673.38" cy="429.319" r="21.6" fill="#658e00" fill-rule="evenodd" fill-opacity="1" stroke="none"/>
<circle clip-path="url(#clip922)" cx="1703.18" cy="395.687" r="21.6" fill="#658e00" fill-rule="evenodd" fill-opacity="1" stroke="none"/>
<circle clip-path="url(#clip922)" cx="1732.36" cy="358.932" r="21.6" fill="#658e00" fill-rule="evenodd" fill-opacity="1" stroke="none"/>
<circle clip-path="url(#clip922)" cx="1753.38" cy="284.029" r="21.6" fill="#658e00" fill-rule="evenodd" fill-opacity="1" stroke="none"/>
<circle clip-path="url(#clip922)" cx="1778.45" cy="241.702" r="21.6" fill="#658e00" fill-rule="evenodd" fill-opacity="1" stroke="none"/>
<polyline clip-path="url(#clip922)" style="stroke:#ff8300; stroke-linecap:round; stroke-linejoin:round; stroke-width:8; stroke-opacity:1; fill:none" points="272.297,689.351 324.308,686.174 376.32,682.819 428.331,679.268 480.342,675.498 532.354,671.485 584.365,667.201 636.377,662.61 688.388,657.676 740.4,652.352 792.411,646.584 844.423,640.31 896.434,633.452 948.446,625.92 1000.46,617.604 1052.47,608.366 1104.48,598.042 1156.49,586.423 1208.5,573.25 1260.51,558.192 1312.53,540.829 1364.54,520.618 1416.55,496.859 1468.56,468.649 1520.57,434.839 1572.58,394.028 "/>
<polyline clip-path="url(#clip922)" style="stroke:#ff8300; stroke-linecap:round; stroke-linejoin:round; stroke-width:8; stroke-opacity:1; fill:none" stroke-dasharray="32, 20" points="804.111,643.966 928.593,627.642 1077.98,607.236 1193.3,582.75 1319.08,550.101 1420.03,517.448 1509.13,470.516 1596.98,420.178 1654.61,373.241 1695.28,322.241 1743.81,286.845 1779.17,260.981 1819.79,250.107 1901.04,243.998 2042.56,240.619 2338.66,239.926 "/>
<circle clip-path="url(#clip922)" cx="794.029" cy="636.48" r="21.6" fill="#ff8300" fill-rule="evenodd" fill-opacity="1" stroke="none"/>
<circle clip-path="url(#clip922)" cx="998.85" cy="611.248" r="21.6" fill="#ff8300" fill-rule="evenodd" fill-opacity="1" stroke="none"/>
<circle clip-path="url(#clip922)" cx="1211.09" cy="577.482" r="21.6" fill="#ff8300" fill-rule="evenodd" fill-opacity="1" stroke="none"/>
<circle clip-path="url(#clip922)" cx="1415.87" cy="519.684" r="21.6" fill="#ff8300" fill-rule="evenodd" fill-opacity="1" stroke="none"/>
<circle clip-path="url(#clip922)" cx="1572.43" cy="448.273" r="21.6" fill="#ff8300" fill-rule="evenodd" fill-opacity="1" stroke="none"/>
<circle clip-path="url(#clip922)" cx="1600.88" cy="428.994" r="21.6" fill="#ff8300" fill-rule="evenodd" fill-opacity="1" stroke="none"/>
<circle clip-path="url(#clip922)" cx="1623.76" cy="417.301" r="21.6" fill="#ff8300" fill-rule="evenodd" fill-opacity="1" stroke="none"/>
<circle clip-path="url(#clip922)" cx="1648.47" cy="401.497" r="21.6" fill="#ff8300" fill-rule="evenodd" fill-opacity="1" stroke="none"/>
<circle clip-path="url(#clip922)" cx="1678.79" cy="386.962" r="21.6" fill="#ff8300" fill-rule="evenodd" fill-opacity="1" stroke="none"/>
<circle clip-path="url(#clip922)" cx="1699.23" cy="359.144" r="21.6" fill="#ff8300" fill-rule="evenodd" fill-opacity="1" stroke="none"/>
<circle clip-path="url(#clip922)" cx="1727.68" cy="348.4" r="21.6" fill="#ff8300" fill-rule="evenodd" fill-opacity="1" stroke="none"/>
<circle clip-path="url(#clip922)" cx="1779.02" cy="298.153" r="21.6" fill="#ff8300" fill-rule="evenodd" fill-opacity="1" stroke="none"/>
<circle clip-path="url(#clip922)" cx="1799.41" cy="272.852" r="21.6" fill="#ff8300" fill-rule="evenodd" fill-opacity="1" stroke="none"/>
<circle clip-path="url(#clip922)" cx="1825.98" cy="248.201" r="21.6" fill="#ff8300" fill-rule="evenodd" fill-opacity="1" stroke="none"/>
<circle clip-path="url(#clip922)" cx="1855.68" cy="233.991" r="21.6" fill="#ff8300" fill-rule="evenodd" fill-opacity="1" stroke="none"/>
<polyline clip-path="url(#clip922)" style="stroke:#ff0000; stroke-linecap:round; stroke-linejoin:round; stroke-width:8; stroke-opacity:1; fill:none" points="272.297,666.141 324.308,662.265 376.32,658.18 428.331,653.867 480.342,649.301 532.354,644.458 584.365,639.306 636.377,633.812 688.388,627.938 740.4,621.638 792.411,614.863 844.423,607.552 896.434,599.639 948.446,591.044 1000.46,581.675 1052.47,571.426 1104.48,560.173 1156.49,547.773 1208.5,534.059 1260.51,518.84 1312.53,501.902 1364.54,483.009 1416.55,461.914 1468.56,438.377 1520.57,412.206 1572.58,383.313 "/>
<polyline clip-path="url(#clip922)" style="stroke:#ff0000; stroke-linecap:round; stroke-linejoin:round; stroke-width:8; stroke-opacity:1; fill:none" stroke-dasharray="32, 20" points="806.502,604.888 932.889,587.936 1035.13,572.456 1158.69,548.134 1256.68,525.281 1336.19,501.691 1428.51,470.732 1532.22,425.762 1627.35,381.533 1729.66,326.963 1806.32,284.982 1853.24,259.898 1962.57,248.114 2120.16,243.695 2340.27,239.276 "/>
<circle clip-path="url(#clip922)" cx="794.812" cy="600.352" r="21.6" fill="#ff0000" fill-rule="evenodd" fill-opacity="1" stroke="none"/>
<circle clip-path="url(#clip922)" cx="1104.79" cy="555.426" r="21.6" fill="#ff0000" fill-rule="evenodd" fill-opacity="1" stroke="none"/>
<circle clip-path="url(#clip922)" cx="1312.68" cy="507.549" r="21.6" fill="#ff0000" fill-rule="evenodd" fill-opacity="1" stroke="none"/>
<circle clip-path="url(#clip922)" cx="1648.62" cy="382.3" r="21.6" fill="#ff0000" fill-rule="evenodd" fill-opacity="1" stroke="none"/>
<circle clip-path="url(#clip922)" cx="1752.54" cy="320.768" r="21.6" fill="#ff0000" fill-rule="evenodd" fill-opacity="1" stroke="none"/>
<circle clip-path="url(#clip922)" cx="1830.46" cy="272.852" r="21.6" fill="#ff0000" fill-rule="evenodd" fill-opacity="1" stroke="none"/>
<circle clip-path="url(#clip922)" cx="1904.62" cy="229.182" r="21.6" fill="#ff0000" fill-rule="evenodd" fill-opacity="1" stroke="none"/>
</svg>
