<?xml version="1.0" encoding="utf-8"?>
<svg xmlns="http://www.w3.org/2000/svg" xmlns:xlink="http://www.w3.org/1999/xlink" width="600" height="400" viewBox="0 0 2400 1600">
<defs>
  <clipPath id="clip830">
    <rect x="0" y="0" width="2400" height="1600"/>
  </clipPath>
</defs>
<path clip-path="url(#clip830)" d="M0 1600 L2400 1600 L2400 8.88178e-14 L0 8.88178e-14  Z" fill="#ffffff" fill-rule="evenodd" fill-opacity="1"/>
<defs>
  <clipPath id="clip831">
    <rect x="480" y="0" width="1681" height="1600"/>
  </clipPath>
</defs>
<path clip-path="url(#clip830)" d="M247.459 1423.18 L2352.76 1423.18 L2352.76 47.2441 L247.459 47.2441  Z" fill="#ffffff" fill-rule="evenodd" fill-opacity="1"/>
<defs>
  <clipPath id="clip832">
    <rect x="247" y="47" width="2106" height="1377"/>
  </clipPath>
</defs>
<polyline clip-path="url(#clip832)" style="stroke:#000000; stroke-linecap:round; stroke-linejoin:round; stroke-width:2; stroke-opacity:0.1; fill:none" points="307.043,1423.18 307.043,47.2441 "/>
<polyline clip-path="url(#clip832)" style="stroke:#000000; stroke-linecap:round; stroke-linejoin:round; stroke-width:2; stroke-opacity:0.1; fill:none" points="606.349,1423.18 606.349,47.2441 "/>
<polyline clip-path="url(#clip832)" style="stroke:#000000; stroke-linecap:round; stroke-linejoin:round; stroke-width:2; stroke-opacity:0.1; fill:none" points="905.655,1423.18 905.655,47.2441 "/>
<polyline clip-path="url(#clip832)" style="stroke:#000000; stroke-linecap:round; stroke-linejoin:round; stroke-width:2; stroke-opacity:0.1; fill:none" points="1204.96,1423.18 1204.96,47.2441 "/>
<polyline clip-path="url(#clip832)" style="stroke:#000000; stroke-linecap:round; stroke-linejoin:round; stroke-width:2; stroke-opacity:0.1; fill:none" points="1504.27,1423.18 1504.27,47.2441 "/>
<polyline clip-path="url(#clip832)" style="stroke:#000000; stroke-linecap:round; stroke-linejoin:round; stroke-width:2; stroke-opacity:0.1; fill:none" points="1803.57,1423.18 1803.57,47.2441 "/>
<polyline clip-path="url(#clip832)" style="stroke:#000000; stroke-linecap:round; stroke-linejoin:round; stroke-width:2; stroke-opacity:0.1; fill:none" points="2102.88,1423.18 2102.88,47.2441 "/>
<polyline clip-path="url(#clip830)" style="stroke:#000000; stroke-linecap:round; stroke-linejoin:round; stroke-width:4; stroke-opacity:1; fill:none" points="247.459,1423.18 2352.76,1423.18 "/>
<polyline clip-path="url(#clip830)" style="stroke:#000000; stroke-linecap:round; stroke-linejoin:round; stroke-width:4; stroke-opacity:1; fill:none" points="307.043,1423.18 307.043,1404.28 "/>
<polyline clip-path="url(#clip830)" style="stroke:#000000; stroke-linecap:round; stroke-linejoin:round; stroke-width:4; stroke-opacity:1; fill:none" points="606.349,1423.18 606.349,1404.28 "/>
<polyline clip-path="url(#clip830)" style="stroke:#000000; stroke-linecap:round; stroke-linejoin:round; stroke-width:4; stroke-opacity:1; fill:none" points="905.655,1423.18 905.655,1404.28 "/>
<polyline clip-path="url(#clip830)" style="stroke:#000000; stroke-linecap:round; stroke-linejoin:round; stroke-width:4; stroke-opacity:1; fill:none" points="1204.96,1423.18 1204.96,1404.28 "/>
<polyline clip-path="url(#clip830)" style="stroke:#000000; stroke-linecap:round; stroke-linejoin:round; stroke-width:4; stroke-opacity:1; fill:none" points="1504.27,1423.18 1504.27,1404.28 "/>
<polyline clip-path="url(#clip830)" style="stroke:#000000; stroke-linecap:round; stroke-linejoin:round; stroke-width:4; stroke-opacity:1; fill:none" points="1803.57,1423.18 1803.57,1404.28 "/>
<polyline clip-path="url(#clip830)" style="stroke:#000000; stroke-linecap:round; stroke-linejoin:round; stroke-width:4; stroke-opacity:1; fill:none" points="2102.88,1423.18 2102.88,1404.28 "/>
<path clip-path="url(#clip830)" d="M254.265 1454.1 Q250.654 1454.1 248.825 1457.66 Q247.02 1461.2 247.02 1468.33 Q247.02 1475.44 248.825 1479.01 Q250.654 1482.55 254.265 1482.55 Q257.899 1482.55 259.705 1479.01 Q261.534 1475.44 261.534 1468.33 Q261.534 1461.2 259.705 1457.66 Q257.899 1454.1 254.265 1454.1 M254.265 1450.39 Q260.075 1450.39 263.131 1455 Q266.209 1459.58 266.209 1468.33 Q266.209 1477.06 263.131 1481.67 Q260.075 1486.25 254.265 1486.25 Q248.455 1486.25 245.376 1481.67 Q242.321 1477.06 242.321 1468.33 Q242.321 1459.58 245.376 1455 Q248.455 1450.39 254.265 1450.39 Z" fill="#000000" fill-rule="nonzero" fill-opacity="1" /><path clip-path="url(#clip830)" d="M274.427 1479.7 L279.311 1479.7 L279.311 1485.58 L274.427 1485.58 L274.427 1479.7 Z" fill="#000000" fill-rule="nonzero" fill-opacity="1" /><path clip-path="url(#clip830)" d="M299.496 1454.1 Q295.885 1454.1 294.057 1457.66 Q292.251 1461.2 292.251 1468.33 Q292.251 1475.44 294.057 1479.01 Q295.885 1482.55 299.496 1482.55 Q303.131 1482.55 304.936 1479.01 Q306.765 1475.44 306.765 1468.33 Q306.765 1461.2 304.936 1457.66 Q303.131 1454.1 299.496 1454.1 M299.496 1450.39 Q305.306 1450.39 308.362 1455 Q311.441 1459.58 311.441 1468.33 Q311.441 1477.06 308.362 1481.67 Q305.306 1486.25 299.496 1486.25 Q293.686 1486.25 290.607 1481.67 Q287.552 1477.06 287.552 1468.33 Q287.552 1459.58 290.607 1455 Q293.686 1450.39 299.496 1450.39 Z" fill="#000000" fill-rule="nonzero" fill-opacity="1" /><path clip-path="url(#clip830)" d="M329.658 1454.1 Q326.047 1454.1 324.218 1457.66 Q322.413 1461.2 322.413 1468.33 Q322.413 1475.44 324.218 1479.01 Q326.047 1482.55 329.658 1482.55 Q333.292 1482.55 335.098 1479.01 Q336.927 1475.44 336.927 1468.33 Q336.927 1461.2 335.098 1457.66 Q333.292 1454.1 329.658 1454.1 M329.658 1450.39 Q335.468 1450.39 338.524 1455 Q341.603 1459.58 341.603 1468.33 Q341.603 1477.06 338.524 1481.67 Q335.468 1486.25 329.658 1486.25 Q323.848 1486.25 320.769 1481.67 Q317.714 1477.06 317.714 1468.33 Q317.714 1459.58 320.769 1455 Q323.848 1450.39 329.658 1450.39 Z" fill="#000000" fill-rule="nonzero" fill-opacity="1" /><path clip-path="url(#clip830)" d="M359.82 1454.1 Q356.209 1454.1 354.38 1457.66 Q352.575 1461.2 352.575 1468.33 Q352.575 1475.44 354.38 1479.01 Q356.209 1482.55 359.82 1482.55 Q363.454 1482.55 365.26 1479.01 Q367.089 1475.44 367.089 1468.33 Q367.089 1461.2 365.26 1457.66 Q363.454 1454.1 359.82 1454.1 M359.82 1450.39 Q365.63 1450.39 368.686 1455 Q371.764 1459.58 371.764 1468.33 Q371.764 1477.06 368.686 1481.67 Q365.63 1486.25 359.82 1486.25 Q354.01 1486.25 350.931 1481.67 Q347.876 1477.06 347.876 1468.33 Q347.876 1459.58 350.931 1455 Q354.01 1450.39 359.82 1450.39 Z" fill="#000000" fill-rule="nonzero" fill-opacity="1" /><path clip-path="url(#clip830)" d="M554.37 1454.1 Q550.759 1454.1 548.93 1457.66 Q547.125 1461.2 547.125 1468.33 Q547.125 1475.44 548.93 1479.01 Q550.759 1482.55 554.37 1482.55 Q558.004 1482.55 559.81 1479.01 Q561.638 1475.44 561.638 1468.33 Q561.638 1461.2 559.81 1457.66 Q558.004 1454.1 554.37 1454.1 M554.37 1450.39 Q560.18 1450.39 563.236 1455 Q566.314 1459.58 566.314 1468.33 Q566.314 1477.06 563.236 1481.67 Q560.18 1486.25 554.37 1486.25 Q548.56 1486.25 545.481 1481.67 Q542.426 1477.06 542.426 1468.33 Q542.426 1459.58 545.481 1455 Q548.56 1450.39 554.37 1450.39 Z" fill="#000000" fill-rule="nonzero" fill-opacity="1" /><path clip-path="url(#clip830)" d="M574.532 1479.7 L579.416 1479.7 L579.416 1485.58 L574.532 1485.58 L574.532 1479.7 Z" fill="#000000" fill-rule="nonzero" fill-opacity="1" /><path clip-path="url(#clip830)" d="M599.601 1454.1 Q595.99 1454.1 594.161 1457.66 Q592.356 1461.2 592.356 1468.33 Q592.356 1475.44 594.161 1479.01 Q595.99 1482.55 599.601 1482.55 Q603.235 1482.55 605.041 1479.01 Q606.87 1475.44 606.87 1468.33 Q606.87 1461.2 605.041 1457.66 Q603.235 1454.1 599.601 1454.1 M599.601 1450.39 Q605.411 1450.39 608.467 1455 Q611.546 1459.58 611.546 1468.33 Q611.546 1477.06 608.467 1481.67 Q605.411 1486.25 599.601 1486.25 Q593.791 1486.25 590.712 1481.67 Q587.657 1477.06 587.657 1468.33 Q587.657 1459.58 590.712 1455 Q593.791 1450.39 599.601 1450.39 Z" fill="#000000" fill-rule="nonzero" fill-opacity="1" /><path clip-path="url(#clip830)" d="M629.763 1454.1 Q626.152 1454.1 624.323 1457.66 Q622.518 1461.2 622.518 1468.33 Q622.518 1475.44 624.323 1479.01 Q626.152 1482.55 629.763 1482.55 Q633.397 1482.55 635.203 1479.01 Q637.032 1475.44 637.032 1468.33 Q637.032 1461.2 635.203 1457.66 Q633.397 1454.1 629.763 1454.1 M629.763 1450.39 Q635.573 1450.39 638.629 1455 Q641.707 1459.58 641.707 1468.33 Q641.707 1477.06 638.629 1481.67 Q635.573 1486.25 629.763 1486.25 Q623.953 1486.25 620.874 1481.67 Q617.819 1477.06 617.819 1468.33 Q617.819 1459.58 620.874 1455 Q623.953 1450.39 629.763 1450.39 Z" fill="#000000" fill-rule="nonzero" fill-opacity="1" /><path clip-path="url(#clip830)" d="M653.953 1481.64 L670.272 1481.64 L670.272 1485.58 L648.328 1485.58 L648.328 1481.64 Q650.99 1478.89 655.573 1474.26 Q660.18 1469.61 661.36 1468.27 Q663.605 1465.74 664.485 1464.01 Q665.388 1462.25 665.388 1460.56 Q665.388 1457.8 663.443 1456.07 Q661.522 1454.33 658.42 1454.33 Q656.221 1454.33 653.768 1455.09 Q651.337 1455.86 648.559 1457.41 L648.559 1452.69 Q651.383 1451.55 653.837 1450.97 Q656.291 1450.39 658.328 1450.39 Q663.698 1450.39 666.892 1453.08 Q670.087 1455.77 670.087 1460.26 Q670.087 1462.39 669.277 1464.31 Q668.49 1466.2 666.383 1468.8 Q665.805 1469.47 662.703 1472.69 Q659.601 1475.88 653.953 1481.64 Z" fill="#000000" fill-rule="nonzero" fill-opacity="1" /><path clip-path="url(#clip830)" d="M852.635 1454.1 Q849.023 1454.1 847.195 1457.66 Q845.389 1461.2 845.389 1468.33 Q845.389 1475.44 847.195 1479.01 Q849.023 1482.55 852.635 1482.55 Q856.269 1482.55 858.074 1479.01 Q859.903 1475.44 859.903 1468.33 Q859.903 1461.2 858.074 1457.66 Q856.269 1454.1 852.635 1454.1 M852.635 1450.39 Q858.445 1450.39 861.5 1455 Q864.579 1459.58 864.579 1468.33 Q864.579 1477.06 861.5 1481.67 Q858.445 1486.25 852.635 1486.25 Q846.824 1486.25 843.746 1481.67 Q840.69 1477.06 840.69 1468.33 Q840.69 1459.58 843.746 1455 Q846.824 1450.39 852.635 1450.39 Z" fill="#000000" fill-rule="nonzero" fill-opacity="1" /><path clip-path="url(#clip830)" d="M872.796 1479.7 L877.681 1479.7 L877.681 1485.58 L872.796 1485.58 L872.796 1479.7 Z" fill="#000000" fill-rule="nonzero" fill-opacity="1" /><path clip-path="url(#clip830)" d="M897.866 1454.1 Q894.255 1454.1 892.426 1457.66 Q890.62 1461.2 890.62 1468.33 Q890.62 1475.44 892.426 1479.01 Q894.255 1482.55 897.866 1482.55 Q901.5 1482.55 903.306 1479.01 Q905.134 1475.44 905.134 1468.33 Q905.134 1461.2 903.306 1457.66 Q901.5 1454.1 897.866 1454.1 M897.866 1450.39 Q903.676 1450.39 906.731 1455 Q909.81 1459.58 909.81 1468.33 Q909.81 1477.06 906.731 1481.67 Q903.676 1486.25 897.866 1486.25 Q892.056 1486.25 888.977 1481.67 Q885.921 1477.06 885.921 1468.33 Q885.921 1459.58 888.977 1455 Q892.056 1450.39 897.866 1450.39 Z" fill="#000000" fill-rule="nonzero" fill-opacity="1" /><path clip-path="url(#clip830)" d="M928.028 1454.1 Q924.417 1454.1 922.588 1457.66 Q920.782 1461.2 920.782 1468.33 Q920.782 1475.44 922.588 1479.01 Q924.417 1482.55 928.028 1482.55 Q931.662 1482.55 933.467 1479.01 Q935.296 1475.44 935.296 1468.33 Q935.296 1461.2 933.467 1457.66 Q931.662 1454.1 928.028 1454.1 M928.028 1450.39 Q933.838 1450.39 936.893 1455 Q939.972 1459.58 939.972 1468.33 Q939.972 1477.06 936.893 1481.67 Q933.838 1486.25 928.028 1486.25 Q922.217 1486.25 919.139 1481.67 Q916.083 1477.06 916.083 1468.33 Q916.083 1459.58 919.139 1455 Q922.217 1450.39 928.028 1450.39 Z" fill="#000000" fill-rule="nonzero" fill-opacity="1" /><path clip-path="url(#clip830)" d="M961.037 1455.09 L949.231 1473.54 L961.037 1473.54 L961.037 1455.09 M959.81 1451.02 L965.689 1451.02 L965.689 1473.54 L970.62 1473.54 L970.62 1477.43 L965.689 1477.43 L965.689 1485.58 L961.037 1485.58 L961.037 1477.43 L945.435 1477.43 L945.435 1472.92 L959.81 1451.02 Z" fill="#000000" fill-rule="nonzero" fill-opacity="1" /><path clip-path="url(#clip830)" d="M1152.1 1454.1 Q1148.49 1454.1 1146.66 1457.66 Q1144.86 1461.2 1144.86 1468.33 Q1144.86 1475.44 1146.66 1479.01 Q1148.49 1482.55 1152.1 1482.55 Q1155.74 1482.55 1157.54 1479.01 Q1159.37 1475.44 1159.37 1468.33 Q1159.37 1461.2 1157.54 1457.66 Q1155.74 1454.1 1152.1 1454.1 M1152.1 1450.39 Q1157.91 1450.39 1160.97 1455 Q1164.05 1459.58 1164.05 1468.33 Q1164.05 1477.06 1160.97 1481.67 Q1157.91 1486.25 1152.1 1486.25 Q1146.29 1486.25 1143.21 1481.67 Q1140.16 1477.06 1140.16 1468.33 Q1140.16 1459.58 1143.21 1455 Q1146.29 1450.39 1152.1 1450.39 Z" fill="#000000" fill-rule="nonzero" fill-opacity="1" /><path clip-path="url(#clip830)" d="M1172.26 1479.7 L1177.15 1479.7 L1177.15 1485.58 L1172.26 1485.58 L1172.26 1479.7 Z" fill="#000000" fill-rule="nonzero" fill-opacity="1" /><path clip-path="url(#clip830)" d="M1197.33 1454.1 Q1193.72 1454.1 1191.89 1457.66 Q1190.09 1461.2 1190.09 1468.33 Q1190.09 1475.44 1191.89 1479.01 Q1193.72 1482.55 1197.33 1482.55 Q1200.97 1482.55 1202.77 1479.01 Q1204.6 1475.44 1204.6 1468.33 Q1204.6 1461.2 1202.77 1457.66 Q1200.97 1454.1 1197.33 1454.1 M1197.33 1450.39 Q1203.14 1450.39 1206.2 1455 Q1209.28 1459.58 1209.28 1468.33 Q1209.28 1477.06 1206.2 1481.67 Q1203.14 1486.25 1197.33 1486.25 Q1191.52 1486.25 1188.45 1481.67 Q1185.39 1477.06 1185.39 1468.33 Q1185.39 1459.58 1188.45 1455 Q1191.52 1450.39 1197.33 1450.39 Z" fill="#000000" fill-rule="nonzero" fill-opacity="1" /><path clip-path="url(#clip830)" d="M1227.5 1454.1 Q1223.88 1454.1 1222.06 1457.66 Q1220.25 1461.2 1220.25 1468.33 Q1220.25 1475.44 1222.06 1479.01 Q1223.88 1482.55 1227.5 1482.55 Q1231.13 1482.55 1232.94 1479.01 Q1234.76 1475.44 1234.76 1468.33 Q1234.76 1461.2 1232.94 1457.66 Q1231.13 1454.1 1227.5 1454.1 M1227.5 1450.39 Q1233.31 1450.39 1236.36 1455 Q1239.44 1459.58 1239.44 1468.33 Q1239.44 1477.06 1236.36 1481.67 Q1233.31 1486.25 1227.5 1486.25 Q1221.69 1486.25 1218.61 1481.67 Q1215.55 1477.06 1215.55 1468.33 Q1215.55 1459.58 1218.61 1455 Q1221.69 1450.39 1227.5 1450.39 Z" fill="#000000" fill-rule="nonzero" fill-opacity="1" /><path clip-path="url(#clip830)" d="M1258.24 1466.44 Q1255.09 1466.44 1253.24 1468.59 Q1251.41 1470.74 1251.41 1474.49 Q1251.41 1478.22 1253.24 1480.39 Q1255.09 1482.55 1258.24 1482.55 Q1261.38 1482.55 1263.21 1480.39 Q1265.07 1478.22 1265.07 1474.49 Q1265.07 1470.74 1263.21 1468.59 Q1261.38 1466.44 1258.24 1466.44 M1267.52 1451.78 L1267.52 1456.04 Q1265.76 1455.21 1263.95 1454.77 Q1262.17 1454.33 1260.41 1454.33 Q1255.78 1454.33 1253.33 1457.45 Q1250.9 1460.58 1250.55 1466.9 Q1251.92 1464.89 1253.98 1463.82 Q1256.04 1462.73 1258.51 1462.73 Q1263.72 1462.73 1266.73 1465.9 Q1269.76 1469.05 1269.76 1474.49 Q1269.76 1479.82 1266.62 1483.03 Q1263.47 1486.25 1258.24 1486.25 Q1252.24 1486.25 1249.07 1481.67 Q1245.9 1477.06 1245.9 1468.33 Q1245.9 1460.14 1249.79 1455.28 Q1253.68 1450.39 1260.23 1450.39 Q1261.99 1450.39 1263.77 1450.74 Q1265.57 1451.09 1267.52 1451.78 Z" fill="#000000" fill-rule="nonzero" fill-opacity="1" /><path clip-path="url(#clip830)" d="M1451.54 1454.1 Q1447.93 1454.1 1446.1 1457.66 Q1444.29 1461.2 1444.29 1468.33 Q1444.29 1475.44 1446.1 1479.01 Q1447.93 1482.55 1451.54 1482.55 Q1455.17 1482.55 1456.98 1479.01 Q1458.8 1475.44 1458.8 1468.33 Q1458.8 1461.2 1456.98 1457.66 Q1455.17 1454.1 1451.54 1454.1 M1451.54 1450.39 Q1457.35 1450.39 1460.4 1455 Q1463.48 1459.58 1463.48 1468.33 Q1463.48 1477.06 1460.4 1481.67 Q1457.35 1486.25 1451.54 1486.25 Q1445.73 1486.25 1442.65 1481.67 Q1439.59 1477.06 1439.59 1468.33 Q1439.59 1459.58 1442.65 1455 Q1445.73 1450.39 1451.54 1450.39 Z" fill="#000000" fill-rule="nonzero" fill-opacity="1" /><path clip-path="url(#clip830)" d="M1471.7 1479.7 L1476.58 1479.7 L1476.58 1485.58 L1471.7 1485.58 L1471.7 1479.7 Z" fill="#000000" fill-rule="nonzero" fill-opacity="1" /><path clip-path="url(#clip830)" d="M1496.77 1454.1 Q1493.16 1454.1 1491.33 1457.66 Q1489.52 1461.2 1489.52 1468.33 Q1489.52 1475.44 1491.33 1479.01 Q1493.16 1482.55 1496.77 1482.55 Q1500.4 1482.55 1502.21 1479.01 Q1504.04 1475.44 1504.04 1468.33 Q1504.04 1461.2 1502.21 1457.66 Q1500.4 1454.1 1496.77 1454.1 M1496.77 1450.39 Q1502.58 1450.39 1505.63 1455 Q1508.71 1459.58 1508.71 1468.33 Q1508.71 1477.06 1505.63 1481.67 Q1502.58 1486.25 1496.77 1486.25 Q1490.96 1486.25 1487.88 1481.67 Q1484.82 1477.06 1484.82 1468.33 Q1484.82 1459.58 1487.88 1455 Q1490.96 1450.39 1496.77 1450.39 Z" fill="#000000" fill-rule="nonzero" fill-opacity="1" /><path clip-path="url(#clip830)" d="M1526.93 1454.1 Q1523.32 1454.1 1521.49 1457.66 Q1519.68 1461.2 1519.68 1468.33 Q1519.68 1475.44 1521.49 1479.01 Q1523.32 1482.55 1526.93 1482.55 Q1530.56 1482.55 1532.37 1479.01 Q1534.2 1475.44 1534.2 1468.33 Q1534.2 1461.2 1532.37 1457.66 Q1530.56 1454.1 1526.93 1454.1 M1526.93 1450.39 Q1532.74 1450.39 1535.8 1455 Q1538.87 1459.58 1538.87 1468.33 Q1538.87 1477.06 1535.8 1481.67 Q1532.74 1486.25 1526.93 1486.25 Q1521.12 1486.25 1518.04 1481.67 Q1514.99 1477.06 1514.99 1468.33 Q1514.99 1459.58 1518.04 1455 Q1521.12 1450.39 1526.93 1450.39 Z" fill="#000000" fill-rule="nonzero" fill-opacity="1" /><path clip-path="url(#clip830)" d="M1557.09 1469.17 Q1553.76 1469.17 1551.84 1470.95 Q1549.94 1472.73 1549.94 1475.86 Q1549.94 1478.98 1551.84 1480.77 Q1553.76 1482.55 1557.09 1482.55 Q1560.42 1482.55 1562.35 1480.77 Q1564.27 1478.96 1564.27 1475.86 Q1564.27 1472.73 1562.35 1470.95 Q1560.45 1469.17 1557.09 1469.17 M1552.42 1467.18 Q1549.41 1466.44 1547.72 1464.38 Q1546.05 1462.32 1546.05 1459.35 Q1546.05 1455.21 1548.99 1452.8 Q1551.95 1450.39 1557.09 1450.39 Q1562.25 1450.39 1565.19 1452.8 Q1568.13 1455.21 1568.13 1459.35 Q1568.13 1462.32 1566.44 1464.38 Q1564.78 1466.44 1561.79 1467.18 Q1565.17 1467.96 1567.05 1470.26 Q1568.94 1472.55 1568.94 1475.86 Q1568.94 1480.88 1565.86 1483.57 Q1562.81 1486.25 1557.09 1486.25 Q1551.37 1486.25 1548.3 1483.57 Q1545.24 1480.88 1545.24 1475.86 Q1545.24 1472.55 1547.14 1470.26 Q1549.04 1467.96 1552.42 1467.18 M1550.7 1459.79 Q1550.7 1462.48 1552.37 1463.98 Q1554.06 1465.49 1557.09 1465.49 Q1560.1 1465.49 1561.79 1463.98 Q1563.5 1462.48 1563.5 1459.79 Q1563.5 1457.11 1561.79 1455.6 Q1560.1 1454.1 1557.09 1454.1 Q1554.06 1454.1 1552.37 1455.6 Q1550.7 1457.11 1550.7 1459.79 Z" fill="#000000" fill-rule="nonzero" fill-opacity="1" /><path clip-path="url(#clip830)" d="M1750.8 1454.1 Q1747.19 1454.1 1745.36 1457.66 Q1743.55 1461.2 1743.55 1468.33 Q1743.55 1475.44 1745.36 1479.01 Q1747.19 1482.55 1750.8 1482.55 Q1754.43 1482.55 1756.24 1479.01 Q1758.06 1475.44 1758.06 1468.33 Q1758.06 1461.2 1756.24 1457.66 Q1754.43 1454.1 1750.8 1454.1 M1750.8 1450.39 Q1756.61 1450.39 1759.66 1455 Q1762.74 1459.58 1762.74 1468.33 Q1762.74 1477.06 1759.66 1481.67 Q1756.61 1486.25 1750.8 1486.25 Q1744.99 1486.25 1741.91 1481.67 Q1738.85 1477.06 1738.85 1468.33 Q1738.85 1459.58 1741.91 1455 Q1744.99 1450.39 1750.8 1450.39 Z" fill="#000000" fill-rule="nonzero" fill-opacity="1" /><path clip-path="url(#clip830)" d="M1770.96 1479.7 L1775.84 1479.7 L1775.84 1485.58 L1770.96 1485.58 L1770.96 1479.7 Z" fill="#000000" fill-rule="nonzero" fill-opacity="1" /><path clip-path="url(#clip830)" d="M1796.03 1454.1 Q1792.42 1454.1 1790.59 1457.66 Q1788.78 1461.2 1788.78 1468.33 Q1788.78 1475.44 1790.59 1479.01 Q1792.42 1482.55 1796.03 1482.55 Q1799.66 1482.55 1801.47 1479.01 Q1803.3 1475.44 1803.3 1468.33 Q1803.3 1461.2 1801.47 1457.66 Q1799.66 1454.1 1796.03 1454.1 M1796.03 1450.39 Q1801.84 1450.39 1804.89 1455 Q1807.97 1459.58 1807.97 1468.33 Q1807.97 1477.06 1804.89 1481.67 Q1801.84 1486.25 1796.03 1486.25 Q1790.22 1486.25 1787.14 1481.67 Q1784.08 1477.06 1784.08 1468.33 Q1784.08 1459.58 1787.14 1455 Q1790.22 1450.39 1796.03 1450.39 Z" fill="#000000" fill-rule="nonzero" fill-opacity="1" /><path clip-path="url(#clip830)" d="M1817 1481.64 L1824.64 1481.64 L1824.64 1455.28 L1816.33 1456.95 L1816.33 1452.69 L1824.59 1451.02 L1829.27 1451.02 L1829.27 1481.64 L1836.91 1481.64 L1836.91 1485.58 L1817 1485.58 L1817 1481.64 Z" fill="#000000" fill-rule="nonzero" fill-opacity="1" /><path clip-path="url(#clip830)" d="M1856.35 1454.1 Q1852.74 1454.1 1850.91 1457.66 Q1849.11 1461.2 1849.11 1468.33 Q1849.11 1475.44 1850.91 1479.01 Q1852.74 1482.55 1856.35 1482.55 Q1859.99 1482.55 1861.79 1479.01 Q1863.62 1475.44 1863.62 1468.33 Q1863.62 1461.2 1861.79 1457.66 Q1859.99 1454.1 1856.35 1454.1 M1856.35 1450.39 Q1862.16 1450.39 1865.22 1455 Q1868.3 1459.58 1868.3 1468.33 Q1868.3 1477.06 1865.22 1481.67 Q1862.16 1486.25 1856.35 1486.25 Q1850.54 1486.25 1847.46 1481.67 Q1844.41 1477.06 1844.41 1468.33 Q1844.41 1459.58 1847.46 1455 Q1850.54 1450.39 1856.35 1450.39 Z" fill="#000000" fill-rule="nonzero" fill-opacity="1" /><path clip-path="url(#clip830)" d="M2050.9 1454.1 Q2047.29 1454.1 2045.46 1457.66 Q2043.66 1461.2 2043.66 1468.33 Q2043.66 1475.44 2045.46 1479.01 Q2047.29 1482.55 2050.9 1482.55 Q2054.54 1482.55 2056.34 1479.01 Q2058.17 1475.44 2058.17 1468.33 Q2058.17 1461.2 2056.34 1457.66 Q2054.54 1454.1 2050.9 1454.1 M2050.9 1450.39 Q2056.71 1450.39 2059.77 1455 Q2062.85 1459.58 2062.85 1468.33 Q2062.85 1477.06 2059.77 1481.67 Q2056.71 1486.25 2050.9 1486.25 Q2045.09 1486.25 2042.01 1481.67 Q2038.96 1477.06 2038.96 1468.33 Q2038.96 1459.58 2042.01 1455 Q2045.09 1450.39 2050.9 1450.39 Z" fill="#000000" fill-rule="nonzero" fill-opacity="1" /><path clip-path="url(#clip830)" d="M2071.06 1479.7 L2075.95 1479.7 L2075.95 1485.58 L2071.06 1485.58 L2071.06 1479.7 Z" fill="#000000" fill-rule="nonzero" fill-opacity="1" /><path clip-path="url(#clip830)" d="M2096.13 1454.1 Q2092.52 1454.1 2090.69 1457.66 Q2088.89 1461.2 2088.89 1468.33 Q2088.89 1475.44 2090.69 1479.01 Q2092.52 1482.55 2096.13 1482.55 Q2099.77 1482.55 2101.57 1479.01 Q2103.4 1475.44 2103.4 1468.33 Q2103.4 1461.2 2101.57 1457.66 Q2099.77 1454.1 2096.13 1454.1 M2096.13 1450.39 Q2101.94 1450.39 2105 1455 Q2108.08 1459.58 2108.08 1468.33 Q2108.08 1477.06 2105 1481.67 Q2101.94 1486.25 2096.13 1486.25 Q2090.32 1486.25 2087.24 1481.67 Q2084.19 1477.06 2084.19 1468.33 Q2084.19 1459.58 2087.24 1455 Q2090.32 1450.39 2096.13 1450.39 Z" fill="#000000" fill-rule="nonzero" fill-opacity="1" /><path clip-path="url(#clip830)" d="M2117.1 1481.64 L2124.74 1481.64 L2124.74 1455.28 L2116.43 1456.95 L2116.43 1452.69 L2124.7 1451.02 L2129.37 1451.02 L2129.37 1481.64 L2137.01 1481.64 L2137.01 1485.58 L2117.1 1485.58 L2117.1 1481.64 Z" fill="#000000" fill-rule="nonzero" fill-opacity="1" /><path clip-path="url(#clip830)" d="M2150.48 1481.64 L2166.8 1481.64 L2166.8 1485.58 L2144.86 1485.58 L2144.86 1481.64 Q2147.52 1478.89 2152.1 1474.26 Q2156.71 1469.61 2157.89 1468.27 Q2160.14 1465.74 2161.02 1464.01 Q2161.92 1462.25 2161.92 1460.56 Q2161.92 1457.8 2159.97 1456.07 Q2158.05 1454.33 2154.95 1454.33 Q2152.75 1454.33 2150.3 1455.09 Q2147.87 1455.86 2145.09 1457.41 L2145.09 1452.69 Q2147.91 1451.55 2150.37 1450.97 Q2152.82 1450.39 2154.86 1450.39 Q2160.23 1450.39 2163.42 1453.08 Q2166.62 1455.77 2166.62 1460.26 Q2166.62 1462.39 2165.81 1464.31 Q2165.02 1466.2 2162.91 1468.8 Q2162.34 1469.47 2159.23 1472.69 Q2156.13 1475.88 2150.48 1481.64 Z" fill="#000000" fill-rule="nonzero" fill-opacity="1" /><path clip-path="url(#clip830)" d="M1052.12 1506.44 L1061.7 1506.44 L1073.83 1538.78 L1086.02 1506.44 L1095.6 1506.44 L1095.6 1553.96 L1089.33 1553.96 L1089.33 1512.23 L1077.07 1544.83 L1070.61 1544.83 L1058.36 1512.23 L1058.36 1553.96 L1052.12 1553.96 L1052.12 1506.44 Z" fill="#000000" fill-rule="nonzero" fill-opacity="1" /><path clip-path="url(#clip830)" d="M1108.11 1518.31 L1113.96 1518.31 L1113.96 1553.96 L1108.11 1553.96 L1108.11 1518.31 M1108.11 1504.44 L1113.96 1504.44 L1113.96 1511.85 L1108.11 1511.85 L1108.11 1504.44 Z" fill="#000000" fill-rule="nonzero" fill-opacity="1" /><path clip-path="url(#clip830)" d="M1149.67 1523.72 L1149.67 1504.44 L1155.53 1504.44 L1155.53 1553.96 L1149.67 1553.96 L1149.67 1548.61 Q1147.83 1551.8 1145 1553.36 Q1142.19 1554.88 1138.25 1554.88 Q1131.79 1554.88 1127.71 1549.73 Q1123.67 1544.57 1123.67 1536.17 Q1123.67 1527.77 1127.71 1522.61 Q1131.79 1517.45 1138.25 1517.45 Q1142.19 1517.45 1145 1519.01 Q1147.83 1520.54 1149.67 1523.72 M1129.72 1536.17 Q1129.72 1542.63 1132.36 1546.32 Q1135.03 1549.98 1139.68 1549.98 Q1144.33 1549.98 1147 1546.32 Q1149.67 1542.63 1149.67 1536.17 Q1149.67 1529.71 1147 1526.05 Q1144.33 1522.36 1139.68 1522.36 Q1135.03 1522.36 1132.36 1526.05 Q1129.72 1529.71 1129.72 1536.17 Z" fill="#000000" fill-rule="nonzero" fill-opacity="1" /><path clip-path="url(#clip830)" d="M1173.26 1548.61 L1173.26 1567.52 L1167.37 1567.52 L1167.37 1518.31 L1173.26 1518.31 L1173.26 1523.72 Q1175.11 1520.54 1177.91 1519.01 Q1180.74 1517.45 1184.65 1517.45 Q1191.15 1517.45 1195.19 1522.61 Q1199.26 1527.77 1199.26 1536.17 Q1199.26 1544.57 1195.19 1549.73 Q1191.15 1554.88 1184.65 1554.88 Q1180.74 1554.88 1177.91 1553.36 Q1175.11 1551.8 1173.26 1548.61 M1193.18 1536.17 Q1193.18 1529.71 1190.51 1526.05 Q1187.87 1522.36 1183.22 1522.36 Q1178.57 1522.36 1175.9 1526.05 Q1173.26 1529.71 1173.26 1536.17 Q1173.26 1542.63 1175.9 1546.32 Q1178.57 1549.98 1183.22 1549.98 Q1187.87 1549.98 1190.51 1546.32 Q1193.18 1542.63 1193.18 1536.17 Z" fill="#000000" fill-rule="nonzero" fill-opacity="1" /><path clip-path="url(#clip830)" d="M1222.78 1522.42 Q1218.07 1522.42 1215.34 1526.11 Q1212.6 1529.77 1212.6 1536.17 Q1212.6 1542.57 1215.3 1546.26 Q1218.04 1549.92 1222.78 1549.92 Q1227.46 1549.92 1230.2 1546.23 Q1232.94 1542.53 1232.94 1536.17 Q1232.94 1529.83 1230.2 1526.14 Q1227.46 1522.42 1222.78 1522.42 M1222.78 1517.45 Q1230.42 1517.45 1234.78 1522.42 Q1239.14 1527.38 1239.14 1536.17 Q1239.14 1544.92 1234.78 1549.92 Q1230.42 1554.88 1222.78 1554.88 Q1215.11 1554.88 1210.75 1549.92 Q1206.42 1544.92 1206.42 1536.17 Q1206.42 1527.38 1210.75 1522.42 Q1215.11 1517.45 1222.78 1517.45 Z" fill="#000000" fill-rule="nonzero" fill-opacity="1" /><path clip-path="url(#clip830)" d="M1248.85 1518.31 L1254.71 1518.31 L1254.71 1553.96 L1248.85 1553.96 L1248.85 1518.31 M1248.85 1504.44 L1254.71 1504.44 L1254.71 1511.85 L1248.85 1511.85 L1248.85 1504.44 Z" fill="#000000" fill-rule="nonzero" fill-opacity="1" /><path clip-path="url(#clip830)" d="M1296.59 1532.44 L1296.59 1553.96 L1290.74 1553.96 L1290.74 1532.64 Q1290.74 1527.57 1288.76 1525.06 Q1286.79 1522.55 1282.84 1522.55 Q1278.1 1522.55 1275.37 1525.57 Q1272.63 1528.59 1272.63 1533.81 L1272.63 1553.96 L1266.74 1553.96 L1266.74 1518.31 L1272.63 1518.31 L1272.63 1523.85 Q1274.73 1520.64 1277.56 1519.04 Q1280.43 1517.45 1284.15 1517.45 Q1290.29 1517.45 1293.44 1521.27 Q1296.59 1525.06 1296.59 1532.44 Z" fill="#000000" fill-rule="nonzero" fill-opacity="1" /><path clip-path="url(#clip830)" d="M1314.07 1508.19 L1314.07 1518.31 L1326.13 1518.31 L1326.13 1522.86 L1314.07 1522.86 L1314.07 1542.22 Q1314.07 1546.58 1315.25 1547.82 Q1316.46 1549.06 1320.12 1549.06 L1326.13 1549.06 L1326.13 1553.96 L1320.12 1553.96 Q1313.34 1553.96 1310.76 1551.45 Q1308.18 1548.9 1308.18 1542.22 L1308.18 1522.86 L1303.88 1522.86 L1303.88 1518.31 L1308.18 1518.31 L1308.18 1508.19 L1314.07 1508.19 Z" fill="#000000" fill-rule="nonzero" fill-opacity="1" /><path clip-path="url(#clip830)" d="M1391.95 1536.54 Q1392.34 1536.92 1392.34 1537.47 Q1392.34 1538.02 1391.95 1538.41 Q1391.57 1538.79 1391.02 1538.79 L1349.73 1538.79 Q1349.18 1538.79 1348.8 1538.41 Q1348.41 1538.02 1348.41 1537.47 Q1348.41 1536.92 1348.8 1536.54 Q1349.18 1536.15 1349.73 1536.15 L1391.02 1536.15 Q1391.57 1536.15 1391.95 1536.54 Z" fill="#000000" fill-rule="nonzero" fill-opacity="1" /><path clip-path="url(#clip830)" d="M1433.14 1544.52 Q1432.3 1548.68 1431.17 1551.06 Q1429.34 1554.7 1426.28 1554.7 Q1424.15 1554.7 1422.54 1553.51 Q1420.96 1552.29 1420.42 1550.26 Q1419.81 1551.06 1419.26 1551.61 Q1418.74 1552.16 1417.74 1552.99 Q1416.75 1553.8 1415.39 1554.25 Q1414.07 1554.7 1412.56 1554.7 Q1411.4 1554.7 1410.34 1554.48 Q1409.27 1554.28 1408.15 1553.74 Q1407.05 1553.16 1406.25 1552.29 Q1405.47 1551.42 1404.96 1550 Q1404.44 1548.58 1404.44 1546.78 Q1404.44 1544.52 1405.31 1541.46 Q1406.21 1538.41 1408.28 1532.93 Q1409.4 1530.03 1409.4 1528.42 Q1409.4 1527.68 1409.24 1527.2 Q1409.08 1526.71 1408.76 1526.55 Q1408.47 1526.36 1408.28 1526.33 Q1408.08 1526.26 1407.76 1526.26 Q1405.76 1526.26 1404.02 1528.29 Q1402.29 1530.32 1401.09 1534.44 Q1400.84 1535.25 1400.68 1535.44 Q1400.51 1535.64 1400.03 1535.64 Q1399.23 1535.6 1399.23 1534.96 Q1399.23 1534.7 1399.52 1533.7 Q1399.81 1532.67 1400.48 1531.16 Q1401.19 1529.61 1402.16 1528.23 Q1403.12 1526.81 1404.64 1525.81 Q1406.18 1524.81 1407.95 1524.81 Q1410.37 1524.81 1411.85 1526.39 Q1413.36 1527.94 1413.36 1530.23 Q1413.36 1531.64 1412.24 1534.38 Q1408.66 1543.88 1408.66 1547.84 Q1408.66 1553.22 1412.75 1553.22 Q1414.1 1553.22 1415.36 1552.67 Q1416.65 1552.13 1417.49 1551.35 Q1418.32 1550.58 1418.97 1549.74 Q1419.64 1548.9 1419.93 1548.36 Q1420.26 1547.81 1420.29 1547.68 L1425.22 1527.84 Q1425.41 1527.07 1425.76 1526.55 Q1426.15 1526.01 1426.6 1525.81 Q1427.05 1525.62 1427.31 1525.59 Q1427.57 1525.52 1427.79 1525.52 Q1428.6 1525.52 1429.15 1526.01 Q1429.72 1526.49 1429.72 1527.33 Q1429.72 1527.49 1429.53 1528.26 Q1429.37 1529 1429.11 1530.1 Q1428.86 1531.16 1428.73 1531.74 Q1427.7 1535.8 1427.6 1536.22 L1425.76 1543.33 Q1425.67 1543.75 1425.34 1545.1 Q1425.05 1546.46 1424.89 1547.17 Q1424.73 1547.84 1424.57 1548.78 Q1424.44 1549.68 1424.44 1550.19 Q1424.44 1551.8 1424.93 1552.51 Q1425.41 1553.22 1426.47 1553.22 Q1427.47 1553.22 1428.24 1552.54 Q1429.05 1551.84 1429.66 1550.48 Q1430.27 1549.1 1430.63 1547.97 Q1430.98 1546.84 1431.43 1545.07 Q1431.59 1544.3 1431.72 1544.11 Q1431.88 1543.88 1432.33 1543.88 Q1433.14 1543.88 1433.14 1544.52 Z" fill="#000000" fill-rule="nonzero" fill-opacity="1" /><path clip-path="url(#clip830)" d="M1439.84 1566.75 Q1439.84 1565.37 1440.63 1564.72 Q1441.42 1564.07 1442.44 1564.07 Q1443.5 1564.07 1444.24 1564.77 Q1445.01 1565.44 1445.01 1566.64 Q1445.01 1567.92 1444.1 1568.64 Q1443.23 1569.36 1441.96 1569.18 Q1443.07 1571.03 1445.1 1571.87 Q1447.15 1572.7 1449.04 1572.7 Q1451.03 1572.7 1452.63 1570.99 Q1454.25 1569.27 1454.25 1565.08 Q1454.25 1561.52 1452.85 1559.47 Q1451.48 1557.42 1448.75 1557.42 L1446.72 1557.42 Q1446.02 1557.42 1445.82 1557.35 Q1445.62 1557.28 1445.62 1556.9 Q1445.62 1556.45 1446.31 1556.36 Q1447.01 1556.36 1448.12 1556.22 Q1450.8 1556.13 1452.22 1553.81 Q1453.51 1551.64 1453.51 1548.56 Q1453.51 1545.74 1452.15 1544.57 Q1450.82 1543.37 1449.09 1543.37 Q1447.46 1543.37 1445.68 1544.05 Q1443.9 1544.72 1442.93 1546.23 Q1445.8 1546.23 1445.8 1548.56 Q1445.8 1549.57 1445.14 1550.25 Q1444.51 1550.9 1443.45 1550.9 Q1442.44 1550.9 1441.76 1550.27 Q1441.08 1549.62 1441.08 1548.51 Q1441.08 1545.87 1443.43 1544.05 Q1445.8 1542.22 1449.27 1542.22 Q1452.69 1542.22 1455.22 1544.03 Q1457.77 1545.83 1457.77 1548.6 Q1457.77 1551.33 1455.96 1553.56 Q1454.16 1555.79 1451.3 1556.72 Q1454.81 1557.42 1456.91 1559.81 Q1459.01 1562.17 1459.01 1565.08 Q1459.01 1568.69 1456.17 1571.35 Q1453.33 1573.99 1449.18 1573.99 Q1445.34 1573.99 1442.59 1571.91 Q1439.84 1569.84 1439.84 1566.75 Z" fill="#000000" fill-rule="nonzero" fill-opacity="1" /><path clip-path="url(#clip830)" d="M1465.86 1569.52 Q1465.86 1569.19 1466.12 1568.49 L1489.4 1506.26 Q1489.4 1506.2 1489.56 1505.85 Q1489.73 1505.49 1489.82 1505.27 Q1489.92 1505.01 1490.11 1504.81 Q1490.34 1504.62 1490.59 1504.62 Q1491.24 1504.62 1491.24 1505.43 Q1491.24 1505.49 1491.05 1506.26 L1467.7 1568.55 Q1467.31 1569.68 1467.05 1570 Q1466.83 1570.32 1466.44 1570.32 Q1465.86 1570.32 1465.86 1569.52 Z" fill="#000000" fill-rule="nonzero" fill-opacity="1" /><path clip-path="url(#clip830)" d="M1538.43 1517.47 Q1538.43 1516.41 1538.14 1515.54 Q1537.88 1514.64 1537.46 1514.03 Q1537.08 1513.38 1536.33 1512.9 Q1535.59 1512.38 1534.98 1512.06 Q1534.37 1511.74 1533.34 1511.55 Q1532.31 1511.32 1531.63 1511.22 Q1530.96 1511.09 1529.8 1511.03 Q1528.64 1510.97 1528.06 1510.97 Q1527.51 1510.97 1526.41 1510.97 Q1522.97 1510.97 1522.39 1511.03 Q1521.52 1511.16 1521.2 1511.67 Q1520.88 1512.16 1520.55 1513.48 L1516.27 1530.68 L1523.65 1530.68 Q1527.67 1530.68 1530.44 1529.55 Q1533.21 1528.42 1534.79 1526.84 Q1536.53 1525.1 1537.46 1522.3 Q1538.43 1519.5 1538.43 1517.47 M1545.61 1547.84 Q1545.61 1548.2 1545.32 1549 Q1545.06 1549.81 1544.42 1550.93 Q1543.77 1552.03 1542.9 1553.03 Q1542.03 1554.03 1540.65 1554.7 Q1539.27 1555.41 1537.69 1555.41 Q1537.3 1555.41 1536.91 1555.38 Q1536.53 1555.38 1535.56 1555.22 Q1534.63 1555.09 1533.85 1554.83 Q1533.08 1554.6 1532.12 1554.06 Q1531.15 1553.54 1530.47 1552.83 Q1529.83 1552.09 1529.38 1550.93 Q1528.93 1549.74 1528.93 1548.29 Q1528.93 1547 1529.99 1542.69 Q1530.92 1539.02 1530.92 1538.12 Q1530.92 1537.12 1530.6 1536.18 Q1530.31 1535.25 1529.57 1534.28 Q1528.86 1533.32 1527.35 1532.74 Q1525.84 1532.13 1523.71 1532.13 L1515.88 1532.13 L1511.5 1549.61 Q1511.5 1549.65 1511.41 1550.1 Q1511.31 1550.51 1511.31 1550.74 Q1511.31 1551.16 1511.57 1551.42 Q1511.86 1551.67 1512.57 1551.8 Q1513.27 1551.9 1513.82 1551.93 Q1514.4 1551.93 1515.59 1551.93 Q1517.08 1551.93 1517.33 1552.19 Q1517.46 1552.35 1517.46 1552.64 Q1517.46 1553.09 1517.33 1553.41 Q1517.24 1553.7 1516.98 1553.8 Q1516.75 1553.9 1516.59 1553.93 Q1516.43 1553.96 1516.14 1553.96 L1507.77 1553.77 L1499.46 1553.96 Q1498.52 1553.96 1498.52 1553.22 Q1498.52 1552.58 1498.75 1552.32 Q1498.98 1552.03 1499.27 1552 Q1499.56 1551.93 1500.3 1551.93 Q1501.91 1551.93 1502.87 1551.84 Q1503.84 1551.74 1504.45 1551.61 Q1505.09 1551.45 1505.42 1551 Q1505.77 1550.55 1505.93 1550.16 Q1506.09 1549.74 1506.32 1548.81 L1515.14 1513.38 Q1515.4 1512.32 1515.4 1512.16 Q1515.4 1511.55 1515.01 1511.38 Q1514.66 1511.19 1513.63 1511.09 L1511.12 1510.97 Q1510.34 1510.97 1510.02 1510.93 Q1509.73 1510.9 1509.51 1510.74 Q1509.28 1510.58 1509.28 1510.23 Q1509.28 1509.32 1509.67 1509.13 Q1510.05 1508.9 1511.18 1508.9 L1529.99 1508.9 Q1536.4 1508.9 1540.46 1511.71 Q1544.55 1514.51 1544.55 1518.79 Q1544.55 1520.72 1543.68 1522.53 Q1542.81 1524.33 1541.36 1525.75 Q1539.94 1527.17 1538.04 1528.36 Q1536.14 1529.52 1534.11 1530.32 Q1532.12 1531.09 1530.05 1531.55 Q1530.96 1531.87 1531.79 1532.35 Q1532.66 1532.83 1533.76 1533.74 Q1534.89 1534.64 1535.56 1536.09 Q1536.24 1537.54 1536.24 1539.31 Q1536.24 1540.56 1535.98 1542.43 Q1535.34 1547.75 1535.34 1549.94 Q1535.34 1552.03 1535.88 1552.99 Q1536.43 1553.96 1537.98 1553.96 Q1539.49 1553.96 1541.17 1552.61 Q1542.87 1551.22 1543.97 1547.97 Q1544.22 1547.04 1544.84 1547.04 Q1544.87 1547.04 1544.9 1547.04 Q1544.97 1547.04 1545.09 1547.1 Q1545.22 1547.13 1545.32 1547.23 Q1545.45 1547.29 1545.51 1547.46 Q1545.61 1547.62 1545.61 1547.84 Z" fill="#000000" fill-rule="nonzero" fill-opacity="1" /><polyline clip-path="url(#clip832)" style="stroke:#000000; stroke-linecap:round; stroke-linejoin:round; stroke-width:2; stroke-opacity:0.1; fill:none" points="247.459,1384.24 2352.76,1384.24 "/>
<polyline clip-path="url(#clip832)" style="stroke:#000000; stroke-linecap:round; stroke-linejoin:round; stroke-width:2; stroke-opacity:0.1; fill:none" points="247.459,1089.23 2352.76,1089.23 "/>
<polyline clip-path="url(#clip832)" style="stroke:#000000; stroke-linecap:round; stroke-linejoin:round; stroke-width:2; stroke-opacity:0.1; fill:none" points="247.459,794.214 2352.76,794.214 "/>
<polyline clip-path="url(#clip832)" style="stroke:#000000; stroke-linecap:round; stroke-linejoin:round; stroke-width:2; stroke-opacity:0.1; fill:none" points="247.459,499.202 2352.76,499.202 "/>
<polyline clip-path="url(#clip832)" style="stroke:#000000; stroke-linecap:round; stroke-linejoin:round; stroke-width:2; stroke-opacity:0.1; fill:none" points="247.459,204.19 2352.76,204.19 "/>
<polyline clip-path="url(#clip830)" style="stroke:#000000; stroke-linecap:round; stroke-linejoin:round; stroke-width:4; stroke-opacity:1; fill:none" points="247.459,1423.18 247.459,47.2441 "/>
<polyline clip-path="url(#clip830)" style="stroke:#000000; stroke-linecap:round; stroke-linejoin:round; stroke-width:4; stroke-opacity:1; fill:none" points="247.459,1384.24 266.356,1384.24 "/>
<polyline clip-path="url(#clip830)" style="stroke:#000000; stroke-linecap:round; stroke-linejoin:round; stroke-width:4; stroke-opacity:1; fill:none" points="247.459,1089.23 266.356,1089.23 "/>
<polyline clip-path="url(#clip830)" style="stroke:#000000; stroke-linecap:round; stroke-linejoin:round; stroke-width:4; stroke-opacity:1; fill:none" points="247.459,794.214 266.356,794.214 "/>
<polyline clip-path="url(#clip830)" style="stroke:#000000; stroke-linecap:round; stroke-linejoin:round; stroke-width:4; stroke-opacity:1; fill:none" points="247.459,499.202 266.356,499.202 "/>
<polyline clip-path="url(#clip830)" style="stroke:#000000; stroke-linecap:round; stroke-linejoin:round; stroke-width:4; stroke-opacity:1; fill:none" points="247.459,204.19 266.356,204.19 "/>
<path clip-path="url(#clip830)" d="M154.283 1370.04 Q150.672 1370.04 148.843 1373.6 Q147.038 1377.14 147.038 1384.27 Q147.038 1391.38 148.843 1394.94 Q150.672 1398.49 154.283 1398.49 Q157.917 1398.49 159.723 1394.94 Q161.552 1391.38 161.552 1384.27 Q161.552 1377.14 159.723 1373.6 Q157.917 1370.04 154.283 1370.04 M154.283 1366.33 Q160.093 1366.33 163.149 1370.94 Q166.227 1375.52 166.227 1384.27 Q166.227 1393 163.149 1397.61 Q160.093 1402.19 154.283 1402.19 Q148.473 1402.19 145.394 1397.61 Q142.339 1393 142.339 1384.27 Q142.339 1375.52 145.394 1370.94 Q148.473 1366.33 154.283 1366.33 Z" fill="#000000" fill-rule="nonzero" fill-opacity="1" /><path clip-path="url(#clip830)" d="M174.445 1395.64 L179.329 1395.64 L179.329 1401.52 L174.445 1401.52 L174.445 1395.64 Z" fill="#000000" fill-rule="nonzero" fill-opacity="1" /><path clip-path="url(#clip830)" d="M199.514 1370.04 Q195.903 1370.04 194.075 1373.6 Q192.269 1377.14 192.269 1384.27 Q192.269 1391.38 194.075 1394.94 Q195.903 1398.49 199.514 1398.49 Q203.149 1398.49 204.954 1394.94 Q206.783 1391.38 206.783 1384.27 Q206.783 1377.14 204.954 1373.6 Q203.149 1370.04 199.514 1370.04 M199.514 1366.33 Q205.324 1366.33 208.38 1370.94 Q211.459 1375.52 211.459 1384.27 Q211.459 1393 208.38 1397.61 Q205.324 1402.19 199.514 1402.19 Q193.704 1402.19 190.625 1397.61 Q187.57 1393 187.57 1384.27 Q187.57 1375.52 190.625 1370.94 Q193.704 1366.33 199.514 1366.33 Z" fill="#000000" fill-rule="nonzero" fill-opacity="1" /><path clip-path="url(#clip830)" d="M149.306 1102.57 L165.626 1102.57 L165.626 1106.51 L143.681 1106.51 L143.681 1102.57 Q146.343 1099.82 150.927 1095.19 Q155.533 1090.53 156.714 1089.19 Q158.959 1086.67 159.839 1084.93 Q160.741 1083.17 160.741 1081.48 Q160.741 1078.73 158.797 1076.99 Q156.876 1075.26 153.774 1075.26 Q151.575 1075.26 149.121 1076.02 Q146.691 1076.78 143.913 1078.34 L143.913 1073.61 Q146.737 1072.48 149.191 1071.9 Q151.644 1071.32 153.681 1071.32 Q159.052 1071.32 162.246 1074.01 Q165.44 1076.69 165.44 1081.18 Q165.44 1083.31 164.63 1085.23 Q163.843 1087.13 161.737 1089.72 Q161.158 1090.4 158.056 1093.61 Q154.954 1096.81 149.306 1102.57 Z" fill="#000000" fill-rule="nonzero" fill-opacity="1" /><path clip-path="url(#clip830)" d="M175.44 1100.63 L180.325 1100.63 L180.325 1106.51 L175.44 1106.51 L175.44 1100.63 Z" fill="#000000" fill-rule="nonzero" fill-opacity="1" /><path clip-path="url(#clip830)" d="M190.556 1071.95 L208.912 1071.95 L208.912 1075.88 L194.838 1075.88 L194.838 1084.35 Q195.857 1084.01 196.875 1083.84 Q197.894 1083.66 198.912 1083.66 Q204.699 1083.66 208.079 1086.83 Q211.459 1090 211.459 1095.42 Q211.459 1101 207.987 1104.1 Q204.514 1107.18 198.195 1107.18 Q196.019 1107.18 193.75 1106.81 Q191.505 1106.44 189.098 1105.7 L189.098 1101 Q191.181 1102.13 193.403 1102.69 Q195.625 1103.24 198.102 1103.24 Q202.107 1103.24 204.445 1101.14 Q206.783 1099.03 206.783 1095.42 Q206.783 1091.81 204.445 1089.7 Q202.107 1087.59 198.102 1087.59 Q196.227 1087.59 194.352 1088.01 Q192.5 1088.43 190.556 1089.31 L190.556 1071.95 Z" fill="#000000" fill-rule="nonzero" fill-opacity="1" /><path clip-path="url(#clip830)" d="M144.329 776.934 L162.686 776.934 L162.686 780.87 L148.612 780.87 L148.612 789.342 Q149.63 788.994 150.649 788.832 Q151.667 788.647 152.686 788.647 Q158.473 788.647 161.852 791.819 Q165.232 794.99 165.232 800.406 Q165.232 805.985 161.76 809.087 Q158.288 812.166 151.968 812.166 Q149.792 812.166 147.524 811.795 Q145.279 811.425 142.871 810.684 L142.871 805.985 Q144.954 807.119 147.177 807.675 Q149.399 808.23 151.876 808.23 Q155.88 808.23 158.218 806.124 Q160.556 804.018 160.556 800.406 Q160.556 796.795 158.218 794.689 Q155.88 792.582 151.876 792.582 Q150.001 792.582 148.126 792.999 Q146.274 793.416 144.329 794.295 L144.329 776.934 Z" fill="#000000" fill-rule="nonzero" fill-opacity="1" /><path clip-path="url(#clip830)" d="M174.445 805.615 L179.329 805.615 L179.329 811.494 L174.445 811.494 L174.445 805.615 Z" fill="#000000" fill-rule="nonzero" fill-opacity="1" /><path clip-path="url(#clip830)" d="M199.514 780.013 Q195.903 780.013 194.075 783.578 Q192.269 787.119 192.269 794.249 Q192.269 801.356 194.075 804.92 Q195.903 808.462 199.514 808.462 Q203.149 808.462 204.954 804.92 Q206.783 801.356 206.783 794.249 Q206.783 787.119 204.954 783.578 Q203.149 780.013 199.514 780.013 M199.514 776.309 Q205.324 776.309 208.38 780.916 Q211.459 785.499 211.459 794.249 Q211.459 802.976 208.38 807.582 Q205.324 812.166 199.514 812.166 Q193.704 812.166 190.625 807.582 Q187.57 802.976 187.57 794.249 Q187.57 785.499 190.625 780.916 Q193.704 776.309 199.514 776.309 Z" fill="#000000" fill-rule="nonzero" fill-opacity="1" /><path clip-path="url(#clip830)" d="M144.098 481.922 L166.32 481.922 L166.32 483.913 L153.774 516.482 L148.89 516.482 L160.695 485.858 L144.098 485.858 L144.098 481.922 Z" fill="#000000" fill-rule="nonzero" fill-opacity="1" /><path clip-path="url(#clip830)" d="M175.44 510.603 L180.325 510.603 L180.325 516.482 L175.44 516.482 L175.44 510.603 Z" fill="#000000" fill-rule="nonzero" fill-opacity="1" /><path clip-path="url(#clip830)" d="M190.556 481.922 L208.912 481.922 L208.912 485.858 L194.838 485.858 L194.838 494.33 Q195.857 493.983 196.875 493.82 Q197.894 493.635 198.912 493.635 Q204.699 493.635 208.079 496.807 Q211.459 499.978 211.459 505.395 Q211.459 510.973 207.987 514.075 Q204.514 517.154 198.195 517.154 Q196.019 517.154 193.75 516.783 Q191.505 516.413 189.098 515.672 L189.098 510.973 Q191.181 512.107 193.403 512.663 Q195.625 513.219 198.102 513.219 Q202.107 513.219 204.445 511.112 Q206.783 509.006 206.783 505.395 Q206.783 501.783 204.445 499.677 Q202.107 497.57 198.102 497.57 Q196.227 497.57 194.352 497.987 Q192.5 498.404 190.556 499.283 L190.556 481.922 Z" fill="#000000" fill-rule="nonzero" fill-opacity="1" /><path clip-path="url(#clip830)" d="M114.931 217.535 L122.57 217.535 L122.57 191.17 L114.26 192.836 L114.26 188.577 L122.524 186.91 L127.2 186.91 L127.2 217.535 L134.839 217.535 L134.839 221.47 L114.931 221.47 L114.931 217.535 Z" fill="#000000" fill-rule="nonzero" fill-opacity="1" /><path clip-path="url(#clip830)" d="M154.283 189.989 Q150.672 189.989 148.843 193.554 Q147.038 197.096 147.038 204.225 Q147.038 211.332 148.843 214.896 Q150.672 218.438 154.283 218.438 Q157.917 218.438 159.723 214.896 Q161.552 211.332 161.552 204.225 Q161.552 197.096 159.723 193.554 Q157.917 189.989 154.283 189.989 M154.283 186.285 Q160.093 186.285 163.149 190.892 Q166.227 195.475 166.227 204.225 Q166.227 212.952 163.149 217.558 Q160.093 222.142 154.283 222.142 Q148.473 222.142 145.394 217.558 Q142.339 212.952 142.339 204.225 Q142.339 195.475 145.394 190.892 Q148.473 186.285 154.283 186.285 Z" fill="#000000" fill-rule="nonzero" fill-opacity="1" /><path clip-path="url(#clip830)" d="M174.445 215.591 L179.329 215.591 L179.329 221.47 L174.445 221.47 L174.445 215.591 Z" fill="#000000" fill-rule="nonzero" fill-opacity="1" /><path clip-path="url(#clip830)" d="M199.514 189.989 Q195.903 189.989 194.075 193.554 Q192.269 197.096 192.269 204.225 Q192.269 211.332 194.075 214.896 Q195.903 218.438 199.514 218.438 Q203.149 218.438 204.954 214.896 Q206.783 211.332 206.783 204.225 Q206.783 197.096 204.954 193.554 Q203.149 189.989 199.514 189.989 M199.514 186.285 Q205.324 186.285 208.38 190.892 Q211.459 195.475 211.459 204.225 Q211.459 212.952 208.38 217.558 Q205.324 222.142 199.514 222.142 Q193.704 222.142 190.625 217.558 Q187.57 212.952 187.57 204.225 Q187.57 195.475 190.625 190.892 Q193.704 186.285 199.514 186.285 Z" fill="#000000" fill-rule="nonzero" fill-opacity="1" /><path clip-path="url(#clip830)" d="M72.0469 721.615 Q72.6589 721.615 72.7233 722.323 L72.7233 723.773 Q72.7233 725.254 72.4978 725.898 Q72.2724 726.542 71.2418 727.283 Q70.5977 727.734 67.6025 728.861 Q64.5752 729.956 60.002 731.566 Q55.4287 733.145 52.7234 734.207 L71.4672 750.085 Q72.8521 751.18 72.8521 752.275 Q72.8521 753.08 72.3046 753.66 Q71.7571 754.239 70.9197 754.239 Q70.3078 754.239 69.9536 754.014 Q69.5993 753.756 68.8908 753.08 L50.8233 734.851 L32.8846 741.26 Q29.5674 742.484 28.7301 743.193 Q27.8927 743.869 27.6029 745.544 Q27.4418 746.156 26.9265 746.156 Q26.218 746.156 26.218 744.964 Q26.218 738.587 30.8879 736.913 L68.4077 723.451 Q70.5655 722.71 71.4672 721.937 Q71.8859 721.615 72.0469 721.615 Z" fill="#000000" fill-rule="nonzero" fill-opacity="1" /><polyline clip-path="url(#clip832)" style="stroke:#000000; stroke-linecap:round; stroke-linejoin:round; stroke-width:8; stroke-opacity:1; fill:none" points="307.043,1384.24 314.999,1358.28 323.004,1332.32 331.063,1306.36 339.178,1280.39 347.352,1254.43 355.589,1228.47 363.893,1202.51 372.269,1176.55 380.72,1150.59 389.252,1124.63 397.872,1098.67 406.584,1072.71 415.395,1046.74 424.315,1020.78 433.349,994.822 442.509,968.861 451.803,942.9 461.244,916.939 470.843,890.978 480.617,865.017 490.58,839.056 500.75,813.095 511.149,787.134 521.8,761.173 532.729,735.212 543.968,709.251 555.552,683.29 567.523,657.329 579.929,631.368 592.826,605.407 606.283,579.446 620.38,553.485 635.213,527.524 650.899,501.563 667.584,475.601 685.446,449.64 704.709,423.679 725.661,397.718 748.673,371.757 774.238,345.796 803.02,319.835 835.941,293.874 874.327,267.913 920.151,241.952 976.515,215.991 1048.63,190.03 1146.11,164.069 1289.55,138.108 1536.78,112.147 2293.17,86.1857 "/>
</svg>
