<?xml version="1.0" encoding="utf-8"?>
<svg xmlns="http://www.w3.org/2000/svg" xmlns:xlink="http://www.w3.org/1999/xlink" width="600" height="400" viewBox="0 0 2400 1600">
<defs>
  <clipPath id="clip710">
    <rect x="0" y="0" width="2400" height="1600"/>
  </clipPath>
</defs>
<path clip-path="url(#clip710)" d="M0 1600 L2400 1600 L2400 0 L0 0  Z" fill="#ffffff" fill-rule="evenodd" fill-opacity="1"/>
<defs>
  <clipPath id="clip711">
    <rect x="480" y="0" width="1681" height="1600"/>
  </clipPath>
</defs>
<path clip-path="url(#clip710)" d="M287.366 692.928 L2352.76 692.928 L2352.76 123.472 L287.366 123.472  Z" fill="#ffffff" fill-rule="evenodd" fill-opacity="1"/>
<defs>
  <clipPath id="clip712">
    <rect x="287" y="123" width="2066" height="570"/>
  </clipPath>
</defs>
<polyline clip-path="url(#clip712)" style="stroke:#000000; stroke-linecap:round; stroke-linejoin:round; stroke-width:2; stroke-opacity:0.1; fill:none" points="287.366,692.928 287.366,123.472 "/>
<polyline clip-path="url(#clip712)" style="stroke:#000000; stroke-linecap:round; stroke-linejoin:round; stroke-width:2; stroke-opacity:0.1; fill:none" points="975.829,692.928 975.829,123.472 "/>
<polyline clip-path="url(#clip712)" style="stroke:#000000; stroke-linecap:round; stroke-linejoin:round; stroke-width:2; stroke-opacity:0.1; fill:none" points="1664.29,692.928 1664.29,123.472 "/>
<polyline clip-path="url(#clip712)" style="stroke:#000000; stroke-linecap:round; stroke-linejoin:round; stroke-width:2; stroke-opacity:0.1; fill:none" points="2352.76,692.928 2352.76,123.472 "/>
<polyline clip-path="url(#clip712)" style="stroke:#000000; stroke-linecap:round; stroke-linejoin:round; stroke-width:2; stroke-opacity:0.1; fill:none" points="287.366,692.928 2352.76,692.928 "/>
<polyline clip-path="url(#clip712)" style="stroke:#000000; stroke-linecap:round; stroke-linejoin:round; stroke-width:2; stroke-opacity:0.1; fill:none" points="287.366,579.037 2352.76,579.037 "/>
<polyline clip-path="url(#clip712)" style="stroke:#000000; stroke-linecap:round; stroke-linejoin:round; stroke-width:2; stroke-opacity:0.1; fill:none" points="287.366,465.146 2352.76,465.146 "/>
<polyline clip-path="url(#clip712)" style="stroke:#000000; stroke-linecap:round; stroke-linejoin:round; stroke-width:2; stroke-opacity:0.1; fill:none" points="287.366,351.254 2352.76,351.254 "/>
<polyline clip-path="url(#clip712)" style="stroke:#000000; stroke-linecap:round; stroke-linejoin:round; stroke-width:2; stroke-opacity:0.1; fill:none" points="287.366,237.363 2352.76,237.363 "/>
<polyline clip-path="url(#clip712)" style="stroke:#000000; stroke-linecap:round; stroke-linejoin:round; stroke-width:2; stroke-opacity:0.1; fill:none" points="287.366,123.472 2352.76,123.472 "/>
<polyline clip-path="url(#clip710)" style="stroke:#000000; stroke-linecap:round; stroke-linejoin:round; stroke-width:4; stroke-opacity:1; fill:none" points="287.366,692.928 2352.76,692.928 "/>
<polyline clip-path="url(#clip710)" style="stroke:#000000; stroke-linecap:round; stroke-linejoin:round; stroke-width:4; stroke-opacity:1; fill:none" points="287.366,692.928 287.366,674.03 "/>
<polyline clip-path="url(#clip710)" style="stroke:#000000; stroke-linecap:round; stroke-linejoin:round; stroke-width:4; stroke-opacity:1; fill:none" points="975.829,692.928 975.829,674.03 "/>
<polyline clip-path="url(#clip710)" style="stroke:#000000; stroke-linecap:round; stroke-linejoin:round; stroke-width:4; stroke-opacity:1; fill:none" points="1664.29,692.928 1664.29,674.03 "/>
<polyline clip-path="url(#clip710)" style="stroke:#000000; stroke-linecap:round; stroke-linejoin:round; stroke-width:4; stroke-opacity:1; fill:none" points="2352.76,692.928 2352.76,674.03 "/>
<path clip-path="url(#clip710)" d="M287.366 723.847 Q283.755 723.847 281.926 727.411 Q280.121 730.953 280.121 738.083 Q280.121 745.189 281.926 748.754 Q283.755 752.295 287.366 752.295 Q291 752.295 292.806 748.754 Q294.634 745.189 294.634 738.083 Q294.634 730.953 292.806 727.411 Q291 723.847 287.366 723.847 M287.366 720.143 Q293.176 720.143 296.232 724.749 Q299.31 729.333 299.31 738.083 Q299.31 746.809 296.232 751.416 Q293.176 755.999 287.366 755.999 Q281.556 755.999 278.477 751.416 Q275.422 746.809 275.422 738.083 Q275.422 729.333 278.477 724.749 Q281.556 720.143 287.366 720.143 Z" fill="#000000" fill-rule="nonzero" fill-opacity="1" /><path clip-path="url(#clip710)" d="M950.517 751.393 L958.156 751.393 L958.156 725.027 L949.846 726.694 L949.846 722.435 L958.109 720.768 L962.785 720.768 L962.785 751.393 L970.424 751.393 L970.424 755.328 L950.517 755.328 L950.517 751.393 Z" fill="#000000" fill-rule="nonzero" fill-opacity="1" /><path clip-path="url(#clip710)" d="M989.869 723.847 Q986.257 723.847 984.429 727.411 Q982.623 730.953 982.623 738.083 Q982.623 745.189 984.429 748.754 Q986.257 752.295 989.869 752.295 Q993.503 752.295 995.308 748.754 Q997.137 745.189 997.137 738.083 Q997.137 730.953 995.308 727.411 Q993.503 723.847 989.869 723.847 M989.869 720.143 Q995.679 720.143 998.734 724.749 Q1001.81 729.333 1001.81 738.083 Q1001.81 746.809 998.734 751.416 Q995.679 755.999 989.869 755.999 Q984.058 755.999 980.98 751.416 Q977.924 746.809 977.924 738.083 Q977.924 729.333 980.98 724.749 Q984.058 720.143 989.869 720.143 Z" fill="#000000" fill-rule="nonzero" fill-opacity="1" /><path clip-path="url(#clip710)" d="M1643.07 751.393 L1659.39 751.393 L1659.39 755.328 L1637.44 755.328 L1637.44 751.393 Q1640.1 748.638 1644.69 744.008 Q1649.29 739.356 1650.47 738.013 Q1652.72 735.49 1653.6 733.754 Q1654.5 731.995 1654.5 730.305 Q1654.5 727.55 1652.56 725.814 Q1650.64 724.078 1647.53 724.078 Q1645.33 724.078 1642.88 724.842 Q1640.45 725.606 1637.67 727.157 L1637.67 722.435 Q1640.5 721.3 1642.95 720.722 Q1645.4 720.143 1647.44 720.143 Q1652.81 720.143 1656.01 722.828 Q1659.2 725.513 1659.2 730.004 Q1659.2 732.134 1658.39 734.055 Q1657.6 735.953 1655.5 738.546 Q1654.92 739.217 1651.82 742.434 Q1648.71 745.629 1643.07 751.393 Z" fill="#000000" fill-rule="nonzero" fill-opacity="1" /><path clip-path="url(#clip710)" d="M1679.2 723.847 Q1675.59 723.847 1673.76 727.411 Q1671.95 730.953 1671.95 738.083 Q1671.95 745.189 1673.76 748.754 Q1675.59 752.295 1679.2 752.295 Q1682.83 752.295 1684.64 748.754 Q1686.47 745.189 1686.47 738.083 Q1686.47 730.953 1684.64 727.411 Q1682.83 723.847 1679.2 723.847 M1679.2 720.143 Q1685.01 720.143 1688.07 724.749 Q1691.14 729.333 1691.14 738.083 Q1691.14 746.809 1688.07 751.416 Q1685.01 755.999 1679.2 755.999 Q1673.39 755.999 1670.31 751.416 Q1667.26 746.809 1667.26 738.083 Q1667.26 729.333 1670.31 724.749 Q1673.39 720.143 1679.2 720.143 Z" fill="#000000" fill-rule="nonzero" fill-opacity="1" /><path clip-path="url(#clip710)" d="M2341.6 736.694 Q2344.96 737.411 2346.83 739.68 Q2348.73 741.948 2348.73 745.282 Q2348.73 750.397 2345.21 753.198 Q2341.69 755.999 2335.21 755.999 Q2333.03 755.999 2330.72 755.559 Q2328.43 755.143 2325.97 754.286 L2325.97 749.772 Q2327.92 750.907 2330.23 751.485 Q2332.55 752.064 2335.07 752.064 Q2339.47 752.064 2341.76 750.328 Q2344.08 748.592 2344.08 745.282 Q2344.08 742.226 2341.92 740.513 Q2339.79 738.777 2335.97 738.777 L2331.95 738.777 L2331.95 734.934 L2336.16 734.934 Q2339.61 734.934 2341.44 733.569 Q2343.27 732.18 2343.27 729.587 Q2343.27 726.925 2341.37 725.513 Q2339.49 724.078 2335.97 724.078 Q2334.05 724.078 2331.85 724.495 Q2329.65 724.911 2327.02 725.791 L2327.02 721.624 Q2329.68 720.884 2331.99 720.513 Q2334.33 720.143 2336.39 720.143 Q2341.71 720.143 2344.82 722.573 Q2347.92 724.981 2347.92 729.101 Q2347.92 731.972 2346.27 733.962 Q2344.63 735.93 2341.6 736.694 Z" fill="#000000" fill-rule="nonzero" fill-opacity="1" /><path clip-path="url(#clip710)" d="M2367.59 723.847 Q2363.98 723.847 2362.15 727.411 Q2360.35 730.953 2360.35 738.083 Q2360.35 745.189 2362.15 748.754 Q2363.98 752.295 2367.59 752.295 Q2371.23 752.295 2373.03 748.754 Q2374.86 745.189 2374.86 738.083 Q2374.86 730.953 2373.03 727.411 Q2371.23 723.847 2367.59 723.847 M2367.59 720.143 Q2373.4 720.143 2376.46 724.749 Q2379.54 729.333 2379.54 738.083 Q2379.54 746.809 2376.46 751.416 Q2373.4 755.999 2367.59 755.999 Q2361.78 755.999 2358.7 751.416 Q2355.65 746.809 2355.65 738.083 Q2355.65 729.333 2358.7 724.749 Q2361.78 720.143 2367.59 720.143 Z" fill="#000000" fill-rule="nonzero" fill-opacity="1" /><polyline clip-path="url(#clip710)" style="stroke:#000000; stroke-linecap:round; stroke-linejoin:round; stroke-width:4; stroke-opacity:1; fill:none" points="287.366,692.928 287.366,123.472 "/>
<polyline clip-path="url(#clip710)" style="stroke:#000000; stroke-linecap:round; stroke-linejoin:round; stroke-width:4; stroke-opacity:1; fill:none" points="287.366,692.928 306.264,692.928 "/>
<polyline clip-path="url(#clip710)" style="stroke:#000000; stroke-linecap:round; stroke-linejoin:round; stroke-width:4; stroke-opacity:1; fill:none" points="287.366,579.037 306.264,579.037 "/>
<polyline clip-path="url(#clip710)" style="stroke:#000000; stroke-linecap:round; stroke-linejoin:round; stroke-width:4; stroke-opacity:1; fill:none" points="287.366,465.146 306.264,465.146 "/>
<polyline clip-path="url(#clip710)" style="stroke:#000000; stroke-linecap:round; stroke-linejoin:round; stroke-width:4; stroke-opacity:1; fill:none" points="287.366,351.254 306.264,351.254 "/>
<polyline clip-path="url(#clip710)" style="stroke:#000000; stroke-linecap:round; stroke-linejoin:round; stroke-width:4; stroke-opacity:1; fill:none" points="287.366,237.363 306.264,237.363 "/>
<polyline clip-path="url(#clip710)" style="stroke:#000000; stroke-linecap:round; stroke-linejoin:round; stroke-width:4; stroke-opacity:1; fill:none" points="287.366,123.472 306.264,123.472 "/>
<path clip-path="url(#clip710)" d="M239.422 678.727 Q235.81 678.727 233.982 682.291 Q232.176 685.833 232.176 692.963 Q232.176 700.069 233.982 703.634 Q235.81 707.175 239.422 707.175 Q243.056 707.175 244.861 703.634 Q246.69 700.069 246.69 692.963 Q246.69 685.833 244.861 682.291 Q243.056 678.727 239.422 678.727 M239.422 675.023 Q245.232 675.023 248.287 679.629 Q251.366 684.213 251.366 692.963 Q251.366 701.689 248.287 706.296 Q245.232 710.879 239.422 710.879 Q233.611 710.879 230.533 706.296 Q227.477 701.689 227.477 692.963 Q227.477 684.213 230.533 679.629 Q233.611 675.023 239.422 675.023 Z" fill="#000000" fill-rule="nonzero" fill-opacity="1" /><path clip-path="url(#clip710)" d="M231.459 592.382 L239.097 592.382 L239.097 566.016 L230.787 567.683 L230.787 563.423 L239.051 561.757 L243.727 561.757 L243.727 592.382 L251.366 592.382 L251.366 596.317 L231.459 596.317 L231.459 592.382 Z" fill="#000000" fill-rule="nonzero" fill-opacity="1" /><path clip-path="url(#clip710)" d="M235.047 478.49 L251.366 478.49 L251.366 482.426 L229.422 482.426 L229.422 478.49 Q232.084 475.736 236.667 471.106 Q241.273 466.453 242.454 465.111 Q244.699 462.588 245.579 460.852 Q246.482 459.092 246.482 457.403 Q246.482 454.648 244.537 452.912 Q242.616 451.176 239.514 451.176 Q237.315 451.176 234.861 451.94 Q232.431 452.704 229.653 454.254 L229.653 449.532 Q232.477 448.398 234.931 447.819 Q237.384 447.241 239.422 447.241 Q244.792 447.241 247.986 449.926 Q251.181 452.611 251.181 457.102 Q251.181 459.231 250.371 461.153 Q249.584 463.051 247.477 465.643 Q246.898 466.315 243.797 469.532 Q240.695 472.727 235.047 478.49 Z" fill="#000000" fill-rule="nonzero" fill-opacity="1" /><path clip-path="url(#clip710)" d="M244.236 349.9 Q247.593 350.618 249.468 352.886 Q251.366 355.155 251.366 358.488 Q251.366 363.604 247.847 366.405 Q244.329 369.206 237.847 369.206 Q235.672 369.206 233.357 368.766 Q231.065 368.349 228.611 367.493 L228.611 362.979 Q230.556 364.113 232.871 364.692 Q235.185 365.271 237.709 365.271 Q242.107 365.271 244.398 363.534 Q246.713 361.798 246.713 358.488 Q246.713 355.433 244.56 353.72 Q242.431 351.984 238.611 351.984 L234.584 351.984 L234.584 348.141 L238.797 348.141 Q242.246 348.141 244.074 346.775 Q245.903 345.386 245.903 342.794 Q245.903 340.132 244.005 338.72 Q242.13 337.285 238.611 337.285 Q236.69 337.285 234.491 337.701 Q232.292 338.118 229.653 338.998 L229.653 334.831 Q232.315 334.09 234.63 333.72 Q236.968 333.349 239.028 333.349 Q244.352 333.349 247.454 335.78 Q250.556 338.187 250.556 342.308 Q250.556 345.178 248.912 347.169 Q247.269 349.136 244.236 349.9 Z" fill="#000000" fill-rule="nonzero" fill-opacity="1" /><path clip-path="url(#clip710)" d="M241.783 224.157 L229.977 242.606 L241.783 242.606 L241.783 224.157 M240.556 220.083 L246.435 220.083 L246.435 242.606 L251.366 242.606 L251.366 246.495 L246.435 246.495 L246.435 254.643 L241.783 254.643 L241.783 246.495 L226.181 246.495 L226.181 241.981 L240.556 220.083 Z" fill="#000000" fill-rule="nonzero" fill-opacity="1" /><path clip-path="url(#clip710)" d="M230.463 106.192 L248.82 106.192 L248.82 110.127 L234.746 110.127 L234.746 118.599 Q235.764 118.252 236.783 118.09 Q237.801 117.905 238.82 117.905 Q244.607 117.905 247.986 121.076 Q251.366 124.248 251.366 129.664 Q251.366 135.243 247.894 138.345 Q244.421 141.423 238.102 141.423 Q235.926 141.423 233.658 141.053 Q231.412 140.683 229.005 139.942 L229.005 135.243 Q231.088 136.377 233.31 136.933 Q235.533 137.488 238.009 137.488 Q242.014 137.488 244.352 135.382 Q246.69 133.275 246.69 129.664 Q246.69 126.053 244.352 123.947 Q242.014 121.84 238.009 121.84 Q236.135 121.84 234.26 122.257 Q232.408 122.674 230.463 123.553 L230.463 106.192 Z" fill="#000000" fill-rule="nonzero" fill-opacity="1" /><path clip-path="url(#clip710)" d="M128.405 647.98 L128.405 620.671 L133.816 620.671 L133.816 641.551 L147.82 641.551 L147.82 622.708 L153.231 622.708 L153.231 641.551 L175.925 641.551 L175.925 647.98 L128.405 647.98 Z" fill="#000000" fill-rule="nonzero" fill-opacity="1" /><path clip-path="url(#clip710)" d="M145.751 594.827 Q145.178 595.813 144.924 596.991 Q144.637 598.137 144.637 599.537 Q144.637 604.502 147.884 607.176 Q151.099 609.818 157.146 609.818 L175.925 609.818 L175.925 615.706 L140.277 615.706 L140.277 609.818 L145.815 609.818 Q142.569 607.972 141.009 605.012 Q139.418 602.052 139.418 597.818 Q139.418 597.214 139.513 596.482 Q139.577 595.75 139.736 594.858 L145.751 594.827 Z" fill="#000000" fill-rule="nonzero" fill-opacity="1" /><path clip-path="url(#clip710)" d="M156.637 559.624 L159.501 559.624 L159.501 586.551 Q165.549 586.169 168.732 582.923 Q171.883 579.644 171.883 573.82 Q171.883 570.446 171.055 567.295 Q170.228 564.112 168.572 560.993 L174.111 560.993 Q175.447 564.144 176.148 567.454 Q176.848 570.764 176.848 574.17 Q176.848 582.7 171.883 587.697 Q166.917 592.662 158.451 592.662 Q149.698 592.662 144.574 587.952 Q139.418 583.209 139.418 575.188 Q139.418 567.995 144.064 563.826 Q148.68 559.624 156.637 559.624 M154.918 565.481 Q150.112 565.544 147.247 568.186 Q144.383 570.796 144.383 575.125 Q144.383 580.026 147.152 582.986 Q149.921 585.915 154.95 586.36 L154.918 565.481 Z" fill="#000000" fill-rule="nonzero" fill-opacity="1" /><path clip-path="url(#clip710)" d="M158.133 546.511 Q164.594 546.511 168.286 543.869 Q171.946 541.196 171.946 536.549 Q171.946 531.902 168.286 529.228 Q164.594 526.554 158.133 526.554 Q151.672 526.554 148.011 529.228 Q144.319 531.902 144.319 536.549 Q144.319 541.196 148.011 543.869 Q151.672 546.511 158.133 546.511 M170.578 526.554 Q173.761 528.4 175.32 531.233 Q176.848 534.034 176.848 537.981 Q176.848 544.442 171.692 548.516 Q166.535 552.558 158.133 552.558 Q149.73 552.558 144.574 548.516 Q139.418 544.442 139.418 537.981 Q139.418 534.034 140.977 531.233 Q142.505 528.4 145.688 526.554 L140.277 526.554 L140.277 520.698 L189.484 520.698 L189.484 526.554 L170.578 526.554 Z" fill="#000000" fill-rule="nonzero" fill-opacity="1" /><path clip-path="url(#clip710)" d="M161.857 509.24 L140.277 509.24 L140.277 503.383 L161.634 503.383 Q166.695 503.383 169.241 501.41 Q171.755 499.436 171.755 495.49 Q171.755 490.747 168.732 488.01 Q165.708 485.241 160.488 485.241 L140.277 485.241 L140.277 479.385 L175.925 479.385 L175.925 485.241 L170.45 485.241 Q173.697 487.373 175.288 490.206 Q176.848 493.007 176.848 496.731 Q176.848 502.874 173.028 506.057 Q169.209 509.24 161.857 509.24 M139.418 494.503 L139.418 494.503 Z" fill="#000000" fill-rule="nonzero" fill-opacity="1" /><path clip-path="url(#clip710)" d="M156.637 436.83 L159.501 436.83 L159.501 463.757 Q165.549 463.375 168.732 460.128 Q171.883 456.85 171.883 451.025 Q171.883 447.651 171.055 444.5 Q170.228 441.318 168.572 438.198 L174.111 438.198 Q175.447 441.349 176.148 444.66 Q176.848 447.97 176.848 451.375 Q176.848 459.905 171.883 464.903 Q166.917 469.868 158.451 469.868 Q149.698 469.868 144.574 465.157 Q139.418 460.415 139.418 452.394 Q139.418 445.201 144.064 441.031 Q148.68 436.83 156.637 436.83 M154.918 442.686 Q150.112 442.75 147.247 445.392 Q144.383 448.002 144.383 452.33 Q144.383 457.232 147.152 460.192 Q149.921 463.12 154.95 463.566 L154.918 442.686 Z" fill="#000000" fill-rule="nonzero" fill-opacity="1" /><path clip-path="url(#clip710)" d="M154.409 397.585 L175.925 397.585 L175.925 403.442 L154.6 403.442 Q149.539 403.442 147.025 405.415 Q144.51 407.388 144.51 411.335 Q144.51 416.078 147.534 418.815 Q150.558 421.552 155.777 421.552 L175.925 421.552 L175.925 427.44 L140.277 427.44 L140.277 421.552 L145.815 421.552 Q142.6 419.451 141.009 416.619 Q139.418 413.754 139.418 410.03 Q139.418 403.887 143.237 400.736 Q147.025 397.585 154.409 397.585 Z" fill="#000000" fill-rule="nonzero" fill-opacity="1" /><path clip-path="url(#clip710)" d="M141.646 360.25 L147.12 360.25 Q145.751 362.733 145.083 365.247 Q144.383 367.73 144.383 370.276 Q144.383 375.974 148.011 379.125 Q151.608 382.276 158.133 382.276 Q164.658 382.276 168.286 379.125 Q171.883 375.974 171.883 370.276 Q171.883 367.73 171.214 365.247 Q170.514 362.733 169.145 360.25 L174.556 360.25 Q175.702 362.701 176.275 365.343 Q176.848 367.953 176.848 370.913 Q176.848 378.965 171.787 383.708 Q166.726 388.45 158.133 388.45 Q149.412 388.45 144.415 383.676 Q139.418 378.87 139.418 370.531 Q139.418 367.826 139.99 365.247 Q140.532 362.669 141.646 360.25 Z" fill="#000000" fill-rule="nonzero" fill-opacity="1" /><path clip-path="url(#clip710)" d="M179.235 335.233 Q185.601 337.716 187.542 340.071 Q189.484 342.426 189.484 346.373 L189.484 351.052 L184.582 351.052 L184.582 347.614 Q184.582 345.195 183.436 343.859 Q182.291 342.522 178.026 340.899 L175.352 339.848 L140.277 354.267 L140.277 348.06 L168.159 336.92 L140.277 325.78 L140.277 319.573 L179.235 335.233 Z" fill="#000000" fill-rule="nonzero" fill-opacity="1" /><path clip-path="url(#clip710)" d="M126.4 291.31 L126.4 277.814 L130.951 277.814 L130.951 285.453 L179.967 285.453 L179.967 277.814 L184.519 277.814 L184.519 291.31 L126.4 291.31 Z" fill="#000000" fill-rule="nonzero" fill-opacity="1" /><path clip-path="url(#clip710)" d="M128.405 265.083 L128.405 258.654 L147.884 258.654 L147.884 235.291 L128.405 235.291 L128.405 228.862 L175.925 228.862 L175.925 235.291 L153.295 235.291 L153.295 258.654 L175.925 258.654 L175.925 265.083 L128.405 265.083 Z" fill="#000000" fill-rule="nonzero" fill-opacity="1" /><path clip-path="url(#clip710)" d="M140.277 218.868 L140.277 191.05 L145.624 191.05 L171.246 213.075 L171.246 191.05 L175.925 191.05 L175.925 219.664 L170.578 219.664 L144.956 197.638 L144.956 218.868 L140.277 218.868 Z" fill="#000000" fill-rule="nonzero" fill-opacity="1" /><path clip-path="url(#clip710)" d="M126.4 168.42 L184.519 168.42 L184.519 181.915 L179.967 181.915 L179.967 174.308 L130.951 174.308 L130.951 181.915 L126.4 181.915 L126.4 168.42 Z" fill="#000000" fill-rule="nonzero" fill-opacity="1" /><path clip-path="url(#clip710)" d="M1068.66 12.096 L1076.93 12.096 L1089.65 63.2184 L1102.32 12.096 L1111.52 12.096 L1124.24 63.2184 L1136.92 12.096 L1145.22 12.096 L1130.03 72.576 L1119.74 72.576 L1106.98 20.0763 L1094.1 72.576 L1083.81 72.576 L1068.66 12.096 Z" fill="#000000" fill-rule="nonzero" fill-opacity="1" /><path clip-path="url(#clip710)" d="M1153.93 27.2059 L1161.39 27.2059 L1161.39 72.576 L1153.93 72.576 L1153.93 27.2059 M1153.93 9.54393 L1161.39 9.54393 L1161.39 18.9825 L1153.93 18.9825 L1153.93 9.54393 Z" fill="#000000" fill-rule="nonzero" fill-opacity="1" /><path clip-path="url(#clip710)" d="M1184.36 14.324 L1184.36 27.2059 L1199.71 27.2059 L1199.71 32.9987 L1184.36 32.9987 L1184.36 57.6282 Q1184.36 63.1779 1185.85 64.7578 Q1187.39 66.3376 1192.05 66.3376 L1199.71 66.3376 L1199.71 72.576 L1192.05 72.576 Q1183.42 72.576 1180.14 69.3758 Q1176.86 66.1351 1176.86 57.6282 L1176.86 32.9987 L1171.39 32.9987 L1171.39 27.2059 L1176.86 27.2059 L1176.86 14.324 L1184.36 14.324 Z" fill="#000000" fill-rule="nonzero" fill-opacity="1" /><path clip-path="url(#clip710)" d="M1247.23 45.1919 L1247.23 72.576 L1239.77 72.576 L1239.77 45.4349 Q1239.77 38.994 1237.26 35.7938 Q1234.75 32.5936 1229.73 32.5936 Q1223.69 32.5936 1220.21 36.4419 Q1216.72 40.2903 1216.72 46.9338 L1216.72 72.576 L1209.23 72.576 L1209.23 9.54393 L1216.72 9.54393 L1216.72 34.2544 Q1219.4 30.163 1223 28.1376 Q1226.65 26.1121 1231.39 26.1121 Q1239.2 26.1121 1243.22 30.9732 Q1247.23 35.7938 1247.23 45.1919 Z" fill="#000000" fill-rule="nonzero" fill-opacity="1" /><path clip-path="url(#clip710)" d="M1295.84 14.324 L1295.84 27.2059 L1311.19 27.2059 L1311.19 32.9987 L1295.84 32.9987 L1295.84 57.6282 Q1295.84 63.1779 1297.34 64.7578 Q1298.87 66.3376 1303.53 66.3376 L1311.19 66.3376 L1311.19 72.576 L1303.53 72.576 Q1294.9 72.576 1291.62 69.3758 Q1288.34 66.1351 1288.34 57.6282 L1288.34 32.9987 L1282.87 32.9987 L1282.87 27.2059 L1288.34 27.2059 L1288.34 14.324 L1295.84 14.324 Z" fill="#000000" fill-rule="nonzero" fill-opacity="1" /><path clip-path="url(#clip710)" d="M1320.99 27.2059 L1328.45 27.2059 L1328.45 72.576 L1320.99 72.576 L1320.99 27.2059 M1320.99 9.54393 L1328.45 9.54393 L1328.45 18.9825 L1320.99 18.9825 L1320.99 9.54393 Z" fill="#000000" fill-rule="nonzero" fill-opacity="1" /><path clip-path="url(#clip710)" d="M1351.25 65.7705 L1351.25 89.8329 L1343.76 89.8329 L1343.76 27.2059 L1351.25 27.2059 L1351.25 34.0924 Q1353.6 30.0415 1357.17 28.0971 Q1360.77 26.1121 1365.76 26.1121 Q1374.02 26.1121 1379.16 32.6746 Q1384.35 39.2371 1384.35 49.9314 Q1384.35 60.6258 1379.16 67.1883 Q1374.02 73.7508 1365.76 73.7508 Q1360.77 73.7508 1357.17 71.8063 Q1353.6 69.8214 1351.25 65.7705 M1376.61 49.9314 Q1376.61 41.7081 1373.21 37.0496 Q1369.85 32.3505 1363.93 32.3505 Q1358.02 32.3505 1354.62 37.0496 Q1351.25 41.7081 1351.25 49.9314 Q1351.25 58.1548 1354.62 62.8538 Q1358.02 67.5124 1363.93 67.5124 Q1369.85 67.5124 1373.21 62.8538 Q1376.61 58.1548 1376.61 49.9314 Z" fill="#000000" fill-rule="nonzero" fill-opacity="1" /><path clip-path="url(#clip710)" d="M1423.08 9.54393 L1430.53 9.54393 L1430.53 72.576 L1423.08 72.576 L1423.08 9.54393 Z" fill="#000000" fill-rule="nonzero" fill-opacity="1" /><path clip-path="url(#clip710)" d="M1463.71 32.4315 Q1457.71 32.4315 1454.23 37.1306 Q1450.74 41.7891 1450.74 49.9314 Q1450.74 58.0738 1454.19 62.7728 Q1457.67 67.4314 1463.71 67.4314 Q1469.66 67.4314 1473.14 62.7323 Q1476.63 58.0333 1476.63 49.9314 Q1476.63 41.8701 1473.14 37.1711 Q1469.66 32.4315 1463.71 32.4315 M1463.71 26.1121 Q1473.43 26.1121 1478.98 32.4315 Q1484.53 38.7509 1484.53 49.9314 Q1484.53 61.0714 1478.98 67.4314 Q1473.43 73.7508 1463.71 73.7508 Q1453.94 73.7508 1448.39 67.4314 Q1442.88 61.0714 1442.88 49.9314 Q1442.88 38.7509 1448.39 32.4315 Q1453.94 26.1121 1463.71 26.1121 Z" fill="#000000" fill-rule="nonzero" fill-opacity="1" /><path clip-path="url(#clip710)" d="M1525.81 28.5427 L1525.81 35.5912 Q1522.65 33.9709 1519.24 33.1607 Q1515.84 32.3505 1512.2 32.3505 Q1506.65 32.3505 1503.85 34.0519 Q1501.1 35.7533 1501.1 39.156 Q1501.1 41.7486 1503.08 43.2475 Q1505.07 44.7058 1511.06 46.0426 L1513.61 46.6097 Q1521.55 48.3111 1524.87 51.4303 Q1528.24 54.509 1528.24 60.0587 Q1528.24 66.3781 1523.21 70.0644 Q1518.23 73.7508 1509.48 73.7508 Q1505.84 73.7508 1501.87 73.0216 Q1497.94 72.3329 1493.56 70.9151 L1493.56 63.2184 Q1497.69 65.3654 1501.7 66.4591 Q1505.71 67.5124 1509.64 67.5124 Q1514.91 67.5124 1517.75 65.73 Q1520.58 63.9071 1520.58 60.6258 Q1520.58 57.5877 1518.51 55.9673 Q1516.49 54.3469 1509.56 52.8481 L1506.97 52.2405 Q1500.04 50.7821 1496.96 47.7845 Q1493.89 44.7463 1493.89 39.4801 Q1493.89 33.0797 1498.42 29.5959 Q1502.96 26.1121 1511.3 26.1121 Q1515.44 26.1121 1519.08 26.7198 Q1522.73 27.3274 1525.81 28.5427 Z" fill="#000000" fill-rule="nonzero" fill-opacity="1" /><path clip-path="url(#clip710)" d="M1569.03 28.5427 L1569.03 35.5912 Q1565.87 33.9709 1562.47 33.1607 Q1559.06 32.3505 1555.42 32.3505 Q1549.87 32.3505 1547.07 34.0519 Q1544.32 35.7533 1544.32 39.156 Q1544.32 41.7486 1546.3 43.2475 Q1548.29 44.7058 1554.28 46.0426 L1556.84 46.6097 Q1564.78 48.3111 1568.1 51.4303 Q1571.46 54.509 1571.46 60.0587 Q1571.46 66.3781 1566.44 70.0644 Q1561.45 73.7508 1552.7 73.7508 Q1549.06 73.7508 1545.09 73.0216 Q1541.16 72.3329 1536.78 70.9151 L1536.78 63.2184 Q1540.92 65.3654 1544.93 66.4591 Q1548.94 67.5124 1552.87 67.5124 Q1558.13 67.5124 1560.97 65.73 Q1563.8 63.9071 1563.8 60.6258 Q1563.8 57.5877 1561.74 55.9673 Q1559.71 54.3469 1552.79 52.8481 L1550.19 52.2405 Q1543.27 50.7821 1540.19 47.7845 Q1537.11 44.7463 1537.11 39.4801 Q1537.11 33.0797 1541.65 29.5959 Q1546.18 26.1121 1554.53 26.1121 Q1558.66 26.1121 1562.3 26.7198 Q1565.95 27.3274 1569.03 28.5427 Z" fill="#000000" fill-rule="nonzero" fill-opacity="1" /><polyline clip-path="url(#clip712)" style="stroke:#800080; stroke-linecap:round; stroke-linejoin:round; stroke-width:8; stroke-opacity:1; fill:none" points="356.212,551.486 425.059,551.293 493.905,551.14 562.751,551.123 631.598,551.108 700.444,551.016 769.29,550.708 838.137,549.949 906.983,548.378 975.829,545.526 1044.68,540.929 1113.52,534.278 1182.37,525.508 1251.21,514.732 1320.06,502.105 1388.91,487.708 1457.75,471.483 1526.6,453.219 1595.45,432.602 1664.29,409.666 1733.14,386.734 1801.99,368.191 1870.83,353.779 1939.68,341.21 2008.52,329.192 2077.37,317.069 2146.22,304.433 2215.06,290.959 2283.91,276.325 2352.76,260.182 2421.6,242.158 2490.45,222.035 2559.29,200.431 2628.14,180.258 2696.99,166.158 2765.83,159.945 2834.68,160.204 2903.53,165.127 2972.37,173.483 3041.22,184.552 "/>
<polyline clip-path="url(#clip712)" style="stroke:#800080; stroke-linecap:round; stroke-linejoin:round; stroke-width:8; stroke-opacity:1; fill:none" points="356.212,312.795 425.059,312.258 493.905,314.443 562.751,313.55 631.598,312.301 700.444,310.502 769.29,307.938 838.137,304.426 906.983,299.903 975.829,294.513 1044.68,288.661 1113.52,282.94 1182.37,277.963 1251.21,274.202 1320.06,271.931 1388.91,271.281 1457.75,272.335 1526.6,275.211 1595.45,280.07 1664.29,286.688 1733.14,292.527 1801.99,292.966 1870.83,287.988 1939.68,279.551 2008.52,268.526 2077.37,255.012 2146.22,238.635 2215.06,218.575 2283.91,193.388 2352.76,160.792 2421.6,120.246 2490.45,90.3373 2559.29,87.1353 2628.14,97.8579 2696.99,114.903 2765.83,135.62 2834.68,159.026 2903.53,184.792 2972.37,212.936 3041.22,243.718 "/>
<polyline clip-path="url(#clip712)" style="stroke:#800080; stroke-linecap:round; stroke-linejoin:round; stroke-width:8; stroke-opacity:1; fill:none" stroke-dasharray="32, 20" points="329.635,319.137 472.411,317.6 610.255,317.622 772.726,316.096 962.287,308.841 1159.24,300.026 1314.35,293.808 1479.23,294.878 1624.5,299.058 1757.37,310.527 1858.23,325.629 1909.94,339.694 2020.64,343.874 2158.54,336.608 2311.17,326.233 "/>
<polyline clip-path="url(#clip712)" style="stroke:#800080; stroke-linecap:round; stroke-linejoin:round; stroke-width:8; stroke-opacity:1; fill:none" stroke-dasharray="32, 20" points="344.004,545.473 477.575,545.496 675.707,544.596 873.847,539.915 1043.02,534.767 1172.18,523.97 1285.78,510.816 1383.74,496.238 1533,470.385 1655.48,446.41 1764.67,419.601 1858.23,391.857 1909.45,370.217 2007.49,354.705 2112.14,343.908 2210.11,333.1 2330.31,325.116 "/>
<polyline clip-path="url(#clip712)" style="stroke:#008000; stroke-linecap:round; stroke-linejoin:round; stroke-width:8; stroke-opacity:1; fill:none" points="356.212,551.414 425.059,551.255 493.905,551.251 562.751,551.36 631.598,551.537 700.444,551.712 769.29,551.735 838.137,551.316 906.983,549.994 975.829,547.203 1044.68,542.471 1113.52,535.623 1182.37,526.786 1251.21,516.213 1320.06,504.102 1388.91,490.518 1457.75,475.384 1526.6,458.502 1595.45,439.6 1664.29,418.597 1733.14,396.703 1801.99,377.371 1870.83,362.178 1939.68,349.566 2008.52,338.083 2077.37,326.959 2146.22,315.804 2215.06,304.436 2283.91,292.837 2352.76,281.205 2421.6,270.043 2490.45,260.172 2559.29,252.479 2628.14,247.456 2696.99,245.017 2765.83,244.745 2834.68,246.175 2903.53,248.923 2972.37,252.707 3041.22,257.331 "/>
<polyline clip-path="url(#clip712)" style="stroke:#008000; stroke-linecap:round; stroke-linejoin:round; stroke-width:8; stroke-opacity:1; fill:none" points="356.212,313.213 425.059,312.623 493.905,311.683 562.751,310.317 631.598,308.324 700.444,305.427 769.29,301.333 838.137,295.84 906.983,288.984 975.829,281.18 1044.68,273.235 1113.52,266.11 1182.37,260.584 1251.21,257.061 1320.06,255.616 1388.91,256.144 1457.75,258.514 1526.6,262.664 1595.45,268.606 1664.29,276.187 1733.14,283.989 1801.99,288.364 1870.83,287.548 1939.68,282.901 2008.52,275.663 2077.37,266.372 2146.22,255.186 2215.06,242.118 2283.91,227.28 2352.76,211.291 2421.6,195.845 2490.45,183.403 2559.29,175.408 2628.14,171.548 2696.99,170.804 2765.83,172.238 2834.68,175.174 2903.53,179.145 2972.37,183.834 3041.22,189.026 "/>
<polyline clip-path="url(#clip712)" style="stroke:#008000; stroke-linecap:round; stroke-linejoin:round; stroke-width:8; stroke-opacity:1; fill:none" stroke-dasharray="32, 20" points="331.928,318.192 441.988,318.625 597.25,317.406 740.719,315.766 888.14,309.98 1013.97,301.268 1139.75,292.988 1273.38,288.432 1418.86,288.466 1548.49,295.96 1670.35,307.611 1768.59,321.757 1825.53,331.733 1876.61,342.952 1931.62,344.626 2020.09,341.312 2169.49,335.105 2269.73,328.066 2342.43,323.921 "/>
<polyline clip-path="url(#clip712)" style="stroke:#008000; stroke-linecap:round; stroke-linejoin:round; stroke-width:8; stroke-opacity:1; fill:none" stroke-dasharray="32, 20" points="334.065,544.471 501.065,545.382 678.489,548.503 858.019,547.204 985.33,545.017 1123.16,536.225 1252.59,522.125 1373.76,502.285 1482.33,484.211 1576.38,462.173 1691.21,436.16 1789.39,407.494 1860.44,385.445 1906.43,368.68 2027.53,355.901 2175.75,343.578 2321.91,329.923 "/>
<polyline clip-path="url(#clip712)" style="stroke:#ff0000; stroke-linecap:round; stroke-linejoin:round; stroke-width:8; stroke-opacity:1; fill:none" points="356.212,551.504 425.059,551.382 493.905,551.438 562.751,551.648 631.598,551.984 700.444,552.38 769.29,552.658 838.137,552.46 906.983,551.233 975.829,548.381 1044.68,543.54 1113.52,536.728 1182.37,528.197 1251.21,518.179 1320.06,506.749 1388.91,493.812 1457.75,479.103 1526.6,462.183 1595.45,442.449 1664.29,419.784 1733.14,397.99 1801.99,382.787 1870.83,372.424 1939.68,364.344 2008.52,357.536 2077.37,351.695 2146.22,346.802 2215.06,342.939 2283.91,340.185 2352.76,338.549 2421.6,337.956 2490.45,338.272 2559.29,339.336 2628.14,340.996 2696.99,343.117 2765.83,345.59 2834.68,348.327 2903.53,351.259 2972.37,354.332 3041.22,357.505 "/>
<polyline clip-path="url(#clip712)" style="stroke:#ff0000; stroke-linecap:round; stroke-linejoin:round; stroke-width:8; stroke-opacity:1; fill:none" points="356.212,311.473 425.059,310.669 493.905,309.322 562.751,307.295 631.598,304.319 700.444,300.056 769.29,294.203 838.137,286.665 906.983,277.778 975.829,268.451 1044.68,259.998 1113.52,253.657 1182.37,250.168 1251.21,249.692 1320.06,252.032 1388.91,256.895 1457.75,264.098 1526.6,273.703 1595.45,286.039 1664.29,301.064 1733.14,314.909 1801.99,321.878 1870.83,323.822 1939.68,323.476 2008.52,322.107 2077.37,320.348 2146.22,318.585 2215.06,317.081 2283.91,316.003 2352.76,315.431 2421.6,315.369 2490.45,315.761 2559.29,316.515 2628.14,317.525 2696.99,318.68 2765.83,319.873 2834.68,321.002 2903.53,321.974 2972.37,322.702 3041.22,323.111 "/>
<polyline clip-path="url(#clip712)" style="stroke:#ff0000; stroke-linecap:round; stroke-linejoin:round; stroke-width:8; stroke-opacity:1; fill:none" stroke-dasharray="32, 20" points="325.341,318.18 441.244,317.087 555.392,317.839 667.783,316.745 774.915,313.431 876.78,307.873 973.385,299.73 1045.43,291.575 1124.47,284.526 1208.74,282.316 1307.12,283.444 1421.2,291.257 1514.28,299.07 1602.06,307.623 1688.04,319.149 1749.52,329.923 1809.15,339.945 1851.28,347.006 1921.57,348.874 2014.65,344.432 2130.52,338.521 2227.18,332.223 2339.54,324.444 "/>
<polyline clip-path="url(#clip712)" style="stroke:#ff0000; stroke-linecap:round; stroke-linejoin:round; stroke-width:8; stroke-opacity:1; fill:none" stroke-dasharray="32, 20" points="330.644,546.418 453.086,545.963 575.515,549.755 704.63,550.712 802.577,554.026 925.014,555.45 1018.51,553.593 1138.72,545.61 1212.25,536.214 1287.98,523.515 1379.27,505.178 1452.8,489.199 1533,471.33 1610.94,451.581 1708.97,425.238 1764.67,405.022 1807.01,391.845 1871.59,377.279 1958.47,365.992 2054.24,356.596 2174.44,345.321 2263.53,338.282 2332.58,332.178 "/>
<path clip-path="url(#clip710)" d="M1631.86 673.946 L2283.91 673.946 L2283.91 518.426 L1631.86 518.426  Z" fill="#ffffff" fill-rule="evenodd" fill-opacity="1"/>
<polyline clip-path="url(#clip710)" style="stroke:#000000; stroke-linecap:round; stroke-linejoin:round; stroke-width:4; stroke-opacity:1; fill:none" points="1631.86,673.946 2283.91,673.946 2283.91,518.426 1631.86,518.426 1631.86,673.946 "/>
<polyline clip-path="url(#clip710)" style="stroke:#000000; stroke-linecap:round; stroke-linejoin:round; stroke-width:8; stroke-opacity:1; fill:none" stroke-dasharray="32, 20" points="1654.81,570.266 1792.51,570.266 "/>
<path clip-path="url(#clip710)" d="M1815.45 552.986 L1820.13 552.986 L1820.13 567.153 L1837.12 567.153 L1837.12 552.986 L1841.8 552.986 L1841.8 587.546 L1837.12 587.546 L1837.12 571.088 L1820.13 571.088 L1820.13 587.546 L1815.45 587.546 L1815.45 552.986 Z" fill="#000000" fill-rule="nonzero" fill-opacity="1" /><path clip-path="url(#clip710)" d="M1873.09 573.518 L1873.09 575.602 L1853.51 575.602 Q1853.79 580 1856.15 582.315 Q1858.53 584.606 1862.77 584.606 Q1865.22 584.606 1867.51 584.004 Q1869.83 583.403 1872.1 582.199 L1872.1 586.227 Q1869.81 587.199 1867.4 587.708 Q1864.99 588.217 1862.51 588.217 Q1856.31 588.217 1852.68 584.606 Q1849.06 580.995 1849.06 574.838 Q1849.06 568.472 1852.49 564.745 Q1855.94 560.995 1861.77 560.995 Q1867 560.995 1870.04 564.375 Q1873.09 567.731 1873.09 573.518 M1868.83 572.268 Q1868.79 568.773 1866.87 566.69 Q1864.97 564.606 1861.82 564.606 Q1858.25 564.606 1856.1 566.62 Q1853.97 568.634 1853.65 572.291 L1868.83 572.268 Z" fill="#000000" fill-rule="nonzero" fill-opacity="1" /><path clip-path="url(#clip710)" d="M1891.87 574.514 Q1886.7 574.514 1884.71 575.694 Q1882.72 576.875 1882.72 579.722 Q1882.72 581.99 1884.2 583.333 Q1885.71 584.653 1888.28 584.653 Q1891.82 584.653 1893.95 582.153 Q1896.1 579.629 1896.1 575.463 L1896.1 574.514 L1891.87 574.514 M1900.36 572.754 L1900.36 587.546 L1896.1 587.546 L1896.1 583.611 Q1894.64 585.972 1892.47 587.106 Q1890.29 588.217 1887.14 588.217 Q1883.16 588.217 1880.8 585.995 Q1878.46 583.75 1878.46 580 Q1878.46 575.625 1881.38 573.403 Q1884.32 571.18 1890.13 571.18 L1896.1 571.18 L1896.1 570.764 Q1896.1 567.824 1894.16 566.227 Q1892.24 564.606 1888.74 564.606 Q1886.52 564.606 1884.41 565.139 Q1882.31 565.671 1880.36 566.736 L1880.36 562.801 Q1882.7 561.898 1884.9 561.458 Q1887.1 560.995 1889.18 560.995 Q1894.81 560.995 1897.58 563.912 Q1900.36 566.829 1900.36 572.754 Z" fill="#000000" fill-rule="nonzero" fill-opacity="1" /><path clip-path="url(#clip710)" d="M1909.13 551.528 L1913.39 551.528 L1913.39 587.546 L1909.13 587.546 L1909.13 551.528 Z" fill="#000000" fill-rule="nonzero" fill-opacity="1" /><path clip-path="url(#clip710)" d="M1933.09 589.953 Q1931.29 594.583 1929.57 595.995 Q1927.86 597.407 1924.99 597.407 L1921.59 597.407 L1921.59 593.842 L1924.09 593.842 Q1925.85 593.842 1926.82 593.009 Q1927.79 592.176 1928.97 589.074 L1929.74 587.129 L1919.25 561.62 L1923.76 561.62 L1931.87 581.898 L1939.97 561.62 L1944.48 561.62 L1933.09 589.953 Z" fill="#000000" fill-rule="nonzero" fill-opacity="1" /><path clip-path="url(#clip710)" d="M1975.66 551.574 Q1972.56 556.898 1971.05 562.106 Q1969.55 567.315 1969.55 572.662 Q1969.55 578.009 1971.05 583.264 Q1972.58 588.495 1975.66 593.796 L1971.96 593.796 Q1968.49 588.356 1966.75 583.102 Q1965.04 577.847 1965.04 572.662 Q1965.04 567.5 1966.75 562.268 Q1968.46 557.037 1971.96 551.574 L1975.66 551.574 Z" fill="#000000" fill-rule="nonzero" fill-opacity="1" /><path clip-path="url(#clip710)" d="M1988.55 583.611 L2004.87 583.611 L2004.87 587.546 L1982.93 587.546 L1982.93 583.611 Q1985.59 580.856 1990.18 576.227 Q1994.78 571.574 1995.96 570.231 Q1998.21 567.708 1999.09 565.972 Q1999.99 564.213 1999.99 562.523 Q1999.99 559.768 1998.05 558.032 Q1996.12 556.296 1993.02 556.296 Q1990.82 556.296 1988.37 557.06 Q1985.94 557.824 1983.16 559.375 L1983.16 554.653 Q1985.99 553.518 1988.44 552.94 Q1990.89 552.361 1992.93 552.361 Q1998.3 552.361 2001.49 555.046 Q2004.69 557.731 2004.69 562.222 Q2004.69 564.352 2003.88 566.273 Q2003.09 568.171 2000.99 570.764 Q2000.41 571.435 1997.3 574.653 Q1994.2 577.847 1988.55 583.611 Z" fill="#000000" fill-rule="nonzero" fill-opacity="1" /><path clip-path="url(#clip710)" d="M2024.69 556.065 Q2021.08 556.065 2019.25 559.629 Q2017.44 563.171 2017.44 570.301 Q2017.44 577.407 2019.25 580.972 Q2021.08 584.514 2024.69 584.514 Q2028.32 584.514 2030.13 580.972 Q2031.96 577.407 2031.96 570.301 Q2031.96 563.171 2030.13 559.629 Q2028.32 556.065 2024.69 556.065 M2024.69 552.361 Q2030.5 552.361 2033.55 556.967 Q2036.63 561.551 2036.63 570.301 Q2036.63 579.028 2033.55 583.634 Q2030.5 588.217 2024.69 588.217 Q2018.88 588.217 2015.8 583.634 Q2012.74 579.028 2012.74 570.301 Q2012.74 561.551 2015.8 556.967 Q2018.88 552.361 2024.69 552.361 Z" fill="#000000" fill-rule="nonzero" fill-opacity="1" /><path clip-path="url(#clip710)" d="M2048.88 583.611 L2065.2 583.611 L2065.2 587.546 L2043.25 587.546 L2043.25 583.611 Q2045.92 580.856 2050.5 576.227 Q2055.11 571.574 2056.29 570.231 Q2058.53 567.708 2059.41 565.972 Q2060.31 564.213 2060.31 562.523 Q2060.31 559.768 2058.37 558.032 Q2056.45 556.296 2053.35 556.296 Q2051.15 556.296 2048.69 557.06 Q2046.26 557.824 2043.49 559.375 L2043.49 554.653 Q2046.31 553.518 2048.76 552.94 Q2051.22 552.361 2053.25 552.361 Q2058.62 552.361 2061.82 555.046 Q2065.01 557.731 2065.01 562.222 Q2065.01 564.352 2064.2 566.273 Q2063.42 568.171 2061.31 570.764 Q2060.73 571.435 2057.63 574.653 Q2054.53 577.847 2048.88 583.611 Z" fill="#000000" fill-rule="nonzero" fill-opacity="1" /><path clip-path="url(#clip710)" d="M2089.18 568.912 Q2092.54 569.629 2094.41 571.898 Q2096.31 574.166 2096.31 577.5 Q2096.31 582.615 2092.79 585.416 Q2089.27 588.217 2082.79 588.217 Q2080.61 588.217 2078.3 587.777 Q2076.01 587.361 2073.55 586.504 L2073.55 581.99 Q2075.5 583.125 2077.81 583.703 Q2080.13 584.282 2082.65 584.282 Q2087.05 584.282 2089.34 582.546 Q2091.66 580.81 2091.66 577.5 Q2091.66 574.444 2089.5 572.731 Q2087.37 570.995 2083.55 570.995 L2079.53 570.995 L2079.53 567.153 L2083.74 567.153 Q2087.19 567.153 2089.02 565.787 Q2090.85 564.398 2090.85 561.805 Q2090.85 559.143 2088.95 557.731 Q2087.07 556.296 2083.55 556.296 Q2081.63 556.296 2079.43 556.713 Q2077.23 557.13 2074.6 558.009 L2074.6 553.842 Q2077.26 553.102 2079.57 552.731 Q2081.91 552.361 2083.97 552.361 Q2089.3 552.361 2092.4 554.792 Q2095.5 557.199 2095.5 561.319 Q2095.5 564.19 2093.86 566.18 Q2092.21 568.148 2089.18 568.912 Z" fill="#000000" fill-rule="nonzero" fill-opacity="1" /><path clip-path="url(#clip710)" d="M2103.9 551.574 L2107.61 551.574 Q2111.08 557.037 2112.79 562.268 Q2114.53 567.5 2114.53 572.662 Q2114.53 577.847 2112.79 583.102 Q2111.08 588.356 2107.61 593.796 L2103.9 593.796 Q2106.98 588.495 2108.48 583.264 Q2110.01 578.009 2110.01 572.662 Q2110.01 567.315 2108.48 562.106 Q2106.98 556.898 2103.9 551.574 Z" fill="#000000" fill-rule="nonzero" fill-opacity="1" /><path clip-path="url(#clip710)" d="M2135.98 572.662 L2148.46 572.662 L2148.46 576.458 L2135.98 576.458 L2135.98 572.662 Z" fill="#000000" fill-rule="nonzero" fill-opacity="1" /><path clip-path="url(#clip710)" d="M2179.41 587.546 L2166.22 552.986 L2171.1 552.986 L2182.05 582.083 L2193.02 552.986 L2197.88 552.986 L2184.71 587.546 L2179.41 587.546 Z" fill="#000000" fill-rule="nonzero" fill-opacity="1" /><path clip-path="url(#clip710)" d="M2202.93 552.986 L2207.6 552.986 L2207.6 583.611 L2224.43 583.611 L2224.43 587.546 L2202.93 587.546 L2202.93 552.986 Z" fill="#000000" fill-rule="nonzero" fill-opacity="1" /><path clip-path="url(#clip710)" d="M2229.34 552.986 L2236.31 552.986 L2245.13 576.504 L2253.99 552.986 L2260.96 552.986 L2260.96 587.546 L2256.4 587.546 L2256.4 557.199 L2247.49 580.903 L2242.79 580.903 L2233.88 557.199 L2233.88 587.546 L2229.34 587.546 L2229.34 552.986 Z" fill="#000000" fill-rule="nonzero" fill-opacity="1" /><polyline clip-path="url(#clip710)" style="stroke:#000000; stroke-linecap:round; stroke-linejoin:round; stroke-width:8; stroke-opacity:1; fill:none" points="1654.81,622.106 1792.51,622.106 "/>
<path clip-path="url(#clip710)" d="M1831.29 609.432 L1824.94 626.631 L1837.65 626.631 L1831.29 609.432 M1828.65 604.826 L1833.95 604.826 L1847.12 639.386 L1842.26 639.386 L1839.11 630.52 L1823.53 630.52 L1820.38 639.386 L1815.45 639.386 L1828.65 604.826 Z" fill="#000000" fill-rule="nonzero" fill-opacity="1" /><path clip-path="url(#clip710)" d="M1873.32 625.358 L1873.32 627.442 L1853.74 627.442 Q1854.02 631.84 1856.38 634.155 Q1858.76 636.446 1863 636.446 Q1865.45 636.446 1867.75 635.844 Q1870.06 635.243 1872.33 634.039 L1872.33 638.067 Q1870.04 639.039 1867.63 639.548 Q1865.22 640.057 1862.75 640.057 Q1856.54 640.057 1852.91 636.446 Q1849.3 632.835 1849.3 626.678 Q1849.3 620.312 1852.72 616.585 Q1856.17 612.835 1862 612.835 Q1867.24 612.835 1870.27 616.215 Q1873.32 619.571 1873.32 625.358 M1869.06 624.108 Q1869.02 620.613 1867.1 618.53 Q1865.2 616.446 1862.05 616.446 Q1858.49 616.446 1856.33 618.46 Q1854.2 620.474 1853.88 624.131 L1869.06 624.108 Z" fill="#000000" fill-rule="nonzero" fill-opacity="1" /><path clip-path="url(#clip710)" d="M1895.34 617.442 Q1894.62 617.025 1893.76 616.84 Q1892.93 616.632 1891.91 616.632 Q1888.3 616.632 1886.36 618.993 Q1884.44 621.331 1884.44 625.729 L1884.44 639.386 L1880.15 639.386 L1880.15 613.46 L1884.44 613.46 L1884.44 617.488 Q1885.78 615.127 1887.93 613.993 Q1890.08 612.835 1893.16 612.835 Q1893.6 612.835 1894.13 612.905 Q1894.67 612.951 1895.31 613.067 L1895.34 617.442 Z" fill="#000000" fill-rule="nonzero" fill-opacity="1" /><path clip-path="url(#clip710)" d="M1908.81 616.446 Q1905.38 616.446 1903.39 619.131 Q1901.4 621.794 1901.4 626.446 Q1901.4 631.099 1903.37 633.784 Q1905.36 636.446 1908.81 636.446 Q1912.21 636.446 1914.2 633.761 Q1916.19 631.076 1916.19 626.446 Q1916.19 621.84 1914.2 619.155 Q1912.21 616.446 1908.81 616.446 M1908.81 612.835 Q1914.37 612.835 1917.54 616.446 Q1920.71 620.057 1920.71 626.446 Q1920.71 632.812 1917.54 636.446 Q1914.37 640.057 1908.81 640.057 Q1903.23 640.057 1900.06 636.446 Q1896.91 632.812 1896.91 626.446 Q1896.91 620.057 1900.06 616.446 Q1903.23 612.835 1908.81 612.835 Z" fill="#000000" fill-rule="nonzero" fill-opacity="1" /><path clip-path="url(#clip710)" d="M1932.63 622.881 L1932.63 635.543 L1940.13 635.543 Q1943.9 635.543 1945.71 633.993 Q1947.54 632.418 1947.54 629.201 Q1947.54 625.96 1945.71 624.432 Q1943.9 622.881 1940.13 622.881 L1932.63 622.881 M1932.63 608.669 L1932.63 619.085 L1939.55 619.085 Q1942.98 619.085 1944.64 617.812 Q1946.33 616.516 1946.33 613.877 Q1946.33 611.261 1944.64 609.965 Q1942.98 608.669 1939.55 608.669 L1932.63 608.669 M1927.95 604.826 L1939.9 604.826 Q1945.24 604.826 1948.14 607.048 Q1951.03 609.27 1951.03 613.368 Q1951.03 616.539 1949.55 618.414 Q1948.07 620.289 1945.2 620.752 Q1948.65 621.493 1950.55 623.854 Q1952.47 626.192 1952.47 629.71 Q1952.47 634.34 1949.32 636.863 Q1946.17 639.386 1940.36 639.386 L1927.95 639.386 L1927.95 604.826 Z" fill="#000000" fill-rule="nonzero" fill-opacity="1" /><path clip-path="url(#clip710)" d="M1982.47 625.358 L1982.47 627.442 L1962.88 627.442 Q1963.16 631.84 1965.52 634.155 Q1967.91 636.446 1972.14 636.446 Q1974.6 636.446 1976.89 635.844 Q1979.2 635.243 1981.47 634.039 L1981.47 638.067 Q1979.18 639.039 1976.77 639.548 Q1974.37 640.057 1971.89 640.057 Q1965.68 640.057 1962.05 636.446 Q1958.44 632.835 1958.44 626.678 Q1958.44 620.312 1961.87 616.585 Q1965.31 612.835 1971.15 612.835 Q1976.38 612.835 1979.41 616.215 Q1982.47 619.571 1982.47 625.358 M1978.21 624.108 Q1978.16 620.613 1976.24 618.53 Q1974.34 616.446 1971.19 616.446 Q1967.63 616.446 1965.48 618.46 Q1963.35 620.474 1963.02 624.131 L1978.21 624.108 Z" fill="#000000" fill-rule="nonzero" fill-opacity="1" /><path clip-path="url(#clip710)" d="M2001.24 626.354 Q1996.08 626.354 1994.09 627.534 Q1992.1 628.715 1992.1 631.562 Q1992.1 633.83 1993.58 635.173 Q1995.08 636.493 1997.65 636.493 Q2001.19 636.493 2003.32 633.993 Q2005.48 631.469 2005.48 627.303 L2005.48 626.354 L2001.24 626.354 M2009.74 624.594 L2009.74 639.386 L2005.48 639.386 L2005.48 635.451 Q2004.02 637.812 2001.84 638.946 Q1999.67 640.057 1996.52 640.057 Q1992.54 640.057 1990.18 637.835 Q1987.84 635.59 1987.84 631.84 Q1987.84 627.465 1990.75 625.243 Q1993.69 623.02 1999.5 623.02 L2005.48 623.02 L2005.48 622.604 Q2005.48 619.664 2003.53 618.067 Q2001.61 616.446 1998.11 616.446 Q1995.89 616.446 1993.79 616.979 Q1991.68 617.511 1989.74 618.576 L1989.74 614.641 Q1992.07 613.738 1994.27 613.298 Q1996.47 612.835 1998.55 612.835 Q2004.18 612.835 2006.96 615.752 Q2009.74 618.669 2009.74 624.594 Z" fill="#000000" fill-rule="nonzero" fill-opacity="1" /><path clip-path="url(#clip710)" d="M2038.69 618.437 Q2040.29 615.567 2042.51 614.201 Q2044.74 612.835 2047.74 612.835 Q2051.8 612.835 2053.99 615.682 Q2056.19 618.506 2056.19 623.738 L2056.19 639.386 L2051.91 639.386 L2051.91 623.877 Q2051.91 620.15 2050.59 618.344 Q2049.27 616.539 2046.56 616.539 Q2043.25 616.539 2041.33 618.738 Q2039.41 620.937 2039.41 624.733 L2039.41 639.386 L2035.13 639.386 L2035.13 623.877 Q2035.13 620.127 2033.81 618.344 Q2032.49 616.539 2029.74 616.539 Q2026.47 616.539 2024.55 618.761 Q2022.63 620.96 2022.63 624.733 L2022.63 639.386 L2018.35 639.386 L2018.35 613.46 L2022.63 613.46 L2022.63 617.488 Q2024.09 615.104 2026.12 613.969 Q2028.16 612.835 2030.96 612.835 Q2033.79 612.835 2035.75 614.27 Q2037.74 615.706 2038.69 618.437 Z" fill="#000000" fill-rule="nonzero" fill-opacity="1" /><path clip-path="url(#clip710)" d="M2081.22 614.224 L2081.22 618.252 Q2079.41 617.326 2077.47 616.863 Q2075.52 616.4 2073.44 616.4 Q2070.27 616.4 2068.67 617.372 Q2067.1 618.344 2067.1 620.289 Q2067.1 621.77 2068.23 622.627 Q2069.36 623.46 2072.79 624.224 L2074.25 624.548 Q2078.79 625.52 2080.68 627.303 Q2082.61 629.062 2082.61 632.233 Q2082.61 635.844 2079.73 637.951 Q2076.89 640.057 2071.89 640.057 Q2069.8 640.057 2067.54 639.641 Q2065.29 639.247 2062.79 638.437 L2062.79 634.039 Q2065.15 635.266 2067.44 635.891 Q2069.73 636.493 2071.98 636.493 Q2074.99 636.493 2076.61 635.474 Q2078.23 634.432 2078.23 632.557 Q2078.23 630.821 2077.05 629.895 Q2075.89 628.969 2071.93 628.113 L2070.45 627.766 Q2066.49 626.932 2064.73 625.219 Q2062.98 623.483 2062.98 620.474 Q2062.98 616.817 2065.57 614.826 Q2068.16 612.835 2072.93 612.835 Q2075.29 612.835 2077.37 613.182 Q2079.46 613.53 2081.22 614.224 Z" fill="#000000" fill-rule="nonzero" fill-opacity="1" /><path clip-path="url(#clip710)" d="M287.366 1423.18 L2352.76 1423.18 L2352.76 853.724 L287.366 853.724  Z" fill="#ffffff" fill-rule="evenodd" fill-opacity="1"/>
<defs>
  <clipPath id="clip713">
    <rect x="287" y="853" width="2066" height="570"/>
  </clipPath>
</defs>
<polyline clip-path="url(#clip713)" style="stroke:#000000; stroke-linecap:round; stroke-linejoin:round; stroke-width:2; stroke-opacity:0.1; fill:none" points="287.366,1423.18 287.366,853.724 "/>
<polyline clip-path="url(#clip713)" style="stroke:#000000; stroke-linecap:round; stroke-linejoin:round; stroke-width:2; stroke-opacity:0.1; fill:none" points="975.829,1423.18 975.829,853.724 "/>
<polyline clip-path="url(#clip713)" style="stroke:#000000; stroke-linecap:round; stroke-linejoin:round; stroke-width:2; stroke-opacity:0.1; fill:none" points="1664.29,1423.18 1664.29,853.724 "/>
<polyline clip-path="url(#clip713)" style="stroke:#000000; stroke-linecap:round; stroke-linejoin:round; stroke-width:2; stroke-opacity:0.1; fill:none" points="2352.76,1423.18 2352.76,853.724 "/>
<polyline clip-path="url(#clip713)" style="stroke:#000000; stroke-linecap:round; stroke-linejoin:round; stroke-width:2; stroke-opacity:0.1; fill:none" points="287.366,1423.18 2352.76,1423.18 "/>
<polyline clip-path="url(#clip713)" style="stroke:#000000; stroke-linecap:round; stroke-linejoin:round; stroke-width:2; stroke-opacity:0.1; fill:none" points="287.366,1233.36 2352.76,1233.36 "/>
<polyline clip-path="url(#clip713)" style="stroke:#000000; stroke-linecap:round; stroke-linejoin:round; stroke-width:2; stroke-opacity:0.1; fill:none" points="287.366,1043.54 2352.76,1043.54 "/>
<polyline clip-path="url(#clip713)" style="stroke:#000000; stroke-linecap:round; stroke-linejoin:round; stroke-width:2; stroke-opacity:0.1; fill:none" points="287.366,853.724 2352.76,853.724 "/>
<polyline clip-path="url(#clip710)" style="stroke:#000000; stroke-linecap:round; stroke-linejoin:round; stroke-width:4; stroke-opacity:1; fill:none" points="287.366,1423.18 2352.76,1423.18 "/>
<polyline clip-path="url(#clip710)" style="stroke:#000000; stroke-linecap:round; stroke-linejoin:round; stroke-width:4; stroke-opacity:1; fill:none" points="287.366,1423.18 287.366,1404.28 "/>
<polyline clip-path="url(#clip710)" style="stroke:#000000; stroke-linecap:round; stroke-linejoin:round; stroke-width:4; stroke-opacity:1; fill:none" points="975.829,1423.18 975.829,1404.28 "/>
<polyline clip-path="url(#clip710)" style="stroke:#000000; stroke-linecap:round; stroke-linejoin:round; stroke-width:4; stroke-opacity:1; fill:none" points="1664.29,1423.18 1664.29,1404.28 "/>
<polyline clip-path="url(#clip710)" style="stroke:#000000; stroke-linecap:round; stroke-linejoin:round; stroke-width:4; stroke-opacity:1; fill:none" points="2352.76,1423.18 2352.76,1404.28 "/>
<path clip-path="url(#clip710)" d="M287.366 1454.1 Q283.755 1454.1 281.926 1457.66 Q280.121 1461.2 280.121 1468.33 Q280.121 1475.44 281.926 1479.01 Q283.755 1482.55 287.366 1482.55 Q291 1482.55 292.806 1479.01 Q294.634 1475.44 294.634 1468.33 Q294.634 1461.2 292.806 1457.66 Q291 1454.1 287.366 1454.1 M287.366 1450.39 Q293.176 1450.39 296.232 1455 Q299.31 1459.58 299.31 1468.33 Q299.31 1477.06 296.232 1481.67 Q293.176 1486.25 287.366 1486.25 Q281.556 1486.25 278.477 1481.67 Q275.422 1477.06 275.422 1468.33 Q275.422 1459.58 278.477 1455 Q281.556 1450.39 287.366 1450.39 Z" fill="#000000" fill-rule="nonzero" fill-opacity="1" /><path clip-path="url(#clip710)" d="M950.517 1481.64 L958.156 1481.64 L958.156 1455.28 L949.846 1456.95 L949.846 1452.69 L958.109 1451.02 L962.785 1451.02 L962.785 1481.64 L970.424 1481.64 L970.424 1485.58 L950.517 1485.58 L950.517 1481.64 Z" fill="#000000" fill-rule="nonzero" fill-opacity="1" /><path clip-path="url(#clip710)" d="M989.869 1454.1 Q986.257 1454.1 984.429 1457.66 Q982.623 1461.2 982.623 1468.33 Q982.623 1475.44 984.429 1479.01 Q986.257 1482.55 989.869 1482.55 Q993.503 1482.55 995.308 1479.01 Q997.137 1475.44 997.137 1468.33 Q997.137 1461.2 995.308 1457.66 Q993.503 1454.1 989.869 1454.1 M989.869 1450.39 Q995.679 1450.39 998.734 1455 Q1001.81 1459.58 1001.81 1468.33 Q1001.81 1477.06 998.734 1481.67 Q995.679 1486.25 989.869 1486.25 Q984.058 1486.25 980.98 1481.67 Q977.924 1477.06 977.924 1468.33 Q977.924 1459.58 980.98 1455 Q984.058 1450.39 989.869 1450.39 Z" fill="#000000" fill-rule="nonzero" fill-opacity="1" /><path clip-path="url(#clip710)" d="M1643.07 1481.64 L1659.39 1481.64 L1659.39 1485.58 L1637.44 1485.58 L1637.44 1481.64 Q1640.1 1478.89 1644.69 1474.26 Q1649.29 1469.61 1650.47 1468.27 Q1652.72 1465.74 1653.6 1464.01 Q1654.5 1462.25 1654.5 1460.56 Q1654.5 1457.8 1652.56 1456.07 Q1650.64 1454.33 1647.53 1454.33 Q1645.33 1454.33 1642.88 1455.09 Q1640.45 1455.86 1637.67 1457.41 L1637.67 1452.69 Q1640.5 1451.55 1642.95 1450.97 Q1645.4 1450.39 1647.44 1450.39 Q1652.81 1450.39 1656.01 1453.08 Q1659.2 1455.77 1659.2 1460.26 Q1659.2 1462.39 1658.39 1464.31 Q1657.6 1466.2 1655.5 1468.8 Q1654.92 1469.47 1651.82 1472.69 Q1648.71 1475.88 1643.07 1481.64 Z" fill="#000000" fill-rule="nonzero" fill-opacity="1" /><path clip-path="url(#clip710)" d="M1679.2 1454.1 Q1675.59 1454.1 1673.76 1457.66 Q1671.95 1461.2 1671.95 1468.33 Q1671.95 1475.44 1673.76 1479.01 Q1675.59 1482.55 1679.2 1482.55 Q1682.83 1482.55 1684.64 1479.01 Q1686.47 1475.44 1686.47 1468.33 Q1686.47 1461.2 1684.64 1457.66 Q1682.83 1454.1 1679.2 1454.1 M1679.2 1450.39 Q1685.01 1450.39 1688.07 1455 Q1691.14 1459.58 1691.14 1468.33 Q1691.14 1477.06 1688.07 1481.67 Q1685.01 1486.25 1679.2 1486.25 Q1673.39 1486.25 1670.31 1481.67 Q1667.26 1477.06 1667.26 1468.33 Q1667.26 1459.58 1670.31 1455 Q1673.39 1450.39 1679.2 1450.39 Z" fill="#000000" fill-rule="nonzero" fill-opacity="1" /><path clip-path="url(#clip710)" d="M2341.6 1466.95 Q2344.96 1467.66 2346.83 1469.93 Q2348.73 1472.2 2348.73 1475.53 Q2348.73 1480.65 2345.21 1483.45 Q2341.69 1486.25 2335.21 1486.25 Q2333.03 1486.25 2330.72 1485.81 Q2328.43 1485.39 2325.97 1484.54 L2325.97 1480.02 Q2327.92 1481.16 2330.23 1481.74 Q2332.55 1482.32 2335.07 1482.32 Q2339.47 1482.32 2341.76 1480.58 Q2344.08 1478.84 2344.08 1475.53 Q2344.08 1472.48 2341.92 1470.77 Q2339.79 1469.03 2335.97 1469.03 L2331.95 1469.03 L2331.95 1465.19 L2336.16 1465.19 Q2339.61 1465.19 2341.44 1463.82 Q2343.27 1462.43 2343.27 1459.84 Q2343.27 1457.18 2341.37 1455.77 Q2339.49 1454.33 2335.97 1454.33 Q2334.05 1454.33 2331.85 1454.75 Q2329.65 1455.16 2327.02 1456.04 L2327.02 1451.88 Q2329.68 1451.14 2331.99 1450.77 Q2334.33 1450.39 2336.39 1450.39 Q2341.71 1450.39 2344.82 1452.83 Q2347.92 1455.23 2347.92 1459.35 Q2347.92 1462.22 2346.27 1464.21 Q2344.63 1466.18 2341.6 1466.95 Z" fill="#000000" fill-rule="nonzero" fill-opacity="1" /><path clip-path="url(#clip710)" d="M2367.59 1454.1 Q2363.98 1454.1 2362.15 1457.66 Q2360.35 1461.2 2360.35 1468.33 Q2360.35 1475.44 2362.15 1479.01 Q2363.98 1482.55 2367.59 1482.55 Q2371.23 1482.55 2373.03 1479.01 Q2374.86 1475.44 2374.86 1468.33 Q2374.86 1461.2 2373.03 1457.66 Q2371.23 1454.1 2367.59 1454.1 M2367.59 1450.39 Q2373.4 1450.39 2376.46 1455 Q2379.54 1459.58 2379.54 1468.33 Q2379.54 1477.06 2376.46 1481.67 Q2373.4 1486.25 2367.59 1486.25 Q2361.78 1486.25 2358.7 1481.67 Q2355.65 1477.06 2355.65 1468.33 Q2355.65 1459.58 2358.7 1455 Q2361.78 1450.39 2367.59 1450.39 Z" fill="#000000" fill-rule="nonzero" fill-opacity="1" /><path clip-path="url(#clip710)" d="M1106.17 1526.86 L1097.45 1550.51 L1114.93 1550.51 L1106.17 1526.86 M1102.54 1520.52 L1109.83 1520.52 L1127.94 1568.04 L1121.26 1568.04 L1116.93 1555.85 L1095.51 1555.85 L1091.18 1568.04 L1084.4 1568.04 L1102.54 1520.52 Z" fill="#000000" fill-rule="nonzero" fill-opacity="1" /><path clip-path="url(#clip710)" d="M1134.63 1532.4 L1140.48 1532.4 L1140.48 1568.04 L1134.63 1568.04 L1134.63 1532.4 M1134.63 1518.52 L1140.48 1518.52 L1140.48 1525.93 L1134.63 1525.93 L1134.63 1518.52 Z" fill="#000000" fill-rule="nonzero" fill-opacity="1" /><path clip-path="url(#clip710)" d="M1173.4 1537.87 Q1172.41 1537.3 1171.23 1537.04 Q1170.08 1536.76 1168.68 1536.76 Q1163.72 1536.76 1161.05 1540 Q1158.4 1543.22 1158.4 1549.27 L1158.4 1568.04 L1152.52 1568.04 L1152.52 1532.4 L1158.4 1532.4 L1158.4 1537.93 Q1160.25 1534.69 1163.21 1533.13 Q1166.17 1531.54 1170.4 1531.54 Q1171.01 1531.54 1171.74 1531.63 Q1172.47 1531.7 1173.36 1531.85 L1173.4 1537.87 Z" fill="#000000" fill-rule="nonzero" fill-opacity="1" /><path clip-path="url(#clip710)" d="M1202.26 1533.45 L1202.26 1538.98 Q1199.78 1537.71 1197.11 1537.07 Q1194.43 1536.44 1191.57 1536.44 Q1187.21 1536.44 1185.01 1537.77 Q1182.85 1539.11 1182.85 1541.79 Q1182.85 1543.82 1184.41 1545 Q1185.97 1546.15 1190.68 1547.2 L1192.68 1547.64 Q1198.92 1548.98 1201.53 1551.43 Q1204.17 1553.85 1204.17 1558.21 Q1204.17 1563.17 1200.23 1566.07 Q1196.31 1568.97 1189.44 1568.97 Q1186.57 1568.97 1183.45 1568.39 Q1180.37 1567.85 1176.93 1566.74 L1176.93 1560.69 Q1180.17 1562.38 1183.33 1563.24 Q1186.48 1564.07 1189.56 1564.07 Q1193.7 1564.07 1195.93 1562.66 Q1198.16 1561.23 1198.16 1558.65 Q1198.16 1556.27 1196.53 1554.99 Q1194.94 1553.72 1189.5 1552.54 L1187.46 1552.07 Q1182.02 1550.92 1179.6 1548.56 Q1177.18 1546.18 1177.18 1542.04 Q1177.18 1537.01 1180.75 1534.27 Q1184.31 1531.54 1190.87 1531.54 Q1194.12 1531.54 1196.98 1532.01 Q1199.84 1532.49 1202.26 1533.45 Z" fill="#000000" fill-rule="nonzero" fill-opacity="1" /><path clip-path="url(#clip710)" d="M1219.16 1562.7 L1219.16 1581.6 L1213.28 1581.6 L1213.28 1532.4 L1219.16 1532.4 L1219.16 1537.81 Q1221.01 1534.62 1223.81 1533.1 Q1226.64 1531.54 1230.56 1531.54 Q1237.05 1531.54 1241.09 1536.69 Q1245.17 1541.85 1245.17 1550.25 Q1245.17 1558.65 1241.09 1563.81 Q1237.05 1568.97 1230.56 1568.97 Q1226.64 1568.97 1223.81 1567.44 Q1221.01 1565.88 1219.16 1562.7 M1239.09 1550.25 Q1239.09 1543.79 1236.42 1540.13 Q1233.77 1536.44 1229.13 1536.44 Q1224.48 1536.44 1221.81 1540.13 Q1219.16 1543.79 1219.16 1550.25 Q1219.16 1556.71 1221.81 1560.4 Q1224.48 1564.07 1229.13 1564.07 Q1233.77 1564.07 1236.42 1560.4 Q1239.09 1556.71 1239.09 1550.25 Z" fill="#000000" fill-rule="nonzero" fill-opacity="1" /><path clip-path="url(#clip710)" d="M1285.37 1548.76 L1285.37 1551.62 L1258.44 1551.62 Q1258.82 1557.67 1262.07 1560.85 Q1265.35 1564 1271.17 1564 Q1274.55 1564 1277.7 1563.17 Q1280.88 1562.35 1284 1560.69 L1284 1566.23 Q1280.85 1567.57 1277.54 1568.27 Q1274.23 1568.97 1270.82 1568.97 Q1262.29 1568.97 1257.3 1564 Q1252.33 1559.04 1252.33 1550.57 Q1252.33 1541.82 1257.04 1536.69 Q1261.78 1531.54 1269.8 1531.54 Q1277 1531.54 1281.17 1536.18 Q1285.37 1540.8 1285.37 1548.76 M1279.51 1547.04 Q1279.45 1542.23 1276.81 1539.37 Q1274.2 1536.5 1269.87 1536.5 Q1264.97 1536.5 1262.01 1539.27 Q1259.08 1542.04 1258.63 1547.07 L1279.51 1547.04 Z" fill="#000000" fill-rule="nonzero" fill-opacity="1" /><path clip-path="url(#clip710)" d="M1325.47 1548.76 L1325.47 1551.62 L1298.54 1551.62 Q1298.93 1557.67 1302.17 1560.85 Q1305.45 1564 1311.28 1564 Q1314.65 1564 1317.8 1563.17 Q1320.98 1562.35 1324.1 1560.69 L1324.1 1566.23 Q1320.95 1567.57 1317.64 1568.27 Q1314.33 1568.97 1310.93 1568.97 Q1302.4 1568.97 1297.4 1564 Q1292.43 1559.04 1292.43 1550.57 Q1292.43 1541.82 1297.14 1536.69 Q1301.89 1531.54 1309.91 1531.54 Q1317.1 1531.54 1321.27 1536.18 Q1325.47 1540.8 1325.47 1548.76 M1319.62 1547.04 Q1319.55 1542.23 1316.91 1539.37 Q1314.3 1536.5 1309.97 1536.5 Q1305.07 1536.5 1302.11 1539.27 Q1299.18 1542.04 1298.74 1547.07 L1319.62 1547.04 Z" fill="#000000" fill-rule="nonzero" fill-opacity="1" /><path clip-path="url(#clip710)" d="M1358.54 1537.81 L1358.54 1518.52 L1364.4 1518.52 L1364.4 1568.04 L1358.54 1568.04 L1358.54 1562.7 Q1356.7 1565.88 1353.86 1567.44 Q1351.06 1568.97 1347.12 1568.97 Q1340.65 1568.97 1336.58 1563.81 Q1332.54 1558.65 1332.54 1550.25 Q1332.54 1541.85 1336.58 1536.69 Q1340.65 1531.54 1347.12 1531.54 Q1351.06 1531.54 1353.86 1533.1 Q1356.7 1534.62 1358.54 1537.81 M1338.59 1550.25 Q1338.59 1556.71 1341.23 1560.4 Q1343.9 1564.07 1348.55 1564.07 Q1353.19 1564.07 1355.87 1560.4 Q1358.54 1556.71 1358.54 1550.25 Q1358.54 1543.79 1355.87 1540.13 Q1353.19 1536.44 1348.55 1536.44 Q1343.9 1536.44 1341.23 1540.13 Q1338.59 1543.79 1338.59 1550.25 Z" fill="#000000" fill-rule="nonzero" fill-opacity="1" /><path clip-path="url(#clip710)" d="M1396.64 1518.52 L1410.14 1518.52 L1410.14 1523.07 L1402.5 1523.07 L1402.5 1572.09 L1410.14 1572.09 L1410.14 1576.64 L1396.64 1576.64 L1396.64 1518.52 Z" fill="#000000" fill-rule="nonzero" fill-opacity="1" /><path clip-path="url(#clip710)" d="M1450.37 1539.24 Q1452.56 1535.29 1455.62 1533.41 Q1458.67 1531.54 1462.81 1531.54 Q1468.38 1531.54 1471.41 1535.45 Q1474.43 1539.33 1474.43 1546.53 L1474.43 1568.04 L1468.54 1568.04 L1468.54 1546.72 Q1468.54 1541.59 1466.73 1539.11 Q1464.91 1536.63 1461.19 1536.63 Q1456.64 1536.63 1454 1539.65 Q1451.35 1542.68 1451.35 1547.9 L1451.35 1568.04 L1445.47 1568.04 L1445.47 1546.72 Q1445.47 1541.56 1443.65 1539.11 Q1441.84 1536.63 1438.05 1536.63 Q1433.56 1536.63 1430.92 1539.68 Q1428.28 1542.71 1428.28 1547.9 L1428.28 1568.04 L1422.39 1568.04 L1422.39 1532.4 L1428.28 1532.4 L1428.28 1537.93 Q1430.28 1534.66 1433.08 1533.1 Q1435.88 1531.54 1439.74 1531.54 Q1443.62 1531.54 1446.32 1533.51 Q1449.06 1535.48 1450.37 1539.24 Z" fill="#000000" fill-rule="nonzero" fill-opacity="1" /><path clip-path="url(#clip710)" d="M1496.52 1520.52 L1501.93 1520.52 L1485.38 1574.09 L1479.97 1574.09 L1496.52 1520.52 Z" fill="#000000" fill-rule="nonzero" fill-opacity="1" /><path clip-path="url(#clip710)" d="M1530.8 1533.45 L1530.8 1538.98 Q1528.31 1537.71 1525.64 1537.07 Q1522.97 1536.44 1520.1 1536.44 Q1515.74 1536.44 1513.55 1537.77 Q1511.38 1539.11 1511.38 1541.79 Q1511.38 1543.82 1512.94 1545 Q1514.5 1546.15 1519.21 1547.2 L1521.22 1547.64 Q1527.46 1548.98 1530.07 1551.43 Q1532.71 1553.85 1532.71 1558.21 Q1532.71 1563.17 1528.76 1566.07 Q1524.85 1568.97 1517.97 1568.97 Q1515.11 1568.97 1511.99 1568.39 Q1508.9 1567.85 1505.46 1566.74 L1505.46 1560.69 Q1508.71 1562.38 1511.86 1563.24 Q1515.01 1564.07 1518.1 1564.07 Q1522.24 1564.07 1524.46 1562.66 Q1526.69 1561.23 1526.69 1558.65 Q1526.69 1556.27 1525.07 1554.99 Q1523.48 1553.72 1518.03 1552.54 L1516 1552.07 Q1510.55 1550.92 1508.14 1548.56 Q1505.72 1546.18 1505.72 1542.04 Q1505.72 1537.01 1509.28 1534.27 Q1512.85 1531.54 1519.4 1531.54 Q1522.65 1531.54 1525.51 1532.01 Q1528.38 1532.49 1530.8 1533.45 Z" fill="#000000" fill-rule="nonzero" fill-opacity="1" /><path clip-path="url(#clip710)" d="M1555.72 1518.52 L1555.72 1576.64 L1542.22 1576.64 L1542.22 1572.09 L1549.83 1572.09 L1549.83 1523.07 L1542.22 1523.07 L1542.22 1518.52 L1555.72 1518.52 Z" fill="#000000" fill-rule="nonzero" fill-opacity="1" /><polyline clip-path="url(#clip710)" style="stroke:#000000; stroke-linecap:round; stroke-linejoin:round; stroke-width:4; stroke-opacity:1; fill:none" points="287.366,1423.18 287.366,853.724 "/>
<polyline clip-path="url(#clip710)" style="stroke:#000000; stroke-linecap:round; stroke-linejoin:round; stroke-width:4; stroke-opacity:1; fill:none" points="287.366,1423.18 306.264,1423.18 "/>
<polyline clip-path="url(#clip710)" style="stroke:#000000; stroke-linecap:round; stroke-linejoin:round; stroke-width:4; stroke-opacity:1; fill:none" points="287.366,1233.36 306.264,1233.36 "/>
<polyline clip-path="url(#clip710)" style="stroke:#000000; stroke-linecap:round; stroke-linejoin:round; stroke-width:4; stroke-opacity:1; fill:none" points="287.366,1043.54 306.264,1043.54 "/>
<polyline clip-path="url(#clip710)" style="stroke:#000000; stroke-linecap:round; stroke-linejoin:round; stroke-width:4; stroke-opacity:1; fill:none" points="287.366,853.724 306.264,853.724 "/>
<path clip-path="url(#clip710)" d="M114.26 1423.63 L143.936 1423.63 L143.936 1427.57 L114.26 1427.57 L114.26 1423.63 Z" fill="#000000" fill-rule="nonzero" fill-opacity="1" /><path clip-path="url(#clip710)" d="M164.028 1408.98 Q160.417 1408.98 158.589 1412.54 Q156.783 1416.08 156.783 1423.21 Q156.783 1430.32 158.589 1433.89 Q160.417 1437.43 164.028 1437.43 Q167.663 1437.43 169.468 1433.89 Q171.297 1430.32 171.297 1423.21 Q171.297 1416.08 169.468 1412.54 Q167.663 1408.98 164.028 1408.98 M164.028 1405.27 Q169.839 1405.27 172.894 1409.88 Q175.973 1414.46 175.973 1423.21 Q175.973 1431.94 172.894 1436.55 Q169.839 1441.13 164.028 1441.13 Q158.218 1441.13 155.14 1436.55 Q152.084 1431.94 152.084 1423.21 Q152.084 1414.46 155.14 1409.88 Q158.218 1405.27 164.028 1405.27 Z" fill="#000000" fill-rule="nonzero" fill-opacity="1" /><path clip-path="url(#clip710)" d="M184.19 1434.58 L189.075 1434.58 L189.075 1440.46 L184.19 1440.46 L184.19 1434.58 Z" fill="#000000" fill-rule="nonzero" fill-opacity="1" /><path clip-path="url(#clip710)" d="M199.306 1405.9 L217.662 1405.9 L217.662 1409.84 L203.588 1409.84 L203.588 1418.31 Q204.607 1417.96 205.625 1417.8 Q206.644 1417.61 207.662 1417.61 Q213.449 1417.61 216.829 1420.78 Q220.209 1423.96 220.209 1429.37 Q220.209 1434.95 216.736 1438.05 Q213.264 1441.13 206.945 1441.13 Q204.769 1441.13 202.5 1440.76 Q200.255 1440.39 197.848 1439.65 L197.848 1434.95 Q199.931 1436.08 202.153 1436.64 Q204.375 1437.2 206.852 1437.2 Q210.857 1437.2 213.195 1435.09 Q215.533 1432.98 215.533 1429.37 Q215.533 1425.76 213.195 1423.65 Q210.857 1421.55 206.852 1421.55 Q204.977 1421.55 203.102 1421.96 Q201.25 1422.38 199.306 1423.26 L199.306 1405.9 Z" fill="#000000" fill-rule="nonzero" fill-opacity="1" /><path clip-path="url(#clip710)" d="M239.422 1408.98 Q235.81 1408.98 233.982 1412.54 Q232.176 1416.08 232.176 1423.21 Q232.176 1430.32 233.982 1433.89 Q235.81 1437.43 239.422 1437.43 Q243.056 1437.43 244.861 1433.89 Q246.69 1430.32 246.69 1423.21 Q246.69 1416.08 244.861 1412.54 Q243.056 1408.98 239.422 1408.98 M239.422 1405.27 Q245.232 1405.27 248.287 1409.88 Q251.366 1414.46 251.366 1423.21 Q251.366 1431.94 248.287 1436.55 Q245.232 1441.13 239.422 1441.13 Q233.611 1441.13 230.533 1436.55 Q227.477 1431.94 227.477 1423.21 Q227.477 1414.46 230.533 1409.88 Q233.611 1405.27 239.422 1405.27 Z" fill="#000000" fill-rule="nonzero" fill-opacity="1" /><path clip-path="url(#clip710)" d="M115.256 1233.81 L144.931 1233.81 L144.931 1237.75 L115.256 1237.75 L115.256 1233.81 Z" fill="#000000" fill-rule="nonzero" fill-opacity="1" /><path clip-path="url(#clip710)" d="M165.024 1219.16 Q161.413 1219.16 159.584 1222.72 Q157.778 1226.27 157.778 1233.4 Q157.778 1240.5 159.584 1244.07 Q161.413 1247.61 165.024 1247.61 Q168.658 1247.61 170.464 1244.07 Q172.292 1240.5 172.292 1233.4 Q172.292 1226.27 170.464 1222.72 Q168.658 1219.16 165.024 1219.16 M165.024 1215.46 Q170.834 1215.46 173.889 1220.06 Q176.968 1224.65 176.968 1233.4 Q176.968 1242.12 173.889 1246.73 Q170.834 1251.31 165.024 1251.31 Q159.214 1251.31 156.135 1246.73 Q153.079 1242.12 153.079 1233.4 Q153.079 1224.65 156.135 1220.06 Q159.214 1215.46 165.024 1215.46 Z" fill="#000000" fill-rule="nonzero" fill-opacity="1" /><path clip-path="url(#clip710)" d="M185.186 1244.76 L190.07 1244.76 L190.07 1250.64 L185.186 1250.64 L185.186 1244.76 Z" fill="#000000" fill-rule="nonzero" fill-opacity="1" /><path clip-path="url(#clip710)" d="M204.283 1246.71 L220.602 1246.71 L220.602 1250.64 L198.658 1250.64 L198.658 1246.71 Q201.32 1243.95 205.903 1239.32 Q210.51 1234.67 211.69 1233.33 Q213.936 1230.8 214.815 1229.07 Q215.718 1227.31 215.718 1225.62 Q215.718 1222.86 213.774 1221.13 Q211.852 1219.39 208.75 1219.39 Q206.551 1219.39 204.098 1220.16 Q201.667 1220.92 198.889 1222.47 L198.889 1217.75 Q201.713 1216.61 204.167 1216.03 Q206.621 1215.46 208.658 1215.46 Q214.028 1215.46 217.223 1218.14 Q220.417 1220.83 220.417 1225.32 Q220.417 1227.45 219.607 1229.37 Q218.82 1231.27 216.713 1233.86 Q216.135 1234.53 213.033 1237.75 Q209.931 1240.94 204.283 1246.71 Z" fill="#000000" fill-rule="nonzero" fill-opacity="1" /><path clip-path="url(#clip710)" d="M230.463 1216.08 L248.82 1216.08 L248.82 1220.02 L234.746 1220.02 L234.746 1228.49 Q235.764 1228.14 236.783 1227.98 Q237.801 1227.79 238.82 1227.79 Q244.607 1227.79 247.986 1230.97 Q251.366 1234.14 251.366 1239.55 Q251.366 1245.13 247.894 1248.23 Q244.421 1251.31 238.102 1251.31 Q235.926 1251.31 233.658 1250.94 Q231.412 1250.57 229.005 1249.83 L229.005 1245.13 Q231.088 1246.27 233.31 1246.82 Q235.533 1247.38 238.009 1247.38 Q242.014 1247.38 244.352 1245.27 Q246.69 1243.16 246.69 1239.55 Q246.69 1235.94 244.352 1233.84 Q242.014 1231.73 238.009 1231.73 Q236.135 1231.73 234.26 1232.15 Q232.408 1232.56 230.463 1233.44 L230.463 1216.08 Z" fill="#000000" fill-rule="nonzero" fill-opacity="1" /><path clip-path="url(#clip710)" d="M164.028 1029.34 Q160.417 1029.34 158.589 1032.91 Q156.783 1036.45 156.783 1043.58 Q156.783 1050.68 158.589 1054.25 Q160.417 1057.79 164.028 1057.79 Q167.663 1057.79 169.468 1054.25 Q171.297 1050.68 171.297 1043.58 Q171.297 1036.45 169.468 1032.91 Q167.663 1029.34 164.028 1029.34 M164.028 1025.64 Q169.839 1025.64 172.894 1030.24 Q175.973 1034.83 175.973 1043.58 Q175.973 1052.3 172.894 1056.91 Q169.839 1061.49 164.028 1061.49 Q158.218 1061.49 155.14 1056.91 Q152.084 1052.3 152.084 1043.58 Q152.084 1034.83 155.14 1030.24 Q158.218 1025.64 164.028 1025.64 Z" fill="#000000" fill-rule="nonzero" fill-opacity="1" /><path clip-path="url(#clip710)" d="M184.19 1054.94 L189.075 1054.94 L189.075 1060.82 L184.19 1060.82 L184.19 1054.94 Z" fill="#000000" fill-rule="nonzero" fill-opacity="1" /><path clip-path="url(#clip710)" d="M209.26 1029.34 Q205.649 1029.34 203.82 1032.91 Q202.014 1036.45 202.014 1043.58 Q202.014 1050.68 203.82 1054.25 Q205.649 1057.79 209.26 1057.79 Q212.894 1057.79 214.699 1054.25 Q216.528 1050.68 216.528 1043.58 Q216.528 1036.45 214.699 1032.91 Q212.894 1029.34 209.26 1029.34 M209.26 1025.64 Q215.07 1025.64 218.125 1030.24 Q221.204 1034.83 221.204 1043.58 Q221.204 1052.3 218.125 1056.91 Q215.07 1061.49 209.26 1061.49 Q203.449 1061.49 200.371 1056.91 Q197.315 1052.3 197.315 1043.58 Q197.315 1034.83 200.371 1030.24 Q203.449 1025.64 209.26 1025.64 Z" fill="#000000" fill-rule="nonzero" fill-opacity="1" /><path clip-path="url(#clip710)" d="M239.422 1029.34 Q235.81 1029.34 233.982 1032.91 Q232.176 1036.45 232.176 1043.58 Q232.176 1050.68 233.982 1054.25 Q235.81 1057.79 239.422 1057.79 Q243.056 1057.79 244.861 1054.25 Q246.69 1050.68 246.69 1043.58 Q246.69 1036.45 244.861 1032.91 Q243.056 1029.34 239.422 1029.34 M239.422 1025.64 Q245.232 1025.64 248.287 1030.24 Q251.366 1034.83 251.366 1043.58 Q251.366 1052.3 248.287 1056.91 Q245.232 1061.49 239.422 1061.49 Q233.611 1061.49 230.533 1056.91 Q227.477 1052.3 227.477 1043.58 Q227.477 1034.83 230.533 1030.24 Q233.611 1025.64 239.422 1025.64 Z" fill="#000000" fill-rule="nonzero" fill-opacity="1" /><path clip-path="url(#clip710)" d="M165.024 839.523 Q161.413 839.523 159.584 843.088 Q157.778 846.629 157.778 853.759 Q157.778 860.865 159.584 864.43 Q161.413 867.972 165.024 867.972 Q168.658 867.972 170.464 864.43 Q172.292 860.865 172.292 853.759 Q172.292 846.629 170.464 843.088 Q168.658 839.523 165.024 839.523 M165.024 835.819 Q170.834 835.819 173.889 840.426 Q176.968 845.009 176.968 853.759 Q176.968 862.486 173.889 867.092 Q170.834 871.675 165.024 871.675 Q159.214 871.675 156.135 867.092 Q153.079 862.486 153.079 853.759 Q153.079 845.009 156.135 840.426 Q159.214 835.819 165.024 835.819 Z" fill="#000000" fill-rule="nonzero" fill-opacity="1" /><path clip-path="url(#clip710)" d="M185.186 865.124 L190.07 865.124 L190.07 871.004 L185.186 871.004 L185.186 865.124 Z" fill="#000000" fill-rule="nonzero" fill-opacity="1" /><path clip-path="url(#clip710)" d="M204.283 867.069 L220.602 867.069 L220.602 871.004 L198.658 871.004 L198.658 867.069 Q201.32 864.314 205.903 859.685 Q210.51 855.032 211.69 853.689 Q213.936 851.166 214.815 849.43 Q215.718 847.671 215.718 845.981 Q215.718 843.226 213.774 841.49 Q211.852 839.754 208.75 839.754 Q206.551 839.754 204.098 840.518 Q201.667 841.282 198.889 842.833 L198.889 838.111 Q201.713 836.976 204.167 836.398 Q206.621 835.819 208.658 835.819 Q214.028 835.819 217.223 838.504 Q220.417 841.189 220.417 845.68 Q220.417 847.81 219.607 849.731 Q218.82 851.629 216.713 854.222 Q216.135 854.893 213.033 858.111 Q209.931 861.305 204.283 867.069 Z" fill="#000000" fill-rule="nonzero" fill-opacity="1" /><path clip-path="url(#clip710)" d="M230.463 836.444 L248.82 836.444 L248.82 840.379 L234.746 840.379 L234.746 848.851 Q235.764 848.504 236.783 848.342 Q237.801 848.157 238.82 848.157 Q244.607 848.157 247.986 851.328 Q251.366 854.5 251.366 859.916 Q251.366 865.495 247.894 868.597 Q244.421 871.675 238.102 871.675 Q235.926 871.675 233.658 871.305 Q231.412 870.935 229.005 870.194 L229.005 865.495 Q231.088 866.629 233.31 867.185 Q235.533 867.74 238.009 867.74 Q242.014 867.74 244.352 865.634 Q246.69 863.527 246.69 859.916 Q246.69 856.305 244.352 854.199 Q242.014 852.092 238.009 852.092 Q236.135 852.092 234.26 852.509 Q232.408 852.925 230.463 853.805 L230.463 836.444 Z" fill="#000000" fill-rule="nonzero" fill-opacity="1" /><path clip-path="url(#clip710)" d="M21.7677 1368.99 L58.7206 1368.99 L58.7206 1361.22 Q58.7206 1351.38 54.2646 1346.83 Q49.8086 1342.25 40.1964 1342.25 Q30.6479 1342.25 26.2237 1346.83 Q21.7677 1351.38 21.7677 1361.22 L21.7677 1368.99 M16.4842 1375.42 L16.4842 1362.21 Q16.4842 1348.39 22.2451 1341.93 Q27.9743 1335.47 40.1964 1335.47 Q52.4822 1335.47 58.2432 1341.96 Q64.0042 1348.46 64.0042 1362.21 L64.0042 1375.42 L16.4842 1375.42 Z" fill="#000000" fill-rule="nonzero" fill-opacity="1" /><path clip-path="url(#clip710)" d="M46.0847 1309.28 Q46.0847 1316.37 47.7079 1319.11 Q49.3312 1321.85 53.2461 1321.85 Q56.3653 1321.85 58.2114 1319.81 Q60.0256 1317.74 60.0256 1314.21 Q60.0256 1309.34 56.5881 1306.41 Q53.1188 1303.45 47.3897 1303.45 L46.0847 1303.45 L46.0847 1309.28 M43.6657 1297.59 L64.0042 1297.59 L64.0042 1303.45 L58.5933 1303.45 Q61.8398 1305.46 63.3994 1308.45 Q64.9272 1311.44 64.9272 1315.77 Q64.9272 1321.24 61.8716 1324.49 Q58.7843 1327.7 53.6281 1327.7 Q47.6125 1327.7 44.5569 1323.69 Q41.5014 1319.65 41.5014 1311.66 L41.5014 1303.45 L40.9285 1303.45 Q36.8862 1303.45 34.6901 1306.12 Q32.4621 1308.77 32.4621 1313.57 Q32.4621 1316.63 33.1941 1319.52 Q33.9262 1322.42 35.3903 1325.09 L29.9795 1325.09 Q28.7381 1321.88 28.1334 1318.86 Q27.4968 1315.83 27.4968 1312.97 Q27.4968 1305.23 31.5072 1301.41 Q35.5176 1297.59 43.6657 1297.59 Z" fill="#000000" fill-rule="nonzero" fill-opacity="1" /><path clip-path="url(#clip710)" d="M35.1993 1257.78 Q31.2526 1255.58 29.3747 1252.53 Q27.4968 1249.47 27.4968 1245.33 Q27.4968 1239.76 31.4117 1236.74 Q35.2948 1233.71 42.4881 1233.71 L64.0042 1233.71 L64.0042 1239.6 L42.679 1239.6 Q37.5546 1239.6 35.072 1241.42 Q32.5894 1243.23 32.5894 1246.96 Q32.5894 1251.51 35.6131 1254.15 Q38.6368 1256.79 43.8567 1256.79 L64.0042 1256.79 L64.0042 1262.68 L42.679 1262.68 Q37.5228 1262.68 35.072 1264.49 Q32.5894 1266.31 32.5894 1270.09 Q32.5894 1274.58 35.6449 1277.22 Q38.6686 1279.87 43.8567 1279.87 L64.0042 1279.87 L64.0042 1285.75 L28.3562 1285.75 L28.3562 1279.87 L33.8944 1279.87 Q30.616 1277.86 29.0564 1275.06 Q27.4968 1272.26 27.4968 1268.41 Q27.4968 1264.52 29.4702 1261.82 Q31.4436 1259.08 35.1993 1257.78 Z" fill="#000000" fill-rule="nonzero" fill-opacity="1" /><path clip-path="url(#clip710)" d="M58.657 1216.37 L77.5631 1216.37 L77.5631 1222.26 L28.3562 1222.26 L28.3562 1216.37 L33.7671 1216.37 Q30.5842 1214.52 29.0564 1211.72 Q27.4968 1208.89 27.4968 1204.97 Q27.4968 1198.48 32.6531 1194.44 Q37.8093 1190.36 46.212 1190.36 Q54.6147 1190.36 59.771 1194.44 Q64.9272 1198.48 64.9272 1204.97 Q64.9272 1208.89 63.3994 1211.72 Q61.8398 1214.52 58.657 1216.37 M46.212 1196.44 Q39.7508 1196.44 36.0905 1199.12 Q32.3984 1201.76 32.3984 1206.41 Q32.3984 1211.05 36.0905 1213.73 Q39.7508 1216.37 46.212 1216.37 Q52.6732 1216.37 56.3653 1213.73 Q60.0256 1211.05 60.0256 1206.41 Q60.0256 1201.76 56.3653 1199.12 Q52.6732 1196.44 46.212 1196.44 Z" fill="#000000" fill-rule="nonzero" fill-opacity="1" /><path clip-path="url(#clip710)" d="M28.3562 1180.66 L28.3562 1174.8 L64.0042 1174.8 L64.0042 1180.66 L28.3562 1180.66 M14.479 1180.66 L14.479 1174.8 L21.895 1174.8 L21.895 1180.66 L14.479 1180.66 Z" fill="#000000" fill-rule="nonzero" fill-opacity="1" /><path clip-path="url(#clip710)" d="M42.4881 1132.91 L64.0042 1132.91 L64.0042 1138.77 L42.679 1138.77 Q37.6183 1138.77 35.1038 1140.74 Q32.5894 1142.72 32.5894 1146.66 Q32.5894 1151.41 35.6131 1154.14 Q38.6368 1156.88 43.8567 1156.88 L64.0042 1156.88 L64.0042 1162.77 L28.3562 1162.77 L28.3562 1156.88 L33.8944 1156.88 Q30.6797 1154.78 29.0883 1151.95 Q27.4968 1149.08 27.4968 1145.36 Q27.4968 1139.22 31.3163 1136.06 Q35.1038 1132.91 42.4881 1132.91 Z" fill="#000000" fill-rule="nonzero" fill-opacity="1" /><path clip-path="url(#clip710)" d="M45.7664 1097.78 Q39.4007 1097.78 35.8996 1100.42 Q32.3984 1103.03 32.3984 1107.77 Q32.3984 1112.48 35.8996 1115.12 Q39.4007 1117.73 45.7664 1117.73 Q52.1003 1117.73 55.6014 1115.12 Q59.1026 1112.48 59.1026 1107.77 Q59.1026 1103.03 55.6014 1100.42 Q52.1003 1097.78 45.7664 1097.78 M59.58 1091.92 Q68.683 1091.92 73.1071 1095.96 Q77.5631 1100 77.5631 1108.34 Q77.5631 1111.43 77.0857 1114.17 Q76.6401 1116.9 75.6852 1119.48 L69.9879 1119.48 Q71.3884 1116.9 72.0568 1114.39 Q72.7252 1111.88 72.7252 1109.27 Q72.7252 1103.5 69.7015 1100.64 Q66.7096 1097.78 60.6303 1097.78 L57.7339 1097.78 Q60.885 1099.59 62.4446 1102.42 Q64.0042 1105.25 64.0042 1109.2 Q64.0042 1115.76 59.0071 1119.77 Q54.01 1123.78 45.7664 1123.78 Q37.491 1123.78 32.4939 1119.77 Q27.4968 1115.76 27.4968 1109.2 Q27.4968 1105.25 29.0564 1102.42 Q30.616 1099.59 33.7671 1097.78 L28.3562 1097.78 L28.3562 1091.92 L59.58 1091.92 Z" fill="#000000" fill-rule="nonzero" fill-opacity="1" /><path clip-path="url(#clip710)" d="M41.7242 1036.35 Q42.4244 1034.28 44.7161 1032.34 Q47.0077 1030.36 51.0181 1028.39 L64.0042 1021.86 L64.0042 1028.77 L51.8138 1034.85 Q47.0395 1037.21 45.48 1039.43 Q43.9204 1041.63 43.9204 1045.45 L43.9204 1052.45 L64.0042 1052.45 L64.0042 1058.88 L16.4842 1058.88 L16.4842 1044.37 Q16.4842 1036.22 19.8898 1032.21 Q23.2955 1028.2 30.1704 1028.2 Q34.6582 1028.2 37.6183 1030.3 Q40.5784 1032.37 41.7242 1036.35 M21.7677 1052.45 L38.6368 1052.45 L38.6368 1044.37 Q38.6368 1039.72 36.5043 1037.36 Q34.34 1034.98 30.1704 1034.98 Q26.0009 1034.98 23.9002 1037.36 Q21.7677 1039.72 21.7677 1044.37 L21.7677 1052.45 Z" fill="#000000" fill-rule="nonzero" fill-opacity="1" /><path clip-path="url(#clip710)" d="M46.0847 999.075 Q46.0847 1006.17 47.7079 1008.91 Q49.3312 1011.65 53.2461 1011.65 Q56.3653 1011.65 58.2114 1009.61 Q60.0256 1007.54 60.0256 1004.01 Q60.0256 999.138 56.5881 996.21 Q53.1188 993.25 47.3897 993.25 L46.0847 993.25 L46.0847 999.075 M43.6657 987.394 L64.0042 987.394 L64.0042 993.25 L58.5933 993.25 Q61.8398 995.255 63.3994 998.247 Q64.9272 1001.24 64.9272 1005.57 Q64.9272 1011.04 61.8716 1014.29 Q58.7843 1017.5 53.6281 1017.5 Q47.6125 1017.5 44.5569 1013.49 Q41.5014 1009.45 41.5014 1001.46 L41.5014 993.25 L40.9285 993.25 Q36.8862 993.25 34.6901 995.924 Q32.4621 998.566 32.4621 1003.37 Q32.4621 1006.43 33.1941 1009.32 Q33.9262 1012.22 35.3903 1014.89 L29.9795 1014.89 Q28.7381 1011.68 28.1334 1008.66 Q27.4968 1005.63 27.4968 1002.77 Q27.4968 995.033 31.5072 991.213 Q35.5176 987.394 43.6657 987.394 Z" fill="#000000" fill-rule="nonzero" fill-opacity="1" /><path clip-path="url(#clip710)" d="M18.2347 969.538 L28.3562 969.538 L28.3562 957.475 L32.9077 957.475 L32.9077 969.538 L52.2594 969.538 Q56.6199 969.538 57.8613 968.36 Q59.1026 967.151 59.1026 963.491 L59.1026 957.475 L64.0042 957.475 L64.0042 963.491 Q64.0042 970.27 61.4897 972.848 Q58.9434 975.426 52.2594 975.426 L32.9077 975.426 L32.9077 979.723 L28.3562 979.723 L28.3562 975.426 L18.2347 975.426 L18.2347 969.538 Z" fill="#000000" fill-rule="nonzero" fill-opacity="1" /><path clip-path="url(#clip710)" d="M28.3562 949.772 L28.3562 943.916 L64.0042 943.916 L64.0042 949.772 L28.3562 949.772 M14.479 949.772 L14.479 943.916 L21.895 943.916 L21.895 949.772 L14.479 949.772 Z" fill="#000000" fill-rule="nonzero" fill-opacity="1" /><path clip-path="url(#clip710)" d="M32.4621 917.848 Q32.4621 922.559 36.1542 925.296 Q39.8145 928.034 46.212 928.034 Q52.6095 928.034 56.3017 925.328 Q59.9619 922.591 59.9619 917.848 Q59.9619 913.17 56.2698 910.432 Q52.5777 907.695 46.212 907.695 Q39.8781 907.695 36.186 910.432 Q32.4621 913.17 32.4621 917.848 M27.4968 917.848 Q27.4968 910.21 32.4621 905.849 Q37.4273 901.489 46.212 901.489 Q54.9649 901.489 59.9619 905.849 Q64.9272 910.21 64.9272 917.848 Q64.9272 925.519 59.9619 929.88 Q54.9649 934.208 46.212 934.208 Q37.4273 934.208 32.4621 929.88 Q27.4968 925.519 27.4968 917.848 Z" fill="#000000" fill-rule="nonzero" fill-opacity="1" /><polyline clip-path="url(#clip713)" style="stroke:#800080; stroke-linecap:round; stroke-linejoin:round; stroke-width:8; stroke-opacity:1; fill:none" points="356.212,1048.35 425.059,1054.74 493.905,1062.24 562.751,1069.68 631.598,1077.37 700.444,1085.31 769.29,1093.41 838.137,1101.45 906.983,1108.99 975.829,1115.35 1044.68,1119.83 1113.52,1121.95 1182.37,1121.67 1251.21,1119.3 1320.06,1115.21 1388.91,1109.6 1457.75,1102.33 1526.6,1092.73 1595.45,1079.21 1664.29,1058.47 1733.14,1026.84 1801.99,989.83 1870.83,956.458 1939.68,928.269 2008.52,904.207 2077.37,883.206 2146.22,864.451 2215.06,847.284 2283.91,831.09 2352.76,815.154 2421.6,798.435 2490.45,779.132 2559.29,754.055 2628.14,719.124 2696.99,673.482 2765.83,621.022 2834.68,565.272 2903.53,507.463 2972.37,447.508 3041.22,384.736 "/>
<polyline clip-path="url(#clip713)" style="stroke:#800080; stroke-linecap:round; stroke-linejoin:round; stroke-width:8; stroke-opacity:1; fill:none" points="356.212,1045.38 425.059,1047.52 493.905,1049.18 562.751,1051.74 631.598,1054.52 700.444,1057.46 769.29,1060.58 838.137,1063.93 906.983,1067.61 975.829,1071.73 1044.68,1076.42 1113.52,1081.75 1182.37,1087.76 1251.21,1094.48 1320.06,1102 1388.91,1110.53 1457.75,1120.48 1526.6,1132.69 1595.45,1148.89 1664.29,1172.61 1733.14,1207.91 1801.99,1249.51 1870.83,1287.89 1939.68,1321.09 2008.52,1349.92 2077.37,1375.25 2146.22,1397.74 2215.06,1417.97 2283.91,1436.86 2352.76,1457.25 2421.6,1490.81 2490.45,1562.5 2559.29,1659.49 2628.14,1762.22 2696.99,1869.26 2765.83,1982.91 2834.68,2106.18 2903.53,2242.83 2972.37,2397.92 3041.22,2578.89 "/>
<polyline clip-path="url(#clip713)" style="stroke:#800080; stroke-linecap:round; stroke-linejoin:round; stroke-width:8; stroke-opacity:1; fill:none" stroke-dasharray="32, 20" points="328.402,1053.2 423.723,1073.85 517.072,1093.14 618.345,1116.48 709.697,1136.22 793.097,1156.86 880.477,1175.26 949.971,1192.76 1061.2,1213.41 1162.54,1228.66 1257.89,1238.54 1361.23,1246.62 1482.47,1249.31 1573.9,1249.31 1687.22,1244.83 1774.72,1235.85 1828.42,1224.19 1874.27,1203.54 1902.16,1178.87 1916.2,1154.18 1936.24,1120.53 1959.09,1094.73 1978.51,1071.76 2001.43,1047.99 2031.38,1025.41 2068.28,1002.03 2107.04,980.247 2152.76,956.082 2212.52,933.903 2261.74,916.865 2344.29,896.266 "/>
<polyline clip-path="url(#clip713)" style="stroke:#800080; stroke-linecap:round; stroke-linejoin:round; stroke-width:8; stroke-opacity:1; fill:none" stroke-dasharray="32, 20" points="337.858,1046.26 470.89,1055.75 606.248,1066.29 739.28,1075.78 872.298,1086.85 1038,1102.66 1182.64,1120.05 1289.98,1137.97 1392.62,1151.68 1488.25,1171.18 1588.56,1184.36 1693.55,1203.86 1772.86,1223.89 1835.79,1244.96 1867.53,1267.13 1892.45,1291.03 1909.66,1312.75 1928.73,1346.64 1946.01,1370.55 1969.01,1395.31 1986.22,1419.21 "/>
<polyline clip-path="url(#clip713)" style="stroke:#008000; stroke-linecap:round; stroke-linejoin:round; stroke-width:8; stroke-opacity:1; fill:none" points="356.212,1048.55 425.059,1055.11 493.905,1062.28 562.751,1069.73 631.598,1077.46 700.444,1085.48 769.29,1093.69 838.137,1101.77 906.983,1109.09 975.829,1114.71 1044.68,1117.8 1113.52,1118.06 1182.37,1115.83 1251.21,1111.76 1320.06,1106.35 1388.91,1099.82 1457.75,1092.03 1526.6,1082.38 1595.45,1069.61 1664.29,1051.25 1733.14,1023.98 1801.99,988.978 1870.83,953.908 1939.68,922.643 2008.52,895.032 2077.37,870.086 2146.22,846.829 2215.06,824.341 2283.91,801.676 2352.76,777.799 2421.6,751.637 2490.45,722.367 2559.29,689.888 2628.14,654.914 2696.99,618.466 2765.83,581.329 2834.68,543.912 2903.53,506.339 2972.37,468.575 3041.22,430.499 "/>
<polyline clip-path="url(#clip713)" style="stroke:#008000; stroke-linecap:round; stroke-linejoin:round; stroke-width:8; stroke-opacity:1; fill:none" points="356.212,1045.25 425.059,1047.26 493.905,1049.64 562.751,1052.33 631.598,1055.24 700.444,1058.36 769.29,1061.7 838.137,1065.37 906.983,1069.48 975.829,1074.16 1044.68,1079.46 1113.52,1085.39 1182.37,1091.92 1251.21,1099.03 1320.06,1106.78 1388.91,1115.36 1457.75,1125.15 1526.6,1136.85 1595.45,1151.82 1664.29,1172.64 1733.14,1202.92 1801.99,1241.77 1870.83,1281.31 1939.68,1317.26 2008.52,1349.53 2077.37,1379.01 2146.22,1406.71 2215.06,1433.79 2283.91,1461.84 2352.76,1493.23 2421.6,1530.87 2490.45,1576.41 2559.29,1628.77 2628.14,1685.67 2696.99,1745.47 2765.83,1807.34 2834.68,1870.91 2903.53,1936.02 2972.37,2002.56 3041.22,2070.49 "/>
<polyline clip-path="url(#clip713)" style="stroke:#008000; stroke-linecap:round; stroke-linejoin:round; stroke-width:8; stroke-opacity:1; fill:none" stroke-dasharray="32, 20" points="334.986,1053.12 426.697,1075.19 506.456,1091.87 586.214,1109.44 675.935,1130.16 761.655,1151.79 859.355,1174.32 947.072,1195.94 1024.85,1215.32 1104.57,1232.43 1192.35,1245.5 1312.07,1253.62 1433.8,1251.82 1533.62,1247.76 1625.46,1237.85 1697.34,1226.14 1767.29,1209.02 1819.27,1183.34 1847.35,1155.41 1861.4,1130.63 1885.5,1100.89 1903.53,1079.27 1923.64,1058.09 1949.66,1039.17 1975.68,1013.49 2019.75,983.757 2073.72,954.472 2123.77,926.539 2185.73,903.115 2261.67,880.139 2335.61,863.473 "/>
<polyline clip-path="url(#clip713)" style="stroke:#008000; stroke-linecap:round; stroke-linejoin:round; stroke-width:8; stroke-opacity:1; fill:none" stroke-dasharray="32, 20" points="346.046,1046.83 484.156,1057.58 657.993,1068.88 810.385,1080.71 986.569,1100.07 1103.19,1116.2 1231.73,1139.86 1379.34,1164.59 1495.96,1188.26 1629.18,1221.06 1717.24,1242.57 1790.97,1271.07 1831.31,1304.41 1859.75,1337.75 1876.27,1367.32 1890.45,1393.13 1918.96,1419.48 "/>
<polyline clip-path="url(#clip713)" style="stroke:#ff0000; stroke-linecap:round; stroke-linejoin:round; stroke-width:8; stroke-opacity:1; fill:none" points="356.212,1048.6 425.059,1055.13 493.905,1062.26 562.751,1069.67 631.598,1077.39 700.444,1085.41 769.29,1093.6 838.137,1101.5 906.983,1108.24 975.829,1112.69 1044.68,1114.13 1113.52,1112.65 1182.37,1108.98 1251.21,1103.9 1320.06,1097.87 1388.91,1090.95 1457.75,1082.75 1526.6,1072.24 1595.45,1057.07 1664.29,1031.83 1733.14,990.584 1801.99,943.39 1870.83,900.824 1939.68,863.068 2008.52,828.47 2077.37,795.714 2146.22,763.917 2215.06,732.558 2283.91,701.425 2352.76,670.53 2421.6,640.004 2490.45,610.006 2559.29,580.656 2628.14,552.031 2696.99,524.159 2765.83,497.04 2834.68,470.656 2903.53,444.979 2972.37,419.981 3041.22,395.632 "/>
<polyline clip-path="url(#clip713)" style="stroke:#ff0000; stroke-linecap:round; stroke-linejoin:round; stroke-width:8; stroke-opacity:1; fill:none" points="356.212,1045.41 425.059,1047.54 493.905,1050.03 562.751,1052.82 631.598,1055.86 700.444,1059.14 769.29,1062.7 838.137,1066.67 906.983,1071.14 975.829,1076.2 1044.68,1081.85 1113.52,1088.04 1182.37,1094.71 1251.21,1101.86 1320.06,1109.57 1388.91,1118.11 1457.75,1128.02 1526.6,1140.38 1595.45,1157.63 1664.29,1185.42 1733.14,1230.35 1801.99,1282.53 1870.83,1330.7 1939.68,1374.3 2008.52,1414.84 2077.37,1453.59 2146.22,1491.45 2215.06,1529.02 2283.91,1566.67 2352.76,1604.57 2421.6,1642.76 2490.45,1681.21 2559.29,1719.85 2628.14,1758.58 2696.99,1797.31 2765.83,1835.9 2834.68,1874.2 2903.53,1912.01 2972.37,1949.09 3041.22,1985.17 "/>
<polyline clip-path="url(#clip713)" style="stroke:#ff0000; stroke-linecap:round; stroke-linejoin:round; stroke-width:8; stroke-opacity:1; fill:none" stroke-dasharray="32, 20" points="331.018,1052.47 456.625,1079.45 541.037,1099.46 617.229,1115.28 705.759,1137.62 790.164,1159.02 868.374,1183.67 932.194,1201.36 989.805,1220.43 1043.37,1234.86 1105.12,1245.09 1173.07,1253.47 1261.75,1254.86 1397.79,1246.03 1494.72,1237.19 1591.59,1224.17 1667.94,1210.21 1740.16,1190.67 1783.53,1165.08 1806.32,1139.49 1822.91,1114.37 1858.1,1084.59 1880.88,1060.86 1905.74,1034.34 1940.92,1004.1 1984.29,974.792 2029.73,948.74 2068.97,929.196 2124.74,908.726 2192.83,886.396 2267.11,866.86 2345.46,856.625 "/>
<polyline clip-path="url(#clip713)" style="stroke:#ff0000; stroke-linecap:round; stroke-linejoin:round; stroke-width:8; stroke-opacity:1; fill:none" stroke-dasharray="32, 20" points="336.449,1046.85 469.409,1055.71 604.548,1066.54 726.612,1074.91 859.562,1086.73 968.518,1101 1077.45,1119.21 1166.74,1136.93 1264.78,1159.08 1375.9,1180.25 1478.27,1199.44 1585.05,1221.6 1689.56,1247.69 1761.37,1280.66 1800.47,1315.12 1843.91,1361.38 1856.86,1385.99 1889.42,1416.02 "/>
<path clip-path="url(#clip710)" d="M356.212 1404.2 L688.118 1404.2 L688.118 1196.84 L356.212 1196.84  Z" fill="#ffffff" fill-rule="evenodd" fill-opacity="1"/>
<polyline clip-path="url(#clip710)" style="stroke:#000000; stroke-linecap:round; stroke-linejoin:round; stroke-width:4; stroke-opacity:1; fill:none" points="356.212,1404.2 688.118,1404.2 688.118,1196.84 356.212,1196.84 356.212,1404.2 "/>
<polyline clip-path="url(#clip710)" style="stroke:#800080; stroke-linecap:round; stroke-linejoin:round; stroke-width:8; stroke-opacity:1; fill:none" points="379.161,1248.68 516.854,1248.68 "/>
<path clip-path="url(#clip710)" d="M559.618 1240.91 Q559.618 1244.85 558.353 1249.27 Q557.112 1253.68 555.144 1257.24 Q553.177 1260.77 550.6 1263.12 Q548.024 1265.44 545.564 1265.44 Q543.995 1265.44 542.824 1264.57 Q541.676 1263.68 541.044 1262.2 Q540.411 1260.7 540.107 1259.06 Q539.802 1257.4 539.802 1255.6 Q539.802 1252.9 540.388 1249.98 Q540.974 1247.03 541.957 1244.36 Q542.941 1241.66 544.323 1239.23 Q545.705 1236.77 547.227 1234.99 Q548.773 1233.18 550.507 1232.13 Q552.24 1231.07 553.856 1231.07 Q555.027 1231.07 555.964 1231.59 Q556.924 1232.08 557.533 1232.95 Q558.142 1233.79 558.564 1234.8 Q559.009 1235.81 559.22 1236.98 Q559.43 1238.12 559.524 1239.09 Q559.618 1240.02 559.618 1240.91 M556.456 1237.94 Q556.456 1236.74 556.362 1235.85 Q556.268 1234.94 556.011 1234.03 Q555.753 1233.11 555.191 1232.62 Q554.652 1232.13 553.809 1232.13 Q551.35 1232.13 548.586 1237.16 Q547.696 1238.73 546.899 1240.87 Q546.103 1243 545.822 1244 Q545.541 1245.01 544.885 1247.49 L554.91 1247.49 Q556.456 1241.1 556.456 1237.94 M554.488 1249.02 L544.51 1249.02 Q542.964 1254.87 542.964 1258.53 Q542.964 1261.71 543.62 1263.05 Q544.3 1264.36 545.564 1264.36 Q547.017 1264.36 548.375 1262.91 Q549.734 1261.43 551.116 1258.76 Q552.942 1255.29 554.488 1249.02 Z" fill="#000000" fill-rule="nonzero" fill-opacity="1" /><path clip-path="url(#clip710)" d="M575.373 1257.61 Q575.42 1257.03 576.333 1257.03 L605.728 1257.03 Q607.11 1257.03 607.134 1257.57 Q607.134 1258.15 605.822 1258.13 L576.661 1258.13 Q575.373 1258.15 575.373 1257.61 M575.373 1248.24 Q575.373 1247.66 576.38 1247.68 L605.681 1247.68 Q607.11 1247.68 607.134 1248.24 Q607.134 1248.78 605.916 1248.78 L576.333 1248.78 Q575.373 1248.78 575.373 1248.24 Z" fill="#000000" fill-rule="nonzero" fill-opacity="1" /><path clip-path="url(#clip710)" d="M625.625 1249.56 Q625.625 1242.5 627.405 1238.66 Q629.887 1232.95 635.743 1232.95 Q636.984 1232.95 638.273 1233.3 Q639.584 1233.63 641.224 1234.92 Q642.887 1236.2 643.894 1238.31 Q645.815 1242.39 645.815 1249.56 Q645.815 1256.56 644.035 1260.38 Q641.435 1265.95 635.696 1265.95 Q633.541 1265.95 631.34 1264.85 Q629.161 1263.75 627.779 1261.1 Q625.625 1257.14 625.625 1249.56 M629.606 1248.97 Q629.606 1256.21 630.122 1259.09 Q630.707 1262.2 632.3 1263.56 Q633.916 1264.9 635.696 1264.9 Q637.617 1264.9 639.21 1263.47 Q640.826 1262.02 641.318 1258.9 Q641.856 1255.83 641.833 1248.97 Q641.833 1242.29 641.364 1239.62 Q640.732 1236.51 639.046 1235.27 Q637.383 1234 635.696 1234 Q635.064 1234 634.385 1234.19 Q633.729 1234.38 632.768 1234.92 Q631.808 1235.45 631.059 1236.79 Q630.332 1238.12 629.981 1240.14 Q629.606 1242.74 629.606 1248.97 Z" fill="#000000" fill-rule="nonzero" fill-opacity="1" /><path clip-path="url(#clip710)" d="M649.375 1237.47 Q649.375 1235.27 650.92 1233.7 Q652.49 1232.13 654.691 1232.13 Q656.94 1232.13 658.462 1233.72 Q660.008 1235.29 660.008 1237.4 Q660.008 1239.6 658.416 1241.17 Q656.846 1242.74 654.691 1242.74 Q652.443 1242.74 650.897 1241.17 Q649.375 1239.58 649.375 1237.47 M652.302 1235.03 Q651.295 1236.02 651.295 1237.47 Q651.295 1238.9 652.302 1239.86 Q653.309 1240.82 654.691 1240.82 Q656.073 1240.82 657.057 1239.86 Q658.041 1238.9 658.041 1237.47 Q658.041 1236.02 657.034 1235.03 Q656.026 1234.05 654.691 1234.05 Q653.309 1234.05 652.302 1235.03 Z" fill="#000000" fill-rule="nonzero" fill-opacity="1" /><polyline clip-path="url(#clip710)" style="stroke:#008000; stroke-linecap:round; stroke-linejoin:round; stroke-width:8; stroke-opacity:1; fill:none" points="379.161,1300.52 516.854,1300.52 "/>
<path clip-path="url(#clip710)" d="M559.618 1292.75 Q559.618 1296.69 558.353 1301.11 Q557.112 1305.52 555.144 1309.08 Q553.177 1312.61 550.6 1314.96 Q548.024 1317.28 545.564 1317.28 Q543.995 1317.28 542.824 1316.41 Q541.676 1315.52 541.044 1314.04 Q540.411 1312.54 540.107 1310.9 Q539.802 1309.24 539.802 1307.44 Q539.802 1304.74 540.388 1301.82 Q540.974 1298.87 541.957 1296.2 Q542.941 1293.5 544.323 1291.07 Q545.705 1288.61 547.227 1286.83 Q548.773 1285.02 550.507 1283.97 Q552.24 1282.91 553.856 1282.91 Q555.027 1282.91 555.964 1283.43 Q556.924 1283.92 557.533 1284.79 Q558.142 1285.63 558.564 1286.64 Q559.009 1287.65 559.22 1288.82 Q559.43 1289.96 559.524 1290.93 Q559.618 1291.86 559.618 1292.75 M556.456 1289.78 Q556.456 1288.58 556.362 1287.69 Q556.268 1286.78 556.011 1285.87 Q555.753 1284.95 555.191 1284.46 Q554.652 1283.97 553.809 1283.97 Q551.35 1283.97 548.586 1289 Q547.696 1290.57 546.899 1292.71 Q546.103 1294.84 545.822 1295.84 Q545.541 1296.85 544.885 1299.33 L554.91 1299.33 Q556.456 1292.94 556.456 1289.78 M554.488 1300.86 L544.51 1300.86 Q542.964 1306.71 542.964 1310.37 Q542.964 1313.55 543.62 1314.89 Q544.3 1316.2 545.564 1316.2 Q547.017 1316.2 548.375 1314.75 Q549.734 1313.27 551.116 1310.6 Q552.942 1307.13 554.488 1300.86 Z" fill="#000000" fill-rule="nonzero" fill-opacity="1" /><path clip-path="url(#clip710)" d="M575.373 1309.45 Q575.42 1308.87 576.333 1308.87 L605.728 1308.87 Q607.11 1308.87 607.134 1309.41 Q607.134 1309.99 605.822 1309.97 L576.661 1309.97 Q575.373 1309.99 575.373 1309.45 M575.373 1300.08 Q575.373 1299.5 576.38 1299.52 L605.681 1299.52 Q607.11 1299.52 607.134 1300.08 Q607.134 1300.62 605.916 1300.62 L576.333 1300.62 Q575.373 1300.62 575.373 1300.08 Z" fill="#000000" fill-rule="nonzero" fill-opacity="1" /><path clip-path="url(#clip710)" d="M625.625 1310.27 Q625.625 1308.84 626.444 1308.16 Q627.264 1307.48 628.318 1307.48 Q629.419 1307.48 630.192 1308.21 Q630.988 1308.91 630.988 1310.16 Q630.988 1311.49 630.051 1312.24 Q629.138 1312.99 627.826 1312.8 Q628.974 1314.72 631.082 1315.59 Q633.213 1316.46 635.181 1316.46 Q637.242 1316.46 638.905 1314.68 Q640.591 1312.9 640.591 1308.54 Q640.591 1304.84 639.139 1302.71 Q637.71 1300.58 634.876 1300.58 L632.768 1300.58 Q632.042 1300.58 631.831 1300.5 Q631.621 1300.43 631.621 1300.04 Q631.621 1299.57 632.347 1299.47 Q633.073 1299.47 634.221 1299.33 Q637.008 1299.24 638.483 1296.83 Q639.819 1294.58 639.819 1291.37 Q639.819 1288.44 638.413 1287.22 Q637.031 1285.98 635.228 1285.98 Q633.541 1285.98 631.691 1286.69 Q629.841 1287.39 628.833 1288.96 Q631.808 1288.96 631.808 1291.37 Q631.808 1292.42 631.129 1293.13 Q630.473 1293.81 629.372 1293.81 Q628.318 1293.81 627.615 1293.15 Q626.913 1292.47 626.913 1291.32 Q626.913 1288.58 629.349 1286.69 Q631.808 1284.79 635.415 1284.79 Q638.975 1284.79 641.599 1286.66 Q644.245 1288.54 644.245 1291.42 Q644.245 1294.25 642.372 1296.57 Q640.498 1298.89 637.523 1299.85 Q641.177 1300.58 643.355 1303.06 Q645.534 1305.52 645.534 1308.54 Q645.534 1312.29 642.582 1315.05 Q639.631 1317.79 635.321 1317.79 Q631.34 1317.79 628.482 1315.64 Q625.625 1313.48 625.625 1310.27 Z" fill="#000000" fill-rule="nonzero" fill-opacity="1" /><path clip-path="url(#clip710)" d="M649.375 1289.31 Q649.375 1287.11 650.92 1285.54 Q652.49 1283.97 654.691 1283.97 Q656.94 1283.97 658.462 1285.56 Q660.008 1287.13 660.008 1289.24 Q660.008 1291.44 658.416 1293.01 Q656.846 1294.58 654.691 1294.58 Q652.443 1294.58 650.897 1293.01 Q649.375 1291.42 649.375 1289.31 M652.302 1286.87 Q651.295 1287.86 651.295 1289.31 Q651.295 1290.74 652.302 1291.7 Q653.309 1292.66 654.691 1292.66 Q656.073 1292.66 657.057 1291.7 Q658.041 1290.74 658.041 1289.31 Q658.041 1287.86 657.034 1286.87 Q656.026 1285.89 654.691 1285.89 Q653.309 1285.89 652.302 1286.87 Z" fill="#000000" fill-rule="nonzero" fill-opacity="1" /><polyline clip-path="url(#clip710)" style="stroke:#ff0000; stroke-linecap:round; stroke-linejoin:round; stroke-width:8; stroke-opacity:1; fill:none" points="379.161,1352.36 516.854,1352.36 "/>
<path clip-path="url(#clip710)" d="M559.618 1344.59 Q559.618 1348.53 558.353 1352.95 Q557.112 1357.36 555.144 1360.92 Q553.177 1364.45 550.6 1366.8 Q548.024 1369.12 545.564 1369.12 Q543.995 1369.12 542.824 1368.25 Q541.676 1367.36 541.044 1365.88 Q540.411 1364.38 540.107 1362.74 Q539.802 1361.08 539.802 1359.28 Q539.802 1356.58 540.388 1353.66 Q540.974 1350.71 541.957 1348.04 Q542.941 1345.34 544.323 1342.91 Q545.705 1340.45 547.227 1338.67 Q548.773 1336.86 550.507 1335.81 Q552.24 1334.75 553.856 1334.75 Q555.027 1334.75 555.964 1335.27 Q556.924 1335.76 557.533 1336.63 Q558.142 1337.47 558.564 1338.48 Q559.009 1339.49 559.22 1340.66 Q559.43 1341.8 559.524 1342.77 Q559.618 1343.7 559.618 1344.59 M556.456 1341.62 Q556.456 1340.42 556.362 1339.53 Q556.268 1338.62 556.011 1337.71 Q555.753 1336.79 555.191 1336.3 Q554.652 1335.81 553.809 1335.81 Q551.35 1335.81 548.586 1340.84 Q547.696 1342.41 546.899 1344.55 Q546.103 1346.68 545.822 1347.68 Q545.541 1348.69 544.885 1351.17 L554.91 1351.17 Q556.456 1344.78 556.456 1341.62 M554.488 1352.7 L544.51 1352.7 Q542.964 1358.55 542.964 1362.21 Q542.964 1365.39 543.62 1366.73 Q544.3 1368.04 545.564 1368.04 Q547.017 1368.04 548.375 1366.59 Q549.734 1365.11 551.116 1362.44 Q552.942 1358.97 554.488 1352.7 Z" fill="#000000" fill-rule="nonzero" fill-opacity="1" /><path clip-path="url(#clip710)" d="M575.373 1361.29 Q575.42 1360.71 576.333 1360.71 L605.728 1360.71 Q607.11 1360.71 607.134 1361.25 Q607.134 1361.83 605.822 1361.81 L576.661 1361.81 Q575.373 1361.83 575.373 1361.29 M575.373 1351.92 Q575.373 1351.34 576.38 1351.36 L605.681 1351.36 Q607.11 1351.36 607.134 1351.92 Q607.134 1352.46 605.916 1352.46 L576.333 1352.46 Q575.373 1352.46 575.373 1351.92 Z" fill="#000000" fill-rule="nonzero" fill-opacity="1" /><path clip-path="url(#clip710)" d="M625.625 1353.42 Q625.625 1345.88 629.466 1341.27 Q633.307 1336.63 638.249 1336.63 Q641.13 1336.63 642.723 1338.1 Q644.339 1339.56 644.339 1341.8 Q644.339 1343.05 643.613 1343.58 Q642.887 1344.12 642.137 1344.12 Q641.271 1344.12 640.591 1343.54 Q639.912 1342.95 639.912 1341.9 Q639.912 1339.74 642.559 1339.74 Q641.318 1337.82 638.343 1337.82 Q637.429 1337.82 636.493 1338.1 Q635.556 1338.36 634.338 1339.25 Q633.12 1340.14 632.183 1341.55 Q631.246 1342.95 630.59 1345.6 Q629.934 1348.25 629.934 1351.69 L629.934 1352.84 Q631.902 1348.08 635.93 1348.11 Q639.959 1348.11 642.746 1351.17 Q645.534 1354.24 645.534 1358.79 Q645.534 1363.45 642.629 1366.54 Q639.725 1369.63 635.649 1369.63 Q633.822 1369.63 632.159 1368.86 Q630.52 1368.11 628.974 1366.38 Q627.451 1364.64 626.538 1361.32 Q625.625 1357.99 625.625 1353.42 M630.028 1357.73 Q630.028 1362.44 630.895 1364.69 Q631.035 1365.06 631.34 1365.58 Q631.667 1366.09 632.206 1366.77 Q632.768 1367.43 633.682 1367.87 Q634.595 1368.3 635.649 1368.3 Q638.858 1368.3 640.404 1365.18 Q641.224 1363.45 641.224 1358.74 Q641.224 1353.94 640.357 1352.18 Q638.882 1349.21 635.884 1349.21 Q633.869 1349.21 632.464 1350.59 Q631.082 1351.97 630.543 1353.82 Q630.028 1355.67 630.028 1357.73 Z" fill="#000000" fill-rule="nonzero" fill-opacity="1" /><path clip-path="url(#clip710)" d="M649.375 1341.15 Q649.375 1338.95 650.92 1337.38 Q652.49 1335.81 654.691 1335.81 Q656.94 1335.81 658.462 1337.4 Q660.008 1338.97 660.008 1341.08 Q660.008 1343.28 658.416 1344.85 Q656.846 1346.42 654.691 1346.42 Q652.443 1346.42 650.897 1344.85 Q649.375 1343.26 649.375 1341.15 M652.302 1338.71 Q651.295 1339.7 651.295 1341.15 Q651.295 1342.58 652.302 1343.54 Q653.309 1344.5 654.691 1344.5 Q656.073 1344.5 657.057 1343.54 Q658.041 1342.58 658.041 1341.15 Q658.041 1339.7 657.034 1338.71 Q656.026 1337.73 654.691 1337.73 Q653.309 1337.73 652.302 1338.71 Z" fill="#000000" fill-rule="nonzero" fill-opacity="1" /></svg>
