<?xml version="1.0" encoding="utf-8"?>
<svg xmlns="http://www.w3.org/2000/svg" xmlns:xlink="http://www.w3.org/1999/xlink" width="600" height="400" viewBox="0 0 2400 1600">
<defs>
  <clipPath id="clip850">
    <rect x="0" y="0" width="2400" height="1600"/>
  </clipPath>
</defs>
<path clip-path="url(#clip850)" d="M0 1600 L2400 1600 L2400 0 L0 0  Z" fill="#ffffff" fill-rule="evenodd" fill-opacity="1"/>
<defs>
  <clipPath id="clip851">
    <rect x="480" y="0" width="1681" height="1600"/>
  </clipPath>
</defs>
<path clip-path="url(#clip850)" d="M205.121 1423.18 L2352.76 1423.18 L2352.76 47.2441 L205.121 47.2441  Z" fill="#ffffff" fill-rule="evenodd" fill-opacity="1"/>
<defs>
  <clipPath id="clip852">
    <rect x="205" y="47" width="2149" height="1377"/>
  </clipPath>
</defs>
<polyline clip-path="url(#clip852)" style="stroke:#000000; stroke-linecap:round; stroke-linejoin:round; stroke-width:2; stroke-opacity:0.1; fill:none" points="205.121,1423.18 205.121,47.2441 "/>
<polyline clip-path="url(#clip852)" style="stroke:#000000; stroke-linecap:round; stroke-linejoin:round; stroke-width:2; stroke-opacity:0.1; fill:none" points="634.648,1423.18 634.648,47.2441 "/>
<polyline clip-path="url(#clip852)" style="stroke:#000000; stroke-linecap:round; stroke-linejoin:round; stroke-width:2; stroke-opacity:0.1; fill:none" points="1064.17,1423.18 1064.17,47.2441 "/>
<polyline clip-path="url(#clip852)" style="stroke:#000000; stroke-linecap:round; stroke-linejoin:round; stroke-width:2; stroke-opacity:0.1; fill:none" points="1493.7,1423.18 1493.7,47.2441 "/>
<polyline clip-path="url(#clip852)" style="stroke:#000000; stroke-linecap:round; stroke-linejoin:round; stroke-width:2; stroke-opacity:0.1; fill:none" points="1923.23,1423.18 1923.23,47.2441 "/>
<polyline clip-path="url(#clip852)" style="stroke:#000000; stroke-linecap:round; stroke-linejoin:round; stroke-width:2; stroke-opacity:0.1; fill:none" points="2352.76,1423.18 2352.76,47.2441 "/>
<polyline clip-path="url(#clip852)" style="stroke:#000000; stroke-linecap:round; stroke-linejoin:round; stroke-width:2; stroke-opacity:0.1; fill:none" points="205.121,1423.18 2352.76,1423.18 "/>
<polyline clip-path="url(#clip852)" style="stroke:#000000; stroke-linecap:round; stroke-linejoin:round; stroke-width:2; stroke-opacity:0.1; fill:none" points="205.121,1193.86 2352.76,1193.86 "/>
<polyline clip-path="url(#clip852)" style="stroke:#000000; stroke-linecap:round; stroke-linejoin:round; stroke-width:2; stroke-opacity:0.1; fill:none" points="205.121,964.535 2352.76,964.535 "/>
<polyline clip-path="url(#clip852)" style="stroke:#000000; stroke-linecap:round; stroke-linejoin:round; stroke-width:2; stroke-opacity:0.1; fill:none" points="205.121,735.212 2352.76,735.212 "/>
<polyline clip-path="url(#clip852)" style="stroke:#000000; stroke-linecap:round; stroke-linejoin:round; stroke-width:2; stroke-opacity:0.1; fill:none" points="205.121,505.889 2352.76,505.889 "/>
<polyline clip-path="url(#clip852)" style="stroke:#000000; stroke-linecap:round; stroke-linejoin:round; stroke-width:2; stroke-opacity:0.1; fill:none" points="205.121,276.567 2352.76,276.567 "/>
<polyline clip-path="url(#clip852)" style="stroke:#000000; stroke-linecap:round; stroke-linejoin:round; stroke-width:2; stroke-opacity:0.1; fill:none" points="205.121,47.2441 2352.76,47.2441 "/>
<polyline clip-path="url(#clip850)" style="stroke:#000000; stroke-linecap:round; stroke-linejoin:round; stroke-width:4; stroke-opacity:1; fill:none" points="205.121,1423.18 2352.76,1423.18 "/>
<polyline clip-path="url(#clip850)" style="stroke:#000000; stroke-linecap:round; stroke-linejoin:round; stroke-width:4; stroke-opacity:1; fill:none" points="205.121,1423.18 205.121,1404.28 "/>
<polyline clip-path="url(#clip850)" style="stroke:#000000; stroke-linecap:round; stroke-linejoin:round; stroke-width:4; stroke-opacity:1; fill:none" points="634.648,1423.18 634.648,1404.28 "/>
<polyline clip-path="url(#clip850)" style="stroke:#000000; stroke-linecap:round; stroke-linejoin:round; stroke-width:4; stroke-opacity:1; fill:none" points="1064.17,1423.18 1064.17,1404.28 "/>
<polyline clip-path="url(#clip850)" style="stroke:#000000; stroke-linecap:round; stroke-linejoin:round; stroke-width:4; stroke-opacity:1; fill:none" points="1493.7,1423.18 1493.7,1404.28 "/>
<polyline clip-path="url(#clip850)" style="stroke:#000000; stroke-linecap:round; stroke-linejoin:round; stroke-width:4; stroke-opacity:1; fill:none" points="1923.23,1423.18 1923.23,1404.28 "/>
<polyline clip-path="url(#clip850)" style="stroke:#000000; stroke-linecap:round; stroke-linejoin:round; stroke-width:4; stroke-opacity:1; fill:none" points="2352.76,1423.18 2352.76,1404.28 "/>
<path clip-path="url(#clip850)" d="M205.121 1454.1 Q201.51 1454.1 199.681 1457.66 Q197.876 1461.2 197.876 1468.33 Q197.876 1475.44 199.681 1479.01 Q201.51 1482.55 205.121 1482.55 Q208.755 1482.55 210.561 1479.01 Q212.389 1475.44 212.389 1468.33 Q212.389 1461.2 210.561 1457.66 Q208.755 1454.1 205.121 1454.1 M205.121 1450.39 Q210.931 1450.39 213.987 1455 Q217.065 1459.58 217.065 1468.33 Q217.065 1477.06 213.987 1481.67 Q210.931 1486.25 205.121 1486.25 Q199.311 1486.25 196.232 1481.67 Q193.177 1477.06 193.177 1468.33 Q193.177 1459.58 196.232 1455 Q199.311 1450.39 205.121 1450.39 Z" fill="#000000" fill-rule="nonzero" fill-opacity="1" /><path clip-path="url(#clip850)" d="M594.255 1481.64 L601.894 1481.64 L601.894 1455.28 L593.583 1456.95 L593.583 1452.69 L601.847 1451.02 L606.523 1451.02 L606.523 1481.64 L614.162 1481.64 L614.162 1485.58 L594.255 1485.58 L594.255 1481.64 Z" fill="#000000" fill-rule="nonzero" fill-opacity="1" /><path clip-path="url(#clip850)" d="M633.606 1454.1 Q629.995 1454.1 628.167 1457.66 Q626.361 1461.2 626.361 1468.33 Q626.361 1475.44 628.167 1479.01 Q629.995 1482.55 633.606 1482.55 Q637.241 1482.55 639.046 1479.01 Q640.875 1475.44 640.875 1468.33 Q640.875 1461.2 639.046 1457.66 Q637.241 1454.1 633.606 1454.1 M633.606 1450.39 Q639.416 1450.39 642.472 1455 Q645.551 1459.58 645.551 1468.33 Q645.551 1477.06 642.472 1481.67 Q639.416 1486.25 633.606 1486.25 Q627.796 1486.25 624.717 1481.67 Q621.662 1477.06 621.662 1468.33 Q621.662 1459.58 624.717 1455 Q627.796 1450.39 633.606 1450.39 Z" fill="#000000" fill-rule="nonzero" fill-opacity="1" /><path clip-path="url(#clip850)" d="M663.768 1454.1 Q660.157 1454.1 658.328 1457.66 Q656.523 1461.2 656.523 1468.33 Q656.523 1475.44 658.328 1479.01 Q660.157 1482.55 663.768 1482.55 Q667.402 1482.55 669.208 1479.01 Q671.037 1475.44 671.037 1468.33 Q671.037 1461.2 669.208 1457.66 Q667.402 1454.1 663.768 1454.1 M663.768 1450.39 Q669.578 1450.39 672.634 1455 Q675.713 1459.58 675.713 1468.33 Q675.713 1477.06 672.634 1481.67 Q669.578 1486.25 663.768 1486.25 Q657.958 1486.25 654.879 1481.67 Q651.824 1477.06 651.824 1468.33 Q651.824 1459.58 654.879 1455 Q657.958 1450.39 663.768 1450.39 Z" fill="#000000" fill-rule="nonzero" fill-opacity="1" /><path clip-path="url(#clip850)" d="M1027.87 1481.64 L1044.19 1481.64 L1044.19 1485.58 L1022.24 1485.58 L1022.24 1481.64 Q1024.9 1478.89 1029.49 1474.26 Q1034.09 1469.61 1035.27 1468.27 Q1037.52 1465.74 1038.4 1464.01 Q1039.3 1462.25 1039.3 1460.56 Q1039.3 1457.8 1037.36 1456.07 Q1035.44 1454.33 1032.33 1454.33 Q1030.14 1454.33 1027.68 1455.09 Q1025.25 1455.86 1022.47 1457.41 L1022.47 1452.69 Q1025.3 1451.55 1027.75 1450.97 Q1030.21 1450.39 1032.24 1450.39 Q1037.61 1450.39 1040.81 1453.08 Q1044 1455.77 1044 1460.26 Q1044 1462.39 1043.19 1464.31 Q1042.4 1466.2 1040.3 1468.8 Q1039.72 1469.47 1036.62 1472.69 Q1033.52 1475.88 1027.87 1481.64 Z" fill="#000000" fill-rule="nonzero" fill-opacity="1" /><path clip-path="url(#clip850)" d="M1064 1454.1 Q1060.39 1454.1 1058.56 1457.66 Q1056.76 1461.2 1056.76 1468.33 Q1056.76 1475.44 1058.56 1479.01 Q1060.39 1482.55 1064 1482.55 Q1067.64 1482.55 1069.44 1479.01 Q1071.27 1475.44 1071.27 1468.33 Q1071.27 1461.2 1069.44 1457.66 Q1067.64 1454.1 1064 1454.1 M1064 1450.39 Q1069.81 1450.39 1072.87 1455 Q1075.95 1459.58 1075.95 1468.33 Q1075.95 1477.06 1072.87 1481.67 Q1069.81 1486.25 1064 1486.25 Q1058.19 1486.25 1055.11 1481.67 Q1052.06 1477.06 1052.06 1468.33 Q1052.06 1459.58 1055.11 1455 Q1058.19 1450.39 1064 1450.39 Z" fill="#000000" fill-rule="nonzero" fill-opacity="1" /><path clip-path="url(#clip850)" d="M1094.16 1454.1 Q1090.55 1454.1 1088.72 1457.66 Q1086.92 1461.2 1086.92 1468.33 Q1086.92 1475.44 1088.72 1479.01 Q1090.55 1482.55 1094.16 1482.55 Q1097.8 1482.55 1099.6 1479.01 Q1101.43 1475.44 1101.43 1468.33 Q1101.43 1461.2 1099.6 1457.66 Q1097.8 1454.1 1094.16 1454.1 M1094.16 1450.39 Q1099.97 1450.39 1103.03 1455 Q1106.11 1459.58 1106.11 1468.33 Q1106.11 1477.06 1103.03 1481.67 Q1099.97 1486.25 1094.16 1486.25 Q1088.35 1486.25 1085.27 1481.67 Q1082.22 1477.06 1082.22 1468.33 Q1082.22 1459.58 1085.27 1455 Q1088.35 1450.39 1094.16 1450.39 Z" fill="#000000" fill-rule="nonzero" fill-opacity="1" /><path clip-path="url(#clip850)" d="M1467.46 1466.95 Q1470.82 1467.66 1472.7 1469.93 Q1474.59 1472.2 1474.59 1475.53 Q1474.59 1480.65 1471.07 1483.45 Q1467.56 1486.25 1461.07 1486.25 Q1458.9 1486.25 1456.58 1485.81 Q1454.29 1485.39 1451.84 1484.54 L1451.84 1480.02 Q1453.78 1481.16 1456.1 1481.74 Q1458.41 1482.32 1460.94 1482.32 Q1465.33 1482.32 1467.63 1480.58 Q1469.94 1478.84 1469.94 1475.53 Q1469.94 1472.48 1467.79 1470.77 Q1465.66 1469.03 1461.84 1469.03 L1457.81 1469.03 L1457.81 1465.19 L1462.02 1465.19 Q1465.47 1465.19 1467.3 1463.82 Q1469.13 1462.43 1469.13 1459.84 Q1469.13 1457.18 1467.23 1455.77 Q1465.36 1454.33 1461.84 1454.33 Q1459.92 1454.33 1457.72 1454.75 Q1455.52 1455.16 1452.88 1456.04 L1452.88 1451.88 Q1455.54 1451.14 1457.86 1450.77 Q1460.2 1450.39 1462.26 1450.39 Q1467.58 1450.39 1470.68 1452.83 Q1473.78 1455.23 1473.78 1459.35 Q1473.78 1462.22 1472.14 1464.21 Q1470.5 1466.18 1467.46 1466.95 Z" fill="#000000" fill-rule="nonzero" fill-opacity="1" /><path clip-path="url(#clip850)" d="M1493.46 1454.1 Q1489.85 1454.1 1488.02 1457.66 Q1486.21 1461.2 1486.21 1468.33 Q1486.21 1475.44 1488.02 1479.01 Q1489.85 1482.55 1493.46 1482.55 Q1497.09 1482.55 1498.9 1479.01 Q1500.73 1475.44 1500.73 1468.33 Q1500.73 1461.2 1498.9 1457.66 Q1497.09 1454.1 1493.46 1454.1 M1493.46 1450.39 Q1499.27 1450.39 1502.32 1455 Q1505.4 1459.58 1505.4 1468.33 Q1505.4 1477.06 1502.32 1481.67 Q1499.27 1486.25 1493.46 1486.25 Q1487.65 1486.25 1484.57 1481.67 Q1481.51 1477.06 1481.51 1468.33 Q1481.51 1459.58 1484.57 1455 Q1487.65 1450.39 1493.46 1450.39 Z" fill="#000000" fill-rule="nonzero" fill-opacity="1" /><path clip-path="url(#clip850)" d="M1523.62 1454.1 Q1520.01 1454.1 1518.18 1457.66 Q1516.38 1461.2 1516.38 1468.33 Q1516.38 1475.44 1518.18 1479.01 Q1520.01 1482.55 1523.62 1482.55 Q1527.25 1482.55 1529.06 1479.01 Q1530.89 1475.44 1530.89 1468.33 Q1530.89 1461.2 1529.06 1457.66 Q1527.25 1454.1 1523.62 1454.1 M1523.62 1450.39 Q1529.43 1450.39 1532.49 1455 Q1535.57 1459.58 1535.57 1468.33 Q1535.57 1477.06 1532.49 1481.67 Q1529.43 1486.25 1523.62 1486.25 Q1517.81 1486.25 1514.73 1481.67 Q1511.68 1477.06 1511.68 1468.33 Q1511.68 1459.58 1514.73 1455 Q1517.81 1450.39 1523.62 1450.39 Z" fill="#000000" fill-rule="nonzero" fill-opacity="1" /><path clip-path="url(#clip850)" d="M1896.32 1455.09 L1884.51 1473.54 L1896.32 1473.54 L1896.32 1455.09 M1895.09 1451.02 L1900.97 1451.02 L1900.97 1473.54 L1905.9 1473.54 L1905.9 1477.43 L1900.97 1477.43 L1900.97 1485.58 L1896.32 1485.58 L1896.32 1477.43 L1880.72 1477.43 L1880.72 1472.92 L1895.09 1451.02 Z" fill="#000000" fill-rule="nonzero" fill-opacity="1" /><path clip-path="url(#clip850)" d="M1923.63 1454.1 Q1920.02 1454.1 1918.19 1457.66 Q1916.39 1461.2 1916.39 1468.33 Q1916.39 1475.44 1918.19 1479.01 Q1920.02 1482.55 1923.63 1482.55 Q1927.27 1482.55 1929.07 1479.01 Q1930.9 1475.44 1930.9 1468.33 Q1930.9 1461.2 1929.07 1457.66 Q1927.27 1454.1 1923.63 1454.1 M1923.63 1450.39 Q1929.44 1450.39 1932.5 1455 Q1935.58 1459.58 1935.58 1468.33 Q1935.58 1477.06 1932.5 1481.67 Q1929.44 1486.25 1923.63 1486.25 Q1917.82 1486.25 1914.75 1481.67 Q1911.69 1477.06 1911.69 1468.33 Q1911.69 1459.58 1914.75 1455 Q1917.82 1450.39 1923.63 1450.39 Z" fill="#000000" fill-rule="nonzero" fill-opacity="1" /><path clip-path="url(#clip850)" d="M1953.8 1454.1 Q1950.18 1454.1 1948.36 1457.66 Q1946.55 1461.2 1946.55 1468.33 Q1946.55 1475.44 1948.36 1479.01 Q1950.18 1482.55 1953.8 1482.55 Q1957.43 1482.55 1959.24 1479.01 Q1961.06 1475.44 1961.06 1468.33 Q1961.06 1461.2 1959.24 1457.66 Q1957.43 1454.1 1953.8 1454.1 M1953.8 1450.39 Q1959.61 1450.39 1962.66 1455 Q1965.74 1459.58 1965.74 1468.33 Q1965.74 1477.06 1962.66 1481.67 Q1959.61 1486.25 1953.8 1486.25 Q1947.99 1486.25 1944.91 1481.67 Q1941.85 1477.06 1941.85 1468.33 Q1941.85 1459.58 1944.91 1455 Q1947.99 1450.39 1953.8 1450.39 Z" fill="#000000" fill-rule="nonzero" fill-opacity="1" /><path clip-path="url(#clip850)" d="M2312.37 1451.02 L2330.73 1451.02 L2330.73 1454.96 L2316.66 1454.96 L2316.66 1463.43 Q2317.68 1463.08 2318.69 1462.92 Q2319.71 1462.73 2320.73 1462.73 Q2326.52 1462.73 2329.9 1465.9 Q2333.28 1469.08 2333.28 1474.49 Q2333.28 1480.07 2329.8 1483.17 Q2326.33 1486.25 2320.01 1486.25 Q2317.84 1486.25 2315.57 1485.88 Q2313.32 1485.51 2310.92 1484.77 L2310.92 1480.07 Q2313 1481.2 2315.22 1481.76 Q2317.44 1482.32 2319.92 1482.32 Q2323.93 1482.32 2326.26 1480.21 Q2328.6 1478.1 2328.6 1474.49 Q2328.6 1470.88 2326.26 1468.77 Q2323.93 1466.67 2319.92 1466.67 Q2318.05 1466.67 2316.17 1467.08 Q2314.32 1467.5 2312.37 1468.38 L2312.37 1451.02 Z" fill="#000000" fill-rule="nonzero" fill-opacity="1" /><path clip-path="url(#clip850)" d="M2352.49 1454.1 Q2348.88 1454.1 2347.05 1457.66 Q2345.24 1461.2 2345.24 1468.33 Q2345.24 1475.44 2347.05 1479.01 Q2348.88 1482.55 2352.49 1482.55 Q2356.12 1482.55 2357.93 1479.01 Q2359.76 1475.44 2359.76 1468.33 Q2359.76 1461.2 2357.93 1457.66 Q2356.12 1454.1 2352.49 1454.1 M2352.49 1450.39 Q2358.3 1450.39 2361.36 1455 Q2364.43 1459.58 2364.43 1468.33 Q2364.43 1477.06 2361.36 1481.67 Q2358.3 1486.25 2352.49 1486.25 Q2346.68 1486.25 2343.6 1481.67 Q2340.55 1477.06 2340.55 1468.33 Q2340.55 1459.58 2343.6 1455 Q2346.68 1450.39 2352.49 1450.39 Z" fill="#000000" fill-rule="nonzero" fill-opacity="1" /><path clip-path="url(#clip850)" d="M2382.65 1454.1 Q2379.04 1454.1 2377.21 1457.66 Q2375.41 1461.2 2375.41 1468.33 Q2375.41 1475.44 2377.21 1479.01 Q2379.04 1482.55 2382.65 1482.55 Q2386.29 1482.55 2388.09 1479.01 Q2389.92 1475.44 2389.92 1468.33 Q2389.92 1461.2 2388.09 1457.66 Q2386.29 1454.1 2382.65 1454.1 M2382.65 1450.39 Q2388.46 1450.39 2391.52 1455 Q2394.6 1459.58 2394.6 1468.33 Q2394.6 1477.06 2391.52 1481.67 Q2388.46 1486.25 2382.65 1486.25 Q2376.84 1486.25 2373.76 1481.67 Q2370.71 1477.06 2370.71 1468.33 Q2370.71 1459.58 2373.76 1455 Q2376.84 1450.39 2382.65 1450.39 Z" fill="#000000" fill-rule="nonzero" fill-opacity="1" /><path clip-path="url(#clip850)" d="M1098.73 1525.81 L1098.73 1543.66 L1106.81 1543.66 Q1111.3 1543.66 1113.75 1541.34 Q1116.2 1539.02 1116.2 1534.72 Q1116.2 1530.45 1113.75 1528.13 Q1111.3 1525.81 1106.81 1525.81 L1098.73 1525.81 M1092.3 1520.52 L1106.81 1520.52 Q1114.8 1520.52 1118.87 1524.15 Q1122.98 1527.75 1122.98 1534.72 Q1122.98 1541.75 1118.87 1545.35 Q1114.8 1548.95 1106.81 1548.95 L1098.73 1548.95 L1098.73 1568.04 L1092.3 1568.04 L1092.3 1520.52 Z" fill="#000000" fill-rule="nonzero" fill-opacity="1" /><path clip-path="url(#clip850)" d="M1144.62 1550.12 Q1137.52 1550.12 1134.79 1551.75 Q1132.05 1553.37 1132.05 1557.29 Q1132.05 1560.4 1134.09 1562.25 Q1136.16 1564.07 1139.69 1564.07 Q1144.56 1564.07 1147.49 1560.63 Q1150.45 1557.16 1150.45 1551.43 L1150.45 1550.12 L1144.62 1550.12 M1156.3 1547.71 L1156.3 1568.04 L1150.45 1568.04 L1150.45 1562.63 Q1148.44 1565.88 1145.45 1567.44 Q1142.46 1568.97 1138.13 1568.97 Q1132.65 1568.97 1129.41 1565.91 Q1126.19 1562.82 1126.19 1557.67 Q1126.19 1551.65 1130.2 1548.6 Q1134.25 1545.54 1142.23 1545.54 L1150.45 1545.54 L1150.45 1544.97 Q1150.45 1540.93 1147.77 1538.73 Q1145.13 1536.5 1140.33 1536.5 Q1137.27 1536.5 1134.37 1537.23 Q1131.48 1537.97 1128.8 1539.43 L1128.8 1534.02 Q1132.02 1532.78 1135.04 1532.17 Q1138.07 1531.54 1140.93 1531.54 Q1148.66 1531.54 1152.48 1535.55 Q1156.3 1539.56 1156.3 1547.71 Z" fill="#000000" fill-rule="nonzero" fill-opacity="1" /><path clip-path="url(#clip850)" d="M1183.2 1571.35 Q1180.72 1577.72 1178.36 1579.66 Q1176 1581.6 1172.06 1581.6 L1167.38 1581.6 L1167.38 1576.7 L1170.82 1576.7 Q1173.24 1576.7 1174.57 1575.56 Q1175.91 1574.41 1177.53 1570.14 L1178.58 1567.47 L1164.16 1532.4 L1170.37 1532.4 L1181.51 1560.28 L1192.65 1532.4 L1198.86 1532.4 L1183.2 1571.35 Z" fill="#000000" fill-rule="nonzero" fill-opacity="1" /><path clip-path="url(#clip850)" d="M1206.94 1518.52 L1212.8 1518.52 L1212.8 1568.04 L1206.94 1568.04 L1206.94 1518.52 Z" fill="#000000" fill-rule="nonzero" fill-opacity="1" /><path clip-path="url(#clip850)" d="M1238.87 1536.5 Q1234.16 1536.5 1231.42 1540.19 Q1228.68 1543.85 1228.68 1550.25 Q1228.68 1556.65 1231.39 1560.34 Q1234.12 1564 1238.87 1564 Q1243.55 1564 1246.28 1560.31 Q1249.02 1556.62 1249.02 1550.25 Q1249.02 1543.92 1246.28 1540.23 Q1243.55 1536.5 1238.87 1536.5 M1238.87 1531.54 Q1246.51 1531.54 1250.87 1536.5 Q1255.23 1541.47 1255.23 1550.25 Q1255.23 1559 1250.87 1564 Q1246.51 1568.97 1238.87 1568.97 Q1231.2 1568.97 1226.84 1564 Q1222.51 1559 1222.51 1550.25 Q1222.51 1541.47 1226.84 1536.5 Q1231.2 1531.54 1238.87 1531.54 Z" fill="#000000" fill-rule="nonzero" fill-opacity="1" /><path clip-path="url(#clip850)" d="M1281.13 1550.12 Q1274.04 1550.12 1271.3 1551.75 Q1268.56 1553.37 1268.56 1557.29 Q1268.56 1560.4 1270.6 1562.25 Q1272.67 1564.07 1276.2 1564.07 Q1281.07 1564.07 1284 1560.63 Q1286.96 1557.16 1286.96 1551.43 L1286.96 1550.12 L1281.13 1550.12 M1292.82 1547.71 L1292.82 1568.04 L1286.96 1568.04 L1286.96 1562.63 Q1284.95 1565.88 1281.96 1567.44 Q1278.97 1568.97 1274.64 1568.97 Q1269.17 1568.97 1265.92 1565.91 Q1262.71 1562.82 1262.71 1557.67 Q1262.71 1551.65 1266.72 1548.6 Q1270.76 1545.54 1278.75 1545.54 L1286.96 1545.54 L1286.96 1544.97 Q1286.96 1540.93 1284.29 1538.73 Q1281.64 1536.5 1276.84 1536.5 Q1273.78 1536.5 1270.89 1537.23 Q1267.99 1537.97 1265.32 1539.43 L1265.32 1534.02 Q1268.53 1532.78 1271.55 1532.17 Q1274.58 1531.54 1277.44 1531.54 Q1285.18 1531.54 1289 1535.55 Q1292.82 1539.56 1292.82 1547.71 Z" fill="#000000" fill-rule="nonzero" fill-opacity="1" /><path clip-path="url(#clip850)" d="M1328.34 1537.81 L1328.34 1518.52 L1334.19 1518.52 L1334.19 1568.04 L1328.34 1568.04 L1328.34 1562.7 Q1326.49 1565.88 1323.66 1567.44 Q1320.86 1568.97 1316.91 1568.97 Q1310.45 1568.97 1306.37 1563.81 Q1302.33 1558.65 1302.33 1550.25 Q1302.33 1541.85 1306.37 1536.69 Q1310.45 1531.54 1316.91 1531.54 Q1320.86 1531.54 1323.66 1533.1 Q1326.49 1534.62 1328.34 1537.81 M1308.38 1550.25 Q1308.38 1556.71 1311.02 1560.4 Q1313.7 1564.07 1318.34 1564.07 Q1322.99 1564.07 1325.66 1560.4 Q1328.34 1556.71 1328.34 1550.25 Q1328.34 1543.79 1325.66 1540.13 Q1322.99 1536.44 1318.34 1536.44 Q1313.7 1536.44 1311.02 1540.13 Q1308.38 1543.79 1308.38 1550.25 Z" fill="#000000" fill-rule="nonzero" fill-opacity="1" /><path clip-path="url(#clip850)" d="M1366.44 1518.52 L1379.93 1518.52 L1379.93 1523.07 L1372.29 1523.07 L1372.29 1572.09 L1379.93 1572.09 L1379.93 1576.64 L1366.44 1576.64 L1366.44 1518.52 Z" fill="#000000" fill-rule="nonzero" fill-opacity="1" /><path clip-path="url(#clip850)" d="M1392.41 1518.52 L1398.26 1518.52 L1398.26 1568.04 L1392.41 1568.04 L1392.41 1518.52 Z" fill="#000000" fill-rule="nonzero" fill-opacity="1" /><path clip-path="url(#clip850)" d="M1436.11 1550.25 Q1436.11 1543.79 1433.43 1540.13 Q1430.79 1536.44 1426.15 1536.44 Q1421.5 1536.44 1418.82 1540.13 Q1416.18 1543.79 1416.18 1550.25 Q1416.18 1556.71 1418.82 1560.4 Q1421.5 1564.07 1426.15 1564.07 Q1430.79 1564.07 1433.43 1560.4 Q1436.11 1556.71 1436.11 1550.25 M1416.18 1537.81 Q1418.03 1534.62 1420.83 1533.1 Q1423.66 1531.54 1427.58 1531.54 Q1434.07 1531.54 1438.11 1536.69 Q1442.19 1541.85 1442.19 1550.25 Q1442.19 1558.65 1438.11 1563.81 Q1434.07 1568.97 1427.58 1568.97 Q1423.66 1568.97 1420.83 1567.44 Q1418.03 1565.88 1416.18 1562.7 L1416.18 1568.04 L1410.29 1568.04 L1410.29 1518.52 L1416.18 1518.52 L1416.18 1537.81 Z" fill="#000000" fill-rule="nonzero" fill-opacity="1" /><path clip-path="url(#clip850)" d="M1465.58 1518.52 L1465.58 1576.64 L1452.09 1576.64 L1452.09 1572.09 L1459.69 1572.09 L1459.69 1523.07 L1452.09 1523.07 L1452.09 1518.52 L1465.58 1518.52 Z" fill="#000000" fill-rule="nonzero" fill-opacity="1" /><polyline clip-path="url(#clip850)" style="stroke:#000000; stroke-linecap:round; stroke-linejoin:round; stroke-width:4; stroke-opacity:1; fill:none" points="205.121,1423.18 205.121,47.2441 "/>
<polyline clip-path="url(#clip850)" style="stroke:#000000; stroke-linecap:round; stroke-linejoin:round; stroke-width:4; stroke-opacity:1; fill:none" points="205.121,1423.18 224.019,1423.18 "/>
<polyline clip-path="url(#clip850)" style="stroke:#000000; stroke-linecap:round; stroke-linejoin:round; stroke-width:4; stroke-opacity:1; fill:none" points="205.121,1193.86 224.019,1193.86 "/>
<polyline clip-path="url(#clip850)" style="stroke:#000000; stroke-linecap:round; stroke-linejoin:round; stroke-width:4; stroke-opacity:1; fill:none" points="205.121,964.535 224.019,964.535 "/>
<polyline clip-path="url(#clip850)" style="stroke:#000000; stroke-linecap:round; stroke-linejoin:round; stroke-width:4; stroke-opacity:1; fill:none" points="205.121,735.212 224.019,735.212 "/>
<polyline clip-path="url(#clip850)" style="stroke:#000000; stroke-linecap:round; stroke-linejoin:round; stroke-width:4; stroke-opacity:1; fill:none" points="205.121,505.889 224.019,505.889 "/>
<polyline clip-path="url(#clip850)" style="stroke:#000000; stroke-linecap:round; stroke-linejoin:round; stroke-width:4; stroke-opacity:1; fill:none" points="205.121,276.567 224.019,276.567 "/>
<polyline clip-path="url(#clip850)" style="stroke:#000000; stroke-linecap:round; stroke-linejoin:round; stroke-width:4; stroke-opacity:1; fill:none" points="205.121,47.2441 224.019,47.2441 "/>
<path clip-path="url(#clip850)" d="M157.177 1408.98 Q153.566 1408.98 151.737 1412.54 Q149.931 1416.08 149.931 1423.21 Q149.931 1430.32 151.737 1433.89 Q153.566 1437.43 157.177 1437.43 Q160.811 1437.43 162.616 1433.89 Q164.445 1430.32 164.445 1423.21 Q164.445 1416.08 162.616 1412.54 Q160.811 1408.98 157.177 1408.98 M157.177 1405.27 Q162.987 1405.27 166.042 1409.88 Q169.121 1414.46 169.121 1423.21 Q169.121 1431.94 166.042 1436.55 Q162.987 1441.13 157.177 1441.13 Q151.366 1441.13 148.288 1436.55 Q145.232 1431.94 145.232 1423.21 Q145.232 1414.46 148.288 1409.88 Q151.366 1405.27 157.177 1405.27 Z" fill="#000000" fill-rule="nonzero" fill-opacity="1" /><path clip-path="url(#clip850)" d="M117.825 1207.2 L125.464 1207.2 L125.464 1180.84 L117.154 1182.5 L117.154 1178.24 L125.418 1176.58 L130.093 1176.58 L130.093 1207.2 L137.732 1207.2 L137.732 1211.14 L117.825 1211.14 L117.825 1207.2 Z" fill="#000000" fill-rule="nonzero" fill-opacity="1" /><path clip-path="url(#clip850)" d="M157.177 1179.66 Q153.566 1179.66 151.737 1183.22 Q149.931 1186.76 149.931 1193.89 Q149.931 1201 151.737 1204.56 Q153.566 1208.1 157.177 1208.1 Q160.811 1208.1 162.616 1204.56 Q164.445 1201 164.445 1193.89 Q164.445 1186.76 162.616 1183.22 Q160.811 1179.66 157.177 1179.66 M157.177 1175.95 Q162.987 1175.95 166.042 1180.56 Q169.121 1185.14 169.121 1193.89 Q169.121 1202.62 166.042 1207.23 Q162.987 1211.81 157.177 1211.81 Q151.366 1211.81 148.288 1207.23 Q145.232 1202.62 145.232 1193.89 Q145.232 1185.14 148.288 1180.56 Q151.366 1175.95 157.177 1175.95 Z" fill="#000000" fill-rule="nonzero" fill-opacity="1" /><path clip-path="url(#clip850)" d="M121.043 977.879 L137.362 977.879 L137.362 981.815 L115.418 981.815 L115.418 977.879 Q118.08 975.125 122.663 970.495 Q127.269 965.842 128.45 964.5 Q130.695 961.977 131.575 960.241 Q132.478 958.481 132.478 956.792 Q132.478 954.037 130.533 952.301 Q128.612 950.565 125.51 950.565 Q123.311 950.565 120.857 951.329 Q118.427 952.093 115.649 953.643 L115.649 948.921 Q118.473 947.787 120.927 947.208 Q123.38 946.63 125.418 946.63 Q130.788 946.63 133.982 949.315 Q137.177 952 137.177 956.491 Q137.177 958.62 136.367 960.542 Q135.579 962.44 133.473 965.032 Q132.894 965.704 129.792 968.921 Q126.691 972.116 121.043 977.879 Z" fill="#000000" fill-rule="nonzero" fill-opacity="1" /><path clip-path="url(#clip850)" d="M157.177 950.333 Q153.566 950.333 151.737 953.898 Q149.931 957.44 149.931 964.569 Q149.931 971.676 151.737 975.241 Q153.566 978.782 157.177 978.782 Q160.811 978.782 162.616 975.241 Q164.445 971.676 164.445 964.569 Q164.445 957.44 162.616 953.898 Q160.811 950.333 157.177 950.333 M157.177 946.63 Q162.987 946.63 166.042 951.236 Q169.121 955.819 169.121 964.569 Q169.121 973.296 166.042 977.903 Q162.987 982.486 157.177 982.486 Q151.366 982.486 148.288 977.903 Q145.232 973.296 145.232 964.569 Q145.232 955.819 148.288 951.236 Q151.366 946.63 157.177 946.63 Z" fill="#000000" fill-rule="nonzero" fill-opacity="1" /><path clip-path="url(#clip850)" d="M131.181 733.858 Q134.538 734.575 136.413 736.844 Q138.311 739.112 138.311 742.446 Q138.311 747.561 134.792 750.362 Q131.274 753.163 124.793 753.163 Q122.617 753.163 120.302 752.723 Q118.01 752.307 115.556 751.45 L115.556 746.936 Q117.501 748.071 119.816 748.649 Q122.13 749.228 124.654 749.228 Q129.052 749.228 131.343 747.492 Q133.658 745.756 133.658 742.446 Q133.658 739.39 131.505 737.677 Q129.376 735.941 125.556 735.941 L121.529 735.941 L121.529 732.099 L125.742 732.099 Q129.191 732.099 131.019 730.733 Q132.848 729.344 132.848 726.751 Q132.848 724.089 130.95 722.677 Q129.075 721.242 125.556 721.242 Q123.635 721.242 121.436 721.659 Q119.237 722.075 116.598 722.955 L116.598 718.788 Q119.26 718.048 121.575 717.677 Q123.913 717.307 125.973 717.307 Q131.297 717.307 134.399 719.738 Q137.501 722.145 137.501 726.265 Q137.501 729.136 135.857 731.126 Q134.214 733.094 131.181 733.858 Z" fill="#000000" fill-rule="nonzero" fill-opacity="1" /><path clip-path="url(#clip850)" d="M157.177 721.011 Q153.566 721.011 151.737 724.575 Q149.931 728.117 149.931 735.247 Q149.931 742.353 151.737 745.918 Q153.566 749.46 157.177 749.46 Q160.811 749.46 162.616 745.918 Q164.445 742.353 164.445 735.247 Q164.445 728.117 162.616 724.575 Q160.811 721.011 157.177 721.011 M157.177 717.307 Q162.987 717.307 166.042 721.913 Q169.121 726.497 169.121 735.247 Q169.121 743.973 166.042 748.58 Q162.987 753.163 157.177 753.163 Q151.366 753.163 148.288 748.58 Q145.232 743.973 145.232 735.247 Q145.232 726.497 148.288 721.913 Q151.366 717.307 157.177 717.307 Z" fill="#000000" fill-rule="nonzero" fill-opacity="1" /><path clip-path="url(#clip850)" d="M129.862 492.683 L118.056 511.132 L129.862 511.132 L129.862 492.683 M128.635 488.609 L134.515 488.609 L134.515 511.132 L139.445 511.132 L139.445 515.021 L134.515 515.021 L134.515 523.169 L129.862 523.169 L129.862 515.021 L114.26 515.021 L114.26 510.507 L128.635 488.609 Z" fill="#000000" fill-rule="nonzero" fill-opacity="1" /><path clip-path="url(#clip850)" d="M157.177 491.688 Q153.566 491.688 151.737 495.253 Q149.931 498.794 149.931 505.924 Q149.931 513.031 151.737 516.595 Q153.566 520.137 157.177 520.137 Q160.811 520.137 162.616 516.595 Q164.445 513.031 164.445 505.924 Q164.445 498.794 162.616 495.253 Q160.811 491.688 157.177 491.688 M157.177 487.984 Q162.987 487.984 166.042 492.591 Q169.121 497.174 169.121 505.924 Q169.121 514.651 166.042 519.257 Q162.987 523.841 157.177 523.841 Q151.366 523.841 148.288 519.257 Q145.232 514.651 145.232 505.924 Q145.232 497.174 148.288 492.591 Q151.366 487.984 157.177 487.984 Z" fill="#000000" fill-rule="nonzero" fill-opacity="1" /><path clip-path="url(#clip850)" d="M117.061 259.287 L135.417 259.287 L135.417 263.222 L121.343 263.222 L121.343 271.694 Q122.362 271.347 123.38 271.185 Q124.399 271 125.418 271 Q131.205 271 134.584 274.171 Q137.964 277.342 137.964 282.759 Q137.964 288.337 134.492 291.439 Q131.019 294.518 124.7 294.518 Q122.524 294.518 120.255 294.148 Q118.01 293.777 115.603 293.037 L115.603 288.337 Q117.686 289.472 119.908 290.027 Q122.13 290.583 124.607 290.583 Q128.612 290.583 130.95 288.476 Q133.288 286.37 133.288 282.759 Q133.288 279.148 130.95 277.041 Q128.612 274.935 124.607 274.935 Q122.732 274.935 120.857 275.351 Q119.006 275.768 117.061 276.648 L117.061 259.287 Z" fill="#000000" fill-rule="nonzero" fill-opacity="1" /><path clip-path="url(#clip850)" d="M157.177 262.365 Q153.566 262.365 151.737 265.93 Q149.931 269.472 149.931 276.601 Q149.931 283.708 151.737 287.273 Q153.566 290.814 157.177 290.814 Q160.811 290.814 162.616 287.273 Q164.445 283.708 164.445 276.601 Q164.445 269.472 162.616 265.93 Q160.811 262.365 157.177 262.365 M157.177 258.662 Q162.987 258.662 166.042 263.268 Q169.121 267.851 169.121 276.601 Q169.121 285.328 166.042 289.935 Q162.987 294.518 157.177 294.518 Q151.366 294.518 148.288 289.935 Q145.232 285.328 145.232 276.601 Q145.232 267.851 148.288 263.268 Q151.366 258.662 157.177 258.662 Z" fill="#000000" fill-rule="nonzero" fill-opacity="1" /><path clip-path="url(#clip850)" d="M127.593 45.3807 Q124.445 45.3807 122.593 47.5334 Q120.765 49.6862 120.765 53.4362 Q120.765 57.163 122.593 59.3389 Q124.445 61.4917 127.593 61.4917 Q130.742 61.4917 132.57 59.3389 Q134.422 57.163 134.422 53.4362 Q134.422 49.6862 132.57 47.5334 Q130.742 45.3807 127.593 45.3807 M136.876 30.728 L136.876 34.9872 Q135.117 34.1539 133.311 33.7141 Q131.529 33.2743 129.769 33.2743 Q125.14 33.2743 122.686 36.3992 Q120.255 39.5242 119.908 45.8436 Q121.274 43.8298 123.334 42.765 Q125.394 41.677 127.871 41.677 Q133.08 41.677 136.089 44.8483 Q139.121 47.9964 139.121 53.4362 Q139.121 58.7602 135.973 61.9778 Q132.825 65.1954 127.593 65.1954 Q121.598 65.1954 118.427 60.6121 Q115.256 56.0056 115.256 47.2788 Q115.256 39.0844 119.144 34.2233 Q123.033 29.3391 129.584 29.3391 Q131.343 29.3391 133.126 29.6863 Q134.931 30.0335 136.876 30.728 Z" fill="#000000" fill-rule="nonzero" fill-opacity="1" /><path clip-path="url(#clip850)" d="M157.177 33.0428 Q153.566 33.0428 151.737 36.6076 Q149.931 40.1492 149.931 47.2788 Q149.931 54.3853 151.737 57.9501 Q153.566 61.4917 157.177 61.4917 Q160.811 61.4917 162.616 57.9501 Q164.445 54.3853 164.445 47.2788 Q164.445 40.1492 162.616 36.6076 Q160.811 33.0428 157.177 33.0428 M157.177 29.3391 Q162.987 29.3391 166.042 33.9456 Q169.121 38.5289 169.121 47.2788 Q169.121 56.0056 166.042 60.6121 Q162.987 65.1954 157.177 65.1954 Q151.366 65.1954 148.288 60.6121 Q145.232 56.0056 145.232 47.2788 Q145.232 38.5289 148.288 33.9456 Q151.366 29.3391 157.177 29.3391 Z" fill="#000000" fill-rule="nonzero" fill-opacity="1" /><path clip-path="url(#clip850)" d="M16.4842 1142.28 L16.4842 1102.08 L21.895 1102.08 L21.895 1118.95 L64.0042 1118.95 L64.0042 1125.41 L21.895 1125.41 L21.895 1142.28 L16.4842 1142.28 Z" fill="#000000" fill-rule="nonzero" fill-opacity="1" /><path clip-path="url(#clip850)" d="M33.8307 1085.06 Q33.2578 1086.04 33.0032 1087.22 Q32.7167 1088.37 32.7167 1089.77 Q32.7167 1094.73 35.9632 1097.4 Q39.1779 1100.05 45.2253 1100.05 L64.0042 1100.05 L64.0042 1105.93 L28.3562 1105.93 L28.3562 1100.05 L33.8944 1100.05 Q30.6479 1098.2 29.0883 1095.24 Q27.4968 1092.28 27.4968 1088.05 Q27.4968 1087.44 27.5923 1086.71 Q27.656 1085.98 27.8151 1085.09 L33.8307 1085.06 Z" fill="#000000" fill-rule="nonzero" fill-opacity="1" /><path clip-path="url(#clip850)" d="M28.3562 1078.91 L28.3562 1073.06 L64.0042 1073.06 L64.0042 1078.91 L28.3562 1078.91 M14.479 1078.91 L14.479 1073.06 L21.895 1073.06 L21.895 1078.91 L14.479 1078.91 Z" fill="#000000" fill-rule="nonzero" fill-opacity="1" /><path clip-path="url(#clip850)" d="M35.1993 1033.05 Q31.2526 1030.85 29.3747 1027.8 Q27.4968 1024.74 27.4968 1020.6 Q27.4968 1015.03 31.4117 1012.01 Q35.2948 1008.99 42.4881 1008.99 L64.0042 1008.99 L64.0042 1014.87 L42.679 1014.87 Q37.5546 1014.87 35.072 1016.69 Q32.5894 1018.5 32.5894 1022.23 Q32.5894 1026.78 35.6131 1029.42 Q38.6368 1032.06 43.8567 1032.06 L64.0042 1032.06 L64.0042 1037.95 L42.679 1037.95 Q37.5228 1037.95 35.072 1039.76 Q32.5894 1041.58 32.5894 1045.37 Q32.5894 1049.85 35.6449 1052.49 Q38.6686 1055.14 43.8567 1055.14 L64.0042 1055.14 L64.0042 1061.02 L28.3562 1061.02 L28.3562 1055.14 L33.8944 1055.14 Q30.616 1053.13 29.0564 1050.33 Q27.4968 1047.53 27.4968 1043.68 Q27.4968 1039.8 29.4702 1037.09 Q31.4436 1034.35 35.1993 1033.05 Z" fill="#000000" fill-rule="nonzero" fill-opacity="1" /><path clip-path="url(#clip850)" d="M18.2347 970.791 L28.3562 970.791 L28.3562 958.728 L32.9077 958.728 L32.9077 970.791 L52.2594 970.791 Q56.6199 970.791 57.8613 969.613 Q59.1026 968.404 59.1026 964.743 L59.1026 958.728 L64.0042 958.728 L64.0042 964.743 Q64.0042 971.523 61.4897 974.101 Q58.9434 976.679 52.2594 976.679 L32.9077 976.679 L32.9077 980.976 L28.3562 980.976 L28.3562 976.679 L18.2347 976.679 L18.2347 970.791 Z" fill="#000000" fill-rule="nonzero" fill-opacity="1" /><path clip-path="url(#clip850)" d="M42.4881 921.393 L64.0042 921.393 L64.0042 927.249 L42.679 927.249 Q37.6183 927.249 35.1038 929.223 Q32.5894 931.196 32.5894 935.143 Q32.5894 939.885 35.6131 942.623 Q38.6368 945.36 43.8567 945.36 L64.0042 945.36 L64.0042 951.248 L14.479 951.248 L14.479 945.36 L33.8944 945.36 Q30.6797 943.259 29.0883 940.426 Q27.4968 937.562 27.4968 933.838 Q27.4968 927.695 31.3163 924.544 Q35.1038 921.393 42.4881 921.393 Z" fill="#000000" fill-rule="nonzero" fill-opacity="1" /><path clip-path="url(#clip850)" d="M33.8307 889.055 Q33.2578 890.042 33.0032 891.22 Q32.7167 892.365 32.7167 893.766 Q32.7167 898.731 35.9632 901.405 Q39.1779 904.046 45.2253 904.046 L64.0042 904.046 L64.0042 909.935 L28.3562 909.935 L28.3562 904.046 L33.8944 904.046 Q30.6479 902.2 29.0883 899.24 Q27.4968 896.28 27.4968 892.047 Q27.4968 891.442 27.5923 890.71 Q27.656 889.978 27.8151 889.087 L33.8307 889.055 Z" fill="#000000" fill-rule="nonzero" fill-opacity="1" /><path clip-path="url(#clip850)" d="M49.9359 883.517 L28.3562 883.517 L28.3562 877.661 L49.7131 877.661 Q54.7739 877.661 57.3202 875.687 Q59.8346 873.714 59.8346 869.767 Q59.8346 865.025 56.8109 862.287 Q53.7872 859.518 48.5673 859.518 L28.3562 859.518 L28.3562 853.662 L64.0042 853.662 L64.0042 859.518 L58.5296 859.518 Q61.7762 861.651 63.3676 864.484 Q64.9272 867.284 64.9272 871.008 Q64.9272 877.151 61.1078 880.334 Q57.2883 883.517 49.9359 883.517 M27.4968 868.78 L27.4968 868.78 Z" fill="#000000" fill-rule="nonzero" fill-opacity="1" /><path clip-path="url(#clip850)" d="M29.4065 818.873 L34.9447 818.873 Q33.6716 821.356 33.035 824.029 Q32.3984 826.703 32.3984 829.568 Q32.3984 833.928 33.7352 836.124 Q35.072 838.289 37.7456 838.289 Q39.7826 838.289 40.9603 836.729 Q42.1061 835.169 43.1565 830.459 L43.6021 828.454 Q44.9389 822.215 47.3897 819.605 Q49.8086 816.964 54.1691 816.964 Q59.1344 816.964 62.0308 820.91 Q64.9272 824.825 64.9272 831.7 Q64.9272 834.565 64.3543 837.684 Q63.8132 840.771 62.6992 844.209 L56.6518 844.209 Q58.3387 840.962 59.198 837.811 Q60.0256 834.66 60.0256 831.573 Q60.0256 827.435 58.6251 825.207 Q57.1929 822.979 54.6147 822.979 Q52.2276 822.979 50.9545 824.602 Q49.6813 826.194 48.5037 831.637 L48.0262 833.674 Q46.8804 839.116 44.5251 841.535 Q42.138 843.954 38.0002 843.954 Q32.9713 843.954 30.2341 840.389 Q27.4968 836.825 27.4968 830.268 Q27.4968 827.021 27.9743 824.157 Q28.4517 821.292 29.4065 818.873 Z" fill="#000000" fill-rule="nonzero" fill-opacity="1" /><path clip-path="url(#clip850)" d="M18.2347 801.845 L28.3562 801.845 L28.3562 789.782 L32.9077 789.782 L32.9077 801.845 L52.2594 801.845 Q56.6199 801.845 57.8613 800.667 Q59.1026 799.458 59.1026 795.798 L59.1026 789.782 L64.0042 789.782 L64.0042 795.798 Q64.0042 802.577 61.4897 805.155 Q58.9434 807.733 52.2594 807.733 L32.9077 807.733 L32.9077 812.03 L28.3562 812.03 L28.3562 807.733 L18.2347 807.733 L18.2347 801.845 Z" fill="#000000" fill-rule="nonzero" fill-opacity="1" /><path clip-path="url(#clip850)" d="M58.657 755.694 L77.5631 755.694 L77.5631 761.582 L28.3562 761.582 L28.3562 755.694 L33.7671 755.694 Q30.5842 753.848 29.0564 751.047 Q27.4968 748.214 27.4968 744.299 Q27.4968 737.806 32.6531 733.764 Q37.8093 729.69 46.212 729.69 Q54.6147 729.69 59.771 733.764 Q64.9272 737.806 64.9272 744.299 Q64.9272 748.214 63.3994 751.047 Q61.8398 753.848 58.657 755.694 M46.212 735.769 Q39.7508 735.769 36.0905 738.443 Q32.3984 741.084 32.3984 745.731 Q32.3984 750.378 36.0905 753.052 Q39.7508 755.694 46.212 755.694 Q52.6732 755.694 56.3653 753.052 Q60.0256 750.378 60.0256 745.731 Q60.0256 741.084 56.3653 738.443 Q52.6732 735.769 46.212 735.769 Z" fill="#000000" fill-rule="nonzero" fill-opacity="1" /><path clip-path="url(#clip850)" d="M44.7161 689.49 L47.5806 689.49 L47.5806 716.417 Q53.6281 716.035 56.8109 712.789 Q59.9619 709.51 59.9619 703.686 Q59.9619 700.312 59.1344 697.161 Q58.3069 693.978 56.6518 690.859 L62.1899 690.859 Q63.5267 694.01 64.227 697.32 Q64.9272 700.63 64.9272 704.036 Q64.9272 712.566 59.9619 717.563 Q54.9967 722.528 46.5303 722.528 Q37.7774 722.528 32.6531 717.818 Q27.4968 713.075 27.4968 705.054 Q27.4968 697.861 32.1438 693.692 Q36.7589 689.49 44.7161 689.49 M42.9973 695.347 Q38.1912 695.41 35.3266 698.052 Q32.4621 700.662 32.4621 704.991 Q32.4621 709.892 35.2312 712.852 Q38.0002 715.781 43.0292 716.226 L42.9973 695.347 Z" fill="#000000" fill-rule="nonzero" fill-opacity="1" /><path clip-path="url(#clip850)" d="M33.8307 659.221 Q33.2578 660.208 33.0032 661.386 Q32.7167 662.532 32.7167 663.932 Q32.7167 668.897 35.9632 671.571 Q39.1779 674.213 45.2253 674.213 L64.0042 674.213 L64.0042 680.101 L28.3562 680.101 L28.3562 674.213 L33.8944 674.213 Q30.6479 672.367 29.0883 669.406 Q27.4968 666.446 27.4968 662.213 Q27.4968 661.608 27.5923 660.876 Q27.656 660.144 27.8151 659.253 L33.8307 659.221 Z" fill="#000000" fill-rule="nonzero" fill-opacity="1" /><path clip-path="url(#clip850)" d="M35.1993 604.604 Q31.2526 602.407 29.3747 599.352 Q27.4968 596.296 27.4968 592.159 Q27.4968 586.589 31.4117 583.565 Q35.2948 580.541 42.4881 580.541 L64.0042 580.541 L64.0042 586.429 L42.679 586.429 Q37.5546 586.429 35.072 588.244 Q32.5894 590.058 32.5894 593.782 Q32.5894 598.333 35.6131 600.975 Q38.6368 603.617 43.8567 603.617 L64.0042 603.617 L64.0042 609.505 L42.679 609.505 Q37.5228 609.505 35.072 611.319 Q32.5894 613.134 32.5894 616.921 Q32.5894 621.409 35.6449 624.051 Q38.6686 626.693 43.8567 626.693 L64.0042 626.693 L64.0042 632.581 L28.3562 632.581 L28.3562 626.693 L33.8944 626.693 Q30.616 624.687 29.0564 621.886 Q27.4968 619.086 27.4968 615.234 Q27.4968 611.351 29.4702 608.646 Q31.4436 605.909 35.1993 604.604 Z" fill="#000000" fill-rule="nonzero" fill-opacity="1" /><path clip-path="url(#clip850)" d="M32.4621 555.047 Q32.4621 559.757 36.1542 562.494 Q39.8145 565.232 46.212 565.232 Q52.6095 565.232 56.3017 562.526 Q59.9619 559.789 59.9619 555.047 Q59.9619 550.368 56.2698 547.631 Q52.5777 544.893 46.212 544.893 Q39.8781 544.893 36.186 547.631 Q32.4621 550.368 32.4621 555.047 M27.4968 555.047 Q27.4968 547.408 32.4621 543.047 Q37.4273 538.687 46.212 538.687 Q54.9649 538.687 59.9619 543.047 Q64.9272 547.408 64.9272 555.047 Q64.9272 562.717 59.9619 567.078 Q54.9649 571.406 46.212 571.406 Q37.4273 571.406 32.4621 567.078 Q27.4968 562.717 27.4968 555.047 Z" fill="#000000" fill-rule="nonzero" fill-opacity="1" /><path clip-path="url(#clip850)" d="M18.2347 523.186 L28.3562 523.186 L28.3562 511.123 L32.9077 511.123 L32.9077 523.186 L52.2594 523.186 Q56.6199 523.186 57.8613 522.009 Q59.1026 520.799 59.1026 517.139 L59.1026 511.123 L64.0042 511.123 L64.0042 517.139 Q64.0042 523.918 61.4897 526.496 Q58.9434 529.074 52.2594 529.074 L32.9077 529.074 L32.9077 533.371 L28.3562 533.371 L28.3562 529.074 L18.2347 529.074 L18.2347 523.186 Z" fill="#000000" fill-rule="nonzero" fill-opacity="1" /><path clip-path="url(#clip850)" d="M32.4621 489.607 Q32.4621 494.318 36.1542 497.055 Q39.8145 499.792 46.212 499.792 Q52.6095 499.792 56.3017 497.087 Q59.9619 494.35 59.9619 489.607 Q59.9619 484.928 56.2698 482.191 Q52.5777 479.454 46.212 479.454 Q39.8781 479.454 36.186 482.191 Q32.4621 484.928 32.4621 489.607 M27.4968 489.607 Q27.4968 481.968 32.4621 477.608 Q37.4273 473.247 46.212 473.247 Q54.9649 473.247 59.9619 477.608 Q64.9272 481.968 64.9272 489.607 Q64.9272 497.278 59.9619 501.638 Q54.9649 505.967 46.212 505.967 Q37.4273 505.967 32.4621 501.638 Q27.4968 497.278 27.4968 489.607 Z" fill="#000000" fill-rule="nonzero" fill-opacity="1" /><path clip-path="url(#clip850)" d="M33.8307 442.883 Q33.2578 443.869 33.0032 445.047 Q32.7167 446.193 32.7167 447.593 Q32.7167 452.559 35.9632 455.232 Q39.1779 457.874 45.2253 457.874 L64.0042 457.874 L64.0042 463.762 L28.3562 463.762 L28.3562 457.874 L33.8944 457.874 Q30.6479 456.028 29.0883 453.068 Q27.4968 450.108 27.4968 445.875 Q27.4968 445.27 27.5923 444.538 Q27.656 443.806 27.8151 442.915 L33.8307 442.883 Z" fill="#000000" fill-rule="nonzero" fill-opacity="1" /><path clip-path="url(#clip850)" d="M14.479 416.561 L14.479 403.065 L19.0304 403.065 L19.0304 410.704 L68.0464 410.704 L68.0464 403.065 L72.5979 403.065 L72.5979 416.561 L14.479 416.561 Z" fill="#000000" fill-rule="nonzero" fill-opacity="1" /><path clip-path="url(#clip850)" d="M16.4842 390.334 L16.4842 381.677 L56.238 360.606 L16.4842 360.606 L16.4842 354.368 L64.0042 354.368 L64.0042 363.025 L24.2503 384.096 L64.0042 384.096 L64.0042 390.334 L16.4842 390.334 Z" fill="#000000" fill-rule="nonzero" fill-opacity="1" /><path clip-path="url(#clip850)" d="M14.479 328.141 L72.5979 328.141 L72.5979 341.636 L68.0464 341.636 L68.0464 334.029 L19.0304 334.029 L19.0304 341.636 L14.479 341.636 L14.479 328.141 Z" fill="#000000" fill-rule="nonzero" fill-opacity="1" /><polyline clip-path="url(#clip852)" style="stroke:#781b86; stroke-linecap:round; stroke-linejoin:round; stroke-width:8; stroke-opacity:1; fill:none" points="205.121,565.998 291.026,565.872 376.932,565.845 462.837,565.82 548.743,565.795 634.648,565.769 720.553,565.743 806.459,565.717 892.364,565.689 978.27,565.661 1064.17,565.633 1150.08,565.604 1235.99,565.575 1321.89,565.545 1407.8,565.515 1493.7,565.484 1579.61,565.453 1665.51,565.421 1751.42,565.39 1837.32,565.358 1923.23,565.327 2009.13,565.297 2095.04,565.268 2180.95,565.241 2266.85,565.219 2352.76,565.203 "/>
<circle clip-path="url(#clip852)" cx="205.121" cy="574.686" r="10.8" fill="#781b86" fill-rule="evenodd" fill-opacity="1" stroke="none"/>
<circle clip-path="url(#clip852)" cx="419.884" cy="574.686" r="10.8" fill="#781b86" fill-rule="evenodd" fill-opacity="1" stroke="none"/>
<circle clip-path="url(#clip852)" cx="634.648" cy="574.686" r="10.8" fill="#781b86" fill-rule="evenodd" fill-opacity="1" stroke="none"/>
<circle clip-path="url(#clip852)" cx="849.411" cy="574.686" r="10.8" fill="#781b86" fill-rule="evenodd" fill-opacity="1" stroke="none"/>
<circle clip-path="url(#clip852)" cx="1064.17" cy="574.686" r="10.8" fill="#781b86" fill-rule="evenodd" fill-opacity="1" stroke="none"/>
<circle clip-path="url(#clip852)" cx="1278.94" cy="574.686" r="10.8" fill="#781b86" fill-rule="evenodd" fill-opacity="1" stroke="none"/>
<circle clip-path="url(#clip852)" cx="1493.7" cy="574.686" r="10.8" fill="#781b86" fill-rule="evenodd" fill-opacity="1" stroke="none"/>
<circle clip-path="url(#clip852)" cx="1708.47" cy="574.686" r="10.8" fill="#781b86" fill-rule="evenodd" fill-opacity="1" stroke="none"/>
<circle clip-path="url(#clip852)" cx="1923.23" cy="574.686" r="10.8" fill="#781b86" fill-rule="evenodd" fill-opacity="1" stroke="none"/>
<circle clip-path="url(#clip852)" cx="2137.99" cy="574.686" r="10.8" fill="#781b86" fill-rule="evenodd" fill-opacity="1" stroke="none"/>
<circle clip-path="url(#clip852)" cx="2352.76" cy="574.686" r="10.8" fill="#781b86" fill-rule="evenodd" fill-opacity="1" stroke="none"/>
<polyline clip-path="url(#clip852)" style="stroke:#da2121; stroke-linecap:round; stroke-linejoin:round; stroke-width:8; stroke-opacity:1; fill:none" points="205.121,569.242 291.026,565.959 376.932,565.832 462.837,565.797 548.743,565.767 634.648,565.737 720.553,565.707 806.459,565.675 892.364,565.643 978.27,565.609 1064.17,565.576 1150.08,565.542 1235.99,565.507 1321.89,565.472 1407.8,565.435 1493.7,565.398 1579.61,565.361 1665.51,565.322 1751.42,565.283 1837.32,565.243 1923.23,565.203 2009.13,565.161 2095.04,565.119 2180.95,565.076 2266.85,565.032 2352.76,564.987 "/>
<circle clip-path="url(#clip852)" cx="205.121" cy="574.686" r="10.8" fill="#da2121" fill-rule="evenodd" fill-opacity="1" stroke="none"/>
<circle clip-path="url(#clip852)" cx="419.884" cy="574.686" r="10.8" fill="#da2121" fill-rule="evenodd" fill-opacity="1" stroke="none"/>
<circle clip-path="url(#clip852)" cx="634.648" cy="574.686" r="10.8" fill="#da2121" fill-rule="evenodd" fill-opacity="1" stroke="none"/>
<circle clip-path="url(#clip852)" cx="849.411" cy="574.686" r="10.8" fill="#da2121" fill-rule="evenodd" fill-opacity="1" stroke="none"/>
<circle clip-path="url(#clip852)" cx="1064.17" cy="574.686" r="10.8" fill="#da2121" fill-rule="evenodd" fill-opacity="1" stroke="none"/>
<circle clip-path="url(#clip852)" cx="1278.94" cy="574.686" r="10.8" fill="#da2121" fill-rule="evenodd" fill-opacity="1" stroke="none"/>
<circle clip-path="url(#clip852)" cx="1493.7" cy="574.686" r="10.8" fill="#da2121" fill-rule="evenodd" fill-opacity="1" stroke="none"/>
<circle clip-path="url(#clip852)" cx="1708.47" cy="574.686" r="10.8" fill="#da2121" fill-rule="evenodd" fill-opacity="1" stroke="none"/>
<circle clip-path="url(#clip852)" cx="1923.23" cy="574.686" r="10.8" fill="#da2121" fill-rule="evenodd" fill-opacity="1" stroke="none"/>
<circle clip-path="url(#clip852)" cx="2137.99" cy="574.686" r="10.8" fill="#da2121" fill-rule="evenodd" fill-opacity="1" stroke="none"/>
<circle clip-path="url(#clip852)" cx="2352.76" cy="574.686" r="10.8" fill="#da2121" fill-rule="evenodd" fill-opacity="1" stroke="none"/>
<path clip-path="url(#clip850)" d="M1556.18 352.309 L2281.17 352.309 L2281.17 93.1086 L1556.18 93.1086  Z" fill="#ffffff" fill-rule="evenodd" fill-opacity="1"/>
<polyline clip-path="url(#clip850)" style="stroke:#000000; stroke-linecap:round; stroke-linejoin:round; stroke-width:4; stroke-opacity:1; fill:none" points="1556.18,352.309 2281.17,352.309 2281.17,93.1086 1556.18,93.1086 1556.18,352.309 "/>
<polyline clip-path="url(#clip850)" style="stroke:#000000; stroke-linecap:round; stroke-linejoin:round; stroke-width:8; stroke-opacity:1; fill:none" points="1580.04,144.949 1723.21,144.949 "/>
<path clip-path="url(#clip850)" d="M1762.91 132.275 L1756.57 149.474 L1769.28 149.474 L1762.91 132.275 M1760.27 127.669 L1765.57 127.669 L1778.74 162.229 L1773.88 162.229 L1770.73 153.363 L1755.16 153.363 L1752.01 162.229 L1747.08 162.229 L1760.27 127.669 Z" fill="#000000" fill-rule="nonzero" fill-opacity="1" /><path clip-path="url(#clip850)" d="M1804.95 148.201 L1804.95 150.284 L1785.36 150.284 Q1785.64 154.682 1788 156.997 Q1790.39 159.289 1794.62 159.289 Q1797.08 159.289 1799.37 158.687 Q1801.68 158.085 1803.95 156.881 L1803.95 160.909 Q1801.66 161.881 1799.25 162.391 Q1796.84 162.9 1794.37 162.9 Q1788.16 162.9 1784.53 159.289 Q1780.92 155.678 1780.92 149.52 Q1780.92 143.155 1784.35 139.428 Q1787.79 135.678 1793.63 135.678 Q1798.86 135.678 1801.89 139.057 Q1804.95 142.414 1804.95 148.201 M1800.69 146.951 Q1800.64 143.456 1798.72 141.372 Q1796.82 139.289 1793.67 139.289 Q1790.11 139.289 1787.96 141.303 Q1785.83 143.317 1785.5 146.974 L1800.69 146.951 Z" fill="#000000" fill-rule="nonzero" fill-opacity="1" /><path clip-path="url(#clip850)" d="M1826.96 140.284 Q1826.24 139.868 1825.39 139.682 Q1824.55 139.474 1823.53 139.474 Q1819.92 139.474 1817.98 141.835 Q1816.06 144.173 1816.06 148.571 L1816.06 162.229 L1811.78 162.229 L1811.78 136.303 L1816.06 136.303 L1816.06 140.331 Q1817.4 137.969 1819.55 136.835 Q1821.71 135.678 1824.78 135.678 Q1825.22 135.678 1825.76 135.747 Q1826.29 135.794 1826.94 135.909 L1826.96 140.284 Z" fill="#000000" fill-rule="nonzero" fill-opacity="1" /><path clip-path="url(#clip850)" d="M1840.43 139.289 Q1837.01 139.289 1835.02 141.974 Q1833.03 144.636 1833.03 149.289 Q1833.03 153.942 1834.99 156.627 Q1836.98 159.289 1840.43 159.289 Q1843.84 159.289 1845.83 156.604 Q1847.82 153.918 1847.82 149.289 Q1847.82 144.682 1845.83 141.997 Q1843.84 139.289 1840.43 139.289 M1840.43 135.678 Q1845.99 135.678 1849.16 139.289 Q1852.33 142.9 1852.33 149.289 Q1852.33 155.655 1849.16 159.289 Q1845.99 162.9 1840.43 162.9 Q1834.85 162.9 1831.68 159.289 Q1828.53 155.655 1828.53 149.289 Q1828.53 142.9 1831.68 139.289 Q1834.85 135.678 1840.43 135.678 Z" fill="#000000" fill-rule="nonzero" fill-opacity="1" /><path clip-path="url(#clip850)" d="M1864.25 145.724 L1864.25 158.386 L1871.75 158.386 Q1875.53 158.386 1877.33 156.835 Q1879.16 155.261 1879.16 152.043 Q1879.16 148.803 1877.33 147.275 Q1875.53 145.724 1871.75 145.724 L1864.25 145.724 M1864.25 131.511 L1864.25 141.928 L1871.17 141.928 Q1874.6 141.928 1876.27 140.655 Q1877.96 139.358 1877.96 136.719 Q1877.96 134.104 1876.27 132.807 Q1874.6 131.511 1871.17 131.511 L1864.25 131.511 M1859.58 127.669 L1871.52 127.669 Q1876.87 127.669 1879.76 129.891 Q1882.65 132.113 1882.65 136.21 Q1882.65 139.382 1881.17 141.257 Q1879.69 143.131 1876.82 143.594 Q1880.27 144.335 1882.17 146.696 Q1884.09 149.034 1884.09 152.553 Q1884.09 157.182 1880.94 159.705 Q1877.79 162.229 1871.98 162.229 L1859.58 162.229 L1859.58 127.669 Z" fill="#000000" fill-rule="nonzero" fill-opacity="1" /><path clip-path="url(#clip850)" d="M1914.09 148.201 L1914.09 150.284 L1894.51 150.284 Q1894.78 154.682 1897.15 156.997 Q1899.53 159.289 1903.77 159.289 Q1906.22 159.289 1908.51 158.687 Q1910.83 158.085 1913.09 156.881 L1913.09 160.909 Q1910.8 161.881 1908.4 162.391 Q1905.99 162.9 1903.51 162.9 Q1897.31 162.9 1893.67 159.289 Q1890.06 155.678 1890.06 149.52 Q1890.06 143.155 1893.49 139.428 Q1896.94 135.678 1902.77 135.678 Q1908 135.678 1911.03 139.057 Q1914.09 142.414 1914.09 148.201 M1909.83 146.951 Q1909.78 143.456 1907.86 141.372 Q1905.96 139.289 1902.82 139.289 Q1899.25 139.289 1897.1 141.303 Q1894.97 143.317 1894.65 146.974 L1909.83 146.951 Z" fill="#000000" fill-rule="nonzero" fill-opacity="1" /><path clip-path="url(#clip850)" d="M1932.86 149.196 Q1927.7 149.196 1925.71 150.377 Q1923.72 151.557 1923.72 154.405 Q1923.72 156.673 1925.2 158.016 Q1926.71 159.335 1929.27 159.335 Q1932.82 159.335 1934.95 156.835 Q1937.1 154.312 1937.1 150.145 L1937.1 149.196 L1932.86 149.196 M1941.36 147.437 L1941.36 162.229 L1937.1 162.229 L1937.1 158.293 Q1935.64 160.655 1933.46 161.789 Q1931.29 162.9 1928.14 162.9 Q1924.16 162.9 1921.8 160.678 Q1919.46 158.432 1919.46 154.682 Q1919.46 150.307 1922.38 148.085 Q1925.32 145.863 1931.13 145.863 L1937.1 145.863 L1937.1 145.446 Q1937.1 142.507 1935.15 140.909 Q1933.23 139.289 1929.74 139.289 Q1927.52 139.289 1925.41 139.821 Q1923.3 140.354 1921.36 141.419 L1921.36 137.483 Q1923.7 136.581 1925.9 136.141 Q1928.09 135.678 1930.18 135.678 Q1935.8 135.678 1938.58 138.594 Q1941.36 141.511 1941.36 147.437 Z" fill="#000000" fill-rule="nonzero" fill-opacity="1" /><path clip-path="url(#clip850)" d="M1970.32 141.28 Q1971.91 138.409 1974.14 137.044 Q1976.36 135.678 1979.37 135.678 Q1983.42 135.678 1985.62 138.525 Q1987.82 141.349 1987.82 146.581 L1987.82 162.229 L1983.53 162.229 L1983.53 146.719 Q1983.53 142.993 1982.21 141.187 Q1980.89 139.382 1978.19 139.382 Q1974.88 139.382 1972.96 141.581 Q1971.03 143.78 1971.03 147.576 L1971.03 162.229 L1966.75 162.229 L1966.75 146.719 Q1966.75 142.969 1965.43 141.187 Q1964.11 139.382 1961.36 139.382 Q1958.09 139.382 1956.17 141.604 Q1954.25 143.803 1954.25 147.576 L1954.25 162.229 L1949.97 162.229 L1949.97 136.303 L1954.25 136.303 L1954.25 140.331 Q1955.71 137.946 1957.75 136.812 Q1959.78 135.678 1962.58 135.678 Q1965.41 135.678 1967.38 137.113 Q1969.37 138.548 1970.32 141.28 Z" fill="#000000" fill-rule="nonzero" fill-opacity="1" /><path clip-path="url(#clip850)" d="M2012.84 137.067 L2012.84 141.094 Q2011.03 140.169 2009.09 139.706 Q2007.14 139.243 2005.06 139.243 Q2001.89 139.243 2000.29 140.215 Q1998.72 141.187 1998.72 143.131 Q1998.72 144.613 1999.85 145.469 Q2000.99 146.303 2004.41 147.067 L2005.87 147.391 Q2010.41 148.363 2012.31 150.145 Q2014.23 151.905 2014.23 155.076 Q2014.23 158.687 2011.36 160.793 Q2008.51 162.9 2003.51 162.9 Q2001.43 162.9 1999.16 162.483 Q1996.91 162.09 1994.41 161.28 L1994.41 156.881 Q1996.77 158.108 1999.07 158.733 Q2001.36 159.335 2003.6 159.335 Q2006.61 159.335 2008.23 158.317 Q2009.85 157.275 2009.85 155.4 Q2009.85 153.664 2008.67 152.738 Q2007.52 151.812 2003.56 150.956 L2002.08 150.608 Q1998.12 149.775 1996.36 148.062 Q1994.6 146.326 1994.6 143.317 Q1994.6 139.659 1997.19 137.669 Q1999.78 135.678 2004.55 135.678 Q2006.91 135.678 2009 136.025 Q2011.08 136.372 2012.84 137.067 Z" fill="#000000" fill-rule="nonzero" fill-opacity="1" /><circle clip-path="url(#clip850)" cx="1651.63" cy="196.789" r="19.7486" fill="#000000" fill-rule="evenodd" fill-opacity="1" stroke="none"/>
<path clip-path="url(#clip850)" d="M1751.75 183.351 L1751.75 196.337 L1757.63 196.337 Q1760.9 196.337 1762.68 194.647 Q1764.46 192.958 1764.46 189.833 Q1764.46 186.731 1762.68 185.041 Q1760.9 183.351 1757.63 183.351 L1751.75 183.351 M1747.08 179.509 L1757.63 179.509 Q1763.44 179.509 1766.41 182.147 Q1769.39 184.763 1769.39 189.833 Q1769.39 194.948 1766.41 197.564 Q1763.44 200.18 1757.63 200.18 L1751.75 200.18 L1751.75 214.069 L1747.08 214.069 L1747.08 179.509 Z" fill="#000000" fill-rule="nonzero" fill-opacity="1" /><path clip-path="url(#clip850)" d="M1785.13 201.036 Q1779.97 201.036 1777.98 202.217 Q1775.99 203.397 1775.99 206.245 Q1775.99 208.513 1777.47 209.856 Q1778.97 211.175 1781.54 211.175 Q1785.09 211.175 1787.22 208.675 Q1789.37 206.152 1789.37 201.985 L1789.37 201.036 L1785.13 201.036 M1793.63 199.277 L1793.63 214.069 L1789.37 214.069 L1789.37 210.133 Q1787.91 212.495 1785.73 213.629 Q1783.56 214.74 1780.41 214.74 Q1776.43 214.74 1774.07 212.518 Q1771.73 210.272 1771.73 206.522 Q1771.73 202.147 1774.65 199.925 Q1777.59 197.703 1783.4 197.703 L1789.37 197.703 L1789.37 197.286 Q1789.37 194.347 1787.42 192.749 Q1785.5 191.129 1782.01 191.129 Q1779.78 191.129 1777.68 191.661 Q1775.57 192.194 1773.63 193.259 L1773.63 189.323 Q1775.97 188.421 1778.16 187.981 Q1780.36 187.518 1782.45 187.518 Q1788.07 187.518 1790.85 190.434 Q1793.63 193.351 1793.63 199.277 Z" fill="#000000" fill-rule="nonzero" fill-opacity="1" /><path clip-path="url(#clip850)" d="M1806.61 180.782 L1806.61 188.143 L1815.39 188.143 L1815.39 191.453 L1806.61 191.453 L1806.61 205.527 Q1806.61 208.698 1807.47 209.601 Q1808.35 210.504 1811.01 210.504 L1815.39 210.504 L1815.39 214.069 L1811.01 214.069 Q1806.08 214.069 1804.21 212.24 Q1802.33 210.388 1802.33 205.527 L1802.33 191.453 L1799.21 191.453 L1799.21 188.143 L1802.33 188.143 L1802.33 180.782 L1806.61 180.782 Z" fill="#000000" fill-rule="nonzero" fill-opacity="1" /><path clip-path="url(#clip850)" d="M1820.99 188.143 L1825.25 188.143 L1825.25 214.069 L1820.99 214.069 L1820.99 188.143 M1820.99 178.05 L1825.25 178.05 L1825.25 183.444 L1820.99 183.444 L1820.99 178.05 Z" fill="#000000" fill-rule="nonzero" fill-opacity="1" /><path clip-path="url(#clip850)" d="M1834.16 178.05 L1838.42 178.05 L1838.42 214.069 L1834.16 214.069 L1834.16 178.05 Z" fill="#000000" fill-rule="nonzero" fill-opacity="1" /><path clip-path="url(#clip850)" d="M1869.46 195.481 Q1867.35 197.356 1866.36 199.231 Q1865.39 201.083 1865.39 203.12 Q1865.39 206.499 1867.84 208.745 Q1870.29 210.99 1874 210.99 Q1876.2 210.99 1878.12 210.272 Q1880.04 209.532 1881.73 208.05 L1869.46 195.481 M1872.72 192.888 L1884.48 204.925 Q1885.85 202.865 1886.61 200.527 Q1887.38 198.166 1887.52 195.527 L1891.82 195.527 Q1891.54 198.583 1890.34 201.569 Q1889.14 204.555 1886.98 207.471 L1893.44 214.069 L1887.61 214.069 L1884.3 210.666 Q1881.89 212.726 1879.25 213.745 Q1876.61 214.74 1873.58 214.74 Q1868 214.74 1864.46 211.569 Q1860.92 208.374 1860.92 203.397 Q1860.92 200.434 1862.47 197.842 Q1864.02 195.226 1867.12 192.934 Q1866.01 191.476 1865.43 190.041 Q1864.85 188.583 1864.85 187.194 Q1864.85 183.444 1867.42 181.175 Q1869.99 178.884 1874.25 178.884 Q1876.17 178.884 1878.07 179.3 Q1879.99 179.717 1881.96 180.55 L1881.96 184.763 Q1879.95 183.675 1878.12 183.12 Q1876.29 182.541 1874.71 182.541 Q1872.28 182.541 1870.76 183.837 Q1869.25 185.11 1869.25 187.147 Q1869.25 188.328 1869.92 189.532 Q1870.62 190.712 1872.72 192.888 Z" fill="#000000" fill-rule="nonzero" fill-opacity="1" /><path clip-path="url(#clip850)" d="M1914.62 179.509 L1919.3 179.509 L1919.3 193.675 L1936.29 193.675 L1936.29 179.509 L1940.96 179.509 L1940.96 214.069 L1936.29 214.069 L1936.29 197.61 L1919.3 197.61 L1919.3 214.069 L1914.62 214.069 L1914.62 179.509 Z" fill="#000000" fill-rule="nonzero" fill-opacity="1" /><path clip-path="url(#clip850)" d="M1960.13 191.129 Q1956.71 191.129 1954.71 193.814 Q1952.72 196.476 1952.72 201.129 Q1952.72 205.782 1954.69 208.467 Q1956.68 211.129 1960.13 211.129 Q1963.53 211.129 1965.52 208.444 Q1967.52 205.758 1967.52 201.129 Q1967.52 196.522 1965.52 193.837 Q1963.53 191.129 1960.13 191.129 M1960.13 187.518 Q1965.69 187.518 1968.86 191.129 Q1972.03 194.74 1972.03 201.129 Q1972.03 207.495 1968.86 211.129 Q1965.69 214.74 1960.13 214.74 Q1954.55 214.74 1951.38 211.129 Q1948.23 207.495 1948.23 201.129 Q1948.23 194.74 1951.38 191.129 Q1954.55 187.518 1960.13 187.518 Z" fill="#000000" fill-rule="nonzero" fill-opacity="1" /><path clip-path="url(#clip850)" d="M1996.15 192.078 L1996.15 178.05 L2000.41 178.05 L2000.41 214.069 L1996.15 214.069 L1996.15 210.18 Q1994.81 212.495 1992.75 213.629 Q1990.71 214.74 1987.84 214.74 Q1983.14 214.74 1980.18 210.99 Q1977.24 207.24 1977.24 201.129 Q1977.24 195.018 1980.18 191.268 Q1983.14 187.518 1987.84 187.518 Q1990.71 187.518 1992.75 188.652 Q1994.81 189.763 1996.15 192.078 M1981.64 201.129 Q1981.64 205.828 1983.56 208.513 Q1985.5 211.175 1988.88 211.175 Q1992.26 211.175 1994.21 208.513 Q1996.15 205.828 1996.15 201.129 Q1996.15 196.43 1994.21 193.768 Q1992.26 191.083 1988.88 191.083 Q1985.5 191.083 1983.56 193.768 Q1981.64 196.43 1981.64 201.129 Z" fill="#000000" fill-rule="nonzero" fill-opacity="1" /><path clip-path="url(#clip850)" d="M2026.24 200.805 Q2026.24 196.175 2024.32 193.629 Q2022.42 191.083 2018.97 191.083 Q2015.55 191.083 2013.63 193.629 Q2011.73 196.175 2011.73 200.805 Q2011.73 205.411 2013.63 207.958 Q2015.55 210.504 2018.97 210.504 Q2022.42 210.504 2024.32 207.958 Q2026.24 205.411 2026.24 200.805 M2030.5 210.851 Q2030.5 217.471 2027.56 220.689 Q2024.62 223.93 2018.56 223.93 Q2016.31 223.93 2014.32 223.582 Q2012.33 223.258 2010.45 222.564 L2010.45 218.42 Q2012.33 219.439 2014.16 219.925 Q2015.99 220.411 2017.89 220.411 Q2022.08 220.411 2024.16 218.212 Q2026.24 216.036 2026.24 211.615 L2026.24 209.508 Q2024.92 211.8 2022.86 212.934 Q2020.8 214.069 2017.93 214.069 Q2013.16 214.069 2010.25 210.434 Q2007.33 206.8 2007.33 200.805 Q2007.33 194.786 2010.25 191.152 Q2013.16 187.518 2017.93 187.518 Q2020.8 187.518 2022.86 188.652 Q2024.92 189.786 2026.24 192.078 L2026.24 188.143 L2030.5 188.143 L2030.5 210.851 Z" fill="#000000" fill-rule="nonzero" fill-opacity="1" /><path clip-path="url(#clip850)" d="M2061.45 200.041 L2061.45 202.124 L2041.87 202.124 Q2042.14 206.522 2044.51 208.837 Q2046.89 211.129 2051.13 211.129 Q2053.58 211.129 2055.87 210.527 Q2058.19 209.925 2060.45 208.721 L2060.45 212.749 Q2058.16 213.721 2055.76 214.231 Q2053.35 214.74 2050.87 214.74 Q2044.67 214.74 2041.03 211.129 Q2037.42 207.518 2037.42 201.36 Q2037.42 194.995 2040.85 191.268 Q2044.3 187.518 2050.13 187.518 Q2055.36 187.518 2058.39 190.897 Q2061.45 194.254 2061.45 200.041 M2057.19 198.791 Q2057.14 195.296 2055.22 193.212 Q2053.33 191.129 2050.18 191.129 Q2046.61 191.129 2044.46 193.143 Q2042.33 195.157 2042.01 198.814 L2057.19 198.791 Z" fill="#000000" fill-rule="nonzero" fill-opacity="1" /><path clip-path="url(#clip850)" d="M2084.97 188.907 L2084.97 192.934 Q2083.16 192.009 2081.22 191.546 Q2079.27 191.083 2077.19 191.083 Q2074.02 191.083 2072.42 192.055 Q2070.85 193.027 2070.85 194.971 Q2070.85 196.453 2071.98 197.309 Q2073.12 198.143 2076.54 198.907 L2078 199.231 Q2082.54 200.203 2084.44 201.985 Q2086.36 203.745 2086.36 206.916 Q2086.36 210.527 2083.49 212.633 Q2080.64 214.74 2075.64 214.74 Q2073.56 214.74 2071.29 214.323 Q2069.04 213.93 2066.54 213.12 L2066.54 208.721 Q2068.9 209.948 2071.2 210.573 Q2073.49 211.175 2075.73 211.175 Q2078.74 211.175 2080.36 210.157 Q2081.98 209.115 2081.98 207.24 Q2081.98 205.504 2080.8 204.578 Q2079.64 203.652 2075.69 202.796 L2074.2 202.448 Q2070.25 201.615 2068.49 199.902 Q2066.73 198.166 2066.73 195.157 Q2066.73 191.499 2069.32 189.509 Q2071.91 187.518 2076.68 187.518 Q2079.04 187.518 2081.13 187.865 Q2083.21 188.212 2084.97 188.907 Z" fill="#000000" fill-rule="nonzero" fill-opacity="1" /><path clip-path="url(#clip850)" d="M2118.44 178.097 Q2115.34 183.421 2113.83 188.629 Q2112.33 193.837 2112.33 199.184 Q2112.33 204.532 2113.83 209.786 Q2115.36 215.018 2118.44 220.319 L2114.74 220.319 Q2111.26 214.879 2109.53 209.624 Q2107.82 204.37 2107.82 199.184 Q2107.82 194.022 2109.53 188.791 Q2111.24 183.56 2114.74 178.097 L2118.44 178.097 Z" fill="#000000" fill-rule="nonzero" fill-opacity="1" /><path clip-path="url(#clip850)" d="M2131.33 210.133 L2147.65 210.133 L2147.65 214.069 L2125.71 214.069 L2125.71 210.133 Q2128.37 207.379 2132.95 202.749 Q2137.56 198.096 2138.74 196.754 Q2140.99 194.231 2141.87 192.495 Q2142.77 190.735 2142.77 189.046 Q2142.77 186.291 2140.82 184.555 Q2138.9 182.819 2135.8 182.819 Q2133.6 182.819 2131.15 183.583 Q2128.72 184.347 2125.94 185.897 L2125.94 181.175 Q2128.76 180.041 2131.22 179.462 Q2133.67 178.884 2135.71 178.884 Q2141.08 178.884 2144.27 181.569 Q2147.47 184.254 2147.47 188.745 Q2147.47 190.874 2146.66 192.796 Q2145.87 194.694 2143.76 197.286 Q2143.19 197.958 2140.08 201.175 Q2136.98 204.37 2131.33 210.133 Z" fill="#000000" fill-rule="nonzero" fill-opacity="1" /><path clip-path="url(#clip850)" d="M2167.47 182.587 Q2163.86 182.587 2162.03 186.152 Q2160.22 189.694 2160.22 196.823 Q2160.22 203.93 2162.03 207.495 Q2163.86 211.036 2167.47 211.036 Q2171.1 211.036 2172.91 207.495 Q2174.74 203.93 2174.74 196.823 Q2174.74 189.694 2172.91 186.152 Q2171.1 182.587 2167.47 182.587 M2167.47 178.884 Q2173.28 178.884 2176.33 183.49 Q2179.41 188.073 2179.41 196.823 Q2179.41 205.55 2176.33 210.157 Q2173.28 214.74 2167.47 214.74 Q2161.66 214.74 2158.58 210.157 Q2155.52 205.55 2155.52 196.823 Q2155.52 188.073 2158.58 183.49 Q2161.66 178.884 2167.47 178.884 Z" fill="#000000" fill-rule="nonzero" fill-opacity="1" /><path clip-path="url(#clip850)" d="M2197.63 182.587 Q2194.02 182.587 2192.19 186.152 Q2190.38 189.694 2190.38 196.823 Q2190.38 203.93 2192.19 207.495 Q2194.02 211.036 2197.63 211.036 Q2201.26 211.036 2203.07 207.495 Q2204.9 203.93 2204.9 196.823 Q2204.9 189.694 2203.07 186.152 Q2201.26 182.587 2197.63 182.587 M2197.63 178.884 Q2203.44 178.884 2206.5 183.49 Q2209.57 188.073 2209.57 196.823 Q2209.57 205.55 2206.5 210.157 Q2203.44 214.74 2197.63 214.74 Q2191.82 214.74 2188.74 210.157 Q2185.69 205.55 2185.69 196.823 Q2185.69 188.073 2188.74 183.49 Q2191.82 178.884 2197.63 178.884 Z" fill="#000000" fill-rule="nonzero" fill-opacity="1" /><path clip-path="url(#clip850)" d="M2228.37 194.925 Q2225.22 194.925 2223.37 197.078 Q2221.54 199.231 2221.54 202.981 Q2221.54 206.708 2223.37 208.883 Q2225.22 211.036 2228.37 211.036 Q2231.52 211.036 2233.35 208.883 Q2235.2 206.708 2235.2 202.981 Q2235.2 199.231 2233.35 197.078 Q2231.52 194.925 2228.37 194.925 M2237.65 180.273 L2237.65 184.532 Q2235.89 183.698 2234.09 183.259 Q2232.31 182.819 2230.55 182.819 Q2225.92 182.819 2223.46 185.944 Q2221.03 189.069 2220.69 195.388 Q2222.05 193.374 2224.11 192.309 Q2226.17 191.222 2228.65 191.222 Q2233.86 191.222 2236.87 194.393 Q2239.9 197.541 2239.9 202.981 Q2239.9 208.305 2236.75 211.522 Q2233.6 214.74 2228.37 214.74 Q2222.38 214.74 2219.2 210.157 Q2216.03 205.55 2216.03 196.823 Q2216.03 188.629 2219.92 183.768 Q2223.81 178.884 2230.36 178.884 Q2232.12 178.884 2233.9 179.231 Q2235.71 179.578 2237.65 180.273 Z" fill="#000000" fill-rule="nonzero" fill-opacity="1" /><path clip-path="url(#clip850)" d="M2246.68 178.097 L2250.38 178.097 Q2253.86 183.56 2255.57 188.791 Q2257.31 194.022 2257.31 199.184 Q2257.31 204.37 2255.57 209.624 Q2253.86 214.879 2250.38 220.319 L2246.68 220.319 Q2249.76 215.018 2251.26 209.786 Q2252.79 204.532 2252.79 199.184 Q2252.79 193.837 2251.26 188.629 Q2249.76 183.421 2246.68 178.097 Z" fill="#000000" fill-rule="nonzero" fill-opacity="1" /><polyline clip-path="url(#clip850)" style="stroke:#781b86; stroke-linecap:round; stroke-linejoin:round; stroke-width:8; stroke-opacity:1; fill:none" points="1580.04,248.629 1723.21,248.629 "/>
<path clip-path="url(#clip850)" d="M1747.08 231.349 L1766.94 231.349 L1766.94 235.284 L1751.75 235.284 L1751.75 245.469 L1765.46 245.469 L1765.46 249.404 L1751.75 249.404 L1751.75 265.909 L1747.08 265.909 L1747.08 231.349 Z" fill="#000000" fill-rule="nonzero" fill-opacity="1" /><path clip-path="url(#clip850)" d="M1774.16 229.89 L1778.42 229.89 L1778.42 265.909 L1774.16 265.909 L1774.16 229.89 Z" fill="#000000" fill-rule="nonzero" fill-opacity="1" /><path clip-path="url(#clip850)" d="M1809.51 251.881 L1809.51 253.964 L1789.92 253.964 Q1790.2 258.362 1792.56 260.677 Q1794.95 262.969 1799.18 262.969 Q1801.64 262.969 1803.93 262.367 Q1806.24 261.765 1808.51 260.561 L1808.51 264.589 Q1806.22 265.561 1803.81 266.071 Q1801.41 266.58 1798.93 266.58 Q1792.72 266.58 1789.09 262.969 Q1785.48 259.358 1785.48 253.2 Q1785.48 246.835 1788.91 243.108 Q1792.35 239.358 1798.19 239.358 Q1803.42 239.358 1806.45 242.737 Q1809.51 246.094 1809.51 251.881 M1805.25 250.631 Q1805.2 247.136 1803.28 245.052 Q1801.38 242.969 1798.23 242.969 Q1794.67 242.969 1792.52 244.983 Q1790.39 246.997 1790.06 250.654 L1805.25 250.631 Z" fill="#000000" fill-rule="nonzero" fill-opacity="1" /><path clip-path="url(#clip850)" d="M1837.22 239.983 L1827.84 252.599 L1837.7 265.909 L1832.68 265.909 L1825.13 255.723 L1817.59 265.909 L1812.56 265.909 L1822.63 252.344 L1813.42 239.983 L1818.44 239.983 L1825.32 249.219 L1832.19 239.983 L1837.22 239.983 Z" fill="#000000" fill-rule="nonzero" fill-opacity="1" /><path clip-path="url(#clip850)" d="M1843.72 239.983 L1847.98 239.983 L1847.98 265.909 L1843.72 265.909 L1843.72 239.983 M1843.72 229.89 L1847.98 229.89 L1847.98 235.284 L1843.72 235.284 L1843.72 229.89 Z" fill="#000000" fill-rule="nonzero" fill-opacity="1" /><path clip-path="url(#clip850)" d="M1875.5 252.969 Q1875.5 248.27 1873.56 245.608 Q1871.64 242.923 1868.26 242.923 Q1864.88 242.923 1862.93 245.608 Q1861.01 248.27 1861.01 252.969 Q1861.01 257.668 1862.93 260.353 Q1864.88 263.015 1868.26 263.015 Q1871.64 263.015 1873.56 260.353 Q1875.5 257.668 1875.5 252.969 M1861.01 243.918 Q1862.35 241.603 1864.39 240.492 Q1866.45 239.358 1869.3 239.358 Q1874.02 239.358 1876.96 243.108 Q1879.92 246.858 1879.92 252.969 Q1879.92 259.08 1876.96 262.83 Q1874.02 266.58 1869.3 266.58 Q1866.45 266.58 1864.39 265.469 Q1862.35 264.335 1861.01 262.02 L1861.01 265.909 L1856.73 265.909 L1856.73 229.89 L1861.01 229.89 L1861.01 243.918 Z" fill="#000000" fill-rule="nonzero" fill-opacity="1" /><path clip-path="url(#clip850)" d="M1886.98 229.89 L1891.24 229.89 L1891.24 265.909 L1886.98 265.909 L1886.98 229.89 Z" fill="#000000" fill-rule="nonzero" fill-opacity="1" /><path clip-path="url(#clip850)" d="M1922.33 251.881 L1922.33 253.964 L1902.75 253.964 Q1903.02 258.362 1905.39 260.677 Q1907.77 262.969 1912.01 262.969 Q1914.46 262.969 1916.75 262.367 Q1919.07 261.765 1921.34 260.561 L1921.34 264.589 Q1919.04 265.561 1916.64 266.071 Q1914.23 266.58 1911.75 266.58 Q1905.55 266.58 1901.91 262.969 Q1898.3 259.358 1898.3 253.2 Q1898.3 246.835 1901.73 243.108 Q1905.18 239.358 1911.01 239.358 Q1916.24 239.358 1919.27 242.737 Q1922.33 246.094 1922.33 251.881 M1918.07 250.631 Q1918.02 247.136 1916.1 245.052 Q1914.21 242.969 1911.06 242.969 Q1907.49 242.969 1905.34 244.983 Q1903.21 246.997 1902.89 250.654 L1918.07 250.631 Z" fill="#000000" fill-rule="nonzero" fill-opacity="1" /><polyline clip-path="url(#clip850)" style="stroke:#da2121; stroke-linecap:round; stroke-linejoin:round; stroke-width:8; stroke-opacity:1; fill:none" points="1580.04,300.469 1723.21,300.469 "/>
<path clip-path="url(#clip850)" d="M1763.47 301.545 Q1764.97 302.054 1766.38 303.721 Q1767.82 305.388 1769.25 308.304 L1774 317.749 L1768.97 317.749 L1764.55 308.883 Q1762.84 305.411 1761.22 304.276 Q1759.62 303.142 1756.85 303.142 L1751.75 303.142 L1751.75 317.749 L1747.08 317.749 L1747.08 283.189 L1757.63 283.189 Q1763.56 283.189 1766.47 285.665 Q1769.39 288.142 1769.39 293.142 Q1769.39 296.406 1767.86 298.559 Q1766.36 300.712 1763.47 301.545 M1751.75 287.031 L1751.75 299.3 L1757.63 299.3 Q1761.01 299.3 1762.72 297.749 Q1764.46 296.175 1764.46 293.142 Q1764.46 290.11 1762.72 288.582 Q1761.01 287.031 1757.63 287.031 L1751.75 287.031 Z" fill="#000000" fill-rule="nonzero" fill-opacity="1" /><path clip-path="url(#clip850)" d="M1779.83 291.823 L1784.09 291.823 L1784.09 317.749 L1779.83 317.749 L1779.83 291.823 M1779.83 281.73 L1784.09 281.73 L1784.09 287.124 L1779.83 287.124 L1779.83 281.73 Z" fill="#000000" fill-rule="nonzero" fill-opacity="1" /><path clip-path="url(#clip850)" d="M1810.06 304.485 Q1810.06 299.855 1808.14 297.309 Q1806.24 294.763 1802.79 294.763 Q1799.37 294.763 1797.45 297.309 Q1795.55 299.855 1795.55 304.485 Q1795.55 309.091 1797.45 311.638 Q1799.37 314.184 1802.79 314.184 Q1806.24 314.184 1808.14 311.638 Q1810.06 309.091 1810.06 304.485 M1814.32 314.531 Q1814.32 321.151 1811.38 324.369 Q1808.44 327.61 1802.38 327.61 Q1800.13 327.61 1798.14 327.262 Q1796.15 326.938 1794.28 326.244 L1794.28 322.1 Q1796.15 323.119 1797.98 323.605 Q1799.81 324.091 1801.71 324.091 Q1805.9 324.091 1807.98 321.892 Q1810.06 319.716 1810.06 315.295 L1810.06 313.188 Q1808.74 315.48 1806.68 316.614 Q1804.62 317.749 1801.75 317.749 Q1796.98 317.749 1794.07 314.114 Q1791.15 310.48 1791.15 304.485 Q1791.15 298.466 1794.07 294.832 Q1796.98 291.198 1801.75 291.198 Q1804.62 291.198 1806.68 292.332 Q1808.74 293.466 1810.06 295.758 L1810.06 291.823 L1814.32 291.823 L1814.32 314.531 Z" fill="#000000" fill-rule="nonzero" fill-opacity="1" /><path clip-path="url(#clip850)" d="M1823.09 291.823 L1827.35 291.823 L1827.35 317.749 L1823.09 317.749 L1823.09 291.823 M1823.09 281.73 L1827.35 281.73 L1827.35 287.124 L1823.09 287.124 L1823.09 281.73 Z" fill="#000000" fill-rule="nonzero" fill-opacity="1" /><path clip-path="url(#clip850)" d="M1853.33 295.758 L1853.33 281.73 L1857.59 281.73 L1857.59 317.749 L1853.33 317.749 L1853.33 313.86 Q1851.98 316.175 1849.92 317.309 Q1847.89 318.42 1845.02 318.42 Q1840.32 318.42 1837.35 314.67 Q1834.41 310.92 1834.41 304.809 Q1834.41 298.698 1837.35 294.948 Q1840.32 291.198 1845.02 291.198 Q1847.89 291.198 1849.92 292.332 Q1851.98 293.443 1853.33 295.758 M1838.81 304.809 Q1838.81 309.508 1840.73 312.193 Q1842.68 314.855 1846.06 314.855 Q1849.44 314.855 1851.38 312.193 Q1853.33 309.508 1853.33 304.809 Q1853.33 300.11 1851.38 297.448 Q1849.44 294.763 1846.06 294.763 Q1842.68 294.763 1840.73 297.448 Q1838.81 300.11 1838.81 304.809 Z" fill="#000000" fill-rule="nonzero" fill-opacity="1" /></svg>
